<svg width="100%" height="100%"  viewBox="0 0 128 128" xmlns="http://www.w3.org/2000/svg">
 <g>
  <title>CityPark</title>
  <path d="m52.60703,50.87661c0,-9.99788 -5.85151,-18.62802 -14.31583,-22.65554c2.71249,-2.82272 4.32849,-6.70551 4.15404,-10.96786c-0.31534,-7.67932 -6.53203,-13.93052 -14.20944,-14.28324c-8.56496,-0.39393 -15.63278,6.4333 -15.63278,14.91104c0,4.01506 1.5882,7.65728 4.1665,10.34006c-8.46432,4.02753 -14.31583,12.65766 -14.31583,22.65554c0,6.95759 2.83518,13.25288 7.41095,17.7951c0.36326,0.36135 0.47253,0.90289 0.28275,1.37829c-0.89522,2.23709 -1.3735,4.68504 -1.33133,7.25185c0.16582,10.01034 8.32534,18.20054 18.33472,18.39894c10.51067,0.20799 19.09576,-8.24962 19.09576,-18.71237c0,-2.75562 -0.60001,-5.36843 -1.66871,-7.72437c4.93712,-4.57961 8.02917,-11.12218 8.02917,-18.38744zm0,0" fill="#95a378" id="svg_1"/>
  <path d="m112.1726,58.5406c2.6962,-3.07767 4.27673,-7.15696 4.10708,-11.60813c-0.33451,-8.78637 -7.58827,-15.86665 -16.38039,-15.99988c-9.31449,-0.14089 -16.90947,7.36686 -16.90947,16.64877c0,4.21826 1.56999,8.06751 4.15596,11.00045c1.42622,1.61791 1.10704,4.14158 -0.67956,5.35118c-6.23298,4.21826 -10.33719,11.34646 -10.35923,19.43506c-0.03642,12.83115 10.36786,23.41945 23.19804,23.59869c13.15224,0.18403 23.8709,-10.42249 23.8709,-23.53159c0,-8.10585 -4.09845,-15.25322 -10.33527,-19.48586c-1.81344,-1.22973 -2.11153,-3.76011 -0.66806,-5.40869zm0,0" fill="#23893b" id="svg_2"/>
  <path d="m76.7923,71.77526c1.16934,-2.20642 1.83549,-4.72242 1.83549,-7.39466c0,-8.73269 -7.08028,-15.81297 -15.81297,-15.81297c-8.70969,0 -15.77271,7.04194 -15.81105,15.743c-3.00195,1.46551 -5.07131,4.54702 -5.07131,8.11352c0,0.58371 0.05751,1.15401 0.1639,1.70801c-3.39781,2.38086 -5.62147,6.32212 -5.62147,10.78671c0,6.2349 4.33328,11.45381 10.1522,12.81868c2.19108,6.8512 8.60905,11.81228 16.18774,11.81228s13.99665,-4.96108 16.18869,-11.81228c5.81796,-1.36487 10.15124,-6.58379 10.15124,-12.81868c0,-7.00264 -5.46524,-12.72571 -12.36245,-13.14361zm0,0" fill="#74af66" id="svg_3"/>
  <path d="m27.53036,20.23982c-0.64793,0 -1.27861,0.26262 -1.73484,0.71886c-0.45624,0.45719 -0.71886,1.08979 -0.71886,1.73484c0,0.64601 0.26262,1.27861 0.71886,1.73484c0.45623,0.45911 1.08979,0.71886 1.73484,0.71886c0.64506,0 1.27861,-0.25975 1.73484,-0.71886c0.45624,-0.45623 0.71886,-1.08883 0.71886,-1.73484c0,-0.64506 -0.26262,-1.27573 -0.71886,-1.73484c-0.45623,-0.45624 -1.08979,-0.71886 -1.73484,-0.71886zm0,0" id="svg_4"/>
  <path fill="#333" d="m125.62963,83.43515c0,-8.62343 -4.26619,-16.66697 -11.41164,-21.51591c-0.37381,-0.254 -0.47157,-0.61439 -0.49553,-0.80608c-0.02588,-0.20128 -0.02205,-0.59234 0.29617,-0.9556c3.22528,-3.68247 4.89974,-8.41256 4.71284,-13.31805c-0.18499,-4.87961 -2.22942,-9.46305 -5.75566,-12.90686c-3.52528,-3.4419 -8.15569,-5.37898 -13.03914,-5.45278c-5.15086,-0.07189 -10.02664,1.87095 -13.70049,5.49016c-3.67576,3.62017 -5.70007,8.45378 -5.70007,13.6123c0,4.65149 1.69363,9.1343 4.76939,12.6222c0.29233,0.33259 0.29521,0.70544 0.27125,0.89809c-0.02492,0.1917 -0.12077,0.55112 -0.48595,0.79841c-1.45497,0.98436 -2.80738,2.1192 -4.03519,3.37576c0.01534,-0.29809 0.02492,-0.59713 0.02492,-0.89618c0,-10.07265 -8.19403,-18.26667 -18.26572,-18.26667c-2.83134,0 -5.51412,0.6556 -7.91128,1.81536c-0.45432,-4.25373 -1.89012,-8.33684 -4.21826,-11.94839c-2.22942,-3.45915 -5.18824,-6.3595 -8.65602,-8.51033c2.01472,-3.02591 3.02017,-6.59625 2.86777,-10.31802c-0.3671,-8.91672 -7.63524,-16.2232 -16.54812,-16.63343c-4.80293,-0.22141 -9.3557,1.47989 -12.82156,4.79047c-3.46873,3.3125 -5.37802,7.77709 -5.37802,12.5714c0,3.45052 1.00832,6.76398 2.8831,9.58766c-3.46873,2.15082 -6.4266,5.05214 -8.65697,8.51224c-2.86297,4.43967 -4.37545,9.59053 -4.37545,14.89571c0,7.13204 2.69141,13.8433 7.59498,18.98458c-0.86071,2.39907 -1.27478,4.9122 -1.2326,7.48188c0.09105,5.47962 2.2898,10.65444 6.19177,14.56982c3.41697,3.42943 7.80489,5.55534 12.52252,6.10359l0,25.65942c0,1.35433 1.09842,2.4537 2.4537,2.4537c1.35433,0 2.4537,-1.09937 2.4537,-2.4537l0,-25.6575c2.83518,-0.32492 5.55342,-1.22014 8.033,-2.63965c1.78181,1.97926 4.07832,3.50899 6.72756,4.37641c2.62719,6.61829 8.61001,11.21515 15.61648,12.09312l0,11.82762c0,1.35433 1.09842,2.4537 2.4537,2.4537s2.4537,-1.09937 2.4537,-2.4537l0,-11.82762c6.60966,-0.82908 12.30686,-4.96875 15.13628,-10.99183c4.35436,4.79047 10.37361,7.82789 16.78295,8.44707l0,14.37238c0,1.35433 1.09842,2.4537 2.4537,2.4537c1.35433,0 2.4537,-1.09937 2.4537,-2.4537l0,-14.36663c5.95119,-0.55304 11.47777,-3.1141 15.79284,-7.36974c4.99271,-4.92274 7.74163,-11.49407 7.74163,-18.50438zm-95.64556,9.63079l0,-9.38733c0,-0.00096 0,-0.00192 0,-0.00288l0,-11.69247l10.04101,-10.04198c0.95848,-0.95752 0.95848,-2.51121 0,-3.46969s-2.51121,-0.95848 -3.46969,0l-6.57133,6.57037l0,-1.72622c0,-0.00096 0,-0.00192 0,-0.00288l0,-13.72828l7.84514,-7.84514c0.95848,-0.95848 0.95848,-2.51217 0,-3.47065c-0.95848,-0.95752 -2.51121,-0.95752 -3.47065,0l-4.37449,4.37545l0,-10.13494c0,-1.35529 -1.09842,-2.4537 -2.4537,-2.4537c-1.35529,0 -2.4537,1.09842 -2.4537,2.4537l0,16.05738l0,0.00192l0,8.82183l-8.04259,-8.04259c-0.95848,-0.95752 -2.51121,-0.95752 -3.47065,0c-0.95848,0.95848 -0.95848,2.51217 0,3.47065l11.51324,11.51324l0,6.63363l0,0.00288l0,6.78506l-2.88406,-2.8831c-0.95752,-0.95752 -2.51121,-0.95752 -3.46969,0c-0.95848,0.95848 -0.95848,2.51217 0,3.47065l6.35375,6.35279l0,8.36464c-7.65824,-1.19043 -13.67652,-7.87198 -13.80688,-15.79572c-0.03642,-2.17383 0.35272,-4.29302 1.15593,-6.30104c0.55688,-1.39363 0.23003,-2.97512 -0.83196,-4.0304c-4.31123,-4.28056 -6.68634,-9.98159 -6.68634,-16.05451c0,-8.68285 5.06939,-16.70627 12.91645,-20.43954c0.71215,-0.3393 1.21727,-0.99969 1.35912,-1.7751c0.14185,-0.77637 -0.09777,-1.57286 -0.6441,-2.14124c-2.24572,-2.33581 -3.48215,-5.40486 -3.48215,-8.63972c0,-3.44094 1.37062,-6.64513 3.85979,-9.02215c2.48821,-2.37607 5.76141,-3.59525 9.20618,-3.43806c6.39401,0.29425 11.60813,5.53617 11.87075,11.93305c0.1409,3.43519 -1.09171,6.69113 -3.47161,9.16689c-0.54633,0.56838 -0.78595,1.36487 -0.64506,2.14124c0.14186,0.77541 0.64793,1.4358 1.36008,1.7751c7.8461,3.73327 12.91645,11.75573 12.91645,20.43954c0,0.11598 0.01054,0.22908 0.02684,0.34122c-3.11985,2.9962 -5.18632,7.08123 -5.56684,11.63688c-3.20036,2.11057 -5.13457,5.65598 -5.13457,9.56944c0,0.20703 0.00575,0.41406 0.01725,0.62205c-3.45244,2.95403 -5.47483,7.29018 -5.47483,11.87267c0,2.2438 0.47157,4.38791 1.32749,6.3317c-1.67159,0.92014 -3.48215,1.53165 -5.3646,1.81536zm46.68171,3.92401c-1.68021,5.2515 -6.10167,9.00394 -11.39726,9.89916l0,-13.37748s0,-0.00096 0,-0.00192l0,-9.06049l6.36046,-6.36046c0.95848,-0.95752 0.95848,-2.51121 0,-3.46969s-2.51217,-0.95848 -3.47065,0l-2.88981,2.88981l0,-14.16343c0,-1.35433 -1.09842,-2.4537 -2.4537,-2.4537s-2.4537,1.09937 -2.4537,2.4537l0,24.24087l-5.92052,-5.91956c-0.95848,-0.95848 -2.51121,-0.95848 -3.46969,0s-0.95848,2.51217 0,3.47065l9.39021,9.39021l0,12.36245c-5.29559,-0.89522 -9.71705,-4.64862 -11.39726,-9.90012c-0.26262,-0.82142 -0.93739,-1.44443 -1.77702,-1.64091c-4.86236,-1.14059 -8.25825,-5.42978 -8.25825,-10.43016c0,-3.4879 1.70992,-6.76973 4.57482,-8.77679c0.7917,-0.55496 1.18372,-1.52302 1.00161,-2.47191c-0.0786,-0.41406 -0.11885,-0.83292 -0.11885,-1.24602c0,-2.53134 1.41471,-4.79622 3.69397,-5.90806c0.83963,-0.40927 1.3735,-1.2604 1.37733,-2.19396c0.03259,-7.33332 6.02403,-13.29984 13.35735,-13.29984c7.3659,0 13.35927,5.99337 13.35927,13.35927c0,2.2045 -0.52141,4.30644 -1.54986,6.24544c-0.39106,0.73707 -0.38052,1.6227 0.0278,2.35019c0.40831,0.72844 1.1588,1.1981 1.99172,1.24794c5.63968,0.34218 10.05731,5.03872 10.05731,10.6947c0,4.5058 -2.7585,8.43173 -6.86175,9.9998c-0.03259,0.01054 -0.06518,0.02492 -0.09681,0.03738c-0.42077,0.15623 -0.854,0.28754 -1.29969,0.39202c-0.83963,0.19649 -1.5144,0.8195 -1.77702,1.64091zm25.42938,7.38028l0,-8.63205l8.67614,-8.67614c0.95848,-0.95848 0.95848,-2.51217 0,-3.47065c-0.95848,-0.95752 -2.51121,-0.95752 -3.46969,0l-5.20645,5.20645l0,-12.14392c0,-0.00096 0,-0.00192 0,-0.00288l0,-20.2536l6.01828,-6.01828c0.95752,-0.95848 0.95752,-2.51217 0,-3.47065c-0.95848,-0.95752 -2.51217,-0.95752 -3.47065,0l-2.54859,2.54859l0,-5.77196c0,-1.35529 -1.09842,-2.4537 -2.4537,-2.4537c-1.35433,0 -2.4537,1.09842 -2.4537,2.4537l0,11.69439l0,0.00287l0,15.34523l-1.49714,-1.49619c-0.95848,-0.95848 -2.51121,-0.95848 -3.46969,0c-0.95848,0.95752 -0.95848,2.51121 0,3.46969l4.96683,4.96683l0,17.05228l0,0.00288l0,9.6442c-4.80581,-0.57509 -9.31545,-2.82847 -12.70079,-6.32979c4.35628,-2.80738 7.12149,-7.67262 7.12149,-13.11869c0,-6.1678 -3.60579,-11.55158 -8.86496,-14.08292c1.41376,-1.89012 3.14189,-3.54637 5.0991,-4.87098c1.43388,-0.97094 2.38278,-2.51696 2.60227,-4.24222c0.22045,-1.72718 -0.31151,-3.46298 -1.45784,-4.76364c-2.28501,-2.59077 -3.54253,-5.92052 -3.54253,-9.37775c0,-3.83296 1.50385,-7.42533 4.23551,-10.11482c2.72975,-2.68949 6.33554,-4.13967 10.18287,-4.08024c7.54418,0.11406 13.67844,6.10551 13.96502,13.63914c0.13898,3.64797 -1.10417,7.16271 -3.50036,9.8982c-1.1588,1.3227 -1.69555,3.07767 -1.47222,4.81348c0.22045,1.72143 1.17126,3.26745 2.60802,4.24222c5.79783,3.93551 9.25986,10.46083 9.25986,17.4558c0,5.68665 -2.23038,11.01675 -6.27995,15.01072c-3.38726,3.3403 -7.69562,5.39048 -12.34711,5.92435zm0,0" id="svg_5"/>
 </g>
</svg>