<svg width="100%" height="100%" viewBox="0 0 128 128" xmlns="http://www.w3.org/2000/svg">
 <g id="1">
  <title>_Storage</title>
  <g id="svg_1">
   <rect x="39.16527" y="94.53488" width="20.19455" height="23.39674" fill="#A38671" id="svg_2"/>
   <rect x="68.14218" y="94.53488" width="20.19455" height="23.39674" fill="#E67E22" id="svg_3"/>
   <rect x="53.65151" y="67.08086" width="20.19899" height="19.13322" fill="#FFA800" id="svg_4"/>
   <path fill="#777" d="m102.82741,53.35174l0,64.57987l-5.70831,0l0,-27.55924c0,-2.2938 -1.96792,-4.1583 -4.3934,-4.1583l-10.09727,0l0,-23.29572c0,-2.2938 -1.96348,-4.1583 -4.38896,-4.1583l-28.97691,0c-2.42548,0 -4.3934,1.8645 -4.3934,4.1583l0,23.29572l-10.09727,0c-2.42548,0 -4.38896,1.8645 -4.38896,4.1583l0,27.55924l-5.70831,0l0,-64.57987l78.15281,0z" id="svg_5"/>
   <path fill="#9A8984" d="m117.31364,35.43487l0,82.49674l-5.70831,0l0,-68.73817c0,-2.29801 -1.96348,-4.16251 -4.38896,-4.16251l-86.93073,0c-2.42548,0 -4.3934,1.8645 -4.3934,4.16251l0,68.73817l-5.70831,0l0,-82.49674l53.56486,-25.37487l53.56486,25.37487z" id="svg_6"/>
   <path fill="#333" d="m126.096,32.86708l0,89.22662c0,2.2938 -1.96792,4.1583 -4.38896,4.1583l-115.91208,0c-2.42548,0 -4.38896,-1.8645 -4.38896,-4.1583l0,-89.22662c0,-1.5783 0.93732,-3.01771 2.42548,-3.72058l57.95382,-27.45823c1.23939,-0.58502 2.69201,-0.58502 3.92696,0l57.95382,27.45823c1.48816,0.70287 2.42992,2.14228 2.42992,3.72058zm-8.78236,85.06454l0,-82.49674l-53.56486,-25.37487l-53.56486,25.37487l0,82.49674l5.70831,0l0,-68.73817c0,-2.29801 1.96792,-4.16251 4.3934,-4.16251l86.93073,0c2.42548,0 4.38896,1.8645 4.38896,4.16251l0,68.73817l5.70831,0zm-14.48623,0l0,-64.57987l-78.15281,0l0,64.57987l5.70831,0l0,-27.55924c0,-2.2938 1.96348,-4.1583 4.38896,-4.1583l10.09727,0l0,-23.29572c0,-2.2938 1.96792,-4.1583 4.3934,-4.1583l28.97691,0c2.42548,0 4.38896,1.8645 4.38896,4.1583l0,23.29572l10.09727,0c2.42548,0 4.3934,1.8645 4.3934,4.1583l0,27.55924l5.70831,0zm-14.49068,0l0,-23.39674l-20.19455,0l0,23.39674l20.19455,0zm-14.48623,-31.71796l0,-19.13322l-20.19899,0l0,19.13322l20.19899,0zm-14.49068,31.71796l0,-23.39674l-20.19455,0l0,23.39674l20.19455,0z" id="svg_7"/>
  </g>
 </g>
</svg>