<svg width="100%" height="100%"  viewBox="0 0 128 128" xmlns="http://www.w3.org/2000/svg">
 <g>
  <title>airport</title>
  <path id="svg_1" fill="#b7b3b2" d="m43.1506,43.78682l-9.42702,-9.42702l9.42702,-9.42789c2.60328,-2.60328 6.82461,-2.60328 9.42703,0c2.60415,2.60328 2.60415,6.82461 0,9.42789l-9.42703,9.42702zm0,0"/>
  <path id="svg_2" fill="#b7b3b2" d="m96.00097,95.63633l-9.42703,-9.42703l9.42703,-9.42789c2.60328,-2.60328 6.82374,-2.60328 9.42702,0c2.60328,2.60415 2.60328,6.82461 0,9.42789l-9.42702,9.42703zm0,0"/>
  <path id="svg_3" fill="#6ba4ad" d="m32.43279,25.7444c-5.60413,-2.98088 -12.18656,-2.83852 -17.611,0.38194c-0.92968,0.55208 -1.53297,1.51909 -1.62065,2.59547c-0.08073,0.97829 0.27604,1.93836 0.96441,2.62672c0.06944,0.06858 0.14062,0.13542 0.21875,0.20052l41.87648,35.03884l17.46777,-18.90353l-41.29575,-21.93997l-0.00001,0.00001zm0,0"/>
  <path id="svg_4" fill="#6ba4ad" d="m104.61637,97.92711l-21.53632,-40.53881l-18.35839,17.84711l34.09007,40.7402c0.06424,0.07813 0.13108,0.14931 0.19965,0.21875c0.68836,0.6875 1.64843,1.04513 2.62672,0.9644c1.07638,-0.08767 2.04339,-0.6901 2.59547,-1.62065c3.22047,-5.42444 3.36283,-12.00687 0.38281,-17.611l-0.00001,0zm0,0"/>
  <path id="svg_5" fill="#ede9e8" d="m116.67879,31.4119l-72.37455,66.76955l5.99909,13.46606c1.13367,2.53297 0.59982,5.53295 -1.33333,7.4661l-3.19963,3.13279c-1.53297,1.59982 -4.13279,1.19965 -5.19962,-0.59982l-12.06503,-19.79849l-19.79849,-12.0659c-1.86631,-1.13281 -2.1328,-3.66577 -0.59982,-5.19875l3.13279,-3.19963c1.93315,-1.93315 4.93313,-2.467 7.4661,-1.33333l13.46519,5.99909l66.7765,-72.36847c2.39929,-2.73349 5.79944,-4.19963 9.19873,-4.19963c3.19963,0 6.33243,1.19965 8.93224,3.79946c5.46611,5.46611 4.80032,13.53203 -0.40017,18.13096l0,0.00001zm0,0"/>
  <path id="svg_6" fill="#b7b3b2" d="m116.67879,31.4119l-72.37455,66.76955l5.99909,13.46606c1.13367,2.53297 0.59982,5.53295 -1.33333,7.4661l-3.19963,3.13279c-1.53297,1.59982 -4.13279,1.19965 -5.19962,-0.59982l-12.06503,-19.79849l88.57323,-88.56716c5.46611,5.46611 4.80032,13.53203 -0.40017,18.13096l0.00001,0.00001zm0,0"/>
  <path id="svg_7" fill="#6ba4ad" d="m35.23746,98.44794c0,0.86718 -0.26649,1.7335 -0.93229,2.33332l-9.46609,9.46609c-1.26649,1.26649 -3.39929,1.26649 -4.73261,0c-1.26649,-1.33333 -1.26649,-3.46613 0,-4.73348l9.46522,-9.46522c1.26649,-1.26649 3.40015,-1.26649 4.73348,0c0.6658,0.66666 0.93229,1.53297 0.93229,2.39929zm0,0"/>
 </g>
</svg>