<svg width="100%" height="100%"  viewBox="0 0 128 128" xmlns="http://www.w3.org/2000/svg">
 <g>
  <title>ancient_tomb</title>
  <g id="svg_13">
   <polygon points="127.9909987449646,26.078407287597656 127.9909987449646,234.64434814453125 248.870858669281,182.50775146484375 " fill="#e5ad4b" id="svg_1"/>
   <polygon points="127.9909987449646,26.078407287597656 7.111111164093018,182.50775146484375 127.9909987449646,234.64434814453125 " fill="#f2cd79" id="svg_2"/>
   <g id="svg_3">
    <path d="m143.10104,196.84397c-1.97003,0 -3.84421,-1.20699 -4.64837,-3.20837c-1.07001,-2.6584 0.1478,-5.71376 2.7147,-6.82102l65.26563,-28.15425c2.56784,-1.10775 5.51156,0.15301 6.58157,2.81093s-0.14072,5.71376 -2.70762,6.82102l-65.26515,28.15425c-0.63511,0.2674 -1.29195,0.39744 -1.94076,0.39744z" id="svg_4" fill="#7f7f7f"/>
    <path d="m143.10104,165.5581c-1.97003,0 -3.84421,-1.20699 -4.64837,-3.20837c-1.07001,-2.6584 0.1478,-5.71376 2.7147,-6.82102l47.13065,-20.33254c2.56784,-1.10775 5.51912,0.15301 6.58913,2.81093c1.06954,2.6584 -0.1478,5.71376 -2.71517,6.82102l-47.13065,20.33254c-0.63464,0.2674 -1.29148,0.39744 -1.94028,0.39744z" id="svg_5" fill="#7f7f7f"/>
    <path d="m143.10104,134.27223c-1.97003,0 -3.84421,-1.20699 -4.64837,-3.20837c-1.07001,-2.65792 0.1478,-5.71327 2.7147,-6.82053l28.99566,-12.51132c2.56784,-1.10775 5.51864,0.15301 6.58866,2.81093c1.06954,2.65792 -0.1478,5.71327 -2.71517,6.82053l-28.99519,12.50349c-0.63464,0.27523 -1.29148,0.40526 -1.94028,0.40526z" id="svg_6" fill="#7f7f7f"/>
    <path d="m143.10104,102.98636c-1.97003,0 -3.84421,-1.20699 -4.64837,-3.20788c-1.07001,-2.6584 0.14024,-5.71376 2.70762,-6.82102l10.87485,-4.69009c2.56784,-1.10726 5.51912,0.15301 6.58866,2.81093c1.06954,2.6584 -0.1478,5.71376 -2.71517,6.82102l-10.86777,4.6896c-0.63417,0.2674 -1.291,0.39744 -1.93981,0.39744z" id="svg_7" fill="#7f7f7f"/>
   </g>
   <g id="svg_8">
    <path d="m112.40875,196.84397c-0.64928,0 -1.30612,-0.13004 -1.94028,-0.39744l-65.26515,-28.15376c-2.56784,-1.10775 -3.77763,-4.16311 -2.70762,-6.82102s4.01373,-3.91868 6.58157,-2.81093l65.26515,28.15425c2.56784,1.10775 3.78518,4.16311 2.71517,6.82102c-0.80464,2.00089 -2.67881,3.20788 -4.64884,3.20788z" id="svg_9" fill="#3f3f3f"/>
    <path d="m112.40875,165.5581c-0.64928,0 -1.30612,-0.13004 -1.94028,-0.39744l-47.13017,-20.33254c-2.56784,-1.10775 -3.78518,-4.16311 -2.71517,-6.82102s4.02129,-3.91868 6.58819,-2.81093l47.13773,20.33254c2.56784,1.10775 3.77763,4.16311 2.70762,6.82102c-0.80369,2.00138 -2.67787,3.20837 -4.6479,3.20837z" id="svg_10" fill="#3f3f3f"/>
    <path d="m112.40875,134.27223c-0.64928,0 -1.30612,-0.13004 -1.94028,-0.40477l-28.99519,-12.50349c-2.56784,-1.10775 -3.78518,-4.16311 -2.71517,-6.82053c1.07001,-2.6584 4.02129,-3.91868 6.58866,-2.81093l28.99519,12.51132c2.56784,1.10775 3.78518,4.16311 2.71517,6.82053c-0.80416,2.00089 -2.67834,3.20788 -4.64837,3.20788z" id="svg_11" fill="#3f3f3f"/>
    <path d="m112.40875,102.98636c-0.64928,0 -1.30612,-0.13004 -1.9332,-0.39744l-10.87485,-4.6896c-2.56784,-1.10775 -3.78518,-4.16311 -2.71517,-6.82102s4.02129,-3.91819 6.58866,-2.81093l10.87485,4.69009c2.56784,1.10775 3.77763,4.16311 2.70762,6.82102c-0.80369,2.00089 -2.67787,3.20788 -4.6479,3.20788z" id="svg_12" fill="#3f3f3f"/>
   </g>
  </g>
 </g>
</svg>