<svg width="70%" height="70%"  viewBox="0 0 115 115" xmlns="http://www.w3.org/2000/svg">
 <g>
  <title>Apartment_brick</title>
  <!--<rect fill="#ccc" x="0" y="0" width="128" height="128" id="svg_3"/>-->
  <rect fill="#777" x="12" y="9" width="88" height="105" id="svg_4"/>
  <rect id="svg_2" fill="#CACA98" x="14" y="61.5" width="30" height="21"/>
  <g id="svg_1">
   <path id="svg_11" fill="#6d3131" d="m103.55185,1.89112l-91.20162,0c-4.02099,0 -8.60723,2.48168 -8.60723,6.48961l0,98.22465c0,3.90325 4.46596,7.8796 8.60723,7.8796l31.24105,0l0,-20.41176l28.04138,0l0,20.41176l31.91921,0c4.38257,0 7.19113,-4.1528 7.19113,-7.8796l0,-98.22399c0,-3.76037 -2.88236,-6.49027 -7.19113,-6.49027l-0.00001,0l-0.00001,0zm-66.60196,80.33013l-19.92413,0l0,-13.16887l19.92413,0l0,13.16887zm0,-24.36241l-19.92413,0l0,-13.16887l19.92413,0l0,13.16887zm0,-24.36241l-19.92413,0l0,-12.51042l19.92413,0l0,12.51042zm30.9931,48.72484l-20.66207,0l0,-13.16887l20.66207,0l0,13.16887zm0,-24.36241l-20.66207,0l0,-13.16887l20.66207,0l0,13.16887zm0,-24.36241l-20.66207,0l0,-12.51042l20.66207,0l0,12.51042zm29.51724,48.72484l-19.18621,0l0,-13.16887l19.18621,0l0,13.16887zm0,-24.36241l-19.18621,0l0,-13.16887l19.18621,0l0,13.16887zm0,-24.36241l-19.18621,0l0,-12.51042l19.18621,0l0,12.51042z"/>
  </g>
 </g>
</svg>