<svg width="90%" height="90%"  viewBox="0 0 128 128" xmlns="http://www.w3.org/2000/svg">
 <g>
  <title>Apartment</title>
  <!--<rect fill="#ccc" x="0" y="0" width="128" height="128" id="svg_3"/>-->
  <rect fill="#777" x="22" y="19" width="88" height="105" id="svg_4"/>
  <rect id="svg_2" fill="#B4B482" x="80" y="46.5" width="34" height="26"/>
  <g id="svg_1">
   <path id="svg_11" fill="#222"  d="m110.55185,6.89112l-91.20162,0c-4.02099,0 -8.60723,2.59188 -8.60723,6.7778l0,102.58655c0,4.07658 4.46596,8.22951 8.60723,8.22951l31.24105,0l0,-21.31819l28.04138,0l0,21.31819l31.91921,0c4.38257,0 7.19113,-4.33722 7.19113,-8.22951l0,-102.58586c0,-3.92736 -2.88236,-6.77849 -7.19113,-6.77849l-0.00001,0zm-66.60196,83.89738l-19.92413,0l0,-13.75367l19.92413,0l0,13.75367zm0,-25.44428l-19.92413,0l0,-13.75367l19.92413,0l0,13.75367zm0,-25.44428l-19.92413,0l0,-13.06598l19.92413,0l0,13.06598zm30.9931,50.88858l-20.66207,0l0,-13.75367l20.66207,0l0,13.75367zm0,-25.44428l-20.66207,0l0,-13.75367l20.66207,0l0,13.75367zm0,-25.44428l-20.66207,0l0,-13.06598l20.66207,0l0,13.06598zm29.51724,50.88858l-19.18621,0l0,-13.75367l19.18621,0l0,13.75367zm0,-25.44428l-19.18621,0l0,-13.75367l19.18621,0l0,13.75367zm0,-25.44428l-19.18621,0l0,-13.06598l19.18621,0l0,13.06598z"/>
  </g>
 </g>
</svg>