<svg width="100%" height="100%" viewBox="0 0 128 128" xmlns="http://www.w3.org/2000/svg">
	<g>
		<title>Army barracks</title>
		<g  id="svg_19">
			<path  d="m43.06878,60.18252l-8.11363,0c-2.17531,0 -3.93862,1.9456 -3.93862,4.3452c0,1.12771 0.39278,2.15179 1.03132,2.9241l0,38.70365l13.92846,0l0,-38.70365c0.63854,-0.7723 1.03108,-1.79639 1.03108,-2.9241c0,-2.3996 -1.76331,-4.3452 -3.93862,-4.3452z" fill="#27554E" id="svg_1"/>
			<path  d="m94.83753,64.52771c0,-2.39986 -1.76355,-4.3452 -3.93862,-4.3452l-9.9394,0c-2.17531,0 -3.93862,1.9456 -3.93862,4.3452s1.76355,4.3452 3.93862,4.3452l0,37.28255l13.92846,0l0,-41.62775l-0.05045,0z" fill="#27554E" id="svg_2"/>
			<path  d="m79.83546,17.761c-2.17531,0 -3.93862,1.9456 -3.93862,4.3452l0,6.04219l-8.40407,0l0,-6.04219c0,-2.39986 -1.76355,-4.3452 -3.93862,-4.3452c-2.17531,0 -3.93862,1.9456 -3.93862,4.3452l0,6.04219l-8.40407,0l0,-6.04219c0,-2.39986 -1.76355,-4.3452 -3.93862,-4.3452c-2.17531,0 -3.93862,1.9456 -3.93862,4.3452l0,81.61707c0,2.39986 1.76355,4.3452 3.93862,4.3452c1.35828,0 2.55632,-0.75879 3.26404,-1.913l26.03452,0c0.70821,1.15421 1.90577,1.913 3.26404,1.913c2.17531,0 3.93862,-1.9456 3.93862,-4.3452l0,-81.61707c0.00024,-2.39986 -1.76331,-4.3452 -3.93862,-4.3452z" fill="#845311" id="svg_3"/>
			<path  d="m63.55392,17.761c-2.17531,0 -3.93862,1.9456 -3.93862,4.3452l0,6.04219l-8.40407,0l0,-6.04219c0,-2.39986 -1.76355,-4.3452 -3.93862,-4.3452c-2.17531,0 -3.93862,1.9456 -3.93862,4.3452l0,81.61707c0,2.39986 1.76355,4.3452 3.93862,4.3452c1.35828,0 2.55632,-0.75879 3.26404,-1.913l13.0175,0l0,-88.39446l-0.00024,0z" fill="#6E4F1A" id="svg_4"/>
			<path  d="m63.55392,56.72226c-2.17531,0 -3.93862,-1.9456 -3.93862,-4.3452l0,-4.86148c0,-2.39986 1.76355,-4.3452 3.93862,-4.3452c2.17531,0 3.93862,1.9456 3.93862,4.3452l0,4.86148c0.00024,2.3996 -1.76331,4.3452 -3.93862,4.3452z" fill="#777" id="svg_5"/>
			<path  d="m63.55392,56.72226c-2.17531,0 -3.93862,-1.9456 -3.93862,-4.3452l0,-4.86148c0,-2.39986 1.76355,-4.3452 3.93862,-4.3452l0,13.55187z" fill="#AAA" id="svg_6"/>
			<path  d="m32.22034,45.60073c-2.17531,0 -3.93862,1.9456 -3.93862,4.3452l0,0.03286l-3.36302,0l0,-0.03286c0,-2.39986 -1.76355,-4.3452 -3.93862,-4.3452s-3.93862,1.9456 -3.93862,4.3452l0,0.03286l-4.42221,0l0,-0.03286c0,-2.39986 -1.76355,-4.3452 -3.93862,-4.3452s-3.93862,1.9456 -3.93862,4.3452l0,53.7776c0,2.39986 1.76355,4.3452 3.93862,4.3452c1.35828,0 2.55632,-0.75879 3.26404,-1.913l17.01113,0c0.70821,1.15421 1.90577,1.913 3.26404,1.913c2.17531,0 3.93862,-1.9456 3.93862,-4.3452l0,-53.7776c0.00048,-2.39986 -1.76283,-4.3452 -3.93814,-4.3452z" fill="#0E2F3F" id="svg_7"/>
			<path  d="m20.98008,45.60073c-2.17531,0 -3.93862,1.9456 -3.93862,4.3452l0,0.03286l-4.42221,0l0,-0.03286c0,-2.39986 -1.76355,-4.3452 -3.93862,-4.3452s-3.93862,1.9456 -3.93862,4.3452l0,53.7776c0,2.39986 1.76355,4.3452 3.93862,4.3452c1.35828,0 2.55632,-0.75879 3.26404,-1.913l9.01666,0l0.01874,-60.55499z" fill="#2A3643" id="svg_8"/>
			<path  d="m118.42744,45.60073c-2.17531,0 -3.93862,1.9456 -3.93862,4.3452l0,0.03286l-3.36302,0l0,-0.03286c0,-2.39986 -1.76355,-4.3452 -3.93862,-4.3452c-2.17531,0 -3.93862,1.9456 -3.93862,4.3452l0,0.03286l-4.42221,0l0,-0.03286c0,-2.39986 -1.76355,-4.3452 -3.93862,-4.3452s-3.93862,1.9456 -3.93862,4.3452l0,53.7776c0,2.39986 1.76355,4.3452 3.93862,4.3452c1.35828,0 2.55632,-0.75879 3.26404,-1.913l17.01113,0c0.70821,1.15421 1.90577,1.913 3.26404,1.913c2.17531,0 3.93862,-1.9456 3.93862,-4.3452l0,-53.7776c0.00048,-2.39986 -1.76259,-4.3452 -3.93814,-4.3452z" fill="#0E2F3F" id="svg_9"/>
			<path  d="m107.18742,45.60073c-2.17531,0 -3.93862,1.9456 -3.93862,4.3452l0,0.03286l-4.42221,0l0,-0.03286c0,-2.39986 -1.76355,-4.3452 -3.93862,-4.3452s-3.93862,1.9456 -3.93862,4.3452l0,53.7776c0,2.39986 1.76355,4.3452 3.93862,4.3452c1.35828,0 2.55632,-0.75879 3.26404,-1.913l9.01666,0l0.01874,-60.55499z" fill="#2A3643" id="svg_10"/>
			<path  d="m63.55392,108.06872c-2.17531,0 -3.93862,-1.9456 -3.93862,-4.3452l0,-7.54307c0,-2.39986 1.76355,-4.3452 3.93862,-4.3452c2.17531,0 3.93862,1.9456 3.93862,4.3452l0,7.54307c0.00024,2.3996 -1.76331,4.3452 -3.93862,4.3452z" fill="#885F3E" id="svg_11"/>
			<path  d="m63.55392,108.06872c-2.17531,0 -3.93862,-1.9456 -3.93862,-4.3452l0,-7.54307c0,-2.39986 1.76355,-4.3452 3.93862,-4.3452l0,16.23346z" fill="#AAA" id="svg_12"/>
			<path  d="m121.06063,112.239l-115.12201,0c-2.17507,0 -3.93862,-1.9456 -3.93862,-4.3452s1.76355,-4.3452 3.93862,-4.3452l115.12177,0c2.17531,0 3.93862,1.9456 3.93862,4.3452s-1.76331,4.3452 -3.93838,4.3452z" fill="#777" id="svg_13"/>
			<path  d="m63.49963,112.239l-57.561,0c-2.17507,0 -3.93862,-1.9456 -3.93862,-4.3452s1.76355,-4.3452 3.93862,-4.3452l57.561,0l0,8.69039z" fill="#777" id="svg_14"/>
			<path  d="m20.98008,74.20667c-2.17531,0 -3.93862,-1.9456 -3.93862,-4.3452l0,-4.86148c0,-2.39986 1.76355,-4.3452 3.93862,-4.3452s3.93862,1.94533 3.93862,4.3452l0,4.86148c0,2.39986 -1.76331,4.3452 -3.93862,4.3452z" fill="#777" id="svg_15"/>
			<path  d="m20.98008,74.20667c-2.17531,0 -3.93862,-1.9456 -3.93862,-4.3452l0,-4.86148c0,-2.39986 1.76355,-4.3452 3.93862,-4.3452l0,13.55187z" fill="#AAA" id="svg_16"/>
			<path  d="m107.18742,74.20667c-2.17531,0 -3.93862,-1.9456 -3.93862,-4.3452l0,-4.86148c0,-2.39986 1.76355,-4.3452 3.93862,-4.3452c2.17531,0 3.93862,1.9456 3.93862,4.3452l0,4.86148c0,2.39986 -1.76331,4.3452 -3.93862,4.3452z" fill="#777" id="svg_17"/>
			<path  d="m107.18742,74.20667c-2.17531,0 -3.93862,-1.9456 -3.93862,-4.3452l0,-4.86148c0,-2.39986 1.76355,-4.3452 3.93862,-4.3452l0,13.55187z" fill="#AAA" id="svg_18"/>
		</g>
	</g>
</svg>
