<svg width="100%" height="100%" viewBox="0 0 128 128" xmlns="http://www.w3.org/2000/svg">
	<g>
		<title>Army barracks</title>
		<g id="svg_17">
			<path id="svg_1" fill="#79615B" d="m69.3,109.19607l0,-15.57551l-12.6,0l0,15.57551l-15.75,0l0,-67.49387l44.1,0l0,67.49387l-15.75,0zm0,-25.95918l0,-10.38367l-12.6,0l0,10.38367l12.6,0zm0,-20.76734l0,-10.38367l-12.6,0l0,10.38367l12.6,0z"/>
			<g id="svg_2">
				<polygon id="svg_3" fill="#9A8984" points="35.4375,41.70220184326172 63,23.530776977539062 90.5625,41.70220184326172 "/>
				<rect id="svg_4" fill="#9A8984" height="31.15102" width="31.5" y="78.04505" x="85.05"/>
			</g>
			<g id="svg_5">
				<rect id="svg_6" fill="#5a773d" height="15.57551" width="12.6" y="93.62056" x="56.7"/>
				<rect id="svg_7" fill="#5a773d" height="15.57551" width="31.5" y="62.46955" x="9.45"/>
			</g>
			<g id="svg_8">
				<rect id="svg_9" fill="#999999" height="10.38367" width="12.6" y="72.85322" x="56.7"/>
				<rect id="svg_10" fill="#999999" height="10.38367" width="12.6" y="52.08587" x="56.7"/>
			</g>
			<rect id="svg_11" fill="#5a773d" height="15.57551" width="31.5" y="62.46955" x="85.05"/>
			<rect id="svg_12" fill="#9A8984" height="31.15102" width="31.5" y="78.04505" x="9.45"/>
			<g id="svg_13">
				<path id="svg_14" fill="#333" d="m122.85,106.60015l-3.15,0l0,-46.72652l-31.5,0l0,-16.40275l4.33027,2.85551l3.9375,-4.05653l-33.46777,-22.06185l-33.46973,22.06185l3.9375,4.05653l4.33223,-2.85551l0,16.40275l-31.5,0l0,46.72652l-3.15,0c-1.74087,0 -3.15,1.16127 -3.15,2.59592c0,1.43465 1.40913,2.59592 3.15,2.59592l119.7,0c1.74087,0 3.15,-1.16127 3.15,-2.59592c0,-1.43465 -1.40913,-2.59592 -3.15,-2.59592zm-85.05,0l-25.2,0l0,-25.95918l25.2,0l0,25.95918zm0,-31.15102l-25.2,0l0,-10.38367l25.2,0l0,10.38367zm25.2,-48.59376l18.58082,12.25273l-37.16163,0l18.58082,-12.25273zm3.15,79.74477l-6.3,0l0,-10.38367l6.3,0l0,10.38367zm15.75,0l-9.45,0l0,-15.57551l-18.9,0l0,15.57551l-9.45,0l0,-62.30203l37.8,0l0,62.30203zm31.5,0l-25.2,0l0,-25.95918l25.2,0l0,25.95918zm0,-31.15102l-25.2,0l0,-10.38367l25.2,0l0,10.38367z"/>
				<path id="svg_15" fill="#444" d="m72.45,70.2573l-18.9,0l0,15.57551l18.9,0l0,-15.57551zm-6.3,10.38367l-6.3,0l0,-5.19184l6.3,0l0,5.19184z"/>
				<path id="svg_16" fill="#444" d="m72.45,49.48996l-18.9,0l0,15.57551l18.9,0l0,-15.57551zm-6.3,10.38367l-6.3,0l0,-5.19184l6.3,0l0,5.19184z"/>
			</g>
		</g>
	</g>
</svg>