<svg width="100%" height="100%" viewBox="0 0 128 128" xmlns="http://www.w3.org/2000/svg">
	<g>
		<title>Army camp</title>
		<rect fill="#999" id="canvas_background" height="48" width="40" y="56" x="48"/>
		<g id="svg_11">
			<g transform="matrix(0.1911253220926439,0,0,0.1813245124260776,-26.941455967636443,-20.58985616728095) " id="svg_8">
				<path stroke="#aaa" fill="#004a1f" d="m719.58583,666.25591l-16.113,0l-21.445,-114.389c-6.252,-33.233 -21.35,-64.156 -43.746,-89.492l-136.713,-154.67l0,-17.761l91.156,-23.182c1.939,-0.485 3.264,-2.196 3.264,-4.159c0,-1.978 -1.324,-3.681 -3.246,-4.173l-91.174,-23.188l0,-13.228c0,-7.072 -5.734,-12.813 -12.822,-12.813c-7.057,0 -12.805,5.74 -12.805,12.813l0,85.691l-136.713,154.671c-22.383,25.336 -37.51,56.26 -43.744,89.492l-21.448,114.388l-16.097,0c-9.447,0 -17.1,7.653 -17.1,17.085c0,9.43 7.652,17.083 17.1,17.083l134.613,0l192.404,0l134.629,0c9.447,0 17.086,-7.653 17.086,-17.083c0,-9.431 -7.639,-17.085 -17.086,-17.085zm-327.033,0l0,-52.781c0,-10.617 2.711,-21.059 7.863,-30.336l75.525,-135.855l0,218.973l-83.388,0l0,-0.001zm109.015,0l0,-219.027l75.527,135.91c5.164,9.277 7.861,19.719 7.861,30.336l0,52.781l-83.388,0z" id="svg_6"/>
			</g>
		</g>
	</g>
</svg>
