<svg x="100%" y="100%" viewBox="0 0 512.31 512.31" xmlns="http://www.w3.org/2000/svg">
 <!-- Created with Method Draw - http://github.com/duopixel/Method-Draw/ -->

 <g>
  <title>Layer 1</title>
  <path id="svg_16" d="m-155.126651,40.380644c-0.085156,-0.078934 -0.146193,-0.329747 -0.132322,-0.543735c0.008747,-0.134936 0.193282,-0.954091 0.209398,-0.929521c0.00526,0.008019 0.052067,0.198999 0.104016,0.424399c0.083217,0.361067 0.094452,0.428395 0.094452,0.565983c0,0.278886 -0.090479,0.507325 -0.199117,0.502728c-0.031702,-0.001342 -0.066095,-0.010276 -0.076428,-0.019854l0,0zm0.085317,-0.140269c0.002819,-0.036106 -0.003766,-0.053714 -0.020085,-0.053714c-0.037195,0 -0.08879,-0.116208 -0.100317,-0.225944c-0.012296,-0.117059 -0.044899,-0.130981 -0.049715,-0.021229c-0.009278,0.211453 0.154486,0.501104 0.170117,0.300888l0,0z" fill-opacity="null" stroke-opacity="null" stroke-width="1.5" stroke="#000" fill="#00aeff"/>
  <g stroke="null" id="svg_127">
   <g stroke="null" transform="matrix(0.18180098869043385,0,0,0.21906195346339435,-306.65917397866053,-362.06331033757965) " id="svg_108">
    <g stroke="null" id="svg_109">
     <path fill="#213310" stroke="null" id="svg_110" d="m2130.666261,1751.769701c-2.065,-3.309 -8.491,-6.187 -12.393,-6.187l-109.969,0c-3.902,0 -4.036,2.936 -2.104,6.321l194.406,337.594c1.932,3.386 6.521,3.605 10.241,2.458l106.039,-33.517c3.729,-1.147 5.077,-5.565 3.012,-8.874l-189.232,-297.795z"/>
     <path fill="#213310" stroke="null" id="svg_111" d="m1867.085261,2089.564701l93.808,-200.239l0,193.726c0,17.337 18.379,16.343 22.281,16.343l182.816,0c3.901,0 5.488,-6.282 3.557,-9.668l-188.878,-334.792c-1.932,-3.385 -5.059,-3.385 -6.99,0l-47.296,83.05c-1.932,3.385 -6.254,7.669 -9.667,9.562c-47.841,26.545 -112.359,61.994 -140.951,74.54c-4.284,1.884 -4.045,7.286 -0.708,10.557c6.359,6.216 19.871,20.436 32.35,37.562c7.258,9.964 13.607,21.076 18.81,32.102c1.664,3.528 1.348,9.17 -0.583,12.564l-40.622,74.855c-1.912,3.386 -0.315,9.668 3.586,9.668l68.229,0c3.899,0.001 8.489,-6.349 10.258,-9.83zm-54.554,-154.271c-1.75,-1.55 -1.549,-3.615 0.526,-4.705c20.129,-10.538 115.362,-60.521 141.841,-76.71c1.999,-1.224 2.725,-0.574 1.664,1.511l-90.27,177.384c-1.062,2.085 -2.276,1.913 -2.792,-0.373c-3.395,-14.995 -17.175,-67.215 -50.969,-97.107z"/>
    </g>
   </g>
   <g stroke="null" transform="matrix(0.18180098869043385,0,0,0.21906195346339435,-306.65917397866053,-362.06331033757965) " id="svg_112"/>
   <g stroke="null" transform="matrix(0.18180098869043385,0,0,0.21906195346339435,-306.65917397866053,-362.06331033757965) " id="svg_113"/>
   <g stroke="null" transform="matrix(0.18180098869043385,0,0,0.21906195346339435,-306.65917397866053,-362.06331033757965) " id="svg_114"/>
   <g stroke="null" transform="matrix(0.18180098869043385,0,0,0.21906195346339435,-306.65917397866053,-362.06331033757965) " id="svg_115"/>
   <g stroke="null" transform="matrix(0.18180098869043385,0,0,0.21906195346339435,-306.65917397866053,-362.06331033757965) " id="svg_116"/>
   <g stroke="null" transform="matrix(0.18180098869043385,0,0,0.21906195346339435,-306.65917397866053,-362.06331033757965) " id="svg_117"/>
   <g stroke="null" transform="matrix(0.18180098869043385,0,0,0.21906195346339435,-306.65917397866053,-362.06331033757965) " id="svg_118"/>
   <g stroke="null" transform="matrix(0.18180098869043385,0,0,0.21906195346339435,-306.65917397866053,-362.06331033757965) " id="svg_119"/>
   <g stroke="null" transform="matrix(0.18180098869043385,0,0,0.21906195346339435,-306.65917397866053,-362.06331033757965) " id="svg_120"/>
   <g stroke="null" transform="matrix(0.18180098869043385,0,0,0.21906195346339435,-306.65917397866053,-362.06331033757965) " id="svg_121"/>
   <g stroke="null" transform="matrix(0.18180098869043385,0,0,0.21906195346339435,-306.65917397866053,-362.06331033757965) " id="svg_122"/>
   <g stroke="null" transform="matrix(0.18180098869043385,0,0,0.21906195346339435,-306.65917397866053,-362.06331033757965) " id="svg_123"/>
   <g stroke="null" transform="matrix(0.18180098869043385,0,0,0.21906195346339435,-306.65917397866053,-362.06331033757965) " id="svg_124"/>
   <g stroke="null" transform="matrix(0.18180098869043385,0,0,0.21906195346339435,-306.65917397866053,-362.06331033757965) " id="svg_125"/>
   <g stroke="null" transform="matrix(0.18180098869043385,0,0,0.21906195346339435,-306.65917397866053,-362.06331033757965) " id="svg_126"/>
  </g>
 </g>
</svg>