<?xml version="1.0" encoding="iso-8859-1"?>
<!-- Generator: Adobe Illustrator 18.0.0, SVG Export Plug-In . SVG Version: 6.00 Build 0)  -->
<!DOCTYPE svg PUBLIC "-//W3C//DTD SVG 1.1//EN" "http://www.w3.org/Graphics/SVG/1.1/DTD/svg11.dtd">
<svg version="1.1" id="Capa_1" xmlns="http://www.w3.org/2000/svg" xmlns:xlink="http://www.w3.org/1999/xlink" x="0px" y="0px"
	 viewBox="0 0 495.832 495.832" style="enable-background:new 0 0 495.832 495.832;" xml:space="preserve">
<path id="XMLID_92_" d="M478.746,459.359h-16.113l-21.445-114.389c-6.252-33.233-21.35-64.156-43.746-89.492l-136.713-154.67V83.047
	l91.156-23.182c1.939-0.485,3.264-2.196,3.264-4.159c0-1.978-1.324-3.681-3.246-4.173l-91.174-23.188V15.117
	c0-7.072-5.734-12.813-12.822-12.813c-7.057,0-12.805,5.74-12.805,12.813v85.691L98.389,255.479
	c-22.383,25.336-37.51,56.26-43.744,89.492L33.197,459.359H17.1c-9.447,0-17.1,7.653-17.1,17.085c0,9.43,7.652,17.083,17.1,17.083
	h134.613h192.404h134.629c9.447,0,17.086-7.653,17.086-17.083C495.832,467.013,488.193,459.359,478.746,459.359z M151.713,459.359
	v-52.781c0-10.617,2.711-21.059,7.863-30.336l75.525-135.855v218.973H151.713z M260.728,459.359V240.332l75.527,135.91
	c5.164,9.277,7.861,19.719,7.861,30.336v52.781H260.728z"/>
<g>
</g>
<g>
</g>
<g>
</g>
<g>
</g>
<g>
</g>
<g>
</g>
<g>
</g>
<g>
</g>
<g>
</g>
<g>
</g>
<g>
</g>
<g>
</g>
<g>
</g>
<g>
</g>
<g>
</g>
</svg>
