<svg width="80%" height="80%"  viewBox="0 0 128 128" xmlns="http://www.w3.org/2000/svg">
 <g>
  <title>Apartment</title>
  <g id="filled_outline">
   <path id="svg_1" fill="#95170c" d="m86,86.94953l16,0l0,22.25026l-16,0l0,-22.25026z"/>
   <path id="svg_3" fill="#95170c" d="m24,86.11514l22,0l0,24.47529l-22,0l0,-24.47529z"/>
   <path id="svg_8" fill="#ccc" d="m80,75.82439l38,0l0,11.12513l-38,0l0,-11.12513z"/>
   <path id="svg_9" fill="#b3b3b3" d="m80,75.82439l38,0l0,4.45005l-38,0l0,-4.45005z"/>
   <path id="svg_15" fill="#ccc" d="m10,75.82439l38,0l0,11.12513l-38,0l0,-11.12513z"/>
   <path id="svg_16" fill="#b3b3b3" d="m10,75.82439l38,0l0,4.45005l-38,0l0,-4.45005z"/>
   <path id="svg_17" fill="#f92714" d="m10,84.7245l38,0l0,4.45005l-38,0l0,-4.45005z"/>
   <path id="svg_18" fill="#95170c" d="m44,69.14931l40,0l0,40.05048l-40,0l0,-40.05048z"/>
   <path id="svg_19" fill="#620f08" d="m44,69.14931l40,0l0,6.67508l-40,0l0,-6.67508z"/>
   <path id="svg_20" fill="#ccc" d="m24,31.32387l78,0l0,37.82545l-78,0l0,-37.82545z"/>
   <path id="svg_21" fill="#b3b3b3" d="m24,31.32387l78,0l0,8.90011l-78,0l0,-8.90011z"/>
   <path id="svg_23" fill="#763a02" d="m32,9.0736l64,0l0,22.25026l-64,0l0,-22.25026z"/>
   <path id="svg_24" fill="#a65a14" d="m40,9.0736l48,0a18,20.02524 0 0 0 18,20.02524l16,0a8,8.90011 0 0 1 -8,8.90011l-100,0a8,8.90011 0 0 1 -8,-8.90011l16,0a18,20.02524 0 0 0 18,-20.02524z"/>
   <path id="svg_25" fill="#763a02" d="m44,64.69926l0,13.35016l-32,0a6,6.67508 0 0 1 -6,-6.67508l6,-6.67508l32,0z"/>
   <path id="svg_26" fill="#763a02" d="m84,64.69926l0,13.35016l32,0a6,6.67508 0 0 0 6,-6.67508l-6,-6.67508l-32,0z"/>
   <path id="svg_27" fill="#ccc" d="m6,104.74974l116,0l0,20.02524l-116,0l0,-20.02524z"/>
   <path id="svg_28" fill="#7d440f" d="m40,9.0736l48,0l0,4.45005l-48,0l0,-4.45005z"/>
   <path id="svg_33" fill="#7d440f" d="m88,66.92429a6,6.67508 0 0 1 -6,6.67508l-36,0a6,6.67508 0 0 1 -6,-6.67508l6,-6.67508l36,0l6,6.67508z"/>
   <path fill="#333" id="svg_35" d="m104,40.22397l10,0a10.01125,11.13765 0 0 0 10,-11.12513a2,2.22503 0 0 0 -2,-2.22503l-16,0a15.9015,17.69063 0 0 1 -8,-2.38884l0,-13.18634l2,0l0,-4.45005l-72,0l0,4.45005l2,0l0,13.18634a15.9015,17.69063 0 0 1 -8,2.38884l-16,0a2,2.22503 0 0 0 -2,2.22503a10.01125,11.13765 0 0 0 10,11.12513l8,0l0,22.25026l-10,0a2,2.22503 0 0 0 -1.41425,0.65165l-6,6.67508a2,2.22503 0 0 0 -0.58575,1.57337a8.00475,8.90539 0 0 0 4,7.70415l0,23.44622l-2,0a2,2.22503 0 0 0 -2,2.22503l0,20.02524a2,2.22503 0 0 0 2,2.22503l116,0a2,2.22503 0 0 0 2,-2.22503l0,-20.02524a2,2.22503 0 0 0 -2,-2.22503l-2,0l0,-23.44622a8.00475,8.90539 0 0 0 4,-7.70415a2,2.22503 0 0 0 -0.58575,-1.57337l-6,-6.67508a2,2.22503 0 0 0 -1.41425,-0.65165l-12,0l0,-22.25026zm-4,8.90011l-14,0l0,-8.90011l14,0l0,8.90011zm6,53.40063l0,-13.35016l4,0l0,13.35016l-4,0zm-88,0l0,-13.35016l4,0l0,13.35016l-4,0zm14,-22.25026l0,4.45005l-10,0l0,-4.45005l10,0zm30,-40.05048l0,8.90011l-16,0l0,-8.90011l16,0zm0,13.35016l0,4.45005l-16,0l0,-4.45005l16,0zm20,17.80021l-36,0a4.00675,4.45756 0 0 1 -3.92825,-3.60844l4.7565,-5.29167l34.3435,0l4.7565,5.29167a4.00675,4.45756 0 0 1 -3.92825,3.60844zm0,44.50053l-36,0l0,-2.22503l36,0l0,2.22503zm0,-6.67508l-36,0l0,-2.22503l36,0l0,2.22503zm-40,-24.47529l-6,0l0,-4.45005l6,0l0,4.45005zm-16,4.45005l2,0l0,13.35016l-2,0l0,-13.35016zm6,0l4,0l0,13.35016l-4,0l0,-13.35016zm8,0l2,0l0,13.35016l-2,0l0,-13.35016zm6,31.15037l36,0l0,2.22503l-36,0l0,-2.22503zm40,-31.15037l2,0l0,13.35016l-2,0l0,-13.35016zm6,0l4,0l0,13.35016l-4,0l0,-13.35016zm8,0l2,0l0,13.35016l-2,0l0,-13.35016zm-4,-4.45005l0,-4.45005l10,0l0,4.45005l-10,0zm-4,0l-6,0l0,-4.45005l6,0l0,4.45005zm-10,17.80021l-36,0l0,-26.70032l36,0l0,26.70032zm0,-44.50053l-16,0l0,-4.45005l16,0l0,4.45005zm-16,-8.90011l0,-8.90011l16,0l0,8.90011l-16,0zm28,-28.28899a15.9425,17.73624 0 0 1 -3.875,-9.53646l3.875,0l0,9.53646zm-56.125,-9.53646a15.9425,17.73624 0 0 1 -3.875,9.53646l0,-9.53646l3.875,0zm-29.53225,20.02524l13.65725,0a19.983,22.23135 0 0 0 16,-8.91457l0,4.46452l4,0l0,-15.57518l44,0l0,15.57518l4,0l0,-4.46452a19.983,22.23135 0 0 0 16,8.91457l13.65725,0a6.0105,6.68676 0 0 1 -5.65725,4.45005l-100,0a6.0105,6.68676 0 0 1 -5.65725,-4.45005zm33.65725,8.90011l0,8.90011l-16,0l0,-8.90011l16,0zm-16,13.35016l16,0l0,7.97839l-0.8285,0.92172l-15.1715,0l0,-8.90011zm-13.17175,13.35016l25.17175,0a8.00475,8.90539 0 0 0 4,7.70415l0,1.19595l-30,0a4.00675,4.45756 0 0 1 -3.92825,-3.60844l4.7565,-5.29167l0,0.00001zm5.17175,13.35016l0,4.45005l-6,0l0,-4.45005l6,0zm-6,8.90011l2,0l0,13.35016l-2,0l0,-13.35016zm-4,17.80021l27.7655,0l-1.5555,15.57518l-26.21,0l0,-15.57518zm30.2345,15.57518l1.5555,-15.57518l2.21,0l0,15.57518l-3.7655,0zm47.7655,0l0,-15.57518l2.21,0l1.5555,15.57518l-3.7655,0zm34,0l-26.21,0l-1.5555,-15.57518l27.7655,0l0,15.57518zm-6,-20.02524l0,-13.35016l2,0l0,13.35016l-2,0zm2,-17.80021l-6,0l0,-4.45005l6,0l0,4.45005zm3.92825,-12.50854a4.00675,4.45756 0 0 1 -3.92825,3.60844l-30,0l0,-1.19595a8.00475,8.90539 0 0 0 4,-7.70415l25.17175,0l4.7565,5.29167l0,-0.00001zm-33.09975,-9.74172l-0.8285,-0.92172l0,-7.97839l14,0l0,8.90011l-13.1715,0z"/>
  </g>
 </g>
</svg>
