<svg width="100%" height="100%"  viewBox="0 0 128 128" xmlns="http://www.w3.org/2000/svg">
 <g>
  <title>background</title>
  <rect filter="url(#svg_23_blur)" id="svg_23" height="124" width="124" y="1.90625" x="2" fill="#ABAA69"/>
 </g>
 <g id="svg_1">
  <title>Bank</title>
  <g id="svg_2">
   <path fill="#333" id="svg_3" d="m12.62791,125.1l102.74418,0c3.4654,0 6.2779,-2.86984 6.2779,-6.40588l0,-1.02494c0,-3.53605 -2.8125,-6.40588 -6.2779,-6.40588l-6.44113,0l0,-47.53166l-16.03377,0l0,47.53166l-8.58817,0l0,-47.53166l-16.02121,0l0,47.53166l-8.58817,0l0,-47.53166l-16.02121,0l0,47.53166l-8.58817,0l0,-47.53166l-16.02121,0l0,47.53166l-6.44113,0c-3.4654,0 -6.2779,2.86984 -6.2779,6.40588l0,1.02494c0,3.53605 2.8125,6.40588 6.2779,6.40588l-0.00001,0z"/>
   <path fill="#333" id="svg_4" d="m116.74054,45.88484l-48.85465,-39.58836c-1.13002,-0.93526 -2.51116,-1.39648 -3.8923,-1.39648c-1.38114,0 -2.76228,0.46122 -3.8923,1.38367l-48.95497,39.57555c-1.5067,1.21712 -2.3856,3.06201 -2.3856,5.02221l0,2.60079c0,3.53605 2.8125,6.40588 6.2779,6.40588l4.03041,0l16.02121,0l8.58817,0l16.02121,0l8.5883,0l16.02121,0l8.58817,0l16.02121,0l3.95508,0c3.49039,0 6.31545,-2.90827 6.2779,-6.48275l-0.02524,-2.58798c-0.03767,-1.92177 -0.90402,-3.74104 -2.38573,-4.93253l0.00002,0z"/>
  </g>
 </g>
 <defs>
  <filter height="200%" width="200%" y="-50%" x="-50%" id="svg_23_blur">
   <feGaussianBlur stdDeviation="10"/>
  </filter>
 </defs>
</svg>