<svg width="100%" height="100%" viewBox="0 0 128 128" xmlns="http://www.w3.org/2000/svg">
 <g>
  <title>Bar small</title>
  <circle id="svg_23" r="64" cy="64" cx="64" fill="#999"/>
  <path fill="#e5e5e5" id="svg_2" d="m21.91797,28.9375l37.56641,-20.71094l40.81641,21.83203c0,0 -19.53125,15.96484 -19.84766,15.96484c-0.31641,0 -41.44922,-0.31641 -41.53516,-0.46094c-0.08594,-0.14453 -17,-16.625 -17,-16.625z"/>
  <g id="svg_1">
   <path d="m89.88698,45.12023l0,54.97277l-10.7429,8.79804l-36.82014,0l-10.74645,-8.79804l0,-54.97277c3.6006,3.29365 8.43037,5.21212 13.55263,5.21212c2.21688,0 4.38711,-0.35222 6.4621,-1.04917c2.93699,0.69657 6.00363,1.04917 9.1418,1.04917c3.13461,0 6.20124,-0.35222 9.13784,-1.04917c2.07893,0.69657 4.24483,1.04917 6.46606,1.04917c5.1187,0 9.95242,-1.91849 13.54906,-5.21212zm-5.22501,48.71147l0,-37.7439c0,-2.10584 -1.80227,-3.81111 -4.0235,-3.81111c-2.22122,0 -4.01955,1.70528 -4.01955,3.81111l0,37.7439c0,2.10584 1.79832,3.81449 4.01955,3.81449c2.22122,0 4.0235,-1.70865 4.0235,-3.81449zm-19.90801,0l0,-37.7439c0,-2.10584 -1.79832,-3.81111 -4.01955,-3.81111c-2.22122,0 -4.0235,1.70528 -4.0235,3.81111l0,37.7439c0,2.10584 1.80188,3.81449 4.0235,3.81449c2.22122,0 4.01955,-1.70865 4.01955,-3.81449zm-19.90405,0l0,-37.7439c0,-2.10584 -1.80267,-3.81111 -4.02389,-3.81111c-2.22083,0 -4.01955,1.70528 -4.01955,3.81111l0,37.7439c0,2.10584 1.79872,3.81449 4.01955,3.81449c2.22162,0 4.02389,-1.70865 4.02389,-3.81449z" fill="#F5B543" id="svg_3"/>
   <path fill="#333" d="m118.54156,49.79653l0,44.03517c0,2.10584 -1.80267,3.81449 -4.02389,3.81449l-16.58804,0l0,4.1933c0,1.10912 -0.50591,2.16204 -1.39123,2.88522l-13.27201,10.86641c-0.73158,0.59578 -1.65998,0.92551 -2.62832,0.92551l-39.81167,0c-0.96398,0 -1.89713,-0.32974 -2.62792,-0.92551l-13.26806,-10.86641c-0.88533,-0.72355 -1.39518,-1.7761 -1.39518,-2.88522l0,-60.56747c-3.48559,-1.97131 -5.82972,-5.59808 -5.82972,-9.7423c0,-6.21259 5.26098,-11.27109 11.74679,-11.30893c3.66383,-4.66131 9.42241,-7.47533 15.60785,-7.49782c3.67569,-4.67255 9.47774,-7.49408 15.67464,-7.49408c6.19769,0 11.99579,2.82151 15.67504,7.49408c6.18544,0.02249 11.94402,2.8365 15.60785,7.49782c6.48186,0.03785 11.74639,5.09634 11.74639,11.30893c0,4.14422 -2.34375,7.77098 -5.83368,9.7423l0,4.7134l16.58804,0c2.22083,0.00037 4.0231,1.70902 4.0231,3.81111l0.00002,-0.00001zm-8.04305,40.22444l0,-36.40995l-11.86497,0l0,36.40995l11.86497,0zm-14.77785,-58.49124c0,-2.03127 -1.69556,-3.68333 -3.77884,-3.68333c-0.29642,0 -0.60076,0.03747 -0.93236,0.11953c-1.78647,0.44252 -3.65988,-0.32599 -4.54521,-1.86228c-2.04336,-3.54845 -5.92458,-5.75545 -10.12594,-5.75545c-0.47823,0 -0.96832,0.03409 -1.49399,0.0978c-1.63627,0.20234 -3.23302,-0.5583 -4.03535,-1.92223c-2.05522,-3.49598 -5.91667,-5.66964 -10.07455,-5.66964c-4.15788,0 -8.01933,2.17366 -10.0785,5.66964c-0.79799,1.36392 -2.39473,2.12457 -4.03101,1.92223c-0.52566,-0.06369 -1.01576,-0.0978 -1.49399,-0.0978c-4.20136,0 -8.08256,2.20738 -10.12594,5.75545c-0.88533,1.53629 -2.75874,2.30443 -4.54521,1.86228c-0.33199,-0.08244 -0.63633,-0.11953 -0.93275,-0.11953c-2.08289,0 -3.77845,1.65207 -3.77845,3.68333c0,2.0309 1.69556,3.67922 3.77845,3.67922c0.29642,0 0.60471,-0.03747 0.94066,-0.11953c1.78686,-0.43878 3.65197,0.32974 4.5373,1.86228c2.04336,3.54845 5.92458,5.75508 10.12594,5.75508c1.5928,0 3.14212,-0.31063 4.60449,-0.92177c0.86952,-0.36347 1.8418,-0.42342 2.75519,-0.16824c2.60855,0.72318 5.38311,1.09001 8.24422,1.09001c2.8615,0 5.63645,-0.36684 8.24462,-1.09001c0.37152,-0.10491 0.75094,-0.15363 1.13038,-0.15363c0.55688,0 1.11061,0.10867 1.62402,0.32187c1.46237,0.61114 3.00774,0.92177 4.60449,0.92177c4.20136,0 8.08256,-2.207 10.12594,-5.75508c0.88533,-1.53253 2.75479,-2.30106 4.5373,-1.86228c0.33635,0.08244 0.64028,0.11953 0.94066,0.11953c2.08289,0.00037 3.77845,-1.64832 3.77845,-3.67922zm-5.83368,68.56327l0,-54.97277c-3.59703,3.29365 -8.43037,5.21212 -13.54868,5.21212c-2.22122,0 -4.38751,-0.35222 -6.46606,-1.04917c-2.9366,0.69657 -6.00323,1.04917 -9.13784,1.04917c-3.13777,0 -6.20481,-0.35222 -9.1418,-1.04917c-2.07499,0.69657 -4.24483,1.04917 -6.4621,1.04917c-5.12225,0 -9.95203,-1.91849 -13.55263,-5.21212l0,54.97277l10.74645,8.79804l36.82014,0l10.7425,-8.79804l0.00001,0z" id="svg_4"/>
   <path fill="#333" d="m84.66197,56.08781l0,37.7439c0,2.10584 -1.80227,3.81449 -4.0235,3.81449c-2.22122,0 -4.01955,-1.70865 -4.01955,-3.81449l0,-37.7439c0,-2.10584 1.79832,-3.81111 4.01955,-3.81111c2.22122,0.00037 4.0235,1.70528 4.0235,3.81111z" id="svg_5"/>
   <path fill="#333" d="m64.75397,56.08781l0,37.7439c0,2.10584 -1.79832,3.81449 -4.01955,3.81449c-2.22122,0 -4.0235,-1.70865 -4.0235,-3.81449l0,-37.7439c0,-2.10584 1.80188,-3.81111 4.0235,-3.81111c2.22122,0.00037 4.01955,1.70528 4.01955,3.81111z" id="svg_6"/>
   <path fill="#777" d="m53.88103,24.78882c2.02756,0.85807 2.94055,3.11379 2.03547,5.03564c-0.90509,1.92223 -3.28045,2.78779 -5.3084,1.92972c-0.63989,-0.26979 -1.34736,-0.2889 -1.9995,-0.04871c-0.65214,0.23607 -1.16595,0.69657 -1.45051,1.30359c-0.664,1.41638 -2.13427,2.26321 -3.67569,2.26321c-0.54542,0 -1.09876,-0.10867 -1.63232,-0.33349c-2.02756,-0.85432 -2.94055,-3.11004 -2.03942,-5.03227c1.15804,-2.46555 3.2607,-4.35406 5.91667,-5.32079c2.65994,-0.96599 5.55306,-0.89479 8.1537,0.20309l0,0.00001z" id="svg_7"/>
   <path fill="#333" d="m44.8499,56.08781l0,37.7439c0,2.10584 -1.80267,3.81449 -4.02389,3.81449c-2.22083,0 -4.01955,-1.70865 -4.01955,-3.81449l0,-37.7439c0,-2.10584 1.79872,-3.81111 4.01955,-3.81111c2.22162,0.00037 4.02389,1.70528 4.02389,3.81111z" id="svg_8"/>
  </g>
 </g>
</svg>
