<svg width="80%" height="80%" viewBox="0 0 128 128" xmlns="http://www.w3.org/2000/svg">
 <g>
  <title>Bar</title>
  <circle stroke="#777" stroke-width="8" id="svg_23" r="64" cy="64" cx="64" fill="#A19D62"/>
  <circle id="svg_23" r="24" cy="30" cx="98" fill="#B3B52f"/>
  <g id="svg_1">
   <path stroke="#333" fill="#333" d="m3,13.43055c0,1.81025 1.37839,3.27865 3.08562,3.27865l13.49964,0c0.91092,0 2.51254,0.68263 3.1702,1.35676l7.95404,8.11662l-8.95405,0c-5.10866,0 -6.21178,2.99103 -2.46399,6.67905l38.90832,38.25344c0.92143,0.90699 1.975,1.57101 3.08662,2.01121l0,43.72619l-18.04874,8.33141c-1.56208,0.72091 -1.44746,1.30412 0.25926,1.30412l42.80726,0c1.70522,0 1.80683,-0.56461 0.23374,-1.26106l-19.08178,-8.43614l0,-43.55659c1.44096,-0.49177 2.80383,-1.32007 3.91646,-2.55934l33.50786,-37.37569c3.52506,-3.93098 2.24177,-7.11926 -2.8674,-7.11926l-62.40306,0l-12.58071,-12.84135c-1.80733,-1.84693 -4.93949,-3.18721 -7.44702,-3.18721l-13.49964,0c-1.70422,0.00266 -3.08261,1.46734 -3.08261,3.27918z" id="svg_3"/>
   <path stroke="#333" fill="#333" d="m125.19748,31.87702c0.42243,-7.31756 -1.86538,-14.36876 -6.44001,-19.86012c-4.57512,-5.48711 -10.8905,-8.76044 -17.77596,-9.20596c-12.09772,-0.78418 -22.97522,7.32128 -26.36864,19.72508l5.92148,1.83045c2.57961,-9.44095 10.79941,-15.60271 20.07328,-15.01418c5.2408,0.34025 10.04665,2.82782 13.52367,7.00867c3.48202,4.17607 5.22778,9.54728 4.90796,15.11572c-0.32032,5.57111 -2.66069,10.6733 -6.59817,14.37302c-3.93648,3.69599 -8.97907,5.53974 -14.23288,5.2048c-1.98501,-0.12972 -3.91646,-0.56939 -5.75131,-1.30519l-2.1802,6.13252c2.41144,0.96813 4.95551,1.54549 7.55864,1.71455c0.53354,0.03509 1.07008,0.05104 1.60612,0.05104c6.30837,0 12.32145,-2.41579 17.08476,-6.89065c5.17423,-4.85604 8.25284,-11.56221 8.67126,-18.87977z" id="svg_4"/>
  </g>
 </g>

</svg>
