<svg width="60%" height="60%"  viewBox="0 0 128 128" xmlns="http://www.w3.org/2000/svg">
 <g>
  <title>Barn</title>
  <rect id="svg_3" height="124" width="124" y="2" x="2" fill="#91605E"/>
  <g id="svg_1">
   <path id="svg_2" stroke="#333" fill="#333" stroke-width="4" d="m122.83838,58.80854l-21.43848,-31.53504c-0.24496,-0.36032 -0.62221,-0.62795 -1.06314,-0.75477l-35.6941,-10.25409c-0.3757,-0.10786 -0.77821,-0.10786 -1.15391,0l-35.69384,10.25409c-0.44094,0.12682 -0.81818,0.39445 -1.06314,0.75477l-21.43848,31.53504c-0.27178,0.3999 -0.35971,0.88278 -0.24419,1.34218s0.42443,0.85812 0.85944,1.10774l6.99643,4.01871c0.90611,0.52033 2.09896,0.26716 2.66495,-0.56537l1.17918,-1.7345l0,44.41493l-4.25464,0c-1.0683,0 -1.93393,0.79601 -1.93393,1.77788s0.86563,1.77788 1.93393,1.77788l103.14276,0c1.0683,0 1.93393,-0.79601 1.93393,-1.77788s-0.86563,-1.77788 -1.93393,-1.77788l-4.25464,0l0,-44.4147l1.17918,1.7345c0.36693,0.53953 0.99713,0.83584 1.64177,0.83584c0.34991,0 0.70421,-0.08723 1.02318,-0.27047l6.99643,-4.01871c0.435,-0.24985 0.74417,-0.64833 0.85944,-1.10774s0.02759,-0.94251 -0.24419,-1.34242l-0.00001,0.00001zm-54.9903,18.00445l19.25263,0l-9.62631,12.25313l-9.62631,-12.25313l-0.00001,0zm7.24088,15.28975l-9.0892,11.56948l0,-23.13872l9.0892,11.56924zm-12.95705,-11.56948l0,23.13872l-9.0892,-11.56948l9.0892,-11.56924zm-11.47463,8.53286l-9.62631,-12.25313l19.25263,0l-9.62631,12.25313l-0.00001,0zm9.62631,18.32636l-19.25263,0l9.62631,-12.25313l9.62631,12.25313l0.00001,0zm17.1908,-12.25313l9.62631,12.25313l-19.25263,0l9.62631,-12.25313l0.00001,0zm2.38569,-3.03661l9.0892,-11.56948l0,23.13872l-9.0892,-11.56924zm-44.80315,-18.8455l0,-4.02986l58.0178,0l0,4.02986l-58.0178,0zm13.21491,18.8455l-9.0892,11.56948l0,-23.13872l9.0892,11.56924zm59.24288,15.28975l-14.69784,0l0,-30.57949l2.19178,0c1.0683,0 1.93393,-0.79601 1.93393,-1.77788l0,-7.58561c0,-0.98186 -0.86563,-1.77788 -1.93393,-1.77788l-61.88565,0c-1.0683,0 -1.93393,0.79601 -1.93393,1.77788l0,7.58561c0,0.98186 0.86563,1.77788 1.93393,1.77788l2.19178,0l0,30.57949l-14.69784,0l0,-50.1039l14.39177,-21.16812l29.05712,-8.34749l29.05712,8.34749l14.39177,21.16812l0,50.1039l-0.00001,0zm7.30225,-46.07239l-18.7939,-27.64244c-0.24471,-0.36032 -0.62195,-0.62795 -1.06289,-0.75477l-30.31752,-8.7097c-0.18798,-0.05405 -0.3824,-0.08083 -0.57683,-0.08083s-0.38911,0.02702 -0.57683,0.08083l-30.31727,8.7097c-0.44094,0.12682 -0.81818,0.39445 -1.06289,0.75477l-18.79416,27.64244l-3.71623,-2.13464l20.03368,-29.46915l34.43369,-9.89211l34.43369,9.89211l20.03368,29.46891l-3.71623,2.13488l0.00001,0z" />
   <path id="svg_4" stroke="#333" stroke-width="2" d="m74.38011,37.22558l-20.62855,0c-1.0683,0 -1.93393,0.79601 -1.93393,1.77788l0,18.96403c0,0.98186 0.86563,1.77788 1.93393,1.77788l20.62855,0c1.0683,0 1.93393,-0.79601 1.93393,-1.77788l0,-18.96403c0,-0.98186 -0.86563,-1.77788 -1.93393,-1.77788zm-18.69462,6.07015l5.64526,5.18974l-5.64526,5.18974l0,-10.37949l0,0.00001zm2.73509,-2.51439l11.29052,0l-5.64526,5.18974l-5.64526,-5.18974zm5.64526,10.21853l5.64526,5.18974l-11.29052,0l5.64526,-5.18974zm2.73509,-2.51439l5.64526,-5.18974l0,10.37949l-5.64526,-5.18974l0,-0.00001z" />
  </g>
 </g>
</svg>