<svg width="100%" height="100%"  viewBox="0 0 115 115" xmlns="http://www.w3.org/2000/svg">
 <g>
  <title>Barn</title>
  <g id="svg_3">
   <g id="svg_2">
    <path id="svg_1" d="m98.09857,54.60397l-83.42144,0c-1.04698,0 -1.89682,1.01094 -1.89682,2.26031l0,54.29988c0,1.24957 0.84985,2.2637 1.89682,2.2637l83.42161,0c1.04715,0 1.897,-1.01412 1.897,-2.2637l0,-54.29988c-0.00018,-1.24936 -0.85003,-2.26031 -1.89717,-2.26031l-0.00001,0z" fill="#8B3430"/>
    <path id="svg_7" d="m78.94219,72.65554l-47.35127,0c-1.09248,0 -1.97389,0.91623 -1.97389,2.04855l0,38.96108l51.29646,0l0,-38.96089c-0.00018,-1.1325 -0.88456,-2.04873 -1.9713,-2.04873l0,-0.00001z" fill="#444"/>
    <path id="svg_10" d="m107.11468,55.67786l-102.87755,0c-0.77329,0 -1.49394,-0.31065 -1.90009,-0.81817c-0.4095,-0.50752 -0.44556,-1.14144 -0.09834,-1.67692l4.47197,-6.89696c0.37994,-0.58332 1.15322,-0.95217 2.00178,-0.95217l93.93045,0c0.8452,0 1.61849,0.36868 1.99822,0.95217l4.47197,6.89696c0.34722,0.53532 0.31117,1.16924 -0.09498,1.67692c-0.4095,0.50752 -1.13015,0.81817 -1.90344,0.81817l0.00001,0l-0.00001,0z" fill="#444"/>
    <path id="svg_8" d="m82.51465,60.48972l-53.67391,0c-1.23834,0 -2.23745,0.68306 -2.23745,1.52722l0,10.70152l58.14589,0l0,-10.70152c-0.00021,-0.84415 -1.00267,-1.52722 -2.23452,-1.52722z" fill="#9D7A4F"/>
   </g>
   <path fill="#813430" d="m9.77412,58.62819l-7.93503,-6.61766l21.46086,-38.77395l33.14138,-11.33814l33.09411,11.33814l21.98275,39.2452l-7.85736,6.24385l-5.69886,-12.87984l-82.8276,0.2373l-5.36024,12.5451l-0.00001,0z" id="svg_6"/>
  </g>
  <g id="svg_1">
   <path d="m112.64876,51.31492l-20.49423,-37.79317c-0.23417,-0.43183 -0.59481,-0.75257 -1.01631,-0.90456l-34.12196,-12.28902c-0.35916,-0.12926 -0.74393,-0.12926 -1.10309,0l-34.12172,12.28902c-0.42151,0.15199 -0.78214,0.47273 -1.01631,0.90456l-20.49423,37.79317c-0.25981,0.47925 -0.34387,1.05797 -0.23344,1.60853s0.40573,1.02841 0.82159,1.32758l6.68828,4.81622c0.8662,0.62359 2.00651,0.32018 2.54757,-0.67757l1.12724,-2.07871l0,53.22908l-4.06724,0c-1.02125,0 -1.84875,0.95398 -1.84875,2.1307s0.8275,2.1307 1.84875,2.1307l98.59986,0c1.02125,0 1.84875,-0.95398 1.84875,-2.1307s-0.8275,-2.1307 -1.84875,-2.1307l-4.06724,0l0,-53.22881l1.12724,2.07871c0.35077,0.6466 0.95321,1.00171 1.56946,1.00171c0.3345,0 0.6732,-0.10454 0.97812,-0.32415l6.68828,-4.81622c0.41584,-0.29943 0.7114,-0.777 0.82159,-1.32758s0.02637,-1.12955 -0.23344,-1.60882l-0.00001,0.00001l0,0.00001l0,0.00001zm-52.56827,21.57743l18.40465,0l-9.20232,14.68476l-9.20232,-14.68476l-0.00001,0l-0.00001,0zm6.92196,18.32401l-8.68886,13.86545l0,-27.7306l8.68886,13.86515zm-12.38636,-13.86545l0,27.7306l-8.68886,-13.86545l8.68886,-13.86515zm-10.96924,10.22621l-9.20232,-14.68476l18.40465,0l-9.20232,14.68476l-0.00001,0l-0.00001,0zm9.20232,21.96323l-18.40465,0l9.20232,-14.68476l9.20232,14.68476l0.00001,0l0.00001,0zm16.43364,-14.68476l9.20232,14.68476l-18.40465,0l9.20232,-14.68476l0.00001,0l0.00001,0zm2.28061,-3.63923l8.68886,-13.86545l0,27.7306l-8.68886,-13.86515zm-42.82981,-22.58539l0,-4.82958l55.46242,0l0,4.82958l-55.46242,0zm12.63286,22.58539l-8.68886,13.86545l0,-27.7306l8.68886,13.86515zm56.63355,18.32401l-14.05048,0l0,-36.648l2.09524,0c1.02125,0 1.84875,-0.95398 1.84875,-2.1307l0,-9.09098c0,-1.17671 -0.8275,-2.1307 -1.84875,-2.1307l-59.15991,0c-1.02125,0 -1.84875,0.95398 -1.84875,2.1307l0,9.09098c0,1.17671 0.8275,2.1307 1.84875,2.1307l2.09524,0l0,36.648l-14.05048,0l0,-60.04703l13.75789,-25.36893l27.77731,-10.00405l27.77731,10.00405l13.75789,25.36893l0,60.04703l-0.00001,0zm6.98062,-55.21546l-17.96613,-33.12809c-0.23393,-0.43183 -0.59455,-0.75257 -1.01608,-0.90456l-28.98219,-10.43814c-0.1797,-0.06478 -0.36556,-0.09687 -0.55142,-0.09687s-0.37197,0.03238 -0.55142,0.09687l-28.98196,10.43814c-0.42151,0.15199 -0.78214,0.47273 -1.01608,0.90456l-17.96637,33.12809l-3.55255,-2.55826l19.1513,-35.3173l32.91707,-11.8552l32.91707,11.8552l19.1513,35.31702l-3.55255,2.55854l0.00001,0l0,0.00001l0,-0.00001z" fill="#333" id="svg_2"/>
   <path fill="#4c4c4c" d="m65.85022,21.17732l-19.71997,0c-1.02125,0 -1.84875,0.77783 -1.84875,1.73727l0,18.53089c0,0.95944 0.8275,1.73727 1.84875,1.73727l19.71997,0c1.02125,0 1.84875,-0.77783 1.84875,-1.73727l0,-18.53089c0,-0.95944 -0.8275,-1.73727 -1.84875,-1.73727zm-17.87122,5.93151l5.39662,5.07121l-5.39662,5.07121l0,-10.14243l0,0.00001l0,-0.00001l0,0.00001zm2.61462,-2.45696l10.79323,0l-5.39662,5.07121l-5.39662,-5.07121zm5.39662,9.98514l5.39662,5.07121l-10.79323,0l5.39662,-5.07121zm2.61462,-2.45696l5.39662,-5.07121l0,10.14243l-5.39662,-5.07121l0,-0.00001l0,0.00001l0,-0.00001z" id="svg_4"/>
  </g>
 </g>
</svg>