<svg width="90%" height="90%"  viewBox="0 0 128 128" xmlns="http://www.w3.org/2000/svg">
<g>
 <title>Barn</title>
 <g id="svg_3">
  <g id="svg_2">
   <path fill="#8B3430" d="m116.12101,53.09171l-107.11581,0c-1.34436,0 -2.43558,1.11704 -2.43558,2.49752l0,59.9985c0,1.38071 1.09123,2.50127 2.43558,2.50127l107.11604,0c1.34458,0 2.43581,-1.12055 2.43581,-2.50127l0,-59.9985c-0.00023,-1.38048 -1.09146,-2.49752 -2.43603,-2.49752z" id="svg_1"/>
   <path fill="#444" d="m87.88963,76.00149l-51.54426,0c-1.18922,0 -2.14868,0.94031 -2.14868,2.10239l0,39.98512l55.8388,0l0,-39.98492c-0.0002,-1.16227 -0.96289,-2.10258 -2.14586,-2.10258l0,-0.00001z" id="svg_7"/>
   <path fill="#444" d="m118.55682,58.09049l-111.98744,0c-0.84176,0 -1.62623,-0.45047 -2.06834,-1.18641c-0.44576,-0.73594 -0.48501,-1.65517 -0.10705,-2.43166l4.86797,-10.00108c0.41358,-0.84586 1.25534,-1.38071 2.17904,-1.38071l102.24807,0c0.92004,0 1.76181,0.53461 2.17516,1.38071l4.86797,10.00108c0.37797,0.77625 0.33872,1.69548 -0.10339,2.43166c-0.44576,0.73594 -1.23023,1.18641 -2.07199,1.18641l0.00001,0z" id="svg_10"/>
   <path fill="#9D7A4F" d="m91.77844,63.02883l-58.42678,0c-1.348,0 -2.43558,0.72822 -2.43558,1.62819l0,11.40905l63.29475,0l0,-11.40905c-0.00023,-0.89996 -1.09146,-1.62819 -2.43239,-1.62819z" id="svg_8"/>
  </g>
  <path id="svg_6" d="m12.33836,61.11837l-7.60441,-4.84326l22.32796,-41.74141l35.81776,-13.58448l36.28293,13.58448l21.86279,41.49442l-6.7449,5.43379l-9.30332,-13.46191l-83.96241,0l-8.67639,13.11837z" fill="#813430"/>
 </g>
 <g id="svg_1">
  <path id="svg_2" fill="#333" d="m124.06431,53.61288l-22.30901,-38.78651c-0.25491,-0.44318 -0.64748,-0.77235 -1.10631,-0.92833l-37.14349,-12.61202c-0.39096,-0.13266 -0.80981,-0.13266 -1.20077,0l-37.14322,12.61202c-0.45884,0.15598 -0.8514,0.48515 -1.10631,0.92833l-22.30901,38.78651c-0.28282,0.49185 -0.37432,1.08578 -0.25411,1.65081s0.44166,1.05544 0.89434,1.36247l7.28053,4.94281c0.9429,0.63998 2.18419,0.3286 2.77316,-0.69538l1.22706,-2.13335l0,54.62813l-4.4274,0c-1.11168,0 -2.01246,0.97905 -2.01246,2.1867s0.90078,2.1867 2.01246,2.1867l107.33096,0c1.11168,0 2.01246,-0.97905 2.01246,-2.1867s-0.90078,-2.1867 -2.01246,-2.1867l-4.4274,0l0,-54.62785l1.22706,2.13335c0.38183,0.66359 1.03762,1.02804 1.70844,1.02804c0.36412,0 0.73281,-0.10729 1.06473,-0.33267l7.28053,-4.94281c0.45266,-0.3073 0.77439,-0.79742 0.89434,-1.36247s0.02871,-1.15924 -0.25411,-1.65111l-0.00001,0.00001l0,0.00001zm-57.22323,22.14456l20.0344,0l-10.01719,15.07073l-10.01719,-15.07073l-0.00001,0l-0.00001,0zm7.5349,18.80563l-9.45827,14.22988l0,-28.45946l9.45827,14.22958zm-13.48318,-14.22988l0,28.45946l-9.45827,-14.22988l9.45827,-14.22958zm-11.94057,10.49499l-10.01719,-15.07073l20.0344,0l-10.01719,15.07073l-0.00001,0l-0.00001,0zm10.01719,22.5405l-20.0344,0l10.01719,-15.07073l10.01719,15.07073l0.00001,0l0.00001,0zm17.88885,-15.07073l10.01719,15.07073l-20.0344,0l10.01719,-15.07073l0.00001,0l0.00001,0zm2.48256,-3.73488l9.45827,-14.22988l0,28.45946l-9.45827,-14.22958zm-46.62242,-23.17901l0,-4.95652l60.37366,0l0,4.95652l-60.37366,0zm13.75151,23.17901l-9.45827,14.22988l0,-28.45946l9.45827,14.22958zm61.64849,18.80563l-15.29466,0l0,-37.61124l2.28078,0c1.11168,0 2.01246,-0.97905 2.01246,-2.1867l0,-9.32992c0,-1.20764 -0.90078,-2.1867 -2.01246,-2.1867l-64.39857,0c-1.11168,0 -2.01246,0.97905 -2.01246,2.1867l0,9.32992c0,1.20764 0.90078,2.1867 2.01246,2.1867l2.28078,0l0,37.61124l-15.29466,0l0,-61.62528l14.97616,-26.03572l30.23701,-10.26699l30.23701,10.26699l14.97616,26.03572l0,61.62528l-0.00001,0zm7.59876,-56.66672l-19.55704,-33.99881c-0.25465,-0.44318 -0.6472,-0.77235 -1.10605,-0.92833l-31.54859,-10.71249c-0.19561,-0.06648 -0.39793,-0.09942 -0.60025,-0.09942s-0.40491,0.03323 -0.60025,0.09942l-31.54833,10.71249c-0.45884,0.15598 -0.8514,0.48515 -1.10605,0.92833l-19.55731,33.99881l-3.86713,-2.6255l20.84716,-36.24557l35.8319,-12.1668l35.8319,12.1668l20.84716,36.24528l-3.86713,2.62579l0.00001,0l0,0.00001z"/>
  <path id="svg_4" d="m73.63836,27.06691l-21.46619,0c-1.11168,0 -2.01246,0.97905 -2.01246,2.1867l0,23.3248c0,1.20764 0.90078,2.1867 2.01246,2.1867l21.46619,0c1.11168,0 2.01246,-0.97905 2.01246,-2.1867l0,-23.3248c0,-1.20764 -0.90078,-2.1867 -2.01246,-2.1867zm-19.45373,7.46598l5.87449,6.38312l-5.87449,6.38312l0,-12.76625l0,0.00001l0,-0.00001zm2.84615,-3.09257l11.74898,0l-5.87449,6.38312l-5.87449,-6.38312zm5.87449,12.56828l5.87449,6.38312l-11.74898,0l5.87449,-6.38312zm2.84615,-3.09257l5.87449,-6.38312l0,12.76625l-5.87449,-6.38312l0,-0.00001l0,0.00001z" fill="#4c4c4c"/>
 </g>
</g>
</svg>