<svg width="100%" height="100%"  viewBox="0 0 128 128" xmlns="http://www.w3.org/2000/svg">
 <g>
  <title>baseball</title>
  <path id="svg_1" fill="#E6E6E6" d="m28.68495,90.3745c0,-4.45434 -1.79909,-8.59752 -5.06346,-11.66765c-0.00566,-0.00566 -0.00754,-0.0132 -0.0132,-0.01697c-2.70617,3.13803 -4.3525,7.2152 -4.3525,11.68463c0,4.46943 1.64633,8.5466 4.3525,11.68463c0.00566,-0.00566 0.00754,-0.01132 0.01132,-0.01697c3.26626,-3.07202 5.06535,-7.2152 5.06535,-11.66765l-0.00001,-0.00002z"/>
  <path id="svg_2" fill="#E6E6E6" d="m47.98646,76.11571c-3.0079,-2.28563 -6.74751,-3.65663 -10.81526,-3.65663s-7.80735,1.371 -10.81526,3.65663c3.93008,3.77544 6.10067,8.8257 6.10067,14.25879c0,5.4312 -2.17059,10.48335 -6.10067,14.25879c3.0079,2.28563 6.74751,3.65663 10.81526,3.65663s7.80735,-1.371 10.81526,-3.65663c-3.93008,-3.77544 -6.10067,-8.82759 -6.10067,-14.25879c0,-5.43309 2.17059,-10.48335 6.10067,-14.25879z"/>
  <path id="svg_3" fill="#E6E6E6" d="m45.65746,90.3745c0,4.45245 1.79909,8.59752 5.06346,11.66765c0.00566,0.00566 0.00754,0.01132 0.01132,0.01697c2.70617,-3.13803 4.3525,-7.2152 4.3525,-11.68463c0,-4.46943 -1.64633,-8.5466 -4.3525,-11.68463c-0.00566,0.00566 -0.00754,0.0132 -0.0132,0.01697c-3.26438,3.07014 -5.06158,7.21331 -5.06158,11.66765l0,0.00002z"/>
  <path id="svg_4" fill="#E64C3C" d="m26.35595,76.11571c-1.00326,0.76188 -1.92544,1.62182 -2.74577,2.57416c0.00566,0.00566 0.00754,0.0132 0.0132,0.01697c3.26438,3.07014 5.06346,7.21331 5.06346,11.66765c0,4.45245 -1.79909,8.59752 -5.06346,11.66765c-0.00566,0.00566 -0.00754,0.01132 -0.01132,0.01697c0.82222,0.95235 1.7444,1.81229 2.74766,2.57416c3.93008,-3.77544 6.10067,-8.82759 6.10067,-14.25879c-0.00377,-5.43309 -2.17437,-10.48335 -6.10444,-14.25879l0,0.00002z"/>
  <path id="svg_5" fill="#E64C3C" d="m50.73223,102.05913c-0.00566,-0.00566 -0.00754,-0.01132 -0.01132,-0.01697c-3.26438,-3.07014 -5.06346,-7.2152 -5.06346,-11.66765c0,-4.45434 1.79909,-8.59752 5.06346,-11.66765c0.00566,-0.00566 0.00754,-0.0132 0.0132,-0.01697c-0.82222,-0.95235 -1.7444,-1.81229 -2.74577,-2.57416c-3.93008,3.77544 -6.10067,8.8257 -6.10067,14.25879c0,5.4312 2.17059,10.48335 6.10067,14.25879c1.00138,-0.76188 1.92355,-1.62182 2.74389,-2.57416l0,-0.00002z"/>
  <path id="svg_6" fill="#CBB292" d="m115.95568,104.09394l-10.66816,10.66816c-2.20077,2.20077 -5.80082,2.20077 -8.00159,0l0,0c-2.20077,-2.20077 -2.20077,-5.80082 0,-8.00159l10.66816,-10.66816c2.20077,-2.20077 5.80082,-2.20077 8.00159,0l0,0c2.20077,2.20077 2.20077,5.80271 0,8.00159z"/>
  <g id="svg_7">
   <path id="svg_8" fill="#CBB292" d="m106.00414,98.13848l-69.11015,-81.48876c-3.73584,-4.40531 -9.63472,-6.63813 -15.23377,-5.22942c-1.91789,0.48277 -3.6736,1.35214 -5.11061,2.7552c-2.44027,2.38369 -3.36244,5.71219 -3.24929,9.48009c0.13201,4.37702 2.23283,8.47117 5.5783,11.29614l81.46802,68.84425l5.6575,-5.6575z"/>
  </g>
  <polygon id="svg_9" fill="#38454F" points="62.41120147705078,71.73869323730469 100.34662628173828,103.79598236083984 106.0041275024414,98.13848114013672 73.88461303710938,60.265281677246094 "/>
 </g>
</svg>