<svg width="100%" height="100%"  viewBox="0 0 512 512" xmlns="http://www.w3.org/2000/svg">
<g>
	<g>
		<path d="m412.955,249.91c0-1.6,0-3.2,0-4.8c0-12.8-1.6-24-4.8-35.2c36.8-49.6,56-110.4,51.2-169.6c0-8-6.4-14.4-14.4-14.4
			c-68.8-9.6-139.2,11.2-193.6,56c-38.4-43.2-89.6-72-144-81.6c-8-1.6-16,3.2-19.2,9.6c-27.2,68.8-22.4,147.2,14.4,214.4
			c-49.6,20.8-83.2,70.4-83.2,128c0,76.8,62.4,137.6,137.6,137.6c33.6,0,64-12.8,88-32c25.6,33.6,67.2,54.4,110.4,54.4
			c76.8,0,137.6-62.4,137.6-137.6C492.955,318.71,459.355,270.71,412.955,249.91z M427.355,54.71c0,41.6-11.2,83.2-33.6,118.4
			c-8-12.8-17.6-24-28.8-33.6l41.6-40c6.4-6.4,6.4-16,0-22.4c-6.4-6.4-16-6.4-22.4,0l-46.4,44.8c-19.2-9.6-40-16-62.4-16
			c-1.6,0-3.2,0-3.2,0C315.355,70.71,371.355,51.51,427.355,54.71z M275.355,137.91c56,0,102.4,44.8,105.6,100.8
			c-8-1.6-16-3.2-25.6-3.2c-32,0-64,11.2-88,32c-22.4-28.8-56-49.6-94.4-54.4C185.755,168.31,227.355,137.91,275.355,137.91z
			 M113.755,35.51c48,11.2,89.6,40,121.6,78.4c-16,4.8-32,12.8-44.8,24l-41.6-73.6c-3.2-8-12.8-9.6-20.8-6.4
			c-8,4.8-11.2,14.4-6.4,22.4l44.8,78.4c-12.8,16-22.4,35.2-27.2,56c-1.6,0-3.2,0-6.4,0C100.955,158.71,94.555,93.11,113.755,35.51z
			 M156.955,456.31c-59.2,0-105.6-48-105.6-105.6c0-57.6,46.4-105.6,105.6-105.6s105.6,48,105.6,105.6
			C262.555,408.31,214.555,456.31,156.955,456.31z M355.355,480.31c-35.2,0-68.8-17.6-88-46.4c17.6-22.4,27.2-51.2,27.2-83.2
			c0-19.2-4.8-38.4-11.2-56c19.2-17.6,44.8-28.8,72-28.8c59.2,1.6,105.6,49.6,105.6,108.8
			C460.955,433.91,412.955,480.31,355.355,480.31z"/>
	</g>
</g>
<g>
	<g>
		<path d="m131.355,339.51l4.8-4.8c6.4-4.8,8-16,1.6-22.4c-4.8-6.4-16-8-22.4-1.6l-3.2,1.6l-1.6-3.2c-4.8-8-14.4-9.6-22.4-3.2
			c-8,4.8-9.6,14.4-4.8,22.4l4.8,4.8l-4.8,4.8c-6.4,4.8-8,16-1.6,22.4c3.2,3.2,8,6.4,12.8,6.4c3.2,0,6.4-1.6,9.6-3.2l3.2-3.2
			l1.6,3.2c3.2,4.8,8,6.4,12.8,6.4c3.2,0,6.4-1.6,9.6-3.2c8-4.8,9.6-14.4,3.2-22.4L131.355,339.51z"/>
	</g>
</g>
<g>
	<g>
		<path d="m396.955,446.71c-1.6-8-9.6-14.4-19.2-12.8l-33.6,6.4c-9.6,1.6-16,11.2-12.8,19.2c1.6,8,8,12.8,16,12.8c1.6,0,1.6,0,3.2,0
			l33.6-6.4C392.155,464.31,398.555,456.31,396.955,446.71z"/>
	</g>
</g>
<g>
	<g>
		<path d="m288.155,160.31h-32c-9.6,0-16,6.4-16,16c0,9.6,6.4,16,16,16h32c9.6,0,16-6.4,16-16
			C304.155,166.71,297.755,160.31,288.155,160.31z"/>
	</g>
</g>
</svg>
