<svg width="60%" height="60%" viewBox="0 0 128 128" xmlns="http://www.w3.org/2000/svg">
<g id="svg_49">
 <title>Blueberry</title>
    <rect rx="16" ry="16" id="svg_50" height="128" width="128" y="0" x="0" fill="#5f87af"/>
    <g stroke="#333" stroke-width="2" id="berryboobs">
        <circle fill="#375068" cx="44" cy="74" r="30" id="svg_1"/>
        <circle fill="#375068" cx="82" cy="80" r="30" id="svg_2"/>
        <path d="m32.91309,82.01465c-0.60873,-4.95247 -7.20508,-9.55761 -3.0127,-11.29785c4.19238,-1.74024 4.5879,-10.67871 7.83106,-6.64453c3.24316,4.03418 10.91601,1.34473 8.30566,5.93262c-2.61035,4.58789 1.92253,9.6813 -3.08496,9.96679c-5.00749,0.28549 -9.43033,6.99544 -10.03906,2.04297z" fill="#1A2D40" id="svg_10"/>
        <path d="m75.01299,87.50996c-0.60873,-4.95247 -7.20508,-9.55761 -3.0127,-11.29785c4.19238,-1.74024 4.5879,-10.67871 7.83106,-6.64453c3.24316,4.03418 10.91601,1.34473 8.30566,5.93262c-2.61035,4.58789 1.92253,9.6813 -3.08496,9.96679c-5.00749,0.28549 -9.43033,6.99544 -10.03906,2.04297z" fill="#1A2D40" id="svg_11" transform="rotate(62.27724075317383 79.64160156250003,78.92968749999997) "/>
    </g>
    <g transform="rotate(-1.9928975105285645 79.07264709472656,32.03762054443349) " stroke="#333" fill="#47662B" stroke-width="2" id="Leaves">
        <path d="m49.40186,43.78365c-4.23395,-0.49873 23.28671,-41.39543 29.0036,-32.56999c5.71688,8.82544 2.28056,39.55236 -0.94088,38.65237c-3.22144,-0.89998 -11.83259,4.39117 -11.99618,4.23929c-0.1636,-0.15189 -11.83258,-9.82294 -16.06653,-10.32167z" id="svg_12"/>
        <path d="m82.02136,29.34584c2.5874,-2.74307 10.34965,-4.9874 23.12311,-11.12418c12.77346,-6.13677 -8.53953,35.8118 -11.76097,34.91182c-3.22144,-0.89998 -7.59863,-3.3393 -13.64271,-2.99245l2.28057,-20.79521l0,0.00001z" id="svg_13"/>
    </g>
</g>
</svg>