<svg width="100%" height="100%" viewBox="0 0 72 72" xmlns="http://www.w3.org/2000/svg">
    <g id="svg_49">
        <title>Blueberry</title>
        <rect rx="16" ry="16" id="svg_50" height="72" width="72" y="0" x="0" fill="#5f87af"/>
        <g stroke="#333" stroke-width="2" id="berryboobs">
            <circle fill="#375068" cx="23.43503" cy="43.72074" r="16.19013" id="svg_1"/>
            <circle fill="#375068" cx="43.94252" cy="46.95877" r="16.19013" id="svg_2"/>
            <path d="m17.45174,48.04602c-0.32851,-2.6727 -3.88837,-5.15796 -1.62586,-6.09713c2.26251,-0.93916 2.47596,-5.76299 4.2262,-3.58586c1.75024,2.17713 5.89105,0.72571 4.48232,3.20167c-1.40873,2.47595 1.03753,5.22472 -1.66486,5.37879c-2.7024,0.15407 -5.08927,3.77524 -5.41779,1.10253l0,0.00001z" fill="#1A2D40" id="svg_10"/>
            <path d="m37.40876,46.32405c2.21308,-1.53413 2.75703,-5.84147 4.64089,-4.27558c1.88385,1.5659 6.25325,-0.48917 5.14023,2.07295c-1.11301,2.56211 2.09807,5.55241 -0.74899,5.45718c-2.84706,-0.09523 -4.14231,3.34894 -5.53583,1.02843c-1.39352,-2.32051 -5.70937,-2.74886 -3.49629,-4.28299l0,0.00001z" fill="#1A2D40" id="svg_11"/>
        </g>
        <g stroke="#333" transform="matrix(0.7240515971951744,-0.025194575103609455,0.025194575103609455,0.7240515971951744,-0.6767792481581117,1.4823941180496092) " fill="#47662B" stroke-width="2" id="Leaves">
            <path d="m34.63131,37.55272c-3.38502,-0.41082 18.61761,-34.09907 23.18824,-26.8292c4.57062,7.26987 1.8233,32.58086 -0.75223,31.8395c-2.57553,-0.74135 -9.4601,3.61718 -9.59089,3.49207c-0.1308,-0.12512 -9.46009,-8.09155 -12.84511,-8.50237l-0.00001,0z" id="svg_12"/>
            <path d="m60.71044,25.65972c2.06861,-2.25958 8.27449,-4.10832 18.48681,-9.16343c10.21232,-5.0551 -6.82731,29.49961 -9.40284,28.75826c-2.57553,-0.74135 -6.07507,-2.75072 -10.90728,-2.465l1.8233,-17.12985l0,0.00001l0,0.00001l0.00001,0z" id="svg_13"/>
        </g>
    </g>
</svg>