<svg width="100%" height="100%" viewBox="0 0 98 98" xmlns="http://www.w3.org/2000/svg">
    <g id="svg_49">
        <title>Blueberry</title>
        <rect fill="#5f87af" x="0" y="0" width="98" height="98" id="svg_50" ry="16" rx="16"/>
        <g stroke="#333" id="berryboobs" stroke-width="2">
            <circle id="svg_1" r="22.34694" cy="60.34694" cx="32.34694" fill="#375068"/>
            <circle id="svg_2" r="22.34694" cy="64.81633" cx="60.65306" fill="#375068"/>
            <path id="svg_10" fill="#1A2D40" d="m24.08832,66.31704c-0.45344,-3.68908 -5.36705,-7.11944 -2.24415,-8.41575c3.1229,-1.2963 3.41752,-7.95455 5.83334,-4.9495c2.41582,3.00505 8.13131,1.00169 6.18687,4.4192c-1.94444,3.41751 1.43209,7.21158 -2.29798,7.42424c-3.73007,0.21266 -7.02463,5.21089 -7.47808,1.5218z"/>
            <path id="svg_11" fill="#1A2D40" d="m51.63463,63.94024c3.05467,-2.11753 3.80548,-8.06288 6.40573,-5.9015c2.60025,2.16138 8.63125,-0.67519 7.09497,2.86125c-1.53627,3.53644 2.89593,7.66389 -1.03382,7.53245c-3.92975,-0.13144 -5.71756,4.62248 -7.64101,1.41952c-1.92345,-3.20296 -7.88054,-3.7942 -4.82587,-5.91173z"/>
        </g>
        <g stroke="#333" id="Leaves" stroke-width="2" fill="#47662B" transform="rotate(-1.9928975105285645 58.35296249389648,27.877038955688555) ">
            <path id="svg_12" d="m34.63131,37.55272c-3.38502,-0.41082 18.61761,-34.09907 23.18824,-26.8292c4.57062,7.26987 1.8233,32.58086 -0.75223,31.8395c-2.57553,-0.74135 -9.4601,3.61718 -9.59089,3.49207c-0.1308,-0.12512 -9.46009,-8.09155 -12.84511,-8.50237l-0.00001,0z"/>
            <path id="svg_13" d="m60.71044,25.65972c2.06861,-2.25958 8.27449,-4.10832 18.48681,-9.16343c10.21232,-5.0551 -6.82731,29.49961 -9.40284,28.75826c-2.57553,-0.74135 -6.07507,-2.75072 -10.90728,-2.465l1.8233,-17.12985l0,0.00001l0,0.00001z"/>
        </g>
    </g>
</svg>