<svg width="80%" height="80%" viewBox="0 0 128 128" xmlns="http://www.w3.org/2000/svg">
 <g id="1">
  <title>Bombshelter</title>
  <circle id="svg_6" r="64" cy="64" cx="64" fill="#999"/>
  <rect fill="#333" x="0" y="75" width="22" height="22" id="svg_10"/>
  <rect fill="#333" x="0" y="32" width="22" height="22" id="svg_9"/>
  <circle id="svg_8" r="52" cy="65.89844" cx="64" fill="#666"/>
  <circle fill="#999" cx="64" cy="64" r="22" id="svg_5"/>
  <g id="svg_1">
   <path id="svg_4" d="m35.17258,96.10081c0.74172,0.74147 1.71377,1.1122 2.68582,1.1122c0.97184,0 1.94452,-0.37094 2.68582,-1.1122l10.5564,-10.55256c4.30813,3.20175 9.64136,5.09968 15.41038,5.09968c5.79409,0 11.14965,-1.91316 15.46781,-5.14018l10.5967,10.59305c0.74172,0.74147 1.71377,1.1122 2.68582,1.1122c0.97205,0 1.94452,-0.37094 2.68582,-1.1122c1.48366,-1.48273 1.48366,-3.88707 0,-5.37021l-10.61278,-10.60913c3.17822,-4.29726 5.06155,-9.60631 5.06155,-15.34872c0,-5.76746 -1.89858,-11.09864 -5.10206,-15.40612l10.65329,-10.64941c1.48366,-1.48314 1.48366,-3.88707 0,-5.37021c-1.48324,-1.48273 -3.8882,-1.48273 -5.37206,0l-10.65329,10.64941c-4.30855,-3.20196 -9.64177,-5.09968 -15.41101,-5.09968c-5.74397,0 -11.05506,1.88248 -15.35338,5.05918l-10.6132,-10.60892c-1.48366,-1.48314 -3.88841,-1.48273 -5.37206,0c-1.48366,1.48314 -1.48366,3.88707 0,5.37021l10.5967,10.59264c-3.22812,4.31688 -5.14195,9.6706 -5.14195,15.46269c0,5.76704 1.89858,11.09843 5.10185,15.40571l-10.5564,10.55256c-1.48345,1.48294 -1.48345,3.88728 0.00021,5.37001l0.00002,0zm31.33864,-49.60925c10.08384,0 18.2879,8.20082 18.2879,18.28119c0,10.08016 -8.20385,18.28119 -18.2879,18.28119c-10.08363,0 -18.28727,-8.20082 -18.28727,-18.28119s8.20364,-18.28119 18.28727,-18.28119z" fill="#333"/>
   <circle id="svg_2" r="50" cy="64.84766" cx="63.58203" fill-opacity="0" stroke-width="6" stroke="#333333" fill="#333"/>
   <circle id="svg_3" r="62" cy="64.53125" cx="62.94922" fill-opacity="0" stroke-width="6" stroke="#333333" fill="#333"/>
  </g>
 </g>

</svg>