<svg width="100%" height="100%" viewBox="0 0 128 128" xmlns="http://www.w3.org/2000/svg">
 <g id="Bombshelter">
  <title>Bombshelter</title>
  <g>
   <path d="m124.672,100.997193l-6.97346,-65.776805c-0.163119,-1.537598 -1.57609,-2.710402 -3.264571,-2.710402l-101.020223,0c-1.681487,0 -3.090081,1.1628 -3.26282,2.692402l-7.434393,66.000005c-0.0949,0.844399 0.205977,1.686799 0.82784,2.317198s1.506559,0.990398 2.43498,0.990398l115.451685,0c0.002626,0 0.006119,0 0.008745,0c1.811805,0 3.279882,-1.3428 3.279882,-3.000003c0,-0.174799 -0.016177,-0.345998 -0.047664,-0.512801l0,0.000008l-0.000001,0zm-31.885215,-49.687202l-57.725847,0c-1.811805,0 -3.279882,-1.3428 -3.279882,-3.000003s1.468077,-3.000003 3.279882,-3.000003l57.725847,0c1.811805,0 3.279882,1.3428 3.279882,3.000003s-1.468077,3.000003 -3.279882,3.000003z" id="svg_3" fill="#333"/>
   <rect x="20" y="45" width="90" height="12" fill="#aaa"/>
  </g>
 </g>
</svg>