<svg width="100%" height="100%"  viewBox="0 0 128 128" xmlns="http://www.w3.org/2000/svg">
 <!-- Created with Method Draw - http://github.com/duopixel/Method-Draw/ -->
 <g>
  <title>background</title>
  <rect fill="none" id="canvas_background" height="130" width="130" y="-1" x="-1"/>
 </g>
 <g>
  <title>Bombshelter</title>
  <path fill="#142d21" id="svg_1" d="m129.96882,102.92384l-7.48781,-85.87527c-0.17515,-2.00742 -1.69234,-3.53858 -3.50536,-3.53858l-108.47129,0c-1.80551,0 -3.318,1.5181 -3.50348,3.51508l-7.98274,86.16667c-0.1019,1.10241 0.22117,2.20221 0.8889,3.02523s1.61768,1.29302 2.61458,1.29302l123.96719,0c0.00282,0 0.00657,0 0.00939,0c1.94544,0 3.5218,-1.7531 3.5218,-3.91667c0,-0.22821 -0.01737,-0.45172 -0.05118,-0.66949zm-34.23701,-64.8694l-61.9836,0c-1.94544,0 -3.5218,-1.7531 -3.5218,-3.91667s1.57636,-3.91667 3.5218,-3.91667l61.9836,0c1.94544,0 3.5218,1.7531 3.5218,3.91667s-1.57636,3.91667 -3.5218,3.91667z"/>
 </g>
</svg>