<svg width="100%" height="100%"  viewBox="0 0 128 128" xmlns="http://www.w3.org/2000/svg">
 <g>
  <title>boxing</title>
  <g id="svg_1">
   <path d="m121.48246,65.01703c0,-31.80937 -25.78581,-57.59574 -57.59518,-57.59574c-31.81048,0 -57.59657,25.78664 -57.59657,57.59574c0,31.80993 25.78609,57.59629 57.59657,57.59629c31.80965,0 57.59518,-25.78637 57.59518,-57.59629z" fill="#505B66" id="svg_2"/>
   <g id="svg_4">
    <g id="svg_5">
     <g id="svg_6">
      <path d="m86.48753,85.58485l15.89606,-6.89035c1.90749,-1.13114 4.14222,-2.18464 8.64786,-7.23874l7.47526,-4.11607c5.49764,-2.38305 9.31458,-5.78815 6.93153,-11.28524l-6.95046,-16.03519c-2.38305,-5.49709 -8.77058,-8.02205 -14.26794,-5.639l-5.79177,2.51077c-0.68369,-0.17503 -1.558,-0.38122 -2.68524,-0.62943c-2.84441,-0.62581 -4.84206,-1.30617 -7.6617,-0.57907l-17.38532,1.5925c-2.8202,0.7271 -4.51649,3.60295 -3.78883,6.42259c0.37148,1.44252 1.30672,2.58757 2.50715,3.26792c-5.30091,2.47654 -7.70566,8.72967 -5.3638,14.13243l9.46345,21.83113c2.38193,5.49709 7.47665,5.03879 12.97374,2.65574zm9.68272,-47.71545l-0.28077,0.12216c0.0039,-0.05537 0.10936,-0.09489 0.28077,-0.12216z" fill="#EA7053" id="svg_7"/>
      <path d="m129.88239,59.04912l-11.38708,-26.26776c-0.92495,-2.13344 -3.40399,-3.11321 -5.53744,-2.18826l-9.63486,4.17673l14.31664,33.02705l10.60183,-4.59579c1.59946,-0.69343 2.33435,-2.55251 1.64092,-4.15196z" fill="#F5ECE1" id="svg_8"/>
      <path d="m96.72289,70.77207l-9.00738,-20.77846c-0.77802,-1.79508 -2.86388,-2.61929 -4.65896,-1.84127l-4.65451,2.01769c-1.79508,0.77802 -2.61929,2.86388 -1.84127,4.65896l9.0071,20.77874c0.77802,1.79508 2.86416,2.61929 4.65924,1.84127l4.65479,-2.01796c1.7948,-0.7783 2.61929,-2.86416 1.84099,-4.65896z" fill="#F5ECE1" id="svg_9"/>
     </g>
    </g>
    <g id="svg_12">
     <g id="svg_13">
      <path d="m54.26021,82.92939l9.46345,-21.83113c2.34186,-5.40276 -0.06289,-11.65561 -5.3638,-14.13243c1.20015,-0.68035 2.13567,-1.82541 2.50715,-3.26792c0.72794,-2.81992 -0.96863,-5.69549 -3.78883,-6.42259l-17.38532,-1.5925c-2.81964,-0.7271 -4.81757,-0.04703 -7.6617,0.57907c-1.12752,0.24793 -2.00182,0.4544 -2.68524,0.62943l-5.79177,-2.51077c-5.49764,-2.38305 -11.8849,0.14191 -14.26794,5.639l-6.95101,16.03491c-2.38305,5.49709 1.43389,8.90219 6.93153,11.28524l7.47526,4.11607c4.50564,5.05437 6.74037,6.10788 8.64786,7.23874l15.89606,6.89035c5.49709,2.38305 10.59181,2.84134 12.9743,-2.65547zm-22.37625,-44.93783l-0.28077,-0.12216c0.17141,0.02727 0.27687,0.06678 0.28077,0.12216z" fill="#EA7053" id="svg_14"/>
      <path d="m-2.10894,59.04912l11.38708,-26.26776c0.92495,-2.13344 3.40399,-3.11321 5.53744,-2.18826l9.63486,4.17673l-14.31664,33.02705l-10.60183,-4.59579c-1.59973,-0.69343 -2.33435,-2.55251 -1.64092,-4.15196z" fill="#F5ECE1" id="svg_15"/>
      <path d="m31.05028,70.77207l9.00738,-20.77846c0.77802,-1.79508 2.86388,-2.61929 4.65896,-1.84127l4.65451,2.01769c1.79508,0.77802 2.61929,2.86388 1.84127,4.65896l-9.0071,20.77874c-0.77802,1.79508 -2.86416,2.61929 -4.65924,1.84127l-4.65479,-2.01796c-1.7948,-0.7783 -2.61901,-2.86416 -1.84099,-4.65896z" fill="#F5ECE1" id="svg_16"/>
     </g>
    </g>
   </g>
  </g>
 </g>
</svg>