<svg width="100%" height="100%"  viewBox="0 0 128 128" xmlns="http://www.w3.org/2000/svg">
 <g>
  <title>Bungalow</title>
  <circle id="svg_2" r="64" cy="64" cx="64" fill="#777"/>
  <rect id="svg_3" height="46" width="51" y="60.90625" x="38" fill="#b2b2b2"/>
  <g id="svg_1">
   <path fill="#333" d="m118.76528,63.22962l-50.68755,-58.83816c-2.76603,-3.21798 -7.21574,-3.18083 -9.92765,0.06859l-48.90466,58.70098c-2.71793,3.25513 -1.37099,5.89296 3.00054,5.89296l10.43877,0l0,42.23956c0,7.60198 6.48815,13.76644 14.48259,13.76644l53.71215,0c8.00045,0 14.48559,-6.16446 14.48559,-13.76644l0,-42.23956l10.48687,0c4.38055,0 5.67939,-2.60068 2.91335,-5.82437zm-41.15677,29.55626c0,3.81242 -3.24408,6.89036 -7.2428,6.89036l-19.91544,0l0,-18.9335c0,-3.79813 3.24107,-6.88179 7.2428,-6.88179l19.91544,0l0,18.92492z" id="svg_2"/>
  </g>
 </g>
</svg>