<svg width="100%" height="100%" viewBox="0 0 128 128" xmlns="http://www.w3.org/2000/svg">
  <g style="" transform="matrix(0.3367, 0, 0, 0.3367, -0.084176, -2.999496)">
        <rect x="190.38" y="189.061" style="fill: rgb(250, 228, 37);" width="37.94" height="20.63"/>
        <path style="fill: rgb(214, 167, 72);" d="M259.94,167.411v66.56H37.57v-66.56H259.94z M242.32,216.691v-34.63c0-3.86-3.14-7-7-7h-51.94 c-3.87,0-7,3.14-7,7v34.63c0,3.86,3.13,7,7,7h51.94C239.18,223.691,242.32,220.551,242.32,216.691z M138.44,216.691v-34.63 c0-3.86-3.13-7-7-7c-3.87,0-7,3.14-7,7v34.63c0,3.86,3.13,7,7,7C135.31,223.691,138.44,220.551,138.44,216.691z M103.82,216.691 v-34.63c0-3.86-3.14-7-7-7c-3.87,0-7,3.14-7,7v34.63c0,3.86,3.13,7,7,7C100.68,223.691,103.82,220.551,103.82,216.691z M69.19,216.691v-34.63c0-3.86-3.13-7-7-7s-7,3.14-7,7v34.63c0,3.86,3.13,7,7,7S69.19,220.551,69.19,216.691z"/>
        <rect x="72.19" y="253.971" style="fill:#D5C295;" width="31.94" height="14.62"/>
        <polygon style="fill: rgb(132, 124, 105);" points="277.25,127.781 277.25,147.411 20.25,147.411 20.25,127.781 148.75,31.411 &#9;&#9;&#9;"/>
        <path d="M297.25,243.971v34.62c0,5.53-4.47,10-10,10c-5.52,0-10-4.47-10-10v-24.62H124.13v24.62c0,5.53-4.48,10-10,10H62.19 c-5.52,0-10-4.47-10-10v-24.62H20.25v24.62c0,5.53-4.47,10-10,10c-5.52,0-10-4.47-10-10v-34.62c0-5.52,4.48-10,10-10h7.32v-66.56 h-7.32c-5.52,0-10-4.48-10-10v-34.63c0-3.15,1.49-6.11,4-8l138.5-103.87c3.56-2.67,8.45-2.67,12,0l138.5,103.87 c2.52,1.89,4,4.85,4,8v34.63c0,5.52-4.47,10-10,10h-7.31v66.56h7.31C292.78,233.971,297.25,238.451,297.25,243.971z M277.25,147.411v-19.63l-128.5-96.37l-128.5,96.37v19.63H277.25z M259.94,233.971v-66.56H37.57v66.56H259.94z M104.13,268.591 v-14.62H72.19v14.62H104.13z"/>
        <path d="M242.32,182.061v34.63c0,3.86-3.14,7-7,7h-51.94c-3.87,0-7-3.14-7-7v-34.63c0-3.86,3.13-7,7-7h51.94 C239.18,175.061,242.32,178.201,242.32,182.061z M228.32,209.691v-20.63h-37.94v20.63H228.32z"/>
        <path d="M138.44,182.061v34.63c0,3.86-3.13,7-7,7c-3.87,0-7-3.14-7-7v-34.63c0-3.86,3.13-7,7-7 C135.31,175.061,138.44,178.201,138.44,182.061z"/>
        <path d="M103.82,182.061v34.63c0,3.86-3.14,7-7,7c-3.87,0-7-3.14-7-7v-34.63c0-3.86,3.13-7,7-7 C100.68,175.061,103.82,178.201,103.82,182.061z"/>
        <path d="M69.19,182.061v34.63c0,3.86-3.13,7-7,7s-7-3.14-7-7v-34.63c0-3.86,3.13-7,7-7S69.19,178.201,69.19,182.061z"/>
  </g>
</svg>