<svg width="100%" height="100%"  viewBox="0 0 128 128" xmlns="http://www.w3.org/2000/svg">
 <g>
  <title>Bungalow</title>
  <rect id="svg_4" height="43.875" width="92.25" y="67.1875" x="16.46875" fill="#777"/>
  <path d="m108.48418,42.88659l0,-12.32056l-15.15902,0l0,7.11233c-10.05697,-3.63239 -20.36077,-7.11233 -30.31827,-7.11233c-10.81042,0 -22.04279,4.0858 -32.90896,8.03489c-9.62993,3.50493 -19.58927,7.12436 -27.72757,7.12436l0,15.15902c10.81042,0 22.04279,-4.0858 32.90896,-8.03489c9.62993,-3.50469 19.58904,-7.12436 27.72757,-7.12436s18.09764,3.61944 27.72757,7.12436c10.86594,3.94885 22.09831,8.03489 32.90896,8.03489l0,-15.15902c-4.59543,0 -9.78955,-1.20293 -15.15925,-2.83869z" id="svg_1" fill="#725d4a"/>
  <path d="m116.06381,106.36181l0,-38.51694c-9.49946,-1.27303 -18.8194,-4.56512 -27.88672,-7.86c-9.04142,-3.29025 -18.35303,-6.6802 -25.17018,-6.6802s-16.12876,3.39018 -25.13687,6.6691c-9.0937,3.30367 -18.41966,6.59738 -27.92004,7.8711l0,38.51671c-4.1862,0 -7.57962,3.39342 -7.57962,7.57962l0,7.57962l121.27283,0l0,-7.57962c0,-4.1862 -3.39319,-7.57962 -7.57939,-7.57939zm-30.31827,-30.31827c0,-4.1862 3.39342,-7.57962 7.57962,-7.57962s7.57962,3.39342 7.57962,7.57962l0,7.57962l-15.15902,0l0,-7.57962l-0.00023,0zm-60.63653,0c0,-4.1862 3.39342,-7.57962 7.57962,-7.57962s7.57962,3.39342 7.57962,7.57962l0,7.57962l-15.15925,0l0,-7.57962zm22.73864,30.31827l0,-7.57962c0,-8.36037 6.79864,-15.15902 15.15902,-15.15902s15.15902,6.79864 15.15902,15.15902l0,7.57962l-30.31803,0z" id="svg_2" fill="#725d4a"/>
 </g>
</svg>