<svg width="100%" height="100%" viewBox="0 0 102 102" xmlns="http://www.w3.org/2000/svg">
 <g id="1">
  <title>SC_Bunker</title>
  <circle id="svg_6" r="46" cy="51" cx="51" fill="#999"/>
  <rect fill="#333" x="0.23731" y="59.08505" width="17.72267" height="17" id="svg_10"/>
  <rect fill="#333" x="0.23731" y="25.88989" width="17.72267" height="17" id="svg_9"/>
  <circle id="svg_8" r="37" cy="51" cx="52" fill="#666"/>
  <circle fill="#999" cx="51.79417" cy="51" r="13" id="svg_5"/>
  <g id="svg_1" stroke="#333" stroke-width="4">
   <path fill="#333" id="svg_4" d="m26.43575,75.61176c0.59751,0.5724 1.38057,0.8586 2.16363,0.8586c0.78289,0 1.56646,-0.28636 2.16363,-0.8586l8.50398,-8.14637c3.47053,2.47169 7.76685,3.93685 12.41423,3.93685c4.66758,0 8.98189,-1.47692 12.4605,-3.96812l8.53645,8.17763c0.59751,0.5724 1.38057,0.8586 2.16363,0.8586c0.78306,0 1.56646,-0.28636 2.16363,-0.8586c1.1952,-1.14464 1.1952,-3.00074 0,-4.1457l-8.5494,-8.19004c2.5603,-3.3174 4.07746,-7.41588 4.07746,-11.84891c0,-4.45237 -1.52945,-8.56793 -4.1101,-11.89322l8.58204,-8.22113c1.1952,-1.14495 1.1952,-3.00074 0,-4.1457c-1.19486,-1.14464 -3.13224,-1.14464 -4.3276,0l-8.58204,8.22113c-3.47086,-2.47185 -7.76718,-3.93685 -12.41474,-3.93685c-4.6272,0 -8.90569,1.45324 -12.36832,3.90559l-8.54974,-8.18988c-1.1952,-1.14495 -3.13241,-1.14464 -4.3276,0c-1.1952,1.14495 -1.1952,3.00074 0,4.1457l8.53645,8.17731c-2.6005,3.33255 -4.14223,7.46551 -4.14223,11.93689c0,4.45204 1.52945,8.56777 4.10993,11.8929l-8.50398,8.14637c-1.19503,1.1448 -1.19503,3.0009 0.00017,4.14554l0.00002,0l0,0.00001zm25.24566,-38.29736c8.1233,0 14.73229,6.33087 14.73229,14.11272c0,7.78168 -6.60883,14.11272 -14.73229,14.11272c-8.12313,0 -14.73179,-6.33087 -14.73179,-14.11272s6.60866,-14.11272 14.73179,-14.11272z"/>
   <circle fill-opacity="0" id="svg_2" r="38.5084" cy="51.24764" cx="51.69477"/>
   <circle fill-opacity="0" id="svg_3" r="47.75042" cy="51.00338" cx="50.94769"/>
  </g>
 </g>
</svg>