<svg width="100%" height="100%"  viewBox="0 0 102 102" xmlns="http://www.w3.org/2000/svg">
 <g>
  <title>Business house</title>
  <rect rx="16" ry="16" id="svg_3" height="102" width="102" y="0" x="0" fill="#4C797E"/>
  <g id="svg_1">
   <path id="svg_2" fill="#444" d="m98.35902,49.55565l-5.29773,7.28322l-42.38171,-39.44146l-42.38185,39.44146l-5.29773,-7.28322l47.67958,-44.37165l47.67944,44.37165zm-47.67944,-23.06822l30.77002,28.72205l-0.00481,27.10667l0,8.26413l0,1.59671l-34.54665,0l0,-33.93282l0.0055,0l0,-2.99577l-18.39902,0l0,0.23203c0,0.98028 0,1.88944 0,2.76374c0,1.62441 0,3.12696 0,4.72942l0,3.57158l0,6.97509l0,18.65626l-8.59025,0l0,-1.7086l0,-8.15177l0,-27.10185l30.76521,-28.72688l-0.00001,0.00001zm4.88858,48.20359l17.23743,0l0,-19.50504l-17.23743,0l0,19.50504z"/>  </g>
 </g>
</svg>