<svg width="100%" height="100%" xmlns="http://www.w3.org/2000/svg" viewBox="0 0 128 128">
 <g>
  <title>Cabin</title>
  <g id="svg_1">
   <polygon id="svg_2" fill="#594F3C" points="63.50047302246094,23.525423049926758 15.707024574279785,56.88983154296875 15.707024574279785,123.61864471435547 109.12149810791016,123.61864471435547 109.12149810791016,55.813560485839844 "/>
   <path id="svg_3" fill="#6D5D4B" d="m110.20771,85.94915l-93.41447,0c-3.00013,0 -5.43107,-2.40869 -5.43107,-5.38136l0,0c0,-2.97266 2.43095,-5.38136 5.43107,-5.38136l93.41447,0c3.00013,0 5.43107,2.40869 5.43107,5.38136l0,0c0,2.97266 -2.43095,5.38136 -5.43107,5.38136z"/>
   <path id="svg_4" fill="#6D5D4B" d="m110.20771,61.03563l-93.41447,0c-3.00013,0 -5.43107,-2.40869 -5.43107,-5.38136l0,0c0,-2.97266 2.43095,-5.38136 5.43107,-5.38136l93.41447,0c3.00013,0 5.43107,2.40869 5.43107,5.38136l0,0c0,2.97266 -2.43095,5.38136 -5.43107,5.38136z"/>
   <g id="svg_5">
    <path id="svg_6" fill="#6D5D4B" d="m16.79324,118.23729c-3.00013,0 -5.43107,2.40869 -5.43107,5.38136s2.43095,5.38136 5.43107,5.38136l33.67266,0l0,-10.76271l-33.67266,0z"/>
    <path id="svg_7" fill="#6D5D4B" d="m110.20771,118.23729l-33.67266,0l0,10.76271l33.67266,0c3.00013,0 5.43107,-2.40869 5.43107,-5.38136s-2.43095,-5.38136 -5.43107,-5.38136z"/>
   </g>
   <g id="svg_8">
    <path id="svg_9" fill="#6D5D4B" d="m50.4659,96.71186l-33.67266,0c-3.00013,0 -5.43107,2.40869 -5.43107,5.38136s2.43095,5.38136 5.43107,5.38136l33.67266,0l0,-10.76271z"/>
    <path id="svg_10" fill="#6D5D4B" d="m110.20771,96.71186l-33.67266,0l0,10.76271l33.67266,0c3.00013,0 5.43107,-2.40869 5.43107,-5.38136s-2.43095,-5.38136 -5.43107,-5.38136z"/>
   </g>
   <path id="svg_11" fill="#5B4E40" d="m115.88861,69.6953l-52.4859,-37.94717l-52.41204,36.00988c-2.8524,2.17407 -6.94526,1.64454 -9.13941,-1.18175l0,0c-2.19415,-2.82629 -1.65974,-6.88168 1.19266,-9.05575l60.5543,-42.21781l60.47827,44.34453c2.80026,2.2408 3.23692,6.30695 0.97542,9.08158l0,0c-2.2615,2.77463 -6.36522,3.20729 -9.16331,0.96649z"/>
   <polygon id="svg_12" fill="#6D5D4B" points="111.2939224243164,50.27291488647461 111.2939224243164,29.983051300048828 98.25934600830078,29.983051300048828 98.25934600830078,40.71562576293945 "/>
   <rect id="svg_13" fill="#444" height="43.05085" width="26.06915" y="85.94915" x="50.4659"/>
   <circle id="svg_14" fill="#777" r="2.15254" cy="107.47458" cx="56.98319"/>
   <rect stroke="#6B5B4B" id="svg_15" fill="#999" stroke-width="2" stroke-miterlimit="10" height="21.52542" width="21.7243" y="53.66102" x="52.63833"/>
   <polygon id="svg_16" fill="#6B5B4B" points="74.36262512207031,62.27118682861328 65.67290496826172,62.27118682861328 65.67290496826172,53.66101837158203 61.32804489135742,53.66101837158203 61.32804489135742,62.27118682861328 52.638328552246094,62.27118682861328 52.638328552246094,66.5762710571289 61.32804489135742,66.5762710571289 61.32804489135742,75.18643951416016 65.67290496826172,75.18643951416016 65.67290496826172,66.5762710571289 74.36262512207031,66.5762710571289 "/>
   <path id="svg_17" fill="#333" d="m100.43178,25.67797c-0.56483,0 -1.13184,-0.23678 -1.54242,-0.62424c-0.39321,-0.40898 -0.63,-0.96864 -0.63,-1.52831s0.23679,-1.12147 0.63,-1.52831c0.8038,-0.79644 2.28105,-0.79644 3.08485,0c0.39104,0.40683 0.63,0.96864 0.63,1.52831s-0.23897,1.11932 -0.63,1.52831c-0.41276,0.38746 -0.97759,0.62424 -1.54242,0.62424z"/>
   <path id="svg_18" fill="#333" d="m109.1215,25.67797c-1.20135,0 -2.17243,-0.96219 -2.17243,-2.15254l0,-8.61017c0,-1.19036 0.97108,-2.15254 2.17243,-2.15254s2.17243,0.96219 2.17243,2.15254l0,8.61017c0,1.19036 -0.97108,2.15254 -2.17243,2.15254z"/>
   <path id="svg_19" fill="#333" d="m109.1215,10.61017c-1.20135,0 -2.17243,-0.96219 -2.17243,-2.15254l0,-4.30508c0,-1.19036 0.97108,-2.15254 2.17243,-2.15254s2.17243,0.96219 2.17243,2.15254l0,4.30508c0,1.19036 -0.97108,2.15254 -2.17243,2.15254z"/>
   <path id="svg_20" fill="#333" d="m100.43178,19.22034c-1.20135,0 -2.17243,-0.96219 -2.17243,-2.15254l0,-4.30508c0,-1.19036 0.97108,-2.15254 2.17243,-2.15254s2.17243,0.96219 2.17243,2.15254l0,4.30508c0,1.19036 -0.97108,2.15254 -2.17243,2.15254z"/>
   <path id="svg_21" fill="#333" d="m100.43178,8.45763c-1.20135,0 -2.17243,-0.96219 -2.17243,-2.15254l0,-2.15254c0,-1.19036 0.97108,-2.15254 2.17243,-2.15254s2.17243,0.96219 2.17243,2.15254l0,2.15254c0,1.19036 -0.97108,2.15254 -2.17243,2.15254z"/>
  </g>
 </g>
</svg>
