<svg width="80%" height="80%"  viewBox="0 0 128 128" xmlns="http://www.w3.org/2000/svg">
 <g>
  <title>Carlot</title>
     <path id="svg_3" d="m16,62.90625c0,0 18,-38 18,-38c0,0 62,0 62,-0.90625c0,-0.90625 19,39.90625 19,39c0,-0.90625 -99,-0.09375 -99,-0.09375z" stroke-linecap="null" stroke-linejoin="null" stroke-dasharray="null" stroke-width="null" fill="#b2b2b2"/>
     <rect fill="#cece94" x="12" y="68" width="100" height="32" id="svg_2"/>
     <path fill="#222" id="svg_1" d="m120.15739,43.57217c-0.83996,0 -1.70455,0.12875 -2.56991,0.38296l-3.25512,0.95535l-4.79568,-12.4425c-2.68848,-6.97528 -10.63535,-12.64997 -17.71531,-12.64997l-52.63472,0c-7.0792,0 -15.02683,5.67551 -17.71454,12.65079l-4.78721,12.41954l-3.17736,-0.93239c-0.86536,-0.25421 -1.72996,-0.38296 -2.56991,-0.38296c-4.22288,0 -7.28861,3.22687 -7.28861,7.67232c0,4.38887 3.00721,8.08398 7.08305,9.1935c-2.23501,6.57428 -3.97189,16.42873 -3.97189,22.90296l0,26.47671c0,5.65255 4.31681,10.25053 9.6237,10.25053l3.52843,0c5.30689,0 9.6237,-4.59798 9.6237,-10.25053l0,-4.95306l71.93525,0l0,4.95306c0,5.65255 4.31681,10.25053 9.6237,10.25053l3.52997,0c5.30689,0 9.6237,-4.59798 9.6237,-10.25053l0,-26.47671c0,-6.46767 -1.73381,-16.309 -3.96497,-22.88328c4.11587,-1.08246 7.16234,-4.79725 7.16234,-9.21318c-0.00077,-4.44627 -3.06573,-7.67314 -7.28861,-7.67314zm-97.48965,10.33171l7.82292,-20.29933c1.60831,-4.17238 6.3886,-7.58621 10.62303,-7.58621l48.78293,0c4.23443,0 9.01471,3.41384 10.62303,7.58621l7.82292,20.29933c1.60831,4.17238 -0.54047,7.58621 -4.7749,7.58621l-76.12503,0c-4.23443,0 -6.38321,-3.41384 -4.7749,-7.58621zm20.741,33.00753c0,2.25512 -1.73227,4.10021 -3.84948,4.10021l-15.96611,0c-2.11721,0 -3.84948,-1.8451 -3.84948,-4.10021l0,-6.78257c0,-2.25512 1.73227,-4.10021 3.84948,-4.10021l15.96611,0c2.11721,0 3.84948,1.8451 3.84948,4.10021l0,6.78257zm67.68235,0c0,2.25512 -1.73227,4.10021 -3.84948,4.10021l-15.96457,0c-2.11721,0 -3.84948,-1.8451 -3.84948,-4.10021l0,-6.78257c0,-2.25512 1.73227,-4.10021 3.84948,-4.10021l15.96457,0c2.11721,0 3.84948,1.8451 3.84948,4.10021l0,6.78257z"/>
 </g>
</svg>