<svg width="100%" height="100%"  viewBox="0 0 128 128" xmlns="http://www.w3.org/2000/svg">
 <g>
  <title>Casino</title>
  <ellipse fill="#ffffaa" cx="63.53378" cy="63.98637" id="svg_20" rx="62.96762" ry="62.96762"/>
  <g id="svg_1" fill="#333">
   <path d="m63.53378,0c-35.03244,0 -63.53378,28.50133 -63.53378,63.53378s28.50133,63.53378 63.53323,63.53378c35.03244,0 63.53378,-28.50133 63.53378,-63.53378s-28.50079,-63.53378 -63.53323,-63.53378zm-5.11023,4.94652l9.8558,0l0,9.8558l-9.8558,0l0,-9.8558zm49.48105,58.58726c0,24.46648 -19.90488,44.37081 -44.37081,44.37081c-24.46593,0 -44.37027,-19.90488 -44.37027,-44.37081s19.90488,-44.37081 44.37027,-44.37081c24.46593,0 44.37081,19.90488 44.37081,44.37081zm-82.31346,-44.91179l6.96915,6.96915l-6.96915,6.96915l-6.96915,-6.96915l6.96915,-6.96915zm-10.97115,49.83969l-9.8558,0l0,-9.8558l9.8558,0l0,9.8558zm10.97115,39.98444l-6.96915,-6.96915l6.96915,-6.96915l6.96915,6.96915l-6.96915,6.96915zm42.68821,13.67492l-9.8558,0l0,-9.8558l9.8558,0l0,9.8558zm33.19707,-13.67492l-6.96915,-6.96915l6.96915,-6.96915l6.96915,6.96915l-6.96915,6.96915zm0,-75.88583l-6.96915,-6.96915l6.96915,-6.96915l6.96915,6.96915l-6.96915,6.96915zm10.60648,35.9014l0,-9.8558l9.8558,0l0,9.8558l-9.8558,0z" id="svg_2"/>
   <rect x="70.46952" y="50.94025" width="6.57053" height="23.18705" id="svg_3"/>
   <path d="m27.37668,63.53378c0,19.93719 16.21991,36.15765 36.1571,36.15765s36.15765,-16.22046 36.15765,-36.15765s-16.22046,-36.15765 -36.15765,-36.15765s-36.1571,16.22046 -36.1571,36.15765zm33.78459,-12.59352l-10.98265,0l-0.32962,7.66562l8.36867,0c2.07957,0 2.94305,1.10221 2.94305,3.18069l0,15.79337c0,2.09545 -0.86348,2.92717 -2.94305,2.92717l-10.3015,0c-2.03577,0 -3.18123,-0.83227 -3.18123,-2.92717l0,-8.02372l4.9279,0l0,6.57053l6.57053,0l0,-13.14107l-11.37086,0l0.54919,-16.42633l15.74957,0l0,4.3809zm3.83281,-1.43128c0,-2.10859 1.38036,-2.94907 3.45993,-2.94907l10.65357,0c2.06534,0 2.86037,0.84048 2.86037,2.94907l0,28.07151c0,2.09545 -0.79558,2.92717 -2.86037,2.92717l-10.71928,0c-2.03522,0 -3.39368,-0.83227 -3.39368,-2.92717l0,-28.07151l-0.00055,0z" id="svg_4"/>
  </g>
 </g>
</svg>