<svg width="100%" height="100%"  viewBox="0 0 128 128" xmlns="http://www.w3.org/2000/svg">
 <g>
  <title>castle</title>
  <g id="svg_1">
   <path fill="#3f3f3f" d="m46.26829,35.11436l38.51007,0c0.52527,0 1.00933,-0.27555 1.24768,-0.71182c0.23758,-0.43627 0.18874,-0.95843 -0.12744,-1.3514l-19.24906,-24.0461c-0.26709,-0.32826 -0.6812,-0.52357 -1.12431,-0.52357c-0.44285,0 -0.86154,0.19531 -1.12405,0.52357l-19.25313,24.0461c-0.31618,0.39297 -0.36527,0.91513 -0.12769,1.3514c0.23834,0.43627 0.72291,0.71182 1.24793,0.71182z" id="svg_2"/>
   <path fill="#3f3f3f" d="m124.24663,51.83189c-0.00051,-1.03067 -0.90377,-1.86603 -2.0179,-1.86603l-3.8781,0c-1.10421,0 -2.0034,0.821 -2.0179,1.84273l-0.05596,4.01278l-4.74397,0l0,-3.98878c0,-1.0309 -0.90352,-1.86673 -2.0179,-1.86673l-3.93711,0c-1.11439,0 -2.0179,0.83583 -2.0179,1.86673l0,3.98878l-4.73532,0l0,-3.98878c0,-1.0309 -0.90352,-1.86673 -2.0179,-1.86673l-3.94322,0c-1.11362,0 -2.01689,0.83465 -2.0179,1.86485l-0.01882,17.09779l-9.29817,0l0,-28.75423c0,-0.77983 -0.6812,-1.41046 -1.52239,-1.41046l-28.95753,0c-0.84094,0 -1.52214,0.63064 -1.52214,1.41046l0,28.75446l-9.22034,0l0.01119,-17.09473c0.00025,-0.4951 -0.21214,-0.97043 -0.59039,-1.32057c-0.3785,-0.35014 -0.89207,-0.5471 -1.42726,-0.5471l-4.02232,0c-1.11439,0 -2.0179,0.83583 -2.0179,1.86673l0,3.98878l-4.73583,0l0,-3.98878c0,-1.0309 -0.90352,-1.86673 -2.0179,-1.86673l-3.93686,0c-1.11439,0 -2.0179,0.83583 -2.0179,1.86673l0,3.98878l-4.74371,0l0,-3.98878c0,-1.0309 -0.90352,-1.86673 -2.0179,-1.86673l-3.93915,0c-1.11362,0 -2.01689,0.83465 -2.0179,1.86485l-0.07631,71.52342l43.66052,0l0,-12.05811c0,-7.71542 6.76238,-13.96932 15.10057,-13.96932c8.33793,0 15.10057,6.2539 15.10057,13.96932l0,12.05787l43.66052,0l-0.03154,-71.52248zm-95.36898,30.96593c0,0.78006 -0.68145,1.41023 -1.52265,1.41023l-7.63232,0c-0.84094,0 -1.52188,-0.63017 -1.52188,-1.41023l0,-14.07168c0,-2.72727 2.38801,-4.9385 5.33817,-4.9385c2.94635,0 5.33868,2.21147 5.33868,4.9385l0,14.07168zm41.98626,-19.35397c0,0.77983 -0.68145,1.41023 -1.52239,1.41023l-7.63232,0c-0.84145,0 -1.52214,-0.6304 -1.52214,-1.41023l0,-14.07191c0,-2.72751 2.38801,-4.93874 5.33817,-4.93874c2.94635,0 5.33868,2.21123 5.33868,4.93874l0,14.07191zm42.02747,19.35397c0,0.78006 -0.68171,1.41023 -1.52239,1.41023l-7.63232,0c-0.84145,0 -1.5229,-0.63017 -1.5229,-1.41023l0,-14.07168c0,-2.72727 2.38852,-4.9385 5.33893,-4.9385c2.94635,0 5.33868,2.21147 5.33868,4.9385l0,14.07168z" id="svg_3"/>
  </g>
 </g>
</svg>