<svg width="100%" height="100%"  viewBox="0 0 128 128" xmlns="http://www.w3.org/2000/svg">
 <g>
  <title>Cave</title>
  <g id="svg_1">
   <polygon id="svg_2" fill="#999" points="49.70536422729492,92.23271179199219 51.32408142089844,101.16421508789062 36.008338928222656,101.16421508789062 37.624412536621094,92.23271179199219 43.808807373046875,92.23271179199219 "/>
   <polygon id="svg_3" fill="#999" points="90.70401763916016,95.62052154541016 91.7101058959961,101.16421508789062 82.20378875732422,101.16421508789062 83.20722961425781,95.62052154541016 86.85659790039062,95.62052154541016 "/>
   <polygon id="svg_4" fill="#333" points="84.88668060302734,83.60301971435547 86.85659790039062,95.62052154541016 83.20722961425781,95.62052154541016 82.20378875732422,101.16421508789062 51.32408142089844,101.16421508789062 49.70536422729492,92.23271179199219 43.808807373046875,92.23271179199219 45.22418975830078,83.60301971435547 52.78171920776367,79.59615325927734 57.181034088134766,67.84044647216797 72.3568115234375,67.84044647216797 77.71996307373047,79.1341781616211 "/>
   <polygon id="svg_5" fill="#B09458" points="51.06001281738281,30.32809066772461 55.04474639892578,22.816383361816406 76.56336975097656,18.8280029296875 79.3149185180664,30.32809066772461 83.30493927001953,30.32809066772461 87.99208068847656,51.88691711425781 96.830322265625,51.88691711425781 103.08071899414062,75.90959930419922 111.8133316040039,75.90959930419922 118.45191192626953,101.16421508789062 91.7101058959961,101.16421508789062 90.70401763916016,95.62052154541016 86.85659790039062,95.62052154541016 84.88668060302734,83.60301971435547 77.71996307373047,79.1341781616211 72.3568115234375,67.84044647216797 57.181034088134766,67.84044647216797 52.78171920776367,79.59615325927734 45.22418975830078,83.60301971435547 43.808807373046875,92.23271179199219 37.624412536621094,92.23271179199219 36.008338928222656,101.16421508789062 7.544826984405518,101.16421508789062 14.1834077835083,75.90959930419922 26.288124084472656,75.90959930419922 32.53853225708008,51.88691711425781 38.004669189453125,51.88691711425781 42.69181442260742,30.32809066772461 "/>
   <polygon id="svg_6" fill="#444" points="38.00493240356445,51.888145446777344 49.47562789916992,51.888145446777344 38.86604690551758,47.925331115722656 "/>
   <polygon id="svg_7" fill="#444" points="26.288124084472656,75.90959930419922 23.979936599731445,84.78999328613281 22.80511474609375,75.90959930419922 "/>
   <polygon id="svg_8" fill="#444" points="87.99102783203125,51.888145446777344 89.95645904541016,60.93022155761719 90.75788879394531,51.88691711425781 "/>
   <polygon id="svg_9" fill="#444" points="103.0799331665039,75.91082763671875 85.38839721679688,75.91082763671875 102.12110900878906,72.22150421142578 "/>
   <polygon id="svg_10" fill="#444" points="61.12008285522461,51.888145446777344 71.68266296386719,51.888145446777344 63.647178649902344,49.40272521972656 "/>
   <polygon id="svg_11" fill="#444" points="79.42872619628906,30.32931900024414 58.65556716918945,30.32931900024414 74.45877838134766,27.84389877319336 "/>
   <polygon id="svg_12" fill="#999" points="41.465763092041016,92.23271179199219 42.52201843261719,101.16421508789062 36.008338928222656,101.16421508789062 37.624412536621094,92.23271179199219 "/>
   <path id="svg_13" fill="#444" d="m123.99701,105.168l-121.99701,0l0,0c0,-2.21132 1.61,-4.00378 3.59629,-4.00378l114.80442,0c1.98603,0 3.59629,1.79277 3.59629,4.00378l0,0z"/>
  </g>
 </g>
</svg>