<svg width="100%" height="100%"  viewBox="0 0 128 128" xmlns="http://www.w3.org/2000/svg">
 <g transform="translate(90,-180)">
  <title>Cave</title>
  <ellipse stroke="#000" ry="63.385249" rx="63.180331" id="svg_6" cy="64.122946" cx="63.540987" stroke-width="1.5" fill="#000000"/>
  <path id="svg_16" d="m-155.126651,40.380644c-0.085156,-0.078934 -0.146193,-0.329747 -0.132322,-0.543735c0.008747,-0.134936 0.193282,-0.954091 0.209398,-0.929521c0.00526,0.008019 0.052067,0.198999 0.104016,0.424399c0.083217,0.361067 0.094452,0.428395 0.094452,0.565983c0,0.278886 -0.090479,0.507325 -0.199117,0.502728c-0.031702,-0.001342 -0.066095,-0.010276 -0.076428,-0.019854l0,0zm0.085317,-0.140269c0.002819,-0.036106 -0.003766,-0.053714 -0.020085,-0.053714c-0.037195,0 -0.08879,-0.116208 -0.100317,-0.225944c-0.012296,-0.117059 -0.044899,-0.130981 -0.049715,-0.021229c-0.009278,0.211453 0.154486,0.501104 0.170117,0.300888l0,0z" fill-opacity="null" stroke-opacity="null" stroke-width="1.5" stroke="#000" fill="#00aeff"/>
  <path stroke="#000" id="svg_25" d="m34.1307,64.367915l29.713113,-51.229507l29.713113,51.229507l-29.713113,51.229507l-29.713113,-51.229507z" stroke-opacity="null" stroke-width="1.5" fill="#f9e46b"/>
 </g>
</svg>