<?xml version="1.0" encoding="utf-8"?>
<svg width="100%" height="100%" viewBox="0 0 128 128" xmlns="http://www.w3.org/2000/svg">
  <g id="GraveStone" transform="matrix(0.67209, 0, 0, 0.67209, -14.990209, 38.160004)" style="">
    <title>Cemetery</title>
    <g id="svg_2">
      <path id="svg_3" fill="#333" d="m33.381399,127.896986l-0.264905,-48.839568l-0.002025,0.921539c-1.427127,-46.016539 15.034819,-49.840612 33.905488,-49.938685c18.870672,-0.098073 34.760916,6.636152 34.907219,33.609504l-0.20904,63.892057l-68.336738,0.355153l-0.000001,0z"/>
      <rect id="svg_4" fill="#888" height="6.757097" width="46.59531" y="54.500568" x="44.203135"/>
      <rect id="svg_5" fill="#888" height="6.757097" width="46.59531" y="71.39331" x="44.203135"/>
    </g>
  </g>
  <g id="g-1" transform="matrix(0.45113, 0, 0, 0.45113, 26.692415, -9.054175)" style="">
    <title>Cemetery</title>
    <g id="g-2">
      <path id="path-1" fill="#333" d="m33.381399,127.896986l-0.264905,-48.839568l-0.002025,0.921539c-1.427127,-46.016539 15.034819,-49.840612 33.905488,-49.938685c18.870672,-0.098073 34.760916,6.636152 34.907219,33.609504l-0.20904,63.892057l-68.336738,0.355153l-0.000001,0z"/>
      <rect id="rect-1" fill="#888" height="6.757097" width="46.59531" y="54.500568" x="44.203135"/>
      <rect id="rect-2" fill="#888" height="6.757097" width="46.59531" y="71.39331" x="44.203135"/>
    </g>
  </g>
  <g id="g-3" transform="matrix(0.545238, 0, 0, 0.545238, 62.26701, 25.501005)" style="">
    <title>Cemetery</title>
    <g id="g-4">
      <path id="path-2" fill="#333" d="m33.381399,127.896986l-0.264905,-48.839568l-0.002025,0.921539c-1.427127,-46.016539 15.034819,-49.840612 33.905488,-49.938685c18.870672,-0.098073 34.760916,6.636152 34.907219,33.609504l-0.20904,63.892057l-68.336738,0.355153l-0.000001,0z"/>
      <rect id="rect-3" fill="#888" height="6.757097" width="46.59531" y="54.500568" x="44.203135"/>
      <rect id="rect-4" fill="#888" height="6.757097" width="46.59531" y="71.39331" x="44.203135"/>
    </g>
  </g>
</svg>