<svg width="100%" height="100%"  viewBox="0 0 128 128" xmlns="http://www.w3.org/2000/svg">
<g>
	<g>
		<path d="M490.667,448H480v-53.333c0-37.504-27.904-68.352-64-73.579V160C416,71.765,344.235,0,256,0S96,71.765,96,160v161.088
			c-36.096,5.227-64,36.075-64,73.579V448H21.333c-5.888,0-10.667,4.779-10.667,10.667v42.667c0,5.888,4.779,10.667,10.667,10.667
			h469.333c5.888,0,10.667-4.779,10.667-10.667v-42.667C501.333,452.779,496.555,448,490.667,448z M96,448H53.333v-53.333
			c0-25.771,18.347-47.296,42.667-52.267V448z M298.667,298.667h-85.333c-5.888,0-10.667-4.779-10.667-10.667
			s4.779-10.667,10.667-10.667h85.333c5.888,0,10.667,4.779,10.667,10.667S304.555,298.667,298.667,298.667z M320,234.667H192
			c-5.888,0-10.667-4.779-10.667-10.667s4.779-10.667,10.667-10.667h128c5.888,0,10.667,4.779,10.667,10.667
			S325.888,234.667,320,234.667z M320,170.667H192c-5.888,0-10.667-4.779-10.667-10.667s4.779-10.667,10.667-10.667h128
			c5.888,0,10.667,4.779,10.667,10.667S325.888,170.667,320,170.667z M458.667,448H416V342.4
			c24.32,4.971,42.667,26.496,42.667,52.267V448z"/>
	</g>
</g>
<g>
</g>
<g>
</g>
<g>
</g>
<g>
</g>
<g>
</g>
<g>
</g>
<g>
</g>
<g>
</g>
<g>
</g>
<g>
</g>
<g>
</g>
<g>
</g>
<g>
</g>
<g>
</g>
<g>
</g>
</svg>
