<svg width="100%" height="100%"  viewBox="0 0 128 128" xmlns="http://www.w3.org/2000/svg">
 <g>
  <title>chernobyl</title>
  <circle cx="63.85879" cy="63.8598" r="62.3363" fill="#fcbb29" id="svg_1"/>
  <g id="svg_5">
   <circle cx="63.85877" cy="63.4081" r="9.35179" fill="#3f3f3f" id="svg_6"/>
   <path d="m71.84376,77.23822l19.26821,33.37365c-8.0171,4.63888 -17.32459,7.2946 -27.2529,7.2946s-19.2358,-2.65631 -27.2529,-7.2946l19.26613,-33.37009c4.87793,2.81597 10.99244,2.87841 15.97146,-0.00357z" fill="#3f3f3f" id="svg_7"/>
   <path d="m47.8891,63.4084l-38.53613,0c-0.00862,-9.2623 2.34442,-18.65096 7.30887,-27.24933s11.91831,-15.33072 19.94403,-19.95444l19.26613,33.36979c-4.87823,2.81687 -7.98915,8.08102 -7.98291,13.83398z" fill="#3f3f3f" id="svg_8"/>
   <path d="m71.84376,49.57798l19.26821,-33.37336c8.02572,4.62372 14.97988,11.35607 19.94403,19.95444s7.31749,17.98703 7.30887,27.24933l-38.53226,0c-0.0003,-5.63284 -3.00359,-10.95944 -7.98885,-13.83042z" fill="#3f3f3f" id="svg_9"/>
  </g>
 </g>
</svg>