<svg width="100%" height="100%" viewBox="0 0 128 128" xmlns="http://www.w3.org/2000/svg">
 <g>
	 <title>Cross</title>
   <g transform="matrix(0.25805347024010844,0,0,0.22635536806144285,-188.94867130686254,-145.4010528426591) " id="svg_4">
     <path fill="#333" d="m1130.479634,785.969129l-83.478,0l0,-83.479c0,-18.413 -14.979,-33.391 -33.392,-33.391l-66.783,0c-18.413,0 -33.391,14.978 -33.391,33.391l0,83.478l-83.478,0c-18.413,0 -33.391,14.978 -33.391,33.391l0,66.783c0,18.413 14.978,33.391 33.391,33.391l83.478,0l0,228.174c0,18.413 14.978,33.391 33.391,33.391l66.783,0c18.413,0 33.391,-14.978 33.391,-33.391l0,-228.173l83.478,0c18.413,0 33.391,-14.978 33.391,-33.391l0,-66.783c0.001,-18.413 -14.977,-33.391 -33.39,-33.391z"/>
  </g>
 </g>
</svg>