<svg width="100%" height="100%"  viewBox="0 0 512 512" xmlns="http://www.w3.org/2000/svg">
<g transform="translate(10,-190)">
	<g>
		<path d="M406.261,116.87h-83.478V33.391C322.783,14.978,307.804,0,289.391,0h-66.783c-18.413,0-33.391,14.978-33.391,33.391
			v83.478h-83.478c-18.413,0-33.391,14.978-33.391,33.391v66.783c0,18.413,14.978,33.391,33.391,33.391h83.478v228.174
			c0,18.413,14.978,33.391,33.391,33.391h66.783c18.413,0,33.391-14.978,33.391-33.391V250.435h83.478
			c18.413,0,33.391-14.978,33.391-33.391v-66.783C439.652,131.848,424.674,116.87,406.261,116.87z"/>
	</g>
</g>
</svg>
