<svg width="100%" height="100%" viewBox="0 0 128 128" xmlns="http://www.w3.org/2000/svg">
 <g>
	 <title>Church</title>
     <g id="svg_1">
         <path id="svg_2" fill="#756b6b" d="m154.49337,233.77306l0,3.30441l23.12942,0l0,-13.21667l-6.60834,0l0,-25.82827c0,-2.15928 1.75069,-3.90997 3.90997,-3.90997l2.69837,0l0,-16.52108l-6.60834,0l0,-25.82778c0,-2.15928 1.75069,-3.90996 3.90997,-3.90996l2.69837,0l0,-26.43334l-23.12942,0l0,23.12941l0,13.21667l0,75.99658z"/>
         <path id="svg_3" fill="#756b6b" d="m71.88846,223.86031l-6.60833,0l0,-25.82778c0,-2.15928 1.75069,-3.90996 3.90997,-3.90996l2.69836,0l0,-16.52109l-6.60833,0l0,-25.82777c0,-2.15928 1.75069,-3.90997 3.90997,-3.90997l2.69836,0l0,-26.43334l-23.12941,0l0,115.64707l23.12941,0l0,-13.21716z"/>
         <path id="svg_4" fill="#665e62" d="m71.88846,147.86374l2.69837,0c2.15928,0 3.90997,1.75068 3.90997,3.90996l0,25.82778l-6.60834,0l0,16.52108l2.69837,0c2.15928,0 3.90997,1.75069 3.90997,3.90997l0,25.82778l-6.60834,0l0,13.21667l23.12942,0l0,-3.30441l0,-75.99609l0,-13.21667l0,-23.12941l-23.12942,0l0,26.43334z"/>
         <path id="svg_5" fill="#665e62" d="m177.62279,121.42991l0,26.43334l2.69836,0c2.15928,0 3.90997,1.75069 3.90997,3.90997l0,25.82778l-6.60833,0l0,16.52108l2.69836,0c2.15928,0 3.90997,1.75068 3.90997,3.90996l0,25.82778l-6.60833,0l0,13.21667l23.12941,0l0,-115.64707l-23.12941,0l0,0.00049z"/>
         <polygon id="svg_6" fill="#4f434f" points="124.755615234375,104.90931701660156 154.49337768554688,157.7764892578125 154.49337768554688,144.55933380126953 126.40758514404297,94.62952423095703 126.40758514404297,81.77991104125977 131.36395263671875,81.77991104125977 131.36395263671875,78.47549819946289 126.40758514404297,78.47549819946289 126.40758514404297,75.17157363891602 123.1036605834961,75.17157363891602 123.1036605834961,78.47549819946289 118.14730072021484,78.47549819946289 118.14730072021484,81.77991104125977 123.1036605834961,81.77991104125977 123.1036605834961,94.62952423095703 95.01787567138672,144.55933380126953 95.01787567138672,157.7764892578125 "/>
         <path id="svg_7" fill="#93786d" d="m154.49337,157.77648l-29.73775,-52.86716l-29.73774,52.86716l0,75.99658l0,3.30441l13.21666,0l0,-26.43334c0,-9.12439 7.39669,-16.52108 16.52108,-16.52108s16.52108,7.39668 16.52108,16.52108l0,26.43334l13.21667,0l0,-3.30441l0,-75.99658zm-29.73775,23.12942c-9.12439,0 -16.52108,-7.39668 -16.52108,-16.52108s7.39669,-16.52108 16.52108,-16.52108s16.52108,7.39668 16.52108,16.52108s-7.39668,16.52108 -16.52108,16.52108z"/>
         <rect id="svg_8" fill="#4f434f" height="16.52108" width="23.12941" y="237.07698" x="71.88846"/>
         <polygon id="svg_9" fill="#4f434f" points="200.75221252441406,121.4299087524414 179.27474975585938,41.65728569030762 179.27474975585938,25.60833430290222 184.23110961914062,25.60833430290222 184.23110961914062,22.3044114112854 179.27474975585938,22.3044114112854 179.27474975585938,19 175.9708251953125,19 175.9708251953125,22.3044114112854 171.0144500732422,22.3044114112854 171.0144500732422,25.60833430290222 175.9708251953125,25.60833430290222 175.9708251953125,41.65728569030762 154.49337768554688,121.4299087524414 177.62278747558594,121.4299087524414 "/>
         <polygon id="svg_10" fill="#4f434f" points="95.01787567138672,121.4299087524414 73.5404281616211,41.65728569030762 73.5404281616211,25.60833430290222 78.49679565429688,25.60833430290222 78.49679565429688,22.3044114112854 73.5404281616211,22.3044114112854 73.5404281616211,19 70.23650360107422,19 70.23650360107422,22.3044114112854 65.28012466430664,22.3044114112854 65.28012466430664,25.60833430290222 70.23650360107422,25.60833430290222 70.23650360107422,41.65728569030762 48.75904846191406,121.4299087524414 71.88845825195312,121.4299087524414 "/>
         <path id="svg_11" fill="#4f434f" d="m141.2767,210.64364c0,-9.12439 -7.39668,-16.52108 -16.52108,-16.52108s-16.52108,7.39669 -16.52108,16.52108l0,26.43334l0,16.52108l33.04216,0l0,-16.52108l0,-26.43334z"/>
         <path id="svg_12" fill="#4f434f" d="m124.75562,147.86374c-9.12439,0 -16.52108,7.39668 -16.52108,16.52108s7.39669,16.52108 16.52108,16.52108s16.52108,-7.39668 16.52108,-16.52108s-7.39668,-16.52108 -16.52108,-16.52108zm0,23.12941c-3.64995,0 -6.60833,-2.95887 -6.60833,-6.60833s2.95887,-6.60834 6.60833,-6.60834s6.60834,2.95887 6.60834,6.60834s-2.95838,6.60833 -6.60834,6.60833z"/>
         <rect id="svg_13" fill="#756b6b" height="16.52108" width="13.21667" y="237.07698" x="95.01788"/>
         <rect id="svg_14" fill="#756b6b" height="16.52108" width="13.21667" y="237.07698" x="141.2767"/>
         <path id="svg_15" fill="#4f434f" d="m78.4968,151.77371c0,-2.15928 -1.75069,-3.90997 -3.90997,-3.90997l-2.69837,0l-2.69836,0c-2.15928,0 -3.90997,1.75069 -3.90997,3.90997l0,25.82777l6.60833,0l6.60834,0l0,-25.82777z"/>
         <path id="svg_16" fill="#4f434f" d="m78.4968,198.03253c0,-2.15928 -1.75069,-3.90996 -3.90997,-3.90996l-2.69837,0l-2.69836,0c-2.15928,0 -3.90997,1.75068 -3.90997,3.90996l0,25.82778l6.60833,0l6.60834,0l0,-25.82778z"/>
         <path id="svg_17" fill="#4f434f" d="m171.01445,151.77371l0,25.82777l6.60834,0l6.60833,0l0,-25.82777c0,-2.15928 -1.75069,-3.90997 -3.90997,-3.90997l-2.69836,0l-2.69837,0c-2.15928,0 -3.90997,1.75069 -3.90997,3.90997z"/>
         <path id="svg_18" fill="#4f434f" d="m171.01445,198.03253l0,25.82778l6.60834,0l6.60833,0l0,-25.82778c0,-2.15928 -1.75069,-3.90996 -3.90997,-3.90996l-2.69836,0l-2.69837,0c-2.15928,0 -3.90997,1.75068 -3.90997,3.90996z"/>
         <circle id="svg_19" fill="#93786d" r="6.60833" cy="164.38482" cx="124.75562"/>
         <rect id="svg_20" fill="#665e62" height="16.52108" width="23.12941" y="237.07698" x="48.75905"/>
         <rect id="svg_21" fill="#4f434f" height="16.52108" width="23.12941" y="237.07698" x="177.62279"/>
         <rect id="svg_22" fill="#665e62" height="16.52108" width="23.12941" y="237.07698" x="154.49337"/>
     </g>
 </g>
</svg>