<svg width="100%" height="100%"  viewBox="0 0 128 128" xmlns="http://www.w3.org/2000/svg">
 <g>
  <title>circus</title>
  <g id="svg_2">
   <path fill="#7f7f7f"  d="m47.57541,117.16562c0,-0.39394 17.33337,-52.00012 17.33337,-52.0564c0,-0.05628 20.09096,52.45034 20.09096,52.39406c0,-0.05628 -37.42433,-0.33766 -37.42433,-0.33766z" id="svg_21"/>
   <path fill="#5e7a6b"  d="m82.24216,117.9535c-0.39394,-0.39394 -10.63639,-44.51526 -10.63639,-44.57154c0,-0.05628 35.45463,0.05628 35.45463,0c0,-0.05628 12.21215,43.78365 12.21215,43.78365c0,0 -37.03039,0.78788 -37.03039,0.78788z" id="svg_20"/>
   <path fill="#5e7a6b"  d="m11.72684,115.9838c0,0 14.18185,-42.54556 14.18185,-42.60183c0,-0.05628 34.27281,0.84416 34.27281,0.84416c0,0 -11.03033,43.72738 -11.03033,43.72738c0,0 -37.42433,-1.9697 -37.42433,-1.9697z" id="svg_19"/>
   <path fill="#ff7f00"  d="m17.24201,72.25642c0,0 -0.78788,-20.4849 -0.78788,-20.54118c0,-0.05628 96.90932,0.05628 96.90932,0.05628c0,0 0.39394,19.69702 0.39394,19.69702c0,0 -96.51538,0.78788 -96.51538,0.78788z" id="svg_18"/>
   <path fill="#7f0000"  d="m16.45412,48.62c0,0 48.8486,-24.4243 48.8486,-24.48058c0,-0.05628 47.66678,25.26846 47.66678,25.26846c0,0 -96.51538,-0.78788 -96.51538,-0.78788z" id="svg_17"/>
   <path fill="#333" d="m122.91886,114.28321c-9.18157,-9.18157 -10.76836,-30.90107 -11.04175,-37.84427c3.59668,-2.02682 6.0328,-5.88074 6.0328,-10.29524l0,-16.2398c0,-1.43591 -0.82215,-2.67761 -2.01973,-3.28783c-0.00788,-0.00394 -0.01339,-0.00945 -0.02088,-0.01339l-46.67878,-23.33939l0,-6.39247c0,-2.03825 -1.65258,-3.69083 -3.69083,-3.69083c-2.03825,0 -3.69083,1.65258 -3.69083,3.69083l0,6.39286l-46.67917,23.33939c-0.0063,0.00315 -0.01103,0.00867 -0.01733,0.01182c-1.19955,0.60943 -2.02328,1.85191 -2.02328,3.2894l0,16.2398c0,4.4145 2.43652,8.26841 6.0328,10.29524c-0.27339,6.94556 -1.86097,28.66389 -11.04175,37.84427c-1.05576,1.05576 -1.37091,2.64295 -0.7997,4.02252c0.57121,1.37879 1.91691,2.27816 3.40955,2.27816l36.53954,0c0.97894,0 1.91731,-0.38921 2.60985,-1.08097c11.23636,-11.23675 12.95315,-35.4826 13.21394,-43.00647c0.8907,-0.49006 1.71364,-1.08964 2.44598,-1.78337c0.73234,0.69412 1.55528,1.29331 2.44598,1.78337c0.26079,7.52387 1.97719,31.76971 13.21394,43.00647c0.69255,0.69176 1.63091,1.08097 2.60985,1.08097l36.53954,0c1.49264,0 2.83873,-0.89937 3.40995,-2.27816c0.57161,-1.37997 0.25527,-2.96716 -0.7997,-4.02292zm-57.41917,-84.61208l33.08468,16.54195l-66.16976,0l33.08508,-16.54195zm-19.88138,83.53111l-27.60537,0c6.58708,-11.50857 8.09941,-28.0974 8.44569,-35.35299c2.52398,-0.33446 4.79977,-1.46585 6.56186,-3.13616c2.11822,2.00831 4.97744,3.24173 8.1195,3.24173c3.14246,0 6.00168,-1.23343 8.1199,-3.24173c1.71009,1.62106 3.90316,2.73592 6.3385,3.10622c-0.40773,7.7685 -2.19149,26.27621 -9.98008,35.38293zm16.19055,-47.05854c0,2.44243 -1.98664,4.42907 -4.42907,4.42907c-2.44204,0 -4.42868,-1.98664 -4.42868,-4.42907c0,-2.03825 -1.65258,-3.69083 -3.69083,-3.69083c-2.03825,0 -3.69083,1.65258 -3.69083,3.69083c0,2.44243 -1.98664,4.42907 -4.42907,4.42907c-2.44204,0 -4.42907,-1.98664 -4.42907,-4.42907c0,-2.03825 -1.65219,-3.69083 -3.69043,-3.69083c-2.03864,0 -3.69083,1.65258 -3.69083,3.69083c0,2.44243 -1.98704,4.42907 -4.42907,4.42907c-2.44243,0 -4.42907,-1.98664 -4.42907,-4.42907l0,-12.54858l90.05673,0l0,12.54858c0,2.44243 -1.98664,4.42907 -4.42907,4.42907c-2.44204,0 -4.42907,-1.98664 -4.42907,-4.42907c0,-2.03825 -1.65219,-3.69083 -3.69083,-3.69083c-2.03825,0 -3.69043,1.65258 -3.69043,3.69083c0,2.44243 -1.98704,4.42907 -4.42907,4.42907c-2.44243,0 -4.42907,-1.98664 -4.42907,-4.42907c0,-2.03825 -1.65258,-3.69083 -3.69083,-3.69083c-2.03825,0 -3.69083,1.65258 -3.69083,3.69083c0,2.44243 -1.98664,4.42907 -4.42868,4.42907c-2.44243,0 -4.42907,-1.98664 -4.42907,-4.42907c0,-2.03825 -1.65258,-3.69083 -3.69083,-3.69083c-2.03943,0 -3.69201,1.65258 -3.69201,3.69083zm23.57221,47.05854c-7.78859,-9.10672 -9.57236,-27.61443 -9.98008,-35.38293c2.43534,-0.36991 4.6284,-1.48516 6.3385,-3.10622c2.11822,2.00831 4.97783,3.24173 8.1199,3.24173c3.14246,0 6.00129,-1.23343 8.1195,-3.24173c1.76249,1.67031 4.03789,2.8017 6.56186,3.13616c0.34627,7.25559 1.85822,23.84442 8.44569,35.35299l-27.60537,0z" id="svg_1"/>
  </g>
 </g>
</svg>