<svg width="90%" height="90%" viewBox="0 0 128 128" xmlns="http://www.w3.org/2000/svg">
<g>
  <rect x="8.582" y="23.987" style="fill: rgb(211, 91, 56);" width="86.279" height="97.605"/>
  <path style="fill: rgb(242, 242, 242);" d="M 94.815 11.518 L 8.626 11.518 C 7.127 11.518 5.911 12.733 5.911 14.232 L 5.911 21.273 C 5.911 22.772 7.127 23.987 8.626 23.987 L 94.815 23.987 C 96.314 23.987 97.529 22.772 97.529 21.273 L 97.529 14.232 C 97.529 12.733 96.314 11.518 94.815 11.518 Z"/>
  <rect x="39.151" y="96.184" style="fill: rgb(115, 193, 221);" width="25.139" height="25.408"/>
  <g style="" transform="matrix(0.242312, 0, 0, 0.242312, -10.312074, 0)">
    <rect x="127.398" y="155.834" style="fill:#FFE6B8;" width="53.643" height="75.78"/>
    <rect x="127.398" y="273.012" style="fill:#FFE6B8;" width="53.643" height="75.78"/>
    <rect x="330.964" y="155.834" style="fill:#FFE6B8;" width="53.643" height="75.78"/>
    <rect x="330.964" y="273.012" style="fill:#FFE6B8;" width="53.643" height="75.78"/>
    <rect x="229.176" y="155.834" style="fill:#FFE6B8;" width="53.643" height="75.78"/>
    <rect x="229.176" y="273.012" style="fill:#FFE6B8;" width="53.643" height="75.78"/>
  </g>
  <rect x="8.582" y="2.471" style="fill: rgb(211, 91, 56);" width="86.279" height="9.058"/>
  <g style="" transform="matrix(0.242312, 0, 0, 0.242312, -10.312074, 0)">
    <path style="fill:#4D3D36;" d="M434.031,512c5.632,0,10.199-4.567,10.199-10.199V106.488c6.563-3.659,11.018-10.665,11.018-18.699 V58.734c0-8.033-4.454-15.039-11.018-18.698V10.199C444.23,4.567,439.663,0,434.031,0H77.969C72.337,0,67.77,4.567,67.77,10.199 v29.837c-6.563,3.659-11.018,10.665-11.018,18.698v29.054c0,8.034,4.454,15.04,11.018,18.699v395.313 c0,5.632,4.567,10.199,10.199,10.199H434.031z M78.152,88.792c-0.553,0-1.002-0.45-1.002-1.003V58.734 c0-0.477,0.342-0.858,0.788-0.959c0.01,0,0.02,0.002,0.031,0.002h356.061c0.01,0,0.02-0.002,0.031-0.002 c0.447,0.101,0.788,0.481,0.788,0.959v29.054c0,0.553-0.449,1.003-1.002,1.003H78.152V88.792z M423.832,20.398v16.935H88.168 V20.398H423.832z M266.199,491.602v-26.349c0-5.632-4.567-10.199-10.199-10.199c-5.632,0-10.199,4.567-10.199,10.199v26.349 h-31.476V407.14h83.351v84.462H266.199z M423.832,491.602H318.073v-94.661c0-5.632-4.567-10.199-10.199-10.199H204.126 c-5.632,0-10.199,4.567-10.199,10.199v94.661H88.168V109.191h67.713v8.208c0,5.632,4.567,10.199,10.199,10.199 s10.199-4.567,10.199-10.199v-8.208h68.347v8.208c0,5.632,4.567,10.199,10.199,10.199s10.199-4.567,10.199-10.199v-8.208h69.615 v8.208c0,5.632,4.567,10.199,10.199,10.199c5.632,0,10.199-4.567,10.199-10.199v-8.208h68.795V491.602z"/>
    <path style="fill:#4D3D36;" d="M181.036,145.64h-53.643c-5.632,0-10.199,4.567-10.199,10.199v75.779 c0,5.632,4.567,10.199,10.199,10.199h53.643c5.632,0,10.199-4.567,10.199-10.199v-75.779 C191.235,150.206,186.668,145.64,181.036,145.64z M170.837,221.419h-33.244v-55.381h33.244V221.419z"/>
    <path style="fill:#4D3D36;" d="M181.036,262.811h-53.643c-5.632,0-10.199,4.567-10.199,10.199v75.779 c0,5.632,4.567,10.199,10.199,10.199h53.643c5.632,0,10.199-4.567,10.199-10.199V273.01 C191.235,267.377,186.668,262.811,181.036,262.811z M170.837,338.59h-33.244v-55.381h33.244V338.59z"/>
    <path style="fill:#4D3D36;" d="M330.964,145.64c-5.632,0-10.199,4.567-10.199,10.199v75.779c0,5.632,4.567,10.199,10.199,10.199 h53.643c5.632,0,10.199-4.567,10.199-10.199v-75.779c0-5.632-4.567-10.199-10.199-10.199L330.964,145.64L330.964,145.64z M374.408,221.419h-33.244v-55.381h33.244V221.419z"/>
    <path style="fill:#4D3D36;" d="M384.607,262.811h-53.643c-5.632,0-10.199,4.567-10.199,10.199v75.779 c0,5.632,4.567,10.199,10.199,10.199h53.643c5.632,0,10.199-4.567,10.199-10.199V273.01 C394.806,267.377,390.239,262.811,384.607,262.811z M374.408,338.59h-33.244v-55.381h33.244V338.59z"/>
    <path style="fill:#4D3D36;" d="M282.821,145.64h-53.642c-5.632,0-10.199,4.567-10.199,10.199v75.779 c0,5.632,4.567,10.199,10.199,10.199h53.642c5.632,0,10.199-4.567,10.199-10.199v-75.779 C293.02,150.206,288.453,145.64,282.821,145.64z M272.622,221.419h-33.243v-55.381h33.243V221.419z"/>
    <path style="fill:#4D3D36;" d="M282.821,262.811h-53.642c-5.632,0-10.199,4.567-10.199,10.199v75.779 c0,5.632,4.567,10.199,10.199,10.199h53.642c5.632,0,10.199-4.567,10.199-10.199V273.01 C293.02,267.377,288.453,262.811,282.821,262.811z M272.622,338.59h-33.243v-55.381h33.243V338.59z"/>
    <path style="fill:#4D3D36;" d="M256,419.796c-5.632,0-10.199,4.567-10.199,10.199v3.305c0,5.632,4.567,10.199,10.199,10.199 c5.632,0,10.199-4.567,10.199-10.199v-3.305C266.199,424.362,261.632,419.796,256,419.796z"/>
  </g>
</g>
</svg>