<svg width="90%" height="90%"  viewBox="0 0 128 128" xmlns="http://www.w3.org/2000/svg">
 <g>
  <title>collapsed</title>
  <path fill="#4c4c4c" stroke-width="null" stroke-dasharray="null" d="m15.48829,120.78028c0,0 -0.94922,-53.15625 -1.11426,-53.30079c-0.16504,-0.14454 70.64454,0.14454 70.47949,0c-0.16505,-0.14454 20.57325,24.11231 20.4082,23.96777c-0.16505,-0.14454 3.72462,28.85841 3.55957,28.71387c-0.16505,-0.14454 -93.333,0.61915 -93.333,0.61915z" id="svg_5"/>
  <rect id="svg_8" fill="#666666" x="68.375" y="80.25" width="26.25" height="25.5"/>((SVGRoot)diagram.getRoot()).getPresAbsolute(&quot;viewBox&quot;).getIntList()[3]
  <g id="svg_24"/>
  <rect fill="#CCC" x="-192.005" y="163.745" width="0.75" height="0" id="svg_29"/>
  <rect fill="#def2f2" x="95.995" y="449.495" width="0" height="0.75" id="svg_32"/>
  <rect fill="#7f3f00" x="18" y="47" width="20" height="40" id="svg_31"/>
  <rect fill="#7f0000" x="52.06738" y="47.71191" width="20" height="40" id="svg_32"/>
  <rect fill="#666666" x="29.745" y="81.745" width="26.25" height="25.5" id="svg_30"/>
  <g id="svg_1">
   <path d="m28.75,78.253l0,29.8l27.8,0l0,-29.8l-27.8,0zm18.53334,19.86667l-9.26667,0l0,-9.93333l9.26667,0l0,9.93333z" fill="#333" id="svg_3"/>
  </g>
  <g id="svg_7">
   <path d="m113.8888,116.29308l-0.05932,-17.81824l-14.0418,-26.72737l-13.98247,-8.90912l-9.3612,0l0,-17.81825l0,-17.81825l-9.3612,0l0,17.81825l-9.3612,0l0,-26.72737l-9.3612,0l0,26.72737l0,17.81825l-9.3612,0l0,-17.81825l-9.3612,0c0.06334,-5.93942 0.3167,-22.66868 0.19002,-44.79288l-10.50132,27.649l0.9501,17.14388l-9.3612,0l0,71.27298c-10.26587,-0.26101 -1.1481,6.19258 -1.1481,8.65442c109.49019,-0.45721 104.9395,0.63502 104.9395,-1.82682l-0.81821,-6.8276zm-40.21081,0l-53.40117,0l0,-62.36386l9.3612,0l0,17.81825l28.08359,0l0,-17.81825l9.3612,0l0.2373,17.81825l13.68585,0.35595l18.9597,21.56089l4.56194,22.39147l-30.84961,0.2373z" id="svg_9" fill="#333"/>
  </g>
  <g id="svg_4">
   <path d="m67.09998,78.1l0,29.8l27.8,0l0,-29.8l-27.8,0zm18.53334,19.86667l-9.26667,0l0,-9.93333l9.26667,0l0,9.93333z" fill="#333333" id="svg_6"/>
  </g></g>
</svg>