<svg width="100%" height="100%"  viewBox="0 0 128 128" xmlns="http://www.w3.org/2000/svg">
 <g>
  <title>ColonyShip</title>
  <g id="svg_1">
   <g id="svg_2">
    <g id="svg_3">
     <g id="XMLID_32_">
      <g id="svg_4">
       <path d="m98.16833,45.66848c0.32527,0.89798 -1.85782,4.7224 -7.92772,7.01375c-6.06938,2.29135 -10.21907,0.89798 -10.55981,-0.01546c-0.12372,-0.30981 0.09279,-1.28512 1.19233,-2.57023c1.47069,-1.76504 3.93267,-3.37543 6.71992,-4.44352c6.06938,-2.29135 10.23453,-0.88252 10.57527,0.01546z" fill="#FEDE94" id="svg_5"/>
       <path d="m50.04582,50.09705c1.08407,1.28512 1.30058,2.26042 1.19233,2.57023c-0.34074,0.91345 -4.5059,2.30682 -10.55981,0.01546c-2.80272,-1.05263 -5.24872,-2.67848 -6.73539,-4.42806c-1.08407,-1.30058 -1.30058,-2.27589 -1.19233,-2.5857c0.12372,-0.30981 0.92891,-0.89798 2.5857,-1.14593c0.52631,-0.07732 1.06861,-0.12372 1.64132,-0.12372c1.95113,0 4.18062,0.43353 6.33279,1.25419c2.80272,1.06809 5.24872,2.67797 6.73539,4.44352z" fill="#FEDE94" id="svg_6"/>
       <path d="m83.90782,61.86413c-5.58945,0 -10.04896,-2.26042 -11.59697,-6.39465c-1.23872,-3.28264 -0.30981,-7.10706 2.55477,-10.49795c2.35373,-2.78725 5.8838,-5.17139 9.95565,-6.71992c9.46027,-3.59193 18.36329,-1.59493 20.70155,4.62961c2.33775,6.20907 -3.03469,13.60996 -12.49495,17.20189c-3.18985,1.20831 -6.30186,1.78102 -9.12004,1.78102zm6.33279,-9.18139c6.06938,-2.29135 8.25247,-6.11577 7.92772,-7.01375c-0.34074,-0.89798 -4.5059,-2.30682 -10.57527,-0.01546c-2.78725,1.06861 -5.24872,2.67848 -6.71992,4.44352c-1.09954,1.28512 -1.31605,2.26042 -1.19233,2.57023c0.34074,0.91345 4.49043,2.30682 10.55981,0.01546z" fill="#2D213F" id="svg_7"/>
       <path d="m74.23105,76.96077c1.20779,1.20779 1.20779,3.17387 0,4.3662c-1.19233,1.20779 -3.14294,1.20779 -4.35073,0c-1.19233,-1.19233 -1.19233,-3.15841 0,-4.3662c1.20728,-1.20779 3.15841,-1.20779 4.35073,0z" fill="#2D213F" id="svg_8"/>
       <path d="m44.7971,106.71947c5.76008,4.79972 13.23829,7.6643 20.00461,7.6643s14.24453,-2.86458 20.00461,-7.6643c12.58826,-10.46702 30.59534,-47.79724 22.14131,-71.31645c-5.10953,-14.25999 -19.2922,-21.49077 -42.14592,-21.49077s-37.03639,7.23077 -42.16139,21.49077c-8.43857,23.51922 9.56852,60.84995 22.15678,71.31645zm69.56688,-73.99494c9.69275,26.98743 -10.12628,68.09619 -24.54143,80.09576c-7.12252,5.93019 -16.47454,9.47573 -25.02135,9.47573s-17.89883,-3.54554 -25.03682,-9.47573c-14.39917,-11.99957 -34.21821,-53.10833 -24.52545,-80.09576c4.3662,-12.18566 16.52093,-26.72453 49.56279,-26.72453s45.18061,14.53887 49.56227,26.72453z" fill="#2D213F" id="svg_9"/>
       <path d="m59.18081,76.96077c1.19233,-1.20779 3.14294,-1.20779 4.35073,0c1.19233,1.20779 1.19233,3.17387 0,4.3662c-1.20779,1.20779 -3.15841,1.20779 -4.35073,0c-1.20728,-1.19233 -1.20728,-3.15892 0,-4.3662z" fill="#2D213F" id="svg_10"/>
       <path d="m46.09768,38.25213c4.0569,1.54853 7.60244,3.93267 9.95565,6.71992c2.84911,3.39089 3.77802,7.21531 2.55477,10.49795c-1.564,4.13423 -6.00752,6.39465 -11.61244,6.39465c-2.81818,0 -5.93019,-0.57271 -9.10406,-1.7805c-4.07237,-1.53307 -7.60244,-3.93267 -9.95565,-6.71992c-2.84911,-3.39089 -3.77802,-7.21531 -2.55477,-10.48248c1.23872,-3.2981 4.44352,-5.54306 8.81023,-6.19361c3.60688,-0.54178 7.8339,0.03093 11.90627,1.564zm5.14046,14.41515c0.10825,-0.30981 -0.10825,-1.28512 -1.19233,-2.57023c-1.48616,-1.76504 -3.93267,-3.37543 -6.73539,-4.44352c-2.15217,-0.82066 -4.38166,-1.25419 -6.33279,-1.25419c-0.57271,0 -1.115,0.04639 -1.64132,0.12372c-1.65678,0.24795 -2.46198,0.83612 -2.5857,1.14593c-0.10825,0.30981 0.10825,1.28512 1.19233,2.5857c1.48616,1.74957 3.93267,3.37543 6.73539,4.42806c6.05391,2.29135 10.21907,0.89798 10.55981,-0.01546z" fill="#2D213F" id="svg_11"/>
       <path d="m69.88031,81.32696c1.20779,1.20779 3.15841,1.20779 4.35073,0c1.20779,-1.19233 1.20779,-3.15841 0,-4.3662c-1.19233,-1.20779 -3.14294,-1.20779 -4.35073,0c-1.19233,1.20728 -1.19233,3.17387 0,4.3662zm-10.6995,0c1.19233,1.20779 3.14294,1.20779 4.35073,0c1.19233,-1.19233 1.19233,-3.15841 0,-4.3662c-1.20779,-1.20779 -3.15841,-1.20779 -4.35073,0c-1.20728,1.20728 -1.20728,3.17387 0,4.3662zm13.13004,-25.85748c1.54853,4.13423 6.00752,6.39465 11.59697,6.39465c2.81818,0 5.93019,-0.57271 9.11953,-1.7805c9.46027,-3.59193 14.83322,-10.99333 12.49495,-17.20189c-2.33775,-6.22454 -11.24077,-8.22155 -20.70155,-4.62961c-4.07237,1.54853 -7.60244,3.93267 -9.95565,6.71992c-2.86355,3.39038 -3.79297,7.21479 -2.55425,10.49743zm-27.51375,51.24999c-12.58826,-10.46702 -30.59534,-47.79724 -22.15678,-71.31645c5.125,-14.25999 19.30767,-21.49077 42.16139,-21.49077s37.03639,7.23077 42.14592,21.49077c8.45403,23.51922 -9.55306,60.84995 -22.14131,71.31645c-5.76008,4.79972 -13.23829,7.6643 -20.00461,7.6643s-14.24504,-2.86406 -20.00461,-7.6643zm-19.41643,-63.83773c-1.22326,3.26717 -0.29434,7.09159 2.55477,10.48248c2.35373,2.78725 5.8838,5.18686 9.95565,6.71992c3.17387,1.20779 6.2864,1.7805 9.10406,1.7805c5.60492,0 10.04896,-2.26042 11.61244,-6.39465c1.22326,-3.28264 0.29434,-7.10706 -2.55477,-10.49795c-2.35373,-2.78725 -5.89926,-5.17139 -9.95565,-6.71992c-4.07237,-1.53307 -8.29887,-2.10578 -11.90678,-1.564c-4.3662,0.65055 -7.571,2.89551 -8.80972,6.19361z" fill="#EAEEEF" id="svg_12"/>
      </g>
     </g>
    </g>
    <path d="m91.05508,36.67421c6.89931,-0.88561 12.6563,1.38409 14.46773,6.20753c1.55317,4.12495 -0.31136,8.77157 -4.5028,12.48258c1.70627,5.78792 2.73725,12.45939 2.90324,20.15307c4.90849,-13.46923 7.20603,-28.48029 3.02386,-40.11438c-5.10953,-14.25999 -19.2922,-21.49077 -42.14592,-21.49077c-11.38511,0 -20.61443,1.79751 -27.64881,5.36058c15.42654,-1.02067 39.26021,0.62993 53.9027,17.40139z" fill="#C5CBCF" id="svg_13"/>
   </g>
  </g>
 </g>
</svg>