<svg width="90%" height="90%"  viewBox="0 0 128 128" xmlns="http://www.w3.org/2000/svg">
 <g>
  <title>Shrub_Conservatory</title>
  <path id="svg_1" fill="#97BAA8" d="m72.32051,18.91089l0,14.81518c0,1.24155 -1.01343,2.24772 -2.26394,2.24772s-2.26394,-1.00617 -2.26394,-2.24772l0,-14.81518c0,-2.98574 -2.4348,-5.41522 -5.42762,-5.41522l-0.68187,0c-2.99282,0 -5.42762,2.42903 -5.42762,5.41522l0,14.81518c0,1.24155 -1.01343,2.24772 -2.26394,2.24772s-2.26394,-1.00617 -2.26394,-2.24772l0,-14.81518c-0.00045,-5.46504 4.46572,-9.91089 9.95504,-9.91089l0.68187,0c5.49,0 9.95594,4.44585 9.95594,9.91089l0.00002,0z"/>
  <path id="svg_2" fill="#788c75" d="m17.3715,113.70702l0,-44.89925c0,-24.46577 20.09247,-44.48233 44.65134,-44.48233l0.00068,0c24.55887,0 44.65134,20.0188 44.65134,44.48233l0,44.89902l-89.30335,0l0,0.00022l-0.00001,0.00001z"/>
  <path id="svg_3" fill="#7e968a" d="m106.66423,113.89775c-0.44659,5.5346 -20.26062,9.99033 -44.64072,9.99033c-24.38077,0 -44.1948,-4.45573 -44.64139,-9.99033c0.44659,-5.5346 20.26062,-9.99033 44.64139,-9.99033c24.3801,0.00022 44.19412,4.45573 44.64072,9.99033z"/>
  <g id="svg_4">
   <path id="svg_5" fill="#5B7F81" d="m81.50847,113.89775c-0.19505,2.41579 -8.84353,4.36059 -19.48496,4.36059c-10.64188,0 -19.29059,-1.94479 -19.48518,-4.36059c0.19505,-2.41579 8.84353,-4.36059 19.48518,-4.36059c10.64143,0.00022 19.28991,1.94479 19.48496,4.36059z"/>
   <path id="svg_6" fill="#5B7F81" d="m62.02216,103.15459c-10.71737,0 -19.40653,-8.6267 -19.40653,-19.26844c0,-11.64947 12.84276,-26.58918 19.40653,-35.05904c6.67542,8.57913 19.40856,23.40979 19.40856,35.05904c0,10.64173 -8.68984,19.26844 -19.40856,19.26844l0,0z"/>
  </g>
  <path id="svg_7" fill="#415E5C" d="m81.43072,83.88593c0,10.64196 -8.68984,19.26844 -19.40856,19.26844c-10.17517,0 -18.51651,-7.77761 -19.33489,-17.67167c1.14338,0.20823 2.32021,0.3229 3.52417,0.3229c10.71873,0 19.40856,-8.6267 19.40856,-19.26844c0,-4.14764 -1.61484,-8.69873 -3.99494,-13.22716c-0.756,-1.43812 -0.61475,-3.17715 0.3815,-4.46268c0.0052,-0.00673 0.01062,-0.01346 0.01582,-0.0202c6.67519,8.57891 19.40834,23.40957 19.40834,35.05881z"/>
  <path id="svg_8" fill="#98af93" d="m27.66894,68.808c0,-22.73146 17.346,-41.61888 39.50307,-44.18299c-1.69032,-0.19567 -3.40755,-0.29979 -5.14804,-0.29979l-0.00068,0c-24.55887,0 -44.65134,20.017 -44.65134,44.48255l0,44.89925l10.29722,0l-0.00023,-44.89902l0,0z"/>
  <path id="svg_9" fill="#9cada4" d="m27.67934,113.89775c0.00497,-0.06373 0.01559,-0.12745 0.02599,-0.19073l-0.03639,0l0,-6.12071c-6.26182,1.71838 -10.09336,3.91338 -10.28682,6.31166c0.19346,2.39896 4.02749,4.59485 10.2927,6.31346l0.00452,-6.31368z"/>
 </g>
</svg>
