<svg width="100%" height="100%" viewBox="0 0 72 72" xmlns="http://www.w3.org/2000/svg">
    <g id="svg_49">
        <title>Cornfield small</title>
        <rect ry="16" rx="16" id="svg_50" height="72" width="72" y="0" x="0" fill="#848432"/>
        <g id="svg_1" fill="#333">
            <path d="m15.92237,56.12393c-1.86669,-0.54435 -3.578,-1.55012 -4.99028,-2.96356c-0.31306,-0.31306 -0.60393,-0.63897 -0.87377,-0.97656c-1.54077,2.74395 -1.14711,6.2764 1.18683,8.60917c2.33277,2.33277 5.86755,2.72643 8.608,1.18566c-0.33877,-0.2675 -0.66584,-0.55954 -0.97656,-0.8726c-1.43915,-1.43681 -2.42155,-3.15514 -2.95422,-4.98211l0.00001,0.00001z" id="svg_4"/>
            <path d="m37.05163,32.00891l-2.78951,2.79068c0.05373,0.97306 0.05957,1.95896 0.00935,2.94954c0.43688,-0.02336 0.8761,-0.0327 1.31999,-0.0327c0.55603,0 1.10856,0.01869 1.65759,0.0514l2.78016,-2.78016l3.95531,3.95649c1.83981,0.52332 3.55347,1.17865 5.07789,1.88537c8.73766,-9.09745 17.38538,-23.92345 11.72926,-29.57957c-5.64911,-5.65028 -20.44823,2.9694 -29.54568,11.69773c0.72191,1.54428 1.3784,3.28363 1.89705,5.15148l3.90859,3.90975l0,0.00001l0.00001,-0.00001zm10.36254,4.40855l-4.40738,-4.40855l2.97758,-2.97758l4.14805,4.14572c-0.84923,1.0852 -1.75337,2.16806 -2.71825,3.24041zm5.21456,-6.69576l-3.66912,-3.66795l2.97758,-2.97875l2.94954,2.95072c-0.66117,1.19851 -1.41696,2.43791 -2.258,3.69599l0,-0.00001zm5.72621,-13.05977c-0.11097,1.4006 -0.62145,3.24625 -1.50806,5.36642l-1.92977,-1.92859l3.43783,-3.43783zm-2.97992,-2.97992l-3.43549,3.43783l-1.92859,-1.92859c2.11783,-0.88662 3.96465,-1.39826 5.36408,-1.50923l0,-0.00001l0.00001,0.00001zm-9.36495,3.46586l2.94954,2.95072l-2.97875,2.97758l-3.66795,-3.66795c1.26159,-0.84223 2.49981,-1.59684 3.69715,-2.26035l0.00001,0l-0.00001,0zm-7.15133,4.75899l4.14572,4.14689l-2.97758,2.97758l-4.40738,-4.40738c1.07118,-0.96605 2.15522,-1.87136 3.23924,-2.71709z" id="svg_5"/>
            <path d="m35.59145,40.14732c-0.51748,0 -1.03847,0.01752 -1.56063,0.0514c-0.667,4.51602 -2.60845,9.04255 -6.52988,12.96398c-2.21246,2.21478 -5.15499,3.43199 -8.28443,3.43199c-0.1834,0 -0.36563,-0.00467 -0.54669,-0.01518c0.4509,1.01744 1.09221,1.97181 1.92626,2.80586c1.80127,1.80243 4.13637,2.68555 6.4855,2.68555c2.38067,0 4.77534,-0.90414 6.64436,-2.68555c12.42197,-11.81571 23.02047,-9.50279 19.39341,-13.12869c-2.22179,-2.21713 -9.51681,-6.10936 -17.52789,-6.10936l0,0.00001l0,-0.00001z" id="svg_6"/>
            <path d="m19.21418,54.16146c2.37599,0 4.75199,-0.90531 6.56493,-2.71825c11.71524,-11.71524 3.6259,-28.89737 0,-32.52326c-0.49178,-0.49062 -0.87377,-0.72074 -1.19617,-0.72074c-2.06293,0 -1.71833,9.37313 -11.93252,20.11415c-3.53361,3.71584 -3.62707,9.50396 0,13.12869c1.81294,1.81178 4.18893,2.71942 6.56376,2.71942l0,-0.00001z" id="svg_7"/>
        </g>
    </g>
</svg>