<svg width="70%" height="70%" viewBox="0 0 98 98" xmlns="http://www.w3.org/2000/svg">
    <g id="svg_49">
        <title>Corn small</title>
        <rect fill="#848432" x="0" y="0" width="97" height="97" id="svg_50" rx="16" ry="16"/>
        <g fill="#333" id="svg_1">
            <path id="svg_4" d="m21.7531,76.67635c-2.55026,-0.74369 -4.88826,-2.11777 -6.81771,-4.04881c-0.4277,-0.4277 -0.82509,-0.87296 -1.19374,-1.33418c-2.105,3.74878 -1.56718,8.5748 1.62144,11.76182c3.18702,3.18702 8.01623,3.72484 11.76023,1.61984c-0.46282,-0.36546 -0.90967,-0.76444 -1.33418,-1.19214c-1.96616,-1.96296 -3.30831,-4.31054 -4.03605,-6.80654l0.00001,0.00001z"/>
            <path id="svg_5" d="m50.61983,43.73048l-3.81102,3.81262c0.07341,1.32939 0.08139,2.67633 0.01277,4.02966c0.59687,-0.03192 1.19693,-0.04468 1.80337,-0.04468c0.75965,0 1.51451,0.02553 2.26459,0.07022l3.79825,-3.79825l5.40373,5.40534c2.51355,0.71496 4.85474,1.61027 6.9374,2.57579c11.93737,-12.42891 23.75186,-32.68415 16.02448,-40.41152c-7.7178,-7.71939 -27.93632,4.05679 -40.36523,15.9814c0.98627,2.10979 1.88317,4.48609 2.59175,7.03794l5.3399,5.34149l0,0.00001l0.00001,-0.00002zm14.15728,6.02295l-6.02135,-6.02295l4.06796,-4.06796l5.66706,5.66387c-1.16022,1.4826 -2.39545,2.962 -3.71367,4.42704zm7.12412,-9.14773l-5.01274,-5.01114l4.06796,-4.06956l4.02966,4.03126c-0.90329,1.6374 -1.93584,3.33066 -3.08488,5.04945l0,-0.00001zm7.82313,-17.84222c-0.15161,1.91349 -0.84902,4.43502 -2.06031,7.33159l-2.63644,-2.63484l4.69675,-4.69675zm-4.07116,-4.07116l-4.69356,4.69675l-2.63484,-2.63484c2.89337,-1.2113 5.4165,-1.9103 7.32839,-2.06191l0,-0.00001l0.00001,0.00001zm-12.79437,4.73505l4.02966,4.03126l-4.06956,4.06796l-5.01114,-5.01114c1.72358,-1.15065 3.41524,-2.1816 5.05104,-3.08808l0.00001,0l-0.00001,0zm-9.77013,6.50172l5.66387,5.66547l-4.06796,4.06796l-6.02135,-6.02135c1.46344,-1.31982 2.94445,-2.55664 4.42544,-3.71208z"/>
            <path id="svg_6" d="m48.62494,54.84915c-0.70698,0 -1.41876,0.02394 -2.13213,0.07022c-0.91126,6.16977 -3.56366,12.3539 -8.92111,17.71136c-3.02265,3.02583 -7.04273,4.68877 -11.31816,4.68877c-0.25056,0 -0.49952,-0.00638 -0.74689,-0.02074c0.61602,1.39003 1.49217,2.69388 2.63165,3.83336c2.46089,2.46248 5.6511,3.66899 8.86047,3.66899c3.25246,0 6.52406,-1.23523 9.07751,-3.66899c16.97086,-16.14259 31.4505,-12.98269 26.49522,-17.93638c-3.03541,-3.02903 -13.00184,-8.34659 -23.94656,-8.34659l0,0.00001l0,-0.00001z"/>
            <path id="svg_7" d="m26.25036,73.99523c3.24607,0 6.49215,-1.23683 8.96899,-3.71367c16.00533,-16.00533 4.95369,-39.47951 0,-44.43319c-0.67187,-0.67028 -1.19374,-0.98467 -1.63421,-0.98467c-2.81837,0 -2.34758,12.80555 -16.30217,27.47989c-4.82761,5.07657 -4.95529,12.98428 0,17.93638c2.47684,2.47525 5.72291,3.71527 8.96739,3.71527l0,-0.00001z"/>
        </g>
    </g>
</svg>