<svg width="50%" height="50%" viewBox="0 0 128 128" xmlns="http://www.w3.org/2000/svg">
  <g id="svg_49">
   <title>Corn</title>
   <g transform="matrix(0.000042334255291430355,0,0,0.000042334255291430355,0,0) " id="svg_48">
    <path fill="#00aeff" stroke="#000" stroke-width="1.5" stroke-opacity="null" fill-opacity="null" d="m236080.185849,118088.966582c-0.085156,-0.078934 -0.146193,-0.329747 -0.132322,-0.543735c0.008747,-0.134936 0.193282,-0.954091 0.209398,-0.929521c0.00526,0.008019 0.052067,0.198999 0.104016,0.424399c0.083217,0.361067 0.094452,0.428395 0.094452,0.565983c0,0.278886 -0.090479,0.507325 -0.199117,0.502728c-0.031702,-0.001342 -0.066095,-0.010276 -0.076428,-0.019854l0,0l0.000001,0zm0.085317,-0.140269c0.002819,-0.036106 -0.003766,-0.053714 -0.020085,-0.053714c-0.037195,0 -0.08879,-0.116208 -0.100317,-0.225944c-0.012296,-0.117059 -0.044899,-0.130981 -0.049715,-0.021229c-0.009278,0.211453 0.154486,0.501104 0.170117,0.300888l0,0l0,-0.000001z" id="svg_46"/>
   </g>
  <rect stroke="#000" id="svg_50" height="127.317078" width="127.073174" y="0.341459" x="0.463425" stroke-opacity="null" stroke-width="1.5" fill="#848432"/>
 </g>
</svg>