<svg width="90%" height="90%" viewBox="0 0 128 128" xmlns="http://www.w3.org/2000/svg">
  <g id="svg_49">
   <title>Corn medium</title>
      <rect id="svg_50" height="128" width="128" y="0" x="0" fill="#848432"/>
      <g id="svg_1" fill="#333">
          <path d="m29.51841,100.25799c-3.16925,-0.9242 -6.07473,-2.63179 -8.47249,-5.03153c-0.53151,-0.53151 -1.02535,-1.08484 -1.48348,-1.65801c-2.61592,4.65868 -1.94756,10.65606 2.01499,14.61663c3.96057,3.96057 9.96192,4.62893 14.61465,2.01301c-0.57515,-0.45417 -1.13046,-0.94998 -1.65801,-1.4815c-2.44338,-2.43941 -4.1113,-5.35679 -5.01567,-8.45861z" id="svg_4"/>
          <path d="m65.39163,59.31555l-4.73603,4.73801c0.09123,1.65206 0.10115,3.32593 0.01587,5.00773c0.74174,-0.03967 1.48745,-0.05553 2.24108,-0.05553c0.94403,0 1.88211,0.03173 2.81425,0.08726l4.72016,-4.72016l6.71532,6.71731c3.12364,0.8885 6.03308,2.00111 8.62124,3.20098c14.83479,-15.44564 29.51687,-40.61719 19.91392,-50.22014c-9.59105,-9.59303 -34.71698,5.04145 -50.16262,19.86038c1.22566,2.62187 2.34025,5.57495 3.22082,8.74618l6.63599,6.63797zm17.59351,7.48483l-7.48284,-7.48483l5.05533,-5.05533l7.04256,7.03859c-1.44183,1.84245 -2.97687,3.68093 -4.61505,5.50157zm8.85328,-11.36805l-6.22942,-6.22744l5.05533,-5.05732l5.00773,5.00972c-1.12253,2.03483 -2.4057,4.13907 -3.83364,6.27504zm9.72195,-22.17286c-0.18841,2.37793 -1.05509,5.51148 -2.56039,9.1111l-3.27635,-3.27436l5.83674,-5.83674zm-5.0593,-5.0593l-5.83277,5.83674l-3.27436,-3.27436c3.59565,-1.5053 6.73119,-2.37396 9.10713,-2.56237zm-15.8998,5.88434l5.00773,5.00972l-5.05732,5.05533l-6.22744,-6.22744c2.14192,-1.42993 4.24418,-2.71112 6.27702,-3.83761zm-12.14152,8.07981l7.03859,7.04058l-5.05533,5.05533l-7.48284,-7.48284c1.81865,-1.64016 3.65912,-3.17718 5.49958,-4.61307z" id="svg_5"/>
          <path d="m62.91255,73.13293c-0.87858,0 -1.76312,0.02975 -2.64964,0.08726c-1.13244,7.66729 -4.42862,15.35242 -11.08643,22.01023c-3.7563,3.76026 -8.75213,5.82682 -14.06529,5.82682c-0.31137,0 -0.62076,-0.00793 -0.92817,-0.02578c0.76554,1.72742 1.85435,3.34774 3.2704,4.76379c3.05819,3.06017 7.02273,4.55952 11.01107,4.55952c4.04189,0 8.10757,-1.53504 11.28079,-4.55952c21.09,-20.06069 39.08412,-16.13383 32.9261,-22.28987c-3.77216,-3.76423 -16.15763,-10.37246 -29.75883,-10.37246z" id="svg_6"/>
          <path d="m35.10724,96.92611c4.03395,0 8.06791,-1.53703 11.14593,-4.61505c19.89012,-19.89012 6.15604,-49.06191 0,-55.21795c-0.83495,-0.83297 -1.48348,-1.22367 -2.03086,-1.22367c-3.50244,0 -2.91738,15.91369 -20.25901,34.14977c-5.99936,6.30875 -6.15803,16.13581 0,22.28987c3.07802,3.07604 7.11197,4.61703 11.14394,4.61703z" id="svg_7"/>
      </g>
  </g>
</svg>