<svg width="100%" height="100%" viewBox="0 0 115 115" xmlns="http://www.w3.org/2000/svg">
    <g id="svg_49">
        <title>Cornfield medium</title>
            <rect fill="#848432" x="0" y="0" width="115" height="115" id="svg_50" ry="16" rx="16"/>
            <g fill="#333" id="svg_1">
                <path id="svg_4" d="m26.28983,90.29227c-2.82261,-0.82312 -5.41031,-2.34394 -7.54581,-4.48121c-0.47338,-0.47338 -0.9132,-0.96619 -1.32122,-1.47667c-2.3298,4.14914 -1.73455,9.49055 1.7946,13.01794c3.52738,3.52738 8.87233,4.12264 13.01617,1.79284c-0.51224,-0.4045 -1.00682,-0.84608 -1.47667,-1.31946c-2.17614,-2.1726 -3.66163,-4.77089 -4.46708,-7.53345l0.00001,0.00001z"/>
                <path id="svg_5" d="m58.23942,53.82791l-4.21803,4.21979c0.08125,1.47137 0.09009,2.96216 0.01413,4.46001c0.66061,-0.03533 1.32476,-0.04946 1.99596,-0.04946c0.84078,0 1.67625,0.02826 2.50644,0.07772l4.20389,-4.20389l5.98083,5.9826c2.78199,0.79132 5.37321,1.78224 7.67829,2.85087c13.21223,-13.75627 26.28846,-36.17468 17.73583,-44.72731c-8.54203,-8.54379 -30.91981,4.49004 -44.67608,17.68815c1.0916,2.3351 2.08429,4.96519 2.86854,7.78957l5.91018,5.91194l0,0.00001zm15.66922,6.66618l-6.6644,-6.66618l4.5024,-4.5024l6.27228,6.26874c-1.28413,1.64093 -2.65127,3.27833 -4.11028,4.89984zm7.88495,-10.12467l-5.54808,-5.54631l4.5024,-4.50418l4.46001,4.46178c-0.99975,1.81227 -2.14258,3.68636 -3.41434,5.58871zm8.65861,-19.7477c-0.1678,2.11784 -0.93969,4.90866 -2.28035,8.11457l-2.918,-2.91623l5.19835,-5.19835zm-4.50594,-4.50594l-5.19481,5.19835l-2.91623,-2.91623c3.20238,-1.34066 5.99497,-2.11431 8.11104,-2.28211l0,-0.00001zm-14.16076,5.24074l4.46001,4.46178l-4.50418,4.5024l-5.54631,-5.54631c1.90765,-1.27353 3.77997,-2.41459 5.59047,-3.41787l0.00001,0zm-10.81354,7.19608l6.26874,6.27052l-4.5024,4.5024l-6.6644,-6.6644c1.61974,-1.46077 3.2589,-2.82968 4.89806,-4.10852z"/>
                <path id="svg_6" d="m56.03149,66.13402c-0.78249,0 -1.57028,0.0265 -2.35984,0.07772c-1.00858,6.82868 -3.94424,13.67325 -9.87385,19.60286c-3.34545,3.34898 -7.79487,5.18951 -12.5269,5.18951c-0.27731,0 -0.55286,-0.00706 -0.82665,-0.02296c0.68181,1.53848 1.65153,2.98158 2.9127,4.24275c2.7237,2.72546 6.25462,4.06082 9.80673,4.06082c3.59981,0 7.2208,-1.36714 10.04695,-4.06082c18.78328,-17.86655 34.80929,-14.36919 29.32481,-19.85192c-3.35958,-3.35252 -14.39039,-9.23797 -26.50396,-9.23797l0,0.00001z"/>
                <path id="svg_7" d="m31.26739,87.32482c3.59274,0 7.18548,-1.36892 9.92684,-4.11028c17.71464,-17.71464 5.48272,-43.69576 0,-49.17849c-0.74363,-0.74186 -1.32122,-1.08983 -1.80873,-1.08983c-3.11936,0 -2.59829,14.17313 -18.04318,30.41464c-5.34318,5.61873 -5.4845,14.37096 0,19.85192c2.74136,2.7396 6.3341,4.11204 9.92507,4.11204z"/>
            </g>
    </g>
</svg>