<svg width="100%" height="100%"  viewBox="0 0 128 128" xmlns="http://www.w3.org/2000/svg">
 <g>
  <title>City hall</title>
  <rect id="svg_1" height="68.14833" width="82" y="48" x="25" fill="#aaa"/>
  <g id="svg_79" fill="#333" transform="matrix(0.1256729176034842,0,0,0.11860309471020845,-511.1542061689977,-589.7755503060845) ">
     <path id="svg_62" d="m4180.99547,5978.33431l818.3,0c27.6,0 50,-22.4 50,-50l0,-8c0,-27.6 -22.4,-50 -50,-50l-51.3,0l0,-371l-127.7,0l0,371l-68.4,0l0,-371l-127.6,0l0,371l-68.4,0l0,-371l-127.6,0l0,371l-68.4,0l0,-371l-127.6,0l0,371l-51.3,0c-27.6,0 -50,22.4 -50,50l0,8c0,27.6 22.4,50 50,50z"/>
     <path id="svg_63" d="m5010.19447,5360.03431l-389.1,-309c-9,-7.3 -20,-10.9 -31,-10.9c-11,0 -22,3.6 -31,10.8l-389.899,308.9c-12,9.5 -19,23.9 -19,39.2l0,20.3c0,27.6 22.4,50 50,50l32.1,0l127.6,0l68.4,0l127.6,0l68.401,0l127.6,0l68.4,0l127.6,0l31.5,0c27.799,0 50.299,-22.7 50,-50.6l-0.201,-20.2c-0.3,-15 -7.2,-29.2 -19.001,-38.5z"/>
  </g>
 </g>
</svg>