<svg width="100%" height="100%"  viewBox="0 0 128 128" xmlns="http://www.w3.org/2000/svg">
 <g>
  <title>crashedairplane</title>
  <path d="m43.1506,43.78682l-9.42702,-9.42702l9.42702,-9.42789c2.60328,-2.60328 6.82461,-2.60328 9.42703,0c2.60415,2.60328 2.60415,6.82461 0,9.42789l-9.42703,9.42702zm0,0" fill="#bf5757" id="svg_1"/>
  <path d="m96.00097,95.63633l-9.42703,-9.42703l9.42703,-9.42789c2.60328,-2.60328 6.82374,-2.60328 9.42702,0c2.60328,2.60415 2.60328,6.82461 0,9.42789l-9.42702,9.42703zm0,0" fill="#bf5757" id="svg_2"/>
  <path d="m32.43279,25.7444c-5.60413,-2.98088 -12.18656,-2.83852 -17.611,0.38194c-0.92968,0.55208 -1.53297,1.51909 -1.62065,2.59547c-0.08073,0.97829 0.27604,1.93836 0.96441,2.62672c0.06944,0.06858 0.14062,0.13542 0.21875,0.20052l41.87648,35.03884l17.46777,-18.90353l-41.29575,-21.93997l-0.00001,0.00001zm0,0" fill="#6ba4ad" id="svg_3"/>
  <path d="m104.61637,97.92711l-21.53632,-40.53881l-18.35839,17.84711l34.09007,40.7402c0.06424,0.07813 0.13108,0.14931 0.19965,0.21875c0.68836,0.6875 1.64843,1.04513 2.62672,0.9644c1.07638,-0.08767 2.04339,-0.6901 2.59547,-1.62065c3.22047,-5.42444 3.36283,-12.00687 0.38281,-17.611l-0.00001,0zm0,0" fill="#6ba4ad" id="svg_4"/>
  <path d="m116.67879,31.4119l-72.37455,66.76955l5.99909,13.46606c1.13367,2.53297 0.59982,5.53295 -1.33333,7.4661l-3.19963,3.13279c-1.53297,1.59982 -4.13279,1.19965 -5.19962,-0.59982l-12.06503,-19.79849l-19.79849,-12.0659c-1.86631,-1.13281 -2.1328,-3.66577 -0.59982,-5.19875l3.13279,-3.19963c1.93315,-1.93315 4.93313,-2.467 7.4661,-1.33333l13.46519,5.99909l66.7765,-72.36847c2.39929,-2.73349 5.79944,-4.19963 9.19873,-4.19963c3.19963,0 6.33243,1.19965 8.93224,3.79946c5.46611,5.46611 4.80032,13.53203 -0.40017,18.13096l0,0.00001zm0,0" fill="#ede9e8" id="svg_5"/>
  <path d="m116.67879,31.4119l-72.37455,66.76955l5.99909,13.46606c1.13367,2.53297 0.59982,5.53295 -1.33333,7.4661l-3.19963,3.13279c-1.53297,1.59982 -4.13279,1.19965 -5.19962,-0.59982l-12.06503,-19.79849l88.57323,-88.56716c5.46611,5.46611 4.80032,13.53203 -0.40017,18.13096l0.00001,0.00001zm0,0" fill="#b7b3b2" id="svg_6"/>
  <path d="m35.23746,98.44794c0,0.86718 -0.26649,1.7335 -0.93229,2.33332l-9.46609,9.46609c-1.26649,1.26649 -3.39929,1.26649 -4.73261,0c-1.26649,-1.33333 -1.26649,-3.46613 0,-4.73348l9.46522,-9.46522c1.26649,-1.26649 3.40015,-1.26649 4.73348,0c0.6658,0.66666 0.93229,1.53297 0.93229,2.39929zm0,0" fill="#6ba4ad" id="svg_7"/>
  <path transform="rotate(-21.94158363342285 86.73928833007807,83.49577331542969) " id="svg_8" d="m89.46194,73.70243c-0.05484,0.00173 -0.10784,0.00635 -0.1629,0.01183c-0.88105,0.0877 -1.65868,0.6465 -2.05372,1.47914l-0.20945,0.63011c0.04519,-0.21836 0.11457,-0.43014 0.20945,-0.63011c-0.70451,-0.72947 -1.69335,-1.06617 -2.67042,-0.90819c-0.97707,0.15798 -1.82561,0.79153 -2.28935,1.70988c-1.30913,-0.80579 -2.94099,-0.75699 -4.20344,0.12721c-1.26245,0.88419 -1.93533,2.44972 -1.73083,4.02917l0.13381,0.64195c-0.06047,-0.21031 -0.10563,-0.42426 -0.13381,-0.64195l-0.02036,0.05917c-1.0974,0.11952 -1.9974,0.97045 -2.23117,2.10925c-0.23377,1.1388 0.25232,2.30729 1.20431,2.89615l1.48648,0.36091c-0.51904,0.0427 -1.03723,-0.08303 -1.48648,-0.36091c-0.7343,0.82203 -0.90327,2.03901 -0.41889,3.04407c0.48438,1.00505 1.51884,1.58376 2.58606,1.45251l0.6487,-0.17158c-0.20872,0.08731 -0.42549,0.14413 -0.6487,0.17158c0.60585,1.11462 1.61043,1.9277 2.78969,2.25125c1.17926,0.32355 2.43183,0.13233 3.4762,-0.52953c0.852,1.34277 2.36417,2.04805 3.88055,1.81046c1.51637,-0.23759 2.76723,-1.3769 3.21149,-2.92277l0.15417,-0.86382c-0.02309,0.29346 -0.07318,0.58198 -0.15417,0.86382c1.04298,0.68355 2.35493,0.72207 3.43257,0.10058c1.07764,-0.62148 1.75005,-1.80658 1.75992,-3.09731l-0.38634,-1.92854l-1.52193,-1.30485c1.17684,0.73673 1.91877,1.85921 1.90827,3.23339c1.39932,0.01466 2.58794,-1.18364 3.12131,-2.55891c0.53337,-1.37526 0.3316,-2.94314 -0.52943,-4.12088c0.35714,-0.87687 0.33595,-1.87431 -0.05818,-2.73344c-0.39413,-0.85913 -1.12114,-1.49768 -1.99554,-1.74834c-0.19568,-1.13867 -1.00228,-2.05461 -2.06827,-2.35479c-1.06599,-0.30017 -2.20107,0.06997 -2.91477,0.95256l-0.43343,0.73069c0.11075,-0.26424 0.2554,-0.51053 0.43343,-0.73069c-0.5031,-0.69366 -1.2922,-1.08506 -2.11481,-1.05906l0,0z" fill="#3f3f3f"/>
  <path transform="rotate(-15.979084968566895 46.61427688598631,61.949279785156236) " id="svg_9" d="m52.15313,40.61525c-0.11156,0.00378 -0.21938,0.01384 -0.3314,0.02578c-1.79238,0.19105 -3.37435,1.40834 -4.17801,3.22219l-0.42609,1.37265c0.09192,-0.47569 0.23307,-0.93703 0.42609,-1.37265c-1.43322,-1.5891 -3.44489,-2.32256 -5.4326,-1.97842c-1.98771,0.34414 -3.71395,1.72428 -4.65736,3.72485c-2.66325,-1.75535 -5.98304,-1.64903 -8.55131,0.27711c-2.56828,1.92614 -3.93716,5.33653 -3.52113,8.77723l0.27222,1.39843c-0.12301,-0.45814 -0.21488,-0.92421 -0.27222,-1.39843l-0.04143,0.12889c-2.2325,0.26036 -4.06343,2.11405 -4.539,4.59484c-0.47557,2.48079 0.51332,5.02626 2.44999,6.30904l3.02403,0.78622c-1.05591,0.09301 -2.1101,-0.18086 -3.02403,-0.78622c-1.49383,1.79072 -1.83758,4.44183 -0.85217,6.63126c0.98541,2.18942 3.08988,3.4501 5.26098,3.16418l1.31968,-0.37377c-0.42461,0.1902 -0.8656,0.31398 -1.31968,0.37377c1.23252,2.42811 3.27619,4.19934 5.67523,4.90416c2.39904,0.70482 4.94722,0.28827 7.07185,-1.15354c1.73327,2.92513 4.80958,4.46152 7.89443,3.94395c3.08485,-0.51757 5.62954,-2.99947 6.53332,-6.36704l0.31365,-1.88176c-0.04696,0.63929 -0.14887,1.2678 -0.31365,1.88176c2.1218,1.48905 4.79078,1.57297 6.98308,0.21911c2.1923,-1.35386 3.56024,-3.93549 3.58031,-6.74726l-0.78596,-4.20117l-3.09616,-2.84252c2.39411,1.60491 3.90348,4.05014 3.88212,7.0437c2.84672,0.03193 5.26481,-2.57848 6.34987,-5.57438c1.08506,-2.9959 0.6746,-6.4114 -1.07705,-8.97701c0.72656,-1.9102 0.68345,-4.08305 -0.11835,-5.9546c-0.80181,-1.87155 -2.2808,-3.26258 -4.05966,-3.80862c-0.39809,-2.48051 -2.03899,-4.47581 -4.2076,-5.12972c-2.16861,-0.65391 -4.47778,0.15242 -5.9297,2.07509l-0.88176,1.59176c0.22531,-0.57562 0.51957,-1.11215 0.88176,-1.59176c-1.0235,-1.51108 -2.62881,-2.36372 -4.30229,-2.30709l0,-0.00001z" fill="#3f3f3f"/>
 </g>
</svg>