<svg width="100%" height="100%"  viewBox="0 0 128 128" xmlns="http://www.w3.org/2000/svg">
 <g>
  <title>Dark_Mausoleum</title>
  <rect id="svg_3" height="52.3125" width="26.4375" y="46.77678" x="53.59375" fill="#ff0000"/>
  <path id="svg_2" d="m111.2547,88.72968l-12.33647,-21.36188c-3.71923,-6.43926 -9.80256,-16.97979 -13.52179,-23.41905l-12.33647,-21.36188c-3.72249,-6.44252 -9.80583,-6.44252 -13.52505,0l-12.3332,21.36188c-3.71923,6.43926 -9.80583,16.98305 -13.52505,23.41905l-12.3332,21.36188c-3.71923,6.44579 -0.67593,11.71279 6.76253,11.71279l76.37966,0c7.44498,0 10.48502,-5.267 6.76906,-11.71279zm-41.43395,3.30779l-7.31764,0l0,-7.02375l7.31764,0l0,7.02375zm-0.35266,-12.19933l-6.60579,0l-0.65633,-30.05423l7.85968,0l-0.59756,30.05423z" fill="#3f3f3f"/>
 </g>
</svg>