<svg width="100%" height="100%" viewBox="0 0 102 102" xmlns="http://www.w3.org/2000/svg">
 <g>
  <title>Fastfood</title>
  <circle stroke="#AAA" stroke-width="4" fill="#AAA" cx="50.5" cy="50.5" r="48.5" id="svg_23"/>
  <path fill="#7f3f00" d="m18.49886,54.21142c-0.15883,-2.54126 -3.49422,-3.01774 -0.31766,-2.38243c3.17657,0.63531 58.60771,0.47648 58.49724,0.37975c-0.11047,-0.09674 -5.44853,12.32653 -5.55899,12.22979c-0.11047,-0.09674 -18.94895,8.03816 -18.94895,8.19699c0,0.15883 -23.18896,-5.24134 -23.29942,-5.33808c-0.11047,-0.09674 -10.37221,-13.08602 -10.37221,-13.08602l0,-0.00001z" id="svg_2"/>
  <g stroke="#333" fill="#333" id="svg_1">
   <path d="m47.24867,76.04574c9.69745,0 18.4939,-3.52891 24.89551,-9.23232l6.03247,0c8.93603,0 16.20628,-6.54353 16.20628,-14.58718c0,-6.25894 -5.65744,-11.35117 -12.6111,-11.35117l-2.77448,0l-63.49612,0c-2.02316,0 -3.6633,1.47628 -3.6633,3.29731c-0.00042,17.57493 15.88465,31.87336 35.41072,31.87336l0.00001,0zm35.21522,-28.53026c2.58654,0.30729 4.59163,2.30013 4.59163,4.71114c0,4.40688 -3.98325,7.99256 -8.87969,7.99256l-0.35065,0c2.47513,-3.80631 4.10392,-8.10912 4.63872,-12.7037zm-7.36821,-0.04579c-1.80032,12.38695 -13.6025,21.98181 -27.84701,21.98181c-14.24451,0 -26.0471,-9.59448 -27.84701,-21.98181l55.69401,0l0.00001,0z" id="svg_5"/>
   <path d="m78.11891,80.56593l-54.7043,0c-2.02316,0 -3.6633,1.47628 -3.6633,3.29731s1.64014,3.29731 3.6633,3.29731l54.7043,0c2.02316,0 3.6633,-1.47628 3.6633,-3.29731s-1.64014,-3.29731 -3.6633,-3.29731z" id="svg_6"/>
   <path d="m57.31772,38.59273c2.02316,0 3.6633,-1.47628 3.6633,-3.29731c0,-4.73839 1.00611,-6.95678 2.17073,-9.52522c1.27183,-2.80496 2.71352,-5.9842 2.71352,-12.01685c0,-1.82103 -1.64014,-3.29731 -3.6633,-3.29731c-2.02316,0 -3.6633,1.47628 -3.6633,3.29731c0,4.73839 -1.00611,6.95678 -2.17073,9.52522c-1.27183,2.80496 -2.71352,5.9842 -2.71352,12.01685c0.00042,1.82103 1.64056,3.29731 3.6633,3.29731z" id="svg_7"/>
   <path d="m38.24097,38.12673c2.02316,0 3.6633,-1.47628 3.6633,-3.29731c0,-4.73839 1.00611,-6.95678 2.17073,-9.52522c1.27183,-2.80496 2.71352,-5.9842 2.71352,-12.01685c0,-1.82103 -1.64014,-3.29731 -3.6633,-3.29731c-2.02316,0 -3.6633,1.47628 -3.6633,3.29731c0,4.73839 -1.00611,6.95678 -2.17073,9.52522c-1.27183,2.80496 -2.71352,5.9842 -2.71352,12.01685c0.00042,1.82103 1.64056,3.29731 3.6633,3.29731z" id="svg_8"/>
  </g>
 </g>
</svg>
