<?xml version="1.0" encoding="utf-8"?>
<svg width="90%" height="90%" viewBox="0 0 128 128" xmlns="http://www.w3.org/2000/svg">
  <g>
    <path style="fill: rgb(164, 169, 173);" d="M 64.085 18.567 C 64.085 17.073 62.863 15.85 61.369 15.85 L 27.74 15.85 C 26.247 15.85 25.024 17.073 25.024 18.567 L 25.024 28.269 C 25.024 29.764 26.247 30.987 27.74 30.987 L 61.369 30.987 C 62.863 30.987 64.085 29.764 64.085 28.269 L 64.085 18.567 Z"/>
    <rect x="11.183" y="30.987" style="fill: rgb(204, 193, 168);" width="70.144" height="82.326"/>
    <rect x="11.183" y="68.701" style="opacity: 0.1;" width="14.337" height="6.9"/>
    <rect x="61.214" y="86.373" style="opacity: 0.1;" width="14.337" height="6.9"/>
    <rect x="43.371" y="36.873" style="opacity: 0.1;" width="14.337" height="6.9"/>
    <rect x="54.045" y="60.569" style="opacity: 0.1;" width="14.337" height="6.9"/>
    <rect x="17.129" y="42.155" style="opacity: 0.1;" width="14.337" height="6.9"/>
    <rect x="16.3" y="101.381" style="opacity: 0.1;" width="14.337" height="6.9"/>
    <rect x="25.899" y="81.456" style="opacity: 0.1;" width="14.337" height="6.9"/>
    <path style="fill: rgb(84, 94, 103);" d="M 56.878 82.864 C 56.878 76.058 51.361 70.541 44.554 70.541 C 37.748 70.541 32.232 76.058 32.232 82.864 L 32.232 104.226 L 56.878 104.226 L 56.878 82.864 Z"/>
    <path style="fill: rgb(195, 176, 127);" d="M 28.798 110.25 L 28.798 105.584 C 28.798 104.837 29.41 104.226 30.157 104.226 L 58.953 104.226 C 59.699 104.226 60.311 104.837 60.311 105.584 L 60.311 110.25 L 28.798 110.25 Z"/>
    <g style="" transform="matrix(0.248709, 0, 0, 0.248709, 0, -0.031469)">
      <path style="fill: rgb(251, 250, 232);" d="M203.203,333.301c0-13.287-10.772-24.059-24.06-24.059c-13.287,0-24.059,10.772-24.059,24.059 H203.203z"/>
      <path style="fill: rgb(251, 250, 232);" d="M274.021,207.064c0-3.004-2.458-5.462-5.462-5.462H89.729c-3.004,0-5.462,2.458-5.462,5.462v35.345 c0,3.004,2.458,5.462,5.462,5.462H268.56c3.004,0,5.462-2.458,5.462-5.462v-35.345H274.021z"/>
    </g>
    <rect x="42.517" y="50.11" style="fill: rgb(51, 62, 72);" width="4.075" height="11.508"/>
    <path style="fill: rgb(187, 144, 104);" d="M 66.793 63.655 L 22.316 63.655 C 20.443 63.655 18.921 62.131 18.921 60.258 L 18.921 51.468 C 18.921 49.595 20.444 48.072 22.316 48.072 L 66.793 48.072 C 68.666 48.072 70.189 49.595 70.189 51.468 L 70.189 60.258 C 70.189 62.131 68.666 63.655 66.793 63.655 Z M 22.996 59.579 L 66.114 59.579 L 66.114 52.147 L 22.996 52.147 L 22.996 59.579 Z"/>
    <path style="fill: rgb(191, 134, 80);" d="M 81.328 27.817 C 81.328 26.323 80.105 25.1 78.611 25.1 L 10.498 25.1 C 9.004 25.1 7.781 26.323 7.781 27.817 L 7.781 34.156 C 7.781 35.65 9.004 36.872 10.498 36.872 L 78.611 36.872 C 80.105 36.872 81.328 35.65 81.328 34.156 L 81.328 27.817 Z"/>
    <rect x="75.551" y="20.458" style="fill: rgb(231, 214, 174);" width="41.686" height="92.853"/>
    <rect x="75.551" y="68.617" style="opacity: 0.1;" width="14.337" height="6.9"/>
    <rect x="99.729" y="97.933" style="opacity: 0.1;" width="14.337" height="6.9"/>
    <rect x="102.9" y="49.556" style="opacity: 0.1;" width="14.337" height="6.9"/>
    <rect x="78.631" y="35.646" style="opacity: 0.1;" width="14.337" height="6.9"/>
    <rect x="98.464" y="22.675" style="opacity: 0.1;" width="14.337" height="6.9"/>
    <path style="fill: rgb(251, 250, 232);" d="M 105.204 40.052 C 105.204 35.186 101.26 31.241 96.394 31.241 C 91.528 31.241 87.584 35.186 87.584 40.052 L 87.584 59.966 L 105.204 59.966 L 105.204 40.052 Z"/>
    <rect x="87.583" y="47.972" style="fill: rgb(51, 62, 72);" width="17.621" height="4.075"/>
    <path style="fill: rgb(170, 124, 81);" d="M 96.394 29.204 C 90.412 29.204 85.546 34.071 85.546 40.052 L 85.546 59.966 C 85.546 61.092 86.458 62.004 87.584 62.004 L 105.205 62.004 C 106.33 62.004 107.242 61.092 107.242 59.966 L 107.242 40.052 C 107.242 34.071 102.375 29.204 96.394 29.204 Z M 96.394 33.279 C 97.508 33.279 98.56 33.549 99.487 34.028 C 101.079 34.849 102.305 36.283 102.853 38.015 L 89.935 38.015 C 90.802 35.273 93.369 33.279 96.394 33.279 Z M 103.166 57.929 L 89.621 57.929 L 89.621 42.09 L 103.166 42.09 L 103.166 57.929 Z"/>
    <path style="fill: rgb(251, 250, 232);" d="M 105.204 79.354 C 105.204 74.489 101.26 70.545 96.394 70.545 C 91.528 70.545 87.584 74.489 87.584 79.354 L 87.584 99.269 L 105.204 99.269 L 105.204 79.354 Z"/>
    <rect x="87.583" y="87.275" style="fill: rgb(51, 62, 72);" width="17.621" height="4.075"/>
    <path style="fill: rgb(176, 124, 76);" d="M 96.394 68.507 C 90.412 68.507 85.546 73.373 85.546 79.354 L 85.546 99.269 C 85.546 100.394 86.458 101.306 87.584 101.306 L 105.205 101.306 C 106.33 101.306 107.242 100.394 107.242 99.269 L 107.242 79.354 C 107.242 73.373 102.375 68.507 96.394 68.507 Z M 96.394 72.582 C 99.419 72.582 101.985 74.575 102.853 77.317 L 89.935 77.317 C 90.802 74.575 93.369 72.582 96.394 72.582 Z M 103.166 97.231 L 89.621 97.231 L 89.621 81.392 L 103.166 81.392 L 103.166 97.231 Z"/>
    <path style="fill: rgb(164, 169, 173);" d="M 127.339 115.276 C 127.339 115.879 126.846 116.373 126.241 116.373 L 1.097 116.373 C 0.494 116.373 0 115.879 0 115.276 L 0 111.349 C 0 110.744 0.494 110.25 1.097 110.25 L 126.241 110.25 C 126.846 110.25 127.339 110.744 127.339 111.349 L 127.339 115.276 Z"/>
    <path style="fill: rgb(188, 145, 104);" d="M 120.366 13.621 C 120.366 12.127 119.144 10.904 117.65 10.904 L 75.137 10.904 C 73.644 10.904 72.421 12.127 72.421 13.621 L 72.421 19.96 C 72.421 21.454 73.644 22.676 75.137 22.676 L 117.65 22.676 C 119.144 22.676 120.366 21.454 120.366 19.96 L 120.366 13.621 Z"/>
    <path style="fill: rgb(209, 211, 211);" d="M 126.241 110.25 L 69.647 110.25 L 69.647 116.373 L 126.241 116.373 C 126.845 116.373 127.339 115.879 127.339 115.276 L 127.339 111.349 C 127.339 110.744 126.845 110.25 126.241 110.25 Z"/>
  </g>
</svg>