<svg width="90%" height="90%" viewBox="0 0 128 128" xmlns="http://www.w3.org/2000/svg">
  <g style="" transform="matrix(0.297663, 0, 0, 0.346026, 0, -13.856874)">
    <path style="fill: rgb(179, 116, 119);" d="M160,127.273L80,90.909L0,127.273v254.545h160V127.273z M72.727,287.273v14.545v7.273v43.636V360 h-7.273H29.091h-7.273v-7.273v-43.636v-7.273v-14.545V280h7.273h36.364h7.273V287.273z M72.727,170.909v14.545v7.273v43.636v7.273 h-7.273H29.091h-7.273v-7.273v-43.636v-7.273v-14.545v-7.273h7.273h36.364h7.273V170.909z M138.182,287.273v14.545v7.273v43.636 V360h-7.273H94.545h-7.273v-7.273v-43.636v-7.273v-14.545V280h7.273h36.364h7.273V287.273z M138.182,170.909v14.545v7.273v43.636 v7.273h-7.273H94.545h-7.273v-7.273v-43.636v-7.273v-14.545v-7.273h7.273h36.364h7.273V170.909z"/>
    <rect y="381.818" style="fill: rgb(179, 116, 119);" width="160" height="29.091"/>
    <polygon style="fill: rgb(112, 149, 149);" points="29.091,236.364 65.455,236.364 65.455,229.091 29.091,192.727 &#9;"/>
    <polygon style="fill:#80D7F0;" points="65.455,229.091 65.455,192.727 29.091,192.727 &#9;"/>
    <rect x="29.091" y="170.909" style="fill:#6EB1E2;" width="36.364" height="14.545"/>
    <path style="fill:#695A69;" d="M29.091,163.636h-7.273v7.273v14.545v7.273v43.636v7.273h7.273h36.364h7.273v-7.273v-43.636v-7.273 v-14.545v-7.273h-7.273H29.091z M65.455,229.091v7.273H29.091v-43.636h36.364V229.091z M65.455,185.455H29.091v-14.545h36.364 V185.455z"/>
    <polygon style="fill: rgb(206, 193, 83);" points="94.545,236.364 130.909,236.364 130.909,229.091 94.545,192.727 &#9;"/>
    <polygon style="fill: rgb(112, 149, 149);" points="130.909,229.091 130.909,192.727 94.545,192.727 &#9;"/>
    <rect x="94.545" y="170.909" style="fill:#6EB1E2;" width="36.364" height="14.545"/>
    <path style="fill:#695A69;" d="M94.545,163.636h-7.273v7.273v14.545v7.273v43.636v7.273h7.273h36.364h7.273v-7.273v-43.636v-7.273 v-14.545v-7.273h-7.273H94.545z M130.909,229.091v7.273H94.545v-43.636h36.364V229.091z M130.909,185.455H94.545v-14.545h36.364 V185.455z"/>
    <path style="fill: rgb(184, 167, 105);" d="M320,381.818V127.273l-80-36.364l-80,36.364v254.545H320z M247.273,236.364v-43.636v-7.273v-14.545 v-7.273h7.273h36.364h7.273v7.273v14.545v7.273v43.636v7.273h-7.273h-36.364h-7.273V236.364z M247.273,352.727v-43.636v-7.273 v-14.545V280h7.273h36.364h7.273v7.273v14.545v7.273v43.636V360h-7.273h-36.364h-7.273V352.727z M181.818,236.364v-43.636v-7.273 v-14.545v-7.273h7.273h36.364h7.273v7.273v14.545v7.273v43.636v7.273h-7.273h-36.364h-7.273V236.364z M181.818,352.727v-43.636 v-7.273v-14.545V280h7.273h36.364h7.273v7.273v14.545v7.273v43.636V360h-7.273h-36.364h-7.273V352.727z"/>
    <rect x="160" y="381.818" style="fill: rgb(184, 167, 105);" width="160" height="29.091"/>
    <path style="fill: rgb(137, 181, 161);" d="M320,127.273v254.545h160V127.273l-80-36.364L320,127.273z M392.727,287.273v14.545v7.273v43.636 V360h-7.273h-36.364h-7.273v-7.273v-43.636v-7.273v-14.545V280h7.273h36.364h7.273V287.273z M392.727,170.909v14.545v7.273v43.636 v7.273h-7.273h-36.364h-7.273v-7.273v-43.636v-7.273v-14.545v-7.273h7.273h36.364h7.273V170.909z M407.273,236.364v-43.636v-7.273 v-14.545v-7.273h7.273h36.364h7.273v7.273v14.545v7.273v43.636v7.273h-7.273h-36.364h-7.273V236.364z M407.273,352.727v-43.636 v-7.273v-14.545V280h7.273h36.364h7.273v7.273v14.545v7.273v43.636V360h-7.273h-36.364h-7.273V352.727z"/>
    <rect x="320" y="381.818" style="fill: rgb(137, 181, 161);" width="160" height="29.091"/>
    <polygon style="fill: rgb(112, 149, 149);" points="29.091,352.727 65.455,352.727 65.455,345.455 29.091,309.091 &#9;"/>
    <polygon style="fill:#80D7F0;" points="65.455,345.455 65.455,309.091 29.091,309.091 &#9;"/>
    <rect x="29.091" y="287.273" style="fill:#6EB1E2;" width="36.364" height="14.545"/>
    <path style="fill:#695A69;" d="M29.091,280h-7.273v7.273v14.545v7.273v43.636V360h7.273h36.364h7.273v-7.273v-43.636v-7.273 v-14.545V280h-7.273H29.091z M65.455,345.455v7.273H29.091v-43.636h36.364V345.455z M65.455,301.818H29.091v-14.545h36.364V301.818 z"/>
    <polygon style="fill: rgb(112, 149, 149);" points="94.545,352.727 130.909,352.727 130.909,345.455 94.545,309.091 &#9;"/>
    <polygon style="fill:#80D7F0;" points="130.909,345.455 130.909,309.091 94.545,309.091 &#9;"/>
    <rect x="94.545" y="287.273" style="fill:#6EB1E2;" width="36.364" height="14.545"/>
    <path style="fill:#695A69;" d="M94.545,280h-7.273v7.273v14.545v7.273v43.636V360h7.273h36.364h7.273v-7.273v-43.636v-7.273 v-14.545V280h-7.273H94.545z M130.909,345.455v7.273H94.545v-43.636h36.364V345.455z M130.909,301.818H94.545v-14.545h36.364 V301.818z"/>
    <polygon style="fill: rgb(200, 200, 62);" points="225.455,229.091 189.091,192.727 189.091,236.364 225.455,236.364 &#9;"/>
    <polygon style="fill: rgb(185, 177, 22);" points="225.455,192.727 189.091,192.727 225.455,229.091 &#9;"/>
    <rect x="189.091" y="170.909" style="fill:#6EB1E2;" width="36.364" height="14.545"/>
    <path style="fill:#695A69;" d="M225.455,243.636h7.273v-7.273v-43.636v-7.273v-14.545v-7.273h-7.273h-36.364h-7.273v7.273v14.545 v7.273v43.636v7.273h7.273H225.455z M189.091,170.909h36.364v14.545h-36.364V170.909z M189.091,192.727h36.364v36.364v7.273 h-36.364V192.727z"/>
    <polygon style="fill: rgb(210, 197, 54);" points="290.909,229.091 254.545,192.727 254.545,236.364 290.909,236.364 &#9;"/>
    <polygon style="fill: rgb(185, 177, 22);" points="290.909,192.727 254.545,192.727 290.909,229.091 &#9;"/>
    <rect x="254.545" y="170.909" style="fill:#6EB1E2;" width="36.364" height="14.545"/>
    <path style="fill: rgb(105, 104, 90);" d="M290.909,243.636h7.273v-7.273v-43.636v-7.273v-14.545v-7.273h-7.273h-36.364h-7.273v7.273v14.545 v7.273v43.636v7.273h7.273H290.909z M254.545,170.909h36.364v14.545h-36.364V170.909z M254.545,192.727h36.364v36.364v7.273 h-36.364V192.727z"/>
    <polygon style="fill: rgb(206, 193, 83);" points="225.455,345.455 189.091,309.091 189.091,352.727 225.455,352.727 &#9;"/>
    <polygon style="fill: rgb(112, 149, 149);" points="225.455,309.091 189.091,309.091 225.455,345.455 &#9;"/>
    <rect x="189.091" y="287.273" style="fill:#6EB1E2;" width="36.364" height="14.545"/>
    <path style="fill:#695A69;" d="M225.455,360h7.273v-7.273v-43.636v-7.273v-14.545V280h-7.273h-36.364h-7.273v7.273v14.545v7.273 v43.636V360h7.273H225.455z M189.091,287.273h36.364v14.545h-36.364V287.273z M189.091,309.091h36.364v36.364v7.273h-36.364 V309.091z"/>
    <polygon style="fill: rgb(185, 177, 22);" points="290.909,345.455 254.545,309.091 254.545,352.727 290.909,352.727 &#9;"/>
    <polygon style="fill: rgb(171, 176, 29);" points="290.909,309.091 254.545,309.091 290.909,345.455 &#9;"/>
    <rect x="254.545" y="287.273" style="fill:#6EB1E2;" width="36.364" height="14.545"/>
    <path style="fill: rgb(112, 107, 61);" d="M290.909,360h7.273v-7.273v-43.636v-7.273v-14.545V280h-7.273h-36.364h-7.273v7.273v14.545v7.273 v43.636V360h7.273H290.909z M254.545,287.273h36.364v14.545h-36.364V287.273z M254.545,309.091h36.364v36.364v7.273h-36.364 V309.091z"/>
    <polygon style="fill: rgb(112, 149, 149);" points="349.091,236.364 385.455,236.364 385.455,229.091 349.091,192.727 &#9;"/>
    <polygon style="fill:#80D7F0;" points="385.455,229.091 385.455,192.727 349.091,192.727 &#9;"/>
    <rect x="349.091" y="170.909" style="fill:#6EB1E2;" width="36.364" height="14.545"/>
    <path style="fill:#695A69;" d="M349.091,163.636h-7.273v7.273v14.545v7.273v43.636v7.273h7.273h36.364h7.273v-7.273v-43.636v-7.273 v-14.545v-7.273h-7.273H349.091z M385.455,229.091v7.273h-36.364v-43.636h36.364V229.091z M385.455,185.455h-36.364v-14.545h36.364 V185.455z"/>
    <polygon style="fill: rgb(112, 149, 149);" points="450.909,229.091 414.545,192.727 414.545,236.364 450.909,236.364 &#9;"/>
    <polygon style="fill:#80D7F0;" points="450.909,192.727 414.545,192.727 450.909,229.091 &#9;"/>
    <rect x="414.545" y="170.909" style="fill:#6EB1E2;" width="36.364" height="14.545"/>
    <path style="fill:#695A69;" d="M450.909,243.636h7.273v-7.273v-43.636v-7.273v-14.545v-7.273h-7.273h-36.364h-7.273v7.273v14.545 v7.273v43.636v7.273h7.273H450.909z M414.545,170.909h36.364v14.545h-36.364V170.909z M414.545,192.727h36.364v36.364v7.273 h-36.364V192.727z"/>
    <polygon style="fill: rgb(112, 149, 149);" points="349.091,352.727 385.455,352.727 385.455,345.455 349.091,309.091 &#9;"/>
    <polygon style="fill:#80D7F0;" points="385.455,345.455 385.455,309.091 349.091,309.091 &#9;"/>
    <rect x="349.091" y="287.273" style="fill:#6EB1E2;" width="36.364" height="14.545"/>
    <path style="fill:#695A69;" d="M349.091,280h-7.273v7.273v14.545v7.273v43.636V360h7.273h36.364h7.273v-7.273v-43.636v-7.273 v-14.545V280h-7.273H349.091z M385.455,345.455v7.273h-36.364v-43.636h36.364V345.455z M385.455,301.818h-36.364v-14.545h36.364 V301.818z"/>
    <polygon style="fill: rgb(112, 149, 149);" points="450.909,345.455 414.545,309.091 414.545,352.727 450.909,352.727 &#9;"/>
    <polygon style="fill:#80D7F0;" points="450.909,309.091 414.545,309.091 450.909,345.455 &#9;"/>
    <rect x="414.545" y="287.273" style="fill:#6EB1E2;" width="36.364" height="14.545"/>
    <path style="fill:#695A69;" d="M450.909,360h7.273v-7.273v-43.636v-7.273v-14.545V280h-7.273h-36.364h-7.273v7.273v14.545v7.273 v43.636V360h7.273H450.909z M414.545,287.273h36.364v14.545h-36.364V287.273z M414.545,309.091h36.364v36.364v7.273h-36.364 V309.091z"/>
    <polygon style="fill:#695A69;" points="458.182,95.537 458.182,69.091 436.364,69.091 436.364,85.62 400,69.091 320,105.455 &#10;&#9;&#9;298.182,95.537 298.182,69.091 276.364,69.091 276.364,85.62 240,69.091 160,105.455 138.182,95.537 138.182,69.091 &#10;&#9;&#9;116.364,69.091 116.364,85.62 80,69.091 0,105.455 0,127.273 80,90.909 160,127.273 240,90.909 320,127.273 400,90.909 &#10;&#9;&#9;480,127.273 480,105.455 &#9;"/>
  </g>
  <g/>
  <g/>
  <g/>
  <g/>
  <g/>
  <g/>
  <g/>
  <g/>
  <g/>
  <g/>
  <g/>
  <g/>
  <g/>
  <g/>
  <g/>
</svg>