<svg width="90%" height="90%"  viewBox="0 0 128 128" xmlns="http://www.w3.org/2000/svg">
  <g style="" transform="matrix(0.248462, 0, 0, 0.248462, 6.241744, 3.441221)">
    <g>
      <path d="M129.471,399.059c-7.813-13.499-22.4-22.588-39.118-22.588c-24.951,0-45.177,20.226-45.177,45.177 c0,24.951,20.226,45.176,45.177,45.176c16.718,0,31.306-9.09,39.118-22.588h51.235v-45.176H129.471z" style="fill: rgb(173, 50, 153);"/>
    </g>
  </g>
  <g style="" transform="matrix(0.248462, 0, 0, 0.248462, 6.241744, 3.441221)">
    <g>
      <path d="M129.471,67.765c-7.813-13.499-22.4-22.588-39.118-22.588c-24.951,0-45.177,20.226-45.177,45.177 c0,24.951,20.226,45.176,45.177,45.176c16.718,0,31.306-9.09,39.118-22.588h51.235V67.765H129.471z" style="fill: rgb(173, 50, 153);"/>
    </g>
  </g>
  <g style="" transform="matrix(0.248462, 0, 0, 0.248462, 6.241744, 3.441221)">
    <g>
      <path d="M358.054,125.801h-25.615v21.007h24.666c5.201,0,10.029-3.843,10.029-10.3 C367.134,129.834,362.683,125.801,358.054,125.801z" style="fill: rgb(173, 50, 153);"/>
    </g>
  </g>
  <g style="" transform="matrix(0.248462, 0, 0, 0.248462, 6.241744, 3.441221)">
    <g>
      <path d="M355.072,88.397h-22.633v19.921h21.82c4.831,0,9.352-3.063,9.352-10.029C363.61,91.734,359.404,88.397,355.072,88.397z" style="fill: rgb(173, 50, 153);"/>
    </g>
  </g>
  <g style="" transform="matrix(0.248462, 0, 0, 0.248462, 6.241744, 3.441221)">
    <g>
      <path d="M352.09,365.871h-19.652v26.291h20.329c4.378,0,9.623-4.334,9.623-13.28C362.389,370.071,356.518,365.871,352.09,365.871z " style="fill: rgb(173, 50, 153);"/>
    </g>
  </g>
  <g style="" transform="matrix(0.248462, 0, 0, 0.248462, 6.241744, 3.441221)">
    <g>
      <path d="M225.882,0v512h240.941V0H225.882z M310.212,69.421h53.534c9.588,0,21.956,8.195,21.956,24.668 c0,13.583-9.216,20.149-13.824,22.227c5.51,1.626,17.89,7.073,17.89,24.666c0,6.596-3.415,24.666-32.663,24.666h-46.893V69.421z M365.372,442.58v-0.002l-18.432-31.035h-14.502v31.035h-22.227v-96.226h43.369c21.384,0,31.443,19.953,31.443,32.529 c0,18.671-13.28,26.564-15.72,27.919l21.143,35.78H365.372z M368.67,304.038l-7.454-21.551h-29.952l-7.319,21.551h-22.769 l35.104-96.226h20.057l35.104,96.226H368.67z" style="fill: rgb(173, 50, 153);"/>
    </g>
  </g>
  <g style="" transform="matrix(0.248462, 0, 0, 0.248462, 6.241744, 3.441221)">
    <g>
      <polygon points="346.309,233.156 334.788,267.174 357.557,267.174 &#9;&#9;" style="fill: rgb(173, 50, 153);"/>
    </g>
  </g>
</svg>