<svg width="100%" height="100%"  viewBox="0 0 128 128" xmlns="http://www.w3.org/2000/svg">
 <g>
  <title>DriveIn</title>
  <rect id="svg_2" height="111" width="106" y="6.91071" x="9.28571" fill="#d8d888"/>
  <path fill="#333" d="m115.89084,2.01355l-103.48265,0c-5.19295,0 -9.40751,4.24903 -9.40751,9.48444l0,104.32881c0,5.23541 4.21456,9.48444 9.40751,9.48444l103.48265,0c5.19295,0 9.40751,-4.24903 9.40751,-9.48444l0,-104.32881c0,-5.23541 -4.21456,-9.48444 -9.40751,-9.48444zm-75.40592,112.18193l-18.81503,0l0,-66.39107l18.81503,0l0,66.39107zm-9.40751,-73.50439c-6.5053,0 -11.75939,-5.30655 -11.75939,-11.85555s5.25409,-11.85555 11.75939,-11.85555s11.75939,5.30655 11.75939,11.85555s-5.25409,11.85555 -11.75939,11.85555zm75.26011,73.50439l-18.81503,0l0,-40.30886c0,-1.89689 -1.89561,-5.00304 -3.23148,-5.75231c-1.76391,-1.00061 -5.93144,-1.08597 -7.83176,-0.16124l-7.75179,3.76058l0,42.46182l-18.81503,0l0,-66.39107l18.81503,0l0,2.91172c7.44605,-3.42862 17.7802,-3.09192 24.7888,0.87257c7.44134,4.2016 12.84126,13.58171 12.84126,22.29791l0,40.30886l0,0.00001z" id="svg_1"/>
 </g>
</svg>