<svg width="80%" height="80%" viewBox="0 0 128 128" xmlns="http://www.w3.org/2000/svg">
 <g>
  <title>Fastfood</title>
  <circle id="svg_23" r="74" cy="64" cx="64" fill="#AAA"/>
  <g id="svg_1">
   <path stroke="#333" id="svg_5" d="m57.12095,107.04343c14.4889,0 27.63162,-5.27253 37.19624,-13.79395l9.01308,0c13.35127,0 24.21371,-9.77665 24.21371,-21.79462c0,-9.35145 -8.45275,-16.95972 -18.84217,-16.95972l-4.14534,0l-94.86918,0c-3.02279,0 -5.47331,2.2057 -5.47331,4.92649c-0.00063,26.2586 23.73316,47.6218 52.90695,47.6218zm52.61485,-42.62689c3.86454,0.45912 6.86032,3.43661 6.86032,7.03889c0,6.5843 -5.95135,11.94164 -13.2671,11.94164l-0.5239,0c3.69808,-5.68698 6.13164,-12.11579 6.93068,-18.98053zm-11.0088,-0.06842c-2.68985,18.50727 -20.32341,32.84289 -41.60605,32.84289c-21.28264,0 -38.91682,-14.33505 -41.60605,-32.84289l83.21209,0z" fill="black"/>
   <path stroke="#333" id="svg_6" d="m103.24399,113.79702l-81.73337,0c-3.02279,0 -5.47331,2.2057 -5.47331,4.92649s2.45052,4.92649 5.47331,4.92649l81.73337,0c3.02279,0 5.47331,-2.2057 5.47331,-4.92649s-2.45052,-4.92649 -5.47331,-4.92649z" fill="black"/>
   <path stroke="#333" id="svg_7" d="m72.16505,51.08511c3.02279,0 5.47331,-2.2057 5.47331,-4.92649c0,-7.0796 1.50323,-10.39409 3.24328,-14.23158c1.90024,-4.19088 4.05425,-8.94096 4.05425,-17.9543c0,-2.72079 -2.45052,-4.92649 -5.47331,-4.92649c-3.02279,0 -5.47331,2.2057 -5.47331,4.92649c0,7.0796 -1.50323,10.39409 -3.24328,14.23158c-1.90024,4.19088 -4.05425,8.94096 -4.05425,17.9543c0.00063,2.72079 2.45115,4.92649 5.47331,4.92649z" fill="black"/>
   <path stroke="#333" id="svg_8" d="m43.6626,50.38886c3.02279,0 5.47331,-2.2057 5.47331,-4.92649c0,-7.0796 1.50323,-10.39409 3.24328,-14.23158c1.90024,-4.19088 4.05425,-8.94096 4.05425,-17.9543c0,-2.72079 -2.45052,-4.92649 -5.47331,-4.92649c-3.02279,0 -5.47331,2.2057 -5.47331,4.92649c0,7.0796 -1.50323,10.39409 -3.24328,14.23158c-1.90024,4.19088 -4.05425,8.94096 -4.05425,17.9543c0.00063,2.72079 2.45115,4.92649 5.47331,4.92649z" fill="black"/>
  </g>
 </g>

</svg>
