<svg width="100%" height="100%"  viewBox="0 0 115 115" xmlns="http://www.w3.org/2000/svg">
 <g>
  <title>Fire station</title>
  <g id="svg_3">
   <rect fill="#aaa" ry="32" rx="32" x="32" y="0" height="52" width="52" id="rect_01"/>
   <g id="svg_2">
    <path id="svg_1" d="m108.3488,51.29335l-101.7244,0c-1.27669,0 -2.31299,1.0792 -2.31299,2.41292l0,57.96618c0,1.33394 1.0363,2.41655 2.31299,2.41655l101.72462,0c1.27691,0 2.31321,-1.08259 2.31321,-2.41655l0,-57.96618c-0.00021,-1.33372 -1.03653,-2.41292 -2.31342,-2.41292z" fill="#8B3430"/>
    <path id="svg_7" d="m85.23144,65.78489l-55.48602,0c-1.28015,0 -2.31299,1.0792 -2.31299,2.41292l0,45.89118l60.10897,0l0,-45.89096c-0.00021,-1.33394 -1.03653,-2.41314 -2.30996,-2.41314z" fill="#444"/>
    <path id="svg_8" d="m85.23144,65.78489l-55.48602,0c-1.28015,0 -2.31299,1.0792 -2.31299,2.41292l0,16.90786l60.10897,0l0,-16.90786c-0.00021,-1.33372 -1.03653,-2.41292 -2.30996,-2.41292z" fill="#9D7A4F"/>
    <path id="svg_10" d="m110.662,56.1228l-106.35083,0c-0.79939,0 -1.54438,-0.43521 -1.96424,-1.14622c-0.42332,-0.71101 -0.4606,-1.5991 -0.10166,-2.34929l4.62295,-9.66232c0.39276,-0.81721 1.19215,-1.33394 2.06936,-1.33394l97.10167,0c0.87374,0 1.67313,0.5165 2.06567,1.33394l4.62295,9.66232c0.35895,0.74996 0.32167,1.63805 -0.09819,2.34929c-0.42332,0.71101 -1.16831,1.14622 -1.9677,1.14622l0.00001,0z" fill="#444"/>
    <path id="svg_11" d="m57.4892,7.61695c-10.20071,0 -18.49808,8.71059 -18.49808,19.41996c0,10.71321 8.29738,19.42358 18.49808,19.42358c10.19572,0 18.4931,-8.71059 18.4931,-19.42358c0,-10.70937 -8.29738,-19.41996 -18.4931,-19.41996z" fill="#813430"/>
    <path id="svg_12" d="m64.57232,27.55002c-3.34929,-3.72196 -1.53072,-10.0973 -1.51707,-10.15391c0.2575,-0.84914 0.044,-1.77255 -0.5486,-2.4093s-1.47328,-0.88107 -2.29088,-0.63675c-5.88967,1.75852 -9.68959,6.78225 -10.51262,13.69902c-0.58914,-0.50246 -1.38853,-0.67931 -2.13699,-0.44224c-0.90083,0.28667 -1.54785,1.11815 -1.62913,2.10157c-0.50786,6.07826 0.41313,10.39461 2.81435,13.18953c1.95404,2.27139 4.77511,3.41785 8.61904,3.49914c0.088,0 0.17948,0.00362 0.26748,0.00362c3.33759,0 7.86907,-2.60765 9.67745,-6.97337c0.93508,-2.25758 1.82247,-6.80377 -2.74303,-11.87733l0.00001,0.00001z" fill="#9D7A4F"/>
   </g>
  </g>
 </g>
</svg>