<svg width="90%" height="90%"  viewBox="0 0 128 128" xmlns="http://www.w3.org/2000/svg">
 <g>
  <title>Fire station</title>
  <g id="svg_2">
   <path d="m120.80708,53.09171l-113.64101,0c-1.42625,0 -2.58395,1.11704 -2.58395,2.49752l0,59.9985c0,1.38071 1.1577,2.50127 2.58395,2.50127l113.64125,0c1.42649,0 2.58419,-1.12055 2.58419,-2.50127l0,-59.9985c-0.00024,-1.38048 -1.15795,-2.49752 -2.58443,-2.49752z" fill="#8B3430" id="svg_1"/>
   <path d="m94.98162,68.09133l-61.98598,0c-1.43012,0 -2.58395,1.11704 -2.58395,2.49752l0,47.50014l67.15049,0l0,-47.49991c-0.00024,-1.38071 -1.15795,-2.49775 -2.58056,-2.49775z" fill="#444" id="svg_7"/>
   <path d="m94.98162,68.09133l-61.98598,0c-1.43012,0 -2.58395,1.11704 -2.58395,2.49752l0,17.50066l67.15049,0l0,-17.50066c-0.00024,-1.38048 -1.15795,-2.49752 -2.58056,-2.49752z" fill="#FFCE74" id="svg_8"/>
   <path d="m123.39127,58.09049l-118.8094,0c-0.89304,0 -1.7253,-0.45047 -2.19434,-1.18641c-0.47291,-0.73594 -0.51456,-1.65517 -0.11357,-2.43166l5.16451,-10.00108c0.43877,-0.84586 1.33181,-1.38071 2.31178,-1.38071l108.47674,0c0.97609,0 1.86913,0.53461 2.30766,1.38071l5.16451,10.00108c0.401,0.77625 0.35935,1.69548 -0.10969,2.43166c-0.47291,0.73594 -1.30517,1.18641 -2.19821,1.18641z" fill="#444" id="svg_10"/>
   <path d="m63.98948,7.884c-11.39568,0 -20.66506,9.01599 -20.66506,20.10083c0,11.08882 9.26938,20.10458 20.66506,20.10458c11.39011,0 20.65949,-9.01599 20.65949,-20.10458c0,-11.08484 -9.26938,-20.10083 -20.65949,-20.10083z" fill="#8B3430" id="svg_11"/>
   <path d="m71.90236,28.51593c-3.74165,-3.85245 -1.71004,-10.45132 -1.69479,-10.50991c0.28767,-0.87891 0.04916,-1.8347 -0.61287,-2.49377s-1.64587,-0.91196 -2.55925,-0.65907c-6.57962,1.82017 -10.82469,7.02004 -11.74413,14.17931c-0.65816,-0.52008 -1.55119,-0.70313 -2.38733,-0.45774c-1.00636,0.29672 -1.72917,1.15735 -1.81998,2.17525c-0.56735,6.29137 0.46153,10.75905 3.14404,13.65196c2.18295,2.35103 5.3345,3.53768 9.62873,3.62182c0.09831,0 0.2005,0.00375 0.29881,0.00375c3.72858,0 8.7909,-2.69908 10.81113,-7.21786c1.04462,-2.33673 2.03597,-7.04231 -3.06437,-12.29375z" fill="#FFCE74" id="svg_12"/>
  </g>
 </g>
</svg>