<svg width="100%" height="100%"  viewBox="0 0 128 128" xmlns="http://www.w3.org/2000/svg">
 <g>
  <title>FlexGym</title>
  <g id="svg_1">
   <path d="m71.17188,6.53965l49.9421,49.94186c4.14503,4.14503 4.14503,10.86641 0,15.01144l-50.07011,50.06987c-4.14503,4.14503 -10.86641,4.14503 -15.01144,0l-49.76009,-49.76009c-4.31547,-4.31547 -4.31547,-11.31505 0,-15.63076l49.63232,-49.63232c4.2147,-4.21687 11.05035,-4.21687 15.26722,0" fill="#d6bd62" id="svg_2"/>
   <polygon points="45.577964782714844,68.47638702392578 80.933837890625,68.47638702392578 80.933837890625,58.374507904052734 45.577964782714844,58.374507904052734 " fill="#BDC3C7" id="svg_3"/>
   <path d="m27.05988,76.33289l0,0c-3.7207,0 -6.73552,-3.01482 -6.73552,-6.73552l0,-13.47074c0,-3.7207 3.01482,-6.73552 6.73552,-6.73552s6.73552,3.01482 6.73552,6.73552l0,13.47074c0,3.7207 -3.01482,6.73552 -6.73552,6.73552" fill="#546A79" id="svg_4"/>
   <path d="m40.81216,83.63371l0,0c-3.87606,0 -7.01677,-3.14071 -7.01677,-7.01677l0,-25.26011c0,-3.87606 3.14071,-7.01677 7.01677,-7.01677c3.87606,0 7.01677,3.14071 7.01677,7.01677l0,25.26011c0,3.87606 -3.14071,7.01677 -7.01677,7.01677" fill="#38454F" id="svg_5"/>
   <path d="m96.92244,50.51611l0,0c3.56533,0 6.45427,2.88893 6.45427,6.45427l0,12.90825c0,3.56533 -2.88893,6.45427 -6.45427,6.45427c-3.56533,0 -6.45427,-2.88893 -6.45427,-6.45427l0,-12.90825c0,-3.56533 2.88893,-6.45427 6.45427,-6.45427" fill="#546A79" id="svg_6"/>
   <path d="m84.2954,45.35279l0,0c3.7207,0 6.73552,3.01482 6.73552,6.73552l0,24.24762c0,3.7207 -3.01482,6.73552 -6.73552,6.73552s-6.73552,-3.01482 -6.73552,-6.73552l0,-24.24762c0,-3.7207 3.01482,-6.73552 6.73552,-6.73552" fill="#38454F" id="svg_7"/>
  </g>
 </g>
</svg>