<svg width="100%" height="100%"  viewBox="0 0 128 128" xmlns="http://www.w3.org/2000/svg">
 <g>
  <title>Football stadium</title>
  <path id="svg_1" stroke="#333333" stroke-width="5" fill="#5e7a6b" d="m136.71695,113.0131l52.08459,0c7.76174,14.09224 15.59806,28.18448 23.43932,42.27129c0.81785,1.47175 1.64214,2.9435 2.46049,4.42068c7.45505,13.38205 14.9106,26.7641 22.30935,40.12292c0.81785,1.47175 1.63671,2.94893 2.44912,4.42068c4.67651,8.46107 9.33079,16.91078 13.94458,25.35457c0.07407,0.12494 0.14174,0.25583 0.2099,0.38077c0.08544,0.15359 0.16496,0.30127 0.2499,0.45436c-21.87721,0.19903 -43.46992,0.19903 -65.19946,0l-25.29777,0c-53.92526,0.19903 -108.27724,0.19903 -161.78766,0l-0.57932,0c4.72788,-8.78506 9.52932,-17.47282 14.44438,-26.19022c0.82378,-1.47175 1.65941,-2.9435 2.49457,-4.42068c4.02311,-7.10292 8.12574,-14.2399 12.32516,-21.46777c2.84126,-6.2505 6.2505,-11.36457 9.09176,-17.61506c0.19903,-0.3467 0.39807,-0.69339 0.59118,-1.04009c0.84108,-1.47175 1.67621,-2.94893 2.51136,-4.42068c7.94991,-14.09224 15.55214,-28.17905 23.60429,-42.27129l52.84565,0l17.80865,0.0005l0,0l-0.00004,0.00002z"/>
  <g id="svg_2">
   <path id="svg_3" fill="#AAA" d="m214.70136,159.70507l-174.75484,0c0.84108,-1.47175 1.67621,-2.94893 2.51136,-4.42068l169.78301,0c0.81836,1.47175 1.64214,2.943 2.46049,4.42068l-0.00002,0z"/>
   <path id="svg_4" fill="#AAA" d="m239.45933,204.24867l-224.01497,0c0.82378,-1.47175 1.65941,-2.9435 2.49457,-4.42068l219.07127,0c0.81836,1.47175 1.63671,2.94943 2.44912,4.42068l0.00002,0z"/>
  </g>
  <path id="svg_5" fill="#333" d="m153.86974,40.33241l0,39.54312l-21.48852,0l0,19.05174l-8.4823,0l0,-19.05174l-22.90396,0l0,-39.54312c0,-2.34294 1.89797,-4.24141 4.24141,-4.24141c1.17148,0 2.23084,0.47461 2.99881,1.2421c0.76797,0.7655 1.24308,1.82735 1.24308,2.99881l0,31.22082l35.90968,0l0,-31.22034c0,-2.34294 1.89797,-4.24141 4.24141,-4.24141c1.17148,0 2.23281,0.47461 2.99881,1.2421c0.7665,0.7665 1.2416,1.82783 1.2416,2.99931l-0.00002,0.00002z"/>
  <path id="svg_6" fill="#787780" d="m152.62666,37.3336c-0.7655,-0.76797 -1.82735,-1.2421 -2.99881,-1.2421c-2.34294,0 -4.24141,1.89797 -4.24141,4.24141l0,31.22082l-12.943,0l0,8.3218l21.4253,0l0,-39.54312c0.00098,-1.17148 -0.47413,-2.23281 -1.2421,-2.99881l0.00002,0z"/>
  <rect id="svg_7" fill="#FF633E" height="39.18407" width="19.0389" y="98.92628" x="117.91018"/>
  <rect id="svg_8" fill="#AAA" height="7.2486" width="19.0389" y="116.81445" x="117.91018"/>
 </g>
</svg>