<svg width="200%" height="200%"  viewBox="0 0 128 128" xmlns="http://www.w3.org/2000/svg">
 <g>
  <title>Football stadium</title>
  <rect fill="#7f7f7f" x="45.36341" y="70.73829" width="35.9358" height="28.95117" id="svg_5"/>
  <path fill="#b2b2b2" d="m9.24611,54.0127l19.2057,-9.16211l65.33783,-0.47461l23.10159,9.25488l-7.93388,6.40723l-32.20222,6.64453l-46.20318,-2.13574l-21.46814,-7.35645l0.16229,-3.17773l0.00002,0z" id="svg_4"/>
  <g id="svg_1">
   <path id="svg_3" d="m122.99879,32.44081l-9.74869,-6.15532c-0.73595,-0.46376 -1.7255,-0.54166 -2.54918,-0.19293c-0.82368,0.34874 -1.34531,1.05872 -1.34531,1.83429l0,18.39613c-8.31061,-2.11339 -20.41839,-3.12286 -30.1865,-3.59874c-0.24859,-0.16004 -0.53625,-0.28718 -0.85292,-0.36105c-0.66786,-0.156 -1.34531,-0.04521 -1.90098,0.23794c-4.65489,-0.19293 -8.54961,-0.26679 -10.92812,-0.29142l0,-5.14565l8.77375,-5.53978c0.61416,-0.38567 0.97493,-0.99716 0.97493,-1.64135c0,-0.64419 -0.36077,-1.25568 -0.97493,-1.64135l-9.74869,-6.15532c-0.73115,-0.46781 -1.7255,-0.53763 -2.54918,-0.19293c-0.8287,0.34874 -1.35011,1.05872 -1.35011,1.83429l0,18.48231c-2.37874,0.02866 -6.27323,0.10253 -10.92812,0.29142c-0.55567,-0.28314 -1.23312,-0.3899 -1.90098,-0.23794c-0.32171,0.07387 -0.60936,0.20101 -0.85292,0.36105c-11.91767,0.58264 -27.33023,1.95335 -35.06095,5.15816l0,-6.61908l8.77375,-5.53978c0.61896,-0.38567 0.97493,-0.99716 0.97493,-1.64135c0,-0.64419 -0.36077,-1.25568 -0.97493,-1.64135l-9.74869,-6.15532c-0.73595,-0.46376 -1.71568,-0.54166 -2.54918,-0.19293c-0.82414,0.34874 -1.34577,1.05872 -1.34577,1.83429l0,24.62127c0,0.04924 0.0048,0.13137 0.01462,0.22563l4.84499,36.70628c0,6.34825 19.21931,8.76518 34.12006,9.68847l0,-13.79195c0,-3.3937 3.28033,-6.15532 7.31146,-6.15532l19.49715,0c4.03112,0 7.31146,2.76162 7.31146,6.15532l0,13.80426c14.90075,-0.90272 34.11526,-3.27059 34.10544,-9.47515l4.83036,-36.59125c0,-0.01635 0.0048,-0.03693 0.0048,-0.05328c0.00982,-0.09445 0.02445,-0.19293 0.03404,-0.28314c0.00982,-0.09445 0.01462,-0.17639 0.01462,-0.22563c0,-1.87949 -1.85231,-3.41409 -4.87423,-4.66573l0,-6.61908l8.78358,-5.54383c0.61416,-0.38567 0.97493,-0.99716 0.97493,-1.64135c0.00023,-0.64458 -0.36032,-1.25588 -0.97448,-1.64174l-0.00004,-0.00001zm-111.02701,20.12385c0.79946,-0.91926 4.19198,-2.08877 9.97283,-3.16788c0.06831,0.1108 0.10715,0.22986 0.19992,0.32835l6.7021,7.054c-10.05074,-1.30512 -15.85124,-3.00398 -16.87485,-4.21447zm23.74282,4.96522c-0.06329,-0.08618 -0.08773,-0.19293 -0.17068,-0.27911l-8.28137,-8.71593c5.2398,-0.73864 11.71775,-1.37476 19.42403,-1.75638l3.78733,11.68683c-5.46897,-0.20081 -10.39209,-0.52916 -14.75932,-0.93542l0,0.00001zm34.80254,1.08757c-0.58012,0.01231 -1.13076,0.0329 -1.7207,0.04097c-1.86694,0.02866 -3.78254,0.04521 -5.7516,0.04521c-1.97409,0 -3.8945,-0.01635 -5.76623,-0.04521c-0.58492,-0.00827 -1.13076,-0.02866 -1.70608,-0.04097l-3.89952,-12.0398c3.57279,-0.11906 7.36012,-0.18466 11.37183,-0.18466c4.01148,0 7.79881,0.06559 11.37183,0.18466l-3.89952,12.0398l0.00001,0zm19.85793,-1.08334c-0.59954,0.05752 -1.17463,0.11484 -1.79862,0.16831c-0.66283,0.05752 -1.37935,0.10675 -2.06663,0.156c-0.78964,0.06156 -1.55985,0.12311 -2.38354,0.18062c-0.82368,0.05328 -1.70106,0.09849 -2.55422,0.14773c-0.74097,0.04097 -1.45247,0.09021 -2.21789,0.12715c-0.99436,0.04924 -2.04721,0.08618 -3.08543,0.12715c-0.21934,0.00827 -0.42886,0.01635 -0.6482,0.02462l3.78733,-11.69107c7.7161,0.38567 14.20365,1.01351 19.44848,1.73176l-8.31061,8.74882c-0.08294,0.08598 -0.10739,0.1885 -0.17068,0.27892l0.00001,-0.00001zm23.8694,-5.17047l-0.01462,0.05328c-0.04387,0.06559 -0.13641,0.13946 -0.20952,0.20928c-0.08294,0.0779 -0.14143,0.15177 -0.25841,0.2339c-0.10236,0.06983 -0.24859,0.14368 -0.3754,0.21332c-0.15605,0.08618 -0.29246,0.17235 -0.48736,0.26256c-0.15103,0.06983 -0.35095,0.14368 -0.52163,0.21332c-0.22917,0.09445 -0.44348,0.1887 -0.71652,0.28718c-0.19992,0.07387 -0.44851,0.14368 -0.67266,0.21755c-0.30708,0.09849 -0.59954,0.20101 -0.94569,0.29949c-0.24859,0.07387 -0.54585,0.14368 -0.81888,0.21755c-0.3802,0.10253 -0.74577,0.20524 -1.16983,0.30777c-0.30229,0.07387 -0.6482,0.14368 -0.96991,0.21755c-0.45811,0.10253 -0.8968,0.20524 -1.39397,0.30777c-0.33153,0.06559 -0.7067,0.13137 -1.05285,0.20101c-0.54585,0.10675 -1.0821,0.20928 -1.67181,0.3118c-0.3802,0.06559 -0.80426,0.12715 -1.19908,0.19293c-0.61416,0.09849 -1.20891,0.20101 -1.86694,0.29949c-0.47273,0.06983 -0.98956,0.13542 -1.48171,0.20524c-0.38499,0.05328 -0.76519,0.10675 -1.16503,0.16004l6.6973,-7.04572c0.11219,-0.11906 0.16085,-0.25852 0.23876,-0.3899c6.00522,1.07525 9.46102,2.22438 10.05577,3.02457l-0.00001,0z" fill="#333333"/>
  </g>
  <path fill="#bf0000" d="m11.46349,44.125l-1.187,-19.84082l12.13416,10.06626l-10.94716,9.77456z" id="svg_7"/>
  <path fill="#5fbf00" d="m64.62777,39.59619l-1.187,-19.84082l12.13416,10.06626l-10.94716,9.77456z" id="svg_8"/>
  <path fill="#bfbf00" d="m114.04599,43.41944l-1.187,-19.84082l12.13416,10.06626l-10.94716,9.77456z" id="svg_9"/>
 </g>
</svg>