<svg width="200%" height="200%"  viewBox="0 0 128 128" xmlns="http://www.w3.org/2000/svg">
 <g>
  <title>Stadium</title>
  <rect id="svg_5" height="28.95117" width="36.54492" y="91.26954" x="43.5918" fill="#7f7f7f"/>
  <path id="svg_4" d="m7.28419,54.0127l19.53124,-9.16211l66.44531,-0.47461l23.49316,9.25488l-8.06836,6.40723l-32.74805,6.64453l-46.98633,-2.13574l-21.83203,-7.35645l0.16504,-3.17773z" fill="#b2b2b2"/>
  <g id="svg_1">
    <path fill="#333333" d="m122.96499,26.71158l-9.91393,-8.6205c-0.74842,-0.6495 -1.75475,-0.7586 -2.59239,-0.2702c-0.83764,0.48841 -1.36811,1.48273 -1.36811,2.56891l0,25.76372c-8.45148,-2.9598 -20.76448,-4.37356 -30.69816,-5.04003c-0.2528,-0.22413 -0.54534,-0.4022 -0.86738,-0.50565c-0.67918,-0.21848 -1.36811,-0.06331 -1.9332,0.33324c-4.73379,-0.2702 -8.69453,-0.37364 -11.11335,-0.40813l0,-7.20647l8.92247,-7.75845c0.62457,-0.54013 0.99146,-1.39652 0.99146,-2.29871c0,-0.90219 -0.36689,-1.75858 -0.99146,-2.29871l-9.91393,-8.6205c-0.74354,-0.65516 -1.75475,-0.75295 -2.59239,-0.2702c-0.84275,0.48841 -1.37299,1.48273 -1.37299,2.56891l0,25.88441c-2.41906,0.04014 -6.37956,0.14359 -11.11335,0.40813c-0.56509,-0.39654 -1.25402,-0.54605 -1.9332,-0.33324c-0.32716,0.10345 -0.61969,0.28151 -0.86738,0.50565c-12.11968,0.81598 -27.79348,2.73566 -35.65524,7.22398l0,-9.27l8.92247,-7.75845c0.62945,-0.54013 0.99146,-1.39652 0.99146,-2.29871c0,-0.90219 -0.36689,-1.75858 -0.99146,-2.29871l-9.91393,-8.6205c-0.74842,-0.6495 -1.74476,-0.7586 -2.59239,-0.2702c-0.83811,0.48841 -1.36858,1.48273 -1.36858,2.56891l0,34.48201c0,0.06896 0.00488,0.18399 0.01487,0.316l4.92711,51.40702c0,8.8907 19.54508,12.2756 34.6984,13.56867l0,-19.31558c0,-4.75286 3.33593,-8.6205 7.43539,-8.6205l19.82763,0c4.09945,0 7.43539,3.86764 7.43539,8.6205l0,19.33282c15.15332,-1.26425 34.69352,-4.58045 34.68353,-13.26992l4.91224,-51.24593c0,-0.0229 0.00488,-0.05172 0.00488,-0.07462c0.00999,-0.13227 0.02486,-0.2702 0.03462,-0.39654c0.00999,-0.13227 0.01487,-0.24703 0.01487,-0.316c0,-2.63222 -1.88371,-4.78142 -4.95685,-6.53434l0,-9.27l8.93246,-7.76411c0.62457,-0.54013 0.99146,-1.39652 0.99146,-2.29871c0.00023,-0.90273 -0.36643,-1.75885 -0.991,-2.29925zm-112.90893,28.18339c0.81301,-1.28742 4.26303,-2.92531 10.14187,-4.4366c0.06947,0.15517 0.10897,0.32192 0.20331,0.45985l6.8157,9.8791c-10.2211,-1.82782 -16.11992,-4.20707 -17.16088,-5.90235zm24.14526,6.95378c-0.06436,-0.12069 -0.08922,-0.2702 -0.17357,-0.39089l-8.42174,-12.20663c5.32862,-1.03446 11.91637,-1.92534 19.75327,-2.45981l3.85153,16.36737c-5.56167,-0.28124 -10.56824,-0.74109 -15.00949,-1.31005zm35.39245,1.52314c-0.58995,0.01724 -1.14993,0.04607 -1.74987,0.05738c-1.89858,0.04014 -3.84665,0.06331 -5.84909,0.06331c-2.00755,0 -3.96051,-0.0229 -5.86397,-0.06331c-0.59483,-0.01158 -1.14993,-0.04014 -1.735,-0.05738l-3.96562,-16.8617c3.63335,-0.16675 7.48488,-0.25862 11.56458,-0.25862c4.07947,0 7.931,0.09186 11.56458,0.25862l-3.96562,16.8617zm20.19452,-1.51721c-0.6097,0.08055 -1.19454,0.16083 -1.82911,0.23572c-0.67406,0.08055 -1.40273,0.14951 -2.10166,0.21848c-0.80302,0.08621 -1.58629,0.17241 -2.42394,0.25296c-0.83764,0.07462 -1.72989,0.13793 -2.59751,0.20689c-0.75353,0.05738 -1.47709,0.12634 -2.25548,0.17807c-1.01121,0.06896 -2.08191,0.12069 -3.13773,0.17807c-0.22306,0.01158 -0.43613,0.0229 -0.65919,0.03448l3.85153,-16.3733c7.84689,0.54013 14.4444,1.41942 19.77813,2.42532l-8.45148,12.2527c-0.08435,0.12042 -0.10921,0.264 -0.17357,0.39062zm24.27399,-7.24122l-0.01487,0.07462c-0.04461,0.09186 -0.13872,0.19531 -0.21307,0.2931c-0.08435,0.1091 -0.14383,0.21255 -0.26279,0.32758c-0.1041,0.09779 -0.2528,0.20123 -0.38176,0.29875c-0.1587,0.12069 -0.29742,0.24137 -0.49562,0.36772c-0.15359,0.09779 -0.3569,0.20123 -0.53047,0.29875c-0.23305,0.13227 -0.451,0.26427 -0.72867,0.4022c-0.20331,0.10345 -0.45611,0.20123 -0.68406,0.30468c-0.31229,0.13793 -0.6097,0.28151 -0.96172,0.41944c-0.2528,0.10345 -0.5551,0.20123 -0.83276,0.30468c-0.38664,0.14359 -0.75841,0.28744 -1.18966,0.43103c-0.30741,0.10345 -0.65919,0.20123 -0.98635,0.30468c-0.46587,0.14359 -0.912,0.28744 -1.4176,0.43103c-0.33715,0.09186 -0.71868,0.18399 -1.0707,0.28151c-0.5551,0.14951 -1.10044,0.2931 -1.70015,0.43668c-0.38664,0.09186 -0.81789,0.17807 -1.2194,0.2702c-0.62457,0.13793 -1.2294,0.28151 -1.89858,0.41944c-0.48074,0.09779 -1.00633,0.18965 -1.50683,0.28744c-0.39152,0.07462 -0.77816,0.14951 -1.18478,0.22413l6.81082,-9.86751c0.11409,-0.16675 0.16358,-0.36206 0.24281,-0.54605c6.10701,1.50589 9.62139,3.11523 10.22622,4.2359z" id="svg_3"/>
  </g>
  <path id="svg_7" d="m7.85165,39.0625l-1.20712,-19.84082l12.33984,10.06626l-11.13272,9.77456z" fill="#bf0000"/>
  <path id="svg_8" d="m62.33895,32.84619l-1.20712,-19.84082l12.33984,10.06626l-11.13272,9.77456z" fill="#5fbf00"/>
  <path id="svg_9" d="m112.17294,38.77881l-1.20712,-19.84082l12.33984,10.06626l-11.13272,9.77456z" fill="#bfbf00"/>
 </g>
</svg>