<svg width="100%" height="100%"  viewBox="0 0 128 128" xmlns="http://www.w3.org/2000/svg">
 <g>
  <title>gallery</title>
  <rect id="svg_2" height="92" width="102" y="17.91071" x="12.28571" fill="#84b2b2"/>
  <path id="svg_1" d="m2.5,14.833l0,101.74378l123,0l0,-101.74378l-123,0zm103.63889,93.01078l-84.27778,0l0,-84.27778l84.27778,0l0,84.27778zm-63.77778,-51.25c6.49622,0 11.767,-5.27078 11.767,-11.767c0,-6.50078 -5.27078,-11.767 -11.767,-11.767c-6.50078,0 -11.767,5.27078 -11.767,11.767c0,6.49622 5.26622,11.767 11.767,11.767zm59.22678,10.25l-22.39967,-22.39967l-31.51078,31.51078l-8.733,-8.733l-12.53689,12.53689l0,23.52944l75.18033,0l0,-36.44444z" fill="#3f3f3f"/>
 </g>
</svg>