<svg width="70%" height="70%"  viewBox="0 0 128 128" xmlns="http://www.w3.org/2000/svg">
 <g>
  <title>Garage</title>
  <rect id="svg_2" height="90" width="90" y="30" x="20" fill="#555"/>
  <path id="svg_1" d="m31.52,52.39702l63.96,0c2.03688,0 3.69,1.79353 3.69,4.00937s-1.65312,4.00937 -3.69,4.00937l-63.96,0l0,-8.01874zm0,52.90497l63.96,0c2.03688,0 3.69,-1.79353 3.69,-4.00937c0,-2.21585 -1.65312,-4.00937 -3.69,-4.00937l-63.96,0c-2.03688,0 -3.69,1.79352 -3.69,4.00937c0,2.21317 1.65312,4.00937 3.69,4.00937zm0,-30.11304l63.96,0c2.03688,0 3.69,-1.79352 3.69,-4.00937s-1.65312,-4.00937 -3.69,-4.00937l-63.96,0c-2.03688,0 -3.69,1.79353 -3.69,4.00937s1.65312,4.00937 3.69,4.00937zm0,15.33718l63.96,0c2.03688,0 3.69,-1.79353 3.69,-4.00937c0,-2.21585 -1.65312,-4.00937 -3.69,-4.00937l-63.96,0c-2.03688,0 -3.69,1.79352 -3.69,4.00937c0,2.21584 1.65312,4.00937 3.69,4.00937zm82.41,-49.59857l-0.05344,83.86264l-100.47731,-0.11865l-0.32925,-83.74399l-7.38,0c-2.03688,0 -3.69,-1.79353 -3.69,-4.00937l0,-13.03045c0,-2.21585 1.65312,-4.00937 3.69,-4.00937l41.14596,0c1.09224,0 2.1279,0.52656 2.829,1.43535c3.44154,4.46911 8.48454,7.03243 13.83504,7.03243s10.3935,-2.56332 13.83504,-7.03243c0.7011,-0.90879 1.73676,-1.43535 2.829,-1.43535l41.14596,0c2.03688,0 3.69,1.79352 3.69,4.00937l0,13.03045c0,2.21584 -1.65312,4.00937 -3.69,4.00937l-7.38,0zm-7.38,0l-86.1,0l0,75.8439l86.1,0l0,-75.8439z" fill="#222"/>
 </g>
</svg>