<svg width="70%" height="70%"  viewBox="0 0 128 128" xmlns="http://www.w3.org/2000/svg">
 <g>
  <title>Garage</title>
  <g id="svg_5">
   <rect id="svg_2" height="90" width="90" y="30" x="16" fill="#555"/>
   <path id="svg_1" fill="#222" d="m31.52,52.39702l63.96,0c2.03688,0 3.69,1.79353 3.69,4.00937s-1.65312,4.00937 -3.69,4.00937l-63.96,0l0,-8.01874zm0,52.90497l63.96,0c2.03688,0 3.69,-1.79353 3.69,-4.00937c0,-2.21585 -1.65312,-4.00937 -3.69,-4.00937l-63.96,0c-2.03688,0 -3.69,1.79352 -3.69,4.00937c0,2.21317 1.65312,4.00937 3.69,4.00937zm0,-30.11304l63.96,0c2.03688,0 3.69,-1.79352 3.69,-4.00937s-1.65312,-4.00937 -3.69,-4.00937l-63.96,0c-2.03688,0 -3.69,1.79353 -3.69,4.00937s1.65312,4.00937 3.69,4.00937zm0,15.33718l63.96,0c2.03688,0 3.69,-1.79353 3.69,-4.00937c0,-2.21585 -1.65312,-4.00937 -3.69,-4.00937l-63.96,0c-2.03688,0 -3.69,1.79352 -3.69,4.00937c0,2.21584 1.65312,4.00937 3.69,4.00937zm90.07375,-49.36127l0.40625,83.62534l-117,-0.11865l0,-83.74399l0,0c-2.03688,0 -3,-1.79353 -3,-4.00937l0,-13.03045c0,-2.21585 1.65312,-4.00937 3.69,-4.00937l41.14596,0c1.09224,0 2.1279,0.52656 2.829,1.43535c3.44154,4.46911 8.48454,7.03243 13.83504,7.03243s10.3935,-2.56332 13.83504,-7.03243c0.7011,-0.90879 1.73676,-1.43535 2.829,-1.43535l41.14596,0c2.03688,0 3.69,1.79352 3.69,4.00937l0,13.03045l-1,3.77207zm-17.45,0.2373l-86.1,0l0,75.8439l86.1,0l0,-75.8439z"/>
  </g>
 </g>
</svg>