<svg width="80%" height="80%" viewBox="0 0 128 128" xmlns="http://www.w3.org/2000/svg">
 <g>
  <title>GasStation</title>
  <rect id="svg_23" height="44" width="54" y="12" x="16" fill="#999"/>
  <g id="svg_1">
   <path id="svg_2" fill="#222" d="m119.78552,25.87329l-15.25,-7.6875c-3.77533,-1.90506 -8.35104,-0.3529 -10.23132,3.43847c-1.88385,3.79883 -0.35742,8.41565 3.41052,10.31518l11.03528,5.5607l0,52.90609c0,2.11887 -1.70895,3.84375 -3.8125,3.84375s-3.8125,-1.72488 -3.8125,-3.84375l0,-30.75c0,-12.71753 -10.26111,-23.0625 -22.875,-23.0625l0,-19.21875c0,-8.47763 -6.83939,-15.375 -15.25,-15.375l-38.125,0c-8.41061,0 -15.25,6.89737 -15.25,15.375l0,85.22122l-5.39111,5.43722c-1.42969,1.44141 -2.23389,3.39715 -2.23389,5.4353l0,3.84375c0,4.24542 3.41409,7.6875 7.625,7.6875l68.625,0c4.21091,0 7.625,-3.44208 7.625,-7.6875l0,-3.84375c0,-2.03815 -0.8042,-3.9939 -2.23389,-5.4353l-5.39111,-5.43722l0,-50.62747c4.20352,0 7.625,3.44784 7.625,7.6875l0,30.75c0,10.5965 8.55215,19.21875 19.0625,19.21875s19.0625,-8.62225 19.0625,-19.21875l0,-57.65625c0,-2.91092 -1.6308,-5.57416 -4.21448,-6.87671zm-52.97302,29.93849l-20.29298,0l-6.66639,-16.80247c-0.7818,-1.97064 -3.0195,-2.92413 -4.95554,-2.14145c-1.95462,0.79013 -2.90775,3.02551 -2.12595,4.99808l5.53313,13.94609l-17.24227,0l0,-38.4375c0,-2.12295 1.70681,-3.84375 3.8125,-3.84375l38.125,0c2.10569,0 3.8125,1.7208 3.8125,3.84375l0,38.43726z"/>
   <circle id="svg_3" r="2.70688" cy="25.06178" cx="43.9375"/>
   <circle id="svg_4" r="2.70688" cy="28.90553" cx="59.1875"/>
   <circle id="svg_5" r="2.70688" cy="28.90553" cx="28.6875"/>
  </g>
 </g>

</svg>
