<svg width="100%" height="100%" viewBox="0 0 102 102" xmlns="http://www.w3.org/2000/svg">
 <g>
  <title>GasStation</title>
   <rect fill="#999" x="13.01639" y="9.96748" width="42.4918" height="35.05691" id="svg_23"/>
   <g id="svg_1">
    <path d="m94.68369,21.02099l-12,-6.125c-2.97075,-1.51785 -6.57131,-0.28117 -8.05087,2.73959c-1.48237,3.02671 -0.28125,6.70515 2.68369,8.2186l8.6835,4.43048l0,42.15282c0,1.68821 -1.34475,3.0625 -3,3.0625s-3,-1.37429 -3,-3.0625l0,-24.5c0,-10.13267 -8.07432,-18.375 -18,-18.375l0,-15.3125c0,-6.75453 -5.38182,-12.25 -12,-12.25l-30,0c-6.61819,0 -12,5.49547 -12,12.25l0,67.89984l-4.24219,4.33209c-1.125,1.14844 -1.75782,2.70667 -1.75782,4.33056l0,3.0625c0,3.38253 2.6865,6.125 6,6.125l54,0c3.3135,0 6,-2.74247 6,-6.125l0,-3.0625c0,-1.62389 -0.63281,-3.18213 -1.75782,-4.33056l-4.24219,-4.33209l0,-40.33733c3.30769,0 6,2.74706 6,6.125l0,24.5c0,8.44274 6.72956,15.3125 15,15.3125s15,-6.86976 15,-15.3125l0,-45.9375c0,-2.31927 -1.28325,-4.4412 -3.31631,-5.479l0,0.00002zm-41.68369,23.85343l-15.96825,0l-5.24568,-13.38733c-0.61519,-1.5701 -2.376,-2.32979 -3.89944,-1.7062c-1.53806,0.62953 -2.28807,2.41057 -1.67288,3.98221l4.35394,11.11152l-13.56769,0l0,-30.625c0,-1.69146 1.34306,-3.0625 3,-3.0625l30,0c1.65694,0 3,1.37104 3,3.0625l0,30.62481l0,-0.00001z" fill="#222" id="svg_2"/>
    <circle cx="35" cy="20.37442" r="2.13" id="svg_3"/>
    <circle cx="47" cy="23.43692" r="2.13" id="svg_4"/>
    <circle cx="23" cy="23.43692" r="2.13" id="svg_5"/>
   </g>
 </g>
</svg>
