<svg width="100%" height="100%"  viewBox="0 0 128 128" xmlns="http://www.w3.org/2000/svg">
 <g>
  <title>Golf</title>
  <circle cx="63.87963" cy="63.87963" r="62.37963" fill="#BEEBFF" id="svg_1"/>
  <path d="m3.34093,78.93676c6.73773,27.17535 31.28046,47.3225 60.5387,47.3225s53.80097,-20.14716 60.5387,-47.3225l-121.0774,0z" fill="#89a372" id="svg_9"/>
  <path d="m3.9233,81.08788l119.91241,0c0.40571,-1.41573 0.77268,-2.84705 1.07897,-4.302l-122.07011,0c0.30605,1.45471 0.67302,2.88628 1.07873,4.302z" fill="#a4bc91" id="svg_10"/>
  <path d="m83.23876,100.44701l-36.56738,0c-1.18789,0 -2.15112,-0.96323 -2.15112,-2.15112l0,0c0,-1.18789 0.96323,-2.15112 2.15112,-2.15112l36.56738,0c1.18789,0 2.15112,0.96323 2.15112,2.15112l0,0c0,1.18789 -0.96323,2.15112 -2.15112,2.15112z" fill="#a7c693" id="svg_11"/>
  <path d="m50.97338,27.31225l0,0c-1.18789,0 -2.15112,0.96323 -2.15112,2.15112l0,70.98363l4.302,0l0,-70.98363c0.00024,-1.18789 -0.96274,-2.15112 -2.15088,-2.15112z" fill="#643C46" id="svg_25"/>
  <path d="m61.72851,48.94921l18.83085,-7.75384c1.77587,-0.73125 1.77587,-3.24666 0,-3.97816l-18.83085,-7.75384l0,19.48584z" fill="#FF5050" id="svg_26"/>
  <polygon points="66.03075298660838,36.928702040649796 53.1245028686601,31.61425311447647 53.1245028686601,61.72850627427283 66.03075298660838,56.414302357628685 " fill="#FF5050" id="svg_28"/>
  <circle cx="73.5592" cy="88.61632" r="9.67957" fill="#ffebdc" id="svg_29"/>
 </g>
</svg>