<svg width="120%" height="120%" viewBox="0 0 156 128" xmlns="http://www.w3.org/2000/svg">
	<g id="Graveyard">
		<title>Graveyard</title>
		<g transform="rotate(2.4465982913970947 94.51241302490227,83.12572479248051) " id="svg_2">
			<path d="m71.76827,121.41435l-0.17671,-38.21873l-0.00135,0.72114c-0.95198,-36.00961 10.02909,-39.00209 22.61691,-39.07883c12.58782,-0.07674 23.18753,5.19303 23.28512,26.30066l-0.13944,49.99784l-45.58454,0.27793l0,0z" fill="#333" id="svg_3"/>
		</g>
		<g id="svg_4" transform="rotate(-6.441399097442627 32.54626083374022,73.48965454101564) matrix(0.14147307085647498,0,0,0.17243829811017652,-9.385282239641143,-118.0023580241517) ">
			<path id="svg_1" d="m446.6539,971.36631l-83.478,0l0,-83.479c0,-18.413 -14.979,-33.391 -33.392,-33.391l-66.783,0c-18.413,0 -33.391,14.978 -33.391,33.391l0,83.478l-83.478,0c-18.413,0 -33.391,14.978 -33.391,33.391l0,66.783c0,18.413 14.978,33.391 33.391,33.391l83.478,0l0,228.174c0,18.413 14.978,33.391 33.391,33.391l66.783,0c18.413,0 33.391,-14.978 33.391,-33.391l0,-228.173l83.478,0c18.413,0 33.391,-14.978 33.391,-33.391l0,-66.783c0.001,-18.413 -14.977,-33.391 -33.39,-33.391z" fill="#333"/>
		</g>
		<path id="svg_5" d="m0.71875,127.02344l12.25391,-7.42187l17.40234,-6.01172l45.87891,-1.89844l31.00781,4.42969l19.93359,10.75781l-126.47656,0.14453z" fill="#333"/>
	</g>
</svg>