<svg width="100%" height="100%"  viewBox="0 0 115 115" xmlns="http://www.w3.org/2000/svg">
 <g>
  <title>Guildhall</title>
  <path fill="#00aeff" stroke="#000" stroke-width="1.5" d="m-155.12665,40.38064c-0.08516,-0.07893 -0.14619,-0.32974 -0.13232,-0.54373c0.00874,-0.13494 0.19328,-0.95409 0.20939,-0.92952c0.00526,0.00802 0.05207,0.199 0.10402,0.4244c0.08322,0.36106 0.09445,0.42839 0.09445,0.56598c0,0.27889 -0.09048,0.50733 -0.19911,0.50273c-0.03171,-0.00134 -0.0661,-0.01028 -0.07643,-0.01986l0,0zm0.08532,-0.14027c0.00281,-0.0361 -0.00377,-0.05371 -0.02009,-0.05371c-0.03719,0 -0.08879,-0.11621 -0.10032,-0.22594c-0.01229,-0.11706 -0.04489,-0.13098 -0.04971,-0.02123c-0.00928,0.21145 0.15449,0.5011 0.17012,0.30089l0,0l0,-0.00001z" id="svg_16"/>
  <ellipse stroke="#555" fill="#555" stroke-width="4" cx="57.04099" cy="57.62295" id="svg_6" rx="55.68033" ry="55.88525"/>
  <path stroke="#555" d="m81.14986,16.20385c-7.39277,5.96836 -17.61096,6.0263 -25.05989,0.17794l0.59277,85.09891c2.69794,-2.9487 6.89348,-7.68907 19.64498,-8.28001c7.61211,-1.17849 10.36296,-3.08234 13.93549,-6.60222c4.80852,-4.80188 6.4899,-10.88248 6.34818,-17.63862c-0.05884,-2.80482 -0.37883,-3.77995 -1.9588,-7.36122c-8.21596,-8.81138 -8.22194,-23.0923 -0.0218,-31.91434l-13.48093,-13.48044z" id="svg_18" fill="#b57e7e"/>
  <path id="svg_4" stroke="#555" d="m56.18997,16.441c-7.16425,5.62685 -16.89418,5.78793 -24.20529,0.48301l-13.14635,14.10143c8.08685,8.83127 8.03985,23.02017 -0.13819,31.79088c-1.08537,2.9945 -1.65423,2.8501 -1.77264,5.86568c-0.27846,7.26026 1.35227,14.03315 6.46024,19.13413c4.56291,4.55662 10.75499,6.48916 16.70296,5.79963c9.93237,0.55044 14.69404,5.16446 16.69204,7.92415l-0.59277,-85.09891z" fill="#823a3a"/>
 </g>
</svg>