<svg width="100%" height="100%"  viewBox="0 0 128 128" xmlns="http://www.w3.org/2000/svg">
 <g>
  <title>Gun</title>
  <rect filter="url(#svg_23_blur)" id="svg_23" height="124" width="124" y="1.90625" x="2" fill="#888"/>
  <g id="svg_1">
   <polygon points="42.56024169921875,115.73567962646484 42.56024169921875,109.5210189819336 22.626007080078125,109.5210189819336 22.626007080078125,115.73567962646484 20.6326904296875,115.73567962646484 20.6326904296875,124.02149200439453 44.55354309082031,124.02149200439453 44.55354309082031,115.73567962646484 " fill="#B28208" id="svg_2"/>
   <polygon points="48.54039001464844,115.73567962646484 48.54039001464844,109.5210189819336 42.56024169921875,109.5210189819336 42.56024169921875,115.73567962646484 44.55354309082031,115.73567962646484 44.55354309082031,124.02149200439453 50.53370666503906,124.02149200439453 50.53370666503906,115.73567962646484 " fill="#FD9808" id="svg_3"/>
   <polygon points="22.626007080078125,115.73567962646484 22.626007080078125,109.5210189819336 16.645843505859375,109.5210189819336 16.645843505859375,115.73567962646484 14.652297973632812,115.73567962646484 14.652297973632812,124.02149200439453 20.6326904296875,124.02149200439453 20.6326904296875,115.73567962646484 " fill="#aaa" id="svg_4"/>
   <polygon points="20.6326904296875,109.5210189819336 44.55354309082031,109.5210189819336 44.55354309082031,47.3760871887207 20.6326904296875,47.3760871887207 " fill="#B28208" id="svg_5"/>
   <polygon points="14.652297973632812,109.5210189819336 20.6326904296875,109.5210189819336 20.6326904296875,47.3760871887207 14.652297973632812,47.3760871887207 " fill="#aaa" id="svg_6"/>
   <polygon points="44.55354309082031,109.5210189819336 50.53370666503906,109.5210189819336 50.53370666503906,47.3760871887207 44.55354309082031,47.3760871887207 " fill="#FD9808" id="svg_7"/>
   <path d="m42.56024,47.37609l-19.934,0l0,-10.35745c0,-13.05052 3.78759,-25.2723 9.967,-33.14397l0,0l0,0c6.17965,7.87168 9.967,20.09345 9.967,33.14397l0,10.35745z" fill="#B28208" id="svg_8"/>
   <path d="m16.64585,37.01865l0,10.35745l5.98015,0l0,-10.35745c0,-13.05052 3.78759,-25.2723 9.967,-33.14397c-9.967,7.87168 -15.94716,20.09345 -15.94716,33.14397" fill="#aaa" id="svg_9"/>
   <path d="m32.593,3.87467c6.17965,7.87168 9.967,20.09345 9.967,33.14397l0,10.35745l5.98015,0l0,-10.35745c0.00024,-13.05052 -5.97992,-25.2723 -15.94716,-33.14397" fill="#FD9808" id="svg_10"/>
   <path d="m50.5337,111.59265l-35.8814,0c-1.19603,0 -1.99331,-0.82851 -1.99331,-2.07139l0,-62.14517c0,-1.24288 0.79727,-2.07139 1.99331,-2.07139l35.8814,0c1.19603,0 1.99331,0.82851 1.99331,2.07139l0,62.14492c0.00024,1.24288 -0.79727,2.07164 -1.99331,2.07164zm-33.88786,-4.14303l31.89455,0l0,-58.00189l-31.89455,0l0,58.00189z" id="svg_11"/>
   <path d="m48.5404,117.80707l-31.89455,0c-1.19603,0 -1.99331,-0.82851 -1.99331,-2.07139l0,-6.21442c0,-1.24288 0.79727,-2.07139 1.99331,-2.07139l31.89455,0c1.19603,0 1.99331,0.82851 1.99331,2.07139l0,6.21442c0,1.24288 -0.79727,2.07139 -1.99331,2.07139zm-29.90124,-4.14303l27.9077,0l0,-2.07139l-27.9077,0l0,2.07139z" id="svg_12"/>
   <path d="m50.5337,126.09312l-35.8814,0c-1.19603,0 -1.99331,-0.82851 -1.99331,-2.07139l0,-8.28606c0,-1.24288 0.79727,-2.07139 1.99331,-2.07139l35.8814,0c1.19603,0 1.99331,0.82851 1.99331,2.07139l0,8.28606c0.00024,1.24264 -0.79727,2.07139 -1.99331,2.07139zm-33.88786,-4.14303l31.89455,0l0,-4.14303l-31.89455,0l0,4.14303z" id="svg_13"/>
   <path d="m48.5404,49.44773l-31.89455,0c-1.19603,0 -1.99331,-0.82851 -1.99331,-2.07139l0,-10.35745c0,-13.46465 6.17965,-26.51518 16.74467,-34.80124c0.79727,-0.41438 1.59479,-0.41438 2.39206,0c10.56502,8.28606 16.74467,21.33633 16.74467,34.80124l0,10.35745c-0.00024,1.24264 -0.79751,2.07139 -1.99354,2.07139zm-29.90124,-4.14303l27.9077,0l0,-8.28606c0,-11.80764 -5.18288,-22.99359 -13.95385,-30.45114c-8.77097,7.4573 -13.95385,18.6435 -13.95385,30.45114l0,8.28606z" id="svg_14"/>
   <path id="svg_15" d="m50.5337,111.59265l-35.8814,0c-1.19603,0 -1.99331,-0.82851 -1.99331,-2.07139l0,-62.14517c0,-1.24288 0.79727,-2.07139 1.99331,-2.07139l35.8814,0c1.19603,0 1.99331,0.82851 1.99331,2.07139l0,62.14492c0.00024,1.24288 -0.79727,2.07164 -1.99331,2.07164zm-33.88786,-4.14303l31.89455,0l0,-58.00189l-31.89455,0l0,58.00189z"/>
   <path id="svg_16" d="m48.5404,117.80707l-31.89455,0c-1.19603,0 -1.99331,-0.82851 -1.99331,-2.07139l0,-6.21442c0,-1.24288 0.79727,-2.07139 1.99331,-2.07139l31.89455,0c1.19603,0 1.99331,0.82851 1.99331,2.07139l0,6.21442c0,1.24288 -0.79727,2.07139 -1.99331,2.07139zm-29.90124,-4.14303l27.9077,0l0,-2.07139l-27.9077,0l0,2.07139z" fill="black"/>
   <path id="svg_17" d="m50.5337,126.09312l-35.8814,0c-1.19603,0 -1.99331,-0.82851 -1.99331,-2.07139l0,-8.28606c0,-1.24288 0.79727,-2.07139 1.99331,-2.07139l35.8814,0c1.19603,0 1.99331,0.82851 1.99331,2.07139l0,8.28606c0.00024,1.24264 -0.79727,2.07139 -1.99331,2.07139zm-33.88786,-4.14303l31.89455,0l0,-4.14303l-31.89455,0l0,4.14303z" fill="black"/>
   <path id="svg_18" d="m48.5404,49.44773l-31.89455,0c-1.19603,0 -1.99331,-0.82851 -1.99331,-2.07139l0,-10.35745c0,-13.46465 6.17965,-26.51518 16.74467,-34.80124c0.79727,-0.41438 1.59479,-0.41438 2.39206,0c10.56502,8.28606 16.74467,21.33633 16.74467,34.80124l0,10.35745c-0.00024,1.24264 -0.79751,2.07139 -1.99354,2.07139zm-29.90124,-4.14303l27.9077,0l0,-8.28606c0,-11.80764 -5.18288,-22.99359 -13.95385,-30.45114c-8.77097,7.4573 -13.95385,18.6435 -13.95385,30.45114l0,8.28606z" fill="black"/>

   <path d="m52.317852,111.651253l-38.444305,0c-1.281459,0 -2.135686,-0.808737 -2.135686,-2.021954l0,-60.66201c0,-1.213217 0.854217,-2.021954 2.135686,-2.021954l38.444305,0c1.281459,0 2.135686,0.808737 2.135686,2.021954l0,60.661766c0.000257,1.213217 -0.854217,2.022198 -2.135686,2.022198zm-36.308372,-4.044152l34.172685,0l0,-56.617614l-34.172685,0l0,56.617614z" id="svg_19" fill="black"/>
   <path d="m49.201304,117.232861l-31.89455,0c-1.19603,0 -1.99331,-0.82851 -1.99331,-2.07139l0,-6.21442c0,-1.24288 0.79727,-2.07139 1.99331,-2.07139l31.89455,0c1.19603,0 1.99331,0.82851 1.99331,2.07139l0,6.21442c0,1.24288 -0.79727,2.07139 -1.99331,2.07139zm-29.90124,-4.14303l27.9077,0l0,-2.07139l-27.9077,0l0,2.07139z" fill="black" id="svg_20"/>
   <path d="m52.302035,126.151723l-38.729072,0c-1.290951,0 -2.151506,-0.82851 -2.151506,-2.07139l0,-8.28606c0,-1.24288 0.860544,-2.07139 2.151506,-2.07139l38.729072,0c1.290951,0 2.151506,0.82851 2.151506,2.07139l0,8.28606c0.000259,1.24264 -0.860544,2.07139 -2.151506,2.07139zm-36.577318,-4.14303l34.425812,0l0,-4.14303l-34.425812,0l0,4.14303z" fill="black" id="svg_21"/>
   <path d="m51.714953,47.924302l-37.238294,0c-1.396418,0 -2.327277,-0.82851 -2.327277,-2.07139l0,-10.35745c0,-13.46465 7.215014,-26.51518 19.550141,-34.80124c0.930848,-0.41438 1.861988,-0.41438 2.792836,0c12.335127,8.28606 19.550141,21.33633 19.550141,34.80124l0,10.35745c-0.00028,1.24264 -0.931128,2.07139 -2.327546,2.07139l-0.000001,0zm-34.911017,-4.14303l32.583471,0l0,-8.28606c0,-11.80764 -6.051241,-22.99359 -16.291736,-30.45114c-10.240494,7.4573 -16.291736,18.6435 -16.291736,30.45114l0,8.28606l0.000001,0z" fill="black" id="svg_22"/>
  </g>
  <g id="svg_30">
   <polygon fill="#B28208" id="svg_31" points="103.56024169921875,115.73567962646484 103.56024169921875,109.5210189819336 83.62600708007812,109.5210189819336 83.62600708007812,115.73567962646484 81.6326904296875,115.73567962646484 81.6326904296875,124.02149200439453 105.55354309082031,124.02149200439453 105.55354309082031,115.73567962646484 "/>
   <polygon fill="#FD9808" id="svg_32" points="109.54039001464844,115.73567962646484 109.54039001464844,109.5210189819336 103.56024169921875,109.5210189819336 103.56024169921875,115.73567962646484 105.55354309082031,115.73567962646484 105.55354309082031,124.02149200439453 111.53370666503906,124.02149200439453 111.53370666503906,115.73567962646484 "/>
   <polygon fill="#aaa" id="svg_33" points="83.62600708007812,115.73567962646484 83.62600708007812,109.5210189819336 77.64584350585938,109.5210189819336 77.64584350585938,115.73567962646484 75.65229797363281,115.73567962646484 75.65229797363281,124.02149200439453 81.6326904296875,124.02149200439453 81.6326904296875,115.73567962646484 "/>
   <polygon fill="#B28208" id="svg_34" points="81.6326904296875,109.5210189819336 105.55354309082031,109.5210189819336 105.55354309082031,47.37609100341797 81.6326904296875,47.37609100341797 "/>
   <polygon fill="#aaa" id="svg_35" points="75.65229797363281,109.5210189819336 81.6326904296875,109.5210189819336 81.6326904296875,47.37609100341797 75.65229797363281,47.37609100341797 "/>
   <polygon fill="#FD9808" id="svg_36" points="105.55354309082031,109.5210189819336 111.53370666503906,109.5210189819336 111.53370666503906,47.37609100341797 105.55354309082031,47.37609100341797 "/>
   <path fill="#B28208" id="svg_37" d="m103.56024,47.3761l-19.934,0l0,-10.35745c0,-13.05052 3.78759,-25.2723 9.967,-33.14397l0,0l0,0c6.17965,7.87167 9.967,20.09345 9.967,33.14397l0,10.35745z"/>
   <path fill="#aaa" id="svg_38" d="m77.64585,37.01865l0,10.35745l5.98015,0l0,-10.35745c0,-13.05052 3.78759,-25.2723 9.967,-33.14397c-9.967,7.87167 -15.94715,20.09345 -15.94715,33.14397"/>
   <path fill="#FD9808" id="svg_39" d="m93.593,3.87468c6.17965,7.87167 9.967,20.09345 9.967,33.14397l0,10.35745l5.98016,0l0,-10.35745c0.00024,-13.05052 -5.97992,-25.2723 -15.94716,-33.14397"/>
   <path id="svg_40" d="m111.5337,111.59266l-35.8814,0c-1.19603,0 -1.9933,-0.82851 -1.9933,-2.07139l0,-62.14517c0,-1.24289 0.79727,-2.07139 1.9933,-2.07139l35.8814,0c1.19603,0 1.99331,0.8285 1.99331,2.07139l0,62.14492c0.00023,1.24288 -0.79728,2.07164 -1.99331,2.07164zm-33.88785,-4.14303l31.89455,0l0,-58.0019l-31.89455,0l0,58.0019z"/>
   <path id="svg_41" d="m109.5404,117.80707l-31.89455,0c-1.19603,0 -1.99331,-0.8285 -1.99331,-2.07139l0,-6.21441c0,-1.24289 0.79728,-2.0714 1.99331,-2.0714l31.89455,0c1.19603,0 1.9933,0.82851 1.9933,2.0714l0,6.21441c0,1.24289 -0.79727,2.07139 -1.9933,2.07139zm-29.90125,-4.14302l27.9077,0l0,-2.07139l-27.9077,0l0,2.07139z" fill="black"/>
   <path id="svg_42" d="m111.5337,126.09313l-35.8814,0c-1.19603,0 -1.9933,-0.82851 -1.9933,-2.07139l0,-8.28606c0,-1.24288 0.79727,-2.07139 1.9933,-2.07139l35.8814,0c1.19603,0 1.99331,0.82851 1.99331,2.07139l0,8.28606c0.00023,1.24264 -0.79728,2.07139 -1.99331,2.07139zm-33.88785,-4.14303l31.89455,0l0,-4.14303l-31.89455,0l0,4.14303z" fill="black"/>
   <path id="svg_43" d="m109.5404,49.44773l-31.89455,0c-1.19603,0 -1.99331,-0.8285 -1.99331,-2.07139l0,-10.35744c0,-13.46466 6.17965,-26.51518 16.74467,-34.80124c0.79727,-0.41437 1.59479,-0.41437 2.39206,0c10.56502,8.28606 16.74467,21.33634 16.74467,34.80124l0,10.35744c-0.00024,1.24264 -0.79751,2.07139 -1.99354,2.07139zm-29.90125,-4.14302l27.9077,0l0,-8.28606c0,-11.80764 -5.18288,-22.99359 -13.95385,-30.45114c-8.77097,7.4573 -13.95385,18.6435 -13.95385,30.45114l0,8.28606z"/>
   <path id="svg_44" fill="black" d="m112.81253,111.572145l-39.085029,0c-1.302816,0 -2.171269,-0.792918 -2.171269,-1.982405l0,-59.475485c0,-1.189497 0.868453,-1.982405 2.171269,-1.982405l39.085029,0c1.302816,0 2.17128,0.792909 2.17128,1.982405l0,59.475245c0.000251,1.189487 -0.868464,1.982645 -2.17128,1.982645zm-36.913487,-3.96505l34.742217,0l0,-55.510205l-34.742217,0l0,55.510205z" />
   <path fill="black" id="svg_45" d="m109.573374,117.786555l-31.89455,0c-1.19603,0 -1.99331,-0.8285 -1.99331,-2.07139l0,-6.21441c0,-1.24289 0.79728,-2.0714 1.99331,-2.0714l31.89455,0c1.19603,0 1.9933,0.82851 1.9933,2.0714l0,6.21441c0,1.24289 -0.79727,2.07139 -1.9933,2.07139zm-29.90125,-4.14302l27.9077,0l0,-2.07139l-27.9077,0l0,2.07139z" />
   <path fill="black" id="svg_46" d="m113.263413,126.072615l-39.512182,0c-1.317054,0 -2.194999,-0.82851 -2.194999,-2.07139l0,-8.28606c0,-1.24288 0.877944,-2.07139 2.194999,-2.07139l39.512182,0c1.317054,0 2.19501,0.82851 2.19501,2.07139l0,8.28606c0.000253,1.24264 -0.877956,2.07139 -2.19501,2.07139zm-37.316908,-4.14303l35.121909,0l0,-4.14303l-35.121909,0l0,4.14303z"/>
   <path id="svg_47" fill="black" d="m112.275986,48.240691l-38.011729,0c-1.425421,0 -2.375615,-0.8285 -2.375615,-2.07139l0,-10.35744c0,-13.46466 7.364869,-26.51518 19.956195,-34.80124c0.950181,-0.41437 1.900661,-0.41437 2.850842,0c12.591326,8.28606 19.956195,21.33634 19.956195,34.80124l0,10.35744c-0.000286,1.24264 -0.950468,2.07139 -2.375889,2.07139l0.000001,0zm-35.636126,-4.14302l33.260226,0l0,-8.28606c0,-11.80764 -6.176925,-22.99359 -16.630113,-30.45114c-10.453188,7.4573 -16.630113,18.6435 -16.630113,30.45114l0,8.28606z"/>
  </g>
 </g>
 <defs>
  <filter height="200%" width="200%" y="-50%" x="-50%" id="svg_23_blur">
   <feGaussianBlur stdDeviation="10" in="SourceGraphic"/>
  </filter>
 </defs>
</svg>