<svg width="100%" height="100%" viewBox="0 0 128 128" xmlns="http://www.w3.org/2000/svg">
 <!-- Created with Method Draw - http://github.com/duopixel/Method-Draw/ -->

 <g>
  <title>Layer 1</title>
  <ellipse stroke="#000" ry="63.385249" rx="63.180331" id="svg_6" cy="64.122946" cx="63.131151" stroke-width="1.5" fill="#efe35b"/>
  <path id="svg_16" d="m-155.126651,40.380644c-0.085156,-0.078934 -0.146193,-0.329747 -0.132322,-0.543735c0.008747,-0.134936 0.193282,-0.954091 0.209398,-0.929521c0.00526,0.008019 0.052067,0.198999 0.104016,0.424399c0.083217,0.361067 0.094452,0.428395 0.094452,0.565983c0,0.278886 -0.090479,0.507325 -0.199117,0.502728c-0.031702,-0.001342 -0.066095,-0.010276 -0.076428,-0.019854l0,0zm0.085317,-0.140269c0.002819,-0.036106 -0.003766,-0.053714 -0.020085,-0.053714c-0.037195,0 -0.08879,-0.116208 -0.100317,-0.225944c-0.012296,-0.117059 -0.044899,-0.130981 -0.049715,-0.021229c-0.009278,0.211453 0.154486,0.501104 0.170117,0.300888l0,0z" fill-opacity="null" stroke-opacity="null" stroke-width="1.5" stroke="#000" fill="#00aeff"/>
  <g stroke="null" id="svg_55">
   <g stroke="null" transform="matrix(0.1739108017947445,0,0,0.15981263525604017,-230.97339008743998,-216.39352587964697) " id="svg_31">
    <g stroke="null" id="svg_32">
     <path stroke="null" id="svg_33" d="m1587.615685,1743.598386c-0.001,-0.553 -0.605,-1.106 -0.706,-1.652c-0.022,-0.118 -0.043,-0.234 -0.069,-0.35c-0.108,-0.478 -0.24,-0.953 -0.424,-1.415l-0.067,-0.168c0,0 0.539,-0.005 0.538,-0.007l-17.364,-44.758l0,-72.753c0,-58.161 -37.251,-131.565 -38.817,-134.659c-3.167,-6.279 -13.199,-6.279 -16.366,0c-1.565,3.094 -38.006,76.498 -38.006,134.659l0,72.754l-18.638,44.76l0,0.005l-0.242,0.168c-0.185,0.462 -0.404,0.937 -0.512,1.415c-0.026,0.116 -0.091,0.232 -0.113,0.35c-0.101,0.548 0.354,1.099 0.353,1.652c0,0.014 0.514,0.027 0.514,0.041l0,214.334c0,5.151 2.33,9.319 9.319,9.319l0,18.638c0,5.151 3.092,9.196 8.238,9.196l93.189,0c5.146,0 10.4,-4.045 10.4,-9.196l0,-18.638c4.659,0 9.319,-4.168 9.319,-9.319l0,-214.335c-0.002,-0.014 -0.546,-0.027 -0.546,-0.041zm-92.644,-121.104c0,-37.212 17.25,-83.142 27.961,-108.077c10.711,24.917 27.952,70.82 27.952,108.077l0,9.196l-55.913,0l0,-9.196zm0,27.833l55.913,0l0,37.275l-55.913,0l0,-37.275zm-4.089,55.913l61.928,0l11.185,27.957l-84.297,0l11.184,-27.957zm69.321,270.247l-74.551,0l0,-9.319l74.551,0l0,9.319zm9.319,-27.956l-93.189,0l0,-195.696l93.189,0l0,195.696z"/>
    </g>
   </g>
   <g stroke="null" transform="matrix(0.1739108017947445,0,0,0.15981263525604017,-230.97339008743998,-216.39352587964697) " id="svg_34">
    <g stroke="null" id="svg_35">
     <path stroke="null" id="svg_36" d="m1755.354685,1743.598386c-0.001,-0.553 -0.605,-1.106 -0.706,-1.652c-0.022,-0.118 -0.043,-0.234 -0.069,-0.35c-0.108,-0.478 -0.24,-0.953 -0.424,-1.415l-0.067,-0.168c0,0 0.539,-0.005 0.538,-0.007l-17.364,-44.758l0,-72.753c0,-58.161 -37.251,-131.565 -38.817,-134.659c-3.167,-6.279 -13.199,-6.279 -16.366,0c-1.565,3.094 -38.006,76.498 -38.006,134.659l0,72.754l-18.638,44.76l0,0.005l-0.242,0.168c-0.184,0.462 -0.404,0.937 -0.511,1.415c-0.026,0.116 -0.092,0.232 -0.114,0.35c-0.101,0.548 0.355,1.099 0.353,1.652c0,0.014 0.514,0.027 0.514,0.041l0,214.334c0,5.151 2.33,9.319 9.319,9.319l0,18.638c0,5.151 3.092,9.196 8.238,9.196l93.189,0c5.146,0 10.4,-4.045 10.4,-9.196l0,-18.638c4.659,0 9.319,-4.168 9.319,-9.319l0,-214.335c-0.001,-0.014 -0.546,-0.027 -0.546,-0.041zm-92.644,-121.104c0,-37.212 17.25,-83.142 27.961,-108.077c10.711,24.917 27.952,70.82 27.952,108.077l0,9.196l-55.913,0l0,-9.196zm0,27.833l55.913,0l0,37.275l-55.913,0l0,-37.275zm-4.088,55.913l61.928,0l11.185,27.957l-84.297,0l11.184,-27.957zm69.32,270.247l-74.551,0l0,-9.319l74.551,0l0,9.319zm9.319,-27.956l-93.189,0l0,-195.696l93.189,0l0,195.696z"/>
    </g>
   </g>
   <g stroke="null" transform="matrix(0.1739108017947445,0,0,0.15981263525604017,-230.97339008743998,-216.39352587964697) " id="svg_37">
    <g stroke="null" id="svg_38">
     <path stroke="null" id="svg_39" d="m1923.093685,1743.598386c-0.001,-0.553 -0.605,-1.106 -0.706,-1.652c-0.022,-0.118 -0.043,-0.234 -0.069,-0.35c-0.108,-0.478 -0.24,-0.953 -0.424,-1.415l-0.067,-0.168c0,0 0.539,-0.005 0.538,-0.007l-17.364,-44.758l0,-72.753c0,-58.161 -37.251,-131.565 -38.817,-134.659c-3.167,-6.279 -13.199,-6.279 -16.366,0c-1.565,3.094 -38.006,76.498 -38.006,134.659l0,72.754l-18.638,44.76l0,0.005l-0.242,0.168c-0.184,0.462 -0.404,0.937 -0.511,1.415c-0.026,0.116 -0.092,0.232 -0.114,0.35c-0.101,0.548 0.355,1.099 0.353,1.652c0,0.014 0.514,0.027 0.514,0.041l0,214.334c0,5.151 2.33,9.319 9.319,9.319l0,18.638c0,5.151 3.092,9.196 8.238,9.196l93.189,0c5.146,0 10.4,-4.045 10.4,-9.196l0,-18.638c4.659,0 9.319,-4.168 9.319,-9.319l0,-214.335c-0.001,-0.014 -0.546,-0.027 -0.546,-0.041zm-92.643,-121.104c0,-37.212 17.25,-83.142 27.961,-108.077c10.711,24.917 27.952,70.82 27.952,108.077l0,9.196l-55.913,0l0,-9.196zm0,27.833l55.913,0l0,37.275l-55.913,0l0,-37.275zm-4.089,55.913l61.928,0l11.185,27.957l-84.297,0l11.184,-27.957zm69.321,270.247l-74.551,0l0,-9.319l74.551,0l0,9.319zm9.318,-27.956l-93.189,0l0,-195.696l93.189,0l0,195.696z"/>
    </g>
   </g>
   <g stroke="null" transform="matrix(0.1739108017947445,0,0,0.15981263525604017,-230.97339008743998,-216.39352587964697) " id="svg_40"/>
   <g stroke="null" transform="matrix(0.1739108017947445,0,0,0.15981263525604017,-230.97339008743998,-216.39352587964697) " id="svg_41"/>
   <g stroke="null" transform="matrix(0.1739108017947445,0,0,0.15981263525604017,-230.97339008743998,-216.39352587964697) " id="svg_42"/>
   <g stroke="null" transform="matrix(0.1739108017947445,0,0,0.15981263525604017,-230.97339008743998,-216.39352587964697) " id="svg_43"/>
   <g stroke="null" transform="matrix(0.1739108017947445,0,0,0.15981263525604017,-230.97339008743998,-216.39352587964697) " id="svg_44"/>
   <g stroke="null" transform="matrix(0.1739108017947445,0,0,0.15981263525604017,-230.97339008743998,-216.39352587964697) " id="svg_45"/>
   <g stroke="null" transform="matrix(0.1739108017947445,0,0,0.15981263525604017,-230.97339008743998,-216.39352587964697) " id="svg_46"/>
   <g stroke="null" transform="matrix(0.1739108017947445,0,0,0.15981263525604017,-230.97339008743998,-216.39352587964697) " id="svg_47"/>
   <g stroke="null" transform="matrix(0.1739108017947445,0,0,0.15981263525604017,-230.97339008743998,-216.39352587964697) " id="svg_48"/>
   <g stroke="null" transform="matrix(0.1739108017947445,0,0,0.15981263525604017,-230.97339008743998,-216.39352587964697) " id="svg_49"/>
   <g stroke="null" transform="matrix(0.1739108017947445,0,0,0.15981263525604017,-230.97339008743998,-216.39352587964697) " id="svg_50"/>
   <g stroke="null" transform="matrix(0.1739108017947445,0,0,0.15981263525604017,-230.97339008743998,-216.39352587964697) " id="svg_51"/>
   <g stroke="null" transform="matrix(0.1739108017947445,0,0,0.15981263525604017,-230.97339008743998,-216.39352587964697) " id="svg_52"/>
   <g stroke="null" transform="matrix(0.1739108017947445,0,0,0.15981263525604017,-230.97339008743998,-216.39352587964697) " id="svg_53"/>
   <g stroke="null" transform="matrix(0.1739108017947445,0,0,0.15981263525604017,-230.97339008743998,-216.39352587964697) " id="svg_54"/>
  </g>
 </g>
</svg>