<svg width="100%" height="100%"  viewBox="0 0 128 128" xmlns="http://www.w3.org/2000/svg">
 <g>
  <title>background</title>
  <rect fill="#000000" id="canvas_background" height="130" width="130" y="-1" x="-1"/>
 </g>
 <g>
  <title>Gun</title>
  <g id="svg_1">
   <polygon id="svg_2" fill="#FCC309" points="38.56024169921875,115.73567724227905 38.56024169921875,109.5210165977478 18.626007080078125,109.5210165977478 18.626007080078125,115.73567724227905 16.6326904296875,115.73567724227905 16.6326904296875,124.02148962020874 40.55354309082031,124.02148962020874 40.55354309082031,115.73567724227905 "/>
   <polygon id="svg_3" fill="#FD9808" points="44.54039001464844,115.73567724227905 44.54039001464844,109.5210165977478 38.56024169921875,109.5210165977478 38.56024169921875,115.73567724227905 40.55354309082031,115.73567724227905 40.55354309082031,124.02148962020874 46.53370666503906,124.02148962020874 46.53370666503906,115.73567724227905 "/>
   <polygon id="svg_4" fill="#FFFFFF" points="18.626007080078125,115.73567724227905 18.626007080078125,109.5210165977478 12.645843505859375,109.5210165977478 12.645843505859375,115.73567724227905 10.652297973632812,115.73567724227905 10.652297973632812,124.02148962020874 16.6326904296875,124.02148962020874 16.6326904296875,115.73567724227905 "/>
   <polygon id="svg_5" fill="#FFDD09" points="16.6326904296875,109.5210165977478 40.55354309082031,109.5210165977478 40.55354309082031,47.37608861923218 16.6326904296875,47.37608861923218 "/>
   <polygon id="svg_6" fill="#FFFFFF" points="10.652297973632812,109.5210165977478 16.6326904296875,109.5210165977478 16.6326904296875,47.37608861923218 10.652297973632812,47.37608861923218 "/>
   <polygon id="svg_7" fill="#FD9808" points="40.55354309082031,109.5210165977478 46.53370666503906,109.5210165977478 46.53370666503906,47.37608861923218 40.55354309082031,47.37608861923218 "/>
   <path id="svg_8" fill="#FCC309" d="m38.56024,47.37609l-19.934,0l0,-10.35745c0,-13.05052 3.78759,-25.2723 9.967,-33.14397l0,0l0,0c6.17965,7.87168 9.967,20.09345 9.967,33.14397l0,10.35745z"/>
   <path id="svg_9" fill="#FFFFFF" d="m12.64585,37.01865l0,10.35745l5.98015,0l0,-10.35745c0,-13.05052 3.78759,-25.2723 9.967,-33.14397c-9.967,7.87168 -15.94716,20.09345 -15.94716,33.14397"/>
   <path id="svg_10" fill="#FD9808" d="m28.593,3.87467c6.17965,7.87168 9.967,20.09345 9.967,33.14397l0,10.35745l5.98015,0l0,-10.35745c0.00024,-13.05052 -5.97992,-25.2723 -15.94716,-33.14397"/>
   <path id="svg_11" d="m46.5337,111.59265l-35.8814,0c-1.19603,0 -1.99331,-0.82851 -1.99331,-2.07139l0,-62.14517c0,-1.24288 0.79727,-2.07139 1.99331,-2.07139l35.8814,0c1.19603,0 1.99331,0.82851 1.99331,2.07139l0,62.14492c0.00024,1.24288 -0.79727,2.07164 -1.99331,2.07164zm-33.88786,-4.14303l31.89455,0l0,-58.00189l-31.89455,0l0,58.00189z"/>
   <path id="svg_12" d="m44.5404,117.80707l-31.89455,0c-1.19603,0 -1.99331,-0.82851 -1.99331,-2.07139l0,-6.21442c0,-1.24288 0.79727,-2.07139 1.99331,-2.07139l31.89455,0c1.19603,0 1.99331,0.82851 1.99331,2.07139l0,6.21442c0,1.24288 -0.79727,2.07139 -1.99331,2.07139zm-29.90124,-4.14303l27.9077,0l0,-2.07139l-27.9077,0l0,2.07139z"/>
   <path id="svg_13" d="m46.5337,126.09312l-35.8814,0c-1.19603,0 -1.99331,-0.82851 -1.99331,-2.07139l0,-8.28606c0,-1.24288 0.79727,-2.07139 1.99331,-2.07139l35.8814,0c1.19603,0 1.99331,0.82851 1.99331,2.07139l0,8.28606c0.00024,1.24264 -0.79727,2.07139 -1.99331,2.07139zm-33.88786,-4.14303l31.89455,0l0,-4.14303l-31.89455,0l0,4.14303z"/>
   <path id="svg_14" d="m44.5404,49.44773l-31.89455,0c-1.19603,0 -1.99331,-0.82851 -1.99331,-2.07139l0,-10.35745c0,-13.46465 6.17965,-26.51518 16.74467,-34.80124c0.79727,-0.41438 1.59479,-0.41438 2.39206,0c10.56502,8.28606 16.74467,21.33633 16.74467,34.80124l0,10.35745c-0.00024,1.24264 -0.79751,2.07139 -1.99354,2.07139zm-29.90124,-4.14303l27.9077,0l0,-8.28606c0,-11.80764 -5.18288,-22.99359 -13.95385,-30.45114c-8.77097,7.4573 -13.95385,18.6435 -13.95385,30.45114l0,8.28606z"/>
  </g>
  <g id="svg_28">
   <polygon id="svg_15" fill="#FCC309" points="108.56024169921875,115.73567855358124 108.56024169921875,109.52101790904999 88.62600708007812,109.52101790904999 88.62600708007812,115.73567855358124 86.6326904296875,115.73567855358124 86.6326904296875,124.02149093151093 110.55354309082031,124.02149093151093 110.55354309082031,115.73567855358124 "/>
   <polygon id="svg_16" fill="#FD9808" points="114.54039001464844,115.73567855358124 114.54039001464844,109.52101790904999 108.56024169921875,109.52101790904999 108.56024169921875,115.73567855358124 110.55354309082031,115.73567855358124 110.55354309082031,124.02149093151093 116.53370666503906,124.02149093151093 116.53370666503906,115.73567855358124 "/>
   <polygon id="svg_17" fill="#FFFFFF" points="88.62600708007812,115.73567855358124 88.62600708007812,109.52101790904999 82.64584350585938,109.52101790904999 82.64584350585938,115.73567855358124 80.65229797363281,115.73567855358124 80.65229797363281,124.02149093151093 86.6326904296875,124.02149093151093 86.6326904296875,115.73567855358124 "/>
   <polygon id="svg_18" fill="#FFDD09" points="86.6326904296875,109.52101790904999 110.55354309082031,109.52101790904999 110.55354309082031,47.37608993053436 86.6326904296875,47.37608993053436 "/>
   <polygon id="svg_19" fill="#FFFFFF" points="80.65229797363281,109.52101790904999 86.6326904296875,109.52101790904999 86.6326904296875,47.37608993053436 80.65229797363281,47.37608993053436 "/>
   <polygon id="svg_20" fill="#FD9808" points="110.55354309082031,109.52101790904999 116.53370666503906,109.52101790904999 116.53370666503906,47.37608993053436 110.55354309082031,47.37608993053436 "/>
   <path id="svg_21" fill="#FCC309" d="m108.56024,47.3761l-19.934,0l0,-10.35745c0,-13.05052 3.78759,-25.2723 9.967,-33.14397l0,0l0,0c6.17965,7.87167 9.967,20.09345 9.967,33.14397l0,10.35745z"/>
   <path id="svg_22" fill="#FFFFFF" d="m82.64585,37.01865l0,10.35745l5.98015,0l0,-10.35745c0,-13.05052 3.78759,-25.2723 9.967,-33.14397c-9.967,7.87167 -15.94715,20.09345 -15.94715,33.14397"/>
   <path id="svg_23" fill="#FD9808" d="m98.593,3.87468c6.17965,7.87167 9.967,20.09345 9.967,33.14397l0,10.35745l5.98016,0l0,-10.35745c0.00024,-13.05052 -5.97992,-25.2723 -15.94716,-33.14397"/>
   <path id="svg_24" d="m116.5337,111.59266l-35.8814,0c-1.19603,0 -1.9933,-0.82851 -1.9933,-2.07139l0,-62.14517c0,-1.24289 0.79727,-2.07139 1.9933,-2.07139l35.8814,0c1.19603,0 1.99331,0.8285 1.99331,2.07139l0,62.14492c0.00023,1.24288 -0.79728,2.07164 -1.99331,2.07164zm-33.88785,-4.14303l31.89455,0l0,-58.0019l-31.89455,0l0,58.0019z"/>
   <path id="svg_25" d="m114.5404,117.80707l-31.89455,0c-1.19603,0 -1.99331,-0.8285 -1.99331,-2.07139l0,-6.21441c0,-1.24289 0.79728,-2.0714 1.99331,-2.0714l31.89455,0c1.19603,0 1.9933,0.82851 1.9933,2.0714l0,6.21441c0,1.24289 -0.79727,2.07139 -1.9933,2.07139zm-29.90125,-4.14302l27.9077,0l0,-2.07139l-27.9077,0l0,2.07139z"/>
   <path id="svg_26" d="m116.5337,126.09313l-35.8814,0c-1.19603,0 -1.9933,-0.82851 -1.9933,-2.07139l0,-8.28606c0,-1.24288 0.79727,-2.07139 1.9933,-2.07139l35.8814,0c1.19603,0 1.99331,0.82851 1.99331,2.07139l0,8.28606c0.00023,1.24264 -0.79728,2.07139 -1.99331,2.07139zm-33.88785,-4.14303l31.89455,0l0,-4.14303l-31.89455,0l0,4.14303z"/>
   <path id="svg_27" d="m114.5404,49.44773l-31.89455,0c-1.19603,0 -1.99331,-0.8285 -1.99331,-2.07139l0,-10.35744c0,-13.46466 6.17965,-26.51518 16.74467,-34.80124c0.79727,-0.41437 1.59479,-0.41437 2.39206,0c10.56502,8.28606 16.74467,21.33634 16.74467,34.80124l0,10.35744c-0.00024,1.24264 -0.79751,2.07139 -1.99354,2.07139zm-29.90125,-4.14302l27.9077,0l0,-8.28606c0,-11.80764 -5.18288,-22.99359 -13.95385,-30.45114c-8.77097,7.4573 -13.95385,18.6435 -13.95385,30.45114l0,8.28606z"/>
  </g>
 </g>
</svg>