<svg width="100%" height="100%"  viewBox="0 0 128 128" xmlns="http://www.w3.org/2000/svg">
 <g>
  <title>hightop</title>
  <ellipse ry="60.72222" rx="60.72222" cy="63.5" cx="63.5" fill="#7f7f7f" id="svg_4"/>
  <g id="svg_1">
   <g id="svg_2">
    <path fill="#333333" d="m63.25354,0c-34.87331,0 -63.25354,28.37425 -63.25354,63.24955c0,34.86766 28.38023,63.24988 63.25354,63.24988c34.87165,0 63.24623,-28.38222 63.24623,-63.24988c-0.00033,-34.8753 -28.37458,-63.24955 -63.24623,-63.24955zm0,121.78196c-32.27734,0 -58.53806,-26.25873 -58.53806,-58.53241c0,-32.27734 26.26072,-58.53806 58.53806,-58.53806c32.27368,0 58.5364,26.26072 58.5364,58.53806c-0.00033,32.27368 -26.26305,58.53241 -58.5364,58.53241z" id="svg_5"/>
    <path id="svg_3" d="m77.02621,29.74133c-1.90959,4.70246 -6.50549,8.0253 -11.88934,8.0253c-5.38666,0 -9.98256,-3.32285 -11.88934,-8.0253l-29.11206,12.34641l8.19075,19.30335l8.99552,-3.81637l0,39.3554l47.94713,0l0,-39.21519l8.67305,3.67897l8.19355,-19.30335l-29.10925,-12.34921z" stroke-width="4" stroke="#333333" fill="#3f3f3f"/>
   </g>
  </g>
  <ellipse ry="13.22222" rx="14.72222" id="svg_6" cy="60.09524" cx="65.00794" fill="#e0e0ac"/>
 </g>
</svg>