<svg width="100%" height="100%"  viewBox="0 0 128 128" xmlns="http://www.w3.org/2000/svg">
 <g>
  <title>homestead</title>
  <g id="svg_2">
   <rect fill="#ffd4aa" x="73.21983" y="69.83649" width="20.57041" height="28.38716" id="svg_18"/>
   <rect fill="#bfbfbf" x="28.78776" y="70.65931" width="34.96969" height="26.33012" id="svg_17"/>
   <path d="m105.92328,64.79204l-11.5581,-27.35165c-0.48258,-1.14207 -1.60243,-1.88466 -2.84242,-1.88466l-60.87935,0c-1.23998,0 -2.35943,0.74259 -2.84242,1.88466l-11.5581,27.35165c-0.40277,0.95241 -0.30074,2.04388 0.27071,2.90578c0.57186,0.86231 1.53743,1.38027 2.57171,1.38027l3.7578,0l0,32.92335c0,1.70446 1.38151,3.08556 3.08556,3.08556l70.30923,0c1.70405,0 3.08556,-1.3811 3.08556,-3.08556l0,-32.92335l3.75739,0c1.03428,0 1.99985,-0.51837 2.57171,-1.38027c0.57186,-0.8619 0.67348,-1.95337 0.27071,-2.90578zm-26.9641,29.06063l0,-19.36992l10.65424,0l0,19.36992l-10.65424,0zm-45.73007,-0.11972l0,-19.13089l10.57813,0l0,19.13089l-10.57813,0zm16.74966,-19.13089l10.57854,0l0,19.13089l-10.57854,0l0,-19.13089z" id="svg_1" fill="#3f3f3f"/>
  </g>
 </g>
</svg>