<svg width="100%" height="100%"  viewBox="0 0 102 102" xmlns="http://www.w3.org/2000/svg">
 <g>
  <title>Hostel</title>
  <rect fill="#8f9181" x="9" y="22" width="102" height="102" id="svg_3" ry="16" rx="16"/>
  <g transform="matrix(0.169094,0,0,0.178882,44.4837,69.3277) " id="g2629">
   <path id="path1886" fill="#333333" d="m-30.29674,119.55809c21.59,0 39.09,-17.5 39.09,-39.07999c0,-21.59 -17.5,-39.09 -39.09,-39.09c-21.58501,0 -39.08501,17.49999 -39.08501,39.09c0,21.57999 17.5,39.07999 39.08501,39.07999z"/>
   <path id="path1890" fill="#333333" d="m54.10326,69.38807l156.23005,0c22.91997,0 36.42998,14.76001 36.42998,34.50998l0,56.55002l-192.66002,0l0,-91.05999l-0.00001,-0.00001z"/>
   <path id="path1892" fill="#333333" d="m11.57326,89.62808l0,33.92l-60.066,0c-29,0.10001 -29.04698,37.38 0,37.38l78.74601,0c11.5,0 18.7,-9.28 18.7,-19.78l0,-51.52c0,-28.22001 -37.38,-28.22001 -37.38,0l-0.00001,0z"/>
   <path id="path1894" fill="#333333" d="m-76.84473,36.80808c0,-30.77999 -42.70198,-30.77999 -42.70198,0l0,246.81l43.65099,0l0,-63.74001l332.12,0l0,63.26003l42.70001,0l0,-190.63004c0,-32.47999 -43.17001,-32.47999 -43.17001,0l0,76.09001l-332.60001,0l0.002,-131.78999l-0.00099,0l-0.00001,0z"/>
  </g>
  <g id="svg_2">
   <path id="svg_4" fill="#333333" d="m39.29432,56.67464c3.63578,0 6.5828,-2.94702 6.5828,-6.58112c0,-3.63578 -2.94702,-6.5828 -6.5828,-6.5828c-3.63494,0 -6.58196,2.94702 -6.58196,6.5828c0,3.6341 2.94702,6.58112 6.58196,6.58112z"/>
   <path id="svg_5" fill="#333333" d="m53.50738,48.22595l26.30932,0c3.85975,0 6.13485,2.4856 6.13485,5.81152l0,9.52309l-32.44417,0l0,-15.33461l0,0z"/>
   <path id="svg_6" fill="#333333" d="m46.34528,51.6344l0,5.71217l-10.11518,0c-4.88363,0.01684 -4.89155,6.29484 0,6.29484l13.26092,0c1.93661,0 3.1491,-1.56276 3.1491,-3.33098l0,-8.67603c0,-4.75228 -6.29484,-4.75228 -6.29484,0l0,0z"/>
   <path id="svg_7" fill="#333333" d="m31.45559,42.73945c0,-5.18339 -7.19106,-5.18339 -7.19106,0l0,41.56309l7.35088,0l0,-10.73389l55.9294,0l0,10.65306l7.19073,0l0,-32.10232c0,-5.46967 -7.26988,-5.46967 -7.26988,0l0,12.81365l-56.01023,0l0.00034,-22.19359l-0.00017,0l0,0z"/>
  </g>
 </g>
</svg>