<svg width="100%" height="100%"  viewBox="0 0 102 102" xmlns="http://www.w3.org/2000/svg">
 <g>
  <title>Hotel Ostrich</title>
  <rect rx="16" ry="16" id="svg_3" height="102" width="102" y="0" x="0" fill="#808272"/>
 <g id="g3166">
  <path d="m98.10902,49.55565l-5.29773,7.28322l-42.38171,-39.44146l-42.38185,39.44146l-5.29773,-7.28322l47.67958,-44.37165l47.67944,44.37165zm-51.46088,42.62134" fill="#444" id="svg_2"/>
 </g>
  <g id="g2629" transform="matrix(0.169094 0 0 0.178882 44.4837 69.3277)">
   <path d="m-83.52157,-3.42801c21.59,0 39.09,-17.5 39.09,-39.07999c0,-21.59 -17.5,-39.09 -39.09,-39.09c-21.58501,0 -39.08501,17.49999 -39.08501,39.09c0,21.57999 17.5,39.07999 39.08501,39.07999z" fill="#333333" id="path1886"/>
   <path d="m0.87843,-53.59803l156.23005,0c22.91997,0 36.42998,14.76001 36.42998,34.50998l0,56.55002l-192.66002,0l0,-91.05999l-0.00001,-0.00001z" fill="#333333" id="path1890"/>
   <path d="m-41.65157,-33.35802l0,33.92l-60.066,0c-29,0.10001 -29.04698,37.38 0,37.38l78.74601,0c11.5,0 18.7,-9.28 18.7,-19.78l0,-51.52c0,-28.22001 -37.38,-28.22001 -37.38,0l-0.00001,0z" fill="#333333" id="path1892"/>
   <path d="m-130.06956,-86.17802c0,-30.77999 -42.70198,-30.77999 -42.70198,0l0,246.81l43.65099,0l0,-63.74001l332.12,0l0,63.26003l42.70001,0l0,-190.63004c0,-32.47999 -43.17001,-32.47999 -43.17001,0l0,76.09001l-332.60001,0l0.002,-131.78999l-0.00099,0z" fill="#333333" id="path1894"/>
  </g>
 </g>
</svg>