<svg width="120%" height="130%"  viewBox="0 0 128 128" xmlns="http://www.w3.org/2000/svg">
 <g>
  <title>Hotel</title>
  <rect id="svg_4" height="88" width="74" y="36" x="26" fill="#AAA"/>
  <circle id="circle_01" cx="38" cy="22" r="16" fill="#CCC"/>
  <circle id="circle_01" cx="62" cy="15" r="16" fill="#CCC"/>
  <circle id="circle_01" cx="86" cy="22" r="16" fill="#CCC"/>
  <g id="svg_1">
   <path fill="#333" d="m96.43365,35.89112l-67.33578,0c-2.96877,0 -6.35487,1.95269 -6.35487,5.10632l0,77.28753c0,3.07125 3.2973,6.20002 6.35487,6.20002l23.06582,0l0,-16.06088l20.70345,0l0,16.06088l23.56652,0c3.23573,0 5.30934,-3.26761 5.30934,-6.20002l0,-77.28701c0,-2.95883 -2.1281,-5.10684 -5.30934,-5.10684zm-49.17341,63.20732l-14.71034,0l0,-10.36186l14.71034,0l0,10.36186zm0,-19.16943l-14.71034,0l0,-10.36186l14.71034,0l0,10.36186zm0,-19.16943l-14.71034,0l0,-9.84376l14.71034,0l0,9.84376zm22.88276,38.33887l-15.25517,0l0,-10.36186l15.25517,0l0,10.36186zm0,-19.16943l-15.25517,0l0,-10.36186l15.25517,0l0,10.36186zm0,-19.16943l-15.25517,0l0,-9.84376l15.25517,0l0,9.84376zm21.7931,38.33887l-14.16552,0l0,-10.36186l14.16552,0l0,10.36186zm0,-19.16943l-14.16552,0l0,-10.36186l14.16552,0l0,10.36186zm0,-19.16943l-14.16552,0l0,-9.84376l14.16552,0l0,9.84376z" id="svg_11"/>
   <path stroke="#AAA" stroke-width="1" fill="#333" d="m27.88617,20.21985l5.08052,3.53598l-1.93196,5.59488c-0.31491,0.90977 -0.0583,1.52371 0.21194,1.87912c0.60748,0.79838 1.81046,0.95329 2.84237,0.24091l5.08542,-3.50593l5.08814,3.52873c0.44948,0.31189 0.9115,0.46991 1.37242,0.46991c0.59223,0 1.12888,-0.25801 1.47212,-0.70823c0.27078,-0.35541 0.52794,-0.96935 0.21521,-1.8786l-1.94286,-5.66327l5.07126,-3.48314c0.99486,-0.67507 1.12343,-1.58744 0.91095,-2.21744c-0.2103,-0.6243 -0.86192,-1.29109 -2.06217,-1.29109l-6.31946,-0.00207l-1.9118,-5.50992c-0.46964,-1.37346 -1.56638,-1.48019 -1.89164,-1.48019s-1.42146,0.10673 -1.88892,1.47397l-1.91507,5.51821l-6.31782,0c-1.19971,0 -1.85187,0.66679 -2.06272,1.29057c-0.21248,0.62896 -0.08499,1.54184 0.89406,2.20759z" id="svg_12"/>
   <path stroke="#AAA" stroke-width="1" fill="#333" d="m51.47448,13.48723l5.08106,3.53961l-1.93305,5.59592c-0.31382,0.90977 -0.05721,1.52319 0.21303,1.8786c0.60857,0.79786 1.81046,0.95225 2.84237,0.2404l5.08542,-3.50697l5.08814,3.52925c0.44948,0.31189 0.9115,0.46991 1.37242,0.46991c0.59223,0 1.12888,-0.25801 1.47212,-0.70823c0.27078,-0.35541 0.52794,-0.96935 0.21521,-1.8786l-1.94177,-5.66431l5.07126,-3.48469c0.99486,-0.67507 1.12343,-1.58899 0.91095,-2.21899c-0.2103,-0.62482 -0.86246,-1.29264 -2.06272,-1.29264l-6.32109,-0.00259l-1.91017,-5.50318c-0.47019,-1.37398 -1.56747,-1.48071 -1.89219,-1.48071c-0.32472,0 -1.42146,0.10673 -1.88837,1.47397l-1.91398,5.51303l-6.32,0c-1.19971,0 -1.85187,0.6673 -2.06217,1.29212c-0.21248,0.62948 -0.08554,1.54392 0.89352,2.20811z" id="svg_13"/>
   <path stroke="#AAA" stroke-width="1" fill="#333" d="m74.16873,18.01278c-0.21194,0.62948 -0.0839,1.54288 0.89461,2.20759l5.08052,3.53598l-1.9325,5.59592c-0.31382,0.91029 -0.05721,1.52371 0.21303,1.8786c0.60803,0.79838 1.81046,0.95174 2.84182,0.2404l5.08542,-3.50593l5.08814,3.52821c0.44948,0.31241 0.9115,0.47043 1.37242,0.47043c0.59277,0 1.12888,-0.25801 1.47212,-0.70823c0.27078,-0.35541 0.52794,-0.96935 0.21575,-1.87912l-1.94231,-5.66275l5.0718,-3.48314c0.99486,-0.67456 1.12289,-1.58744 0.91095,-2.21692c-0.2103,-0.6243 -0.86246,-1.29161 -2.06272,-1.29161l-6.32,-0.00259l-1.91126,-5.5094c-0.46964,-1.37346 -1.56638,-1.48019 -1.89164,-1.48019s-1.42146,0.10673 -1.88892,1.47397l-1.91507,5.51821l-6.31891,0c-1.20026,-0.00052 -1.85241,0.66627 -2.06326,1.29057z" id="svg_14"/>
  </g>
 </g>
</svg>