<svg width="80%" height="80%"  viewBox="0 0 128 170" xmlns="http://www.w3.org/2000/svg">
 <g>
  <title>Hotel</title>
  <rect id="svg_4" height="117.93077" width="98.35443" y="48.90428" x="15.07192" fill="#AAA"/>
  <circle id="circle_01" cx="31.02129" cy="28.80245" r="18.07595" fill="#CCC"/>
  <circle id="circle_02" cx="62.92003" cy="20.76171" r="18.07595" fill="#CCC"/>
  <circle id="circle_03" cx="94.81876" cy="28.80245" r="18.07595" fill="#CCC"/>
  <g id="svg_1" fill="#333">
   <path d="m108.68627,48.75837l-89.49693,0c-3.94583,0 -8.44635,2.61684 -8.44635,6.84309l0,103.57475c0,4.11585 4.38249,8.30879 8.44635,8.30879l30.6571,0l0,-21.52354l27.51724,0l0,21.52354l31.32259,0c4.30065,0 7.05672,-4.379 7.05672,-8.30879l0,-103.57405c0,-3.96519 -2.82849,-6.84379 -7.05672,-6.84379l-0.00001,0l0.00001,0zm-65.35707,84.70554l-19.55172,0l0,-13.88616l19.55172,0l0,13.88616zm0,-25.68938l-19.55172,0l0,-13.88616l19.55172,0l0,13.88616zm0,-25.68938l-19.55172,0l0,-13.19184l19.55172,0l0,13.19184zm30.4138,51.37878l-20.27586,0l0,-13.88616l20.27586,0l0,13.88616zm0,-25.68938l-20.27586,0l0,-13.88616l20.27586,0l0,13.88616zm0,-25.68938l-20.27586,0l0,-13.19184l20.27586,0l0,13.19184zm28.96551,51.37878l-18.82759,0l0,-13.88616l18.82759,0l0,13.88616zm0,-25.68938l-18.82759,0l0,-13.88616l18.82759,0l0,13.88616zm0,-25.68938l-18.82759,0l0,-13.19184l18.82759,0l0,13.19184z" id="svg_11"/>
   <path d="m17.57886,27.75695l6.75259,4.73865l-2.5678,7.49782c-0.41855,1.2192 -0.07749,2.04196 0.28169,2.51825c0.80741,1.06993 2.40631,1.27753 3.77783,0.32285l6.7591,-4.69838l6.76272,4.72893c0.59741,0.41797 1.21149,0.62974 1.8241,0.62974c0.78714,0 1.50041,-0.34576 1.95662,-0.94911c0.3599,-0.47629 0.70169,-1.29905 0.28604,-2.51755l-2.58228,-7.58947l6.74028,-4.66783c1.32228,-0.90468 1.49317,-2.12736 1.21076,-2.97164c-0.27951,-0.83664 -1.14559,-1.73022 -2.74086,-1.73022l-8.39928,-0.00277l-2.541,-7.38397c-0.62421,-1.8406 -2.0819,-1.98364 -2.51421,-1.98364s-1.88928,0.14303 -2.51059,1.9753l-2.54535,7.39508l-8.3971,0c-1.59455,0 -2.46135,0.89358 -2.74159,1.72952c-0.28241,0.84288 -0.11296,2.06625 1.18831,2.95844l0.00001,0.00001l0.00001,-0.00001z" id="svg_12" stroke="#AAA"/>
   <path d="m48.93041,18.73442l6.75331,4.74351l-2.56924,7.49922c-0.4171,1.2192 -0.07604,2.04126 0.28314,2.51755c0.80886,1.06923 2.40631,1.27613 3.77783,0.32217l6.7591,-4.69977l6.76272,4.72963c0.59741,0.41797 1.21149,0.62974 1.8241,0.62974c0.78714,0 1.50041,-0.34576 1.95662,-0.94911c0.3599,-0.47629 0.70169,-1.29905 0.28604,-2.51755l-2.58083,-7.59087l6.74028,-4.66991c1.32228,-0.90468 1.49317,-2.12944 1.21076,-2.97372c-0.27951,-0.83734 -1.14631,-1.7323 -2.74159,-1.7323l-8.40145,-0.00347l-2.53883,-7.37493c-0.62494,-1.8413 -2.08335,-1.98433 -2.51494,-1.98433c-0.43159,0 -1.88928,0.14303 -2.50986,1.9753l-2.5439,7.38813l-8.4,0c-1.59455,0 -2.46135,0.89426 -2.74086,1.7316c-0.28241,0.84358 -0.11369,2.06904 1.18759,2.95914l0.00001,-0.00001l0,-0.00002z" id="svg_13" stroke="#AAA"/>
   <path d="m79.09366,24.79921c-0.28169,0.84358 -0.11151,2.06765 1.18904,2.95844l6.75259,4.73865l-2.56851,7.49922c-0.4171,1.2199 -0.07604,2.04196 0.28314,2.51755c0.80814,1.06993 2.40631,1.27545 3.7771,0.32217l6.7591,-4.69838l6.76272,4.72823c0.59741,0.41867 1.21149,0.63043 1.8241,0.63043c0.78786,0 1.50041,-0.34576 1.95662,-0.94911c0.3599,-0.47629 0.70169,-1.29905 0.28676,-2.51825l-2.58155,-7.58878l6.741,-4.66783c1.32228,-0.90399 1.49245,-2.12736 1.21076,-2.97094c-0.27951,-0.83664 -1.14631,-1.73092 -2.74159,-1.73092l-8.4,-0.00347l-2.54028,-7.38327c-0.62421,-1.8406 -2.0819,-1.98364 -2.51421,-1.98364s-1.88928,0.14303 -2.51059,1.9753l-2.54535,7.39508l-8.39855,0c-1.59528,-0.0007 -2.46206,0.89288 -2.74231,1.72952l0.00001,0z" id="svg_14" stroke="#AAA"/>
  </g>
 </g>
</svg>