<?xml version="1.0" encoding="utf-8"?>
<svg width="90%" height="90%" viewBox="0 0 128 128" xmlns="http://www.w3.org/2000/svg">
  <g style="" transform="matrix(0.89892, 0, 0, 0.89892, 0, 0.11796)">
    <g style="" transform="matrix(5.257311, 0, 0, 5.257311, 0, -4.968282)">
      <polygon points="22.968,1.288 6.122,1.167 0,10.586 0,11.664 14.337,14.749 21.798,2.371 29.939,12.028 32,12.009 &#9;&#9;" style="fill: rgb(143, 71, 71);"/>
      <path style="stroke: rgb(0, 0, 0); stroke-width: 0px; fill: rgb(200, 175, 123);" d="M 18.677 13.929 L 31.882 17.313 L 25.476 27.617 L 11.604 25.015 L 18.677 13.929 Z" transform="matrix(0.846041, -0.533118, 0.533118, 0.846041, -7.726927, 14.789775)"/>
      <path style="stroke: rgb(0, 0, 0); stroke-width: 0px; fill: rgb(239, 210, 147);" d="M 1.453 13.527 L 15.022 16.641 L 14.947 29.839 L 1.527 24.277 L 1.453 13.527 Z"/>
      <path d="M14.852,15.629L0.775,12.526L0.78,24.702l8.231,3.522v-7.796l4.104,1.22v8.332l1.96,0.84v0.013l14.032-6.003V13.042 v-0.254v-0.596l-7.246-8.582L14.852,15.629z M6.397,23.576l-3.488-1.213v-2.924l3.488,1.074V23.576z M6.582,18.798l-3.504-1 v-2.931l3.504,0.861V18.798z M13.116,20.662l-4.104-1.171v-3.165l4.104,1.008V20.662z M21.939,24.363l-4.217,1.476V22.42 l4.217-1.302V24.363z M23.58,15.771l3.658-0.9v3.026L23.58,18.95V15.771z M23.549,20.623l3.662-1.131v3.027L23.549,23.8V20.623z M21.975,19.41l-4.216,1.211v-3.416l4.216-1.038V19.41z" style="fill: rgb(135, 129, 121); stroke-width: 0px;"/>
    </g>
  </g>
</svg>