<svg width="80%" height="80%"  viewBox="0 0 128 128" xmlns="http://www.w3.org/2000/svg">
 <g>
  <title>House</title>
  <rect rx="16" ry="16" id="svg_3" height="128" width="128" y="0" x="0" fill="#808272"/>
  <g id="svg_1">
   <path id="svg_2" fill="#333" d="m123.35901,66.24679l-6.57551,8.87394l-52.60391,-48.05581l-52.60408,48.05581l-6.57551,-8.87394l59.17959,-54.06279l59.17942,54.06279zm-59.17942,-28.10651l38.19156,34.99519l-0.00597,33.02699l0,10.06908l0,1.94544l-42.87908,0l0,-41.34404l0.00683,0l0,-3.65007l-22.83675,0l0,0.28271c0,1.19438 0,2.30211 0,3.36736c0,1.97919 0,3.80992 0,5.76237l0,4.35164l0,8.49851l0,22.73095l-10.66216,0l0,-2.08177l0,-9.93218l0,-33.02112l38.18558,-35.00107l-0.00001,0.00001zm6.06767,58.73166l21.39499,0l0,-23.7651l-21.39499,0l0,23.7651z"/>
  </g>
 </g>
</svg>