<svg width="100%" height="100%" viewBox="0 0 256 256" xmlns="http://www.w3.org/2000/svg">
 <g>
  <title>Hydro_Plant</title>
     <path stroke="#4c4c4c" stroke-width="5" d="m243.22139,41.66984l-32.15491,0c-4.43783,0 -8.03885,3.09372 -8.03885,6.91191l0,20.73532l-150.05478,0l0,-20.73532c0,-3.81819 -3.60101,-6.91191 -8.03885,-6.91191l-32.15442,0c-4.43783,0 -8.03885,3.09372 -8.03885,6.91191l0,198.13747c0,3.81778 3.60101,6.9115 8.03885,6.9115l32.15491,0l32.15491,0c4.43783,0 8.03885,-3.09372 8.03885,-6.91191l0,-96.7647c0,-3.81819 -3.60101,-6.91191 -8.03885,-6.91191l-8.03885,0l0,-13.82341l117.90084,0l0,13.82341l-8.03885,0c-4.43783,0 -8.03885,3.09372 -8.03885,6.91191l0,96.7647c0,3.81819 3.60101,6.91191 8.03885,6.91191l32.15491,0l32.15491,0c4.43783,0 8.03885,-3.09372 8.03885,-6.91191l0,-198.13706c-0.00096,-3.81819 -3.60198,-6.91191 -8.03981,-6.91191z" fill="#B8C9D9" id="svg_1"/>
     <path d="m241.68615,45.6317l-29.08045,0c-4.01351,0 -7.27022,2.9764 -7.27022,6.6498l0,19.949l-67.85351,0l0,57.63052l53.31394,0l0,13.2992l-7.27022,0c-4.01351,0 -7.27022,2.9764 -7.27022,6.6498l0,93.09518c0,3.6734 3.25671,6.6498 7.27022,6.6498l29.08045,0l29.08045,0c4.01351,0 7.27022,-2.9764 7.27022,-6.6498l0,-190.62369c-0.00044,-3.6734 -3.25714,-6.6498 -7.27066,-6.6498z" fill="#9EACBA" id="svg_2"/>
     <path stroke="#4c4c4c" stroke-width="5" d="m186.95091,253.63073l-117.90084,0l0,-103.67661c0,-3.81695 3.59909,-6.91191 8.03885,-6.91191l101.82315,0c4.43928,0 8.03885,3.09455 8.03885,6.91191l0,103.67661z" fill="#5CE6E6" id="svg_3"/>
     <path d="m178.91206,140.73871l-50.91157,0l0,110.58811l58.95042,0l0,-103.67661c0,-3.81695 -3.59909,-6.9115 -8.03885,-6.9115z" fill="#51CCCC" id="svg_4"/>
     <path d="m109.25442,212.16008c-4.43783,0 -8.03885,-3.09372 -8.03885,-6.91191l0,-13.82341c0,-3.81819 3.60101,-6.91191 8.03885,-6.91191s8.03885,3.09372 8.03885,6.91191l0,13.82341c-0.00048,3.81819 -3.60101,6.91191 -8.03885,6.91191z" fill="#D7EBFF" id="svg_5"/>
     <path d="m146.76823,184.51285c-4.43783,0 -8.03885,-3.09372 -8.03885,-6.91191l0,-13.82341c0,-3.81819 3.60101,-6.91191 8.03885,-6.91191c4.43783,0 8.03885,3.09372 8.03885,6.91191l0,13.82341c-0.00048,3.81819 -3.60101,6.91191 -8.03885,6.91191z" fill="#BDDEFF" id="svg_6"/>
     <path d="m109.25442,170.68944c-4.43783,0 -8.03885,-3.09372 -8.03885,-6.91191l0,-13.82341c0,-3.81819 3.60101,-6.91191 8.03885,-6.91191s8.03885,3.09372 8.03885,6.91191l0,13.82341c-0.00048,3.81819 -3.60101,6.91191 -8.03885,6.91191z" fill="#D7EBFF" id="svg_7"/>
     <path d="m146.76823,225.98349c-4.43783,0 -8.03885,-3.09372 -8.03885,-6.91191l0,-13.82341c0,-3.81819 3.60101,-6.91191 8.03885,-6.91191c4.43783,0 8.03885,3.09372 8.03885,6.91191l0,13.82341c-0.00048,3.81819 -3.60101,6.91191 -8.03885,6.91191z" fill="#BDDEFF" id="svg_8"/>
     <path d="m109.25442,249.0229c-4.43783,0 -8.03885,-3.09372 -8.03885,-6.91191l0,-13.82341c0,-3.81819 3.60101,-6.91191 8.03885,-6.91191s8.03885,3.09372 8.03885,6.91191l0,13.82341c-0.00048,3.81819 -3.60101,6.91191 -8.03885,6.91191z" fill="#D7EBFF" id="svg_9"/>
     <path d="m194.98927,147.65028l-133.97757,0c-4.43928,0 -8.03885,-3.09455 -8.03885,-6.91191l0,-18.43149c0,-3.81695 3.59909,-6.91191 8.03885,-6.91191l133.97757,0c4.43928,0 8.03885,3.09455 8.03885,6.91191l0,18.43149c0,3.81737 -3.59909,6.91191 -8.03885,6.91191z" fill="#576573" id="svg_10"/>
     <path d="m194.98927,115.39539l-66.98878,0l0,32.2549l66.98878,0c4.43928,0 8.03885,-3.09455 8.03885,-6.91191l0,-18.43149c0,-3.81695 -3.59909,-6.9115 -8.03885,-6.9115z" fill="#485566" id="svg_11"/>
 </g>
</svg>
