<svg width="100%" height="100%"  viewBox="0 0 192 192" xmlns="http://www.w3.org/2000/svg">
 <g>
  <title>ICE stadium</title>
  <path id="svg_2" d="m9.05803,125.41518c0,0 9,-37.125 8.94197,-37.66518c-0.05803,-0.54018 28.74553,-26.45982 28.6875,-27c-0.05803,-0.54018 28.18303,-10.70982 28.125,-11.25c-0.05803,-0.54018 115.37053,2.79018 115.3125,2.25c-0.05803,-0.54018 46.74553,33.16518 46.6875,32.625c-0.05803,-0.54018 11.30803,42.72768 11.30803,42.72768c0,0 -12.375,50.0625 -12.43303,49.52232c-0.05803,-0.54018 -42.69197,27.54018 -42.75,27c-0.05803,-0.54018 -126.50447,1.66518 -126.5625,1.125c-0.05803,-0.54018 -45.50447,-30.95982 -45.5625,-31.5c-0.05803,-0.54018 -11.75447,-47.83482 -11.75447,-47.83482z" fill="#bfbfbf"/>
  <g id="XMLID_343_">
   <path fill="#3f3f3f" id="XMLID_348_" d="m178.53608,44.57089l-100.34535,0c-42.20346,0 -76.41295,34.20949 -76.41295,76.41397l0,14.89948c0,42.20397 34.20949,76.41346 76.41295,76.41346l100.34535,0c42.20448,0 76.41346,-34.20949 76.41346,-76.41346l0,-14.89948c0,-42.20448 -34.20898,-76.41397 -76.41346,-76.41397zm-8.66941,153.13069l-82.98968,0c-38.19882,0 -69.27617,-31.06867 -69.27617,-69.268c0,-38.1978 31.07735,-69.27566 69.27617,-69.27566l82.98968,0c38.1978,0 69.268,31.07786 69.268,69.27566c0,38.19933 -31.06969,69.268 -69.268,69.268z"/>
   <path fill="#007fff" id="XMLID_351_" d="m169.86667,92.91406l-82.98968,0c-19.58978,0 -35.52055,15.93026 -35.52055,35.51952c0,19.5811 15.93077,35.51187 35.52055,35.51187l82.98968,0c19.5811,0 35.51187,-15.93026 35.51187,-35.51187c0,-19.58927 -15.93077,-35.51952 -35.51187,-35.51952z"/>
   <path fill="#3f3f3f" id="XMLID_352_" d="m169.86667,71.81667l-82.98968,0c-31.21775,0 -56.61743,25.40019 -56.61743,56.61743c0,31.21775 25.39968,56.61028 56.61743,56.61028l82.98968,0c31.21775,0 56.60926,-25.39202 56.60926,-56.61028c0,-31.21724 -25.391,-56.61743 -56.60926,-56.61743zm0,104.78752l-82.98968,0c-26.56166,0 -48.17827,-21.60793 -48.17827,-48.17061c0,-26.56115 21.61661,-48.17827 48.17827,-48.17827l82.98968,0c26.56115,0 48.1701,21.61712 48.1701,48.17827c0,26.56268 -21.60844,48.17061 -48.1701,48.17061z"/>
  </g>
 </g>
</svg>