<svg width="70%" height="70%"  viewBox="0 0 128 128" xmlns="http://www.w3.org/2000/svg">
 <g>
  <title>Indian burial grounds</title>
  <g transform="rotate(39.17259979248047 67.9996032714844,62.50000381469725) " id="svg_5">
   <path fill="black" d="m49.99903,115.94923c0,0 -10.2041,-75.9375 -10.36915,-76.08204c-0.16505,-0.14454 12.9795,-31.17968 12.81445,-31.32422c-0.16505,-0.14454 30.77735,0.14454 30.6123,0c-0.16505,-0.14454 12.9795,31.23145 12.81445,31.08691c-0.16505,-0.14454 -10.27636,76.55665 -10.44141,76.41211c-0.16505,-0.14454 -35.43066,-0.09277 -35.43066,-0.09277l0.00002,0.00001z" id="svg_23"/>
   <path fill="#7f7f7f" d="m54.98243,108.35548l-9.65723,-67.53907l10.2041,-25.62891l23.96777,0.71191l10.67871,25.1543l-9.25488,67.63184l-25.93847,-0.33007z" id="svg_22"/>
   <g id="svg_1">
    <path id="svg_2" d="m97.42509,39.6203l-12.78397,-31.66334c-0.23744,-0.58783 -0.71067,-0.95696 -1.227,-0.95696l-30.82889,0c-0.51633,0 -0.98956,0.36913 -1.227,0.95696l-12.78397,31.66334c-0.13908,0.34457 -0.18605,0.73803 -0.13392,1.12016l10.36349,75.79411c0.11587,0.84738 0.68986,1.46544 1.36074,1.46544l35.66985,0c0.67107,0 1.24487,-0.61806 1.36074,-1.46544l10.36349,-75.79411c0.0525,-0.38212 0.00553,-0.77558 -0.13355,-1.12016l-0.00001,0zm-46.09983,74.83715l-10.08257,-73.73943l12.18308,-30.17547l29.14781,0l12.18308,30.17547l-10.08257,73.73943l-33.34884,0l0.00001,0z" fill="#4c4c4c"/>
    <path id="svg_3" d="m72.4398,62.01089c-0.52923,-0.70473 -1.40384,-0.72622 -1.95352,-0.04771c-0.25789,0.31907 -0.69538,0.31836 -0.95474,-0.00142c-0.55023,-0.67757 -1.42484,-0.6549 -1.95333,0.05054s-0.51081,1.82678 0.03942,2.50435c0.66001,0.81266 1.52634,1.21911 2.39267,1.21911c0.86669,0 1.73339,-0.40692 2.39248,-1.22053c0.54949,-0.67852 0.56607,-1.79962 0.03703,-2.50435l-0.00001,0.00001z" fill="#4c4c4c"/>
    <path id="svg_4" d="m68.42243,55.1296c-0.52775,-0.70686 -1.40237,-0.73024 -1.95333,-0.05361c-0.2601,0.3193 -0.69833,0.32001 -0.95714,0.00142c-0.55023,-0.67734 -1.42503,-0.6549 -1.95333,0.05054c-0.52849,0.70568 -0.51081,1.82678 0.03942,2.50435c0.65891,0.81148 1.52487,1.21699 2.39119,1.21699c0.86577,0 1.73173,-0.40527 2.39138,-1.21557c0.55115,-0.67663 0.56975,-1.79796 0.04181,-2.50411l0,-0.00001z" fill="#4c4c4c"/>
    <path id="svg_6" d="m91.65941,40.75132l-10.38007,-25.70925c-0.23744,-0.58783 -0.71067,-0.95696 -1.227,-0.95696l-24.10533,0c-0.51633,0 -0.98956,0.36913 -1.227,0.9572l-10.38007,25.70902c-0.13908,0.34457 -0.18605,0.73803 -0.13392,1.12016l4.14282,30.29969c0.13171,0.96357 0.84809,1.6069 1.59929,1.43899c0.75156,-0.1691 1.25408,-1.08709 1.12219,-2.05067l-4.06213,-29.71069l9.77937,-24.22115l22.42426,0l9.77918,24.22138l-8.95891,65.5233l-24.06481,0l-3.94258,-28.83426c-0.13171,-0.96334 -0.84717,-1.60737 -1.59929,-1.43899c-0.75156,0.1691 -1.25408,1.08709 -1.12219,2.05067l4.14282,30.29969c0.11587,0.84738 0.68986,1.46544 1.36074,1.46544l26.38581,0c0.67107,0 1.24487,-0.61806 1.36074,-1.46544l9.23982,-67.57798c0.05231,-0.38212 0.00534,-0.77558 -0.13373,-1.12016l-0.00001,0.00001z" fill="#4c4c4c"/>
   </g>
  </g>
 </g>
</svg>