<svg width="100%" height="100%"  viewBox="0 0 128 128" xmlns="http://www.w3.org/2000/svg">
 <g>
  <title>Indian burial grounds</title>
  <g id="svg_5" transform="rotate(56.521202087402344 59.78242492675781,31.550289154052738) ">
   <path id="svg_23" d="m47.66659,67.52592c0,0 -6.86818,-51.11205 -6.97927,-51.20934c-0.11109,-0.09729 8.73625,-20.98644 8.62516,-21.08372c-0.11109,-0.09729 20.71563,0.09729 20.60454,0c-0.11109,-0.09729 8.73625,21.02128 8.62516,20.92399c-0.11109,-0.09729 -6.91682,51.52879 -7.02791,51.4315c-0.11109,-0.09729 -23.84769,-0.06244 -23.84769,-0.06244l0.00001,0.00001z" fill="black"/>
   <path id="svg_22" d="m51.02082,62.41471l-6.50009,-45.45923l6.86818,-17.25032l16.13224,0.47917l7.18763,16.93087l-6.22928,45.52167l-17.45868,-0.22216z" fill="#7f7f7f"/>
   <g id="svg_1">
    <path fill="#4c4c4c" d="m79.58815,16.1504l-8.60464,-21.31198c-0.15982,-0.39566 -0.47834,-0.64411 -0.82587,-0.64411l-20.75033,0c-0.34753,0 -0.66605,0.24845 -0.82587,0.64411l-8.60464,21.31198c-0.09361,0.23192 -0.12523,0.49675 -0.09014,0.75396l6.97546,51.01554c0.07799,0.57035 0.46433,0.98636 0.91589,0.98636l24.00868,0c0.45168,0 0.8379,-0.416 0.91589,-0.98636l6.97546,-51.01554c0.03534,-0.2572 0.00372,-0.52203 -0.08989,-0.75396l-0.00001,0zm-31.0289,50.37143l-6.78638,-49.63257l8.20019,-20.31052l19.61882,0l8.20019,20.31052l-6.78638,49.63257l-22.44645,0l0.00001,0z" id="svg_2"/>
    <path fill="#4c4c4c" d="m62.77104,31.22107c-0.35621,-0.47434 -0.9449,-0.4888 -1.31488,-0.03211c-0.17358,0.21476 -0.46805,0.21428 -0.64262,-0.00096c-0.37035,-0.45606 -0.95903,-0.4408 -1.31475,0.03402s-0.34382,1.22957 0.02653,1.68563c0.44424,0.54699 1.02735,0.82056 1.61046,0.82056c0.58335,0 1.16671,-0.27389 1.61033,-0.82151c0.36985,-0.4567 0.38101,-1.21129 0.02492,-1.68563l-0.00001,0.00001z" id="svg_3"/>
    <path fill="#4c4c4c" d="m60.06702,26.58941c-0.35522,-0.47577 -0.94391,-0.49151 -1.31475,-0.03608c-0.17507,0.21491 -0.47003,0.21539 -0.64423,0.00096c-0.37035,-0.4559 -0.95916,-0.4408 -1.31475,0.03402c-0.35572,0.47498 -0.34382,1.22957 0.02653,1.68563c0.4435,0.54619 1.02636,0.81913 1.60946,0.81913c0.58273,0 1.16559,-0.27278 1.60959,-0.81818c0.37097,-0.45543 0.38349,-1.21017 0.02814,-1.68547l0,-0.00001z" id="svg_4"/>
    <path fill="#4c4c4c" d="m75.70738,16.91167l-6.98662,-17.3044c-0.15982,-0.39566 -0.47834,-0.64411 -0.82587,-0.64411l-16.22483,0c-0.34753,0 -0.66605,0.24845 -0.82587,0.64427l-6.98662,17.30424c-0.09361,0.23192 -0.12523,0.49675 -0.09014,0.75396l2.78845,20.39413c0.08865,0.64856 0.57083,1.08157 1.07645,0.96856c0.50586,-0.11382 0.8441,-0.7317 0.75532,-1.38027l-2.73414,-19.99769l6.5823,-16.30278l15.09333,0l6.58218,16.30294l-6.03007,44.10246l-16.19755,0l-2.65367,-19.40778c-0.08865,-0.64841 -0.57021,-1.08189 -1.07645,-0.96856c-0.50586,0.11382 -0.8441,0.7317 -0.75532,1.38027l2.78845,20.39413c0.07799,0.57035 0.46433,0.98636 0.91589,0.98636l17.75977,0c0.45168,0 0.8379,-0.416 0.91589,-0.98636l6.21914,-45.48542c0.03521,-0.2572 0.00359,-0.52203 -0.09001,-0.75396l-0.00001,0.00001z" id="svg_6"/>
   </g>
  </g>
  <g transform="rotate(57.9178352355957 55.56039810180667,94.6001739501953) " id="svg_7">
   <path d="m43.20312,131.29272c0,0 -7.00505,-52.13059 -7.11835,-52.22982c-0.11331,-0.09923 8.91034,-21.40464 8.79704,-21.50387c-0.11331,-0.09923 21.12845,0.09923 21.01514,0c-0.11331,-0.09923 8.91034,21.44018 8.79704,21.34096c-0.11331,-0.09923 -7.05465,52.55563 -7.16796,52.45641c-0.11331,-0.09923 -24.32291,-0.06369 -24.32291,-0.06369l0.00001,0.00001z" fill="black" id="svg_8"/>
   <path d="m46.62419,126.07966l-6.62962,-46.36513l7.00505,-17.59408l16.45372,0.48872l7.33086,17.26826l-6.35341,46.42881l-17.80659,-0.22659z" fill="#7f7f7f" id="svg_9"/>
   <g id="svg_10">
    <path fill="#4c4c4c" d="m75.7608,78.89341l-8.77611,-21.73667c-0.163,-0.40354 -0.48787,-0.65695 -0.84233,-0.65695l-21.16383,0c-0.35446,0 -0.67933,0.25341 -0.84233,0.65695l-8.77611,21.73667c-0.09548,0.23655 -0.12772,0.50665 -0.09194,0.76898l7.11447,52.03216c0.07954,0.58172 0.47358,1.00601 0.93414,1.00601l24.48712,0c0.46069,0 0.8546,-0.42429 0.93414,-1.00601l7.11447,-52.03216c0.03604,-0.26232 0.0038,-0.53243 -0.09168,-0.76898l-0.00001,0zm-31.64723,51.37521l-6.92162,-50.62163l8.3636,-20.71526l20.00978,0l8.3636,20.71526l-6.92162,50.62163l-22.89376,0l0.00001,0z" id="svg_11"/>
    <path fill="#4c4c4c" d="m58.60856,94.26441c-0.36331,-0.48379 -0.96373,-0.49855 -1.34108,-0.03275c-0.17704,0.21904 -0.47737,0.21855 -0.65542,-0.00097c-0.37773,-0.46515 -0.97814,-0.44958 -1.34095,0.0347s-0.35067,1.25407 0.02706,1.71922c0.45309,0.55789 1.04782,0.83691 1.64255,0.83691c0.59498,0 1.18996,-0.27935 1.64242,-0.83789c0.37722,-0.4658 0.3886,-1.23543 0.02542,-1.71922l-0.00001,0.00001z" id="svg_12"/>
    <path fill="#4c4c4c" d="m55.85066,89.54045c-0.3623,-0.48525 -0.96272,-0.5013 -1.34095,-0.0368c-0.17856,0.2192 -0.4794,0.21968 -0.65707,0.00097c-0.37773,-0.46499 -0.97827,-0.44958 -1.34095,0.0347c-0.3628,0.48444 -0.35067,1.25407 0.02706,1.71922c0.45234,0.55708 1.04681,0.83546 1.64154,0.83546c0.59435,0 1.18882,-0.27822 1.64167,-0.83448c0.37836,-0.4645 0.39113,-1.23429 0.0287,-1.71905l0,-0.00001z" id="svg_13"/>
    <path fill="#4c4c4c" d="m71.8027,79.66985l-7.12585,-17.64923c-0.163,-0.40354 -0.48787,-0.65695 -0.84233,-0.65695l-16.54815,0c-0.35446,0 -0.67933,0.25341 -0.84233,0.65711l-7.12585,17.64907c-0.09548,0.23655 -0.12772,0.50665 -0.09194,0.76898l2.84402,20.80054c0.09042,0.66148 0.58221,1.10313 1.0979,0.98786c0.51594,-0.11609 0.86092,-0.74628 0.77038,-1.40777l-2.78863,-20.39619l6.71347,-16.62766l15.39411,0l6.71334,16.62782l-6.15023,44.98131l-16.52033,0l-2.70656,-19.79453c-0.09042,-0.66133 -0.58158,-1.10345 -1.0979,-0.98786c-0.51594,0.11609 -0.86092,0.74628 -0.77038,1.40777l2.84402,20.80054c0.07954,0.58172 0.47358,1.00601 0.93414,1.00601l18.11368,0c0.46069,0 0.8546,-0.42429 0.93414,-1.00601l6.34308,-46.39184c0.03591,-0.26232 0.00367,-0.53243 -0.0918,-0.76898l-0.00001,0.00001z" id="svg_14"/>
   </g>
  </g>
 </g>
</svg>