<svg width="100%" height="100%"  viewBox="0 0 128 128" xmlns="http://www.w3.org/2000/svg">
 <g>
  <title>ikea</title>
  <rect id="svg_1" height="136" width="136" y="-5.08929" x="-5.71429" fill="#003f7f"/>
  <ellipse ry="28.5" rx="61" id="svg_2" cy="63.72712" cx="62.9693" fill="#bcbc5a"/>
  <rect id="svg_3" height="31" width="8" y="47.91071" x="22.28571" fill="#003f7f"/>
  <rect id="svg_4" height="31" width="8" y="49.13281" x="42.87892" fill="#003f7f" transform="rotate(30.590482711791992 46.878913879394496,64.63281250000001) "/>
  <rect id="svg_5" height="31" width="8" y="48.5" x="60.50001" fill="#003f7f"/>
  <rect transform="rotate(9.612001419067383 91.24765777587885,62.67055511474614) " id="svg_6" height="32.67517" width="7.42268" y="46.33297" x="87.53631" fill="#003f7f"/>
  <rect id="svg_7" height="31.92073" width="7.20219" y="45.98234" x="99.43271" fill="#003f7f" transform="rotate(-11.926270484924316 103.03381347656251,61.94270706176754) "/>
  <rect id="svg_8" height="8.01229" width="20.71174" y="48.1944" x="36.64393" fill="#003f7f"/>
  <rect id="svg_9" height="7.37948" width="20.39534" y="71.91769" x="36.09697" fill="#003f7f"/>
  <rect id="svg_10" height="6.43026" width="15.64924" y="59.57784" x="61.40947" fill="#003f7f"/>
  <rect id="svg_11" height="7.06307" width="16.91486" y="48.18722" x="62.3587" fill="#003f7f"/>
  <rect id="svg_12" height="7.37948" width="18.18049" y="71.91769" x="61.09307" fill="#003f7f"/>
  <rect id="svg_13" height="7.69588" width="15.96565" y="61.47628" x="88.30401" fill="#003f7f"/>
 </g>
</svg>