<svg width="100%" height="100%"  viewBox="0 0 128 128" xmlns="http://www.w3.org/2000/svg">
 <g>
  <title>Prison</title>
  <rect id="svg_11" height="128" width="128" y="0" x="0" fill="#cccccc"/>
  <rect id="svg_12" height="18" width="114" y="8" x="6" fill="#95572F"/>
  <rect id="svg_12" height="8" width="114" y="114" x="6" fill="#95572F"/>
  <rect id="svg_12" height="40" width="34" y="50" x="70" fill="#95572F"/>
  <g id="svg_1">
    <g id="svg_3">
     <path fill="#333" d="m85.28009,67.90352l0,9.29559c0,1.40395 1.14735,2.54222 2.56303,2.54222s2.56303,-1.13803 2.56303,-2.54222l0,-9.29511c1.52931,-0.88093 2.56303,-2.51935 2.56303,-4.39653c0,-2.80266 -2.29949,-5.08278 -5.12582,-5.08278c-2.82608,0 -5.12534,2.28011 -5.12534,5.08278c-0.00024,1.8767 1.03275,3.51513 2.56207,4.39605z" id="svg_4"/>
     <path fill="#333" d="m124.99898,25.87524l0,-20.33302c0,-1.40395 -1.14759,-2.54222 -2.56303,-2.54222l-117.87193,0c-1.41568,0 -2.56303,1.13827 -2.56303,2.54222l0,20.33302c0,1.25908 0.92393,2.30204 2.13542,2.5041l0,81.40855c-1.21149,0.20206 -2.13542,1.24454 -2.13542,2.5041l0,10.16603c0,1.40371 1.14735,2.54198 2.56303,2.54198l117.87193,0c1.4152,0 2.56303,-1.13827 2.56303,-2.54222l0,-10.16603c0,-1.25908 -0.92393,-2.3018 -2.13542,-2.5041l0,-81.40831c1.21149,-0.2023 2.13542,-1.24478 2.13542,-2.5041zm-5.12582,94.04056l-112.74635,0l0,-5.08182l112.74611,0l0,5.08182l0.00024,0zm-99.50768,-48.29079l0,38.12476l-11.10301,0l0,-38.12476l11.10301,0zm-11.10301,-5.08445l0,-38.12309l11.10325,0l0,38.12333l-11.10325,0l0,-0.00024zm27.33112,5.08445l0,38.12476l-11.10205,0l0,-38.12476l11.10205,0zm-11.10205,-5.08445l0,-38.12309l11.10253,0l0,38.12333l-11.10253,0l0,-0.00024zm27.33136,5.08445l0,38.12476l-11.10325,0l0,-38.12476l11.10325,0zm-11.10301,-5.08445l0,-38.12309l11.10325,0l0,38.12333l-11.10325,0l0,-0.00024zm27.33112,5.08445l0,16.52028l0,21.60425l-11.10229,0l0,-38.12452l11.10229,0zm-11.10205,-5.08468l0,-38.12286l11.10229,0l0,21.60306l0,16.5198l-11.10229,0zm43.55971,-13.97734l0,33.04056l-27.3316,0l0,-0.00024l0,-33.04032l27.3316,0zm-27.3316,-5.08468l0,-19.06083l11.10325,0l0,19.06107l-11.10325,0l0,-0.00024zm27.3316,0l-11.10253,0l0,-19.06083l11.10253,0l0,19.06083zm0.00048,43.20945l0,19.06202l-11.10301,0l0,-19.06202l11.10301,0zm-16.22907,0l0,19.06202l-11.10325,0l0,-19.06202l11.10325,0zm32.45742,-19.0625l0,38.12452l-11.10253,0l0,-21.60425c0,-0.00357 -0.00048,-0.00643 -0.00048,-0.01001l0,-16.51051l11.10301,0l0,0.00024zm-11.10277,-5.08468l0,-16.5198l0,-21.60306l11.10301,0l0,38.12309l-11.10301,0l0,-0.00024zm13.23843,-43.20754l-112.74635,0l0,-15.24881l112.74611,0l0,15.24881l0.00024,0z" id="svg_5"/>
     <path fill="#333" d="m23.03662,18.25024l13.87841,0c1.41544,0 2.56303,-1.13803 2.56303,-2.54222c0,-1.40348 -1.14735,-2.54222 -2.56303,-2.54222l-13.87841,0c-1.4152,0 -2.56303,1.13875 -2.56303,2.54222c0.00024,1.40419 1.14783,2.54222 2.56303,2.54222z" id="svg_6"/>
     <path fill="#333" d="m15.61419,18.25143l0.06102,0c1.41544,0 2.56303,-1.13803 2.56303,-2.54222c0,-1.40348 -1.1471,-2.54222 -2.56303,-2.54222l-0.06102,0c-1.41544,0 -2.56303,1.13875 -2.56303,2.54222c0,1.40395 1.14735,2.54222 2.56303,2.54222z" id="svg_7"/>
    </g>
  </g>
 </g>
</svg>