<svg width="100%" height="100%"  viewBox="0 0 128 128" xmlns="http://www.w3.org/2000/svg">
 <g>
  <title>Junkyard</title>
  <circle cx="64" cy="64" r="62" fill="#9fb9c4" id="svg_1"/>
  <g id="svg_2">
   <path d="m29.29395,46.07996l0,56.75584c0,1.58505 1.27496,2.86421 2.85479,2.86421l57.28991,0c1.57984,0 2.85479,-1.27916 2.85479,-2.86421l0,-56.75584l-62.9995,0z" fill="#dda36c" id="svg_3"/>
   <path d="m91.62826,19.05072l-67.01839,12.17984c-0.58205,0.11123 -0.97008,0.66739 -0.85921,1.22355l1.80157,9.92741c0.11087,0.58397 0.66519,0.97328 1.21952,0.86204l67.01839,-12.17984c0.58205,-0.11123 0.97008,-0.66739 0.85921,-1.22355l-1.80157,-9.92741c-0.11087,-0.58397 -0.63748,-0.97328 -1.21952,-0.86204z" fill="#dda36c" id="svg_4"/>
  </g>
  <path d="m71.95518,13.00229l-32.60617,5.7701c-1.08687,0.16971 -1.78247,1.18796 -1.60857,2.24864l1.47815,7.89146l36.51891,-6.44894l-1.47815,-7.89146c-0.1739,-1.06068 -1.2173,-1.73952 -2.30417,-1.56981z" fill="#666666" id="svg_5"/>
  <g id="svg_6">
   <rect x="39.775" y="52.7875" width="7.18953" height="46.76249" fill="#665" id="svg_7"/>
   <rect x="57.79899" y="52.7875" width="7.18953" height="46.76249" fill="#665" id="svg_8"/>
   <rect x="75.82297" y="52.7875" width="7.18953" height="46.76249" fill="#665" id="svg_9"/>
  </g>
 </g>
</svg>