<svg width="100%" height="100%"  viewBox="0 0 128 128" xmlns="http://www.w3.org/2000/svg">
 <g>
  <title>laboratory</title>
  <path id="svg_1" d="m18.28571,103.91071c0,0 43,-80 42.71429,-80.91071c-0.28571,-0.91071 43.28571,82.91071 43.28571,82.91071c0,0 -44,7 -44.28571,6.08929c-0.28571,-0.91071 -41.71429,-8.08929 -41.71429,-8.08929z" fill="#ff7f00"/>
  <path fill="#3f3f3f" d="m109.31248,98.65252l-27.92697,-51.66746l0,-30.77937c0,-2.89672 -2.42326,-5.2057 -5.31765,-5.2057l-28.50538,0c-2.89672,0 -5.28033,2.30898 -5.28033,5.2057l0,30.77937l-27.95029,51.66746c-2.13172,3.93926 -2.02444,8.7228 0.26821,12.57343c2.29265,3.84596 6.45114,6.22258 10.92916,6.22258l72.56954,0c4.47802,0 8.64584,-2.37661 10.93849,-6.22258c2.29032,-3.85063 2.40693,-8.63418 0.27521,-12.57343zm-42.88168,-21.61576c2.50256,0 4.52933,2.02677 4.52933,4.52933c0,2.50023 -2.03143,4.52933 -4.52933,4.52933c-2.50023,0 -4.52933,-2.0291 -4.52933,-4.52933c0,-2.49556 2.02677,-4.52933 4.52933,-4.52933zm-12.73669,-27.23427c2.50256,0 4.52933,2.0291 4.52933,4.53166c0,2.50023 -2.02677,4.52933 -4.52933,4.52933c-2.50256,0 -4.52933,-2.0291 -4.52933,-4.52933c0.00233,-2.50256 2.02677,-4.53166 4.52933,-4.53166zm0,15.813c4.05354,0 7.34208,3.28854 7.34208,7.33975c0,4.05354 -3.28854,7.33975 -7.34208,7.33975c-4.05587,0 -7.34208,-3.28621 -7.34208,-7.33975s3.28621,-7.33975 7.34208,-7.33975zm42.16333,37.65499c-0.94225,1.60462 -2.66582,2.55154 -4.52,2.55154l-59.04686,0c-1.85651,0 -3.57775,-0.94691 -4.52,-2.55154c-0.94225,-1.60462 -0.9679,-3.56376 -0.0653,-5.1917l7.09719,-12.75768c1.01222,-1.82386 3.00867,-2.86873 5.08442,-2.67048c9.42483,0.89794 20.01814,8.9607 29.48494,8.60152c5.07042,-0.19358 9.777,-2.04076 14.25969,-4.51067c2.53055,-1.39938 5.71414,-0.48279 7.11818,2.04543l5.17538,9.28722c0.89794,1.63028 0.87461,3.59408 -0.06764,5.19637z" id="svg_2"/>
 </g>
</svg>