<svg width="100%" height="100%"  viewBox="0 0 128 128" xmlns="http://www.w3.org/2000/svg">
 <g>
  <title>Library</title>
  <polygon points="49.191657066345215,105.84359645843506 49.191657066345215,119.79198360443115 39.19536113739014,114.41095638275146 29.199070930480957,119.79198360443115 29.199070930480957,105.84359645843506 29.199070930480957,98.35240077972412 29.199070930480957,88.90309810638428 49.191657066345215,88.90309810638428 49.191657066345215,98.37022304534912 " fill="#F95428" id="svg_1"/>
  <g id="svg_2">
   <path d="m111.45391,88.9031c0.37662,3.23449 1.22569,6.42407 2.54398,9.46736l-64.80624,0l0,-9.46736l-19.99259,0l0,9.4493c-2.21204,-0.11065 -4.32847,-0.76528 -6.17592,-1.86829c-2.03866,-1.21065 -3.75463,-2.9625 -4.92338,-5.12384c-1.07917,-1.99097 -1.61713,-4.18796 -1.61713,-6.38217c0,-2.19722 0.53819,-4.39444 1.61713,-6.38217c0.03287,-0.05972 0.06574,-0.11968 0.10162,-0.1794c2.36458,-4.21805 6.82754,-6.83356 11.67338,-6.83356l84.1229,0c-0.95949,2.21204 -1.66806,4.50486 -2.12847,6.83356c-0.17338,0.87292 -0.31389,1.75463 -0.41551,2.63657c-0.15556,1.30324 -0.2331,2.61574 -0.2331,3.925c0,1.31227 0.07778,2.62153 0.23333,3.925z" fill="#F7B239" id="svg_3"/>
   <path d="m19.21157,47.16884c0.15556,-1.30324 0.2331,-2.61273 0.2331,-3.925c0,-1.30926 -0.07778,-2.62176 -0.2331,-3.925c-0.37361,-3.23449 -1.22268,-6.42708 -2.54398,-9.47014l40.41596,0l43.71018,0c4.91157,0 9.43148,2.69051 11.775,7.00995c1.07917,1.99097 1.61713,4.18796 1.61713,6.38518c0,2.19421 -0.53796,4.39143 -1.61713,6.38217c-1.17176,2.16134 -2.88773,3.91296 -4.92338,5.12384c-2.03866,1.21366 -4.39444,1.88634 -6.85162,1.88634l-43.71018,0l-40.41596,0c1.3213,-3.04329 2.17037,-6.23287 2.54398,-9.46736z" fill="#F7B239" id="svg_4"/>
  </g>
  <g id="svg_6">
   <path d="m121.25576,99.46444c0.67569,0.67569 1.09421,1.61134 1.09421,2.64259c0,2.06574 -1.67407,3.73657 -3.73657,3.73657l-69.42174,0l0,-7.47338l24.39004,0l40.41596,0l4.61551,0c1.03148,0 1.96412,0.41852 2.64259,1.09421z" fill="#2BA5F7" id="svg_7"/>
   <path d="m121.25576,65.20356c0.67569,0.67847 1.09421,1.61134 1.09421,2.64259c0,2.06273 -1.67407,3.73657 -3.73657,3.73657l-4.61574,0l-40.41573,0l-43.7074,0c-4.91458,0 -9.43426,2.69051 -11.775,7.01296c-1.07917,1.98796 -1.61713,4.18518 -1.61713,6.38217c0,2.19421 0.53819,4.39143 1.61713,6.38217c1.16875,2.16134 2.88472,3.91296 4.92338,5.12384c1.84745,1.10301 3.96389,1.75764 6.17592,1.86829l0,7.4912l-0.01505,0c-5.76042,0 -10.97986,-2.33472 -14.75532,-6.11018c-3.77546,-3.77847 -6.11319,-8.9919 -6.11319,-14.75532c0,-11.52685 9.34467,-20.86851 20.86851,-20.86851l72.30022,0l17.12893,0c1.03171,0 1.96435,0.41852 2.64282,1.09421z" fill="#2BA5F7" id="svg_8"/>
  </g>
  <path d="m101.48424,22.3751c11.52384,0 20.8655,9.34166 20.8655,20.86851c0,5.76342 -2.33472,10.97685 -6.11018,14.75532c-3.77546,3.77546 -8.99491,6.11018 -14.75532,6.11018l-72.30022,0l-17.13194,0c-2.06273,0 -3.73657,-1.67106 -3.73657,-3.73657c0,-1.03125 0.41852,-1.9669 1.09421,-2.64259s1.61134,-1.09421 2.64259,-1.09421l4.61551,0l40.41596,0l43.71018,0c2.45718,0 4.81273,-0.67269 6.85162,-1.88634c2.03565,-1.21065 3.75162,-2.9625 4.92338,-5.12384c1.07917,-1.99097 1.61713,-4.18796 1.61713,-6.38217c0,-2.19722 -0.53796,-4.39444 -1.61713,-6.38518c-2.34375,-4.31968 -6.86342,-7.00995 -11.775,-7.00995l-43.71041,0l-40.41573,0l-4.61574,0c-2.06273,0 -3.73657,-1.67407 -3.73657,-3.73657c0,-1.03125 0.41852,-1.96389 1.09421,-2.64259c0.67569,-0.67569 1.61134,-1.09421 2.64259,-1.09421c-0.00023,0.00023 89.43193,0.00023 89.43193,0.00023z" fill="#F95428" id="svg_9"/>
  <g id="svg_17">
   <path d="m115.51155,73.36236l3.10231,0c3.29653,0 5.9787,-2.68194 5.9787,-5.9787c0,-1.59236 -0.6206,-3.09282 -1.75417,-4.23171c-1.13171,-1.12662 -2.63218,-1.74699 -4.22454,-1.74699l-3.4713,0c5.72523,-4.21018 9.45,-10.98958 9.45,-18.62546c0,-12.74259 -10.36713,-23.10972 -23.10972,-23.10972l-89.42915,0c-3.29676,0 -5.9787,2.68194 -5.9787,5.9787s2.68194,5.9787 5.9787,5.9787l3.1037,0c2.71204,7.16273 2.71204,15.14166 0,22.30439l-3.1037,0c-3.29676,0 -5.9787,2.68194 -5.9787,5.9787s2.68194,5.9787 5.9787,5.9787l3.4713,0c-5.72592,4.21088 -9.45092,10.99074 -9.45092,18.62662c0,6.16829 2.40393,11.97153 6.76967,16.34074c3.83449,3.83449 8.78055,6.15347 14.1125,6.65995l0,11.81319c0,0.78912 0.41481,1.52014 1.0919,1.92454c0.67778,0.40486 1.51759,0.42361 2.2125,0.04954l8.93426,-4.80856l8.93426,4.80856c0.33218,0.1787 0.69745,0.26782 1.06273,0.26782c0.39838,0 0.7963,-0.10602 1.15,-0.31736c0.67731,-0.40486 1.0919,-1.13565 1.0919,-1.92454l0,-11.70625l67.17962,0c3.29653,0 5.9787,-2.68194 5.9787,-5.9787c0,-1.59745 -0.62176,-3.09907 -1.75417,-4.23148c-1.13171,-1.12662 -2.63218,-1.74722 -4.22454,-1.74722l-3.10231,0c-0.91481,-2.41181 -1.53194,-4.92292 -1.83102,-7.49074c-0.14444,-1.20972 -0.21759,-2.4412 -0.21759,-3.65949s0.07315,-2.44954 0.21829,-3.66574c0.29931,-2.56458 0.91643,-5.07639 1.83079,-7.4875zm-94.37174,-24.41504l23.0037,0c1.23819,0 2.2419,-1.00393 2.2419,-2.2419s-1.00393,-2.24213 -2.24213,-2.24213l-22.51111,0c0.05231,-1.12153 0.05231,-2.24468 0,-3.36597l11.10069,0c1.23819,0 2.2419,-1.00393 2.2419,-2.2419s-1.00393,-2.2419 -2.2419,-2.2419l-11.59305,0c-0.29144,-1.68356 -0.69653,-3.35069 -1.2287,-4.98565l80.88146,0c4.0956,0 7.85278,2.23704 9.8044,5.8375c1.80417,3.32778 1.80417,7.30116 0,10.62916c-1.95185,3.60069 -5.7088,5.8375 -9.8044,5.8375l-80.88146,0c0.53194,-1.63472 0.93727,-3.30162 1.2287,-4.98472zm-9.08611,12.45787c-0.82407,0 -1.49468,-0.6706 -1.49468,-1.49468s0.6706,-1.49468 1.49468,-1.49468l88.73887,0c5.74259,0 11.00995,-3.13611 13.74652,-8.18472c2.5294,-4.66574 2.5294,-10.23703 0,-14.90277c-2.7368,-5.04861 -8.00393,-8.18472 -13.74652,-8.18472l-84.12406,0l-4.61481,0c-0.82407,0 -1.49468,-0.6706 -1.49468,-1.49468s0.6706,-1.49468 1.49468,-1.49468l89.42938,0c10.27014,0 18.62569,8.35555 18.62569,18.62569c0,10.2662 -8.3493,18.61921 -18.61412,18.62546l-89.44095,0l0,-0.00023zm3.96134,36.28124c-3.51898,-3.52176 -5.45694,-8.19954 -5.45694,-13.17083c0,-10.2669 8.34954,-18.62013 18.61527,-18.62638l72.30971,0c0.00394,0 0.00787,-0.00023 0.01157,-0.00023l17.11944,0c0.39838,0 0.77546,0.15671 1.0537,0.4338c0.28426,0.28542 0.44097,0.6625 0.44097,1.06088c0,0.82407 -0.6706,1.49468 -1.49468,1.49468l-88.73887,0c-5.74421,0 -11.0118,3.13727 -13.74537,8.18518c-1.23588,2.27616 -1.88889,4.85301 -1.88889,7.45208c0,2.5956 0.65278,5.17176 1.88727,7.44861c1.33912,2.47662 3.32778,4.5463 5.74606,5.98217c1.56435,0.9338 3.29213,1.58102 5.08217,1.92176l0,3.13426c-4.13194,-0.48912 -7.95579,-2.33056 -10.94143,-5.31597zm30.93541,17.89027l-6.69236,-3.60208c-0.33171,-0.17847 -0.69722,-0.26782 -1.06273,-0.26782s-0.73079,0.08935 -1.06273,0.26782l-6.69213,3.60208l0,-24.89444l15.50995,0l0,24.89444zm72.72082,-14.98958c0.28194,0.28194 0.43727,0.65764 0.43727,1.05741c0,0.82407 -0.6706,1.49468 -1.49468,1.49468l-67.17938,0l0,-2.98935l67.17962,0c0.39838,0 0.775,0.15671 1.05718,0.43727zm-68.23679,-4.9213l0,-4.98356l7.32384,0c1.23819,0 2.2419,-1.0037 2.2419,-2.2419s-1.00393,-2.2419 -2.2419,-2.2419l-9.56597,0l-19.99398,0c-1.23819,0 -2.2419,1.00393 -2.2419,2.2419l0,6.83055c-0.97639,-0.26481 -1.91736,-0.65718 -2.78819,-1.17731c-1.72616,-1.02477 -3.14236,-2.49884 -4.09722,-4.26458c-0.88056,-1.62477 -1.34606,-3.46227 -1.34606,-5.31366c0,-1.85393 0.46551,-3.6912 1.34676,-5.31481c1.95,-3.60116 5.70671,-5.83842 9.80324,-5.83842l80.87869,0c-0.53218,1.63032 -0.94421,3.29676 -1.23727,4.98588l-11.58194,0c-1.23819,0 -2.2419,1.00393 -2.2419,2.2419c0,1.23819 1.00393,2.2419 2.2419,2.2419l11.08842,0c-0.02685,0.56181 -0.04398,1.12361 -0.04398,1.68333s0.01713,1.1213 0.04398,1.68264l-22.49861,0c-1.23819,0 -2.2419,1.00393 -2.2419,2.2419s1.00393,2.2419 2.2419,2.2419l22.99212,0c0.29329,1.68889 0.70509,3.35393 1.23704,4.98356l-59.31897,0.00069l0,0z" fill="#333333" id="svg_18"/>
  </g>
 </g>
</svg>