<svg width="100%" height="100%"  viewBox="0 0 128 128" xmlns="http://www.w3.org/2000/svg">
 <g>
  <title>Lodge</title>
  <g id="svg_1">
   <path d="m40.909,65.46995l46.18267,0l0,-28.08983l-31.03842,-17.91999l-31.03697,17.91999l0,17.10653l0,20.15912l15.89272,-9.17582l0,0zm9.72808,-10.98354l0,-13.91792l10.83332,0l0,13.91792l-10.83332,0z" fill="#826358" id="svg_2"/>
   <rect x="50.6366" y="40.56848" width="10.83332" height="13.91792" fill="#619DE5" id="svg_3"/>
   <polygon points="87.09167597397874,65.4699518024911 40.908999594060845,65.4699518024911 71.94741560844642,83.3897043118568 77.04028197125336,86.33058052646902 118.12962189250567,86.33058052646902 123.22224369677343,86.33058052646902 123.22224369677343,65.4699518024911 " fill="#b77d47" id="svg_4"/>
   <path d="m71.94742,83.3897l-31.03842,-17.91999l-15.89272,9.17582l-15.14426,8.74417l0,38.65496l62.07539,0l0,-9.55186l0,-29.10311l0,0zm-31.03794,6.30571l9.62986,0l0,9.62962l0,9.62986l-9.62986,0l-9.62962,0l0,-9.62986l0,-9.62962l9.62962,0z" fill="#a0816d" id="svg_5"/>
   <g id="svg_6">
    <rect x="40.91069" y="89.69638" width="9.62962" height="9.62962" fill="#619DE5" id="svg_7"/>
    <rect x="31.27866" y="89.69638" width="9.62962" height="9.62962" fill="#619DE5" id="svg_8"/>
    <rect x="31.27866" y="99.32599" width="9.62962" height="9.62962" fill="#619DE5" id="svg_9"/>
    <rect x="40.91069" y="99.32599" width="9.62962" height="9.62962" fill="#619DE5" id="svg_10"/>
   </g>
   <polygon points="71.94741560844642,83.3897043118568 71.94741560844642,112.49304545034875 118.12962189250567,112.49304545034875 118.12962189250567,95.71440036747845 118.12962189250567,86.33058052646902 77.04028197125336,86.33058052646902 " fill="#6d5b54" id="svg_11"/>
   <rect x="71.94694" y="112.49208" width="46.18123" height="9.55186" fill="#8E6A5C" id="svg_12"/>
  </g>
  <g id="svg_13">
   <path d="m50.53934,87.28801l-19.25947,0c-1.32937,0 -2.4074,1.07779 -2.4074,2.4074l0,19.25947c0,1.32961 1.07804,2.4074 2.4074,2.4074l19.25947,0c1.32961,0 2.4074,-1.07779 2.4074,-2.4074l0,-19.25947c0,-1.32961 -1.07804,-2.4074 -2.4074,-2.4074zm-2.4074,9.62962l-4.81505,0l0,-4.81481l4.81505,0l0,4.81481zm-9.62986,-4.81481l0,4.81481l-4.81481,0l0,-4.81481l4.81481,0zm-4.81481,9.62962l4.81481,0l0,4.81505l-4.81481,0l0,-4.81505zm9.62962,4.81505l0,-4.81505l4.81505,0l0,4.81505l-4.81505,0z" fill="#333" id="svg_14"/>
   <path d="m123.22223,63.06254l-33.72315,0l0,-21.51256l1.48103,0.85511c1.15194,0.66492 2.62359,0.27035 3.28851,-0.88111s0.27035,-2.62383 -0.88111,-3.28851l-36.13056,-20.86015c-0.74485,-0.4302 -1.66255,-0.42996 -2.4074,0l-36.13128,20.86015c-1.15146,0.66468 -1.54603,2.13705 -0.88111,3.28851c0.44609,0.7723 1.25498,1.20418 2.08722,1.20394c0.4083,0 0.82237,-0.104 1.20129,-0.32283l1.4832,-0.85631l0,31.70695l-19.03414,10.9898c-1.15146,0.66468 -1.54603,2.13729 -0.88111,3.28851c0.66492,1.15146 2.13729,1.54628 3.28851,0.88135l1.48248,-0.85607l0,34.48534c0,1.32961 1.07804,2.4074 2.4074,2.4074l62.07539,0l46.18219,0c1.32937,0 2.4074,-1.07779 2.4074,-2.4074l0,-33.30667l2.68522,0c1.32937,0 2.4074,-1.07779 2.4074,-2.4074l0,-20.86064c0,-1.32961 -1.07804,-2.4074 -2.4074,-2.4074zm-2.4074,20.86064l-9.62889,0l0,-16.04583l9.62889,0l0,16.04583zm-24.07332,0l0,-16.04583l9.62962,0l0,16.04583l-9.62962,0zm-14.44418,0l0,-16.04583l9.62937,0l0,16.04583l-9.62937,0zm-14.44394,-5.67666l0,-10.36917l9.62913,0l0,15.92883l-9.62913,-5.55966zm-17.95996,-10.36917l13.14515,0l0,7.58934l-13.14515,-7.58934zm-22.46975,-10.98354l7.47114,0c1.32937,0 2.4074,-1.07779 2.4074,-2.4074s-1.07804,-2.4074 -2.4074,-2.4074l-7.47114,0l0,-13.31005l28.62957,-16.52899l28.63101,16.5302l0,24.29239l-43.77527,0c-0.09726,0 -0.19259,0.00746 -0.28672,0.01878c-0.02431,0.00289 -0.04815,0.00722 -0.07222,0.01083c-0.07439,0.01107 -0.14709,0.02552 -0.21907,0.04309c-0.02359,0.00578 -0.0467,0.01156 -0.07006,0.01806c-0.08715,0.02431 -0.17285,0.05248 -0.25591,0.08619c-0.0053,0.00217 -0.01083,0.00361 -0.01589,0.00578c-0.09148,0.03804 -0.17959,0.08185 -0.26506,0.13048c-0.00602,0.00337 -0.01276,0.00554 -0.01878,0.00915l-12.28161,7.09101c0,0 0,-13.58209 0,-13.58209zm-15.14426,27.88568l28.62957,-16.52972l28.63101,16.53044l0,34.85728l-57.26058,0l0,-34.858zm62.07539,34.858l0,-4.73705l41.36738,0l0,4.73705l-41.36738,0zm41.36738,-26.3305l-9.87902,0c-1.32937,0 -2.4074,1.07779 -2.4074,2.4074s1.07804,2.4074 2.4074,2.4074l9.87902,0l0,11.96383l-41.36738,0l0,-22.52584l1.48176,0.85559c0.00602,0.00337 0.01252,0.00554 0.01854,0.00915c0.08546,0.04863 0.17406,0.09269 0.26554,0.13072c0.01083,0.00457 0.02191,0.0077 0.03274,0.0118c0.07656,0.03033 0.15504,0.05657 0.2352,0.0792c0.02889,0.00819 0.05778,0.01541 0.08691,0.02239c0.06356,0.01541 0.12783,0.02769 0.19331,0.0378c0.03106,0.00481 0.06211,0.01059 0.09341,0.0142c0.0792,0.00915 0.15985,0.01444 0.24146,0.01565c0.01156,0.00024 0.02311,0.00217 0.03443,0.00217c0.00193,0 0.00361,-0.00024 0.0053,-0.00024l38.6788,0l0,4.56877l0,0z" fill="#333" id="svg_15"/>
   <path d="m50.63708,56.89381l10.83332,0c1.32937,0 2.4074,-1.07779 2.4074,-2.4074l0,-13.91792c0,-1.32961 -1.07804,-2.4074 -2.4074,-2.4074l-10.83332,0c-1.32937,0 -2.4074,1.07779 -2.4074,2.4074l0,13.91792c0,1.32961 1.07804,2.4074 2.4074,2.4074zm2.4074,-13.91768l6.01851,0l0,9.10312l-6.01851,0l0,-9.10312z" fill="#333" id="svg_16"/>
   <path d="m98.92695,93.307l-0.05681,0c-1.32937,0 -2.4074,1.07779 -2.4074,2.4074s1.07804,2.4074 2.4074,2.4074l0.05681,0c1.32937,0 2.4074,-1.07779 2.4074,-2.4074c0,-1.32961 -1.07804,-2.4074 -2.4074,-2.4074z" fill="#333" id="svg_17"/>
   <path d="m41.81178,56.89381l0.05657,0c1.32937,0 2.4074,-1.07779 2.4074,-2.4074s-1.07804,-2.4074 -2.4074,-2.4074l-0.05657,0c-1.32937,0 -2.4074,1.07779 -2.4074,2.4074s1.07779,2.4074 2.4074,2.4074z" fill="#333" id="svg_18"/>
  </g>
 </g>
</svg>