<svg width="90%" height="90%" viewBox="0 0 128 128" xmlns="http://www.w3.org/2000/svg">
  <g>
    <title>lot_vacant</title>
    <ellipse style="fill: rgb(216, 216, 216); stroke: rgb(0, 0, 0); stroke-opacity: 0;" cx="51.181" cy="49.279" rx="46.93" ry="47.232"/>
    <path d="M 62.444 15.747 C 35.35 15.747 13.394 37.703 13.394 64.797 C 13.394 71.118 14.589 77.155 16.77 82.699 C 16.77 82.699 16.77 82.699 16.77 82.699 C 17.509 84.572 18.347 86.383 19.296 88.133 C 24.606 98.717 38.492 122.238 62.444 136.493 C 86.396 122.238 100.27 98.717 105.592 88.145 C 109.362 81.196 111.494 73.249 111.494 64.797 C 111.494 37.703 89.538 15.747 62.444 15.747 Z M 62.444 107.021 C 39.428 107.021 20.774 88.367 20.774 65.351 C 20.774 42.336 39.428 23.669 62.444 23.669 C 85.46 23.669 104.114 42.323 104.114 65.339 C 104.114 88.355 85.46 107.021 62.444 107.021 Z" style="fill: rgb(34, 65, 137);" transform="matrix(1, 0, 0, 1, -11.494006, -15.747)"/>
    <path d="M 56.542 74.629 C 57.947 74.913 59.77 74.999 61.779 74.999 C 70.835 74.999 78.597 72.855 83.821 68.37 C 87.949 64.92 90.068 59.684 90.068 53.425 C 90.068 47.264 87.246 42.028 82.823 38.947 C 78.289 35.485 71.549 33.81 62.087 33.81 C 52.723 33.81 46.082 34.364 41.35 35.116 L 41.35 97.226 L 56.555 97.226 L 56.555 74.629 L 56.542 74.629 Z M 56.542 45.12 C 57.651 44.837 59.77 44.652 62.789 44.652 C 70.539 44.652 74.876 48.114 74.876 53.893 C 74.876 60.238 69.837 64.07 61.692 64.07 C 59.376 64.07 57.873 63.972 56.555 63.7 L 56.542 45.12 Z" style="fill: rgb(34, 65, 137);" transform="matrix(1, 0, 0, 1, -11.494006, -15.747)"/>
  </g>
</svg>