<?xml version="1.0" encoding="utf-8"?>
<svg width="90%" height="90%" viewBox="0 0 128 128" xmlns="http://www.w3.org/2000/svg">
  <g transform="matrix(1, 0, 0, 1, -11.494006, -15.747)"/>
  <path style="stroke: rgb(0, 0, 0); fill: rgb(80, 37, 37); stroke-opacity: 0;" d="M 2.347 120.18 L 35.537 120.18 L 35.537 61.408 L 47.62 61.297 L 47.727 49.326 L 27.703 33.653 C 27.701 33.582 4.02 52.057 6.647 50.306 L 7.086 108.238 L 2.269 108.494 L 2.347 120.18 Z"/>
  <path style="stroke: rgb(0, 0, 0); fill: rgb(80, 37, 37); stroke-opacity: 0;" d="M 55.13 61.408 L 55.131 49 L 72.436 33.326 L 92.68 49.762 L 92.788 61.625 L 55.13 61.408 Z"/>
  <path style="stroke: rgb(0, 0, 0); fill: rgb(80, 37, 37); stroke-opacity: 0;" d="M 40.763 120.18 L 39.783 66.631 L 122.393 66.632 L 122.393 109.407 L 126.31 109.407 L 126.311 120.18 L 40.763 120.18 Z"/>
  <path style="stroke: rgb(0, 0, 0); fill: rgb(80, 37, 37); stroke-opacity: 0;" d="M 99.862 61.515 L 99.536 51.285 L 105.087 47.04 L 107.699 11.45 L 114.556 11.45 L 116.188 46.713 L 121.738 51.284 L 121.738 61.515 L 99.862 61.515 Z"/>
  <path style="stroke: rgb(0, 0, 0); stroke-opacity: 0; fill: rgb(97, 87, 74);" d="M 48.501 109.059 L 63.564 109.059 L 63.566 83.477 C 64.679 75.394 50.092 69.882 48.216 83.475 L 48.501 109.059 Z"/>
  <path style="stroke: rgb(0, 0, 0); stroke-opacity: 0; fill: rgb(149, 127, 20);" d="M 72.63 108.944 L 87.695 108.944 L 87.696 83.363 C 88.81 75.28 74.223 69.769 72.345 83.362 L 72.63 108.944 Z"/>
  <path style="stroke: rgb(0, 0, 0); stroke-opacity: 0; fill: rgb(96, 88, 71);" d="M 97.328 109.059 L 112.393 109.059 L 112.393 83.477 C 113.507 75.394 98.919 69.882 97.043 83.475 L 97.328 109.059 Z"/>
</svg>