<svg width="100%" height="100%"  viewBox="0 0 128 128" xmlns="http://www.w3.org/2000/svg">
 <g>
  <title>mansion</title>
  <path d="m6.49248,95.44213l13.83661,0l1.97666,0l11.85995,0l1.97666,0l14.23906,0c3.32553,-3.64338 8.11247,-5.92998 13.43416,-5.92998s10.10863,2.2866 13.43416,5.92998l14.23906,0l1.97666,0l11.85995,0l1.97666,0l13.83661,0l0,-55.34645l-114.64622,0l0,55.34645zm81.04302,-23.71991l0,-1.97666l0,-5.92998l0,-1.97666c0,-6.54959 5.30983,-11.85995 11.85995,-11.85995s11.85995,5.31036 11.85995,11.85995l0,1.97666l0,5.92998l0,1.97666l0,7.90664l-10.87162,0l-1.97666,0l-10.87162,0l0,-7.90664zm-35.57986,0l0,-1.97666l0,-5.92998l0,-1.97666c0,-6.54959 5.30983,-11.85995 11.85995,-11.85995s11.85995,5.31036 11.85995,11.85995l0,1.97666l0,5.92998l0,1.97666l0,7.90664l-10.87162,0l-1.97666,0l-10.87162,0l0,-7.90664zm-35.57986,0l0,-1.97666l0,-5.92998l0,-1.97666c0,-6.54959 5.30983,-11.85995 11.85995,-11.85995s11.85995,5.31036 11.85995,11.85995l0,1.97666l0,5.92998l0,1.97666l0,7.90664l-10.87162,0l-1.97666,0l-10.87162,0l0,-7.90664z" fill="#E17277" id="svg_2"/>
  <path d="m50.38142,95.44213l-14.23906,0l0,1.97666l0,3.95332l0,1.97666l0,11.85995l0,1.97666l-1.97666,0l-11.85995,0l-1.97666,0l0,-1.97666l0,-11.85995l0,-1.97666l0,-3.95332l0,-1.97666l-13.83661,0l0,1.97666l0,29.64988l39.13785,0l0,-19.37126c0,-4.72158 1.80034,-9.02253 4.7511,-12.25529z" fill="#826E77" id="svg_3"/>
  <path d="m107.30208,97.41879l0,3.95332l0,1.97666l0,11.85995l0,1.97666l-1.97666,0l-11.85995,0l-1.97666,0l0,-1.97666l0,-11.85995l0,-1.97666l0,-3.95332l0,-1.97666l-14.23906,0c2.95076,3.23276 4.7511,7.53371 4.7511,12.25529l0,19.37126l39.13785,0l0,-29.64988l0,-1.97666l-13.83661,0l0,1.97666z" fill="#826E77" id="svg_4"/>
  <path d="m109.27874,0.5625l-90.92631,0l-17.78993,39.53318l5.92998,0l114.64622,0l5.92998,0l-17.78993,-39.53318zm-61.27643,21.74325l0,7.90664l-15.81327,0l0,-7.90664l0,-1.97666c0,-2.0096 0.75139,-3.84342 1.98667,-5.23841c0.04507,-0.35659 0.32496,-0.63675 0.68155,-0.68155c1.39499,-1.23528 3.22854,-1.98667 5.23841,-1.98667c2.00987,0 3.84342,0.75139 5.23841,1.98667c0.35659,0.04507 0.63648,0.32496 0.68155,0.68155c1.23554,1.39499 1.98667,3.22854 1.98667,5.23841l0,1.97666zm23.71991,0l0,7.90664l-15.81327,0l0,-7.90664l0,-1.97666c0,-2.0096 0.75139,-3.84342 1.98667,-5.23841c0.04507,-0.35659 0.32496,-0.63675 0.68155,-0.68155c1.39499,-1.23528 3.22854,-1.98667 5.23841,-1.98667c2.00987,0 3.84342,0.75139 5.23841,1.98667c0.35659,0.04507 0.63648,0.32496 0.68155,0.68155c1.23554,1.39499 1.98667,3.22854 1.98667,5.23841l0,1.97666zm23.71991,0l0,7.90664l-15.81327,0l0,-7.90664l0,-1.97666c0,-2.0096 0.75139,-3.84342 1.98667,-5.23841c0.04507,-0.35659 0.32496,-0.63675 0.68155,-0.68155c1.39499,-1.23528 3.22854,-1.98667 5.23841,-1.98667c2.00987,0 3.84342,0.75139 5.23841,1.98667c0.35659,0.04507 0.63648,0.32496 0.68155,0.68155c1.23554,1.39499 1.98667,3.22854 1.98667,5.23841l0,1.97666z" fill="#826E77" id="svg_5"/>
  <polygon points="27.24739646911621,72.7105484008789 26.259065628051758,71.72222137451172 18.35243034362793,71.72222137451172 18.35243034362793,77.6521987915039 27.24739646911621,77.6521987915039 " fill="#ffd4aa" id="svg_7"/>
  <polygon points="18.35243034362793,69.74555969238281 24.282407760620117,69.74555969238281 18.35243034362793,63.815589904785156 " fill="#ffd4aa" id="svg_8"/>
  <rect x="29.22405" y="63.81559" width="8.89497" height="5.92998" fill="#bfbfbf" id="svg_9"/>
  <polygon points="24.282407760620117,69.74555969238281 27.24739646911621,69.74555969238281 27.24739646911621,63.815589904785156 18.35243034362793,63.815589904785156 " fill="#bfbfbf" id="svg_10"/>
  <polygon points="29.22405433654785,74.68721008300781 32.18904113769531,77.6521987915039 38.1190185546875,77.6521987915039 38.1190185546875,71.72222137451172 29.22405433654785,71.72222137451172 " fill="#bfbfbf" id="svg_11"/>
  <polygon points="27.24739646911621,71.72222137451172 26.259065628051758,71.72222137451172 27.24739646911621,72.7105484008789 " fill="#80D7F0" id="svg_12"/>
  <path d="m27.2474,52.05605c-4.98039,0.50365 -8.89497,4.67229 -8.89497,9.78288l8.89497,0l0,-9.78288z" fill="#6EB1E2" id="svg_13"/>
  <path d="m29.22405,52.05605l0,9.78288l8.89497,0c0,-5.11059 -3.91458,-9.27923 -8.89497,-9.78288z" fill="#6EB1E2" id="svg_14"/>
  <path d="m29.22405,79.62886l10.87162,0l0,-7.90664l0,-1.97666l0,-5.92998l0,-1.97666c0,-6.54959 -5.30983,-11.85995 -11.85995,-11.85995s-11.85995,5.31036 -11.85995,11.85995l0,1.97666l0,5.92998l0,1.97666l0,7.90664l10.87162,0l1.97666,0zm-1.97666,-9.88329l-2.96499,0l-5.92998,0l0,-5.92998l8.89497,0l0,5.92998zm10.87162,7.90664l-5.92998,0l-2.96499,0l0,-2.96499l0,-2.96499l8.89497,0l0,5.92998zm0,-7.90664l-8.89497,0l0,-5.92998l8.89497,0l0,5.92998zm-8.89497,-17.68952c4.98039,0.50392 8.89497,4.67229 8.89497,9.78288l-8.89497,0l0,-9.78288zm-1.97666,0l0,9.78288l-8.89497,0c0,-5.11059 3.91458,-9.27923 8.89497,-9.78288zm-8.89497,19.66618l7.90664,0l0.98833,0l0,0.98833l0,4.94165l-8.89497,0l0,-5.92998z" fill="#695A69" id="svg_15"/>
  <path d="m77.24975,95.44213c-3.32553,-3.64338 -8.11247,-5.92998 -13.43416,-5.92998s-10.10863,2.2866 -13.43416,5.92998c-2.95076,3.23276 -4.7511,7.53371 -4.7511,12.25529l0,19.37126l36.37052,0l0,-19.37126c0,-4.72158 -1.80034,-9.02253 -4.7511,-12.25529z" fill="#695A69" id="svg_16"/>
  <polygon points="22.305747985839844,115.2087173461914 34.16570281982422,115.2087173461914 22.305747985839844,103.34876251220703 " fill="#7f7f7f" id="svg_17"/>
  <polygon points="34.16570281982422,115.2087173461914 34.16570281982422,103.34876251220703 22.305747985839844,103.34876251220703 " fill="#7f3f00" id="svg_18"/>
  <rect x="22.30575" y="97.41879" width="11.85995" height="3.95332" fill="#7f3f00" id="svg_19"/>
  <path d="m20.32909,101.37211l0,1.97666l0,11.85995l0,1.97666l1.97666,0l11.85995,0l1.97666,0l0,-1.97666l0,-11.85995l0,-1.97666l0,-3.95332l0,-1.97666l-1.97666,0l-11.85995,0l-1.97666,0l0,1.97666l0,3.95332zm13.83661,13.83661l-11.85995,0l0,-11.85995l11.85995,0l0,11.85995zm0,-17.78993l0,3.95332l-11.85995,0l0,-3.95332l11.85995,0z" fill="#695A69" id="svg_20"/>
  <polygon points="34.16570281982422,28.23572540283203 40.095680236816406,28.23572540283203 34.16570281982422,22.305747985839844 " fill="#95FFFF" id="svg_21"/>
  <path d="m46.01564,15.09068c-0.04507,-0.35659 -0.32496,-0.63648 -0.68155,-0.68155c0.24089,0.21322 0.46834,0.44066 0.68155,0.68155z" fill="#6EB1E2" id="svg_22"/>
  <path d="m34.85727,14.40913c-0.35659,0.04507 -0.63648,0.32496 -0.68155,0.68155c0.21322,-0.24089 0.44093,-0.46834 0.68155,-0.68155z" fill="#6EB1E2" id="svg_23"/>
  <path d="m40.09568,14.39911c-3.26966,0 -5.92998,2.66006 -5.92998,5.92998l11.85995,0c0,-3.26992 -2.66032,-5.92998 -5.92998,-5.92998z" fill="#6EB1E2" id="svg_24"/>
  <path d="m45.33409,14.40913c-1.39499,-1.23528 -3.22854,-1.98667 -5.23841,-1.98667c-2.00987,0 -3.84342,0.75139 -5.23841,1.98667c-0.24089,0.21322 -0.46834,0.44093 -0.68155,0.68155c-1.23528,1.39499 -1.98667,3.22881 -1.98667,5.23841l0,1.97666l0,7.90664l15.81327,0l0,-7.90664l0,-1.97666c0,-2.00987 -0.75113,-3.84342 -1.98667,-5.23841c-0.21322,-0.24089 -0.44066,-0.46834 -0.68155,-0.68155zm0.69157,13.8266l-5.92998,0l-5.92998,0l0,-5.92998l11.85995,0l0,5.92998zm-11.85995,-7.90664c0,-3.26992 2.66032,-5.92998 5.92998,-5.92998s5.92998,2.66006 5.92998,5.92998l-11.85995,0z" fill="#695A69" id="svg_25"/>
  <polygon points="40.095680236816406,28.23572540283203 46.02565383911133,28.23572540283203 46.02565383911133,22.305747985839844 34.16570281982422,22.305747985839844 " fill="#80D7F0" id="svg_26"/>
  <polygon points="57.8856086730957,28.23572540283203 63.815589904785156,28.23572540283203 57.8856086730957,22.305747985839844 " fill="#95FFFF" id="svg_27"/>
  <path d="m58.57718,14.40913c-0.35659,0.04507 -0.63648,0.32496 -0.68155,0.68155c0.21322,-0.24089 0.44093,-0.46834 0.68155,-0.68155z" fill="#6EB1E2" id="svg_28"/>
  <path d="m69.73555,15.09068c-0.04507,-0.35659 -0.32496,-0.63648 -0.68155,-0.68155c0.24089,0.21322 0.46834,0.44066 0.68155,0.68155z" fill="#6EB1E2" id="svg_29"/>
  <path d="m63.81559,14.39911c-3.26966,0 -5.92998,2.66006 -5.92998,5.92998l11.85995,0c0,-3.26992 -2.66032,-5.92998 -5.92998,-5.92998z" fill="#6EB1E2" id="svg_30"/>
  <path d="m69.054,14.40913c-1.39499,-1.23528 -3.22854,-1.98667 -5.23841,-1.98667c-2.00987,0 -3.84342,0.75139 -5.23841,1.98667c-0.24089,0.21322 -0.46834,0.44093 -0.68155,0.68155c-1.23528,1.39499 -1.98667,3.22881 -1.98667,5.23841l0,1.97666l0,7.90664l15.81327,0l0,-7.90664l0,-1.97666c0,-2.00987 -0.75113,-3.84342 -1.98667,-5.23841c-0.21322,-0.24089 -0.44066,-0.46834 -0.68155,-0.68155zm0.69157,13.8266l-5.92998,0l-5.92998,0l0,-5.92998l11.85995,0l0,5.92998zm-11.85995,-7.90664c0,-3.26992 2.66032,-5.92998 5.92998,-5.92998s5.92998,2.66006 5.92998,5.92998l-11.85995,0z" fill="#695A69" id="svg_31"/>
  <polygon points="63.815589904785156,28.23572540283203 69.74555969238281,28.23572540283203 69.74555969238281,22.305747985839844 57.8856086730957,22.305747985839844 " fill="#80D7F0" id="svg_32"/>
  <polygon points="81.60551452636719,28.23572540283203 87.53549194335938,28.23572540283203 81.60551452636719,22.305747985839844 " fill="#95FFFF" id="svg_33"/>
  <path d="m93.45546,15.09068c-0.04507,-0.35659 -0.32496,-0.63648 -0.68155,-0.68155c0.24089,0.21322 0.46834,0.44066 0.68155,0.68155z" fill="#6EB1E2" id="svg_34"/>
  <path d="m82.29708,14.40913c-0.35659,0.04507 -0.63648,0.32496 -0.68155,0.68155c0.21322,-0.24089 0.44093,-0.46834 0.68155,-0.68155z" fill="#6EB1E2" id="svg_35"/>
  <path d="m87.53549,14.39911c-3.26966,0 -5.92998,2.66006 -5.92998,5.92998l11.85995,0c0,-3.26992 -2.66032,-5.92998 -5.92998,-5.92998z" fill="#6EB1E2" id="svg_36"/>
  <path d="m92.7739,14.40913c-1.39499,-1.23528 -3.22854,-1.98667 -5.23841,-1.98667c-2.00987,0 -3.84342,0.75139 -5.23841,1.98667c-0.24089,0.21322 -0.46834,0.44093 -0.68155,0.68155c-1.23528,1.39499 -1.98667,3.22881 -1.98667,5.23841l0,1.97666l0,7.90664l15.81327,0l0,-7.90664l0,-1.97666c0,-2.00987 -0.75113,-3.84342 -1.98667,-5.23841c-0.21322,-0.24089 -0.44066,-0.46834 -0.68155,-0.68155zm0.69157,13.8266l-5.92998,0l-5.92998,0l0,-5.92998l11.85995,0l0,5.92998zm-11.85995,-7.90664c0,-3.26992 2.66032,-5.92998 5.92998,-5.92998s5.92998,2.66006 5.92998,5.92998l-11.85995,0z" fill="#695A69" id="svg_37"/>
  <polygon points="87.53549194335938,28.23572540283203 93.46546936035156,28.23572540283203 93.46546936035156,22.305747985839844 81.60551452636719,22.305747985839844 " fill="#80D7F0" id="svg_38"/>
  <polygon points="64.80391693115234,77.6521987915039 67.76890563964844,77.6521987915039 64.80391693115234,74.68721008300781 " fill="#95FFFF" id="svg_39"/>
  <polygon points="62.82725524902344,72.7105484008789 61.83892822265625,71.72222137451172 53.93229293823242,71.72222137451172 53.93229293823242,77.6521987915039 62.82725524902344,77.6521987915039 " fill="#95FFFF" id="svg_40"/>
  <polygon points="53.93229293823242,69.74555969238281 59.862266540527344,69.74555969238281 53.93229293823242,63.815589904785156 " fill="#95FFFF" id="svg_41"/>
  <polygon points="62.82725524902344,71.72222137451172 61.83892822265625,71.72222137451172 62.82725524902344,72.7105484008789 " fill="#80D7F0" id="svg_42"/>
  <rect x="64.80392" y="63.81559" width="8.89497" height="5.92998" fill="#bfbfbf" id="svg_43"/>
  <polygon points="59.862266540527344,69.74555969238281 62.82725524902344,69.74555969238281 62.82725524902344,63.815589904785156 53.93229293823242,63.815589904785156 " fill="#bfbfbf" id="svg_44"/>
  <polygon points="64.80391693115234,74.68721008300781 67.76890563964844,77.6521987915039 73.69888305664062,77.6521987915039 73.69888305664062,71.72222137451172 64.80391693115234,71.72222137451172 " fill="#bfbfbf" id="svg_45"/>
  <path d="m64.80392,52.05605l0,9.78288l8.89497,0c0,-5.11059 -3.91458,-9.27923 -8.89497,-9.78288z" fill="#6EB1E2" id="svg_46"/>
  <path d="m62.82726,52.05605c-4.98039,0.50392 -8.89497,4.67229 -8.89497,9.78288l8.89497,0l0,-9.78288z" fill="#6EB1E2" id="svg_47"/>
  <path d="m64.80392,79.62886l10.87162,0l0,-7.90664l0,-1.97666l0,-5.92998l0,-1.97666c0,-6.54959 -5.30983,-11.85995 -11.85995,-11.85995s-11.85995,5.31036 -11.85995,11.85995l0,1.97666l0,5.92998l0,1.97666l0,7.90664l10.87162,0l1.97666,0zm-1.97666,-9.88329l-2.96499,0l-5.92998,0l0,-5.92998l8.89497,0l0,5.92998zm10.87162,7.90664l-5.92998,0l-2.96499,0l0,-2.96499l0,-2.96499l8.89497,0l0,5.92998zm0,-7.90664l-8.89497,0l0,-5.92998l8.89497,0l0,5.92998zm-8.89497,-17.68952c4.98039,0.50392 8.89497,4.67229 8.89497,9.78288l-8.89497,0l0,-9.78288zm-1.97666,0l0,9.78288l-8.89497,0c0,-5.11059 3.91458,-9.27923 8.89497,-9.78288zm-8.89497,19.66618l7.90664,0l0.98833,0l0,0.98833l0,4.94165l-8.89497,0l0,-5.92998z" fill="#695A69" id="svg_48"/>
  <polygon points="98.40711975097656,72.7105484008789 97.41878509521484,71.72222137451172 89.51215362548828,71.72222137451172 89.51215362548828,77.6521987915039 98.40711975097656,77.6521987915039 " fill="#95FFFF" id="svg_49"/>
  <polygon points="100.38377380371094,77.6521987915039 103.34876251220703,77.6521987915039 100.38377380371094,74.68721008300781 " fill="#95FFFF" id="svg_50"/>
  <polygon points="89.51215362548828,69.74555969238281 95.44213104248047,69.74555969238281 89.51215362548828,63.815589904785156 " fill="#95FFFF" id="svg_51"/>
  <rect x="100.38378" y="63.81559" width="8.89497" height="5.92998" fill="#bfbfbf" id="svg_52"/>
  <polygon points="94.87963104248047,69.74555969238281 97.84461975097656,69.74555969238281 97.84461975097656,63.815589904785156 88.94965362548828,63.815589904785156 " fill="#bfbfbf" id="svg_53"/>
  <polygon points="98.40711975097656,71.72222137451172 97.41878509521484,71.72222137451172 98.40711975097656,72.7105484008789 " fill="#80D7F0" id="svg_54"/>
  <polygon points="100.38377380371094,74.68721008300781 103.34876251220703,77.6521987915039 109.27873992919922,77.6521987915039 109.27873992919922,71.72222137451172 100.38377380371094,71.72222137451172 " fill="#bfbfbf" id="svg_55"/>
  <path d="m98.40712,52.05605c-4.98039,0.50392 -8.89497,4.67229 -8.89497,9.78288l8.89497,0l0,-9.78288z" fill="#6EB1E2" id="svg_56"/>
  <path d="m100.38378,52.05605l0,9.78288l8.89497,0c0,-5.11059 -3.91458,-9.27923 -8.89497,-9.78288z" fill="#6EB1E2" id="svg_57"/>
  <path d="m100.38378,79.62886l10.87162,0l0,-7.90664l0,-1.97666l0,-5.92998l0,-1.97666c0,-6.54959 -5.30983,-11.85995 -11.85995,-11.85995s-11.85995,5.31036 -11.85995,11.85995l0,1.97666l0,5.92998l0,1.97666l0,7.90664l10.87162,0l1.97666,0zm-1.97666,-9.88329l-2.96499,0l-5.92998,0l0,-5.92998l8.89497,0l0,5.92998zm10.87162,7.90664l-5.92998,0l-2.96499,0l0,-2.96499l0,-2.96499l8.89497,0l0,5.92998zm0,-7.90664l-8.89497,0l0,-5.92998l8.89497,0l0,5.92998zm-8.89497,-17.68952c4.98039,0.50392 8.89497,4.67229 8.89497,9.78288l-8.89497,0l0,-9.78288zm-1.97666,0l0,9.78288l-8.89497,0c0,-5.11059 3.91458,-9.27923 8.89497,-9.78288zm-8.89497,19.66618l7.90664,0l0.98833,0l0,0.98833l0,4.94165l-8.89497,0l0,-5.92998z" fill="#695A69" id="svg_58"/>
  <polygon points="93.46546936035156,115.2087173461914 105.32542419433594,115.2087173461914 93.46546936035156,103.34876251220703 " fill="#7f3f00" id="svg_59"/>
  <polygon points="105.32542419433594,115.2087173461914 105.32542419433594,103.34876251220703 93.46546936035156,103.34876251220703 " fill="#7f7f7f" id="svg_60"/>
  <rect x="93.46547" y="97.41879" width="11.85995" height="3.95332" fill="#7f3f00" id="svg_61"/>
  <path d="m91.48881,101.37211l0,1.97666l0,11.85995l0,1.97666l1.97666,0l11.85995,0l1.97666,0l0,-1.97666l0,-11.85995l0,-1.97666l0,-3.95332l0,-1.97666l-1.97666,0l-11.85995,0l-1.97666,0l0,1.97666l0,3.95332zm13.83661,13.83661l-11.85995,0l0,-11.85995l11.85995,0l0,11.85995zm0,-17.78993l0,3.95332l-11.85995,0l0,-3.95332l11.85995,0z" fill="#695A69" id="svg_62"/>
 </g>
</svg>