<svg width="100%" height="100%"  viewBox="0 0 128 128" xmlns="http://www.w3.org/2000/svg">
    <g>
        <title>Mine</title>
        <rect fill="#7f7f7f" x="41.22778" y="33.03676" width="44.21698" height="30.67546" id="svg_7"/>
        <g id="svg_1">
            <path stroke="#4c4c4c" d="m55.90869,56.56454l14.63735,0c4.04174,0 7.31867,-3.20037 7.31867,-7.14768l0,-21.44304c0,-3.94731 -3.27694,-7.14768 -7.31867,-7.14768l-14.63735,0c-4.04174,0 -7.31867,3.20037 -7.31867,7.14768l0,21.44304c0,3.94731 3.27694,7.14768 7.31867,7.14768z" id="svg_2" fill="#db893d" stroke-width="8"/>
            <path stroke="#4c4c4c" d="m114.45808,78.00758c0,-19.90875 -11.99668,-37.0873 -29.27469,-45.13716l0,16.54643c0,7.88233 -6.56622,14.29536 -14.63735,14.29536l-14.63735,0c-8.07112,0 -14.63735,-6.41303 -14.63735,-14.29536l0,-16.54643c-17.27801,8.04985 -29.27469,25.22841 -29.27469,45.13716c-4.04174,0 -7.31867,3.20037 -7.31867,7.14768l0,7.14768c0,3.94731 3.27694,7.14768 7.31867,7.14768l102.46142,0c4.04174,0 7.31867,-3.20037 7.31867,-7.14768l0,-7.14768c0,-3.94731 -3.27694,-7.14768 -7.31867,-7.14768z" id="svg_3" fill="#db893d" stroke-width="8"/>
        </g>
        <ellipse fill="#ffffaa" cx="63.28182" cy="35.64268" id="svg_4" rx="12.12155" ry="11.83835"/>
    </g>
</svg>