<svg width="100%" height="100%"  viewBox="0 0 128 128" xmlns="http://www.w3.org/2000/svg">
 <g>
  <title>missile</title>
  <rect id="svg_11" height="18.75" width="23.25" y="104.92856" x="50.12501" fill="#e8a76a"/>
  <path id="svg_10" d="m30.62501,104.92856c0,0 61.5,0.75 61.5,0.75c0,0 0,-12.75 -0.625,-13.42856c-0.625,-0.67856 -29.37499,-15.82143 -30,-16.5c-0.62501,-0.67857 -30.87499,17.92856 -30.87499,17.92856c0,0 0,11.25 0,11.25z" fill="#e8a76a"/>
  <rect id="svg_9" height="40.5" width="27" y="67.80356" x="49.75001" fill="#a04040"/>
  <rect id="svg_8" height="12.75" width="33.75" y="26.17857" x="44.87501" fill="#a04040"/>
  <g id="svg_1">
   <polygon fill="#3f3f3f" points="44.106571197509766,19.852144241333008 44.106571197509766,29.10861587524414 79.81009674072266,29.10861587524414 79.81009674072266,19.852144241333008 61.95833206176758,1.3392064571380615 " id="svg_2"/>
   <polygon fill="#3f3f3f" points="27.577163696289062,108.44979095458984 36.172454833984375,108.44979095458984 36.172454833984375,87.08056640625 27.577163696289062,92.58155059814453 " id="svg_3"/>
   <polygon fill="#3f3f3f" points="87.74421691894531,87.08056640625 87.74421691894531,108.44979095458984 96.33950805664062,108.44979095458984 96.33950805664062,92.58155059814453 " id="svg_4"/>
   <polygon fill="#3f3f3f" points="44.106571197509766,108.44979095458984 57.991275787353516,108.44979095458984 57.991275787353516,76.18437957763672 65.92539596557617,76.18437957763672 65.92539596557617,108.44979095458984 79.81009674072266,108.44979095458984 79.81009674072266,37.04273223876953 44.106571197509766,37.04273223876953 " id="svg_5"/>
   <rect fill="#3f3f3f" x="48.73481" y="116.3839" width="7.93412" height="10.57882" id="svg_6"/>
   <rect fill="#3f3f3f" x="67.24775" y="116.3839" width="7.93412" height="10.57882" id="svg_7"/>
  </g>
 </g>
</svg>