<svg width="100%" height="100%"  viewBox="0 0 128 128" xmlns="http://www.w3.org/2000/svg">
  <g>
   <title>Motel</title>
   <rect fill="#7f7f7f" x="100.24191" y="51.08594" width="1.89844" height="14.55469" id="svg_14"/>
   <rect fill="#7f7f7f" x="77.93527" y="50.45312" width="1.89844" height="14.55469" id="svg_13"/>
   <rect fill="#ffd4aa" x="9.59152" y="47.28906" width="48.41016" height="14.87109" id="svg_12"/>
   <rect id="svg_4" height="56.52452" width="105.13568" y="66.20116" x="10.07192" fill="#AAA"/>
   <g id="svg_1" fill="#333">
    <rect fill="#333" x="58.30469" y="63.66647" width="59.90625" height="59.34915" id="svg_2"/>
    <path d="m58.84499,35.27271l-49.43639,0c-2.1796,0 -4.6656,1.93489 -4.6656,5.05979l0,76.58329c0,3.04326 2.4208,6.14353 4.6656,6.14353l16.9344,0l0,-15.91453l15.2,0l0,15.91453l17.302,0c2.3756,0 3.898,-3.23784 3.898,-6.14353l0,-76.58277c0,-2.93187 -1.5624,-5.06031 -3.898,-5.06031l-0.00001,0l0.00001,0l-0.00001,0zm-36.102,62.63137l-10.8,0l0,-10.26744l10.8,0l0,10.26744zm0,-18.99476l-10.8,0l0,-10.26744l10.8,0l0,10.26744zm0,-18.99476l-10.8,0l0,-9.75406l10.8,0l0,9.75406zm16.8,37.98953l-11.2,0l0,-10.26744l11.2,0l0,10.26744zm0,-18.99476l-11.2,0l0,-10.26744l11.2,0l0,10.26744zm0,-18.99476l-11.2,0l0,-9.75406l11.2,0l0,9.75406zm15.99999,37.98953l-10.4,0l0,-10.26744l10.4,0l0,10.26744zm0,-18.99476l-10.4,0l0,-10.26744l10.4,0l0,10.26744zm0,-18.99476l-10.4,0l0,-9.75406l10.4,0l0,9.75406z" id="svg_11"/>
    <rect fill="#bfbfbf"  x="67.58594" y="69.60098" width="12.23437" height="10.59734" id="svg_3"/>
    <rect fill="#bfbfbf" x="67.32813" y="88.04035" width="12.23437" height="10.59734" id="svg_5"/>
    <rect fill="#bfbfbf" x="83.78125" y="88.04035" width="12.23437" height="10.59734" id="svg_6"/>
    <rect fill="#bfbfbf" x="83.78125" y="69.38903" width="12.23437" height="10.59734" id="svg_7"/>
    <rect fill="#bfbfbf" x="100.23438" y="88.04035" width="12.23437" height="10.59734" id="svg_8"/>
    <rect fill="#bfbfbf" x="100.23438" y="69.38903" width="12.23437" height="10.59734" id="svg_9"/>
   </g>
   <rect fill="#7f7f7f" x="100.40011" y="56.14844" width="0.31641" height="0.94922" id="svg_15"/>
   <rect id="svg_10" height="39.65625" width="14.34375" y="13.02678" x="71.38281" fill="#7f3f00"/>
   <rect id="svg_16" height="39.65625" width="14.34375" y="13.02679" x="94.11719" fill="#7f3f00"/>
   <rect id="svg_17" height="6.75" width="22.35937" y="32.43303" x="78.97656" fill="#7f3f00"/>
  </g>
 </svg>