<svg width="90%" height="90%"  viewBox="0 0 128 128" xmlns="http://www.w3.org/2000/svg">
 <g>
  <title>N/A</title>
  <circle id="svg_4" r="54" cy="64" cx="64" fill="#b2b2b2"/>
  <g id="svg_1">
  <path id="svg_3" fill="#4c4c4c" d="m64.5,2c-34.5182,0 -62.5,27.9818 -62.5,62.5c0,34.5182 27.9818,62.5 62.5,62.5c34.5182,0 62.5,-27.9818 62.5,-62.5c0,-34.5182 -27.9818,-62.5 -62.5,-62.5zm5.71075,98.49748l-11.64081,0l0,-11.16348l11.64081,0l0,11.16348zm0,-23.0838l0,3.68962l-11.64081,0l0,-4.54538c0,-13.71783 15.60995,-15.89377 15.60995,-25.64246c0,-4.44647 -3.97344,-7.85228 -9.17676,-7.85228c-5.39253,0 -10.12282,3.97344 -10.12282,3.97344l-6.6267,-8.235c0,0 6.5321,-6.81161 17.79018,-6.81161c10.69475,0 20.62405,6.6224 20.62405,17.78588c0.0043,15.61855 -16.4571,17.42036 -16.4571,27.63778z"/>
 </g>
 </g>
</svg>