<svg width="100%" height="100%"  viewBox="0 0 128 128" xmlns="http://www.w3.org/2000/svg">
 <g>
  <title>nepa_base</title>
  <path fill="#544334" d="m36.92327,9.61352c0.82258,-0.35272 14.80645,10.22897 14.70394,10.04028c-0.10251,-0.18869 4.21541,-8.98211 4.1129,-9.1708c-0.10251,-0.18869 -12.64749,-6.16032 -12.75,-6.34901c-0.10251,-0.18869 -6.06685,5.47954 -6.06685,5.47954z" id="svg_28"/>
  <path fill="#544334" d="m44.73779,127.07029c0,0 36.19354,0 36.19354,0c0,0 -6.58064,-21.16338 -6.68315,-21.35207c-0.10251,-0.18869 0.10251,-102.80644 0.10251,-102.80644c0,0 -23.03225,0 -23.13476,-0.18869c-0.10251,-0.18869 0.5138,102.47837 0.5138,102.47837c0,0 -6.99193,21.86883 -6.99193,21.86883z" id="svg_27"/>
  <path fill="#5d7569" d="m20.89765,39.25486c0,0 13.57258,-7.93627 13.57258,-7.93627c0,0 19.74193,-5.55539 19.52191,-5.6685c-0.22002,-0.11311 20.57889,0.37765 20.57889,0.37765c0,0 20.9758,6.8781 20.9758,6.8781c0,0 9.25403,6.61356 9.25403,6.61356c0,0 -83.9032,-0.26454 -83.9032,-0.26454z" id="svg_26"/>
  <rect fill="#7a5e44" x="26.45006" y="39.78394" width="73.10683" height="33.06779" id="svg_25"/>
  <rect fill="#ffd4aa" x="86.29279" y="44.81024" width="7.71169" height="14.28528" id="svg_24"/>
  <rect fill="#bfbfbf" x="55.75449" y="44.5457" width="15.11492" height="14.28528" id="svg_23"/>
  <rect fill="#bfbfbf" x="32.00248" y="44.5457" width="8.63709" height="14.02074" id="svg_22"/>
  <g id="svg_1">
   <path d="m106.9042,38.62272c-8.72007,-6.89979 -19.34925,-11.53748 -30.77613,-13.54774l0,-2.81632c1.11912,-1.17113 3.55509,-3.23033 7.45042,-4.06284c0.99172,-0.2119 1.59539,-1.07351 1.34831,-1.92402c-0.24739,-0.8505 -1.25269,-1.36874 -2.24349,-1.15631c-2.74721,0.58728 -4.9216,1.65894 -6.55525,2.74965l0,-13.90752c0,-0.87643 -0.82885,-1.58725 -1.85081,-1.58725s-1.85081,0.71083 -1.85081,1.58725l0,20.56076c-3.0708,-0.38226 -6.18879,-0.57882 -9.33454,-0.57882c-3.14637,0 -6.26498,0.19682 -9.33639,0.57908l0,-4.20437c0,-0.34073 -0.12771,-0.6722 -0.36461,-0.94574c-1.89738,-2.19358 -7.14411,-7.60903 -14.86105,-10.51529c-0.93497,-0.35211 -2.02725,0.01243 -2.43844,0.81505s0.0145,1.7391 0.95039,2.09147c6.46672,2.43564 11.04283,6.89582 13.01209,9.08703l0,4.22818c-11.42626,2.01026 -22.05482,6.64795 -30.77458,13.54747c-0.56018,0.44311 -0.74618,1.13542 -0.46887,1.74439s0.96149,1.00949 1.72372,1.00949l4.1893,0l0,31.70513c0,0.87669 0.82885,1.58725 1.85081,1.58725l13.21907,0l10.26179,13.39192l0,10.42402c0,9.61267 -2.16668,18.99281 -6.43988,27.88011c-0.3899,0.81029 0.06046,1.73831 1.0056,2.07242c0.23073,0.08174 0.46949,0.12037 0.70485,0.12037c0.72706,0 1.4171,-0.37009 1.71169,-0.98251c4.45859,-9.27274 6.71935,-19.06001 6.71935,-29.09013l0,-23.81595l7.48497,0l0,12.61946c0,0.87643 0.82885,1.58725 1.85081,1.58725s1.85081,-0.71083 1.85081,-1.58725l0,-12.61973l7.48281,0l0,23.81595c0,10.03039 2.26076,19.81766 6.71966,29.09013c0.29459,0.61242 0.98432,0.98251 1.71169,0.98251c0.23536,0 0.47411,-0.03862 0.70485,-0.12037c0.94484,-0.33412 1.3952,-1.26213 1.0056,-2.07242c-4.27351,-8.88677 -6.44019,-18.26691 -6.44019,-27.87985l0,-10.42376l8.56769,-11.18141l0,50.09029c0,0.87643 0.82885,1.58725 1.85081,1.58725s1.85081,-0.71083 1.85081,-1.58725l0,-2.96155l9.36107,0l0,2.96155c0,0.87643 0.82885,1.58725 1.85081,1.58725s1.85081,-0.71083 1.85081,-1.58725l0,-85.59345l4.18899,0c0.76222,0 1.4461,-0.40078 1.72372,-1.00949s0.09223,-1.30102 -0.46825,-1.74413zm-14.90732,-0.42089c-2.89127,-3.35969 -6.09008,-6.16754 -9.51067,-8.37779c6.51946,1.8756 12.65088,4.69536 18.13296,8.37779l-8.62229,0zm-30.75546,0l-22.36267,0c6.43217,-6.67176 14.22468,-10.51979 22.36267,-11.02797l0,11.02797zm3.70161,-11.02797c8.13799,0.50819 15.9302,4.35648 22.36236,11.02797l-22.36236,0l0,-11.02797zm-21.24509,2.65045c-3.4206,2.21025 -6.61941,5.01784 -9.51037,8.37752l-8.6226,0c5.48209,-3.68216 11.6135,-6.50192 18.13296,-8.37752zm6.35814,52.45556l-5.8322,-7.61115l5.8322,0l0,7.61115zm26.0723,-7.61115l5.83251,0l-5.83251,7.61168l0,-7.61168zm21.63037,2.45601l-9.36107,0l0,-2.45601l9.36107,0l0,2.45601zm-9.36107,32.31384l9.36107,0l0,4.11046l-9.36107,0l0,-4.11046zm0,-3.17451l0,-4.11046l9.36107,0l0,4.11046l-9.36107,0zm0,-7.28497l0,-4.11046l9.36107,0l0,4.11046l-9.36107,0zm0,-7.2847l0,-4.11019l9.36107,0l0,4.11019l-9.36107,0zm0,-7.2847l0,-4.11046l9.36107,0l0,4.11046l-9.36107,0zm0,36.42403l0,-4.11046l9.36107,0l0,4.11046l-9.36107,0zm9.36107,-49.33952l-69.33304,0l0,-30.11787l69.33304,0l0,30.11787z" id="svg_2"/>
   <path d="m70.65895,42.99824l-15.13342,0c-1.02195,0 -1.85081,0.71083 -1.85081,1.58725l0,14.38898c0,0.87643 0.82885,1.58725 1.85081,1.58725l15.13342,0c1.02195,0 1.85081,-0.71083 1.85081,-1.58725l0,-14.38898c0,-0.87643 -0.82885,-1.58725 -1.85081,-1.58725zm-1.85081,14.38898l-11.43181,0l0,-11.21448l11.43181,0l0,11.21448z" id="svg_3"/>
   <path d="m84.10567,44.5855l0,14.38898c0,0.87643 0.82885,1.58725 1.85081,1.58725l7.89585,0c1.02195,0 1.85081,-0.71083 1.85081,-1.58725l0,-14.38898c0,-0.87643 -0.82885,-1.58725 -1.85081,-1.58725l-7.89585,0c-1.02195,0 -1.85081,0.71083 -1.85081,1.58725zm3.70161,1.58725l4.19423,0l0,11.21448l-4.19423,0l0,-11.21448z" id="svg_4"/>
   <path d="m40.22769,42.99824l-7.89585,0c-1.02195,0 -1.85081,0.71083 -1.85081,1.58725l0,14.38898c0,0.87643 0.82885,1.58725 1.85081,1.58725l7.89585,0c1.02195,0 1.85081,-0.71083 1.85081,-1.58725l0,-14.38898c0,-0.87643 -0.82854,-1.58725 -1.85081,-1.58725zm-1.85081,14.38898l-4.19423,0l0,-11.21448l4.19423,0l0,11.21448z" id="svg_5"/>
   <path d="m43.55328,6.21682c5.95127,2.12295 10.7649,6.2268 10.81303,6.26806c0.36152,0.31137 0.83626,0.46718 1.3113,0.46718c0.47196,0 0.94422,-0.15396 1.30482,-0.46189c0.7249,-0.61824 0.72798,-1.62323 0.00709,-2.24464c-0.10179,-0.08783 -1.29988,-1.11214 -3.23367,-2.41871l0,-3.8692c0,-0.87643 -0.82885,-1.58725 -1.85081,-1.58725s-1.85081,0.71083 -1.85081,1.58725l0,1.619c-1.53185,-0.83066 -3.24816,-1.63778 -5.07923,-2.29094c-0.94391,-0.3357 -2.02694,0.04656 -2.41993,0.85579c-0.39206,0.8095 0.0546,1.73857 0.9982,2.07533z" id="svg_6"/>
  </g>
 </g>
</svg>