<svg width="100%" height="100%"  viewBox="0 0 128 128" xmlns="http://www.w3.org/2000/svg">
 <g>
  <title>NotreDamn</title>
  <path id="svg_10" d="m86,101.5c0,0 39,-35 39,-35c0,0 39,34 39,34c0,0 -78,1 -78,1z" stroke-width="6" fill="#bfbfbf"/>
  <rect id="svg_9" height="99" width="56" y="3" x="175.5" stroke-width="6" fill="#bfbfbf"/>
  <rect id="svg_8" height="99" width="56" y="3.5" x="19.5" stroke-width="6" fill="#bfbfbf"/>
  <rect id="svg_7" height="136" width="224.00001" y="109.5" x="14" stroke-width="6" fill="#bfbfbf"/>
  <g id="svg_1">
   <g id="svg_2">
    <path id="svg_3" d="m125.33333,119.467c-8.46242,0 -14.93333,6.47092 -14.93333,14.93333c0,7.96425 6.96908,14.93333 14.93333,14.93333s14.93333,-6.96908 14.93333,-14.93333c0,-7.96483 -6.47092,-14.93333 -14.93333,-14.93333zm0,19.91092c-2.98667,0 -4.97758,-1.99092 -4.97758,-4.97758s1.99092,-4.97758 4.97758,-4.97758s4.97758,1.99092 4.97758,4.97758s-1.99092,4.97758 -4.97758,4.97758z" fill="#000000"/>
   </g>
  </g>
  <g id="svg_4">
   <g id="svg_5">
    <path id="svg_6" d="m246.5538,242.37511l-4.17871,0l0,-54.32521l0,-20.89454l-71.04104,0l0,-8.35791l20.89454,0l0,-16.71534c0,-2.50733 1.67139,-4.17871 4.17871,-4.17871c2.50733,0 4.17871,1.67139 4.17871,4.17871l0,16.71534l8.35791,0l0,-16.71534c0,-2.50733 1.67139,-4.17871 4.17871,-4.17871s4.17871,1.67139 4.17871,4.17871l0,16.71534l25.07325,0l0,-50.1465l0,-8.35742l0,-79.39847c0,-2.50733 -1.67139,-4.17871 -4.17871,-4.17871l-4.17871,0l0,-12.53663c0,-2.50733 -1.67139,-4.17871 -4.17871,-4.17871l-54.3257,0c-2.50733,0 -4.17871,1.67139 -4.17871,4.17871l0,12.53663l-4.17871,0c-2.50733,0 -4.17871,1.67139 -4.17871,4.17871l0,74.38382l-33.43117,-30.0879l0,-15.04395l4.17871,0c2.50733,0 4.17871,-1.67139 4.17871,-4.17871c0,-2.50733 -1.67139,-4.17871 -4.17871,-4.17871l-4.17871,0l0,-4.1792c0,-2.50733 -1.67139,-4.17871 -4.17871,-4.17871s-4.17871,1.67139 -4.17871,4.17871l0,4.17871l-4.17871,0c-2.50733,0 -4.17871,1.67139 -4.17871,4.17871c0,2.50733 1.67139,4.17871 4.17871,4.17871l4.17871,0l0,15.04395l-33.43165,30.08839l0,-74.38382c0,-2.50733 -1.67139,-4.17871 -4.17871,-4.17871l-4.17871,0l0,-12.53663c0,-2.50733 -1.67139,-4.17871 -4.17871,-4.17871l-54.3257,0c-2.50733,0 -4.17871,1.67139 -4.17871,4.17871l0,12.53663l-4.1792,0c-2.50733,0 -4.17871,1.67139 -4.17871,4.17871l0,79.39847l0,8.35791l0,50.1465l25.07325,0l0,-16.71534c0,-2.50733 1.67139,-4.17871 4.17871,-4.17871s4.17871,1.67139 4.17871,4.17871l0,16.71534l8.35791,0l0,-16.71534c0,-2.50733 1.67139,-4.17871 4.17871,-4.17871s4.17871,1.67139 4.17871,4.17871l0,16.71534l20.89454,0l0,8.35791l-71.04055,0l0,20.89405l0,54.32521l-4.1792,0c-2.50733,0 -4.17871,1.67139 -4.17871,4.17871s1.67139,4.1792 4.17871,4.1792l8.35791,0l20.89454,0l8.35791,0l33.43068,0l8.35791,0l16.71534,0l8.35791,0l33.43117,0l8.35742,0l16.71534,0l8.35791,0l33.43117,0l8.35791,0l20.89405,0l8.35791,0c2.50733,0 4.17871,-1.67139 4.17871,-4.17871s-1.67139,-4.1792 -4.17871,-4.1792l-0.00001,0zm-54.3257,-142.08159l0,-58.50442c0,-2.50733 1.67139,-4.17871 4.17871,-4.17871c2.50733,0 4.17871,1.67139 4.17871,4.17871l0,58.50442l-8.35742,0zm12.53663,29.25196c-2.50733,0 -4.17871,-1.67139 -4.17871,-4.17871s1.67139,-4.17871 4.17871,-4.17871s4.17871,1.67139 4.17871,4.17871s-1.67139,4.17871 -4.17871,4.17871zm12.53663,-29.25196l-8.35791,0l0,-58.50442c0,-2.50733 1.67139,-4.17871 4.17871,-4.17871s4.17871,1.67139 4.17871,4.17871l0,58.50442l0.00049,0zm-37.60988,-91.93509l45.96779,0l0,8.35791l-45.96779,0l0,-8.35791zm-146.26031,91.93509l0,-58.50442c0,-2.50733 1.67139,-4.17871 4.17871,-4.17871s4.17871,1.67139 4.17871,4.17871l0,58.50442l-8.35742,0zm12.53663,29.25196c-2.50733,0 -4.17871,-1.67139 -4.17871,-4.17871s1.67139,-4.17871 4.17871,-4.17871c2.50733,0 4.17871,1.67139 4.17871,4.17871s-1.67139,4.17871 -4.17871,4.17871zm12.53663,-29.25196l-8.35791,0l0,-58.50442c0,-2.50733 1.67139,-4.17871 4.17871,-4.17871s4.17871,1.67139 4.17871,4.17871l0,58.50442l0.00049,0zm12.53663,-83.57767l-45.96779,0l0,-8.35742l45.96779,0l0,8.35742zm-8.35791,225.65926l-8.35791,0l0,-8.35791c0,-2.50733 1.67139,-4.17871 4.17871,-4.17871s4.17871,1.67139 4.17871,4.17871l0,8.35791l0.00049,0zm20.89454,0l-8.35791,0l0,-2.92505c0,-10.0293 -4.59693,-19.22266 -12.53663,-25.49098l-4.17871,-3.34326l-4.17871,3.34326c-7.9397,6.26831 -12.53663,15.46168 -12.53663,25.49098l0,2.92505l-8.35791,0l0,-2.92505c0,-12.53663 5.43237,-24.23731 15.46168,-32.1775l7.10425,-5.43237c1.67139,-1.25366 3.76099,-1.25366 5.01465,0l7.10425,5.43237c10.0293,7.9397 15.46168,19.64088 15.46168,32.1775l0,2.92505l-0.00001,0zm45.9673,0l-8.35791,0l0,-8.35791c0,-2.50733 1.67139,-4.17871 4.17871,-4.17871s4.17871,1.67139 4.17871,4.17871l0,8.35791l0.00049,0zm20.89454,0l0,0l-8.35791,0l0,-2.92505c0,-10.0293 -4.59693,-19.22266 -12.53663,-25.49098l-4.17871,-3.34326l-4.17871,3.34326c-7.9397,6.26831 -12.53663,15.46168 -12.53663,25.49098l0,2.92505l-8.35791,0l0,-2.92505c0,-12.53663 5.43237,-24.23731 15.46168,-32.1775l7.10425,-5.43237c1.67139,-1.25366 3.76099,-1.25366 5.01465,0l7.10425,5.43237c10.0293,7.9397 15.46168,19.64088 15.46168,32.1775l0,2.92505l-0.00001,0zm-45.96779,-108.65043c0,-11.28296 9.19336,-20.89454 20.89454,-20.89454c11.70069,0 20.89454,9.19336 20.89454,20.89454c0,11.70069 -9.19336,20.89454 -20.89454,20.89454c-11.70069,-0.00049 -20.89454,-9.61158 -20.89454,-20.89454zm-10.0293,-33.43117l30.92384,-27.9983l30.92384,27.9983l-61.84768,0zm101.96488,142.08159l-8.35791,0l0,-8.35791c0,-2.50733 1.67139,-4.17871 4.17871,-4.17871c2.50733,0 4.17871,1.67139 4.17871,4.17871l0,8.35791l0.00049,0zm20.89405,0l0,0l-8.35791,0l0,-2.92505c0,-10.0293 -4.59693,-19.22266 -12.53663,-25.49098l-4.17871,-3.34326l-4.17871,3.34326c-7.9397,6.26831 -12.53663,15.46168 -12.53663,25.49098l0,2.92505l-8.35791,0l0,-2.92505c0,-12.53663 5.43237,-24.23731 15.46168,-32.1775l7.10425,-5.43237c1.67139,-1.25366 3.76099,-1.25366 5.01465,0l7.10425,5.43237c10.0293,7.9397 15.46168,19.64088 15.46168,32.1775l0,2.92505l-0.00001,0z" fill="#3f3f3f"/>
   </g>
  </g>
 </g>
</svg>