<svg width="100%" height="100%"  viewBox="0 0 128 128" xmlns="http://www.w3.org/2000/svg">
 <g>
  <title>office</title>
  <rect fill="#7f7f7f" x="9.75872" y="55.62946" width="109.5626" height="13.06375" id="svg_23"/>
  <rect fill="#ffffaa" x="89.87814" y="41.32154" width="11.04119" height="40.12438" id="svg_22"/>
  <rect fill="#ffffaa" x="27.59449" y="43.18779" width="11.3243" height="36.08084" id="svg_21"/>
    <g id="svg_3">
     <path d="m116.9141,32.01389l-29.61672,0l0,-8.9297c0,-5.48055 -4.05835,-9.93965 -9.04727,-9.93965l-27.78474,0c-4.98835,0 -9.04698,4.45909 -9.04698,9.93965l0,8.9297l-29.61644,0c-3.02727,0 -5.48096,2.6958 -5.48096,6.02146l0,19.53684l21.24665,0l0,-4.92037c0,-3.13717 2.31469,-5.67993 5.16954,-5.67993l1.03419,0c2.85486,0 5.16954,2.54277 5.16954,5.67993l0,4.92037l50.83421,0l0,-4.92037c0,-3.13717 2.31469,-5.67993 5.16954,-5.67993l1.03391,0c2.85514,0 5.16983,2.54277 5.16983,5.67993l0,4.92037l21.24665,0l0,-19.53684c0,-3.32566 -2.45369,-6.02146 -5.48096,-6.02146zm-37.37132,0l-30.36951,0l0,-8.9297c0,-0.78289 0.5798,-1.41991 1.29239,-1.41991l27.78502,0c0.71258,0 1.29182,0.63701 1.29182,1.41991l0,8.9297l0.00028,0z" id="svg_4" fill="#5e442b"/>
     <path d="m101.14841,70.57217c0,3.13686 -2.31469,5.67993 -5.16983,5.67993l-1.03391,0c-2.85486,0 -5.16954,-2.54308 -5.16954,-5.67993l0,-3.88242l-50.83421,0l0,3.88242c0,3.13686 -2.31469,5.67993 -5.16954,5.67993l-1.03419,0c-2.85486,0 -5.16954,-2.54308 -5.16954,-5.67993l0,-3.88242l-17.95468,0l0,46.36201c0,3.13717 2.31469,5.68024 5.16954,5.68024l99.15047,0c2.85486,0 5.16954,-2.54308 5.16954,-5.68024l0,-46.36232l-17.95439,0l0.00028,3.88273l0,0z" id="svg_5" fill="#5e442b"/>
    </g>
 </g>
</svg>