<svg width="100%" height="160%"  viewBox="0 0 128 204" xmlns="http://www.w3.org/2000/svg">
 <g class="layer" id="svg">
  <title>Oldwest watertawer</title>
  <g fill="#333" id="svg_common" stroke="#222">
   <g fill="#755657" id="hor" stroke="#755657" stroke-width="3">
    <path d="m87.88271,180.51884c-0.45087,0 -0.90204,-0.13365 -1.30568,-0.40059l-27.92473,-18.47528c-1.24424,-0.82297 1.36715,-5.96669 2.61106,-5.14299l26.61902,17.61134l26.6197,-17.61171c1.24391,-0.82295 3.85531,4.31967 2.61106,5.14301l-27.92505,18.47565c-0.40333,0.26729 -0.85452,0.40057 -1.30537,0.40057l-0.00002,0l0,0z" id="svg_4"/>
    <path d="m87.88271,146.636c-0.51652,0 -1.03271,-0.17462 -1.47742,-0.52499l-18.85411,-14.83568c-1.18407,-0.93185 1.77144,-5.82602 2.95553,-4.89452l17.37666,13.67269l17.37473,-13.6712c1.18409,-0.93114 4.13927,3.96301 2.95552,4.89453l-18.85249,14.83418c-0.44568,0.34962 -0.9622,0.52499 -1.4784,0.52499l-0.00002,0l0,0z" id="svg_3"/>
   </g>
   <g fill="#4e4141" id="legs" stroke="#4e4141" stroke-width="4">
    <path d="m48.94585,192.95897l-1.85305,-0.17561l39.55313,-131.29945l1.85307,0.17565l-39.55313,131.29942l-0.00001,0l0,-0.00003l-0.00001,0l0,0.00002z" id="svg_49"/>
    <path d="m127.98141,193.05438l-41.85725,-130.8954l1.96101,-0.17509l41.92485,130.89544l-2.02859,0.17506l0,-0.00002l-0.00002,0z" id="svg_53"/>
    <rect height="137" id="svg_8" width="4" x="86" y="60"/>
   </g>
   <g id="svg_2" stroke-width="3">
    <path d="m46.96257,43.47244l-1.96538,-4.01266l-36.68717,-7.12451l0,15.88684l0,15.88686l36.68717,-7.12452l1.96538,-4.01266l34.96745,-2.21106l0,-3.35753l0,-1.71973l-34.96745,-2.21102l0,0l0,-0.00001z" fill="#4e4141" id="svg_73" stroke="#4e4141"/>
    <path d="m96.11485,46.98615c0,4.83155 -3.93076,8.76234 -8.76232,8.76234c-4.83157,0 -8.76234,-3.93075 -8.76234,-8.76234c0,-4.83156 3.93077,-8.76231 8.76234,-8.76231c4.83157,0 8.76232,3.93075 8.76232,8.76231z" fill="#4e4141" id="svg_56" stroke="#4e4141" stroke-width="3"/>
    <path d="m81.80991,10.13522l9.008,-2.53863l-0.90079,24.40351l-3.60321,0.57324l-4.50401,-22.43812l0.00002,0l-0.00001,0z" fill="black" id="svg_57"/>
    <path d="m61.31583,21.44019l4.58591,-8.27099l16.62387,17.93411l-2.12917,3.02996l-19.08059,-12.69307l-0.00002,0l0,-0.00001z" fill="black" id="svg_59"/>
    <path d="m53.16536,36.37029l0.98269,-9.33558l22.27435,10.23638l-0.8189,3.52134l-22.43812,-4.42213l-0.00002,0l0,-0.00001z" fill="black" id="svg_60"/>
    <path d="m58.48828,70.04079l-5.81426,-7.37016l22.92947,-8.4348l1.88351,3.02996l-18.9987,12.775l0,0l-0.00001,0l-0.00001,0z" fill="black" id="svg_62"/>
    <path d="m76.23666,81.17334l-9.33556,-1.06462l10.23637,-22.19245l3.52132,0.73703l-4.4221,22.52004l-0.00001,0l-0.00002,0l0.00002,0l-0.00002,0z" fill="black" id="svg_64"/>
    <path d="m113.8073,70.03212l-4.504,8.18913l-16.62387,-17.93412l2.04729,-2.94806l19.08057,12.69306l0,-0.00001l0.00001,0z" fill="black" id="svg_67"/>
    <path d="m124.03968,52.02013l-1.06457,9.33556l-22.27436,-10.15448l0.81892,-3.60322l22.52001,4.42212l0,0.00002z" fill="black" id="svg_68"/>
    <path d="m119.13488,26.84962l5.81425,7.37018l-22.92947,8.51669l-1.8835,-3.11186l18.99871,-12.77501l0,0l0.00001,0z" fill="black" id="svg_70"/>
    <path d="m99.38651,11.79901l9.33556,1.06458l-10.15446,22.19245l-3.6032,-0.8189l4.42212,-22.43813l-0.00001,0l-0.00001,0z" fill="black" id="svg_72"/>
   </g>
  </g>
 </g>
</svg>