<svg width="100%" height="100%"  viewBox="0 0 115 115" xmlns="http://www.w3.org/2000/svg">
 <g>
  <title>Old west coal factory</title>
  <g id="svg_1" fill="#333">
   <path d="m48.33615,109.26269c0,0 2.61677,-5.05189 4.10741,-7.1796c1.44795,-2.06677 3.48803,-4.83371 5.39745,-6.48363c3.4963,-3.02113 8.28532,-6.89981 11.88107,-9.80187c1.67858,-1.35475 3.5246,-4.05138 5.64351,-4.4554c0.91385,-0.17426 2.10547,0.54812 2.97027,0.89108c1.29652,0.51417 2.7868,2.33245 4.15837,2.07917c2.85291,-0.52681 4.103,-5.4195 6.98013,-5.79202c1.47076,-0.19042 2.55813,0.40598 3.71283,1.33662c0.58871,0.47447 1.07437,1.51622 1.78216,1.78215c1.25399,0.47118 3.16956,-0.67267 4.4554,-0.29702c2.01864,0.58972 4.17461,2.65336 5.6435,4.15837c0.75971,0.77841 1.12959,2.43983 2.07919,2.97027c1.32478,0.74 3.94032,-0.71877 5.04945,0.29702c4.18429,3.83216 7.11655,7.17464 8.91079,12.77215c0.73985,2.30811 2.37621,7.72269 2.37621,7.72269l-75.14772,0l-0.00002,0.00001z" fill="#11111a" fill-rule="evenodd" id="path2392" stroke="#333" stroke-width="2px"/>
   <rect fill-rule="evenodd" height="7.72271" id="rect2384" stroke="#333" fill="#222" stroke-miterlimit="4" stroke-width="4" width="124.751" x="2" y="107.778"/>
   <rect fill-rule="evenodd" height="8.61377" id="rect2386" stroke="#333" stroke-miterlimit="4" stroke-width="4" width="34.158" x="13.584" y="22.2339"/>
   <rect fill-rule="evenodd" height="2.67324" id="rect2388" stroke="#333" stroke-miterlimit="4" stroke-width="4" width="39.8015" x="11.2078" y="48.9663"/>
   <path d="m17.14836,67.38194l27.02942,0" fill-rule="evenodd" id="path2394" stroke="#333" stroke-miterlimit="4" stroke-width="4"/>
   <path d="m17.14836,86.98569l27.02942,0" fill-rule="evenodd" id="path3166" stroke="#333" stroke-miterlimit="4" stroke-width="4"/>
   <path d="m17.47833,107.69055l25.84131,-20.19781" fill-rule="evenodd" id="path3168" stroke="#333" stroke-miterlimit="4" stroke-width="4"/>
   <path d="m18.63349,87.28271l25.84131,-20.19781" fill-rule="evenodd" id="path3170" stroke="#333" stroke-miterlimit="4" stroke-width="4"/>
   <path d="m18.03944,110.45078l0,-83.76149" fill-rule="evenodd" id="path3174" stroke="#333" stroke-miterlimit="4" stroke-width="4"/>
   <path d="m43.2867,110.45078l0,-83.76149" fill-rule="evenodd" id="path3176" stroke="#333" stroke-miterlimit="4" stroke-width="4"/>
   <path d="m20.41565,25.79821l0,-13.36619" fill-rule="evenodd" id="path3178" stroke="#333" stroke-miterlimit="4" stroke-width="4"/>
   <path d="m69.64805,108.3618l-32.34454,-52.08732" fill-rule="evenodd" id="path3184" stroke="#333" stroke-miterlimit="4" stroke-width="4"/>
   <path fill="#111" d="m42.55423,51.12876a12.28673,12.28673 0 1 1 -24.57346,0a12.28673,12.28673 0 1 1 24.57346,0z" fill-rule="evenodd" id="path3182" stroke="#333" stroke-miterlimit="4" stroke-width="2"/>
   <path d="m48.54008,73.39188l0,-18.06254" fill-rule="evenodd" id="path3188" stroke="#333" stroke-miterlimit="4" stroke-width="4"/>
   <path d="m57.46634,87.77891l0,-18.06254" fill-rule="evenodd" id="path3190" stroke="#333" stroke-miterlimit="4" stroke-width="4"/>
   <path d="m48.85513,74.9671l8.61121,-6.30088" fill-rule="evenodd" id="path3196" stroke="#333" stroke-miterlimit="4" stroke-width="4"/>
   <path d="m57.8864,89.24911l8.61121,-6.30088" fill-rule="evenodd" id="path3198" stroke="#333" stroke-miterlimit="4" stroke-width="4"/>
   <path d="m81.3159,107.84806l-35.09748,-56.52061" fill-rule="evenodd" id="path3186" stroke="#333" stroke-miterlimit="4" stroke-width="4.34045"/>
  </g>
 </g>
</svg>