<svg width="90%" height="90%"  viewBox="0 0 128 128" xmlns="http://www.w3.org/2000/svg">
 <g>
  <title>Oldwest stables</title>
  <rect transform="rotate(-43.65737533569336 52.767578124999986,75.291015625) " id="svg_7" height="32" width="104" y="60" x="0" fill="#6b4f36"/>
  <ellipse ry="40" rx="40" id="svg_4" cy="86" cx="64" fill="#593412"/>
  <ellipse id="svg_5" ry="32" rx="32" cy="86" cx="64" fill="#b2b2b2"/>
  <ellipse id="svg_6" ry="9.94336" rx="10.10156" cy="85.73242" cx="64.05859" fill="#6b4f36"/>
  <g id="svg_3">
   <path fill="#333" id="svg_1" d="m63.67522,53.40794c-0.0328,0 -0.06666,0.0005 -0.09999,0.00201c-9.00653,0.02031 -17.47245,3.38157 -23.84439,9.4704c-6.37325,6.08958 -9.89147,14.17726 -9.91325,22.78303c-0.00157,0.02984 -0.00236,0.05993 -0.00236,0.09002c-0.00236,8.63861 3.51848,16.7614 9.91325,22.8718c6.39294,6.10864 14.89008,9.47266 23.92653,9.47241c0.00604,0 0.01128,0 0.01732,0c9.03698,-0.00025 17.5357,-3.36477 23.92995,-9.47441c6.39504,-6.11065 9.91561,-14.23344 9.91325,-22.87104c0.00236,-8.63861 -3.51848,-16.7614 -9.91325,-22.8718c-6.39294,-6.10864 -14.88956,-9.47241 -23.92706,-9.47241zm-10.20088,30.46321l-19.65539,0c0.4241,-6.30273 2.98521,-12.21126 7.34978,-16.957l13.89913,13.28103c-0.78967,1.11064 -1.32976,2.35694 -1.59351,3.67597zm10.19248,8.03678c-1.72105,0 -3.33871,-0.64045 -4.55562,-1.80325c-1.21691,-1.16255 -1.88691,-2.70852 -1.88691,-4.35303c0,-1.64427 0.67026,-3.19024 1.88691,-4.35303c1.21691,-1.1628 2.83457,-1.803 4.55562,-1.803c1.72079,0 3.33871,0.64045 4.55562,1.803c1.21691,1.1628 1.88691,2.70877 1.88691,4.35303c0,1.64427 -0.67026,3.19024 -1.88691,4.35303s-2.83483,1.80325 -4.55562,1.80325zm5.81532,-14.37261c-1.16233,-0.75455 -2.46663,-1.27088 -3.84705,-1.52265l-0.00184,-18.78106c6.59632,0.40524 12.78089,2.8522 17.74801,7.02293l-13.89913,13.28078zm-7.78358,-1.52265c-1.38041,0.25177 -2.68472,0.76809 -3.84705,1.52265l-13.89913,-13.28103c4.96581,-4.16947 11.14827,-6.61594 17.74407,-7.02093l0.0021,18.77931zm-3.84705,17.95554c1.16233,0.75455 2.46663,1.27088 3.84705,1.52265l-0.00184,18.78332c-6.5958,-0.40549 -12.77957,-2.85245 -17.74643,-7.02293l13.90122,-13.28304zm7.78358,1.52265c1.38041,-0.25177 2.68472,-0.76809 3.84705,-1.52265l13.89913,13.28103c-4.96765,4.17173 -11.15116,6.6192 -17.74801,7.02494l0.00184,-18.78332zm6.63044,-4.18226c0.78967,-1.11064 1.33002,-2.35694 1.59351,-3.67597l19.65539,0c-0.4241,6.30273 -2.98521,12.21101 -7.35004,16.957l-13.89886,-13.28103zm1.59351,-7.43745c-0.26349,-1.31903 -0.80384,-2.56533 -1.59351,-3.67597l13.89913,-13.28103c4.36457,4.74573 6.92542,10.65376 7.34978,16.957l-19.65539,0zm-40.04219,3.76148l19.65749,0c0.26349,1.31903 0.80384,2.56533 1.59351,3.67597l-13.90122,13.28304c-4.36509,-4.74648 -6.92594,-10.65552 -7.34978,-16.959z"/>
   <path fill="#333" id="svg_2" d="m124.89126,29.90973c0.76867,-0.73449 0.76867,-1.92512 0,-2.65962c-0.76867,-0.73449 -2.01498,-0.73449 -2.78339,0l-20.82848,19.90223l-20.69175,-19.77159c-0.76867,-0.73449 -2.01498,-0.73449 -2.78339,0l-19.56092,18.69079c-8.85668,1.09559 -17.41472,4.8839 -24.20367,11.3707c-6.78869,6.4868 -10.75357,14.66425 -11.89989,23.12708l-19.56301,18.69304c-0.76867,0.73449 -0.76867,1.92512 0,2.65962l22.08345,21.10164c0.36898,0.35258 0.86971,0.55093 1.3917,0.55093s1.02271,-0.1981 1.3917,-0.55093l8.02109,-7.66439c7.96965,6.93867 18.08524,10.40977 28.20161,10.40977c10.72943,0 21.45911,-3.90241 29.62717,-11.70748c15.86976,-15.16403 16.32141,-39.56524 1.35811,-55.25712l30.23969,-28.89468zm-98.8391,89.12423l-19.30005,-18.44178l15.04098,-14.37211c0.11547,9.51002 3.74391,18.98719 10.88846,26.47956l-6.62939,6.33433zm64.45817,-7.63229c-14.8019,14.14341 -38.88564,14.14316 -53.68728,0c-14.80164,-14.14341 -14.80164,-37.15639 0,-51.2998c14.80164,-14.14316 38.88538,-14.14341 53.68728,0c14.80164,14.14366 14.80164,37.15664 0,51.2998zm1.35811,-55.25712c-7.84079,-6.82683 -17.75903,-10.29391 -27.71165,-10.40425l15.03888,-14.3701l19.30005,18.44178l-6.62729,6.33257z"/>
  </g>
 </g>
</svg>