<svg width="100%" height="100%"  viewBox="0 0 115 115" xmlns="http://www.w3.org/2000/svg">
 <g>
  <title>Oldwest stables</title>
  <g id="svg_8">
   <rect fill="#6b4f36" x="5.63789" y="35.7253" width="104" height="32" id="svg_7" transform="matrix(0.6414453128464012,-0.5930155891009065,0.612066124571216,0.6214803512285615,-20.678209174929034,59.36998133006806) "/>
   <ellipse fill="#593412" cx="57.96984" cy="65.63943" id="svg_4" rx="35.46439" ry="34.36057"/>
   <ellipse fill="#b2b2b2" cx="57.96984" cy="65.63943" rx="28.37152" ry="27.48845" id="svg_5"/>
   <ellipse fill="#6b4f36" cx="58.02179" cy="65.40958" rx="8.95614" ry="8.54149" id="svg_6"/>
   <g id="svg_3">
    <path d="m57.68189,37.64239c-0.02908,0 -0.0591,0.00043 -0.08865,0.00173c-7.98528,0.01745 -15.49125,2.90482 -21.14067,8.13521c-5.65059,5.23104 -8.76987,12.17847 -8.78919,19.57095c-0.00139,0.02563 -0.00209,0.05148 -0.00209,0.07733c-0.00209,7.42069 3.11952,14.39828 8.78919,19.6472c5.66804,5.24741 13.20169,8.13715 21.2135,8.13693c0.00536,0 0.01,0 0.01536,0c8.01228,-0.00021 15.54732,-2.89039 21.21653,-8.13865c5.66991,-5.24913 8.79128,-12.22673 8.78919,-19.64655c0.00209,-7.42069 -3.11952,-14.39828 -8.78919,-19.6472c-5.66804,-5.24741 -13.20123,-8.13693 -21.21397,-8.13693l0,-0.00001zm-9.0442,26.16833l-17.42666,0c0.37601,-5.41413 2.64672,-10.48965 6.51639,-14.5663l12.32311,11.40859c-0.70013,0.95406 -1.17898,2.02464 -1.41282,3.15771l-0.00001,0zm9.03675,6.90371c-1.5259,0 -2.96013,-0.55016 -4.03906,-1.54902c-1.07892,-0.99865 -1.67295,-2.32666 -1.67295,-3.73931c0,-1.41245 0.59426,-2.74046 1.67295,-3.73931c1.07892,-0.99886 2.51316,-1.5488 4.03906,-1.5488c1.52567,0 2.96013,0.55016 4.03906,1.5488c1.07892,0.99886 1.67295,2.32687 1.67295,3.73931c0,1.41245 -0.59426,2.74046 -1.67295,3.73931s-2.51339,1.54902 -4.03906,1.54902zm5.15592,-12.34628c-1.03053,-0.64817 -2.18694,-1.0917 -3.41083,-1.30798l-0.00163,-16.1332c5.84836,0.34811 11.33166,2.45008 15.73556,6.0328l-12.32311,11.40838l0.00001,0zm-6.901,-1.30798c-1.22389,0.21627 -2.3803,0.6598 -3.41083,1.30798l-12.32311,-11.40859c4.40274,-3.58163 9.88417,-5.68319 15.73207,-6.03108l0.00186,16.13169l0.00001,0zm-3.41083,15.42406c1.03053,0.64817 2.18694,1.0917 3.41083,1.30798l-0.00163,16.13514c-5.8479,-0.34832 -11.33049,-2.45029 -15.73416,-6.0328l12.32496,-11.41032zm6.901,1.30798c1.22389,-0.21627 2.3803,-0.6598 3.41083,-1.30798l12.32311,11.40859c-4.40437,3.58358 -9.88673,5.68599 -15.73556,6.03452l0.00163,-16.13514l-0.00001,0zm5.87861,-3.59262c0.70013,-0.95406 1.17921,-2.02464 1.41282,-3.15771l17.42666,0c-0.37601,5.41413 -2.64672,10.48943 -6.51662,14.5663l-12.32287,-11.40859zm1.41282,-6.38887c-0.23361,-1.13307 -0.71269,-2.20365 -1.41282,-3.15771l12.32311,-11.40859c3.86967,4.07665 6.14015,9.15173 6.51639,14.5663l-17.42666,0l-0.00001,0zm-35.5018,3.23116l17.42852,0c0.23361,1.13307 0.71269,2.20365 1.41282,3.15771l-12.32496,11.41032c-3.87013,-4.07729 -6.14061,-9.15324 -6.51639,-14.56802l0,-0.00001z" id="svg_1" fill="#333"/>
    <path d="m111.95663,17.4571c0.68151,-0.63094 0.68151,-1.65371 0,-2.28465c-0.68151,-0.63094 -1.7865,-0.63094 -2.46778,0l-18.46674,17.0963l-18.34551,-16.98408c-0.68151,-0.63094 -1.7865,-0.63094 -2.46778,0l-17.3429,16.05565c-7.85242,0.94113 -15.44006,4.19534 -21.45921,9.76759c-6.01892,5.57225 -9.53422,12.5968 -10.55056,19.86649l-17.34476,16.05759c-0.68151,0.63094 -0.68151,1.65371 0,2.28465l19.5794,18.12661c0.32714,0.30287 0.77109,0.47326 1.23389,0.47326s0.90674,-0.17017 1.23389,-0.47326l7.11158,-6.58382c7.06597,5.96042 16.03455,8.94214 25.00383,8.94214c9.51282,0 19.02586,-3.35223 26.26774,-10.05689c14.07029,-13.02612 14.47072,-33.9871 1.20411,-47.46665l26.81081,-24.82094l-0.00002,0.00001zm-87.63172,76.55897l-17.11161,-15.84175l13.33548,-12.34585c0.10238,8.16924 3.31939,16.31026 9.65382,22.74632l-5.87768,5.44128zm57.14925,-6.55625c-13.12351,12.14939 -34.47639,12.14917 -47.59967,0c-13.12328,-12.14939 -13.12328,-31.91786 0,-44.06725c13.12328,-12.14917 34.47616,-12.14939 47.59967,0c13.12328,12.1496 13.12328,31.91808 0,44.06725zm1.20411,-47.46665c-6.95172,-5.86434 -15.74533,-8.84261 -24.56942,-8.9374l13.33362,-12.34412l17.11161,15.84175l-5.87582,5.43977l0.00001,0z" id="svg_2" fill="#333"/>
   </g>
  </g>
 </g>
</svg>