<svg width="100%" height="100%"  viewBox="0 0 128 128" xmlns="http://www.w3.org/2000/svg">
 <g class="layer">
  <title>Loldwest_strip</title>
  <rect fill="#6b523a" height="10.841" id="svg_2" width="79.9958" x="22.8048" y="17.9261"/>
  <rect fill="#8c7560" height="87.7308" id="svg_1" width="79.9958" x="22.8048" y="25.5147"/>
  <rect fill="#000000" fill-opacity="0" height="88.6216" id="svg_6" stroke="#333333" stroke-width="5" width="80.8337" x="22.7705" y="19.0476"/>
  <g id="brown"/>
  <g id="yellow"/>
  <g fill="#333" id="svg_3"/>
  <ellipse cx="61.705" cy="17.0316" fill="#8c7560" id="svg_5" rx="26.9155" ry="16.1206"/>
  <rect fill="#c1b883" height="34.4636" id="svg_8" width="15.0364" x="76.4677" y="56.9537"/>
  <rect fill="#c1b883" height="52.1616" id="svg_4" width="26.116" x="34.2746" y="55.4413"/>
  <path d="m36.68685,19.99181c0,0.06477 0.03238,0.16194 0.03238,0.22671c0,0.09715 0.03238,0.16194 0.06479,0.25909c0.03238,0.09715 0.06475,0.19431 0.09713,0.29149c0.25911,0.84203 0.9716,1.97556 2.2023,3.07671c0.29149,0.25908 0.64773,0.55055 1.00397,0.80966c0.16193,0.12954 0.35624,0.25908 0.55055,0.42102c0.19434,0.12954 0.38866,0.25908 0.61536,0.38865c0.84204,0.51817 1.78125,1.03635 2.78522,1.52214c2.07274,0.9716 4.50173,1.87843 7.22219,2.55854c2.72047,0.68011 5.73238,1.06874 8.97103,1.23068c3.20626,0.16194 6.60685,0.0324 10.07222,-0.4534c1.74884,-0.25911 3.4977,-0.55058 5.24659,-1.004c1.74888,-0.42101 3.53013,-0.97158 5.27899,-1.68409c0.87441,-0.35624 1.71645,-0.74488 2.55849,-1.23068c0.84208,-0.4858 1.65174,-1.00397 2.42899,-1.61933c0.7449,-0.64773 1.48979,-1.36023 2.04035,-2.26705c0.12956,-0.22671 0.25912,-0.4534 0.38863,-0.68011c0.09718,-0.25909 0.22672,-0.4858 0.29148,-0.74488l0.0972,-0.38865c0.03237,-0.12955 0.06477,-0.29149 0.06477,-0.45342l0.03237,-0.22671l0,-0.16194l0,-0.35624c0,-0.12955 0,-0.06478 0,-0.09715l0,-0.06478l0,-0.09715l-0.03237,-0.19433c0,-0.12953 -0.03239,-0.2591 -0.06477,-0.38862l-0.0972,-0.38865l-0.12955,-0.38864c-0.09715,-0.25909 -0.22668,-0.4858 -0.35623,-0.71251c-0.12956,-0.22671 -0.2915,-0.42103 -0.42099,-0.64773c-0.61537,-0.80966 -1.36025,-1.42499 -2.13754,-1.97557c-0.77724,-0.55057 -1.5869,-1.00399 -2.42896,-1.42501c-0.84203,-0.42102 -1.68408,-0.77726 -2.52612,-1.06875c-1.71649,-0.61536 -3.43296,-1.13353 -5.14946,-1.58694c-1.71648,-0.4534 -3.43295,-0.84203 -5.14944,-1.13353c-1.71646,-0.32386 -3.40057,-0.55055 -5.08467,-0.71249c-0.42102,-0.0324 -0.84203,-0.06477 -1.26307,-0.09717c-0.42105,-0.03238 -0.80966,-0.06475 -1.2307,-0.06475c-0.84203,-0.0324 -1.61932,-0.06477 -2.42898,-0.0324c-3.20623,0.0324 -6.21819,0.38865 -8.93865,1.03637c-1.36021,0.32386 -2.65568,0.71251 -3.85399,1.13353c-1.19828,0.42102 -2.33181,0.90682 -3.36816,1.39262c-1.03639,0.4858 -1.97561,1.00399 -2.78526,1.52217c-0.19432,0.12955 -0.42101,0.25909 -0.61531,0.38864c-0.19435,0.12954 -0.38867,0.25909 -0.5506,0.38865c-0.35624,0.25909 -0.71248,0.55055 -1.00397,0.80966c-1.2307,1.06875 -1.94319,2.20228 -2.2023,3.0443c-0.03238,0.09716 -0.06475,0.19435 -0.09713,0.29148c-0.03238,0.09715 -0.03238,0.19431 -0.0648,0.25909c0,0.09715 -0.03238,0.16194 -0.03238,0.22671c0,0.06477 0,0.12954 0,0.19431c0,0.22671 -0.03238,0.32386 -0.03238,0.32386l0,0c0,0 0,0.12956 0.03238,0.35627c-0.03238,0.06475 -0.03238,0.12952 -0.03238,0.19431l-0.00001,0.00001l-0.00001,0z" id="svg_32" stroke="#333333" stroke-width="3"/>
  <path d="m23.03908,107.13229c0,-0.26855 -16.91869,19.06709 -17.05297,18.93282c-0.13427,-0.13428 116.14815,-0.67138 116.01387,-0.80566c-0.13426,-0.13427 -18.93281,-18.12716 -19.06709,-18.26144c-0.13428,-0.13428 -79.89382,0.40282 -79.89382,0.13428z" fill="#6b523a" id="svg_7" stroke="#333333" stroke-width="5"/>
  <rect fill="#000000" fill-opacity="0" height="52.0989" id="svg_9" stroke="#333333" stroke-width="4" width="25.5122" x="35.3924" y="55.302"/>
  <rect fill="#000000" fill-opacity="0" height="37.06" id="svg_10" stroke="#333333" stroke-width="4" width="16.113" x="74.0636" y="52.885"/>
  <rect fill="#000000" fill-opacity="0" height="52.6359" id="svg_12" stroke="#333333" stroke-width="3" width="12.6219" x="47.7457" y="54.7649"/>
  <rect fill="#333333" height="15.8445" id="svg_15" stroke="#333333" stroke-width="3" width="25.7809" x="35.661" y="73.832"/>
  <text fill="#007fff" font-family="serif" font-size="24" font-weight="bold" id="svg_3" style="cursor: move; pointer-events: inherit;" text-anchor="middle" x="63" xml:space="preserve" y="28">B</text>
 </g>
</svg>
