 <svg width="100%" height="100%"  viewBox="0 0 128 128" xmlns="http://www.w3.org/2000/svg">
     <g>
         <title>palisade</title>
         <g id="svg_1">
             <path d="m76.30256,38.71704l-9.96894,-11.64874c-0.53334,-0.62335 -1.40384,-0.99422 -2.33362,-0.99422s-1.80028,0.37087 -2.33362,0.99422l-9.96894,11.64874c-0.33449,0.3914 -0.51465,0.85778 -0.51465,1.33553l0,58.24372c0,1.2866 1.27531,2.32975 2.84827,2.32975l19.93787,0c1.57296,0 2.84827,-1.04315 2.84827,-2.32975l0,-58.24372c0,-0.47774 -0.18015,-0.94413 -0.51465,-1.33553z" fill="#AF6328" id="svg_2"/>
             <path d="m44.97161,38.71704l-9.96894,-11.64874c-0.53334,-0.62335 -1.40384,-0.99422 -2.33362,-0.99422s-1.80028,0.37087 -2.33362,0.99422l-9.96894,11.64874c-0.33449,0.3914 -0.51465,0.85778 -0.51465,1.33553l0,58.24372c0,1.2866 1.27531,2.32975 2.84827,2.32975l19.93787,0c1.57296,0 2.84827,-1.04315 2.84827,-2.32975l0,-58.24372c0,-0.47774 -0.18015,-0.94413 -0.51465,-1.33553z" fill="#AF6328" id="svg_3"/>
             <path d="m107.6335,38.71704l-9.96894,-11.64874c-0.53334,-0.62335 -1.40384,-0.99422 -2.33362,-0.99422s-1.80028,0.37087 -2.33362,0.99422l-9.96894,11.64874c-0.33449,0.3914 -0.51465,0.85778 -0.51465,1.33553l0,58.24372c0,1.2866 1.27531,2.32975 2.84827,2.32975l19.93787,0c1.57296,0 2.84827,-1.04315 2.84827,-2.32975l0,-58.24372c0,-0.47774 -0.18015,-0.94413 -0.51465,-1.33553z" fill="#AF6328" id="svg_12"/>
             <g id="svg_13">
                 <path d="m98.17921,84.3178c0,1.28777 -1.27531,2.32975 -2.84827,2.32975c-1.57296,0 -2.84827,-1.04198 -2.84827,-2.32975c0,-1.28762 1.27531,-2.32975 2.84827,-2.32975c1.57296,0 2.84827,1.04213 2.84827,2.32975z" fill="#E2E4E6" id="svg_14"/>
             </g>
             <g id="svg_17">
                 <path d="m98.17921,51.70132c0,1.28777 -1.27531,2.32975 -2.84827,2.32975c-1.57296,0 -2.84827,-1.04198 -2.84827,-2.32975c0,-1.28762 1.27531,-2.32975 2.84827,-2.32975c1.57296,0 2.84827,1.04213 2.84827,2.32975z" fill="#E2E4E6" id="svg_18"/>
             </g>
             <g id="svg_19">
                 <path d="m66.84827,84.3178c0,1.28777 -1.27531,2.32975 -2.84827,2.32975c-1.57296,0 -2.84827,-1.04198 -2.84827,-2.32975c0,-1.28762 1.27531,-2.32975 2.84827,-2.32975c1.57296,0 2.84827,1.04213 2.84827,2.32975z" fill="#E2E4E6" id="svg_20"/>
             </g>
             <g id="svg_23">
                 <path d="m66.84827,51.70132c0,1.28777 -1.27531,2.32975 -2.84827,2.32975c-1.57296,0 -2.84827,-1.04198 -2.84827,-2.32975c0,-1.28762 1.27531,-2.32975 2.84827,-2.32975c1.57296,0 2.84827,1.04213 2.84827,2.32975z" fill="#E2E4E6" id="svg_24"/>
             </g>
             <g id="svg_25">
                 <path d="m35.51732,84.3178c0,1.28777 -1.27531,2.32975 -2.84827,2.32975c-1.57296,0 -2.84827,-1.04198 -2.84827,-2.32975c0,-1.28762 1.27531,-2.32975 2.84827,-2.32975c1.57296,0 2.84827,1.04213 2.84827,2.32975z" fill="#E2E4E6" id="svg_26"/>
             </g>
             <g id="svg_29">
                 <path d="m35.51732,51.70132c0,1.28777 -1.27531,2.32975 -2.84827,2.32975c-1.57296,0 -2.84827,-1.04198 -2.84827,-2.32975c0,-1.28762 1.27531,-2.32975 2.84827,-2.32975c1.57296,0 2.84827,1.04213 2.84827,2.32975z" fill="#E2E4E6" id="svg_30"/>
             </g>
             <rect x="76.65931" y="48.20669" width="6.17084" height="8.15412" fill="#A25425" id="svg_34"/>
             <rect x="45.32836" y="48.20669" width="5.85443" height="8.15412" fill="#A25425" id="svg_52"/>
             <rect x="45.01196" y="79.6583" width="6.17084" height="8.15412" fill="#A25425" id="svg_54"/>
             <rect x="76.65931" y="79.6583" width="6.17084" height="8.15412" fill="#A25425" id="svg_56"/>
         </g>
     </g>
 </svg>