<svg width="100%" height="100%"  viewBox="0 0 128 128" xmlns="http://www.w3.org/2000/svg">
 <g>
  <title>Parking</title>
  <rect id="svg_21" height="118" width="114" y="8" x="6" fill="#ccc"/>
  <g id="svg_1" fill="#4c4c4c">
    <path d="m62.33528,41.71253c-3.26774,0 -5.42288,0.31187 -6.6644,0.62652l0,20.82842c1.41808,0.31465 3.08278,0.41768 5.40046,0.41768c8.53368,0 13.79963,-4.29377 13.79963,-11.51132c0.0028,-6.49078 -4.53168,-10.3613 -12.53569,-10.3613z" id="svg_3"/>
    <path d="m111.19167,0l-95.43153,0c-8.42719,0 -15.25414,6.78594 -15.25414,15.1563l0,97.64019c0,8.37035 6.82975,15.15351 15.25414,15.15351l95.43153,0c8.42719,0 15.25133,-6.78594 15.25133,-15.15351l0,-97.64019c0.0028,-8.37314 -6.82414,-15.1563 -15.25133,-15.1563zm5.85447,110.36557c0,4.55831 -3.71615,8.24505 -8.29827,8.24505l-90.71769,0c-4.58493,0 -8.30107,-3.69231 -8.30107,-8.24505l0,-92.60294c0,-4.55274 3.71615,-8.24505 8.30107,-8.24505l90.71489,0c4.58493,0 8.29827,3.69231 8.29827,8.24505l0.0028,92.60294l0,0z" id="svg_4"/>
    <path d="m108.74507,15.33451l-90.71489,0c-1.35082,0 -2.44941,1.08597 -2.44941,2.43091l0,92.60294c0,1.33658 1.09579,2.43091 2.44941,2.43091l90.71489,0c1.34801,0 2.4466,-1.09154 2.4466,-2.43091l0,-92.60572c0,-1.34215 -1.09579,-2.42813 -2.4466,-2.42813zm-24.47444,53.07071c-5.47333,5.12635 -13.61186,7.42917 -23.0956,7.42917c-2.1047,0 -3.90672,-0.10581 -5.50416,-0.31465l0,25.28927l-15.78662,0l0,-69.6694c4.96607,-0.83815 11.87149,-1.46746 21.66911,-1.46746c9.90412,0 16.94406,1.88514 21.68873,5.65542c4.52608,3.55587 7.57522,9.42013 7.57522,16.32581c0,6.91403 -2.32609,12.77829 -6.5467,16.75184z" id="svg_5"/>
   </g>
  </g>
</svg>