<svg width="100%" height="100%"  viewBox="0 0 128 128" xmlns="http://www.w3.org/2000/svg">
 <g>
  <title>QuietPinesSpecial</title>
  <polygon points="104.21930694580078,91.56056671184524 104.21930694580078,118.09126239331636 87.81396484375,118.09126239331636 87.81396484375,84.36023489103718 " fill="#A18E84" id="svg_1"/>
  <polygon points="65.49637603759766,63.95945287509812 81.43282318115234,63.95945287509812 60.574676513671875,90.11248178861297 131.4583282470703,90.11248178861297 110.60017395019531,63.95945287509812 126.53663635253906,63.95945287509812 106.4382095336914,38.758171124749424 121.43244171142578,38.758171124749424 96.01649475097656,6.8900211571835825 70.600830078125,38.758171124749424 " fill="#4BAA62" id="svg_2"/>
  <polygon points="38.870140075683594,84.36023489103718 38.870140075683594,118.09126239331636 22.46451187133789,118.09126239331636 22.46451187133789,91.56056671184524 " fill="#A18E84" id="svg_3"/>
  <polygon points="56.08299255371094,38.758171124749424 30.667322158813477,6.8900211571835825 5.251659393310547,38.758171124749424 20.245891571044922,38.758171124749424 0.14719291031360626,63.95945287509812 16.0833740234375,63.95945287509812 -4.774496078491211,90.11248178861297 66.10887145996094,90.11248178861297 45.25100326538086,63.95945287509812 61.18718338012695,63.95945287509812 " fill="#4BAA62" id="svg_4"/>
  <polygon points="99.60401153564453,90.11248178861297 78.7458724975586,63.95945287509812 94.68232727050781,63.95945287509812 74.58390808105469,38.758171124749424 89.5778579711914,38.758171124749424 64.16219329833984,6.8900211571835825 38.746803283691406,38.758171124749424 53.740760803222656,38.758171124749424 33.642059326171875,63.95945287509812 49.578521728515625,63.95945287509812 28.720375061035156,90.11248178861297 " fill="#679167" id="svg_5"/>
  <rect x="55.95882" y="90.11031" width="16.4059" height="27.97986" fill="#A18E84" id="svg_6"/>
  <path d="m2.14026,107.99937c10.23338,0 10.23338,4.08986 20.46648,4.08986c10.23282,0 10.23282,-4.08986 20.46564,-4.08986c10.23338,0 10.23338,4.08986 20.46676,4.08986c10.23366,0 10.23366,-4.08986 20.46731,-4.08986c10.23421,0 10.23421,4.08986 20.46814,4.08986s10.23421,-4.08986 20.46814,-4.08986l0,15.48272l-122.80248,0l0,-15.48272z" fill="#939393" id="svg_7"/>
  <path d="m134.48094,88.31924l-17.09757,-21.43869l9.81171,0c1.14389,0 2.18834,-0.63559 2.69057,-1.63773c0.5025,-1.00269 0.37583,-2.19637 -0.32639,-3.07687l-16.33868,-20.4864l8.87004,0c1.14389,0 2.18834,-0.63559 2.69057,-1.63773c0.5025,-1.00269 0.37583,-2.19637 -0.32639,-3.07687l-25.41539,-31.86842c-0.5675,-0.71172 -1.44001,-1.12758 -2.36445,-1.12758s-1.79667,0.41641 -2.36445,1.12758l-13.56284,17.00639l-13.56284,-17.00639c-0.5675,-0.71172 -1.44001,-1.12758 -2.36445,-1.12758s-1.79667,0.41641 -2.36418,1.12758l-14.3834,18.03509l-14.38312,-18.03509c-0.5675,-0.71172 -1.44001,-1.12758 -2.36445,-1.12758c-0.92445,0 -1.79667,0.41641 -2.36418,1.12758l-25.41511,31.86788c-0.7025,0.88077 -0.82917,2.07473 -0.32639,3.07687s1.54667,1.63773 2.69057,1.63773l8.87004,0l-16.3384,20.4864c-0.7025,0.88077 -0.82917,2.07473 -0.32639,3.07687c0.5025,1.00242 1.54667,1.63773 2.69057,1.63773l9.81199,0l-17.09785,21.43924c-0.7025,0.88077 -0.82917,2.07473 -0.32639,3.07687s1.54667,1.63773 2.69057,1.63773l24.24372,0l0,15.96767c-2.53112,-0.2926 -4.15696,-0.93983 -5.96003,-1.66049c-2.6539,-1.06094 -5.66252,-2.26302 -11.36894,-2.26302c-1.65417,0 -2.99529,1.30802 -2.99529,2.92136l0,15.48272c0,1.61308 1.34084,2.92136 2.99529,2.92136l122.80248,0c1.6539,0 2.99529,-1.30802 2.99529,-2.92136l0,-15.48272c0,-1.61308 -1.34112,-2.92136 -2.99529,-2.92136c-5.70697,0 -8.71559,1.20209 -11.37005,2.26302c-1.89529,0.7575 -3.59613,1.43318 -6.35836,1.70194l0,-16.00939l24.24372,0c1.14389,0 2.18834,-0.63559 2.69057,-1.63773c0.50278,-1.00187 0.37611,-2.19583 -0.32639,-3.0766zm-69.66003,-76.67153l19.29092,24.18911l-8.86976,0c-1.14389,0 -2.18834,0.63559 -2.69057,1.63773c-0.5025,1.00269 -0.37583,2.19637 0.32639,3.07687l16.3384,20.4864l-9.81199,0c-1.14389,0 -2.18834,0.63559 -2.69057,1.63773c-0.5025,1.00269 -0.37583,2.19637 0.32639,3.07687l17.09785,21.43869l-58.63498,0l17.09757,-21.43869c0.7025,-0.88077 0.82917,-2.07473 0.32639,-3.07687c-0.5025,-1.00242 -1.54667,-1.63773 -2.69057,-1.63773l-9.81199,0l16.3384,-20.4864c0.7025,-0.88077 0.82917,-2.07473 0.32639,-3.07687c-0.5025,-1.00242 -1.54667,-1.63773 -2.69057,-1.63773l-8.86976,0l19.29203,-24.18911zm19.84425,93.43057c-3.88779,0 -6.52197,0.55837 -8.64615,1.2495l0,-13.29366l9.4581,0l0,12.05473c-0.26639,-0.00542 -0.53334,-0.01057 -0.81195,-0.01057zm-31.04236,-12.04416l0,13.73039c-2.3439,-0.87671 -5.20891,-1.68623 -9.89171,-1.68623c-0.41806,0 -0.8175,0.00813 -1.20723,0.02086l0,-12.06475l11.09894,0l0,-0.00027zm5.9903,0l10.41532,0l0,15.45996c-1.50806,0.4072 -3.29001,0.67406 -5.83058,0.67406c-1.8789,0 -3.33974,-0.14711 -4.58474,-0.38796l0,-15.74606l0,0zm-40.50712,-27.28142c0.7025,-0.88077 0.82917,-2.07473 0.32639,-3.07687c-0.5025,-1.00242 -1.54667,-1.63773 -2.69057,-1.63773l-9.81171,0l16.3384,-20.4864c0.7025,-0.88077 0.82917,-2.07473 0.32639,-3.07687c-0.5025,-1.00242 -1.54667,-1.63773 -2.69057,-1.63773l-8.87004,0l19.29147,-24.18911l12.95283,16.24157l-7.23781,9.07511c-0.7025,0.88077 -0.82917,2.07473 -0.32639,3.07687c0.5025,1.00242 1.54667,1.63773 2.69057,1.63773l8.86976,0l-16.3384,20.4864c-0.7025,0.88077 -0.82917,2.07473 -0.32639,3.07687c0.5025,1.00242 1.54667,1.63773 2.69057,1.63773l9.81199,0l-16.1984,20.31084l-25.90567,0l17.09757,-21.43842zm17.42758,27.28142l0,12.87264c-1.62251,0.41912 -2.93696,0.94146 -4.17113,1.43481c-1.86945,0.74721 -3.54807,1.4153 -6.24447,1.69137l0,-15.99883l10.4156,0zm79.96924,19.71346c1.83779,-0.73474 3.48779,-1.39363 6.10364,-1.67837l0,9.49152l-116.81218,0l0,-9.49125c2.61501,0.28447 4.26474,0.94363 6.10225,1.6781c2.6539,1.06094 5.66252,2.26302 11.36922,2.26302c5.70614,0 8.71448,-1.20209 11.36838,-2.26302c2.45251,-0.9802 4.57058,-1.82656 9.09726,-1.82656c4.52696,0 6.64503,0.84636 9.09782,1.82656c2.6539,1.06094 5.66252,2.26302 11.36922,2.26302s8.71504,-1.20209 11.36949,-2.26302c2.45251,-0.9802 4.57085,-1.82656 9.09782,-1.82656c4.52696,0 6.64558,0.84636 9.0981,1.82656c2.65446,1.06094 5.66308,2.26302 11.37005,2.26302c5.70586,0 8.71448,-1.20209 11.36894,-2.26302zm-14.62034,-3.75987c-2.46696,-0.29883 -4.07224,-0.93685 -5.84808,-1.64667c-1.33334,-0.53291 -2.75723,-1.1013 -4.56696,-1.53505l0,-12.77186l10.41505,0l0,15.95358l0,0zm-0.155,-21.79604l-16.1984,-20.31084l9.81199,0c1.14389,0 2.18834,-0.63559 2.69057,-1.63773c0.5025,-1.00269 0.37583,-2.19637 -0.32639,-3.07687l-16.3384,-20.48667l8.86976,0c1.14389,0 2.18834,-0.63559 2.69057,-1.63773c0.5025,-1.00269 0.37583,-2.19637 -0.32639,-3.07687l-8.05781,-10.10381l12.13255,-15.21315l19.29147,24.18911l-8.87004,0c-1.14389,0 -2.18834,0.63559 -2.69057,1.63773c-0.5025,1.00269 -0.37583,2.19637 0.32639,3.07687l16.33868,20.4864l-9.81254,0c-1.14389,0 -2.18834,0.63559 -2.69057,1.63773c-0.5025,1.00269 -0.37583,2.19637 0.32639,3.07687l17.09757,21.43869l-24.26483,0l0,0.00027z" fill="#231F20" id="svg_8"/>
 </g>
</svg>