<svg width="100%" height="100%"  viewBox="0 0 192 192" xmlns="http://www.w3.org/2000/svg">
 <g>
  <title>Plant</title>
  <rect id="svg_18" height="31.58695" width="154.97347" y="183.23647" x="9.4732" fill="#aad4ff"/>
  <rect id="svg_17" height="31.58695" width="154.97347" y="146.71406" x="6.63433" fill="#ffd4aa"/>
  <path fill="#3f3f3f" id="svg_1" d="m183.30901,67.53658l0,133.33739l-13.06416,0l0,-62.23715l-9.61625,0l0,-12.69894l-5.58398,0l-4.19119,-89.30321l-25.09188,0l-4.19119,89.30321l-6.80797,0l0,12.69894l-6.20585,0l0,-12.69894l-5.58497,0l-4.19119,-89.30321l-25.09188,0l-4.19021,89.30321l-6.80896,0l0,12.69894l-6.20585,0l0,-12.69894l-5.58398,0l-4.19119,-89.30321l-25.09188,0l-4.19119,89.30321l-6.80896,0l0,12.69894l-9.61625,0l0,83.57117l229.41601,0l0,-121.96905l-47.107,-32.70236zm-25.64367,138.5907l-144.08485,0l0,-17.52089l144.08485,0l0,17.52089zm0,-33.88983l-144.08485,0l0,-17.52089l144.08485,0l0,17.52089z"/>
 </g>
</svg>