<svg width="100%" height="100%" viewBox="0 0 128 128" xmlns="http://www.w3.org/2000/svg">
 <g>
  <title>Polarstation</title>
        <g id="svg_4">
            <path id="svg_2" fill="#EAFFFF" d="m244.28545,216.99352l0,32.63104l-160.18742,0l-74.75386,0c-2.94894,0 -5.3396,-2.39066 -5.3396,-5.3396l0,-10.67919l80.09346,0l117.28537,-45.89408c3.65137,-1.42865 7.53756,-2.1618 11.45841,-2.1618l0,0c17.3657,0 31.44363,14.07793 31.44363,31.44363z"/>
            <path id="svg_3" fill="#dF8950" d="m78.75844,100.11683l0,0c0,-3.05049 2.27127,-5.62344 5.29848,-6.00191l37.4183,-4.67729l0,21.35839l-37.4183,-4.67729c-3.02671,-0.37797 -5.29848,-2.95142 -5.29848,-6.00191z"/>
            <path id="svg_5" fill="#dF8950" d="m164.19199,158.85239l0,69.41427c0,2.94894 -2.39066,5.3396 -5.3396,5.3396l-149.50822,0c-2.94894,0 -5.3396,-2.39066 -5.3396,-5.3396l0,-69.41427c0,-2.94894 2.39066,-5.3396 5.3396,-5.3396l149.50822,0c2.94894,0 5.3396,2.39016 5.3396,5.3396z"/>
            <g id="svg_6">
                <path id="svg_7" fill="#dF8950" d="m52.06095,52.06095l0,10.67919c0,2.94894 -2.39066,5.3396 -5.3396,5.3396l-37.37718,0c-2.94894,0 -5.3396,-2.39066 -5.3396,-5.3396l0,-10.67919c0,-2.94894 2.39066,-5.3396 5.3396,-5.3396l37.37718,0c2.94894,0 5.3396,2.39066 5.3396,5.3396z"/>
                <path id="svg_8" fill="#dF8950" d="m164.19199,185.54988l0,42.71678c0,2.94894 -2.39066,5.3396 -5.3396,5.3396l-149.50822,0c-2.94894,0 -5.3396,-2.39066 -5.3396,-5.3396l0,-42.71678l160.18742,0z"/>
            </g>
            <path id="svg_9" fill="#A03D07" d="m52.06095,174.87069l0,21.35839c0,2.94894 -2.39066,5.3396 -5.3396,5.3396l-21.35839,0c-2.94894,0 -5.3396,-2.39066 -5.3396,-5.3396l0,-21.35839c0,-2.94894 2.39066,-5.3396 5.3396,-5.3396l21.35839,0c2.94894,0.0005 5.3396,2.39066 5.3396,5.3396zm42.71628,-5.3391l-21.35839,0c-2.94894,0 -5.3396,2.39066 -5.3396,5.3396l0,21.35839c0,2.94894 2.39066,5.3396 5.3396,5.3396l21.35839,0c2.94894,0 5.3396,-2.39066 5.3396,-5.3396l0,-21.35888c0,-2.94894 -2.39016,-5.3391 -5.3396,-5.3391zm48.05637,0l-21.35839,0c-2.94894,0 -5.3396,2.39066 -5.3396,5.3396l0,21.35839c0,2.94894 2.39066,5.3396 5.3396,5.3396l21.35839,0c2.94894,0 5.3396,-2.39066 5.3396,-5.3396l0,-21.35888c0,-2.94894 -2.39066,-5.3391 -5.3396,-5.3391z"/>
            <path id="svg_10" d="m104.1214,174.87069l0,21.35839c0,5.15235 -4.19232,9.34417 -9.34417,9.34417l-21.35839,0c-5.15235,0 -9.34417,-4.19232 -9.34417,-9.34417l0,-21.35839c0,-5.15235 4.19232,-9.34417 9.34417,-9.34417l21.35839,0c5.15235,0 9.34417,4.19232 9.34417,9.34417zm-8.00915,0c0,-0.73612 -0.5989,-1.33502 -1.33502,-1.33502l-21.35839,0c-0.73562,0 -1.33502,0.59841 -1.33502,1.33502l0,21.35839c0,0.73612 0.5989,1.33502 1.33502,1.33502l21.35839,0c0.73562,0 1.33502,-0.59841 1.33502,-1.33502l0,-21.35839zm77.06774,74.75436c0,2.21232 -1.79324,4.00457 -4.00457,4.00457l-165.17084,0c-2.21133,0 -4.00457,-1.79225 -4.00457,-4.00457s1.79324,-4.00457 4.00457,-4.00457l6.67462,0l0,-8.00915l-1.33502,0c-5.15185,-0.0005 -9.34417,-4.19232 -9.34417,-9.34467l0,-69.41427c0,-5.15235 4.19232,-9.34417 9.34417,-9.34417l108.12647,0l0,-35.17674l-33.91008,-4.23839c-5.02008,-0.62763 -8.80669,-4.91556 -8.80669,-9.97577s3.78612,-9.34863 8.80669,-9.97577l33.91008,-4.23839l0,-1.80414c0,-2.21232 1.79324,-4.00457 4.00457,-4.00457c2.21183,0 4.00457,1.79225 4.00457,4.00457l0,5.28659c0.0005,0.03864 0.0005,0.07728 0,0.11592l0,21.23207c0.0005,0.03864 0.0005,0.07728 0,0.11592l0,38.6592l13.34875,0l0,-86.76858c0,-2.21232 1.79324,-4.00457 4.00457,-4.00457s4.00457,1.79225 4.00457,4.00457l0,86.76808l12.01422,0c5.15235,0 9.34417,4.19232 9.34417,9.34417l0,69.41427c0,5.15235 -4.19232,9.34417 -9.34417,9.34417l-1.33502,0l0,8.00915l11.65805,0c2.21183,0.0005 4.00507,1.79275 4.00507,4.00507zm-55.70935,-143.36563l0,-12.28518l-32.91686,4.11455c-1.02096,0.12731 -1.79027,0.99916 -1.79027,2.02805s0.76931,1.90074 1.79027,2.02805l32.91686,4.11455zm-37.37718,131.35141l-61.40512,0l0,8.00915l61.40512,0l0,-8.00915zm69.41476,0l-61.40512,0l0,8.00915l61.40512,0l0,-8.00915zm4.00457,-8.00915l5.3396,0c0.73562,0 1.33502,-0.59841 1.33502,-1.33502l0,-69.41427c0,-0.73612 -0.5989,-1.33502 -1.33502,-1.33502l-149.50822,0c-0.73562,0 -1.33502,0.59841 -1.33502,1.33502l0,69.41427c0,0.73612 0.5989,1.33502 1.33502,1.33502l144.16863,0zm96.11225,16.01879l-1.33502,0l0,-28.62597c0,-19.54632 -15.90238,-35.4487 -35.4487,-35.4487c-4.43802,0 -8.78391,0.82033 -12.91728,2.43673l-23.9789,9.38331c-2.05925,0.80646 -3.07625,3.12876 -2.26979,5.189c0.80646,2.05925 3.12876,3.07724 5.18851,2.26979l23.9789,-9.38331c3.1996,-1.2523 6.56316,-1.88637 9.99905,-1.88637c15.1301,0 27.43955,12.30946 27.43955,27.43955l0,28.62597l-56.15518,0c-2.21183,0 -4.00457,1.79225 -4.00457,4.00457s1.79324,4.00457 4.00457,4.00457l65.49886,0c2.21183,0 4.00457,-1.79225 4.00457,-4.00457s-1.79324,-4.00457 -4.00457,-4.00457zm-249.62505,-182.88033l0,-10.67919c0,-5.15235 4.19232,-9.34417 9.34417,-9.34417l1.33502,0l0,-38.7122c0,-2.21232 1.79324,-4.00457 4.00457,-4.00457s4.00457,1.79225 4.00457,4.00457l0,38.71171l28.03251,0c5.15235,0 9.34417,4.19232 9.34417,9.34417l0,10.67919c0,5.15235 -4.19232,9.34417 -9.34417,9.34417l-1.33502,0l0,11.9409c0.0005,0.04607 0.0005,0.09214 0,0.1387l0,26.55879c0.0005,0.04607 0.0005,0.09214 0,0.1387l0,29.83616c0,2.21232 -1.79324,4.00457 -4.00457,4.00457s-4.00457,-1.79225 -4.00457,-4.00457l0,-22.82865l-18.68834,11.2132l0,11.61594c0,2.21232 -1.79324,4.00457 -4.00457,4.00457s-4.00457,-1.79225 -4.00457,-4.00457l0,-13.80993c-0.0005,-0.04656 -0.0005,-0.09214 0,-0.1387l0,-26.55879c-0.0005,-0.04656 -0.0005,-0.09214 0,-0.1387l0,-27.96712l-1.33502,0c-5.15185,0 -9.34417,-4.19232 -9.34417,-9.34417zm37.37718,28.43079l-18.68834,11.2132l0,17.35778l18.68834,-11.2132l0,-17.35778zm0,-19.08662l-18.68884,0l0,20.96011l18.68834,-11.2132l0,-9.74691l0.0005,0zm-29.36803,-9.34417c0,0.73612 0.5989,1.33502 1.33502,1.33502l37.37718,0c0.73562,0 1.33502,-0.59841 1.33502,-1.33502l0,-10.67919c0,-0.73612 -0.5989,-1.33502 -1.33502,-1.33502l-37.37718,0c-0.73562,0 -1.33502,0.59841 -1.33502,1.33502l0,10.67919zm144.16863,112.13055l0,21.35839c0,5.15235 -4.19232,9.34417 -9.34417,9.34417l-21.35839,0c-5.15235,0 -9.34417,-4.19232 -9.34417,-9.34417l0,-21.35839c0,-5.15235 4.19232,-9.34417 9.34417,-9.34417l21.35839,0c5.15185,0 9.34417,4.19232 9.34417,9.34417zm-8.00915,0c0,-0.73612 -0.5989,-1.33502 -1.33502,-1.33502l-21.35839,0c-0.73562,0 -1.33502,0.59841 -1.33502,1.33502l0,21.35839c0,0.73612 0.5989,1.33502 1.33502,1.33502l21.35839,0c0.73562,0 1.33502,-0.59841 1.33502,-1.33502l0,-21.35839zm-88.1031,0l0,21.35839c0,5.15235 -4.19232,9.34417 -9.34417,9.34417l-21.35839,0c-5.15235,0 -9.34417,-4.19232 -9.34417,-9.34417l0,-21.35839c0,-5.15235 4.19232,-9.34417 9.34417,-9.34417l21.35839,0c5.15185,0 9.34417,4.19232 9.34417,9.34417zm-8.00915,0c0,-0.73612 -0.5989,-1.33502 -1.33502,-1.33502l-21.35839,0c-0.73562,0 -1.33502,0.59841 -1.33502,1.33502l0,21.35839c0,0.73612 0.5989,1.33502 1.33502,1.33502l21.35839,0c0.73562,0 1.33502,-0.59841 1.33502,-1.33502l0,-21.35839z"/>
        </g>
    </g>
</svg>
