<svg width="90%" height="90%"  viewBox="0 0 128 128" xmlns="http://www.w3.org/2000/svg">
 <!-- Created with Method Draw - http://github.com/duopixel/Method-Draw/ -->
 <g>
  <title>police</title>
  <ellipse stroke="#999" ry="63.385249" rx="63.180331" id="svg_6" cy="64.122946" cx="63.540987" stroke-width="4" fill="#efeae6"/>
  <path id="svg_16" d="m-155.126651,40.380644c-0.085156,-0.078934 -0.146193,-0.329747 -0.132322,-0.543735c0.008747,-0.134936 0.193282,-0.954091 0.209398,-0.929521c0.00526,0.008019 0.052067,0.198999 0.104016,0.424399c0.083217,0.361067 0.094452,0.428395 0.094452,0.565983c0,0.278886 -0.090479,0.507325 -0.199117,0.502728c-0.031702,-0.001342 -0.066095,-0.010276 -0.076428,-0.019854l0,0zm0.085317,-0.140269c0.002819,-0.036106 -0.003766,-0.053714 -0.020085,-0.053714c-0.037195,0 -0.08879,-0.116208 -0.100317,-0.225944c-0.012296,-0.117059 -0.044899,-0.130981 -0.049715,-0.021229c-0.009278,0.211453 0.154486,0.501104 0.170117,0.300888l0,0z" fill-opacity="null" stroke-opacity="null" stroke-width="1.5" stroke="#000" fill="#00aeff"/>
  <path stroke="#555" id="svg_18" d="m90.897268,16.876112c-8.388561,6.769341 -19.983119,6.835049 -28.435394,0.201821c-8.129257,6.382002 -19.169788,6.564691 -27.46568,0.547832l-14.91713,15.993895c9.176125,10.016452 9.122792,26.109551 -0.156805,36.05733c-1.231572,3.396367 -1.877047,3.232588 -2.011404,6.652868c-0.315977,8.23461 1.534408,15.91645 7.330405,21.702007c5.177531,5.168121 12.203659,7.360027 18.952807,6.577957c11.270248,0.624305 16.673289,5.857552 18.940425,8.987598c3.061343,-3.344426 7.822013,-8.720972 22.291107,-9.39122c8.63744,-1.336649 11.758824,-3.496002 15.812562,-7.488262c5.456221,-5.446305 7.364066,-12.342947 7.203268,-20.005782c-0.066773,-3.181234 -0.42986,-4.287239 -2.222646,-8.349122c-9.322633,-9.993902 -9.329415,-26.191368 -0.024746,-36.197357l-15.296767,-15.289565z" stroke-opacity="null" stroke-width="4" fill="#4c93ce"/>
 </g>
</svg>