<svg width="100%" height="100%" viewBox="0 0 256 256" xmlns="http://www.w3.org/2000/svg">
 <g>
  <title>pool</title>
     <g id="svg_1">
         <path d="m85.6437,20.783c-28.28512,0 -51.29699,23.01187 -51.29699,51.29699l0,155.80082l16.94126,0.00678l0,-155.8076c0,-18.94371 15.41203,-34.35574 34.35574,-34.35574s34.35574,15.41203 34.35574,34.35574c0,0.01638 0.00226,0.03275 0.00226,0.04913l0,-0.04913l8.4695,-28.20041c-9.18611,-13.90369 -24.95221,-23.09658 -42.82749,-23.09658z" fill="#98D9D5" id="svg_2"/>
         <path d="m171.29869,20.783c-28.28512,0 -51.29699,23.01187 -51.29699,51.29699l0,50.35054l-85.65499,0l0,16.94126l85.65499,0l0,25.41188l-85.65499,0l0,16.94126l85.65499,0l0,46.16097l16.94126,0l0,-155.80591c0,-18.94371 15.41203,-34.35574 34.35574,-34.35574c18.94371,0 34.35574,15.41203 34.35574,34.35574c0,4.67805 3.79258,8.47063 8.47063,8.47063s8.47063,-3.79258 8.47063,-8.47063c0,-28.28512 -23.01187,-51.29699 -51.29699,-51.29699z" fill="#C1E8E6" id="svg_3"/>
         <path d="m235.52468,207.13681c-4.82995,6.56078 -12.62858,10.852 -21.39963,10.852c-8.78912,0 -16.57024,-4.29122 -21.4177,-10.852c-4.84802,6.56078 -12.62914,10.852 -21.4177,10.852c-8.79138,0 -16.54935,-4.29122 -21.39907,-10.852c-4.84859,6.56078 -12.62914,10.852 -21.41827,10.852c-8.79138,0 -16.57024,-4.29122 -21.39963,-10.852c-4.86835,6.56078 -12.62858,10.852 -21.4177,10.852c-8.79082,0 -16.56968,-4.29122 -21.39907,-10.852c-4.84802,6.56078 -12.64947,10.852 -21.43859,10.852c-8.77049,0 -16.54878,-4.29122 -21.39907,-10.852c-4.84802,6.56078 -12.62688,10.852 -21.41827,10.852l0,36.26389l256.94238,0l0,-36.26389c-8.78912,0 -16.56968,-4.29122 -21.4177,-10.852z" fill="#6DA8D6" id="svg_4"/>
     </g>
 </g>
</svg>
