<svg width="70%" height="70%" viewBox="0 0 98 98" xmlns="http://www.w3.org/2000/svg">
 <g id="svg_49">
  <title>Potato</title>
  <g id="svg_48" transform="matrix(0.000042334255291430355,0,0,0.000042334255291430355,0,0) ">
   <path id="svg_46" d="m236080.18585,118088.96658c-0.08516,-0.07893 -0.14619,-0.32975 -0.13232,-0.54373c0.00874,-0.13494 0.19328,-0.95409 0.2094,-0.92952c0.00526,0.00801 0.05206,0.19899 0.10401,0.42439c0.08322,0.36107 0.09445,0.4284 0.09445,0.56599c0,0.27888 -0.09048,0.50732 -0.19911,0.50273c-0.03171,-0.00135 -0.0661,-0.01028 -0.07643,-0.01986l0,0l0,0zm0.08532,-0.14027c0.00281,-0.0361 -0.00377,-0.05371 -0.02009,-0.05371c-0.03719,0 -0.08879,-0.11621 -0.10032,-0.22595c-0.01229,-0.11705 -0.0449,-0.13098 -0.04971,-0.02122c-0.00928,0.21145 0.15449,0.5011 0.17012,0.30088l0,0l0,0z" fill="#00aeff"/>
  </g>
  <rect fill="#81a360" x="0" y="0" width="98" height="98" id="svg_50" rx="16" ry="16"/>
  <path fill="#4c4c4c" d="m14.46231,80.61833c2.68069,-7.43031 6.34982,-13.723 9.83022,-16.85918c3.72869,-3.35993 2.07439,-4.81734 -1.77205,-1.56117c-1.61825,1.36989 -2.08061,0.37521 -2.08061,-4.47616c0,-11.57497 7.08796,-18.73722 24.14199,-24.39498c14.43024,-4.78733 25.069,-10.17099 29.48007,-14.91816l3.59446,-3.86838l0,6.7306c0,8.32249 -3.05012,20.89577 -6.42633,26.49074c-3.58156,5.9353 -15.85778,16.89098 -21.88192,19.52812c-5.3971,2.36266 -16.92356,3.05821 -23.08392,1.39298c-3.06996,-0.82984 -4.04426,-0.1958 -5.63496,3.66701c-1.05777,2.56866 -1.92321,6.22299 -1.92321,8.1207c0,2.15442 -1.02072,3.45036 -2.71759,3.45036c-2.01538,0 -2.40972,-0.85333 -1.52615,-3.30245l0,0l0.00002,-0.00001l0,-0.00002z" id="svg_22"/>
 </g>
</svg>