<svg width="60%" height="60%" viewBox="0 0 128 128" xmlns="http://www.w3.org/2000/svg">
 <g id="svg_49">
  <title>Potato</title>
   <g transform="matrix(0.000042334255291430355,0,0,0.000042334255291430355,0,0) " id="svg_48">
    <path fill="#00aeff" stroke="#000" stroke-width="1.5" stroke-opacity="null" fill-opacity="null" d="m236080.185849,118088.966582c-0.085156,-0.078934 -0.146193,-0.329747 -0.132322,-0.543735c0.008747,-0.134936 0.193282,-0.954091 0.209398,-0.929521c0.00526,0.008019 0.052067,0.198999 0.104016,0.424399c0.083217,0.361067 0.094452,0.428395 0.094452,0.565983c0,0.278886 -0.090479,0.507325 -0.199117,0.502728c-0.031702,-0.001342 -0.066095,-0.010276 -0.076428,-0.019854l0,0l0.000001,0zm0.085317,-0.140269c0.002819,-0.036106 -0.003766,-0.053714 -0.020085,-0.053714c-0.037195,0 -0.08879,-0.116208 -0.100317,-0.225944c-0.012296,-0.117059 -0.044899,-0.130981 -0.049715,-0.021229c-0.009278,0.211453 0.154486,0.501104 0.170117,0.300888l0,0l0,-0.000001z" id="svg_46"/>
   </g>
  <rect stroke="#000" id="svg_50" height="127.317078" width="127.073174" y="0.341459" x="0.463425" stroke-opacity="null" stroke-width="1.5" fill="#81a360"/>
  <path id="svg_22" d="m18.97934,106.52133c3.54567,-9.82785 8.39872,-18.15101 13.00214,-22.29915c4.93183,-4.44408 2.74374,-6.37176 -2.34384,-2.06491c-2.14041,1.81192 -2.75196,0.49628 -2.75196,-5.92048c0,-15.30987 9.37504,-24.78317 31.9319,-32.26653c19.08645,-6.33206 33.15803,-13.45287 38.99242,-19.73182l4.75429,-5.11659l0,8.90237c0,11.00791 -4.0343,27.63822 -8.49992,35.03853c-4.73722,7.85045 -20.97462,22.3412 -28.94257,25.82927c-7.13858,3.12502 -22.3843,4.045 -30.53243,1.84245c-4.06055,-1.09761 -5.34923,-0.25898 -7.4532,4.85025c-1.39908,3.39749 -2.54378,8.23097 -2.54378,10.74101c0,2.84959 -1.35008,4.56369 -3.59448,4.56369c-2.66568,0 -3.18726,-1.12867 -2.01859,-4.36806l0,0l0.00002,-0.00001z" fill="#4c4c4c"/>
 </g>
</svg>