<svg width="100%" height="100%" viewBox="0 0 72 72" xmlns="http://www.w3.org/2000/svg">
 <g id="svg_49">
  <title>Potatofield small</title>
  <rect ry="16" rx="16" id="svg_50" height="72" width="72" y="0" x="0" fill="#81a360"/>
  <path id="svg_22" d="m10.4778,58.40716c1.94213,-5.38318 4.60038,-9.94217 7.12189,-12.2143c2.7014,-2.43424 1.50287,-3.49011 -1.28383,-1.13105c-1.17241,0.99247 -1.50738,0.27184 -1.50738,-3.24293c0,-8.38595 5.13515,-13.57492 17.49063,-17.67391c10.45456,-3.46837 18.16223,-7.36878 21.35801,-10.80805l2.60415,-2.8026l0,4.87625c0,6.02956 -2.20978,15.13877 -4.65581,19.19227c-2.5948,4.30006 -11.4888,12.23734 -15.85323,14.14792c-3.91014,1.71172 -12.26095,2.21564 -16.72406,1.0092c-2.22415,-0.60121 -2.93003,-0.14186 -4.08247,2.65671c-0.76634,1.86097 -1.39335,4.50849 -1.39335,5.88336c0,1.56086 -0.7395,2.49975 -1.96887,2.49975c-1.46012,0 -1.74582,-0.61823 -1.10568,-2.39259l0,0l0.00001,-0.00001l0,-0.00001l-0.00001,0z" fill="#4c4c4c"/>
 </g>
</svg>