<svg width="100%" height="100%"  viewBox="0 0 128 128" xmlns="http://www.w3.org/2000/svg">
<g>
	<g>
		<path d="M386.437,329.421c-4.548-4.548-11.284-5.801-17.163-3.189c-37.433,16.616-60.251,28.885-67.822,36.463
			c-7.544,7.538-12.179,17.206-13.051,27.225c-0.558,6.407,0.516,12.637,3.001,18.131l-23.814,23.782v-83.289h-0.003l40.187-40.131
			c4.588,2.069,9.623,3.095,14.771,3.094c10.715,0,21.922-4.44,30.616-13.133c7.576-7.567,19.847-30.387,36.467-67.826
			c2.61-5.879,1.357-12.617-3.192-17.164c-4.55-4.549-11.288-5.799-17.163-3.189c-37.433,16.616-60.251,28.885-67.823,36.463
			c-7.544,7.538-12.177,17.206-13.05,27.225c-0.558,6.406,0.514,12.636,3.001,18.131l-23.815,23.781v-81.666l40.185-40.121
			c4.588,2.069,9.621,3.095,14.769,3.095c10.718,0,21.927-4.443,30.62-13.145c7.576-7.567,19.847-30.387,36.467-67.826
			c2.61-5.879,1.357-12.617-3.192-17.164c-4.55-4.548-11.288-5.799-17.163-3.189c-37.433,16.616-60.251,28.885-67.822,36.463
			c-7.545,7.538-12.179,17.208-13.051,27.231c-0.558,6.409,0.514,12.64,3.001,18.135l-23.815,23.777v-78.581
			c14.499-5.49,24.981-20.973,24.981-39.18c0-10.74-7.461-35.55-22.174-73.741C268.08,3.879,262.43,0,255.998,0
			c-6.432,0-12.081,3.879-14.392,9.88c-14.714,38.193-22.175,63.003-22.175,73.742c0,18.207,10.481,33.69,24.981,39.18v78.581
			l-23.814-23.776c2.485-5.494,3.558-11.727,3-18.135c-0.872-10.022-5.506-19.692-13.051-27.231
			c-7.571-7.579-30.39-19.846-67.82-36.463c-5.876-2.61-12.615-1.359-17.163,3.189c-4.549,4.548-5.802,11.285-3.192,17.164
			c16.621,37.438,28.891,60.258,36.458,67.816c8.698,8.707,19.909,13.153,30.63,13.153c5.146,0,10.179-1.025,14.767-3.095
			l40.187,40.122v81.666l-23.814-23.781c2.485-5.493,3.559-11.724,3.001-18.132c-0.872-10.018-5.506-19.686-13.05-27.225
			c-7.572-7.578-30.39-19.847-67.822-36.463c-5.875-2.61-12.615-1.359-17.163,3.189c-4.549,4.548-5.803,11.285-3.192,17.164
			c16.621,37.438,28.891,60.258,36.462,67.821c8.699,8.698,19.903,13.138,30.622,13.137c5.146,0,10.18-1.025,14.769-3.095
			l40.189,40.133v83.29l-23.814-23.781c2.485-5.493,3.558-11.724,3-18.131c-0.872-10.019-5.507-19.687-13.051-27.225
			c-7.571-7.579-30.39-19.847-67.82-36.463c-5.874-2.609-12.615-1.359-17.163,3.189c-4.548,4.548-5.803,11.285-3.192,17.165
			c16.622,37.44,28.891,60.258,36.458,67.816c7.541,7.547,17.212,12.184,27.234,13.055c1.112,0.096,2.218,0.145,3.316,0.145
			c5.241,0,10.296-1.09,14.845-3.153l40.188,40.133v24.242h-62.973c-6.398,0-11.586,5.187-11.586,11.587s5.188,11.586,11.586,11.586
			h113.76c6.398,0,11.586-5.187,11.586-11.586s-5.188-11.587-11.586-11.587h-27.614v-24.242l40.188-40.133
			c4.548,2.062,9.603,3.153,14.845,3.153c1.097,0,2.205-0.049,3.316-0.145c10.021-0.87,19.694-5.507,27.225-13.046
			c7.576-7.566,19.845-30.386,36.467-67.825C392.239,340.706,390.986,333.969,386.437,329.421z M311.484,275.892
			c0.395-4.528,2.709-9.211,6.348-12.847c0.003-0.003,0.007-0.006,0.01-0.009c3.167-3.171,16.052-10.901,42.037-23.095
			c-12.197,25.989-19.925,38.87-23.101,42.042c-6.955,6.955-17.175,8.492-22.312,3.361c0,0,0,0-0.001-0.001
			C311.42,282.298,311.29,278.116,311.484,275.892z M311.485,161.481c0.394-4.533,2.708-9.217,6.348-12.853
			c0.003-0.003,0.007-0.006,0.01-0.009c3.167-3.171,16.052-10.901,42.037-23.095c-12.197,25.989-19.926,38.872-23.105,42.046
			c-6.952,6.959-17.172,8.5-22.31,3.368C311.42,167.893,311.29,163.706,311.485,161.481z M197.539,170.932
			c-5.146,5.139-15.365,3.596-22.325-3.372c-3.17-3.167-10.898-16.05-23.097-42.037c25.989,12.196,38.87,19.924,42.037,23.095
			c0.003,0.003,0.007,0.006,0.01,0.009c3.64,3.636,5.954,8.32,6.348,12.853C200.707,163.706,200.578,167.893,197.539,170.932z
			 M197.537,285.338c-5.141,5.137-15.365,3.6-22.324-3.36c-3.17-3.167-10.898-16.05-23.097-42.037
			c25.989,12.196,38.87,19.924,42.037,23.095c0.003,0.003,0.007,0.006,0.01,0.009c3.64,3.636,5.954,8.319,6.348,12.847
			C200.706,278.115,200.576,282.298,197.537,285.338z M197.534,401.378c-0.003,0.003-0.006,0.006-0.009,0.008
			c-0.001,0.001-0.002,0.002-0.003,0.003c-3.048,3.044-7.227,3.177-9.452,2.982c-4.528-0.393-9.21-2.707-12.856-6.355
			c-3.17-3.167-10.898-16.051-23.097-42.038c25.989,12.196,38.87,19.924,42.037,23.095c0.003,0.003,0.007,0.006,0.01,0.009
			c3.641,3.636,5.954,8.319,6.348,12.847C200.705,394.152,200.575,398.333,197.534,401.378z M255.998,101.768
			c-7.26,0-13.394-8.309-13.394-18.145c0.001-4.501,3.649-19.091,13.394-46.071c9.747,26.984,13.394,41.57,13.394,46.071
			C269.392,93.459,263.258,101.768,255.998,101.768z M336.775,398.026c-3.637,3.641-8.319,5.953-12.847,6.347
			c-2.226,0.195-6.411,0.061-9.463-2.99c-3.045-3.045-3.175-7.228-2.981-9.451c0.395-4.528,2.709-9.211,6.348-12.847
			c0.003-0.003,0.007-0.006,0.01-0.009c3.167-3.171,16.052-10.901,42.037-23.095C347.681,381.968,339.953,394.852,336.775,398.026z"
			/>
	</g>
</g>
<g>
	<g>
		<path d="M330.557,488.827h-3.496c-6.398,0-11.587,5.187-11.587,11.586c0,6.399,5.188,11.587,11.587,11.587h3.496
			c6.398,0,11.586-5.187,11.586-11.587C342.144,494.014,336.956,488.827,330.557,488.827z"/>
	</g>
</g>
<g>
</g>
<g>
</g>
<g>
</g>
<g>
</g>
<g>
</g>
<g>
</g>
<g>
</g>
<g>
</g>
<g>
</g>
<g>
</g>
<g>
</g>
<g>
</g>
<g>
</g>
<g>
</g>
<g>
</g>
</svg>
