<svg width="100%" height="100%"  viewBox="0 0 192 192" xmlns="http://www.w3.org/2000/svg">
 <g>
  <title>powerplant</title>
  <path d="m100.863201,136.534398c0,18.5664 15.0512,33.617601 33.617601,33.617601l0,-67.236001c-18.5664,0.0008 -33.617601,15.052 -33.617601,33.618401z" fill="#F2D057" id="svg_10"/>
  <path d="m168.099202,136.534398c0,-0.58 -0.0144,-1.1568 -0.044,-1.7296c-0.8424,-16.6168 -13.7496,-30.0504 -30.1368,-31.7144c-1.1304,-0.1144 -2.2768,-0.1736 -3.4376,-0.1736l0,67.236001c1.1608,0 2.3072,-0.0584 3.4376,-0.1736c16.952,-1.7224 30.1808,-16.0384 30.1808,-33.4448z" fill="#E9A868" id="svg_11"/>
  <path d="m272.315204,153.343199c0,14.8536 12.0408,26.8944 26.8944,26.8944l0,-53.788801c-14.8536,0 -26.8944,12.0408 -26.8944,26.8944z" fill="#F2D057" id="svg_12"/>
  <path d="m299.208804,180.237599c0.0648,0 0.128,-0.0048 0.192,-0.0048c1.7896,-0.0128 3.5384,-0.196 5.228,-0.5416c11.8176,-2.4184 20.812,-12.5872 21.4392,-24.964c0.0232,-0.4584 0.0352,-0.92 0.0352,-1.384s-0.012,-0.9256 -0.0352,-1.384c-0.6272,-12.3768 -9.6216,-22.5456 -21.4392,-24.964c-1.6896,-0.3456 -3.4384,-0.5288 -5.228,-0.5416c-0.064,-0.0008 -0.128,-0.0048 -0.192,-0.0048l0,53.788801z" fill="#E9A868" id="svg_13"/>
  <path stroke-width="5" stroke="#333333" d="m299.401604,220.8056l-61.154401,0l-103.765602,0l-103.765602,0l-27.716,0l0,33.3912l23.904,0l107.577602,0l77.321601,0l30.256,0l57.342401,0l18.9608,0l0,-33.3912l-18.9608,0zm-192.517603,27.8264l-12.9856,0l-3.7104,0l-12.9848,0l-3.7104,0l-12.9856,0l-3.7104,0l-12.9856,0l-3.7104,0l-12.9848,0l-3.7104,0l-12.9856,0l0,-7.42l12.9856,0l3.7104,0l12.9856,0l3.7104,0l12.9856,0l3.7104,0l12.9856,0l3.7104,0l12.9856,0l3.7104,0l12.9856,0l0,7.42l-0.0016,0zm0,-12.9856l-12.9856,0l-3.7104,0l-12.9848,0l-3.7104,0l-12.9856,0l-3.7104,0l-12.9856,0l-3.7104,0l-12.9848,0l-3.7104,0l-12.9856,0l0,-7.42l12.9856,0l3.7104,0l12.9856,0l3.7104,0l12.9856,0l3.7104,0l12.9856,0l3.7104,0l12.9856,0l3.7104,0l12.9856,0l0,7.42l-0.0016,0zm102.028802,12.9856l-12.9856,0l-3.7104,0l-12.9848,0l-3.7104,0l-12.9856,0l-3.7104,0l-12.9856,0l-3.7104,0l-12.9856,0l-3.7104,0l-12.9856,0l0,-7.42l12.9856,0l3.7104,0l12.9856,0l3.7104,0l12.9856,0l3.7104,0l12.9856,0l3.7104,0l12.9856,0l3.7104,0l12.9856,0l0,7.42l-0.0008,0zm0,-12.9856l-12.9856,0l-3.7104,0l-12.9848,0l-3.7104,0l-12.9856,0l-3.7104,0l-12.9856,0l-3.7104,0l-12.9856,0l-3.7104,0l-12.9856,0l0,-7.42l12.9856,0l3.7104,0l12.9856,0l3.7104,0l12.9856,0l3.7104,0l12.9856,0l3.7104,0l12.9856,0l3.7104,0l12.9856,0l0,7.42l-0.0008,0zm102.029602,12.9856l-12.9856,0l-3.7104,0l-12.9856,0l-3.7104,0l-12.9856,0l-3.7104,0l-12.9856,0l-3.7104,0l-12.9856,0l-3.7104,0l-12.9856,0l0,-7.42l12.9856,0l3.7104,0l12.9856,0l3.7104,0l12.9856,0l3.7104,0l12.9856,0l3.7104,0l12.9856,0l3.7104,0l12.9856,0l0,7.42zm0,-12.9856l-12.9856,0l-3.7104,0l-12.9856,0l-3.7104,0l-12.9856,0l-3.7104,0l-12.9856,0l-3.7104,0l-12.9856,0l-3.7104,0l-12.9856,0l0,-7.42l12.9856,0l3.7104,0l12.9856,0l3.7104,0l12.9856,0l3.7104,0l12.9856,0l3.7104,0l12.9856,0l3.7104,0l12.9856,0l0,7.42z" fill="#A08A8A" id="svg_14"/>
  <rect x="10.2" y="228.4" width="12.8" height="7.2" fill="#83727A" id="svg_15"/>
  <rect x="60.600001" y="228.4" width="12.8" height="7.2" fill="#83727A" id="svg_16"/>
  <rect x="77.400001" y="228.4" width="12.8" height="7.2" fill="#83727A" id="svg_17"/>
  <rect x="94.200001" y="228.4" width="12.8" height="7.2" fill="#83727A" id="svg_18"/>
  <rect x="27" y="228.4" width="12.8" height="7.2" fill="#83727A" id="svg_19"/>
  <rect x="43.800001" y="228.4" width="12.8" height="7.2" fill="#83727A" id="svg_20"/>
  <rect x="23.8" y="228.4" width="4" height="7.2" fill="#695A69" id="svg_21"/>
  <rect x="39.800001" y="228.4" width="4" height="7.2" fill="#695A69" id="svg_22"/>
  <rect x="56.600001" y="228.4" width="4" height="7.2" fill="#695A69" id="svg_23"/>
  <rect x="73.400001" y="228.4" width="4" height="7.2" fill="#695A69" id="svg_24"/>
  <rect x="90.200001" y="228.4" width="4" height="7.2" fill="#695A69" id="svg_25"/>
  <rect x="10.2" y="241.2" width="12.8" height="7.2" fill="#83727A" id="svg_26"/>
  <rect x="94.200001" y="241.2" width="12.8" height="7.2" fill="#83727A" id="svg_27"/>
  <rect x="77.400001" y="241.2" width="12.8" height="7.2" fill="#83727A" id="svg_28"/>
  <rect x="27" y="241.2" width="12.8" height="7.2" fill="#83727A" id="svg_29"/>
  <rect x="60.600001" y="241.2" width="12.8" height="7.2" fill="#83727A" id="svg_30"/>
  <rect x="43.800001" y="241.2" width="12.8" height="7.2" fill="#83727A" id="svg_31"/>
  <rect x="23.8" y="241.2" width="4" height="7.2" fill="#695A69" id="svg_32"/>
  <rect x="39.800001" y="241.2" width="4" height="7.2" fill="#695A69" id="svg_33"/>
  <rect x="56.600001" y="241.2" width="4" height="7.2" fill="#695A69" id="svg_34"/>
  <rect x="73.400001" y="241.2" width="4" height="7.2" fill="#695A69" id="svg_35"/>
  <rect x="90.200001" y="241.2" width="4" height="7.2" fill="#695A69" id="svg_36"/>
  <rect x="112.600002" y="228.4" width="12.8" height="7.2" fill="#83727A" id="svg_37"/>
  <rect x="146.200002" y="228.4" width="12.8" height="7.2" fill="#83727A" id="svg_38"/>
  <rect x="195.800003" y="228.4" width="12.8" height="7.2" fill="#83727A" id="svg_39"/>
  <rect x="179.000003" y="228.4" width="12.8" height="7.2" fill="#83727A" id="svg_40"/>
  <rect x="162.200002" y="228.4" width="12.8" height="7.2" fill="#83727A" id="svg_41"/>
  <rect x="129.400002" y="228.4" width="12.8" height="7.2" fill="#83727A" id="svg_42"/>
  <rect x="125.400002" y="228.4" width="4" height="7.2" fill="#695A69" id="svg_43"/>
  <rect x="142.200002" y="228.4" width="4" height="7.2" fill="#695A69" id="svg_44"/>
  <rect x="159.000002" y="228.4" width="4" height="7.2" fill="#695A69" id="svg_45"/>
  <rect x="175.800003" y="228.4" width="4" height="7.2" fill="#695A69" id="svg_46"/>
  <rect x="192.600003" y="228.4" width="4" height="7.2" fill="#695A69" id="svg_47"/>
  <rect x="112.600002" y="241.2" width="12.8" height="7.2" fill="#83727A" id="svg_48"/>
  <rect x="129.400002" y="241.2" width="12.8" height="7.2" fill="#83727A" id="svg_49"/>
  <rect x="195.800003" y="241.2" width="12.8" height="7.2" fill="#83727A" id="svg_50"/>
  <rect x="162.200002" y="241.2" width="12.8" height="7.2" fill="#83727A" id="svg_51"/>
  <rect x="146.200002" y="241.2" width="12.8" height="7.2" fill="#83727A" id="svg_52"/>
  <rect x="179.000003" y="241.2" width="12.8" height="7.2" fill="#83727A" id="svg_53"/>
  <rect x="125.400002" y="241.2" width="4" height="7.2" fill="#695A69" id="svg_54"/>
  <rect x="142.200002" y="241.2" width="4" height="7.2" fill="#695A69" id="svg_55"/>
  <rect x="159.000002" y="241.2" width="4" height="7.2" fill="#695A69" id="svg_56"/>
  <rect x="175.800003" y="241.2" width="4" height="7.2" fill="#695A69" id="svg_57"/>
  <rect x="192.600003" y="241.2" width="4" height="7.2" fill="#695A69" id="svg_58"/>
  <rect x="231.000003" y="228.4" width="12.8" height="7.2" fill="#83727A" id="svg_59"/>
  <rect x="298.200004" y="228.4" width="12.8" height="7.2" fill="#83727A" id="svg_60"/>
  <rect x="264.600004" y="228.4" width="12.8" height="7.2" fill="#83727A" id="svg_61"/>
  <rect x="281.400004" y="228.4" width="12.8" height="7.2" fill="#83727A" id="svg_62"/>
  <rect x="247.800004" y="228.4" width="12.8" height="7.2" fill="#83727A" id="svg_63"/>
  <rect x="214.200003" y="228.4" width="12.8" height="7.2" fill="#83727A" id="svg_64"/>
  <rect x="227.800003" y="228.4" width="4" height="7.2" fill="#695A69" id="svg_65"/>
  <rect x="243.800004" y="228.4" width="4" height="7.2" fill="#695A69" id="svg_66"/>
  <rect x="260.600004" y="228.4" width="4" height="7.2" fill="#695A69" id="svg_67"/>
  <rect x="277.400004" y="228.4" width="4" height="7.2" fill="#695A69" id="svg_68"/>
  <rect x="294.200004" y="228.4" width="4" height="7.2" fill="#695A69" id="svg_69"/>
  <rect x="247.800004" y="241.2" width="12.8" height="7.2" fill="#83727A" id="svg_70"/>
  <rect x="298.200004" y="241.2" width="12.8" height="7.2" fill="#83727A" id="svg_71"/>
  <rect x="231.000003" y="241.2" width="12.8" height="7.2" fill="#83727A" id="svg_72"/>
  <rect x="281.400004" y="241.2" width="12.8" height="7.2" fill="#83727A" id="svg_73"/>
  <rect x="264.600004" y="241.2" width="12.8" height="7.2" fill="#83727A" id="svg_74"/>
  <rect x="214.200003" y="241.2" width="12.8" height="7.2" fill="#83727A" id="svg_75"/>
  <rect x="227.800003" y="241.2" width="4" height="7.2" fill="#695A69" id="svg_76"/>
  <rect x="243.800004" y="241.2" width="4" height="7.2" fill="#695A69" id="svg_77"/>
  <rect x="260.600004" y="241.2" width="4" height="7.2" fill="#695A69" id="svg_78"/>
  <rect x="277.400004" y="241.2" width="4" height="7.2" fill="#695A69" id="svg_79"/>
  <rect x="294.200004" y="241.2" width="4" height="7.2" fill="#695A69" id="svg_80"/>
  <g id="svg_81">
   <path stroke-width="5" stroke="#333333" d="m134.481602,170.151999c-18.5664,0 -33.617601,-15.0512 -33.617601,-33.617601c0,-18.5664 15.0512,-33.617601 33.617601,-33.617601l0,-57.388801l-83.756801,0l-20.0088,175.277603l103.765602,0l0,-50.653601z" fill="#DFD0C6" id="svg_6"/>
   <path stroke-width="5" stroke="#333333" d="m134.481602,102.916798c1.1608,0 2.3072,0.0584 3.4376,0.1736c16.3872,1.664 29.2944,15.0976 30.1368,31.7144c0.0288,0.5728 0.044,1.1496 0.044,1.7296c0,17.4064 -13.2288,31.7232 -30.1808,33.444c-1.1304,0.1144 -2.2768,0.1736 -3.4376,0.1736l0,50.653601l103.765602,0l-11.3592,-99.504801l-8.6496,-75.772801l-83.756801,0l0,57.388801z" fill="#C8B2A8" id="svg_7"/>
   <polygon stroke-width="5" stroke="#333333" points="134.48160596313483,18.603194734501812 53.79840163586141,18.603194734501812 50.72479929513929,45.52799982321267 50.72479929513929,45.52799982321267 134.48160596313483,45.52799982321267 " fill="#C8B2A8" id="svg_8"/>
   <polygon stroke-width="5" stroke="#333333" points="218.23760086354014,45.52799982321267 218.23840652761464,45.52799982321267 215.1639924193023,18.603194734501812 134.48160596313483,18.603194734501812 134.48160596313483,45.52799982321267 " fill="#A08A8A" id="svg_9"/>
  </g>
  <g id="svg_82">
   <path stroke-width="5" stroke="#333333" d="m299.401604,220.8056l0,-40.572801c-0.064,0.0008 -0.128,0.0048 -0.192,0.0048c-14.8536,0 -26.8944,-12.0408 -26.8944,-26.8944c0,-14.8536 12.0408,-26.8944 26.8944,-26.8944c0.0648,0 0.128,0.0048 0.192,0.0048l0,-43.135201l-68.201601,0l-4.3112,37.982401l11.3592,99.504801l61.153601,0z" fill="#DFD0C6" id="svg_2"/>
   <path stroke-width="5" stroke="#333333" d="m367.603205,83.318397l-68.201601,0l0,43.135201c1.7896,0.0128 3.5384,0.196 5.228,0.5416c11.8176,2.4184 20.812,12.5872 21.4392,24.964c0.0232,0.4584 0.0352,0.92 0.0352,1.384s-0.012,0.9256 -0.0352,1.384c-0.6272,12.3768 -9.6216,22.5456 -21.4392,24.964c-1.6896,0.3456 -3.4384,0.5288 -5.228,0.5416l0,40.572801l18.9608,0l0,33.3912l68.637601,0l-19.3968,-170.878403z" fill="#C8B2A8" id="svg_3"/>
   <polygon stroke-width="5" stroke="#333333" points="299.4016157448532,61.26960162028081 233.70239601585854,61.26960162028081 231.19919773637048,83.31839345273966 231.19919773637048,83.31839345273966 299.4016157448532,83.31839345273966 " fill="#C8B2A8" id="svg_4"/>
   <polygon stroke-width="5" stroke="#333333" points="367.60320367519853,83.31839345273966 367.60320367519853,83.31839345273966 365.10000539571047,61.26960162028081 299.4016157448532,61.26960162028081 299.4016157448532,83.31839345273966 " fill="#A08A8A" id="svg_5"/>
  </g>
 </g>
</svg>