<svg width="128" height="128" xmlns="http://www.w3.org/2000/svg">
 <!-- Created with Method Draw - http://github.com/duopixel/Method-Draw/ -->

 <g>
  <title>Layer 1</title>
  <ellipse stroke="#000" ry="63.385249" rx="63.180331" id="svg_6" cy="64.122946" cx="62.721315" stroke-width="1.5" fill="#4f4e4e"/>
  <path id="svg_16" d="m-155.126651,40.380644c-0.085156,-0.078934 -0.146193,-0.329747 -0.132322,-0.543735c0.008747,-0.134936 0.193282,-0.954091 0.209398,-0.929521c0.00526,0.008019 0.052067,0.198999 0.104016,0.424399c0.083217,0.361067 0.094452,0.428395 0.094452,0.565983c0,0.278886 -0.090479,0.507325 -0.199117,0.502728c-0.031702,-0.001342 -0.066095,-0.010276 -0.076428,-0.019854l0,0zm0.085317,-0.140269c0.002819,-0.036106 -0.003766,-0.053714 -0.020085,-0.053714c-0.037195,0 -0.08879,-0.116208 -0.100317,-0.225944c-0.012296,-0.117059 -0.044899,-0.130981 -0.049715,-0.021229c-0.009278,0.211453 0.154486,0.501104 0.170117,0.300888l0,0z" fill-opacity="null" stroke-opacity="null" stroke-width="1.5" stroke="#000" fill="#00aeff"/>
  <g stroke="null" id="svg_103">
   <g stroke="null" transform="matrix(0.09867139733138429,0,0,0.09769750270494644,-438.24025414146905,-453.7440297594868) " id="svg_84">
    <g stroke="null" id="svg_85">
     <path fill="#f9db6b" stroke="null" id="svg_86" d="m5259.791895,4814.350412l-369.701,0c-21.8,0 -36.3,22.5 -27.4,42.3l89.2,197.9l241.299,0l93.602,-197.4c9.599,-19.8 -5,-42.8 -27,-42.8z"/>
     <path fill="#f9db6b" stroke="null" id="svg_87" d="m5519.490895,5667.350412l0,-119.101c0,-49.5 -17.5,-97.5 -49.5,-135.399l-276.699,-328.2l-117.8,0l-123.5,0l-272.2,328.6c-31.2,37.7 -48.3,85.101 -48.3,134l0,120.2c0,27.601 22.4,50 50,50l394,0l394,0c27.598,-0.1 49.999,-22.5 49.999,-50.1zm-351.401,-86.7l-214.299,0c-10,0 -19.3,-5.5 -24.101,-14.3c-4.8,-8.8 -4.5,-19.5 0.9,-28c18.1,-28.4 30.9,-59.601 40.1,-90l-15.199,0c-15.2,0 -27.5,-12.3 -27.5,-27.5s12.3,-27.5 27.5,-27.5l28.399,0c10.601,-57.9 9.3,-103 9.3,-103.8c-0.3,-7.4 2.5,-14.7 7.7,-20.101c5.2,-5.399 12.3,-8.399 19.8,-8.399l135.8,0c15.199,0 27.5,12.3 27.5,27.5l0,53.3c0,15.2 -12.301,27.5 -27.5,27.5s-27.5,-12.3 -27.5,-27.5l0,-25.8l-81.1,0c-0.8,19 -2.8,46.1 -8,77.3l40.799,0c15.201,0 27.5,12.3 27.5,27.5s-12.299,27.5 -27.5,27.5l-52.698,0c-6.801,25.3 -15.801,51.6 -27.9,77.3l168,0c15.201,0 27.5,12.3 27.5,27.5s-12.401,27.5 -27.501,27.5z"/>
    </g>
   </g>
   <g stroke="null" transform="matrix(0.09867139733138429,0,0,0.09769750270494644,-438.24025414146905,-453.7440297594868) " id="svg_88"/>
   <g stroke="null" transform="matrix(0.09867139733138429,0,0,0.09769750270494644,-438.24025414146905,-453.7440297594868) " id="svg_89"/>
   <g stroke="null" transform="matrix(0.09867139733138429,0,0,0.09769750270494644,-438.24025414146905,-453.7440297594868) " id="svg_90"/>
   <g stroke="null" transform="matrix(0.09867139733138429,0,0,0.09769750270494644,-438.24025414146905,-453.7440297594868) " id="svg_91"/>
   <g stroke="null" transform="matrix(0.09867139733138429,0,0,0.09769750270494644,-438.24025414146905,-453.7440297594868) " id="svg_92"/>
   <g stroke="null" transform="matrix(0.09867139733138429,0,0,0.09769750270494644,-438.24025414146905,-453.7440297594868) " id="svg_93"/>
   <g stroke="null" transform="matrix(0.09867139733138429,0,0,0.09769750270494644,-438.24025414146905,-453.7440297594868) " id="svg_94"/>
   <g stroke="null" transform="matrix(0.09867139733138429,0,0,0.09769750270494644,-438.24025414146905,-453.7440297594868) " id="svg_95"/>
   <g stroke="null" transform="matrix(0.09867139733138429,0,0,0.09769750270494644,-438.24025414146905,-453.7440297594868) " id="svg_96"/>
   <g stroke="null" transform="matrix(0.09867139733138429,0,0,0.09769750270494644,-438.24025414146905,-453.7440297594868) " id="svg_97"/>
   <g stroke="null" transform="matrix(0.09867139733138429,0,0,0.09769750270494644,-438.24025414146905,-453.7440297594868) " id="svg_98"/>
   <g stroke="null" transform="matrix(0.09867139733138429,0,0,0.09769750270494644,-438.24025414146905,-453.7440297594868) " id="svg_99"/>
   <g stroke="null" transform="matrix(0.09867139733138429,0,0,0.09769750270494644,-438.24025414146905,-453.7440297594868) " id="svg_100"/>
   <g stroke="null" transform="matrix(0.09867139733138429,0,0,0.09769750270494644,-438.24025414146905,-453.7440297594868) " id="svg_101"/>
   <g stroke="null" transform="matrix(0.09867139733138429,0,0,0.09769750270494644,-438.24025414146905,-453.7440297594868) " id="svg_102"/>
  </g>
 </g>
</svg>