<?xml version="1.0" encoding="iso-8859-1"?>
<!-- Generator: Adobe Illustrator 19.0.0, SVG Export Plug-In . SVG Version: 6.00 Build 0)  -->
<svg version="1.1" id="Layer_1" xmlns="http://www.w3.org/2000/svg" xmlns:xlink="http://www.w3.org/1999/xlink" x="0px" y="0px"
	 viewBox="0 0 512 512" style="enable-background:new 0 0 512 512;" xml:space="preserve">
<g>
	<path style="fill:#FCBB29;" d="M256,234.513c11.864,0,21.487,9.623,21.487,21.487c0,11.864-9.623,21.487-21.487,21.487
		c-11.877,0-21.487-9.623-21.487-21.487C234.513,244.136,244.123,234.513,256,234.513z"/>
	<path style="fill:#FCBB29;" d="M215.706,300.983c7.33,22.543,5.114,46.722-5.269,67.191c-0.812,1.61-1.675,3.195-2.589,4.753
		c-46.542-18.988-79.352-64.705-79.352-118.087c0-5.05,0.283-10.009,0.863-14.904c2.615-0.064,5.243-0.013,7.845,0.155
		c22.131,1.391,43.386,11.078,58.973,27.786c4.521,4.831,8.554,10.228,11.993,16.192
		C211.326,289.544,213.825,295.199,215.706,300.983z"/>
	<path style="fill:#FCBB29;" d="M382.641,239.936c0.58,4.895,0.863,9.855,0.863,14.904c0,53.382-32.81,99.1-79.365,118.087
		c-0.927-1.559-1.791-3.143-2.602-4.753v-0.013c-10.383-20.495-12.598-44.726-5.23-67.295c1.894-5.732,4.38-11.375,7.51-16.798
		c3.439-5.964,7.471-11.362,11.993-16.18c15.497-16.618,36.61-26.305,58.612-27.786
		C377.153,239.924,379.897,239.859,382.641,239.936z"/>
	<path style="fill:#FCBB29;" d="M333.445,153.551c-1.417,2.628-2.976,5.166-4.65,7.613c-15.896,23.316-42.652,38.607-72.988,38.607
		c-33.441,0-62.541-18.601-77.523-46.027c21.513-16.553,48.461-26.408,77.703-26.408
		C285.126,127.337,311.971,137.101,333.445,153.551z"/>
	<path style="fill:#FCBB29;" d="M256,0c141.378,0,256,114.609,256,256S397.378,512,256,512C114.609,512,0,397.391,0,256
		S114.609,0,256,0z"/>
</g>
<line style="fill:none;stroke:#333333;stroke-width:15;stroke-linejoin:round;stroke-miterlimit:10;" x1="304.822" y1="377.527" x2="304.822" y2="377.514"/>
<g>
	<path style="fill:#4D4D4D;" d="M256,394.138c-76.17,0-138.138-61.968-138.138-138.138S179.83,117.862,256,117.862
		S394.138,179.83,394.138,256S332.17,394.138,256,394.138z M256,137.185c-65.514,0-118.815,53.3-118.815,118.815
		S190.486,374.815,256,374.815S374.815,321.516,374.815,256S321.514,137.185,256,137.185z"/>
	<path style="fill:#4D4D4D;" d="M304.139,372.928c7.459,12.779,18.254,23.831,31.998,31.754
		c26.034,15.033,56.525,15.278,81.825,3.375c-43.309,34.716-105.18,41.325-156.14,11.89c-1.984-1.134-3.929-2.332-5.835-3.555
		c-1.894,1.224-3.839,2.422-5.823,3.555c-50.96,29.435-112.832,22.827-156.127-11.89c25.274,11.903,55.778,11.658,81.812-3.375
		c13.745-7.922,24.54-18.975,31.998-31.754c0.915-1.559,1.778-3.143,2.589-4.753c10.383-20.469,12.598-44.648,5.269-67.191
		c-1.881-5.784-4.38-11.439-7.536-16.914c-3.439-5.964-7.471-11.362-11.993-16.192c-15.587-16.708-36.842-26.395-58.973-27.786
		c-2.602-0.167-5.23-0.219-7.845-0.155c-14.234,0.374-28.598,4.199-41.814,11.813c-26.021,15.033-41.492,41.325-43.824,69.162
		c-8.412-54.851,16.798-111.737,67.758-141.159c1.958-1.134,3.916-2.203,5.913-3.233c-0.167-2.744-0.258-5.526-0.258-8.322
		c0-58.844,36.649-109.122,88.369-129.269c-22.955,15.948-37.976,42.484-37.976,72.537c0,15.316,3.903,29.718,10.756,42.278
		c14.982,27.425,44.082,46.027,77.523,46.027c30.337,0,57.092-15.291,72.988-38.607c1.675-2.448,3.233-4.985,4.65-7.613
		c6.814-12.495,10.666-26.833,10.666-42.085c0-30.053-15.046-56.59-37.988-72.537c51.72,20.147,88.369,70.425,88.369,129.269
		c0,2.744-0.077,5.462-0.232,8.154c2.1,1.082,4.174,2.216,6.248,3.401c50.96,29.422,76.17,86.308,67.758,141.159
		c-2.345-27.838-17.803-54.129-43.837-69.162c-13.191-7.626-27.541-11.439-41.789-11.813c-2.744-0.077-5.488-0.013-8.219,0.167
		c-22.002,1.481-43.115,11.169-58.612,27.786c-4.522,4.818-8.554,10.215-11.993,16.18c-3.13,5.423-5.616,11.065-7.51,16.798
		c-7.368,22.569-5.153,46.8,5.23,67.295v0.013C302.349,369.785,303.212,371.369,304.139,372.928z M277.487,256
		c0-11.864-9.623-21.487-21.487-21.487c-11.877,0-21.487,9.623-21.487,21.487c0,11.864,9.61,21.487,21.487,21.487
		C267.864,277.487,277.487,267.864,277.487,256z"/>
</g>
<g>
</g>
<g>
</g>
<g>
</g>
<g>
</g>
<g>
</g>
<g>
</g>
<g>
</g>
<g>
</g>
<g>
</g>
<g>
</g>
<g>
</g>
<g>
</g>
<g>
</g>
<g>
</g>
<g>
</g>
</svg>
