<svg width="100%" height="100%"  viewBox="0 0 128 128" xmlns="http://www.w3.org/2000/svg">
 <g>
  <title>City hall</title>
  <ellipse stroke="#333" ry="60" rx="60" id="svg_6" cy="64" cx="64" stroke-width="6" fill="#aaa"/>
  <g id="svg_79">
   <g transform="matrix(0.09844869716734728,0,0,0.08875870448225315,-399.08480109685706,-439.1344400992871) " id="svg_60">
    <g id="svg_61">
     <path id="svg_62" fill="#333" d="m4288.423534,6098.416152l818.3,0c27.6,0 50,-22.4 50,-50l0,-8c0,-27.6 -22.4,-50 -50,-50l-51.3,0l0,-371l-127.7,0l0,371l-68.4,0l0,-371l-127.6,0l0,371l-68.4,0l0,-371l-127.6,0l0,371l-68.4,0l0,-371l-127.6,0l0,371l-51.3,0c-27.6,0 -50,22.4 -50,50l0,8c0,27.6 22.4,50 50,50z"/>
     <path id="svg_63" fill="#333" d="m5117.622534,5480.116152l-389.1,-309c-9,-7.3 -20,-10.9 -31,-10.9c-11,0 -22,3.6 -31,10.8l-389.899,308.9c-12,9.5 -19,23.9 -19,39.2l0,20.3c0,27.6 22.4,50 50,50l32.1,0l127.6,0l68.4,0l127.6,0l68.401,0l127.6,0l68.4,0l127.6,0l31.5,0c27.799,0 50.299,-22.7 50,-50.6l-0.201,-20.2c-0.3,-15 -7.2,-29.2 -19.001,-38.5z"/>
    </g>
   </g>
  </g>
 </g>
</svg>