<svg x="100%" y="100%" viewBox="0 0 512 512" xmlns="http://www.w3.org/2000/svg">
 <!-- Created with Method Draw - http://github.com/duopixel/Method-Draw/ -->

 <g>
  <title>Layer 1</title>
  <ellipse stroke="#000" ry="63.385249" rx="63.180331" id="svg_6" cy="64.122946" cx="63.131151" stroke-width="1.5" fill="#c1c1c1"/>
  <path id="svg_16" d="m-155.126651,40.380644c-0.085156,-0.078934 -0.146193,-0.329747 -0.132322,-0.543735c0.008747,-0.134936 0.193282,-0.954091 0.209398,-0.929521c0.00526,0.008019 0.052067,0.198999 0.104016,0.424399c0.083217,0.361067 0.094452,0.428395 0.094452,0.565983c0,0.278886 -0.090479,0.507325 -0.199117,0.502728c-0.031702,-0.001342 -0.066095,-0.010276 -0.076428,-0.019854l0,0zm0.085317,-0.140269c0.002819,-0.036106 -0.003766,-0.053714 -0.020085,-0.053714c-0.037195,0 -0.08879,-0.116208 -0.100317,-0.225944c-0.012296,-0.117059 -0.044899,-0.130981 -0.049715,-0.021229c-0.009278,0.211453 0.154486,0.501104 0.170117,0.300888l0,0z" fill-opacity="null" stroke-opacity="null" stroke-width="1.5" stroke="#000" fill="#00aeff"/>
  <g stroke="null" id="svg_79">
   <g stroke="null" transform="matrix(0.09844869716734728,0,0,0.08875870448225315,-399.08480109685706,-439.1344400992871) " id="svg_60">
    <g stroke="null" id="svg_61">
     <path stroke="null" id="svg_62" d="m4288.423534,6098.416152l818.3,0c27.6,0 50,-22.4 50,-50l0,-8c0,-27.6 -22.4,-50 -50,-50l-51.3,0l0,-371l-127.7,0l0,371l-68.4,0l0,-371l-127.6,0l0,371l-68.4,0l0,-371l-127.6,0l0,371l-68.4,0l0,-371l-127.6,0l0,371l-51.3,0c-27.6,0 -50,22.4 -50,50l0,8c0,27.6 22.4,50 50,50z"/>
     <path stroke="null" id="svg_63" d="m5117.622534,5480.116152l-389.1,-309c-9,-7.3 -20,-10.9 -31,-10.9c-11,0 -22,3.6 -31,10.8l-389.899,308.9c-12,9.5 -19,23.9 -19,39.2l0,20.3c0,27.6 22.4,50 50,50l32.1,0l127.6,0l68.4,0l127.6,0l68.401,0l127.6,0l68.4,0l127.6,0l31.5,0c27.799,0 50.299,-22.7 50,-50.6l-0.201,-20.2c-0.3,-15 -7.2,-29.2 -19.001,-38.5z"/>
    </g>
   </g>
   <g stroke="null" transform="matrix(0.09844869716734728,0,0,0.08875870448225315,-399.08480109685706,-439.1344400992871) " id="svg_64"/>
   <g stroke="null" transform="matrix(0.09844869716734728,0,0,0.08875870448225315,-399.08480109685706,-439.1344400992871) " id="svg_65"/>
   <g stroke="null" transform="matrix(0.09844869716734728,0,0,0.08875870448225315,-399.08480109685706,-439.1344400992871) " id="svg_66"/>
   <g stroke="null" transform="matrix(0.09844869716734728,0,0,0.08875870448225315,-399.08480109685706,-439.1344400992871) " id="svg_67"/>
   <g stroke="null" transform="matrix(0.09844869716734728,0,0,0.08875870448225315,-399.08480109685706,-439.1344400992871) " id="svg_68"/>
   <g stroke="null" transform="matrix(0.09844869716734728,0,0,0.08875870448225315,-399.08480109685706,-439.1344400992871) " id="svg_69"/>
   <g stroke="null" transform="matrix(0.09844869716734728,0,0,0.08875870448225315,-399.08480109685706,-439.1344400992871) " id="svg_70"/>
   <g stroke="null" transform="matrix(0.09844869716734728,0,0,0.08875870448225315,-399.08480109685706,-439.1344400992871) " id="svg_71"/>
   <g stroke="null" transform="matrix(0.09844869716734728,0,0,0.08875870448225315,-399.08480109685706,-439.1344400992871) " id="svg_72"/>
   <g stroke="null" transform="matrix(0.09844869716734728,0,0,0.08875870448225315,-399.08480109685706,-439.1344400992871) " id="svg_73"/>
   <g stroke="null" transform="matrix(0.09844869716734728,0,0,0.08875870448225315,-399.08480109685706,-439.1344400992871) " id="svg_74"/>
   <g stroke="null" transform="matrix(0.09844869716734728,0,0,0.08875870448225315,-399.08480109685706,-439.1344400992871) " id="svg_75"/>
   <g stroke="null" transform="matrix(0.09844869716734728,0,0,0.08875870448225315,-399.08480109685706,-439.1344400992871) " id="svg_76"/>
   <g stroke="null" transform="matrix(0.09844869716734728,0,0,0.08875870448225315,-399.08480109685706,-439.1344400992871) " id="svg_77"/>
   <g stroke="null" transform="matrix(0.09844869716734728,0,0,0.08875870448225315,-399.08480109685706,-439.1344400992871) " id="svg_78"/>
  </g>
 </g>
</svg>