<svg width="128" height="128" xmlns="http://www.w3.org/2000/svg">
 <!-- Created with Method Draw - http://github.com/duopixel/Method-Draw/ -->

 <g>
  <title>Layer 1</title>
  <path id="svg_16" d="m-155.126651,40.380644c-0.085156,-0.078934 -0.146193,-0.329747 -0.132322,-0.543735c0.008747,-0.134936 0.193282,-0.954091 0.209398,-0.929521c0.00526,0.008019 0.052067,0.198999 0.104016,0.424399c0.083217,0.361067 0.094452,0.428395 0.094452,0.565983c0,0.278886 -0.090479,0.507325 -0.199117,0.502728c-0.031702,-0.001342 -0.066095,-0.010276 -0.076428,-0.019854l0,0zm0.085317,-0.140269c0.002819,-0.036106 -0.003766,-0.053714 -0.020085,-0.053714c-0.037195,0 -0.08879,-0.116208 -0.100317,-0.225944c-0.012296,-0.117059 -0.044899,-0.130981 -0.049715,-0.021229c-0.009278,0.211453 0.154486,0.501104 0.170117,0.300888l0,0z" fill-opacity="null" stroke-opacity="null" stroke-width="1.5" stroke="#000" fill="#00aeff"/>
  <g stroke="null" id="svg_160">
   <g stroke="null" transform="matrix(0.23529450989552073,0,0,0.2788386650135943,-275.18322376688957,-319.40963468569316) " id="svg_132">
    <polygon stroke="null" id="svg_133" fill="#070c03" points="1392.927490234375,1452.6159133911133 1399.0574951171875,1481.6159133911133 1341.0574951171875,1481.6159133911133 1347.177490234375,1452.6159133911133 1370.5975341796875,1452.6159133911133 "/>
    <polygon stroke="null" id="svg_134" fill="#070c03" points="1548.1875,1463.6159133911133 1551.99755859375,1481.6159133911133 1515.99755859375,1481.6159133911133 1519.797607421875,1463.6159133911133 1533.6175537109375,1463.6159133911133 "/>
    <polygon stroke="null" id="svg_135" fill="#111110" points="1526.1575927734375,1424.5960159301758 1533.6175537109375,1463.6159133911133 1519.797607421875,1463.6159133911133 1515.99755859375,1481.6159133911133 1399.0574951171875,1481.6159133911133 1392.927490234375,1452.6159133911133 1370.5975341796875,1452.6159133911133 1375.95751953125,1424.5960159301758 1404.5775146484375,1411.5860061645508 1421.237548828125,1373.4159622192383 1478.70751953125,1373.4159622192383 1499.017578125,1410.0860061645508 "/>
    <polygon stroke="null" id="svg_136" fill="#ffaa56" points="1398.0574951171875,1251.6159133911133 1413.1475830078125,1227.2258987426758 1494.6375732421875,1214.2759475708008 1505.0574951171875,1251.6159133911133 1520.16748046875,1251.6159133911133 1537.9176025390625,1321.6159133911133 1571.3875732421875,1321.6159133911133 1595.0574951171875,1399.6159133911133 1628.1275634765625,1399.6159133911133 1653.2674560546875,1481.6159133911133 1551.99755859375,1481.6159133911133 1548.1875,1463.6159133911133 1533.6175537109375,1463.6159133911133 1526.1575927734375,1424.5960159301758 1499.017578125,1410.0860061645508 1478.70751953125,1373.4159622192383 1421.237548828125,1373.4159622192383 1404.5775146484375,1411.5860061645508 1375.95751953125,1424.5960159301758 1370.5975341796875,1452.6159133911133 1347.177490234375,1452.6159133911133 1341.0574951171875,1481.6159133911133 1233.267578125,1481.6159133911133 1258.4075927734375,1399.6159133911133 1304.24755859375,1399.6159133911133 1327.91748046875,1321.6159133911133 1348.6175537109375,1321.6159133911133 1366.3675537109375,1251.6159133911133 "/>
    <polygon stroke="null" id="svg_137" fill="#070c03" points="1348.6185302734375,1321.6199417114258 1392.0574951171875,1321.6199417114258 1351.8795166015625,1308.7528762817383 "/>
    <polygon stroke="null" id="svg_138" fill="#070c03" points="1304.24755859375,1399.6159133911133 1295.506591796875,1428.4500198364258 1291.0574951171875,1399.6159133911133 "/>
    <polygon stroke="null" id="svg_139" fill="#070c03" points="1537.91357421875,1321.6199417114258 1545.3565673828125,1350.9789505004883 1548.3916015625,1321.6159133911133 "/>
    <polygon stroke="null" id="svg_140" fill="#070c03" points="1595.0545654296875,1399.6199417114258 1528.0574951171875,1399.6199417114258 1591.4234619140625,1387.6409378051758 "/>
    <polygon stroke="null" id="svg_141" fill="#070c03" points="1436.154541015625,1321.6199417114258 1476.154541015625,1321.6199417114258 1445.7244873046875,1313.5499954223633 "/>
    <polygon stroke="null" id="svg_142" fill="#070c03" points="1505.488525390625,1251.6199417114258 1426.821533203125,1251.6199417114258 1486.6676025390625,1243.5499954223633 "/>
    <polygon stroke="null" id="svg_143" fill="#070c03" points="1361.7244873046875,1452.6159133911133 1365.7244873046875,1481.6159133911133 1341.0574951171875,1481.6159133911133 1347.177490234375,1452.6159133911133 "/>
    <path stroke="null" id="svg_144" fill="#070c03" d="m1674.266531,1494.615945l-461.997,0l0,0c0,-7.18 6.097,-13 13.619,-13l434.759,0c7.521,0 13.619,5.821 13.619,13l0,0z"/>
   </g>
   <g stroke="null" transform="matrix(0.23529450989552073,0,0,0.2788386650135943,-275.18322376688957,-319.40963468569316) " id="svg_145"/>
   <g stroke="null" transform="matrix(0.23529450989552073,0,0,0.2788386650135943,-275.18322376688957,-319.40963468569316) " id="svg_146"/>
   <g stroke="null" transform="matrix(0.23529450989552073,0,0,0.2788386650135943,-275.18322376688957,-319.40963468569316) " id="svg_147"/>
   <g stroke="null" transform="matrix(0.23529450989552073,0,0,0.2788386650135943,-275.18322376688957,-319.40963468569316) " id="svg_148"/>
   <g stroke="null" transform="matrix(0.23529450989552073,0,0,0.2788386650135943,-275.18322376688957,-319.40963468569316) " id="svg_149"/>
   <g stroke="null" transform="matrix(0.23529450989552073,0,0,0.2788386650135943,-275.18322376688957,-319.40963468569316) " id="svg_150"/>
   <g stroke="null" transform="matrix(0.23529450989552073,0,0,0.2788386650135943,-275.18322376688957,-319.40963468569316) " id="svg_151"/>
   <g stroke="null" transform="matrix(0.23529450989552073,0,0,0.2788386650135943,-275.18322376688957,-319.40963468569316) " id="svg_152"/>
   <g stroke="null" transform="matrix(0.23529450989552073,0,0,0.2788386650135943,-275.18322376688957,-319.40963468569316) " id="svg_153"/>
   <g stroke="null" transform="matrix(0.23529450989552073,0,0,0.2788386650135943,-275.18322376688957,-319.40963468569316) " id="svg_154"/>
   <g stroke="null" transform="matrix(0.23529450989552073,0,0,0.2788386650135943,-275.18322376688957,-319.40963468569316) " id="svg_155"/>
   <g stroke="null" transform="matrix(0.23529450989552073,0,0,0.2788386650135943,-275.18322376688957,-319.40963468569316) " id="svg_156"/>
   <g stroke="null" transform="matrix(0.23529450989552073,0,0,0.2788386650135943,-275.18322376688957,-319.40963468569316) " id="svg_157"/>
   <g stroke="null" transform="matrix(0.23529450989552073,0,0,0.2788386650135943,-275.18322376688957,-319.40963468569316) " id="svg_158"/>
   <g stroke="null" transform="matrix(0.23529450989552073,0,0,0.2788386650135943,-275.18322376688957,-319.40963468569316) " id="svg_159"/>
  </g>
 </g>
</svg>