<svg width="100%" height="100%"  viewBox="0 0 128 128" xmlns="http://www.w3.org/2000/svg">
 <g>
  <title>race</title>
  <rect transform="rotate(12.959367752075195 34.02804565429693,59.69731521606445)" id="svg_22" height="108.40396" width="5.0625" y="5.49533" x="31.4968" fill="#bfbfbf"/>
  <rect transform="rotate(13.258871078491211 78.71633911132807,48.92701721191405)" id="svg_21" height="58.45156" width="77.2638" y="19.70124" x="40.08444" fill="#bfbfbf"/>
  <g transform="rotate(13.03172492980957 70.91394805908202,67.41357421875003)" id="svg_1">
    <g id="svg_3">
     <path fill="#3f3f3f" d="m112.03509,16.2406l-74.93186,0l0,-3.65521c0,-1.0093 -0.81831,-1.82761 -1.82761,-1.82761l-5.48282,0c-1.0093,0 -1.82761,0.81831 -1.82761,1.82761l0,109.65638c0,1.0093 0.81831,1.82761 1.82761,1.82761l5.48282,0c1.0093,0 1.82761,-0.81831 1.82761,-1.82761l0,-43.86255l74.93186,0c1.0093,0 1.82761,-0.81831 1.82761,-1.82761l0,-58.4834c0,-1.0093 -0.81831,-1.82761 -1.82761,-1.82761zm-78.58707,104.17356l-1.82761,0l0,-106.00117l1.82761,0l0,106.00117zm76.75947,-82.24229l-18.27606,0l0,18.27606l18.27606,0l0,18.27606l-18.27606,0l0,-18.27606l-18.27606,0l0,18.27606l-18.27606,0l0,-18.27606l-18.27606,0l0,-18.27606l18.27606,0l0,-18.27606l18.27606,0l0,18.27606l18.27606,0l0,-18.27606l18.27606,0l0,18.27606z" id="svg_4"/>
     <rect fill="#3f3f3f" x="55.3793" y="38.17187" width="18.27606" height="18.27606" id="svg_5"/>
    </g>
  </g>
 </g>
</svg>