<svg width="80%" height="100%"  viewBox="0 0 102 204" xmlns="http://www.w3.org/2000/svg">
 <g>
  <title>Ranger station</title>
  <g  id="svg_9">
   <g id="svg_1">
    <path id="svg_2" fill="#8B7E7F" d="m50.38271,113.25476c-0.79322,0 -1.58645,-0.24462 -2.22836,-0.73385l-13.44672,-10.24062l4.45759,-4.69595l11.2175,8.54399l11.21621,-8.54208l4.45759,4.69595l-13.44459,10.23909c-0.64278,0.48885 -1.436,0.73347 -2.22923,0.73347l0.00002,0z"/>
    <path id="svg_3" fill="#8B7E7F" d="m50.38271,148.387c-0.68253,0 -1.36463,-0.18106 -1.95228,-0.54436l-24.91381,-15.38255c-1.56465,-0.96622 2.34077,-6.04078 3.90542,-5.07495l22.96153,14.1767l22.95897,-14.17516c1.56465,-0.96546 5.46963,4.10911 3.90542,5.07495l-24.91167,15.38102c-0.58893,0.36252 -1.27147,0.54436 -1.95357,0.54436l-0.00002,0z"/>
    <path id="svg_4" fill="#8B7E7F" d="m50.38271,183.51885c-0.59578,0 -1.19196,-0.13858 -1.72534,-0.41535l-36.89974,-19.15633c-1.64414,-0.8533 1.80655,-6.18663 3.45026,-5.33258l35.17439,18.26055l35.17526,-18.26092c1.64371,-0.8533 5.0944,4.4789 3.45026,5.33258l-36.90017,19.15671c-0.53295,0.27715 -1.12915,0.41535 -1.72491,0.41535l-0.00002,0z"/>
   </g>
   <path id="svg_5" fill="#FEE191" d="m50.38271,88.39531c-25.92756,0 -47.021,-18.8937 -47.021,-42.11741s21.09344,-42.11741 47.021,-42.11741s47.021,18.8937 47.021,42.11741s-21.09344,42.11741 -47.021,42.11741zm0,-78.07116c-22.13326,0 -40.13972,16.12865 -40.13972,35.95375s18.00646,35.95375 40.13972,35.95375s40.13972,-16.12865 40.13972,-35.95375s-18.00646,-35.95375 -40.13972,-35.95375z"/>
   <path id="svg_6" fill="#FFD24D" d="m50.38271,71.95925c-15.80929,0 -28.67135,-11.52074 -28.67135,-25.68136s12.86206,-25.68136 28.67135,-25.68136s28.67135,11.52074 28.67135,25.68136s-12.86206,25.68136 -28.67135,25.68136zm0,-45.19905c-12.01499,0 -21.79007,8.75606 -21.79007,19.5177s9.77551,19.5177 21.79007,19.5177s21.79007,-8.75606 21.79007,-19.5177s-9.77508,-19.5177 -21.79007,-19.5177z"/>
   <path id="svg_7" fill="#605353" d="m96.55366,176.01687l-42.73051,-111.76211l0,-15.92231l-6.88085,0l0,15.92309l-42.73393,111.77015c-0.61544,1.61049 0.34276,3.36263 2.1399,3.91426c0.36926,0.11294 0.74535,0.1669 1.11504,0.1669c1.43002,0 2.76559,-0.80467 3.25494,-2.08403l36.22406,-94.74419l0,113.80021c0,1.70199 1.54029,3.08164 3.44043,3.08164c1.90014,0 3.44043,-1.37965 3.44043,-3.08164l0,-113.79983l36.22063,94.73499c0.61629,1.60973 2.57155,2.46914 4.36998,1.91674c1.79756,-0.55125 2.75619,-2.30376 2.1399,-3.91388l0,0.00002z" stroke-opacity="0"/>
   <circle id="svg_8" fill="#F14742" r="2.93019" cy="46.27789" cx="50.38271"/>
  </g>
 </g>
</svg>