<svg width="200%" height="300%"  viewBox="0 0 256 384" xmlns="http://www.w3.org/2000/svg">
 <g>
  <title>Ranger station</title>
  <g id="svg_9">
   <g id="svg_1">
    <path id="svg_2" fill="#8B7E7F" d="m63.38271,71.17931c-0.52331,0 -1.04662,-0.15476 -1.47011,-0.46427l-8.87116,-6.47876l2.94079,-2.97091l7.40048,5.40538l7.39963,-5.40417l2.94079,2.97091l-8.86975,6.47779c-0.42406,0.30927 -0.94737,0.46403 -1.47068,0.46403z"/>
    <path id="svg_3" fill="#8B7E7F" d="m63.38271,93.40583c-0.45028,0 -0.90028,-0.11455 -1.28797,-0.34439l-16.4363,-9.73182c-1.03224,-0.61128 1.54427,-3.82172 2.57651,-3.21068l15.14833,8.96893l15.14664,-8.96796c1.03224,-0.6108 3.60846,2.59964 2.57651,3.21068l-16.43489,9.73085c-0.38853,0.22935 -0.83882,0.34439 -1.28882,0.34439z"/>
    <path id="svg_4" fill="#8B7E7F" d="m63.38271,115.6321c-0.39305,0 -0.78637,-0.08767 -1.13825,-0.26277l-24.34374,-12.11931c-1.08468,-0.53984 1.19183,-3.91399 2.27623,-3.37367l23.20548,11.55259l23.20605,-11.55283c1.0844,-0.53984 3.36091,2.83359 2.27623,3.37367l-24.34402,12.11955c-0.3516,0.17534 -0.74493,0.26277 -1.13797,0.26277z"/>
   </g>
   <path id="svg_5" fill="#FEE191" d="m63.38271,55.4519c-17.1051,0 -31.021,-11.95316 -31.021,-26.64571s13.9159,-26.64571 31.021,-26.64571s31.021,11.95316 31.021,26.64571s-13.9159,26.64571 -31.021,26.64571zm0,-49.39196c-14.6019,0 -26.48124,10.20384 -26.48124,22.74625s11.87934,22.74625 26.48124,22.74625s26.48124,-10.20384 26.48124,-22.74625s-11.87934,-22.74625 -26.48124,-22.74625z"/>
   <path id="svg_6" fill="#FFD24D" d="m63.38271,45.05358c-10.42981,0 -18.91525,-7.28863 -18.91525,-16.24739s8.48544,-16.24739 18.91525,-16.24739s18.91525,7.28863 18.91525,16.24739s-8.48544,16.24739 -18.91525,16.24739zm0,-28.59532c-7.92661,0 -14.37549,5.53955 -14.37549,12.34793s6.44916,12.34793 14.37549,12.34793s14.37549,-5.53955 14.37549,-12.34793s-6.44888,-12.34793 -14.37549,-12.34793z"/>
   <path id="svg_7" fill="#605353" d="m93.84291,110.88595l-28.19045,-70.70664l0,-10.0733l-4.53948,0l0,10.07379l-28.19271,70.71173c-0.40602,1.01888 0.22613,2.12738 1.41175,2.47637c0.24361,0.07145 0.49173,0.10559 0.73562,0.10559c0.94342,0 1.82453,-0.50908 2.14737,-1.31847l23.89797,-59.9402l0,71.99605c0,1.07677 1.01617,1.94961 2.26974,1.94961c1.25357,0 2.26974,-0.87284 2.26974,-1.94961l0,-71.99581l23.89571,59.93438c0.40658,1.0184 1.69652,1.56211 2.88299,1.21263c1.1859,-0.34875 1.81833,-1.45748 1.41175,-2.47613z" stroke-opacity="0"/>
   <circle id="svg_8" fill="#F14742" r="2.0396" cy="28.80619" cx="63.38271"/>
  </g>
 </g>
</svg>