<svg width="100%" height="100%"  viewBox="0 0 128 128" xmlns="http://www.w3.org/2000/svg">
 <g>
  <title>recycle</title>
  <ellipse ry="62" rx="62" id="svg_4" cy="63.91071" cx="64.28571" fill="#bfbfbf"/>
  <path id="svg_3" d="m25.38894,45.55246c0.00234,-0.88996 0.79897,-6.3465 1.77092,-12.1257c3.03073,-18.02063 3.07531,-18.10015 6.92329,-12.35658l2.27662,3.39814l6.65796,-3.36094c8.8064,-4.44544 19.31448,-6.08996 28.97385,-4.53437c4.1003,0.66036 8.45102,1.73367 9.66827,2.38512c2.41673,1.29336 2.26181,2.40408 -1.59,11.4c-2.11109,4.93051 -2.31373,5.07103 -5.9604,4.13361c-6.20676,-1.59543 -16.31315,-1.0929 -21.19257,1.05378l-4.57492,2.01279l3.21126,3.35182c1.7662,1.84355 2.76673,3.6266 2.22343,3.96237c-0.54333,0.33578 -7.15367,0.99022 -14.68965,1.45427c-11.30652,0.69628 -13.70115,0.56095 -13.69807,-0.7743l0,0zm58.21972,49.68656l-4.89789,-6.48716l4.45956,-4.31233c4.5899,-4.43831 7.9002,-10.66966 9.35858,-17.6168l0.83225,-3.96444l-4.80016,0.76754c-2.64009,0.4222 -4.8164,0.36734 -4.83625,-0.12186c-0.0927,-2.28394 12.45954,-24.79839 13.67963,-24.53665c1.91841,0.41152 21.38184,17.26906 21.38184,18.51902c0,0.55789 -2.04554,1.34146 -4.5456,1.74123l-4.54561,0.72684l-0.44863,7.75145c-0.57541,9.94154 -5.81404,21.41543 -13.10767,28.70903c-2.92124,2.92127 -5.83354,5.31138 -6.47176,5.31138c-0.63824,0 -3.36446,-2.91927 -6.0583,-6.48723l0,0zm-44.2133,18.18303c0,-0.7173 0.76949,-2.79216 1.70996,-4.61084c1.70633,-3.29966 1.69645,-3.31568 -4.66486,-7.53937c-9.95274,-6.60824 -17.35063,-18.33746 -19.67758,-31.19855l-0.76287,-4.21642l5.43931,-0.74551c11.21251,-1.53685 11.3149,-1.49039 13.56049,6.1516c1.51532,5.15682 3.37903,8.2472 7.39651,12.26466c2.9539,2.95392 5.78346,5.11564 6.28792,4.80388c0.50443,-0.31175 1.23457,-2.15388 1.62252,-4.09363c0.38795,-1.93975 1.19692,-3.52684 1.79769,-3.52684c1.37931,0 14.36821,20.48007 14.57442,22.97999c0.13771,1.66968 -6.88374,4.56059 -25.18273,10.36845c-1.16683,0.37033 -2.10076,0.08701 -2.10076,-0.63741l0,0z" fill="#3f7f00"/>
 </g>
</svg>