<svg width="100%" height="100%"  viewBox="0 0 128 128" xmlns="http://www.w3.org/2000/svg">
 <g>
  <title>research_vessel</title>
  <g id="svg_1">
   <rect x="65.15561" y="212.77222" width="24.50677" height="12.25261" fill="#1D71B8" id="svg_2"/>
   <rect x="114.16863" y="212.77222" width="24.50677" height="12.25261" fill="#1D71B8" id="svg_3"/>
   <rect x="163.18165" y="212.77222" width="24.50677" height="12.25261" fill="#1D71B8" id="svg_4"/>
  </g>
  <path d="m118.25249,20.81073l-108.98962,170.75043c-5.83853,9.14564 0.7757,21.12395 11.6252,21.05654l211.55011,0c10.21898,-0.06326 17.45128,-12.70216 11.9192,-21.29506l-109.7674,-170.51192c-6.56082,-9.76009 -9.81401,-9.78498 -16.3375,0z" fill="#F9B233" id="svg_5"/>
  <path d="m20.88807,212.61771c-10.85001,0.06793 -17.46321,-11.91039 -11.6252,-21.05654l108.98962,-170.75043c0,0 2.42771,-4.73252 7.03993,-4.08438l1.09615,195.89187l-105.5005,0l0,-0.00052z" fill="#FAC15C" id="svg_6"/>
  <path d="m142.75874,37.14719l-32.67449,0c0,0 9.43653,-20.25699 15.82676,-20.42136c9.88816,-0.25459 16.84772,20.42136 16.84772,20.42136z" fill="#77AAD4" id="svg_7"/>
  <path d="m93.74675,212.7743l-32.675,0l0,-61.26511c0,-9.02327 7.31475,-16.3375 16.33802,-16.3375l0,0c9.02275,0 16.3375,7.31423 16.3375,16.3375l0,61.26511l-0.00052,0z" fill="#1D71B8" id="svg_8"/>
  <rect x="61.07175" y="196.43835" width="32.67345" height="16.33958" fill="#FFFFFF" id="svg_9"/>
  <path d="m191.77073,212.7743l-32.67449,0l0,-61.26511c0,-9.02327 7.31423,-16.3375 16.3375,-16.3375l0,0c9.02275,0 16.3375,7.31423 16.3375,16.3375l0,61.26511l-0.00052,0z" fill="#1D71B8" id="svg_10"/>
  <rect x="159.09832" y="196.43835" width="32.67345" height="16.33958" fill="#FFFFFF" id="svg_11"/>
  <g id="svg_12">
   <path d="m32.48112,212.7743l-13.02676,0c-8.59549,0 -13.96942,-8.1112 -11.47898,-16.3375c3.20082,-10.57105 24.50573,-41.25235 24.50573,-41.25235l0,57.58985z" fill="#77AAD4" id="svg_13"/>
   <path d="m220.36136,212.7743l13.02728,0c8.59549,0 14.58076,-8.85371 12.08979,-17.08002c-3.20082,-10.57053 -25.11707,-41.64746 -25.11707,-41.64746l0,58.72748z" fill="#77AAD4" id="svg_14"/>
  </g>
  <path d="m155.01135,88.79533c0,-15.78995 -12.80068,-28.59063 -28.59011,-28.59063c-15.78995,0 -28.59063,12.80068 -28.59063,28.59063l28.59063,16.3375l28.59011,-16.3375z" fill="#FFFFFF" id="svg_15"/>
  <g id="svg_31">
   <rect x="106.00144" y="143.34147" width="8.1672" height="8.1672" fill="#FFFFFF" id="svg_32"/>
   <rect x="106.00144" y="159.67586" width="8.1672" height="8.1672" fill="#FFFFFF" id="svg_33"/>
   <rect x="106.00144" y="176.01544" width="8.1672" height="8.1672" fill="#FFFFFF" id="svg_34"/>
   <rect x="138.67488" y="159.67586" width="8.1672" height="8.1672" fill="#FFFFFF" id="svg_35"/>
   <rect x="138.67488" y="176.01544" width="8.1672" height="8.1672" fill="#FFFFFF" id="svg_36"/>
   <rect x="138.67488" y="143.34147" width="8.1672" height="8.1672" fill="#FFFFFF" id="svg_37"/>
  </g>
  <path d="m246.36509,192.81494l-107.36717,-173.17244c-2.71756,-4.38356 -7.41897,-7.00053 -12.57616,-7.00053c-0.00052,0 -0.00052,0 -0.00052,0c-5.15719,0 -9.85912,2.61645 -12.57668,7.00001l-107.36717,173.17296c-2.87,4.62882 -3.00223,10.23453 -0.35311,14.99298c2.64963,4.76001 7.48327,7.60149 12.93031,7.60149l214.73434,0c5.44704,0 10.27964,-2.84097 12.92928,-7.60097c2.64911,-4.75897 2.51637,-10.36416 -0.35311,-14.9935zm-70.93187,-53.55836c6.7563,0 12.25313,5.49682 12.25313,12.25313l0,40.84324l-24.50573,0l0,-40.84324c0,-6.75682 5.4963,-12.25313 12.25261,-12.25313zm-12.25261,61.26459l24.50573,0l0,6.72001l-24.50573,0l0,-6.72001zm16.33698,-69.02216l0,-8.57994l-8.16875,0l0,8.57994c-9.31001,1.89726 -16.3375,10.14846 -16.3375,20.01017l0,55.732l-24.50573,0l0,-99.7382l28.59063,-16.3375l0,-2.37015c0,-18.0175 -14.6575,-32.67449 -32.67449,-32.67449s-32.67449,14.6575 -32.67449,32.67449l0,2.37015l28.59063,16.3375l0,99.7382l-24.50573,0l0,-55.732c0,-9.86223 -7.02697,-18.11291 -16.3375,-20.01017l0,-8.57994l-8.16875,0l0,8.57994c-9.31001,1.89726 -16.33802,10.14846 -16.33802,20.01017l0,55.732l-20.42188,0l0,-47.45332l73.50476,-118.55578l32.70093,0l73.50528,118.55681l0,47.45228l-20.42188,0l0,-55.732c0,-9.86172 -7.02697,-18.11291 -16.3375,-20.01017zm-53.09636,-31.07071l-24.39788,-13.94142c1.16719,-12.43461 11.66409,-22.19781 24.39788,-22.19781s23.23121,9.76372 24.39788,22.19781l-24.39788,13.94142zm-49.01199,38.82827c6.7563,0 12.25313,5.49682 12.25313,12.25313l0,40.84324l-24.50677,0l0,-40.84324c0.00052,-6.75682 5.49786,-12.25313 12.25364,-12.25313zm-12.25313,61.26459l24.50677,0l0,6.72001l-24.50677,0l0,-6.72001zm55.63192,-176.57444c1.23511,-1.99371 3.28897,-3.136 5.63371,-3.136s4.39756,1.14333 5.63319,3.136l5.65238,9.11712l-22.57166,0l5.65238,-9.11712zm-107.52636,179.88933c-1.18637,-2.13215 -1.12726,-4.64334 0.15815,-6.71638l14.97743,-24.15677l0,34.27826l-9.3432,0c-2.44015,0 -4.60549,-1.27296 -5.79238,-3.40512zm226.31858,0c-1.18637,2.13215 -3.35171,3.40512 -5.79186,3.40512l-9.3432,0l0,-34.27775l14.97691,24.15625c1.28593,2.07356 1.34504,4.58475 0.15815,6.71638z" fill="#1D1D1B" id="svg_38"/>
 </g>
</svg>