<svg width="100%" height="100%" viewBox="0 0 128 128" xmlns="http://www.w3.org/2000/svg">
 <g>
  <title>restaurant</title>
  <ellipse ry="62.22222" rx="62.22222" id="svg_6" cy="64.09524" cx="64.50794" fill="#ffffaa"/>
  <ellipse id="svg_7" ry="51.55555" rx="51.55555" cy="62.47617" cx="63.1111" fill="#c3e5e5"/>
  <g id="svg_1">
   <g id="svg_2">
    <path fill="#333333" d="m63.25354,9.90575c-29.46274,0 -53.34347,23.88073 -53.34347,53.3438c0,21.2286 12.43261,39.50406 30.38377,48.08973l1.66962,-32.26205c0,0 -3.14055,-1.03068 -3.828,-1.36626c-6.6612,-2.93421 -11.50028,-11.57371 -11.50028,-22.78658c0,-12.23558 9.48909,-22.77462 18.6632,-22.86168c0.01163,0 0.01163,0 0.01927,0c0.00399,0 0.01163,0 0.01528,0c9.1761,0.08672 18.66553,10.62576 18.66553,22.86168c0,11.21287 -4.84506,19.84872 -11.49264,22.78658c-0.05217,0.02293 -3.85857,1.40514 -3.85857,1.40514l1.86466,35.87143c4.09182,1.00709 8.34611,1.59818 12.74892,1.59818c5.93754,0 11.62388,-1.01141 16.95903,-2.79898l1.65234,-31.96833c-4.3543,-0.95758 -8.06834,-3.72965 -10.39617,-7.20744c-2.88371,-4.31975 2.21985,-42.5519 2.21985,-42.5519l3.31997,0l0,35.87707l3.29704,0l0,-35.87309l3.60572,0l0,35.88106l3.28143,0l0,-35.88106l3.74095,0l0,35.88106l3.29272,0l0,-35.88106l2.54779,0c0,0 5.10356,38.23215 2.21619,42.5519c-2.30491,3.44357 -5.98405,6.20767 -10.2842,7.18817c-0.07708,0.02725 -0.14686,0.05383 -0.14686,0.05383l1.43604,27.4984c15.8898,-9.23824 26.59864,-26.4016 26.59864,-46.10545c-0.00797,-29.46307 -23.8887,-53.34413 -53.34779,-53.34413z" id="svg_3"/>
    <path fill="#333333" d="m34.44303,49.50051c0.19105,-0.77783 0.44789,-1.51711 0.45952,-1.5304c0.08307,-0.29139 -0.07144,-0.58877 -0.38808,-0.77783c-0.30103,-0.16214 -0.66785,-0.07908 -0.83763,0.18142c0,0 -0.36482,0.58113 -0.89379,1.44003c-0.43028,0.73928 -1.06723,1.92048 -1.50183,3.39141c-0.37645,1.28918 -0.82601,3.00332 -1.02869,4.92181c-0.08672,1.00775 -0.10632,1.91682 -0.07542,2.85281c0.07542,1.06723 0.23724,1.98029 0.54624,3.02459c1.04796,2.9784 1.85502,5.86245 4.76764,8.70728c0.9207,0.94595 1.86665,1.59054 2.54978,2.06535l0.24122,0.16979c0.14686,0.09669 0.28774,0.18573 0.42663,0.26681c0.57349,0.30103 0.95725,0.40902 1.02702,0.4243c0.28541,0.07708 0.57913,-0.0618 0.70041,-0.29339c0.11397,-0.24322 0.0309,-0.54823 -0.20634,-0.74095c0,0 -0.33226,-0.2894 -0.75856,-0.82999c-0.29139,-0.32828 -0.60804,-0.80308 -0.97652,-1.33935c-0.26049,-0.37845 -0.5675,-0.80707 -0.85325,-1.22406c-1.41876,-2.16569 -2.23679,-5.18828 -3.36815,-8.28464c-0.22195,-0.67184 -0.40337,-1.54236 -0.47115,-2.28165c-0.09038,-0.85325 -0.13291,-1.67527 -0.13291,-2.43781c-0.03289,-1.77196 0.04618,-3.29306 0.20069,-4.52642c0.17743,-1.39152 0.31631,-2.43582 0.57315,-3.17909z" id="svg_4"/>
    <path fill="#333333" d="m63.25354,0c-34.87331,0 -63.25354,28.37425 -63.25354,63.24955c0,34.86766 28.38023,63.24988 63.25354,63.24988c34.87165,0 63.24623,-28.38222 63.24623,-63.24988c-0.00033,-34.8753 -28.37458,-63.24955 -63.24623,-63.24955zm0,121.78196c-32.27734,0 -58.53806,-26.25873 -58.53806,-58.53241c0,-32.27734 26.26072,-58.53806 58.53806,-58.53806c32.27368,0 58.5364,26.26072 58.5364,58.53806c-0.00033,32.27368 -26.26305,58.53241 -58.5364,58.53241z" id="svg_5"/>
   </g>
  </g>
 </g>
</svg>
