<svg width="100%" height="100%"  viewBox="0 0 256 256" xmlns="http://www.w3.org/2000/svg">
 <g>
  <title>RocketLaunchPad</title>
  <g id="svg_1">
   <line stroke="#333333" x1="152.29312" y1="74.7055" x2="221.46553" y2="74.7055" stroke-miterlimit="10" stroke-width="6" fill="none" id="svg_8"/>
   <line stroke="#333333" x1="153.29312" y1="156.58481" x2="222.46553" y2="156.58481" stroke-miterlimit="10" stroke-width="6" fill="none" id="svg_9"/>
   <path d="m139.58621,240.4224l-8.72414,-24.606l0,-68.70487l21.81035,24.606l0,-85.32376c0,-34.82241 -15.83867,-67.14485 -41.84969,-85.68793c-1.06871,-0.76279 -2.47329,-0.76279 -3.542,0c-26.01102,18.54308 -41.84969,50.86552 -41.84969,85.68793l0,85.32376l21.81035,-24.606l0,68.70487l-8.72414,24.606l0,5.11313l0,9.65048l0,0.19193l61.06897,0l0,-0.19193l0,-14.7636l-0.00001,0z" fill="#dd9d73" id="svg_10"/>
   <path d="m130.86207,191.31124l0,-113.4138c0,-13.60966 -5.4046,-26.6566 -15.02733,-36.27933c-3.74702,-3.74702 -9.81902,-3.74702 -13.56603,0c-9.62272,9.62272 -15.02733,22.67404 -15.02733,36.27933l0,113.4138l-8.72414,21.81035l0,13.25633l61.06897,0l0,-13.25633l-8.72414,-21.81035z" fill="#b1c8ce" id="svg_13"/>
   <polygon points="135.7862130331996,226.37791442871094 180.10345669349044,226.37791442871094 180.10345669349044,217.65377807617188 130.86207580566406,130.4123992919922 130.86207580566406,191.3112335205078 135.7862130331996,213.12158203125 135.7862130331996,226.20779418945312 " fill="#bfbfbf" id="svg_14"/>
   <polygon points="82.51724500865384,226.20779418945312 82.51724500865384,217.65377807617188 82.51724500865384,213.12158203125 87.24138641357422,191.3112335205078 87.24138641357422,130.4123992919922 40.0000012836972,217.65377807617188 40.0000012836972,226.37791442871094 82.51724500865384,226.37791442871094 " fill="#bfbfbf" id="svg_15"/>
   <rect stroke="#333333" x="222.46553" y="30.08481" width="30.53448" height="222.46553" stroke-miterlimit="10" stroke-width="6" fill="none" id="svg_16"/>
   <line stroke="#333333" x1="253.00001" y1="64.98136" x2="222.46553" y2="95.51584" stroke-miterlimit="10" stroke-width="6" fill="none" id="svg_17"/>
   <line stroke="#333333" x1="222.46553" y1="95.51584" x2="253.00001" y2="126.05033" stroke-miterlimit="10" stroke-width="6" fill="none" id="svg_18"/>
   <line stroke="#333333" x1="253.00001" y1="126.05033" x2="222.46553" y2="156.58481" stroke-miterlimit="10" stroke-width="6" fill="none" id="svg_19"/>
   <line stroke="#333333" x1="222.46553" y1="156.58481" x2="253.00001" y2="187.1193" stroke-miterlimit="10" stroke-width="6" fill="none" id="svg_20"/>
   <line stroke="#333333" x1="253.00001" y1="182.75723" x2="222.46553" y2="213.29171" stroke-miterlimit="10" stroke-width="6" fill="none" id="svg_21"/>
   <line stroke="#333333" x1="222.46553" y1="213.29171" x2="253.00001" y2="243.82619" stroke-miterlimit="10" stroke-width="6" fill="none" id="svg_22"/>
   <line stroke="#333333" x1="253.00001" y1="64.98136" x2="222.46553" y2="34.44688" stroke-miterlimit="10" stroke-width="6" fill="none" id="svg_23"/>
   <rect stroke="#333333" x="226.82759" y="3.91239" width="21.81035" height="26.17241" stroke-miterlimit="10" stroke-width="6" fill="none" id="svg_24"/>
   <polygon points="44.91668602438767,208.9296417236328 40,217.65377807617188 40,226.37791442871094 84.25017421948905,226.37791442871094 84.25017421948905,226.20779418945312 84.25017421948905,217.65377807617188 84.25017421948905,213.12158203125 85.19663801631032,208.9296417236328 " fill="#546A79" id="svg_25"/>
   <polygon points="135.8532739361217,213.12158203125 135.8532739361217,226.20779418945312 135.8532739361217,226.37791442871094 180.10345458984375,226.37791442871094 180.10345458984375,217.65377807617188 175.18676966649946,208.9296417236328 134.90681470335767,208.9296417236328 " fill="#546A79" id="svg_26"/>
   <path d="m117.77587,95.42964l-17.44828,0l0,-15.22414c0,-8.41134 3.90405,-15.22414 8.72414,-15.22414l0,0c4.82009,0 8.72414,6.8128 8.72414,15.22414l0,15.22414z" fill="#38454F" id="svg_27"/>
   <line stroke="#38454F" x1="100.32759" y1="182.75723" x2="100.32759" y2="195.84343" stroke-miterlimit="10" stroke-width="2" fill="none" id="svg_28"/>
   <line stroke="#38454F" x1="117.77587" y1="182.75723" x2="117.77587" y2="195.84343" stroke-miterlimit="10" stroke-width="2" fill="none" id="svg_29"/>
   <polygon points="130.86207389831543,239.46412542883692 87.24138259887695,239.46412542883692 91.6034517288208,226.37791803900538 126.50000476837158,226.37791803900538 " fill="#38454F" id="svg_30"/>
   <line stroke="#38454F" x1="109.05173" y1="226.2078" x2="109.05173" y2="208.75952" stroke-miterlimit="10" stroke-width="2" fill="none" id="svg_31"/>
  </g>
 </g>
</svg>