<svg width="100%" height="100%"  viewBox="0 0 128 128" xmlns="http://www.w3.org/2000/svg">
 <g>
  <title>RocketLaunchPad</title>
  <g id="svg_4">
   <ellipse fill="#aaffd4" cx="48.86397" cy="37.05424" id="svg_22" rx="8.06364" ry="8.06364"/>
   <g id="svg_1">
     <path d="m55.47967,117.77973l15.33713,7.16249c0.72319,0.33678 1.59407,0.1875 2.16418,-0.38281s0.71939,-1.43718 0.377,-2.16598l-12.79215,-27.17796c0.62774,-20.73326 1.13682,-54.48619 0.25434,-62.11533c-1.31631,-11.4086 -10.57034,-25.19568 -10.96455,-25.7754c-0.35579,-0.52649 -0.94912,-0.84226 -1.58426,-0.84226l-0.81904,0c-0.63535,0 -1.23047,0.31577 -1.58446,0.84006c-0.39421,0.58172 -9.65004,14.3668 -10.96455,25.7754c-0.87247,7.56231 -0.39421,40.27607 0.22772,61.39214l-13.13253,27.90315c-0.34259,0.729 -0.1933,1.59387 0.377,2.16598c0.3674,0.3674 0.85907,0.56271 1.35474,0.56271c0.27555,0 0.5511,-0.05943 0.80944,-0.1797l15.24148,-7.11847l-2.0245,4.61731c-0.26014,0.59132 -0.20091,1.27449 0.15108,1.81399c0.35219,0.53969 0.95672,0.86687 1.60167,0.86687l15.70253,0c0.01521,0 0.02882,0 0.03822,0c1.05817,0 1.91344,-0.85727 1.91344,-1.91344c0,-0.39802 -0.11866,-0.76542 -0.32738,-1.07158l-2.13156,-5.01913c0.1895,0.28115 0.45345,0.51268 0.77502,0.66196zm-13.45991,-80.30561c0,-3.44047 2.78992,-6.23038 6.23058,-6.23038s6.23058,2.78992 6.23058,6.23038s-2.78992,6.23058 -6.23058,6.23058s-6.23058,-2.79012 -6.23058,-6.23058z" id="svg_3" fill="#3f3f3f"/>
   </g>
   <rect fill="#3f3f3f" x="81.11852" y="6.22269" width="18.97327" height="118.10859" id="svg_19"/>
   <rect fill="#3f3f3f" x="58.82493" y="33.73392" width="27.98557" height="5.69198" id="svg_20"/>
   <rect fill="#3f3f3f" x="57.87627" y="78.79543" width="33.20322" height="6.16631" id="svg_21"/>
  </g>
 </g>
</svg>