<svg width="100%" height="100%"  viewBox="0 0 102 102" xmlns="http://www.w3.org/2000/svg">
 <g>
  <title>Skate park</title>
  <path d="m87.06053,30.92694l0,13.99546c0,11.75139 -8.98635,21.27781 -20.07153,21.27781l-31.24383,0c-11.08519,0 -20.07153,-9.52642 -20.07153,-21.27781l0,-13.99546l-7.38158,0c-1.42461,0 -2.57934,1.22413 -2.57934,2.73435l0,42.38255l91.3089,0l0,-42.38255c0,-1.51022 -1.15473,-2.73435 -2.57934,-2.73435l-7.38177,0z" fill="#FFE97C" id="svg_1"/>
  <path d="m34.8676,67.04927l32.20182,0c11.42501,0 20.68684,-9.97651 20.68684,-22.28311l0,-14.65669l-1.06627,0c-3.32249,0 -6.01593,2.90127 -6.01593,6.48013l0,7.26617c0,8.53948 -6.42674,15.46212 -14.35448,15.46212l-30.70234,0c-7.92775,0 -14.35448,-6.92264 -14.35448,-15.46212l0,-7.26617c0,-3.57885 -2.69344,-6.48013 -6.01593,-6.48013l-1.06627,0l0,14.65669c0.00038,12.3066 9.26222,22.28311 20.68704,22.28311l0.00001,0z" fill="#aacECA" id="svg_2"/>
  <g id="svg_3">
   <path d="m87.08397,29.12753c-4.39316,0 -7.96729,3.7067 -7.96729,8.26281l0,6.99495c0,7.09123 -5.56284,12.86022 -12.40025,12.86022l-30.6985,0c-6.83741,0 -12.40025,-5.76918 -12.40025,-12.86022l0,-6.99495c0,-4.55591 -3.57413,-8.26281 -7.96729,-8.26281l-8.673,0c-2.54206,0 -4.61021,2.14486 -4.61021,4.78122l0,42.72822c0,1.11818 0.87415,2.02457 1.95215,2.02457l94.0957,0c1.078,0 1.95215,-0.90638 1.95215,-2.02457l0,-42.72822c0,-2.63636 -2.06814,-4.78122 -4.61021,-4.78122l-8.673,0l0.00001,0zm-67.37079,8.26281l0,6.99495c0,9.32383 7.31421,16.90953 16.30475,16.90953l30.6985,0c8.99035,0 16.30475,-7.58551 16.30475,-16.90953l0,-6.99495c0,-2.00789 1.36128,-3.69202 3.17658,-4.11265l0,11.9842c0,0.16734 -0.00191,0.33429 -0.00613,0.50063c-0.20805,8.48494 -5.68763,15.63513 -13.16148,18.05115c-0.14662,0.04744 -0.29381,0.0929 -0.44196,0.13657c-0.2961,0.08754 -0.59527,0.16734 -0.89712,0.23999c-1.35841,0.32595 -2.77271,0.49825 -4.2251,0.49825l-32.19779,0c-1.45239,0 -2.86688,-0.17231 -4.2251,-0.49825c-0.30185,-0.07245 -0.60083,-0.15245 -0.89712,-0.23999c-0.14796,-0.04367 -0.29534,-0.08932 -0.44196,-0.13657c-7.47384,-2.41602 -12.95361,-9.56621 -13.16148,-18.05115c-0.00402,-0.16635 -0.00613,-0.3333 -0.00613,-0.50063l0,-11.9842c1.81568,0.42043 3.17677,2.10476 3.17677,4.11265l0.00002,0zm76.7497,37.22225l-90.19139,0l0,-40.70386c0,-0.40376 0.31659,-0.73209 0.7059,-0.73209l5.65471,0l0,12.08505c0,12.94478 10.15448,23.47592 22.63609,23.47592l32.19798,0c12.48179,0 22.63609,-10.53114 22.63609,-23.47592l0,-12.08505l5.65471,0c0.38932,0 0.7059,0.32833 0.7059,0.73209l0,40.70386l0.00001,0z" fill="#4D1E1E" id="svg_4"/>
  </g>
 </g>
</svg>