<svg width="100%" height="100%"  viewBox="0 0 128 128" xmlns="http://www.w3.org/2000/svg">
 <g>
  <title>Roundhouse</title>
  <g id="svg_1">
   <path fill="#bfbfbf" d="m5.58228,107.57096c0,-0.83147 1.97525,-19.1238 1.97525,-19.95527c0,-0.83147 5.92576,-19.1238 5.92576,-19.53954c0,-0.41573 14.15598,-19.53954 14.15598,-19.53954c0,0 20.74015,-14.55072 20.62283,-14.75826c-0.11732,-0.20755 18.2238,-3.53407 18.2238,-3.53407c0,0 16.78964,4.15735 16.67233,3.9498c-0.11732,-0.20755 21.18668,14.34253 21.18668,14.34253c0,0 13.49756,19.95527 13.49756,19.95527c0,0 6.91338,19.53954 6.79607,19.33199c-0.11731,-0.20754 2.75098,20.57855 2.63367,20.37101c-0.11731,-0.20754 -121.68992,-0.62393 -121.68992,-0.62393z" id="svg_29"/>
   <path fill="#ffffaa" d="m29.94372,107.9867c0,0 0.65842,-19.1238 0.65842,-19.53954c0,-0.41573 3.95051,-18.70807 3.95051,-19.53954c0,-0.83147 8.23022,-18.70807 8.23022,-19.1238c0,-0.41573 13.82677,-17.46086 13.70945,-17.66841c-0.11732,-0.20755 19.54064,-0.62392 19.54064,-0.62392c0,0 14.48518,18.70807 14.48518,18.70807c0,0 7.90101,19.1238 7.90101,19.1238c0,0 2.96288,18.70807 2.96288,18.70807c0,0 0.98763,20.37101 0.98763,19.95527c0,-0.41573 -72.42592,0 -72.42592,0l0,0z" id="svg_31"/>
   <g id="svg_10">
    <g id="svg_11">
     <path d="m129.52851,107.17811c-0.12691,-21.08087 -6.68302,-40.87682 -18.5012,-55.80056c-11.93423,-15.07122 -27.80193,-23.37137 -44.67997,-23.37137s-32.74549,8.29983 -44.67972,23.37105c-11.93472,15.07091 -18.50713,35.10943 -18.50713,56.42322c0,1.79847 1.15454,3.25676 2.57894,3.25676l0.00025,0l0.00025,0l31.59441,0c1.4244,0 2.57894,-1.45829 2.57894,-3.25676s-1.15454,-3.25676 -2.57894,-3.25676l-4.74085,0c0.08666,-4.28602 0.34419,-8.50438 0.7659,-12.62046l18.54886,0c-0.17037,5.1681 -0.25851,10.48088 -0.25851,15.87754c0,1.79847 1.15454,3.25676 2.57894,3.25676c1.42416,0 2.57894,-1.45829 2.57894,-3.25676c0,-5.39697 0.08987,-10.71224 0.26296,-15.87754l18.55281,0c0.17358,5.1653 0.2632,10.48057 0.2632,15.87754c0,1.79847 1.15454,3.25676 2.57894,3.25676c1.42416,0 2.57894,-1.45829 2.57894,-3.25676c0,-5.39665 -0.08815,-10.70943 -0.25876,-15.87754l18.54886,0c0.42147,4.11609 0.67899,8.33444 0.7659,12.62046l-4.69888,0c-1.42416,0 -2.57894,1.45829 -2.57894,3.25676s1.15478,3.25676 2.57894,3.25676l31.59491,0c1.42416,0 2.57894,-1.45829 2.57894,-3.25676c0.00123,-0.21296 -0.01605,-0.42093 -0.04691,-0.62236zm-30.65839,-60.03762l-7.12424,0c-1.76094,-3.10429 -3.63891,-5.85438 -5.61466,-8.23249c4.53567,2.08346 8.80889,4.8616 12.7389,8.23249zm-32.52278,-12.61579c0.22938,0.12316 3.35373,2.21036 6.18526,20.72823c0.52369,3.42451 0.98985,7.11593 1.3965,11.02186l-15.16401,0c0.40666,-3.90562 0.87306,-7.59703 1.39675,-11.02186c2.83177,-18.51725 5.95662,-20.60507 6.1855,-20.72823zm-19.78388,4.3833c-1.97575,2.37811 -3.85372,5.12819 -5.61466,8.23249l-7.12424,0c3.93026,-3.37088 8.20347,-6.14903 12.7389,-8.23249zm-19.12884,65.63539l-19.05576,0c0.15012,-4.31346 0.59727,-8.53026 1.31552,-12.62046l18.46812,0c-0.40122,4.12762 -0.64541,8.34473 -0.72788,12.62046zm1.50169,-19.1343l-17.84369,0c1.1212,-4.40138 2.56042,-8.62411 4.28901,-12.62046l15.91486,0c-0.95997,4.05622 -1.74909,8.27614 -2.36018,12.62046zm4.09124,-19.1343l-14.46527,0c2.52314,-4.61559 5.4517,-8.85203 8.72444,-12.62046l10.37329,0c-1.75946,3.91716 -3.30707,8.14487 -4.63246,12.62046zm19.14217,19.1343l-17.99356,0c0.65011,-4.36677 1.48959,-8.58981 2.51326,-12.62046l16.28349,0c-0.32641,4.04998 -0.59529,8.2699 -0.80319,12.62046zm1.39354,-19.1343l-15.00427,0c1.24713,-3.88037 2.67721,-7.53779 4.28408,-10.91865c0.27579,-0.57995 0.55603,-1.14462 0.83874,-1.70181l11.47276,0c-0.60443,3.90001 -1.13651,8.1271 -1.59131,12.62046zm2.7298,-19.1343l-8.80321,0c3.56978,-5.26539 7.53534,-8.97145 11.71053,-10.94952c-1.06269,2.87917 -2.03031,6.52101 -2.90732,10.94952zm1.04565,38.2686c0.21234,-4.35773 0.48616,-8.58077 0.81998,-12.62046l16.37731,0c0.33382,4.04001 0.60764,8.26273 0.81998,12.62046l-18.01727,0zm19.06316,-38.2686c-0.87701,-4.42851 -1.84513,-8.07035 -2.90732,-10.94952c4.17544,1.97807 8.141,5.68351 11.71078,10.94952l-8.80345,0zm1.13824,6.51384l11.47276,0c0.28271,0.55719 0.56319,1.12155 0.83874,1.70181c1.60637,3.38117 3.03646,7.0386 4.28408,10.91865l-15.00427,0c-0.4548,-4.49337 -0.98689,-8.72045 -1.59131,-12.62046zm2.98461,31.75476c-0.2079,-4.35056 -0.47653,-8.57048 -0.80319,-12.62046l16.28349,0c1.02392,4.03065 1.86316,8.25369 2.51326,12.62046l-17.99356,0zm19.14242,-19.1343c-1.32564,-4.47559 -2.873,-8.70331 -4.63246,-12.62046l10.37329,0c3.27275,3.76843 6.20155,8.00487 8.72469,12.62046l-14.46552,0zm1.73131,6.51384l15.91461,0c1.72884,3.99667 3.16806,8.21908 4.28926,12.62046l-17.84369,0c-0.61134,-4.34433 -1.40021,-8.56424 -2.36018,-12.62046zm3.86187,31.75476c-0.08247,-4.27604 -0.32666,-8.49315 -0.72813,-12.62046l18.46812,0c0.71825,4.09052 1.1654,8.30701 1.31552,12.62046l-19.05551,0z" id="svg_12" fill="#3f3f3f"/>
    </g>
   </g>
  </g>
 </g>
</svg>