<svg width="100%" height="100%" viewBox="0 0 128 128" xmlns="http://www.w3.org/2000/svg">
 <g>
   <title>Sawmill</title>
     <g id="iconos_0">
         <path fill="#333" id="svg_1" d="m75.83036,4.70734l-1.30635,9.33259c-0.46559,-0.25588 -0.95066,-0.51175 -1.42824,-0.74763l-15.60448,-13.29231l-5.08276,0l3.67351,9.68043c-0.84076,0.03247 -1.68152,0.07689 -2.50804,0.16885l-17.22605,-3.39081l-4.4808,2.49641l6.99832,6.04387c-0.92443,0.57384 -1.82239,1.18249 -2.69187,1.83581l-16.66704,5.98178l-2.69912,4.47874l8.94261,1.62696c-0.69514,1.27444 -1.33757,2.5811 -1.88933,3.94231l-11.19462,13.97291l-0.08118,5.28611l8.47927,-3.42796c0.03347,1.2295 0.11939,2.4468 0.26277,3.64409l-2.93341,18.06173l2.48656,4.61044l5.6655,-7.3978c0.59248,0.98636 1.22542,1.94024 1.89907,2.86192l0.95066,6.53068l30.93844,0l10.50947,0l10.57392,0l14.69403,-5.74305l2.58197,-4.55329l-8.96883,-1.36874c0.45385,-0.88686 0.87423,-1.79347 1.26139,-2.72242l11.32625,-13.90849l0.12189,-5.28352l-8.49825,3.3534c-0.01923,-0.9861 -0.0527,-1.96986 -0.14337,-2.93621l3.42273,-17.87547l-2.35517,-4.6824l-5.86857,7.21882c-0.77157,-1.37602 -1.62407,-2.69021 -2.551,-3.94699l-6.22675,-17.16759l-4.38313,-2.68319zm-18.33906,48.16133c-2.80627,0 -5.08276,-2.36731 -5.08276,-5.28611c0,-2.91881 2.27624,-5.28611 5.08276,-5.28611c2.80652,0 5.08301,2.36731 5.08301,5.28611c-0.00025,2.91881 -2.27649,5.28611 -5.08301,5.28611z"/>
         <polygon fill="#333" id="svg_2" points="72.80178288543914,81.97437325336796 54.65130674639533,81.97437325336796 42.08289788366471,81.97437325336796 39.58210680251147,81.97437325336796 30.118958855222097,81.97437325336796 4.580999851226807,81.97437325336796 4.580999851226807,126.68799062601465 109.67573863032032,126.68799062601465 109.67573863032032,81.97437325336796 75.59382080991293,81.97437325336796 "/>
         <polygon fill="#333" id="svg_3" points="103.4057752457262,61.79133697587349 118.33409687787355,49.53500465187699 111.65574151050771,46.26602598938871 "/>
         <polygon fill="#333" id="svg_4" points="121.16459877772934,63.64195534242299 105.11351934495463,69.64114290395355 124.10700142245389,70.68205677337846 "/>
     </g>
 </g>
</svg>