<svg width="100%" height="100%" viewBox="0 0 128 128" xmlns="http://www.w3.org/2000/svg">
 <g>
   <title>Sawmill</title>
     <path d="m3.29149,88.2184l0,0c1.71763,0.42953 2.57669,1.71763 2.57669,3.00597l114.44303,0c0,-1.28835 0.85881,-2.79121 2.57669,-3.00597l0,0c3.65027,-0.85881 3.22074,-6.22671 -0.64405,-6.22671l0,0c-3.43551,0 -4.50909,-4.72385 -1.28835,-6.01195l0,0c3.43551,-1.50311 1.71763,-6.65625 -1.93239,-6.01195l0,0c-3.43551,0.64405 -5.3679,-3.65027 -2.57669,-5.58267l0,0c3.00597,-2.14716 0.42953,-6.87076 -3.22074,-5.3679l0,0c-3.22074,1.28835 -6.01195,-2.57669 -3.65027,-4.93837l0,0c2.57669,-2.79121 -1.07358,-6.87076 -4.29432,-4.72385l-0.21477,0c-2.79121,1.93239 -6.22671,-1.28835 -4.50909,-4.07955l0,-0.21477c1.93239,-3.22074 -2.57669,-6.44148 -5.15313,-3.65027l-0.21477,0.21477c-2.36193,2.57669 -6.44148,0.21477 -5.3679,-3.00597l0,-0.21477c1.07358,-3.65027 -3.86479,-5.79743 -5.79743,-2.57669l0.42953,0c-1.71763,3.00597 -6.22671,1.50311 -5.79743,-1.93239l0,-0.21477c0.42953,-3.86479 -4.93837,-4.93837 -6.22671,-1.28835l0,0.21477c-1.07358,3.22074 -5.79743,2.79121 -6.22671,-0.64405l0,-0.21477c-0.42953,-3.86479 -5.79743,-3.86479 -6.22671,0l0,0.21477c-0.42953,3.43551 -5.15313,3.86479 -6.22671,0.64405l0,-0.21477c-1.07358,-3.65027 -6.44148,-2.36193 -6.22671,1.28835l0,0.21477c0.42953,3.43551 -4.07955,4.93837 -5.79743,1.93239l-0.21477,-0.21477c-1.93239,-3.22074 -6.87101,-1.07358 -5.79743,2.57669l0,0.21477c1.07358,3.22074 -3.00597,5.58267 -5.3679,3.00597l-0.21477,-0.21477c-2.57669,-2.79121 -7.08553,0.42953 -5.15313,3.65027l0,0.21477c1.71763,3.00597 -1.71763,6.22671 -4.50909,4.07955l-0.21477,0c-3.00597,-2.14716 -6.65625,1.93239 -4.29432,4.72385l0,0c2.36193,2.57669 -0.42953,6.44148 -3.65027,4.93837l0,0c-3.43551,-1.50311 -6.22671,3.22074 -3.22074,5.3679l0,0c2.79121,1.93239 0.85881,6.44148 -2.57669,5.58267l0,0c-3.65027,-0.85881 -5.3679,4.50909 -1.93239,6.01195l0,0c3.22074,1.28835 2.14716,6.01195 -1.28835,6.01195l0,0c-3.21975,0.21477 -3.8638,5.58267 0.00099,6.44148" fill="#555555" id="svg_1"/>
     <path d="m62.98244,63.31155c-15.4594,0 -27.91308,12.45343 -27.91308,27.91308l55.82591,0c0,-15.45965 -12.45343,-27.91308 -27.91283,-27.91308" fill="#bfbfbf" id="svg_2"/>
     <g id="svg_3">
         <path d="m65.12935,74.04735c0,1.28835 -0.85881,2.14716 -2.14716,2.14716s-2.14716,-0.85881 -2.14716,-2.14716s0.85881,-2.14716 2.14716,-2.14716s2.14716,0.85881 2.14716,2.14716" fill="#555555" id="svg_4"/>
         <path d="m76.72421,80.70334c-0.85881,0.85881 -2.14716,0.85881 -3.00597,0c-0.85881,-0.85881 -0.85881,-2.14716 0,-3.00597c0.85881,-0.85881 2.14716,-0.85881 3.00597,0c0.85881,0.64405 0.85881,2.14716 0,3.00597" fill="#555555" id="svg_5"/>
         <path d="m49.24066,80.70334c-0.85881,-0.85881 -0.85881,-2.14716 0,-3.00597c0.85881,-0.85881 2.14716,-0.85881 3.00597,0c0.85881,0.85881 0.85881,2.14716 0,3.00597c-0.6443,0.6443 -2.14716,0.6443 -3.00597,0" fill="#555555" id="svg_6"/>
     </g>
     <path d="m0.71505,101.96018l126.68194,0l0,-10.7358l-126.68194,0l0,10.7358z" fill="#514439" id="svg_7"/>
     <path d="m62.98244,84.7829c-3.65027,0 -6.44148,2.79121 -6.44148,6.44148l12.88296,0c-0.00025,-3.65002 -2.79146,-6.44148 -6.44148,-6.44148" fill="#555555" id="svg_8"/>
 </g>
</svg>