<svg width="100%" height="100%" viewBox="0 0 160 160" xmlns="http://www.w3.org/2000/svg">
    <g>
    <title>School</title>
    <rect fill="#9A8984" height="66.62844" width="145.56356" y="56.37156" x="7.27429" id="svg_11"/>
    <g id="svg_1">
        <path id="svg_11" d="m153.18834,48.85604l-62.66561,0l-5.37107,-4.49522l0,-6.22416l19.33691,0c2.86444,0 5.37107,-2.4205 5.37107,-5.18679l0,-11.41095c0,-2.76629 -2.50664,-5.18679 -5.37107,-5.18679l-19.33691,0c-0.71647,-2.4205 -2.50664,-4.14943 -5.37166,-4.14943c-2.86473,0 -5.37136,2.4205 -5.37136,5.18679l0,26.97133l-5.37136,4.49522l-62.66591,0c-2.86473,0 -5.37136,2.4205 -5.37136,5.18679l0,16.25196l0,0l0,47.37272c0,2.76601 2.50664,5.18651 5.37136,5.18651l44.76136,0l0,0l19.695,0l17.90425,0l19.695,0l0,0l44.76136,0c2.86502,0 5.37166,-2.4205 5.37166,-5.18651l0,-47.37272l0,0l0,-16.25196c0.00029,-2.76629 -2.50664,-5.18679 -5.37166,-5.18679zm-141.44561,26.62582l34.01863,0l0,36.99885l-34.01863,0l0,-36.99885zm76.98926,3.45758l-17.90425,0c-2.86473,0 -5.37136,2.4205 -5.37136,5.18679l0,28.70026l-8.95227,0l0,-40.11093l23.27591,-19.36403l23.27591,19.36403l0,40.11093l-8.95227,0l0,-28.70026c0,-3.11179 -2.50664,-5.18679 -5.37166,-5.18679l-0.00001,0zm59.08529,33.88705l-34.01834,0l0,-37.34464l34.01834,0l0,37.34464z" fill="#333"/>
    </g>
</g>
</svg>