<svg width="100%" height="100%" viewBox="0 0 128 128" xmlns="http://www.w3.org/2000/svg">
 <g id="School">
   <title>School</title>
   <rect id="svg_11" x="10" y="44" width="110" height="50" fill="#888"/>
  <g id="svg_1">
   <path fill="#333" d="m122.27931,42.14624l-49.9384,0l-4.28022,-3.64322l0,-5.04446l15.40964,0c2.28268,0 4.28022,-1.96173 4.28022,-4.20371l0,-9.24817c0,-2.24198 -1.99755,-4.20371 -4.28022,-4.20371l-15.40964,0c-0.57096,-1.96173 -1.99755,-3.36297 -4.28069,-3.36297c-2.28291,0 -4.28045,1.96173 -4.28045,4.20371l0,21.85931l-4.28045,3.64322l-49.93864,0c-2.28291,0 -4.28045,1.96173 -4.28045,4.20371l0,13.17164l0,0l0,38.39392c0,2.24175 1.99755,4.20348 4.28045,4.20348l35.67045,0l0,0l15.695,0l14.26795,0l15.695,0l0,0l35.67045,0c2.28314,0 4.28069,-1.96173 4.28069,-4.20348l0,-38.39392l0,0l0,-13.17164c0.00023,-2.24198 -1.99755,-4.20371 -4.28069,-4.20371zm-112.7184,21.57929l27.10954,0l0,29.98626l-27.10954,0l0,-29.98626zm61.35295,2.80225l-14.26795,0c-2.28291,0 -4.28045,1.96173 -4.28045,4.20371l0,23.26055l-7.13409,0l0,-32.50849l18.54864,-15.69386l18.54864,15.69386l0,32.50849l-7.13409,0l0,-23.26055c0,-2.522 -1.99755,-4.20371 -4.28069,-4.20371zm47.08523,27.46426l-27.10931,0l0,-30.26651l27.10931,0l0,30.26651z" id="svg_11"/>
  </g>
 </g>
</svg>