<svg width="100%" height="100%" viewBox="0 0 128 128" xmlns="http://www.w3.org/2000/svg">
 <g>
  <title>Settlement</title>
  <rect id="svg_24" height="12.63647" width="27.40869" y="14.73877" x="63.68286" fill="#cccccc"/>
  <rect id="svg_19" height="62.47046" width="40.40112" y="61.54712" x="43.57129" fill="#9A8984"/>
  <path id="svg_23" d="m35.38428,64.57275l0.21143,-5.48389l27.94263,-15.30615l28.12061,16.19604l-0.35596,4.09351l-55.9187,0.50049z" fill="#6b8452"/>
  <rect id="svg_21" height="24.91699" width="33.63794" y="101.94824" x="93.85022" fill="#4c4c4c"/>
  <rect id="svg_20" height="24.91699" width="33.63794" y="101.05835" x="-0.03345" fill="#4c4c4c"/>
  <g id="svg_28">
   <rect id="svg_2" height="21.5354" width="13.17041" y="75.34045" x="69.73413" fill="#4c4c4c"/>
   <rect id="svg_1" height="21.5354" width="13.17041" y="74.36157" x="44.10522" fill="#4c4c4c"/>
   <g id="svg_4">
     <path id="svg_6" d="m127.62256,103.14896l0,-13.51088l-33.85911,0.07027c-0.0137,0 -0.02742,-0.00113 -0.04138,-0.00113c-3.27631,0 -5.94168,3.00548 -5.94168,6.70049c0,2.99451 1.75132,5.53619 4.1597,6.39184l0,20.61588l-4.24096,0l0,-8.97231l-47.7767,0l0,8.97231l-4.24021,0l0,-20.61615c2.40788,-0.85594 4.15895,-3.39733 4.15895,-6.39156c0,-3.69472 -2.66512,-6.70049 -5.94168,-6.70049c-0.0137,-0.00028 -33.89949,-0.06943 -33.89949,-0.06943l0,13.51088l31.77552,0l0,20.26647l-31.77552,0l0,4.4059l127.62256,0l0,-4.40563l-31.77552,0l0,-20.26647l31.77552,0l-0.00001,0zm-3.9067,-9.10527l0,4.69937l-3.22446,0l-4.16718,-4.69937l7.39164,0zm-12.91729,0l4.16742,4.69937l-4.4451,0l-4.16718,-4.69937l4.44485,0l0.00001,0zm-9.97051,0l4.16718,4.69937l-5.70463,0c0.24104,-0.72776 0.37314,-1.51455 0.37314,-2.33563c0,-0.83177 -0.13635,-1.62839 -0.38286,-2.36374l1.54718,0zm-93.69739,4.69937l-3.22397,0l0,-4.69937l7.39114,0l-4.16718,4.69937zm9.97027,0l-4.4451,0l4.16718,-4.69937l4.4451,0l-4.16718,4.69937zm11.23004,0l-5.70487,0l4.16742,-4.69937l1.54718,0c-0.24702,0.73535 -0.38286,1.53197 -0.38286,2.36374c0,0.82136 0.13236,1.60787 0.37314,2.33563zm5.56853,-0.04132c-1.12193,0 -2.03498,-1.02909 -2.03498,-2.29431c0,-1.26521 0.9128,-2.29487 2.03498,-2.29487c1.12193,0 2.03498,1.02937 2.03498,2.29487c-0.00025,1.26494 -0.91305,2.29431 -2.03498,2.29431zm9.92964,24.7137l0,-4.5664l39.96306,0l0,4.5664l-39.96306,0zm49.89294,-24.7137c-1.12193,0 -2.03498,-1.02909 -2.03498,-2.29431c0,-1.26521 0.9128,-2.29487 2.03498,-2.29487s2.03498,1.02937 2.03498,2.29487c0,1.26494 -0.9128,2.29431 -2.03498,2.29431z"/>
     <path id="svg_9" d="m39.52884,62.16813l0,3.91278l2.08358,0l0,50.08488l3.9067,0l0,-12.26034l35.9427,0l0,12.26034l3.9067,0l0,-50.08488l2.08358,0l0,-3.91278l-47.92326,0zm5.99054,14.08628l9.89722,0l0,17.9993l-9.89722,0l0,-17.9993zm35.9427,17.9993l-9.89722,0l0,-17.9993l9.89722,0l0,17.9993zm0,-21.91207l-13.80417,0l0,25.82509l13.80417,0l0,1.82595l-35.9427,0l0,-1.82595l13.80417,0l0,-25.82509l-13.80417,0l0,-6.26073l35.9427,0l0,6.26073z"/>
     <path id="svg_12" d="m65.27843,42.98704l0,-4.80102l-3.9067,0l0,4.94983l-27.86858,15.90324l0,7.05887l59.90458,0l0,-7.05887l-28.12931,-16.05203l0,-0.00001zm24.22236,19.19787l-52.09094,0l0,-0.87203l26.04547,-14.86295l26.04547,14.86295l0,0.87203l-0.00001,0z"/>
     <polygon id="svg_15" points="61.37173080444336,12.814453125 61.37173080444336,40.98725509643555 65.27842712402344,40.98725509643555 65.27842712402344,16.727232217788696 89.50079345703125,16.727232217788696 89.50079345703125,24.813897132873535 67.36202239990234,24.813897132873535 67.36202239990234,28.726924896240234 93.40747833251953,28.726924896240234 93.40747833251953,12.814453125 "/>
   </g>
  </g>
 </g>
</svg>