<svg width="100%" height="100%"  viewBox="0 0 512 512" xmlns="http://www.w3.org/2000/svg">
 <g>
  <title>Trader</title>
  <circle id="svg_1" fill="#EDC92C" r="236.82899" cy="254.50001" cx="256.00001" stroke-width="24" stroke="#BB813C" />
  <g id="svg_2">
   <path id="svg_3" fill="#BB813C" d="m376.236,330.487c0,66.4 -53.832,85.113 -120.236,85.113s-120.236,-18.713 -120.236,-85.113c0,-66.408 53.832,-155.362 120.236,-155.362s120.236,88.955 120.236,155.362z"/>
   <polygon id="svg_4" fill="#BB813C" points="253.31100463867188,170.87400817871094 256.6580047607422,170.87400817871094 272.9219970703125,170.87400817871094 311.6490173339844,122.45700073242188 311.6490173339844,103.91999816894531 284.8740234375,103.91999816894531 284.8740234375,93.39999389648438 256.6580047607422,93.39999389648438 253.31100463867188,93.39999389648438 225.09600830078125,93.39999389648438 225.09600830078125,103.91999816894531 198.32101440429688,103.91999816894531 198.32101440429688,122.45700073242188 237.05499267578125,170.87400817871094 "/>
  </g>
  <g id="svg_5" fill="#A06D35">
   <polygon id="svg_6" points="284.6155090332031,104.76199340820312 259.4104766845703,166.8800048828125 300.1495056152344,104.85501098632812 "/>
   <polygon id="svg_7" points="225.04348754882812,104.76199340820312 250.24850463867188,166.8800048828125 209.50848388671875,104.85501098632812 "/>
   <polygon id="svg_8" points="237.09649658203125,202.89599609375 253.39649963378906,185.93701171875 227.05850219726562,202.86700439453125 "/>
   <polygon id="svg_9" points="275.6105041503906,202.89599609375 259.3134765625,185.93701171875 285.6514892578125,202.86700439453125 "/>
  </g>
  <polygon id="svg_11" fill="#A06D35" points="250.55099487304688,94.04150390625 259.10699462890625,94.04150390625 254.26400756835938,163.61651611328125 "/>
  <path id="svg_12" fill="#8D602F" d="m216.4438,308.50851c-6.903,0 -9.884,-3.358 -9.884,-7.831l0,-2.053c0,-4.286 2.98,-7.831 9.884,-7.831l18.085,0c0.191,0 -29.09,-44.943 -29.09,-44.943c-0.927,-1.488 2.797,-11.372 15.856,-11.372c5.587,0 9.884,2.797 13.044,9.51l20.699,38.967l21.263,-38.967c3.725,-7.087 8.014,-9.701 13.425,-9.701c11.181,0 15.287,10.254 14.543,11.563l-29.09,44.943l17.901,0c7.087,0 10.071,3.541 10.071,7.831l0,2.053c0,4.469 -2.988,7.831 -10.071,7.831l-25.915,0l0,9.884l25.915,0c7.087,0 10.071,3.358 10.071,7.831l0,2.053c0,4.286 -2.988,7.831 -10.071,7.831l-25.915,0l0,8.575c0,8.392 -3.171,12.688 -10.998,12.688l-2.806,0c-7.64,0 -10.628,-4.293 -10.628,-12.688l0,-8.575l-26.289,0c-6.903,0 -9.884,-3.541 -9.884,-7.831l0,-2.057c0,-4.469 2.98,-7.831 9.884,-7.831l26.286,0l0,-9.884l-26.286,0l0,0.004z"/>
 </g>
</svg>