<svg width="80%" height="80%" viewBox="0 0 128 128" xmlns="http://www.w3.org/2000/svg">
 <g>
  <title>shamway_plant</title>
  <g fill="#5b88ce" id="svg_1">
   <path d="m103.4649,19.72535l-2.62943,6.71531l-2.717,6.94346c-0.12444,0.31341 -0.58073,0.27884 -0.65678,-0.0507l-3.24243,-14.30402c-0.69365,-3.05807 1.64541,-5.92256 4.71961,-5.92256c0.12214,0 0.24658,0.00461 0.37333,0.01383c0.70979,0.053 1.36196,0.25349 1.93808,0.56691c2.06944,1.11307 3.14564,3.66185 2.21462,6.03779z" id="svg_2"/>
   <path d="m119.30833,35.34986c0,0.04609 0,0.09218 -0.0023,0.13827c-0.09218,3.26087 -3.31156,5.50314 -6.4019,4.45921l-9.02442,-3.05116l-4.87171,-1.64541c-0.32033,-0.10831 -0.3065,-0.56691 0.01844,-0.65678l14.1358,-3.91534c2.23306,-0.61991 4.44077,0.42403 5.49853,2.24919c0.4102,0.70518 0.64756,1.53019 0.64756,2.42203z" id="svg_3"/>
   <path d="m90.00893,33.43251l-1.90813,7.20386l-1.8459,6.97572c-0.08527,0.32724 -0.54386,0.34567 -0.65678,0.02535l-4.85327,-13.84082c-0.18897,-0.53925 -0.27654,-1.08081 -0.27654,-1.61315c0,-2.50499 1.97035,-4.73344 4.662,-4.83714c0.91258,-0.03687 1.76064,0.17745 2.49116,0.57382c1.88278,1.01859 2.98893,3.24243 2.38746,5.51236z" id="svg_4"/>
   <path d="m101.69274,52.44693l-8.63265,-1.85512l-5.70594,-1.22599c-0.33185,-0.07144 -0.37102,-0.52773 -0.05761,-0.65448l13.59654,-5.50314c0.60378,-0.24428 1.21908,-0.3572 1.82055,-0.3572c1.72837,0 3.34152,0.93793 4.2011,2.42664c0.34107,0.58995 0.5646,1.26747 0.62913,2.00722c0.28115,3.25165 -2.6617,5.84651 -5.85112,5.16208z" id="svg_5"/>
   <path d="m77.98175,50.33371l-0.90567,7.85604l-0.77201,6.71301c-0.03918,0.33646 -0.49086,0.42172 -0.64756,0.11983l-6.79136,-12.99968c-0.38024,-0.72592 -0.55538,-1.49101 -0.55538,-2.23997c0,-2.23536 1.56706,-4.32785 3.97065,-4.77262c1.14764,-0.21432 2.2515,-0.00691 3.18021,0.49547c1.66385,0.89875 2.76079,2.74696 2.52112,4.82793z" id="svg_6"/>
   <path d="m92.27656,67.46996l-8.06344,-0.54386l-6.57013,-0.44477c-0.33876,-0.02304 -0.44477,-0.46781 -0.1521,-0.64065l12.66553,-7.39744c0.77892,-0.45399 1.61545,-0.666 2.43816,-0.666c1.70302,0 3.33461,0.90797 4.21032,2.42664c0.23045,0.39868 0.4079,0.84114 0.52082,1.32048c0.74435,3.1756 -1.7952,6.16684 -5.04916,5.94561z" id="svg_7"/>
   <path d="m39.58189,39.26981l-0.9725,7.81456l-0.83653,6.74066c-0.04148,0.33646 -0.49316,0.41711 -0.64756,0.11522l-6.67383,-13.0619c-0.36411,-0.71439 -0.53464,-1.46566 -0.53464,-2.2008c0,-2.2538 1.5901,-4.3555 4.01213,-4.78184c1.13612,-0.20049 2.22615,0.00922 3.14334,0.50469c1.67537,0.91028 2.77001,2.77923 2.5096,4.86941z" id="svg_8"/>
   <path d="m53.72229,56.53742l-8.10031,-0.62221l-6.52404,-0.50008c-0.33876,-0.02535 -0.43785,-0.47242 -0.14518,-0.64065l12.73236,-7.28222c0.7674,-0.44016 1.59241,-0.64296 2.40129,-0.64296c1.70302,0 3.33461,0.90797 4.20801,2.42433c0.23736,0.4102 0.41942,0.86649 0.53003,1.36196c0.7167,3.18251 -1.85051,6.15071 -5.10216,5.90182z" id="svg_9"/>
   <path d="m29.92834,55.87603l-0.07835,8.3515l-0.05992,6.31433c-0.0023,0.33876 -0.44246,0.47012 -0.62913,0.18666l-8.12105,-12.21384c-0.55538,-0.83653 -0.81349,-1.76294 -0.81349,-2.67552c0,-2.0487 1.30665,-4.01444 3.47058,-4.65739c1.30204,-0.38716 2.60639,-0.2028 3.68028,0.37794c1.50714,0.81579 2.56952,2.41281 2.55108,4.31633z" id="svg_10"/>
   <path d="m45.94461,71.41757l-7.6348,0.28806l-7.02181,0.26502c-0.33876,0.01383 -0.49086,-0.41942 -0.21662,-0.61991l11.81747,-8.68796c0.87571,-0.64526 1.87586,-0.94484 2.86219,-0.94484c1.68689,0 3.3277,0.88262 4.21032,2.42894c0.14979,0.2558 0.27654,0.53234 0.37794,0.82501c1.0762,3.07881 -1.13612,6.32124 -4.39468,6.44568z" id="svg_11"/>
   <path d="m24.41368,89.75677c0.04609,0.33415 -0.36872,0.52773 -0.59687,0.27424l-9.78951,-10.92102c-0.84114,-0.94024 -1.23982,-2.09018 -1.23982,-3.2263c0,-1.80442 1.00015,-3.57428 2.8161,-4.41312c1.46797,-0.67983 3.05577,-0.55769 4.33476,0.13366c1.29974,0.70057 2.28376,1.98878 2.50499,3.61806l1.21908,9.00137l0.75127,5.5331z" id="svg_12"/>
   <path d="m40.52673,88.30033l-7.05868,1.29974l-7.36748,1.35505c-0.33185,0.05992 -0.54386,-0.34567 -0.30419,-0.58304l10.4486,-10.2965c0.95867,-0.94484 2.18236,-1.39422 3.39453,-1.39422c1.65924,0 3.30004,0.84345 4.21032,2.42664c0.03457,0.05992 0.06913,0.12214 0.1014,0.18436c1.50484,2.89215 -0.21662,6.41803 -3.42449,7.00798z" id="svg_13"/>
  </g>
  <path d="m103.69535,19.72535l-2.62943,6.71531l-1.71916,-7.58411c-0.47703,-2.10631 0.48394,-4.12044 2.13397,-5.16899c2.06944,1.11307 3.14564,3.66185 2.21462,6.03779z" fill="#739ad6" id="svg_14"/>
  <path d="m119.53878,35.34986c0,0.04609 0,0.09218 -0.0023,0.13827c-0.09218,3.26087 -3.31156,5.50314 -6.4019,4.45921l-9.02442,-3.05116l13.71407,-3.79551c0.3595,-0.09909 0.71439,-0.15671 1.06698,-0.17284c0.4102,0.70518 0.64756,1.53019 0.64756,2.42203z" fill="#739ad6" id="svg_15"/>
  <path d="m90.23938,33.43251l-1.90813,7.20386l-2.4589,-7.01259c-0.18897,-0.53695 -0.27654,-1.08081 -0.27654,-1.61084c0,-1.66846 0.87571,-3.21478 2.2561,-4.09279c1.88278,1.01859 2.98893,3.24243 2.38746,5.51236z" fill="#739ad6" id="svg_16"/>
  <path d="m101.92319,52.44693l-8.63265,-1.85512l12.26454,-4.96159c0.52773,-0.21201 1.06237,-0.32724 1.5901,-0.35259c0.34107,0.58995 0.5646,1.26747 0.62913,2.00722c0.28115,3.25165 -2.6617,5.84651 -5.85112,5.16208z" fill="#739ad6" id="svg_17"/>
  <path d="m78.2122,50.33371l-0.90567,7.85604l-3.31156,-6.33968c-0.38024,-0.72592 -0.55538,-1.49332 -0.55538,-2.24228c0,-1.64541 0.84806,-3.21247 2.2515,-4.10201c1.66385,0.89875 2.76079,2.74696 2.52112,4.82793z" fill="#739ad6" id="svg_18"/>
  <path d="m92.50701,67.46996l-8.06344,-0.54386l10.37485,-6.06083c0.70979,-0.41251 1.46566,-0.62682 2.21693,-0.66139c0.23045,0.39868 0.4079,0.84114 0.52082,1.32048c0.74435,3.1756 -1.7952,6.16684 -5.04916,5.94561z" fill="#739ad6" id="svg_19"/>
  <path d="m39.81234,39.26981l-0.9725,7.81456l-3.25856,-6.37885c-0.36642,-0.71439 -0.53695,-1.46797 -0.53695,-2.2031c0,-1.65002 0.85266,-3.21708 2.25841,-4.10201c1.67537,0.91028 2.77001,2.77923 2.5096,4.86941z" fill="#739ad6" id="svg_20"/>
  <path d="m53.95274,56.53742l-8.10031,-0.62221l10.49238,-6.00322c0.69826,-0.40098 1.44262,-0.60378 2.18006,-0.63835c0.23736,0.4102 0.41942,0.86649 0.53003,1.36196c0.7167,3.18251 -1.85051,6.15071 -5.10216,5.90182z" fill="#739ad6" id="svg_21"/>
  <path d="m30.15879,55.87603l-0.07835,8.3515l-3.91304,-5.88569c-0.55538,-0.83653 -0.81349,-1.76294 -0.81349,-2.67552c0,-1.63159 0.82732,-3.20786 2.2538,-4.10662c1.50714,0.81579 2.56952,2.41281 2.55108,4.31633z" fill="#739ad6" id="svg_22"/>
  <path d="m46.17506,71.41757l-7.6348,0.28806l9.00829,-6.62083c0.81118,-0.59687 1.73068,-0.89875 2.64326,-0.93793c0.14979,0.2558 0.27654,0.53234 0.37794,0.82501c1.0762,3.07881 -1.13612,6.32124 -4.39468,6.44568z" fill="#739ad6" id="svg_23"/>
  <path d="m23.89286,84.22367l-4.73805,-5.28652c-0.84114,-0.93793 -1.23982,-2.09018 -1.23982,-3.2263c0,-1.60854 0.79505,-3.18712 2.2538,-4.10662c1.29974,0.70057 2.28376,1.98878 2.50499,3.61806l1.21908,9.00137z" fill="#739ad6" id="svg_24"/>
  <path d="m40.75718,88.30033l-7.05868,1.29974l7.20847,-7.10247c0.90106,-0.88723 2.03487,-1.33891 3.17329,-1.38961c0.03457,0.05992 0.06913,0.12214 0.1014,0.18436c1.50484,2.89215 -0.21662,6.41803 -3.42449,7.00798z" fill="#739ad6" id="svg_25"/>
  <path d="m121.05491,17.99191c-0.45629,-0.83838 -1.50576,-1.14787 -2.3446,-0.69089c-13.57695,7.39606 -24.95265,17.70178 -33.81138,30.63117c-6.87432,10.0331 -12.21246,21.58831 -15.8667,34.34487c-4.00499,13.98093 -5.34091,28.54099 -3.97065,43.27572c0.08319,0.89599 0.83653,1.56844 1.71893,1.56844c0.05346,0 0.10762,-0.00253 0.16201,-0.0076c0.95038,-0.08826 1.64933,-0.93056 1.56084,-1.88093c-1.33016,-14.30541 -0.03411,-28.43729 3.85197,-42.00387c5.68889,-19.85948 18.63533,-46.89171 48.00847,-62.89254c0.83861,-0.45652 1.14764,-1.50622 0.69112,-2.34437z" fill="#5d7752" id="svg_26"/>
  <path d="m53.76608,32.4652c-13.90903,12.91119 -23.45427,29.13647 -28.37069,48.22533c-4.29029,16.65761 -4.16538,32.33903 -3.30511,42.56087c0.07582,0.90198 0.83123,1.58365 1.72031,1.58365c0.04862,0 0.09771,-0.00207 0.14703,-0.00622c0.9513,-0.0802 1.6574,-0.91604 1.57743,-1.86734c-1.7369,-20.63656 -0.07328,-59.50562 30.58277,-87.96295c0.69965,-0.64941 0.74021,-1.74289 0.09103,-2.44254c-0.6501,-0.69965 -1.74358,-0.74044 -2.44277,-0.0908z" fill="#5d7752" id="svg_27"/>
  <path d="m122.03686,22.21191l-8.67874,2.77231l-5.29113,1.6915c-0.32263,0.1037 -0.58534,-0.27193 -0.37563,-0.53925l9.05438,-11.53863c0.9748,-1.24212 2.39668,-1.85743 3.81395,-1.85743c0.79505,0 1.5878,0.19358 2.30219,0.57843c0.64526,0.34567 1.22599,0.84806 1.68228,1.50484c1.86204,2.67783 0.60147,6.39498 -2.50729,7.38822z" fill="#5b88ce" id="svg_28"/>
  <path d="m58.20224,37.15197l-6.72453,4.20341l-5.71285,3.57197c-0.28576,0.17975 -0.63374,-0.11983 -0.49547,-0.43094l5.92487,-13.41679c0.8204,-1.85743 2.6133,-2.89215 4.44538,-2.89215c0.78123,0 1.56936,0.18897 2.29067,0.58073c0.3065,0.16362 0.59917,0.36642 0.87571,0.60608c2.46581,2.13627 2.16162,6.04931 -0.60378,7.77768z" fill="#5b88ce" id="svg_29"/>
  <path d="m122.03686,22.21191l-8.67874,2.77231l8.28467,-10.55921c0.35489,-0.45168 0.7674,-0.8204 1.21908,-1.10616c0.64526,0.34567 1.22599,0.84806 1.68228,1.50484c1.86204,2.67783 0.60147,6.39498 -2.50729,7.38822z" fill="#739ad6" id="svg_30"/>
  <path d="m58.20224,37.15197l-6.72453,4.20341l4.61591,-10.4486c0.4079,-0.92641 1.06007,-1.64772 1.83669,-2.13857c0.3065,0.16362 0.59917,0.36642 0.87571,0.60608c2.46581,2.13627 2.16162,6.04931 -0.60378,7.77768z" fill="#739ad6" id="svg_31"/>
 </g>
</svg>