<svg width="100%" height="100%"  viewBox="0 0 128 128" xmlns="http://www.w3.org/2000/svg">
 <g>
  <title>ShoppingCenter</title>
  <g id="svg_6">
   <rect fill="#7f0000" x="8.00941" y="53.85341" width="107.84312" height="66.27001" id="svg_26"/>
   <rect fill="#ffd4aa" x="24.06239" y="38.21204" width="77.38361" height="82.73461" id="svg_27"/>
   <rect fill="#3f3f3f" x="34.35276" y="22.15906" width="57.21448" height="99.61082" id="svg_28"/>
   <rect fill="#bfbfbf" x="41.76183" y="37.80043" width="41.98473" height="23.46205" id="svg_29"/>
   <rect fill="#aad4ff" x="42.17345" y="94.19168" width="41.98473" height="26.34336" id="svg_30"/>
   <g id="svg_1">
    <g id="svg_2">
     <g id="svg_3">
      <path d="m118.76712,119.25304l0,-63.67189l3.85848,0l0,-9.64702l-19.29445,0l0,-5.78854l3.85889,0l0,-9.64702l-13.50632,0l0,-5.78854l3.85889,0l0,-9.64702l-69.45961,0l0,9.64702l3.85889,0l0,5.78854l-13.50632,0l0,9.64702l3.85889,0l0,5.78854l-19.29445,0l0,9.64702l3.85889,0l0,63.67189l-3.85889,0l0,3.85889l28.94188,0l61.74224,0l28.94188,0l0,-3.85889l-3.85889,0zm-96.47267,0l-11.57667,0l0,-63.67189l11.57667,0l0,63.67189zm0,-67.53037l-15.43556,0l0,-1.92965l15.43556,0l0,1.92965zm9.64743,67.53037l-5.78854,0l0,-63.67189l0,-9.64702l0,-5.78854l5.78854,0l0,79.10745zm0,-82.96593l-9.64743,0l0,-1.92965l9.64743,0l0,1.92965zm0,-17.36521l61.74224,0l0,1.92965l-61.74224,0l0,-1.92965zm28.94188,100.33115l-0.00041,0l-17.3648,0l0,-23.15334l17.36521,0l0,23.15334zm21.22369,0l-17.36521,0l0,-23.15334l17.36521,0l0,23.15334zm7.71778,0l-3.85889,0l0,-27.01223l-46.30668,0l0,27.01223l-3.85889,0l0,-30.87112l54.02446,0l0,30.87112zm0,-88.75447l0,9.64702l0,44.37744l-54.02446,0l0,-44.37744l0,-9.64702l0,-5.78854l54.02446,0l0,5.78854zm3.85848,5.78854l0,-1.92965l9.64743,0l0,1.92965l-9.64743,0zm5.78895,9.64702l0,9.64702l0,63.67189l-5.78854,0l0,-79.10745l5.78854,0l0,5.78854zm15.43515,73.31891l-11.57667,0l0,-63.67189l11.57667,0l0,63.67189zm3.85889,-67.53037l-15.43556,0l0,-1.92965l15.43556,0l0,1.92965z" id="svg_4"/>
      <path d="m85.96635,36.28669l-46.30668,0l0,27.01223l46.30668,0l0,-27.01223zm-3.85889,23.15334l-38.5889,0l0,-19.29445l38.5889,0l0,19.29445z" id="svg_5"/>
      <rect x="55.09522" y="101.88782" width="3.85889" height="9.64743" id="svg_9"/>
      <rect x="66.67189" y="101.88782" width="3.85889" height="9.64743" id="svg_10"/>
     </g>
    </g>
   </g>
  </g>
 </g>
</svg>