<svg width="90%" height="90%"  viewBox="0 0 128 128" xmlns="http://www.w3.org/2000/svg">
 <g>
  <title>Shop</title>
  <circle id="svg_20" r="8.69718" cy="105.71875" cx="115.89061" fill="#ccc"/>
  <circle id="svg_19" r="8.30997" cy="105.29687" cx="62.73436" fill="#ccc"/>
  <path id="svg_18" d="m23.57813,21.90625c17.73437,0.3125 100.10937,-1.90625 100.10937,0.5625c0,2.46875 3.79687,53.90625 -0.84375,57.64062c-4.64062,3.73438 -74.625,2.01563 -80.10937,-1.42187" fill="#777"/>
  <g id="svg_1">
   <path fill="#222" d="m127.0005,79.57459l0,-55.55727c0,-2.48522 -2.04753,-4.4995 -4.57379,-4.4995l-95.88135,0l-2.78849,-7.54365c-0.6571,-1.7783 -2.37532,-2.96217 -4.29835,-2.96217l-11.88474,0c-2.52626,0 -4.57379,2.01427 -4.57379,4.4995s2.04753,4.4995 4.57379,4.4995l8.68156,0l29.07812,78.67018c0.6571,1.7788 2.37532,2.96217 4.29835,2.96217l3.47151,0c-0.94271,1.60282 -1.48546,3.46061 -1.48546,5.44189c0,6.01133 4.97171,10.90278 11.0828,10.90278c6.11109,0 11.08331,-4.89095 11.08331,-10.90278c0,-1.98128 -0.54276,-3.83907 -1.48546,-5.44189l34.02187,0c-0.94271,1.60282 -1.48546,3.46061 -1.48546,5.44189c0,6.01133 4.97171,10.90278 11.0828,10.90278c6.11109,0 11.08331,-4.89095 11.08331,-10.90278c0,-2.31374 -0.73892,-4.4605 -1.99316,-6.2273c1.20341,-0.81041 1.99316,-2.17076 1.99316,-3.71408c0,-2.48522 -2.04753,-4.4995 -4.57379,-4.4995l-69.59172,0l-2.42868,-6.57026l72.0199,0c2.52626,0 4.57379,-2.01427 4.57379,-4.4995zm-64.29985,27.41393c-1.06722,0 -1.93522,-0.8539 -1.93522,-1.90379s0.868,-1.90429 1.93522,-1.90429s1.93573,0.8544 1.93573,1.90429s-0.86902,1.90379 -1.93573,1.90379zm53.21654,0c-1.06722,0 -1.93522,-0.8539 -1.93522,-1.90379s0.868,-1.90429 1.93522,-1.90429s1.93573,0.8549 1.93573,1.90479s-0.86851,1.90329 -1.93573,1.90329zm-48.64275,-50.59083l0,-9.20347l22.11935,0l0,9.20347l-22.11935,0zm22.11935,8.99899l0,9.67842l-22.11935,0l0,-9.67842l22.11935,0zm-49.21346,-8.99049l-3.40493,-9.21197l21.35146,0l0,9.20347l-17.77425,0c-0.05844,0 -0.11485,0.0065 -0.17228,0.0085zm27.09411,-18.21096l0,-9.67842l22.11935,0l0,9.67792l-22.11935,0l0,0.0005zm31.26693,8.99899l19.31155,0l0,9.20347l-19.31155,0l0,-9.20347zm19.31155,-8.99899l-19.31155,0l0,-9.67842l19.31155,0l0,9.67842zm-59.72606,-9.67842l0,9.67792l-24.67762,0l-3.57721,-9.67792l28.25483,0zm-14.62393,36.87987l14.62342,0l0,9.67842l-11.0457,0l-3.57772,-9.67842zm55.03843,9.67842l0,-9.67842l19.31155,0l0,9.67842l-19.31155,0z" id="svg_2"/>
  </g>
 </g>
</svg>