<svg width="80%" height="80%"  viewBox="0 0 128 128" xmlns="http://www.w3.org/2000/svg">
 <g>
  <title>Skate park</title>
  <path d="m108.66598,31.32653l0,17.10343c0,14.36102 -11.27879,26.00297 -25.19182,26.00297l-39.21419,0c-13.91304,0 -25.19182,-11.64195 -25.19182,-26.00297l0,-17.10343l-9.26463,0c-1.78803,0 -3.23733,1.49597 -3.23733,3.34157l0,51.79443l114.60199,0l0,-51.79443c0,-1.8456 -1.4493,-3.34157 -3.23733,-3.34157l-9.26487,0z" fill="#FFE97C" id="svg_1"/>
  <path d="m44.15852,75.47054l40.41657,0c14.33955,0 25.96409,-12.19199 25.96409,-27.23151l0,-17.9115l-1.33828,0c-4.17006,0 -7.5506,3.54556 -7.5506,7.91917l0,8.87977c0,10.43584 -8.06621,18.89579 -18.01634,18.89579l-38.53457,0c-9.95013,0 -18.01634,-8.45995 -18.01634,-18.89579l0,-8.87977c0,-4.37361 -3.38054,-7.91917 -7.5506,-7.91917l-1.33828,0l0,17.9115c0.00048,15.03952 11.62503,27.23151 25.96434,27.23151z" fill="#FF9ECA" id="svg_2"/>
  <g id="svg_3">
   <path d="m108.6954,29.12753c-5.51386,0 -9.99976,4.52985 -9.99976,10.09773l0,8.54832c0,8.66598 -6.98193,15.71608 -15.56358,15.71608l-38.52975,0c-8.58165,0 -15.56358,-7.05034 -15.56358,-15.71608l0,-8.54832c0,-5.56764 -4.4859,-10.09773 -9.99976,-10.09773l-10.8855,0c-3.19055,0 -5.78629,2.62117 -5.78629,5.84298l0,52.21686c0,1.3665 1.09715,2.47416 2.45015,2.47416l118.0997,0c1.353,0 2.45015,-1.10766 2.45015,-2.47416l0,-52.21686c0,-3.22181 -2.59573,-5.84298 -5.78629,-5.84298l-10.8855,0zm-84.55721,10.09773l0,8.54832c0,11.39437 9.18008,20.66463 20.46412,20.66463l38.52975,0c11.28381,0 20.46412,-9.27002 20.46412,-20.66463l0,-8.54832c0,-2.45378 1.70855,-4.5119 3.98693,-5.02594l0,14.64553c0,0.2045 -0.0024,0.40852 -0.00769,0.61181c-0.26113,10.36919 -7.13856,19.10722 -16.519,22.05976c-0.18402,0.05798 -0.36876,0.11353 -0.5547,0.1669c-0.37164,0.10698 -0.74713,0.2045 -1.12598,0.29329c-1.70494,0.39833 -3.48004,0.6089 -5.30293,0.6089l-40.41151,0c-1.8229,0 -3.59823,-0.21057 -5.30293,-0.6089c-0.37885,-0.08854 -0.7541,-0.18631 -1.12598,-0.29329c-0.1857,-0.05337 -0.37068,-0.10916 -0.5547,-0.1669c-9.38043,-2.95254 -16.2581,-11.69057 -16.519,-22.05976c-0.00504,-0.20329 -0.00769,-0.40731 -0.00769,-0.61181l0,-14.64553c2.27886,0.5138 3.98717,2.57216 3.98717,5.02594zm96.3287,45.48819l-113.1994,0l0,-49.74295c0,-0.49342 0.39735,-0.89467 0.88598,-0.89467l7.09724,0l0,14.76877c0,15.81942 12.74491,28.68921 28.4106,28.68921l40.41175,0c15.66592,0 28.4106,-12.86979 28.4106,-28.68921l0,-14.76877l7.09724,0c0.48864,0 0.88598,0.40124 0.88598,0.89467l0,49.74295z" fill="#4D1E1E" id="svg_4"/>
   <path d="m116.16141,69.30086c-1.353,0 -2.45015,1.10766 -2.45015,2.47416l0,8.59053c0,1.3665 1.09715,2.47416 2.45015,2.47416c1.353,0 2.45015,-1.10766 2.45015,-2.47416l0,-8.59053c0,-1.3665 -1.09715,-2.47416 -2.45015,-2.47416z" fill="#4D1E1E" id="svg_5"/>
   <path d="m116.16141,61.46817c-1.353,0 -2.45015,1.10766 -2.45015,2.47416l0,1.01062c0,1.3665 1.09715,2.47416 2.45015,2.47416c1.353,0 2.45015,-1.10766 2.45015,-2.47416l0,-1.01062c0,-1.36626 -1.09715,-2.47416 -2.45015,-2.47416z" fill="#4D1E1E" id="svg_6"/>
  </g>
 </g>
</svg>