<svg width="80%" height="160%" viewBox="0 0 128 256" xmlns="http://www.w3.org/2000/svg">
	<g id="Skyscraper">
		<title>Skyscraper</title>
		<g id="svg_2">
			<rect id="svg_3" fill="#4C797E" x="14" y="28" width="100" height="220"/>
			<path d="m121.957637,230.953412c0,-2.520806 -2.14578,-4.564614 -4.792362,-4.564614l-0.399563,0l0,-196.563622c0,-2.520806 -2.14578,-4.564614 -4.792362,-4.564614l-62.213255,0l0,-9.129224c0,-2.520806 -2.14578,-4.564614 -4.792362,-4.564614s-4.792362,2.043803 -4.792362,4.564614l0,9.129224l-9.584726,0l0,-18.258447c0,-2.520806 -2.14578,-4.564614 -4.792362,-4.564614s-4.792362,2.043803 -4.792362,4.564614l0,18.258447l-4.630022,0c-2.646583,0 -4.792362,2.043803 -4.792362,4.564614l0,196.563622l-0.449284,0c-2.646583,0 -4.792362,2.043803 -4.792362,4.564614l0,13.479869l-0.299523,0c-2.646583,0 -4.792362,2.043803 -4.792362,4.564614s2.14578,4.564614 4.792362,4.564614l5.091885,0l106.031027,0l4.792362,0c2.646583,0 4.792362,-2.043803 4.792362,-4.564614s-2.14638,-4.564614 -4.792362,-4.564614l-0.000003,0l-0.000002,-13.479869zm-100.789379,-196.563622l9.474501,0l9.584724,0l9.596706,0l0,37.372762c0,2.520806 2.14578,4.564614 4.792362,4.564614s4.792362,-2.043803 4.792362,-4.564614l0,-37.372762l9.596706,0l0,37.372762c0,2.520806 2.14578,4.564614 4.792362,4.564614s4.792362,-2.043803 4.792362,-4.564614l0,-37.372762l9.596706,0l9.584724,0l9.409804,0l0,191.999008l-9.409804,0l-9.584724,0l-9.596706,0l0,-137.794238c0,-2.520806 -2.14578,-4.564614 -4.792362,-4.564614s-4.792362,2.043803 -4.792362,4.564614l0,137.794238l-9.596706,0l0,-137.794238c0,-2.520806 -2.14578,-4.564614 -4.792362,-4.564614s-4.792362,2.043803 -4.792362,4.564614l0,137.794238l-9.596706,0l-9.584724,0l-9.474501,0l0,-191.999008zm-5.241647,210.043491l0,-8.915259l96.446301,0l0,8.915259l-96.446301,0z" id="svg_1" fill="black"/>
		</g>
		<g id="svg_4">
			<path d="m113.106807,244.433273l0,-13.479869c0,-2.520806 -1.855117,-4.564614 -4.143198,-4.564614l-0.345439,0l0,-196.563622c0,-2.520806 -1.855117,-4.564614 -4.143198,-4.564614l-53.785964,0l0,-9.129224c0,-2.520806 -1.855117,-4.564614 -4.143198,-4.564614s-4.143198,2.043803 -4.143198,4.564614l0,9.129224l-8.286397,0l0,-18.258447c0,-2.520806 -1.855117,-4.564614 -4.143198,-4.564614s-4.143198,2.043803 -4.143198,4.564614l0,18.258447l-4.002848,0c-2.288082,0 -4.143198,2.043803 -4.143198,4.564614l0,196.563622l-0.388425,0c-2.288082,0 -4.143198,2.043803 -4.143198,4.564614l0,13.479869l-0.25895,0c-2.288082,0 -4.143198,2.043803 -4.143198,4.564614s1.855117,4.564614 4.143198,4.564614l4.402148,0l91.668262,0l4.143198,0c2.288082,0 4.143198,-2.043803 4.143198,-4.564614s-1.855635,-4.564614 -4.143198,-4.564614l-0.000003,0l0.000002,0zm-87.136639,-210.043491l8.191103,0l8.286396,0l8.296754,0l0,37.372762c0,2.520806 1.855117,4.564614 4.143198,4.564614s4.143198,-2.043803 4.143198,-4.564614l0,-37.372762l8.296754,0l0,37.372762c0,2.520806 1.855117,4.564614 4.143198,4.564614s4.143198,-2.043803 4.143198,-4.564614l0,-37.372762l8.296754,0l8.286396,0l8.13517,0l0,191.999008l-8.13517,0l-8.286396,0l-8.296754,0l0,-137.794238c0,-2.520806 -1.855117,-4.564614 -4.143198,-4.564614s-4.143198,2.043803 -4.143198,4.564614l0,137.794238l-8.296754,0l0,-137.794238c0,-2.520806 -1.855117,-4.564614 -4.143198,-4.564614s-4.143198,2.043803 -4.143198,4.564614l0,137.794238l-8.296754,0l-8.286396,0l-8.191103,0l0,-191.999008zm-4.531623,210.043491l0,-8.915259l83.381865,0l0,8.915259l-83.381865,0z" fill="black" id="svg_6"/>
		</g>
	</g>
</svg>