<svg width="128" height="256"  viewBox="0 128 256 256" xmlns="http://www.w3.org/2000/svg">
	<g>
		<title>background</title>
		<rect fill="none" id="canvas_background" height="256" width="128" y="-1" x="-1"/>
	</g>
	<g>
		<title>Skyscraper</title>
		<rect id="svg_17" height="433" width="167" y="57.4375" x="45.5" fill="#aad4ff"/>
		<path id="svg_1" d="m224.75,488.34496l0,-26.89935c0,-5.03032 -3.582,-9.10878 -8,-9.10878l-0.667,0l0,-392.24667c0,-5.03032 -3.582,-9.10878 -8,-9.10878l-103.854,0l0,-18.21755c0,-5.03032 -3.582,-9.10878 -8,-9.10878s-8,4.07845 -8,9.10878l0,18.21755l-16,0l0,-36.4351c0,-5.03032 -3.582,-9.10878 -8,-9.10878s-8,4.07845 -8,9.10878l0,36.4351l-7.729,0c-4.418,0 -8,4.07845 -8,9.10878l0,392.24667l-0.75,0c-4.418,0 -8,4.07845 -8,9.10878l0,26.89935l-0.5,0c-4.418,0 -8,4.07845 -8,9.10878s3.582,9.10878 8,9.10878l8.5,0l177,0l8,0c4.418,0 8,-4.07845 8,-9.10878s-3.583,-9.10878 -8,-9.10878zm-168.25,-419.14602l15.816,0l0,74.5781c0,5.03032 3.582,9.10878 8,9.10878s8,-4.07845 8,-9.10878l0,-74.5781l16.02,0l0,74.5781c0,5.03032 3.582,9.10878 8,9.10878s8,-4.07845 8,-9.10878l0,-74.5781l16.02,0l0,74.5781c0,5.03032 3.582,9.10878 8,9.10878s8,-4.07845 8,-9.10878l0,-74.5781l16.02,0l0,74.5781c0,5.03032 3.582,9.10878 8,9.10878s8,-4.07845 8,-9.10878l0,-74.5781l15.708,0l0,383.13789l-15.708,0l0,-274.97118c0,-5.03032 -3.582,-9.10878 -8,-9.10878s-8,4.07845 -8,9.10878l0,274.97118l-16.02,0l0,-274.97118c0,-5.03032 -3.582,-9.10878 -8,-9.10878s-8,4.07845 -8,9.10878l0,274.97118l-16.02,0l0,-274.97118c0,-5.03032 -3.582,-9.10878 -8,-9.10878s-8,4.07845 -8,9.10878l0,274.97118l-16.02,0l0,-274.97118c0,-5.03032 -3.582,-9.10878 -8,-9.10878s-8,4.07845 -8,9.10878l0,274.97118l-15.816,0l0,-383.13789zm-8.75,419.14602l0,-17.79058l161,0l0,17.79058l-161,0z"/>
	</g>
</svg>