<<svg version="1.1" id="Capa_1" xmlns="http://www.w3.org/2000/svg" xmlns:xlink="http://www.w3.org/1999/xlink" x="100%" y="100%" viewBox="0 0 512 512" style="enable-background:new 0 0 480 480;" xml:space="preserve">
<g>
	<path style="fill:#826E77;" d="M151.273,0v465.455h11.636v-32h49.455v32h2.909v-32h49.455v32h2.909v-2.909v-29.091h23.273h2.909
		h23.273v29.091v2.909h11.636V0H151.273z M189.091,17.455h23.273v29.091h-23.273V17.455z M189.091,49.455h23.273v29.091h-23.273
		V49.455z M189.091,113.455h23.273v29.091h-23.273V113.455z M189.091,145.455h23.273v29.091h-23.273V145.455z M189.091,177.455
		h23.273v29.091h-23.273V177.455z M189.091,209.455h23.273v29.091h-23.273V209.455z M189.091,273.455h23.273v29.091h-23.273V273.455
		z M189.091,305.455h23.273v29.091h-23.273V305.455z M162.909,17.455h23.273v29.091h-23.273V17.455z M186.182,430.545h-23.273
		v-29.091h23.273V430.545z M186.182,398.545h-23.273v-29.091h23.273V398.545z M186.182,366.545h-23.273v-29.091h23.273V366.545z
		 M186.182,334.545h-23.273v-29.091h23.273V334.545z M186.182,302.545h-23.273v-29.091h23.273V302.545z M186.182,270.546h-23.273
		v-29.091h23.273V270.546z M186.182,238.546h-23.273v-29.091h23.273V238.546z M186.182,206.546h-23.273v-29.091h23.273V206.546z
		 M186.182,174.546h-23.273v-29.091h23.273V174.546z M186.182,142.546h-23.273v-29.091h23.273V142.546z M186.182,110.546h-23.273
		V81.455h23.273V110.546z M186.182,78.546h-23.273V49.455h23.273V78.546z M189.091,369.455h23.273v29.091h-23.273V369.455z
		 M212.364,430.545h-23.273v-29.091h23.273V430.545z M212.364,366.545h-23.273v-29.091h23.273V366.545z M212.364,270.546h-23.273
		v-29.091h23.273V270.546z M212.364,110.546h-23.273V81.455h23.273V110.546z M241.455,17.455h23.273v29.091h-23.273V17.455z
		 M241.455,209.455h23.273v29.091h-23.273V209.455z M241.455,273.455h23.273v29.091h-23.273V273.455z M238.546,430.545h-23.273
		v-29.091h23.273V430.545z M238.546,398.545h-23.273v-29.091h23.273V398.545z M238.546,366.545h-23.273v-29.091h23.273V366.545z
		 M238.546,334.545h-23.273v-29.091h23.273V334.545z M238.546,302.546h-23.273v-29.091h23.273V302.546z M238.546,270.546h-23.273
		v-29.091h23.273V270.546z M238.546,238.546h-23.273v-29.091h23.273V238.546z M238.546,206.546h-23.273v-29.091h23.273V206.546z
		 M238.546,174.546h-23.273v-29.091h23.273V174.546z M238.546,142.546h-23.273v-29.091h23.273V142.546z M238.546,110.546h-23.273
		V81.455h23.273V110.546z M238.546,78.546h-23.273V49.455h23.273V78.546z M238.546,46.545h-23.273V17.455h23.273V46.545z
		 M264.727,430.545h-23.273v-29.091h23.273V430.545z M264.727,398.545h-23.273v-29.091h23.273V398.545z M264.727,366.545h-23.273
		v-29.091h23.273V366.545z M264.727,334.545h-23.273v-29.091h23.273V334.545z M264.727,270.546h-23.273v-29.091h23.273V270.546z
		 M264.727,206.546h-23.273v-29.091h23.273V206.546z M264.727,174.546h-23.273v-29.091h23.273V174.546z M264.727,142.546h-23.273
		v-29.091h23.273V142.546z M264.727,110.546h-23.273V81.455h23.273V110.546z M264.727,78.546h-23.273V49.455h23.273V78.546z
		 M290.909,430.545h-23.273v-29.091h23.273V430.545z M290.909,398.545h-23.273v-29.091h23.273V398.545z M290.909,366.545h-23.273
		v-29.091h23.273V366.545z M290.909,334.545h-23.273v-29.091h23.273V334.545z M290.909,302.545h-23.273v-29.091h23.273V302.545z
		 M290.909,270.546h-23.273v-29.091h23.273V270.546z M290.909,238.546h-23.273v-29.091h23.273V238.546z M290.909,206.546h-23.273
		v-29.091h23.273V206.546z M290.909,174.546h-23.273v-29.091h23.273V174.546z M290.909,142.546h-23.273v-29.091h23.273V142.546z
		 M290.909,110.546h-23.273V81.455h23.273V110.546z M290.909,78.546h-23.273V49.455h23.273V78.546z M290.909,46.545h-23.273V17.455
		h23.273V46.545z M317.091,430.545h-23.273v-29.091h23.273V430.545z M317.091,398.545h-23.273v-29.091h23.273V398.545z
		 M317.091,366.545h-23.273v-29.091h23.273V366.545z M317.091,334.545h-23.273v-29.091h23.273V334.545z M317.091,302.545h-23.273
		v-29.091h23.273V302.545z M317.091,270.546h-23.273v-29.091h23.273V270.546z M317.091,238.546h-23.273v-29.091h23.273V238.546z
		 M317.091,206.546h-23.273v-29.091h23.273V206.546z M317.091,174.546h-23.273v-29.091h23.273V174.546z M317.091,142.546h-23.273
		v-29.091h23.273V142.546z M317.091,110.546h-23.273V81.455h23.273V110.546z M317.091,78.546h-23.273V49.455h23.273V78.546z
		 M317.091,46.545h-23.273V17.455h23.273V46.545z"/>
	<path style="fill:#695A69;" d="M186.182,17.455h-23.273v29.091h23.273V17.455z M180.364,34.909v5.818h-11.636V23.273h11.636V34.909
		z"/>
	<polygon style="fill:#6EB1E2;" points="168.727,40.727 180.364,40.727 180.364,34.909 168.727,23.273 	"/>
	<polygon style="fill:#4B82AF;" points="180.364,34.909 180.364,23.273 168.727,23.273 	"/>
	<path style="fill:#695A69;" d="M212.364,17.455h-23.273v29.091h23.273V17.455z M206.545,34.909v5.818h-11.636V23.273h11.636V34.909
		z"/>
	<polygon style="fill:#80D7F0;" points="194.909,40.727 206.545,40.727 206.545,34.909 194.909,23.273 	"/>
	<polygon style="fill:#6EB1E2;" points="206.545,34.909 206.545,23.273 194.909,23.273 	"/>
	<polygon style="fill:#6EB1E2;" points="168.727,439.273 168.727,480 206.545,480 206.545,477.091 	"/>
	<polygon style="fill:#4B82AF;" points="206.545,477.091 206.545,439.273 168.727,439.273 	"/>
	<polygon style="fill:#80D7F0;" points="221.091,439.273 221.091,480 258.909,480 258.909,477.091 	"/>
	<polygon style="fill:#6EB1E2;" points="258.909,477.091 258.909,439.273 221.091,439.273 	"/>
	<polygon style="fill:#695A69;" points="317.091,462.545 317.091,433.455 293.818,433.455 290.909,433.455 267.636,433.455 
		267.636,462.545 267.636,465.455 264.727,465.455 264.727,433.455 215.273,433.455 215.273,465.455 212.364,465.455 
		212.364,433.455 162.909,433.455 162.909,465.455 151.273,465.455 151.273,480 162.909,480 168.727,480 168.727,439.273 
		206.545,439.273 206.545,477.091 206.545,480 212.364,480 215.273,480 221.091,480 221.091,439.273 258.909,439.273 
		258.909,477.091 258.909,480 264.727,480 267.636,480 273.455,480 273.455,456.727 273.455,439.273 285.091,439.273 
		299.636,439.273 311.273,439.273 311.273,450.909 311.273,456.727 311.273,477.091 311.273,480 317.091,480 328.727,480 
		328.727,465.455 317.091,465.455 	"/>
	<polygon style="fill:#6EB1E2;" points="273.455,439.273 273.455,456.727 273.455,480 311.273,480 311.273,477.091 	"/>
	<polygon style="fill:#4B82AF;" points="311.273,477.091 311.273,456.727 311.273,450.909 311.273,439.273 299.636,439.273 
		285.091,439.273 273.455,439.273 	"/>
	<path style="fill:#695A69;" d="M215.273,46.545h23.273V17.455h-23.273V46.545z M221.091,23.273h11.636v11.636v5.818h-11.636V23.273
		z"/>
	<polygon style="fill:#80D7F0;" points="232.727,34.909 221.091,23.273 221.091,40.727 232.727,40.727 	"/>
	<polygon style="fill:#6EB1E2;" points="232.727,23.273 221.091,23.273 232.727,34.909 	"/>
	<path style="fill:#695A69;" d="M293.818,46.545h23.273V17.455h-23.273V46.545z M299.636,23.273h11.636v11.636v5.818h-11.636V23.273
		z"/>
	<polygon style="fill:#80D7F0;" points="311.273,34.909 299.636,23.273 299.636,40.727 311.273,40.727 	"/>
	<polygon style="fill:#6EB1E2;" points="311.273,23.273 299.636,23.273 311.273,34.909 	"/>
	<path style="fill:#695A69;" d="M264.727,17.455h-23.273v29.091h23.273V17.455z M258.909,34.909v5.818h-11.636V23.273h11.636V34.909
		z"/>
	<polygon style="fill:#6EB1E2;" points="247.273,40.727 258.909,40.727 258.909,34.909 247.273,23.273 	"/>
	<polygon style="fill:#4B82AF;" points="258.909,34.909 258.909,23.273 247.273,23.273 	"/>
	<path style="fill:#695A69;" d="M267.636,46.545h23.273V17.455h-23.273V46.545z M273.455,23.273h11.636v11.636v5.818h-11.636V23.273
		z"/>
	<polygon style="fill:#6EB1E2;" points="285.091,34.909 273.455,23.273 273.455,40.727 285.091,40.727 	"/>
	<polygon style="fill:#4B82AF;" points="285.091,23.273 273.455,23.273 285.091,34.909 	"/>
	<path style="fill:#695A69;" d="M212.364,49.455h-23.273v29.091h23.273V49.455z M206.545,66.909v5.818h-11.636V55.273h11.636V66.909
		z"/>
	<polygon style="fill:#80D7F0;" points="194.909,72.727 206.545,72.727 206.545,66.909 194.909,55.273 	"/>
	<polygon style="fill:#6EB1E2;" points="206.545,66.909 206.545,55.273 194.909,55.273 	"/>
	<path style="fill:#695A69;" d="M215.273,78.546h23.273V49.455h-23.273V78.546z M221.091,55.273h11.636v11.636v5.818h-11.636V55.273
		z"/>
	<polygon style="fill:#80D7F0;" points="232.727,66.909 221.091,55.273 221.091,72.727 232.727,72.727 	"/>
	<polygon style="fill:#6EB1E2;" points="232.727,55.273 221.091,55.273 232.727,66.909 	"/>
	<path style="fill:#695A69;" d="M293.818,78.546h23.273V49.455h-23.273V78.546z M299.636,55.273h11.636v11.636v5.818h-11.636V55.273
		z"/>
	<polygon style="fill:#80D7F0;" points="311.273,66.909 299.636,55.273 299.636,72.727 311.273,72.727 	"/>
	<polygon style="fill:#6EB1E2;" points="311.273,55.273 299.636,55.273 311.273,66.909 	"/>
	<path style="fill:#695A69;" d="M162.909,78.546h23.273V49.455h-23.273V78.546z M168.727,55.273h11.636v11.636v5.818h-11.636V55.273
		z"/>
	<polygon style="fill:#80D7F0;" points="180.364,66.909 168.727,55.273 168.727,72.727 180.364,72.727 	"/>
	<polygon style="fill:#6EB1E2;" points="180.364,55.273 168.727,55.273 180.364,66.909 	"/>
	<path style="fill:#695A69;" d="M267.636,78.546h23.273V49.455h-23.273V78.546z M273.455,55.273h11.636v11.636v5.818h-11.636V55.273
		z"/>
	<polygon style="fill:#80D7F0;" points="285.091,66.909 273.455,55.273 273.455,72.727 285.091,72.727 	"/>
	<polygon style="fill:#6EB1E2;" points="285.091,55.273 273.455,55.273 285.091,66.909 	"/>
	<path style="fill:#695A69;" d="M241.455,78.546h23.273V49.455h-23.273V78.546z M247.273,55.273h11.636v11.636v5.818h-11.636V55.273
		z"/>
	<polygon style="fill:#80D7F0;" points="258.909,66.909 247.273,55.273 247.273,72.727 258.909,72.727 	"/>
	<polygon style="fill:#6EB1E2;" points="258.909,55.273 247.273,55.273 258.909,66.909 	"/>
	<path style="fill:#695A69;" d="M293.818,110.546h23.273V81.455h-23.273V110.546z M299.636,87.273h11.636v11.636v5.818h-11.636
		V87.273z"/>
	<polygon style="fill:#80D7F0;" points="311.273,98.909 299.636,87.273 299.636,104.727 311.273,104.727 	"/>
	<polygon style="fill:#6EB1E2;" points="311.273,87.273 299.636,87.273 311.273,98.909 	"/>
	<path style="fill:#695A69;" d="M162.909,110.546h23.273V81.455h-23.273V110.546z M168.727,87.273h11.636v11.636v5.818h-11.636
		V87.273z"/>
	<polygon style="fill:#80D7F0;" points="180.364,98.909 168.727,87.273 168.727,104.727 180.364,104.727 	"/>
	<polygon style="fill:#6EB1E2;" points="180.364,87.273 168.727,87.273 180.364,98.909 	"/>
	<path style="fill:#695A69;" d="M267.636,110.546h23.273V81.455h-23.273V110.546z M273.455,87.273h11.636v11.636v5.818h-11.636
		V87.273z"/>
	<polygon style="fill:#80D7F0;" points="285.091,98.909 273.455,87.273 273.455,104.727 285.091,104.727 	"/>
	<polygon style="fill:#6EB1E2;" points="285.091,87.273 273.455,87.273 285.091,98.909 	"/>
	<path style="fill:#695A69;" d="M241.455,110.546h23.273V81.455h-23.273V110.546z M247.273,87.273h11.636v11.636v5.818h-11.636
		V87.273z"/>
	<polygon style="fill:#80D7F0;" points="258.909,98.909 247.273,87.273 247.273,104.727 258.909,104.727 	"/>
	<polygon style="fill:#6EB1E2;" points="258.909,87.273 247.273,87.273 258.909,98.909 	"/>
	<path style="fill:#695A69;" d="M212.364,113.455h-23.273v29.091h23.273V113.455z M206.545,130.909v5.818h-11.636v-17.455h11.636
		V130.909z"/>
	<polygon style="fill:#80D7F0;" points="194.909,136.727 206.545,136.727 206.545,130.909 194.909,119.273 	"/>
	<polygon style="fill:#6EB1E2;" points="206.545,130.909 206.545,119.273 194.909,119.273 	"/>
	<path style="fill:#695A69;" d="M215.273,142.546h23.273v-29.091h-23.273V142.546z M221.091,119.273h11.636v11.636v5.818h-11.636
		V119.273z"/>
	<polygon style="fill:#80D7F0;" points="232.727,130.909 221.091,119.273 221.091,136.727 232.727,136.727 	"/>
	<polygon style="fill:#6EB1E2;" points="232.727,119.273 221.091,119.273 232.727,130.909 	"/>
	<path style="fill:#695A69;" d="M293.818,142.546h23.273v-29.091h-23.273V142.546z M299.636,119.273h11.636v11.636v5.818h-11.636
		V119.273z"/>
	<polygon style="fill:#80D7F0;" points="311.273,130.909 299.636,119.273 299.636,136.727 311.273,136.727 	"/>
	<polygon style="fill:#6EB1E2;" points="311.273,119.273 299.636,119.273 311.273,130.909 	"/>
	<path style="fill:#695A69;" d="M162.909,142.546h23.273v-29.091h-23.273V142.546z M168.727,119.273h11.636v11.636v5.818h-11.636
		V119.273z"/>
	<polygon style="fill:#80D7F0;" points="180.364,130.909 168.727,119.273 168.727,136.727 180.364,136.727 	"/>
	<polygon style="fill:#6EB1E2;" points="180.364,119.273 168.727,119.273 180.364,130.909 	"/>
	<path style="fill:#695A69;" d="M267.636,142.546h23.273v-29.091h-23.273V142.546z M273.455,119.273h11.636v11.636v5.818h-11.636
		V119.273z"/>
	<polygon style="fill:#80D7F0;" points="285.091,130.909 273.455,119.273 273.455,136.727 285.091,136.727 	"/>
	<polygon style="fill:#6EB1E2;" points="285.091,119.273 273.455,119.273 285.091,130.909 	"/>
	<path style="fill:#695A69;" d="M241.455,142.546h23.273v-29.091h-23.273V142.546z M247.273,119.273h11.636v11.636v5.818h-11.636
		V119.273z"/>
	<polygon style="fill:#80D7F0;" points="258.909,130.909 247.273,119.273 247.273,136.727 258.909,136.727 	"/>
	<polygon style="fill:#6EB1E2;" points="258.909,119.273 247.273,119.273 258.909,130.909 	"/>
	<path style="fill:#695A69;" d="M212.364,145.455h-23.273v29.091h23.273V145.455z M206.545,162.909v5.818h-11.636v-17.455h11.636
		V162.909z"/>
	<polygon style="fill:#80D7F0;" points="194.909,168.727 206.545,168.727 206.545,162.909 194.909,151.273 	"/>
	<polygon style="fill:#6EB1E2;" points="206.545,162.909 206.545,151.273 194.909,151.273 	"/>
	<path style="fill:#695A69;" d="M162.909,174.546h23.273v-29.091h-23.273V174.546z M168.727,151.273h11.636v11.636v5.818h-11.636
		V151.273z"/>
	<polygon style="fill:#80D7F0;" points="180.364,162.909 168.727,151.273 168.727,168.727 180.364,168.727 	"/>
	<polygon style="fill:#6EB1E2;" points="180.364,151.273 168.727,151.273 180.364,162.909 	"/>
	<path style="fill:#695A69;" d="M267.636,174.546h23.273v-29.091h-23.273V174.546z M273.455,151.273h11.636v11.636v5.818h-11.636
		V151.273z"/>
	<polygon style="fill:#80D7F0;" points="285.091,162.909 273.455,151.273 273.455,168.727 285.091,168.727 	"/>
	<polygon style="fill:#6EB1E2;" points="285.091,151.273 273.455,151.273 285.091,162.909 	"/>
	<path style="fill:#695A69;" d="M241.455,174.546h23.273v-29.091h-23.273V174.546z M247.273,151.273h11.636v11.636v5.818h-11.636
		V151.273z"/>
	<polygon style="fill:#80D7F0;" points="258.909,162.909 247.273,151.273 247.273,168.727 258.909,168.727 	"/>
	<polygon style="fill:#6EB1E2;" points="258.909,151.273 247.273,151.273 258.909,162.909 	"/>
	<path style="fill:#695A69;" d="M212.364,177.455h-23.273v29.091h23.273V177.455z M206.545,194.909v5.818h-11.636v-17.455h11.636
		V194.909z"/>
	<polygon style="fill:#80D7F0;" points="194.909,200.727 206.545,200.727 206.545,194.909 194.909,183.273 	"/>
	<polygon style="fill:#6EB1E2;" points="206.545,194.909 206.545,183.273 194.909,183.273 	"/>
	<path style="fill:#695A69;" d="M293.818,206.546h23.273v-29.091h-23.273V206.546z M299.636,183.273h11.636v11.636v5.818h-11.636
		V183.273z"/>
	<polygon style="fill:#80D7F0;" points="311.273,194.909 299.636,183.273 299.636,200.727 311.273,200.727 	"/>
	<polygon style="fill:#6EB1E2;" points="311.273,183.273 299.636,183.273 311.273,194.909 	"/>
	<path style="fill:#695A69;" d="M267.636,206.546h23.273v-29.091h-23.273V206.546z M273.455,183.273h11.636v11.636v5.818h-11.636
		V183.273z"/>
	<polygon style="fill:#80D7F0;" points="285.091,194.909 273.455,183.273 273.455,200.727 285.091,200.727 	"/>
	<polygon style="fill:#6EB1E2;" points="285.091,183.273 273.455,183.273 285.091,194.909 	"/>
	<path style="fill:#695A69;" d="M241.455,206.546h23.273v-29.091h-23.273V206.546z M247.273,183.273h11.636v11.636v5.818h-11.636
		V183.273z"/>
	<polygon style="fill:#80D7F0;" points="258.909,194.909 247.273,183.273 247.273,200.727 258.909,200.727 	"/>
	<polygon style="fill:#6EB1E2;" points="258.909,183.273 247.273,183.273 258.909,194.909 	"/>
	<path style="fill:#695A69;" d="M212.364,209.455h-23.273v29.091h23.273V209.455z M206.545,226.909v5.818h-11.636v-17.455h11.636
		V226.909z"/>
	<polygon style="fill:#80D7F0;" points="194.909,232.727 206.545,232.727 206.545,226.909 194.909,215.273 	"/>
	<polygon style="fill:#6EB1E2;" points="206.545,226.909 206.545,215.273 194.909,215.273 	"/>
	<path style="fill:#695A69;" d="M215.273,238.546h23.273v-29.091h-23.273V238.546z M221.091,215.273h11.636v11.636v5.818h-11.636
		V215.273z"/>
	<polygon style="fill:#80D7F0;" points="232.727,226.909 221.091,215.273 221.091,232.727 232.727,232.727 	"/>
	<polygon style="fill:#6EB1E2;" points="232.727,215.273 221.091,215.273 232.727,226.909 	"/>
	<path style="fill:#695A69;" d="M293.818,238.546h23.273v-29.091h-23.273V238.546z M299.636,215.273h11.636v11.636v5.818h-11.636
		V215.273z"/>
	<polygon style="fill:#80D7F0;" points="311.273,226.909 299.636,215.273 299.636,232.727 311.273,232.727 	"/>
	<polygon style="fill:#6EB1E2;" points="311.273,215.273 299.636,215.273 311.273,226.909 	"/>
	<path style="fill:#695A69;" d="M162.909,238.546h23.273v-29.091h-23.273V238.546z M168.727,215.273h11.636v11.636v5.818h-11.636
		V215.273z"/>
	<polygon style="fill:#80D7F0;" points="180.364,226.909 168.727,215.273 168.727,232.727 180.364,232.727 	"/>
	<polygon style="fill:#6EB1E2;" points="180.364,215.273 168.727,215.273 180.364,226.909 	"/>
	<path style="fill:#695A69;" d="M267.636,238.546h23.273v-29.091h-23.273V238.546z M273.455,215.273h11.636v11.636v5.818h-11.636
		V215.273z"/>
	<polygon style="fill:#80D7F0;" points="285.091,226.909 273.455,215.273 273.455,232.727 285.091,232.727 	"/>
	<polygon style="fill:#6EB1E2;" points="285.091,215.273 273.455,215.273 285.091,226.909 	"/>
	<path style="fill:#695A69;" d="M215.273,270.546h23.273v-29.091h-23.273V270.546z M221.091,247.273h11.636v11.636v5.818h-11.636
		V247.273z"/>
	<polygon style="fill:#80D7F0;" points="232.727,258.909 221.091,247.273 221.091,264.727 232.727,264.727 	"/>
	<polygon style="fill:#6EB1E2;" points="232.727,247.273 221.091,247.273 232.727,258.909 	"/>
	<path style="fill:#695A69;" d="M293.818,270.546h23.273v-29.091h-23.273V270.546z M299.636,247.273h11.636v11.636v5.818h-11.636
		V247.273z"/>
	<polygon style="fill:#80D7F0;" points="311.273,258.909 299.636,247.273 299.636,264.727 311.273,264.727 	"/>
	<polygon style="fill:#6EB1E2;" points="311.273,247.273 299.636,247.273 311.273,258.909 	"/>
	<path style="fill:#695A69;" d="M162.909,270.546h23.273v-29.091h-23.273V270.546z M168.727,247.273h11.636v11.636v5.818h-11.636
		V247.273z"/>
	<polygon style="fill:#80D7F0;" points="180.364,258.909 168.727,247.273 168.727,264.727 180.364,264.727 	"/>
	<polygon style="fill:#6EB1E2;" points="180.364,247.273 168.727,247.273 180.364,258.909 	"/>
	<path style="fill:#695A69;" d="M267.636,270.546h23.273v-29.091h-23.273V270.546z M273.455,247.273h11.636v11.636v5.818h-11.636
		V247.273z"/>
	<polygon style="fill:#80D7F0;" points="285.091,258.909 273.455,247.273 273.455,264.727 285.091,264.727 	"/>
	<polygon style="fill:#6EB1E2;" points="285.091,247.273 273.455,247.273 285.091,258.909 	"/>
	<path style="fill:#695A69;" d="M241.455,270.546h23.273v-29.091h-23.273V270.546z M247.273,247.273h11.636v11.636v5.818h-11.636
		V247.273z"/>
	<polygon style="fill:#80D7F0;" points="258.909,258.909 247.273,247.273 247.273,264.727 258.909,264.727 	"/>
	<polygon style="fill:#6EB1E2;" points="258.909,247.273 247.273,247.273 258.909,258.909 	"/>
	<path style="fill:#695A69;" d="M212.364,273.455h-23.273v29.091h23.273V273.455z M206.545,290.909v5.818h-11.636v-17.455h11.636
		V290.909z"/>
	<polygon style="fill:#80D7F0;" points="194.909,296.727 206.545,296.727 206.545,290.909 194.909,279.273 	"/>
	<polygon style="fill:#6EB1E2;" points="206.545,290.909 206.545,279.273 194.909,279.273 	"/>
	<path style="fill:#695A69;" d="M293.818,302.545h23.273v-29.091h-23.273V302.545z M299.636,279.273h11.636v11.636v5.818h-11.636
		V279.273z"/>
	<polygon style="fill:#80D7F0;" points="311.273,290.909 299.636,279.273 299.636,296.727 311.273,296.727 	"/>
	<polygon style="fill:#6EB1E2;" points="311.273,279.273 299.636,279.273 311.273,290.909 	"/>
	<path style="fill:#695A69;" d="M162.909,302.545h23.273v-29.091h-23.273V302.545z M168.727,279.273h11.636v11.636v5.818h-11.636
		V279.273z"/>
	<polygon style="fill:#80D7F0;" points="180.364,290.909 168.727,279.273 168.727,296.727 180.364,296.727 	"/>
	<polygon style="fill:#6EB1E2;" points="180.364,279.273 168.727,279.273 180.364,290.909 	"/>
	<path style="fill:#695A69;" d="M267.636,302.545h23.273v-29.091h-23.273V302.545z M273.455,279.273h11.636v11.636v5.818h-11.636
		V279.273z"/>
	<polygon style="fill:#80D7F0;" points="285.091,290.909 273.455,279.273 273.455,296.727 285.091,296.727 	"/>
	<polygon style="fill:#6EB1E2;" points="285.091,279.273 273.455,279.273 285.091,290.909 	"/>
	<path style="fill:#695A69;" d="M212.364,305.455h-23.273v29.091h23.273V305.455z M206.545,322.909v5.818h-11.636v-17.455h11.636
		V322.909z"/>
	<polygon style="fill:#80D7F0;" points="194.909,328.727 206.545,328.727 206.545,322.909 194.909,311.273 	"/>
	<polygon style="fill:#6EB1E2;" points="206.545,322.909 206.545,311.273 194.909,311.273 	"/>
	<path style="fill:#695A69;" d="M215.273,334.545h23.273v-29.091h-23.273V334.545z M221.091,311.273h11.636v11.636v5.818h-11.636
		V311.273z"/>
	<polygon style="fill:#80D7F0;" points="232.727,322.909 221.091,311.273 221.091,328.727 232.727,328.727 	"/>
	<polygon style="fill:#6EB1E2;" points="232.727,311.273 221.091,311.273 232.727,322.909 	"/>
	<path style="fill:#695A69;" d="M293.818,334.545h23.273v-29.091h-23.273V334.545z M299.636,311.273h11.636v11.636v5.818h-11.636
		V311.273z"/>
	<polygon style="fill:#80D7F0;" points="311.273,322.909 299.636,311.273 299.636,328.727 311.273,328.727 	"/>
	<polygon style="fill:#6EB1E2;" points="311.273,311.273 299.636,311.273 311.273,322.909 	"/>
	<path style="fill:#695A69;" d="M162.909,334.545h23.273v-29.091h-23.273V334.545z M168.727,311.273h11.636v11.636v5.818h-11.636
		V311.273z"/>
	<polygon style="fill:#80D7F0;" points="180.364,322.909 168.727,311.273 168.727,328.727 180.364,328.727 	"/>
	<polygon style="fill:#6EB1E2;" points="180.364,311.273 168.727,311.273 180.364,322.909 	"/>
	<path style="fill:#695A69;" d="M267.636,334.545h23.273v-29.091h-23.273V334.545z M273.455,311.273h11.636v11.636v5.818h-11.636
		V311.273z"/>
	<polygon style="fill:#80D7F0;" points="285.091,322.909 273.455,311.273 273.455,328.727 285.091,328.727 	"/>
	<polygon style="fill:#6EB1E2;" points="285.091,311.273 273.455,311.273 285.091,322.909 	"/>
	<path style="fill:#695A69;" d="M241.455,334.545h23.273v-29.091h-23.273V334.545z M247.273,311.273h11.636v11.636v5.818h-11.636
		V311.273z"/>
	<polygon style="fill:#80D7F0;" points="258.909,322.909 247.273,311.273 247.273,328.727 258.909,328.727 	"/>
	<polygon style="fill:#6EB1E2;" points="258.909,311.273 247.273,311.273 258.909,322.909 	"/>
	<path style="fill:#695A69;" d="M215.273,366.545h23.273v-29.091h-23.273V366.545z M221.091,343.273h11.636v11.636v5.818h-11.636
		V343.273z"/>
	<polygon style="fill:#80D7F0;" points="232.727,354.909 221.091,343.273 221.091,360.727 232.727,360.727 	"/>
	<polygon style="fill:#6EB1E2;" points="232.727,343.273 221.091,343.273 232.727,354.909 	"/>
	<path style="fill:#695A69;" d="M293.818,366.545h23.273v-29.091h-23.273V366.545z M299.636,343.273h11.636v11.636v5.818h-11.636
		V343.273z"/>
	<polygon style="fill:#80D7F0;" points="311.273,354.909 299.636,343.273 299.636,360.727 311.273,360.727 	"/>
	<polygon style="fill:#6EB1E2;" points="311.273,343.273 299.636,343.273 311.273,354.909 	"/>
	<path style="fill:#695A69;" d="M162.909,366.545h23.273v-29.091h-23.273V366.545z M168.727,343.273h11.636v11.636v5.818h-11.636
		V343.273z"/>
	<polygon style="fill:#80D7F0;" points="180.364,354.909 168.727,343.273 168.727,360.727 180.364,360.727 	"/>
	<polygon style="fill:#6EB1E2;" points="180.364,343.273 168.727,343.273 180.364,354.909 	"/>
	<path style="fill:#695A69;" d="M267.636,366.545h23.273v-29.091h-23.273V366.545z M273.455,343.273h11.636v11.636v5.818h-11.636
		V343.273z"/>
	<polygon style="fill:#80D7F0;" points="285.091,354.909 273.455,343.273 273.455,360.727 285.091,360.727 	"/>
	<polygon style="fill:#6EB1E2;" points="285.091,343.273 273.455,343.273 285.091,354.909 	"/>
	<path style="fill:#695A69;" d="M241.455,366.545h23.273v-29.091h-23.273V366.545z M247.273,343.273h11.636v11.636v5.818h-11.636
		V343.273z"/>
	<polygon style="fill:#80D7F0;" points="258.909,354.909 247.273,343.273 247.273,360.727 258.909,360.727 	"/>
	<polygon style="fill:#6EB1E2;" points="258.909,343.273 247.273,343.273 258.909,354.909 	"/>
	<path style="fill:#695A69;" d="M212.364,369.455h-23.273v29.091h23.273V369.455z M206.545,386.909v5.818h-11.636v-17.455h11.636
		V386.909z"/>
	<polygon style="fill:#80D7F0;" points="194.909,392.727 206.545,392.727 206.545,386.909 194.909,375.273 	"/>
	<polygon style="fill:#6EB1E2;" points="206.545,386.909 206.545,375.273 194.909,375.273 	"/>
	<path style="fill:#695A69;" d="M215.273,398.545h23.273v-29.091h-23.273V398.545z M221.091,375.273h11.636v11.636v5.818h-11.636
		V375.273z"/>
	<polygon style="fill:#80D7F0;" points="232.727,386.909 221.091,375.273 221.091,392.727 232.727,392.727 	"/>
	<polygon style="fill:#6EB1E2;" points="232.727,375.273 221.091,375.273 232.727,386.909 	"/>
	<path style="fill:#695A69;" d="M162.909,398.545h23.273v-29.091h-23.273V398.545z M168.727,375.273h11.636v11.636v5.818h-11.636
		V375.273z"/>
	<polygon style="fill:#80D7F0;" points="180.364,386.909 168.727,375.273 168.727,392.727 180.364,392.727 	"/>
	<polygon style="fill:#6EB1E2;" points="180.364,375.273 168.727,375.273 180.364,386.909 	"/>
	<path style="fill:#695A69;" d="M241.455,398.545h23.273v-29.091h-23.273V398.545z M247.273,375.273h11.636v11.636v5.818h-11.636
		V375.273z"/>
	<polygon style="fill:#80D7F0;" points="258.909,386.909 247.273,375.273 247.273,392.727 258.909,392.727 	"/>
	<polygon style="fill:#6EB1E2;" points="258.909,375.273 247.273,375.273 258.909,386.909 	"/>
	<path style="fill:#695A69;" d="M215.273,430.545h23.273v-29.091h-23.273V430.545z M221.091,407.273h11.636v11.636v5.818h-11.636
		V407.273z"/>
	<polygon style="fill:#80D7F0;" points="232.727,418.909 221.091,407.273 221.091,424.727 232.727,424.727 	"/>
	<polygon style="fill:#6EB1E2;" points="232.727,407.273 221.091,407.273 232.727,418.909 	"/>
	<path style="fill:#695A69;" d="M293.818,430.545h23.273v-29.091h-23.273V430.545z M299.636,407.273h11.636v11.636v5.818h-11.636
		V407.273z"/>
	<polygon style="fill:#80D7F0;" points="311.273,418.909 299.636,407.273 299.636,424.727 311.273,424.727 	"/>
	<polygon style="fill:#6EB1E2;" points="311.273,407.273 299.636,407.273 311.273,418.909 	"/>
	<path style="fill:#695A69;" d="M162.909,430.545h23.273v-29.091h-23.273V430.545z M168.727,407.273h11.636v11.636v5.818h-11.636
		V407.273z"/>
	<polygon style="fill:#80D7F0;" points="180.364,418.909 168.727,407.273 168.727,424.727 180.364,424.727 	"/>
	<polygon style="fill:#6EB1E2;" points="180.364,407.273 168.727,407.273 180.364,418.909 	"/>
	<path style="fill:#695A69;" d="M267.636,430.545h23.273v-29.091h-23.273V430.545z M273.455,407.273h11.636v11.636v5.818h-11.636
		V407.273z"/>
	<polygon style="fill:#80D7F0;" points="285.091,418.909 273.455,407.273 273.455,424.727 285.091,424.727 	"/>
	<polygon style="fill:#6EB1E2;" points="285.091,407.273 273.455,407.273 285.091,418.909 	"/>
	<path style="fill:#695A69;" d="M189.091,110.546h23.273V81.455h-23.273V110.546z M194.909,87.273h11.636v11.636v5.818h-11.636
		V87.273z"/>
	<polygon style="fill:#6EB1E2;" points="206.546,98.909 194.909,87.273 194.909,104.727 206.546,104.727 	"/>
	<polygon style="fill:#4B82AF;" points="206.546,87.273 194.909,87.273 206.546,98.909 	"/>
	<path style="fill:#695A69;" d="M215.273,110.546h23.273V81.455h-23.273V110.546z M221.091,87.273h11.636v11.636v5.818h-11.636
		V87.273z"/>
	<polygon style="fill:#6EB1E2;" points="232.727,98.909 221.091,87.273 221.091,104.727 232.727,104.727 	"/>
	<polygon style="fill:#4B82AF;" points="232.727,87.273 221.091,87.273 232.727,98.909 	"/>
	<path style="fill:#695A69;" d="M215.273,174.546h23.273v-29.091h-23.273V174.546z M221.091,151.273h11.636v11.636v5.818h-11.636
		V151.273z"/>
	<polygon style="fill:#6EB1E2;" points="232.727,162.909 221.091,151.273 221.091,168.727 232.727,168.727 	"/>
	<polygon style="fill:#4B82AF;" points="232.727,151.273 221.091,151.273 232.727,162.909 	"/>
	<path style="fill:#695A69;" d="M293.818,174.546h23.273v-29.091h-23.273V174.546z M299.636,151.273h11.636v11.636v5.818h-11.636
		V151.273z"/>
	<polygon style="fill:#6EB1E2;" points="311.273,162.909 299.636,151.273 299.636,168.727 311.273,168.727 	"/>
	<polygon style="fill:#4B82AF;" points="311.273,151.273 299.636,151.273 311.273,162.909 	"/>
	<path style="fill:#695A69;" d="M162.909,206.546h23.273v-29.091h-23.273V206.546z M168.727,183.273h11.636v11.636v5.818h-11.636
		V183.273z"/>
	<polygon style="fill:#6EB1E2;" points="180.364,194.909 168.727,183.273 168.727,200.727 180.364,200.727 	"/>
	<polygon style="fill:#4B82AF;" points="180.364,183.273 168.727,183.273 180.364,194.909 	"/>
	<path style="fill:#695A69;" d="M215.273,206.546h23.273v-29.091h-23.273V206.546z M221.091,183.273h11.636v11.636v5.818h-11.636
		V183.273z"/>
	<polygon style="fill:#6EB1E2;" points="232.727,194.909 221.091,183.273 221.091,200.727 232.727,200.727 	"/>
	<polygon style="fill:#4B82AF;" points="232.727,183.273 221.091,183.273 232.727,194.909 	"/>
	<path style="fill:#695A69;" d="M264.727,209.455h-23.273v29.091h23.273V209.455z M258.909,226.909v5.818h-11.636v-17.455h11.636
		V226.909z"/>
	<polygon style="fill:#6EB1E2;" points="247.273,232.727 258.909,232.727 258.909,226.909 247.273,215.273 	"/>
	<polygon style="fill:#4B82AF;" points="258.909,226.909 258.909,215.273 247.273,215.273 	"/>
	<path style="fill:#695A69;" d="M189.091,270.546h23.273v-29.091h-23.273V270.546z M194.909,247.273h11.636v11.636v5.818h-11.636
		V247.273z"/>
	<polygon style="fill:#6EB1E2;" points="206.546,258.909 194.909,247.273 194.909,264.727 206.546,264.727 	"/>
	<polygon style="fill:#4B82AF;" points="206.546,247.273 194.909,247.273 206.546,258.909 	"/>
	<path style="fill:#695A69;" d="M215.273,302.546h23.273v-29.091h-23.273V302.546z M221.091,279.273h11.636v11.636v5.818h-11.636
		V279.273z"/>
	<polygon style="fill:#6EB1E2;" points="232.727,290.909 221.091,279.273 221.091,296.727 232.727,296.727 	"/>
	<polygon style="fill:#4B82AF;" points="232.727,279.273 221.091,279.273 232.727,290.909 	"/>
	<path style="fill:#695A69;" d="M264.727,273.455h-23.273v29.091h23.273V273.455z M258.909,290.909v5.818h-11.636v-17.455h11.636
		V290.909z"/>
	<polygon style="fill:#6EB1E2;" points="247.273,296.727 258.909,296.727 258.909,290.909 247.273,279.273 	"/>
	<polygon style="fill:#4B82AF;" points="258.909,290.909 258.909,279.273 247.273,279.273 	"/>
	<path style="fill:#695A69;" d="M189.091,366.545h23.273v-29.091h-23.273V366.545z M194.909,343.273h11.636v11.636v5.818h-11.636
		V343.273z"/>
	<polygon style="fill:#6EB1E2;" points="206.546,354.909 194.909,343.273 194.909,360.727 206.546,360.727 	"/>
	<polygon style="fill:#4B82AF;" points="206.546,343.273 194.909,343.273 206.546,354.909 	"/>
	<path style="fill:#695A69;" d="M267.636,398.545h23.273v-29.091h-23.273V398.545z M273.455,375.273h11.636v11.636v5.818h-11.636
		V375.273z"/>
	<polygon style="fill:#6EB1E2;" points="285.091,386.909 273.455,375.273 273.455,392.727 285.091,392.727 	"/>
	<polygon style="fill:#4B82AF;" points="285.091,375.273 273.455,375.273 285.091,386.909 	"/>
	<path style="fill:#695A69;" d="M293.818,398.545h23.273v-29.091h-23.273V398.545z M299.636,375.273h11.636v11.636v5.818h-11.636
		V375.273z"/>
	<polygon style="fill:#6EB1E2;" points="311.273,386.909 299.636,375.273 299.636,392.727 311.273,392.727 	"/>
	<polygon style="fill:#4B82AF;" points="311.273,375.273 299.636,375.273 311.273,386.909 	"/>
	<path style="fill:#695A69;" d="M189.091,430.545h23.273v-29.091h-23.273V430.545z M194.909,407.273h11.636v11.636v5.818h-11.636
		V407.273z"/>
	<polygon style="fill:#6EB1E2;" points="206.546,418.909 194.909,407.273 194.909,424.727 206.546,424.727 	"/>
	<polygon style="fill:#4B82AF;" points="206.546,407.273 194.909,407.273 206.546,418.909 	"/>
	<path style="fill:#695A69;" d="M241.455,430.545h23.273v-29.091h-23.273V430.545z M247.273,407.273h11.636v11.636v5.818h-11.636
		V407.273z"/>
	<polygon style="fill:#6EB1E2;" points="258.909,418.909 247.273,407.273 247.273,424.727 258.909,424.727 	"/>
	<polygon style="fill:#4B82AF;" points="258.909,407.273 247.273,407.273 258.909,418.909 	"/>
</g>
<g>
</g>
<g>
</g>
<g>
</g>
<g>
</g>
<g>
</g>
<g>
</g>
<g>
</g>
<g>
</g>
<g>
</g>
<g>
</g>
<g>
</g>
<g>
</g>
<g>
</g>
<g>
</g>
<g>
</g>
</svg>
