<svg width="100%" height="100%"  viewBox="0 0 128 128" xmlns="http://www.w3.org/2000/svg">
 <!-- Created with Method Draw - http://github.com/duopixel/Method-Draw/ -->
 <g>
  <title>Lodge</title>
  <ellipse stroke="#000" ry="63.385249" rx="63.180331" id="svg_6" cy="64.122946" cx="63.540987" stroke-width="4" fill="#B3B1a4"/>
  <path id="svg_16" d="m-155.126651,40.380644c-0.085156,-0.078934 -0.146193,-0.329747 -0.132322,-0.543735c0.008747,-0.134936 0.193282,-0.954091 0.209398,-0.929521c0.00526,0.008019 0.052067,0.198999 0.104016,0.424399c0.083217,0.361067 0.094452,0.428395 0.094452,0.565983c0,0.278886 -0.090479,0.507325 -0.199117,0.502728c-0.031702,-0.001342 -0.066095,-0.010276 -0.076428,-0.019854l0,0zm0.085317,-0.140269c0.002819,-0.036106 -0.003766,-0.053714 -0.020085,-0.053714c-0.037195,0 -0.08879,-0.116208 -0.100317,-0.225944c-0.012296,-0.117059 -0.044899,-0.130981 -0.049715,-0.021229c-0.009278,0.211453 0.154486,0.501104 0.170117,0.300888l0,0z" fill-opacity="null" stroke-opacity="null" stroke-width="1.5" stroke="#000" fill="#00aeff"/>
  <path id="svg_19" d="m38.683843,42.194786c-0.901471,5.312418 -3.204142,10.38955 -3.359198,15.867677c0.206311,3.171827 -1.838256,4.875563 -4.637209,4.815578c-3.010362,3.247662 0.371569,8.380239 3.77772,9.691223c3.47617,2.428465 7.788602,-0.285087 11.232064,1.893342c4.572344,3.719958 6.481194,10.315524 4.903739,16.097751c-1.568413,4.773243 6.460198,3.037257 3.440366,-0.778365c-2.332332,-3.729476 4.396614,-2.496438 2.673963,1.044354c-0.325513,2.842274 2.014419,3.762245 0.973072,6.515889c2.712884,1.618987 -0.227412,2.525482 -1.879813,2.831171c-3.869543,2.007587 0.699925,-3.596273 -2.365524,-5.253787c-2.807181,0.634959 -0.905028,5.527415 -1.868581,4.962342c-1.983636,-1.616604 -1.982173,-7.660628 -5.311386,-3.716974c-1.104933,-4.859278 0.911112,-9.92002 -0.641931,-14.751088c0.636189,-3.607905 -4.837111,-4.852371 -4.144837,-0.667806c0.275974,6.386531 -1.587408,12.760342 -0.517961,19.115407c1.472933,3.919751 5.59249,5.68555 8.178041,8.710311c2.123441,2.332262 4.876297,4.82583 8.181314,4.091551c3.748581,-0.169115 7.504073,-0.529427 11.235739,0.089984c4.693678,0.154073 8.276719,-3.707238 12.282297,-5.690704c4.70887,-3.891466 3.967472,-10.842437 3.498058,-16.379224c-0.575593,-3.418358 0.687475,-6.838272 0.452091,-10.224634c-3.39484,-4.323106 -6.180152,3.275618 -5.213083,6.540283c-0.000237,4.1067 0.75752,9.396832 -3.006506,12.071974c-3.106335,-0.081521 -6.062669,1.092785 -9.192964,0.478788c-2.540056,1.569878 -6.654321,1.529565 -7.492743,-2.207578c-0.334733,-3.31883 1.110172,-6.798287 -0.853052,-9.895678c1.724929,1.546189 4.734396,-1.335391 3.057193,2.131061c-2.045705,2.821685 1.732224,7.169718 3.154438,3.004865c0.471851,-2.794375 -2.041019,-6.503111 2.089609,-5.904434c0.842378,0.985659 -2.876651,7.880324 2.207026,6.137967c3.624386,-0.826269 -0.644807,-6.743449 4.263318,-6.764012c2.375355,-2.910461 1.735793,-8.365746 5.369234,-10.57371c4.051264,-2.853457 10.376655,-0.793374 13.268202,-5.625689c2.464642,-2.472872 1.304791,-9.326861 -2.945822,-7.055801c-5.311895,0.538935 -1.096165,-7.487782 -1.244376,-10.495482c1.251574,-2.6196 -1.519941,-8.133853 -0.565584,-8.718891c1.803285,2.87147 2.44915,6.22997 2.061331,9.585752c-0.033326,2.845813 -1.192927,10.558353 2.60849,5.803932c1.286881,-3.313414 0.912604,-7.066449 1.829441,-10.513673c1.768339,-7.442465 -1.397909,-14.889068 -4.927683,-21.192792c-3.00625,-3.393594 -6.822769,-6.098843 -10.406771,-8.762386c-6.028419,-2.359706 -12.684728,-2.782438 -19.051661,-2.191039c-5.631807,1.015973 -11.587424,2.087095 -16.073873,6.083483c-4.37243,2.681352 -8.559951,6.242599 -10.288552,11.39479c-1.506403,4.150607 -4.144306,8.377488 -2.945404,12.988215c1.14659,3.843555 0.538463,7.835225 0.724109,11.76373c1.954594,4.489893 3.79997,-2.297506 3.617051,-4.542552c0.108207,-4.257331 2.266359,-8.025688 3.85661,-11.805114l-0.000003,-0.000006zm35.90059,9.133541c4.019488,0.299765 9.108769,2.629336 9.218462,7.486028c0.611185,4.873819 -3.172713,9.598112 -8.021877,9.120158c-4.404596,-0.376545 -7.221587,-4.336277 -6.92911,-8.78814c-1.474646,-3.192035 0.820163,-6.610744 3.900008,-7.344539c0.597244,-0.209015 1.211143,-0.365465 1.832518,-0.473511l0,0.000003zm-27.124781,0.415124c4.662904,-0.863072 9.9681,2.147486 9.983669,7.519304c0.437941,5.193127 -4.859617,6.210564 -8.473379,7.51152c-2.500558,1.680391 -5.098046,0.115823 -7.175814,-1.577227c-2.695801,-2.9367 -1.903442,-8.854591 0.94305,-11.535296c1.380317,-1.063192 3.089037,-1.481138 4.722474,-1.918301zm15.955766,13.699918c2.257367,3.2291 4.967352,8.153263 2.048089,11.818172c-2.591507,2.163076 -2.918227,-3.076744 -5.638263,-0.609006c-2.55171,-2.325875 -0.198242,-7.058799 1.592185,-9.421602c0.590114,-0.680399 1.265405,-1.27941 1.997989,-1.787563z" stroke-opacity="null" stroke-width="1.5" stroke="#000" fill="#49242d"/>
 </g>
</svg>