<svg width="100%" height="100%"  viewBox="0 0 128 128" xmlns="http://www.w3.org/2000/svg">
 <g>
  <title>Spanish</title>
  <circle cx="63.65857" cy="64.08044" r="62.81482" fill="#edcd40" id="svg_1"/>
  <path id="svg_4" d="m5.35937,88.68309c0,0 116.85937,-0.47215 116.85937,-0.47215c0,0 -9.66506,16.05319 -9.97421,16.00948c-0.30915,-0.04372 -15.06708,13.73615 -15.37623,13.69243c-0.30915,-0.04372 -17.26369,8.07031 -17.57284,8.0266c-0.30915,-0.04372 -19.02097,1.93233 -19.33012,1.88861c-0.30915,-0.04372 -20.77825,-4.67781 -20.77825,-4.67781c0,0 -18.01216,-11.80382 -18.32131,-11.84753c-0.30915,-0.04372 -8.91659,-11.28795 -9.22574,-11.33167c-0.30915,-0.04372 -6.28066,-11.28795 -6.28066,-11.28795z" fill="#c94a4a"/>
  <path transform="rotate(180 63.742191314697266,19.656253814697266) " id="svg_5" d="m6.3672,1.34904c0,0 114.74998,-0.44701 114.74998,-0.44701c0,0 -9.4906,15.19847 -9.79417,15.15708c-0.30357,-0.0414 -14.79511,13.00478 -15.09868,12.9634c-0.30358,-0.04139 -16.95207,7.64063 -17.25564,7.59924c-0.30358,-0.0414 -18.67764,1.82944 -18.9812,1.78806c-0.30358,-0.0414 -20.4032,-4.42875 -20.4032,-4.42875c0,0 -17.68702,-11.17535 -17.9906,-11.21674c-0.30358,-0.04139 -8.75564,-10.68695 -9.0592,-10.72833c-0.30358,-0.04139 -6.16729,-10.68695 -6.16729,-10.68695z" fill="#c94a4a"/>
 </g>
</svg>