<svg width="100%" height="100%"  viewBox="0 0 64 64" xmlns="http://www.w3.org/2000/svg">
 <g>
  <title>Sphinx</title>
  <g id="svg_8">
   <path d="m54.0355,51.6412l19.25926,0c2.31111,0 3.85185,-1.54074 3.85185,-3.85185l0,-19.25926c0,-2.31111 -1.54074,-3.85185 -3.85185,-3.85185l-19.25926,0c-2.31111,0 -3.85185,1.54074 -3.85185,3.85185l0,19.25926c0,2.31111 1.54074,3.85185 3.85185,3.85185z" fill="#FAA85F" id="svg_1"/>
   <path d="m84.85031,38.54491l0,9.24444c0,6.54815 -5.00741,11.55556 -11.55556,11.55556l-19.25926,0c-6.54815,0 -11.55556,-5.00741 -11.55556,-11.55556l0,-9.24444l-12.32593,13.48148l10.4,15.02222l46.22222,0l10.4,-15.02222l-12.32593,-13.48148z" fill="#FFFFFF" id="svg_2"/>
   <g id="svg_3">
    <rect x="94.47994" y="105.56713" width="23.11111" height="11.55556" fill="#FAA85F" id="svg_4"/>
    <path d="m106.0355,74.75232l-84.74074,0c-2.31111,0 -3.85185,1.54074 -3.85185,3.85185l0,19.25926l23.11111,0l0,19.25926l46.22222,0l0,-19.25926l23.11111,0l0,-19.25926c0,-2.31111 -1.54074,-3.85185 -3.85185,-3.85185z" fill="#FAA85F" id="svg_5"/>
    <rect x="9.7392" y="105.56713" width="23.11111" height="11.55556" fill="#FAA85F" id="svg_6"/>
   </g>
   <path d="m117.59105,97.86343l0,-19.25926c0,-6.54815 -5.00741,-11.55556 -11.55556,-11.55556l-10.01482,0l11.17037,-15.79259l-22.34074,-24.65185c-1.15556,-5.39259 -5.77778,-9.62963 -11.55556,-9.62963l-19.25926,0c-5.77778,0 -10.4,4.23704 -11.55556,10.01482l-22.34074,24.65185l11.17037,15.40741l-10.01482,0c-6.54815,0 -11.55556,5.00741 -11.55556,11.55556l0,19.25926l-7.7037,0l0,19.25926l0,3.85185l0,3.85185l123.25926,0l0,-3.85185l0,-3.85185l0,-19.25926l-7.7037,0zm-67.40741,-69.33333c0,-2.31111 1.54074,-3.85185 3.85185,-3.85185l19.25926,0c2.31111,0 3.85185,1.54074 3.85185,3.85185l0,19.25926c0,2.31111 -1.54074,3.85185 -3.85185,3.85185l-19.25926,0c-2.31111,0 -3.85185,-1.54074 -3.85185,-3.85185l0,-19.25926zm-20.02963,23.4963l12.32593,-13.48148l0,9.24444c0,6.54815 5.00741,11.55556 11.55556,11.55556l19.25926,0c6.54815,0 11.55556,-5.00741 11.55556,-11.55556l0,-9.24444l12.32593,13.48148l-10.4,15.02222l-46.22222,0l-10.4,-15.02222zm2.6963,65.0963l-23.11111,0l0,-11.55556l23.11111,0l0,11.55556zm53.92593,0l-46.22222,0l0,-19.25926l-23.11111,0l0,-19.25926c0,-2.31111 1.54074,-3.85185 3.85185,-3.85185l15.40741,0l53.92593,0l15.40741,0c2.31111,0 3.85185,1.54074 3.85185,3.85185l0,19.25926l-23.11111,0l0,19.25926zm30.81482,0l-23.11111,0l0,-11.55556l23.11111,0l0,11.55556z" fill="#00384E" id="svg_7"/>
  </g>
 </g>
</svg>