<svg width="100%" height="100%"  viewBox="0 0 128 128" xmlns="http://www.w3.org/2000/svg">
 <g>
  <title>stop</title>
  <path id="svg_7" d="m60.20259,127.53885c0,0 -32.89932,-82.52801 -33.20254,-83.51695c-0.30322,-0.98894 69.28566,0.98894 69.28566,0.98894" fill="#3f3f3f"/>
  <ellipse ry="31.25" rx="32.5" id="svg_5" cy="43.16071" cx="61.78571" fill="#3f3f3f"/>
  <g id="svg_1">
   <g id="svg_2">
    <path d="m62.39064,17.14086c-14.54847,0 -26.34365,11.79328 -26.34365,26.34365c0,2.84272 0.46427,5.57317 1.29387,8.13237c1.86661,6.58544 23.38867,64.06196 23.38867,64.06196s22.8597,-52.71203 26.31511,-62.97359c1.07506,-2.87506 1.69536,-5.97465 1.69536,-9.22456c-0.00381,-14.54466 -11.79898,-26.33984 -26.34936,-26.33984l0,0.00001zm0,47.11412c-11.41653,0 -20.67344,-9.26072 -20.67344,-20.67344c0,-11.42223 9.25691,-20.67914 20.67344,-20.67914c11.42223,0 20.67534,9.25691 20.67534,20.67914c0,11.41273 -9.25309,20.67344 -20.67534,20.67344z" id="svg_3" fill="#dd9b61"/>
    <path d="m71.17947,29.17769l-17.57575,0c-1.80381,0 -3.27274,1.5888 -3.27274,3.55055l0,19.10176c0,1.30339 0.64884,2.43553 1.61353,3.05202l0,2.04166c0,0.67167 1.07886,1.21016 2.41841,1.21016c1.33383,0 2.41841,-0.53848 2.41841,-1.21016l0,-1.54503l2.96069,0l0,-0.00191l6.12117,0l0,0.00191l2.2738,0l0,1.54503c0,0.67167 1.08077,1.21016 2.41841,1.21016s2.41841,-0.53848 2.41841,-1.21016l0,-2.12347c0.8962,-0.63552 1.48415,-1.7258 1.48415,-2.97211l0,-19.10176c-0.00381,-1.95794 -1.47083,-3.54864 -3.27845,-3.54864l-0.00002,0l-0.00002,-0.00001zm-13.87298,1.51269l10.16833,0l0,0.98753l-10.16833,0l0,-0.98753zm2.03785,18.91339l-6.418,0l0,-2.37464l6.418,0l0,2.37464zm6.51503,5.47994l-6.12117,0l0,-1.88373l6.12117,0l0,1.88373zm6.32095,-5.47994l-6.41989,0l0,-2.37464l6.41989,0l0,2.37464zm0.28161,-8.15901c0,0.24165 -0.42622,0.43764 -0.95138,0.43764l-18.23791,0c-0.52325,0 -0.94947,-0.19789 -0.94947,-0.43764l0,-8.43681c0,-0.24355 0.42622,-0.44144 0.94947,-0.44144l18.23791,0c0.52516,0 0.95138,0.19789 0.95138,0.44144l0,8.43681z" id="svg_4" fill="#dd9b61"/>
   </g>
  </g>
 </g>
</svg>