 <svg width="90%" height="90%"  viewBox="0 0 128 128" xmlns="http://www.w3.org/2000/svg">
   <g>
    <title>Store hardware</title>
    <g id="cart">
     <circle fill="#ccc" cx="115.89061" cy="105.71875" r="8.69718" id="svg_20"/>
     <circle fill="#ccc" cx="62.73436" cy="105.29687" r="8.30997" id="svg_19"/>
     <path fill="#777" d="m23.57813,21.90625c17.73437,0.3125 100.10937,-1.90625 100.10937,0.5625c0,2.46875 3.79687,53.90625 -0.84375,57.64062c-4.64062,3.73438 -74.625,2.01563 -80.10937,-1.42187" id="svg_18"/>
     <path id="svg_2" d="m127.0005,79.57459l0,-55.55727c0,-2.48522 -2.04753,-4.4995 -4.57379,-4.4995l-95.88135,0l-2.78849,-7.54365c-0.6571,-1.7783 -2.37532,-2.96217 -4.29835,-2.96217l-11.88474,0c-2.52626,0 -4.57379,2.01427 -4.57379,4.4995s2.04753,4.4995 4.57379,4.4995l8.68156,0l29.07812,78.67018c0.6571,1.7788 2.37532,2.96217 4.29835,2.96217l3.47151,0c-0.94271,1.60282 -1.48546,3.46061 -1.48546,5.44189c0,6.01133 4.97171,10.90278 11.0828,10.90278c6.11109,0 11.08331,-4.89095 11.08331,-10.90278c0,-1.98128 -0.54276,-3.83907 -1.48546,-5.44189l34.02187,0c-0.94271,1.60282 -1.48546,3.46061 -1.48546,5.44189c0,6.01133 4.97171,10.90278 11.0828,10.90278c6.11109,0 11.08331,-4.89095 11.08331,-10.90278c0,-2.31374 -0.73892,-4.4605 -1.99316,-6.2273c1.20341,-0.81041 1.99316,-2.17076 1.99316,-3.71408c0,-2.48522 -2.04753,-4.4995 -4.57379,-4.4995l-69.59172,0l-2.42868,-6.57026l72.0199,0c2.52626,0 4.57379,-2.01427 4.57379,-4.4995l-0.00003,-0.00001zm-64.29985,27.41393c-1.06722,0 -1.93522,-0.8539 -1.93522,-1.90379s0.868,-1.90429 1.93522,-1.90429s1.93573,0.8544 1.93573,1.90429s-0.86902,1.90379 -1.93573,1.90379zm53.21654,0c-1.06722,0 -1.93522,-0.8539 -1.93522,-1.90379s0.868,-1.90429 1.93522,-1.90429s1.93573,0.8549 1.93573,1.90479s-0.86851,1.90329 -1.93573,1.90329zm-48.64275,-50.59083l0,-9.20347l22.11935,0l0,9.20347l-22.11935,0zm22.11935,8.99899l0,9.67842l-22.11935,0l0,-9.67842l22.11935,0zm-49.21346,-8.99049l-3.40493,-9.21197l21.35146,0l0,9.20347l-17.77425,0c-0.05844,0 -0.11485,0.0065 -0.17228,0.0085zm27.09411,-18.21096l0,-9.67842l22.11935,0l0,9.67792l-22.11935,0l0,0.0005zm31.26693,8.99899l19.31155,0l0,9.20347l-19.31155,0l0,-9.20347zm19.31155,-8.99899l-19.31155,0l0,-9.67842l19.31155,0l0,9.67842zm-59.72606,-9.67842l0,9.67792l-24.67762,0l-3.57721,-9.67792l28.25483,0zm-14.62393,36.87987l14.62342,0l0,9.67842l-11.0457,0l-3.57772,-9.67842zm55.03843,9.67842l0,-9.67842l19.31155,0l0,9.67842l-19.31155,0z" fill="#222"/>
    </g>
    <g id="hardware" fill="#B99E04">
     <circle fill="#333" cx="64" cy="20" r="24" id="svg_19"/>
     <circle fill="#333" cx="100" cy="20" r="20" id="svg_19"/>
     <circle fill="#333" cx="61" cy="58" r="20" id="svg_19"/>
     <path d="m89.85076,36.98673l4.9287,-5.09112c3.56083,1.46032 7.57941,1.36949 11.08344,-0.2722c0.86031,-0.40317 1.06615,-1.56991 0.39811,-2.25996l-8.7771,-9.06627c-1.06637,-1.10151 -1.06637,-2.8875 0,-3.98901l8.76799,-9.05701c0.67234,-0.69457 0.46556,-1.86989 -0.40081,-2.2748c-5.21423,-2.43703 -11.5646,-1.44217 -15.85071,2.98511c-4.0258,4.1584 -5.10974,10.24122 -3.25328,15.4368l-5.02567,5.19129l8.12933,8.39716l0,0.00001z" id="svg_3"/>
     <path d="m80.4326,29.92095l-6.81119,-7.03565l-8.12926,8.39723l6.81119,7.03565l8.12919,8.39716l24.90211,25.72276c0.3556,0.36732 0.82181,0.55102 1.28781,0.55102c0.46614,0 0.93221,-0.1837 1.28781,-0.55102l5.55357,-5.73659c0.71128,-0.73479 0.71128,-1.92585 0,-2.66049l-24.90204,-25.72283l-8.12919,-8.39723l0,-0.00001z" id="svg_4"/>
     <path d="m109.93945,11.98717l-7.28185,7.52182c-0.58215,0.60133 -0.58215,1.57638 0,2.17771l5.61234,5.79729c0.62662,0.6472 1.66434,0.59553 2.21447,-0.12194c3.29411,-4.29585 3.9176,-10.06076 1.8709,-14.91305c-0.41765,-0.99012 -1.67666,-1.22556 -2.41586,-0.46184l0,0.00001z" id="svg_5"/>
     <path d="m54.17975,47.63466l8.77703,9.06627c1.06637,1.10151 1.06637,2.8875 0,3.98901l-8.76799,9.05701c-0.67234,0.6945 -0.46556,1.86997 0.40081,2.2748c5.21423,2.43688 11.5646,1.44217 15.85078,-2.98519c4.01129,-4.14348 5.10165,-10.19753 3.27297,-15.38069l5.43035,-5.60923l-8.12911,-8.39708l-5.30041,5.47501c-3.57388,-1.48284 -7.61471,-1.39969 -11.13609,0.2502c-0.86053,0.40302 -1.06629,1.56998 -0.39833,2.25988l-0.00001,0.00001z" id="svg_6"/>
     <path d="m49.95635,49.78654c-3.29404,4.29585 -3.91753,10.06083 -1.8709,14.91305c0.41758,0.99012 1.67659,1.22548 2.41586,0.46192l7.28185,-7.52182c0.58215,-0.60133 0.58215,-1.57638 0,-2.17771l-5.61234,-5.79722c-0.62655,-0.64727 -1.66434,-0.59568 -2.21447,0.12179l0,-0.00001z" id="svg_7"/>
     <path d="m54.12404,37.10144c0.87176,0.90049 2.28505,0.90049 3.15681,0l0.42086,-0.43473c0.87176,-0.90041 0.87176,-2.36036 0,-3.26077l-0.84179,-0.86953l1.65741,-1.71195l-7.78671,-8.04339l-1.65734,1.71195l-0.84179,-0.86953c-0.87176,-0.90041 -2.28505,-0.90041 -3.15681,0l-0.42086,0.4348c-0.87176,0.90049 -0.87176,2.36036 0,3.26077l9.47022,9.78239l0,-0.00001z" id="svg_8"/>
     <path d="m66.16849,7.31541l7.6893,7.9427c8.86511,-6.10135 13.82057,-0.98356 7.00544,-8.02321c-4.71324,-4.86864 -10.66485,-2.56499 -14.69473,0.08051l-0.00001,0z" id="svg_9"/>
     <path d="m63.80491,7.53677c-0.43588,-0.45024 -1.00709,-0.67537 -1.57837,-0.67537s-1.14256,0.22512 -1.57837,0.67537l-9.47044,9.78246c-0.87176,0.90041 -0.87176,2.36036 0,3.26085l0.84179,0.86953l7.78671,8.04332l0.84179,0.86953c0.43588,0.45024 1.00709,0.67537 1.57837,0.67537c0.1381,0 0.2762,-0.01348 0.41233,-0.03977c0.31893,-0.06153 0.62728,-0.19522 0.90063,-0.40099c0.09275,-0.06997 0.18163,-0.148 0.26541,-0.23446l0.39826,-0.41138l8.12919,-8.39716l0.64441,-0.66565l0.29851,-0.30827c0.11892,-0.12284 0.221,-0.25645 0.30755,-0.3973c0.54737,-0.89145 0.44514,-2.08598 -0.30755,-2.86355l-0.9166,-0.94681l-7.72065,-7.97531l-0.83297,-0.86042l0,0.00001z" id="svg_10"/>
    </g>
   </g>
  </svg>