 <svg width="100%" height="100%"  viewBox="0 0 115 115" xmlns="http://www.w3.org/2000/svg">
  <g>
   <title>Store hardware</title>
   <g id="cart">
    <circle id="svg_20" r="7.60992" cy="100.00254" cx="102.2346" fill="#ccc"/>
    <circle id="svg_19" r="7.27112" cy="99.6334" cx="55.50849" fill="#ccc"/>
    <path id="svg_18" d="m21.08886,26.66765c15.5891,0.27343 87.99947,-1.66795 87.99947,0.49218c0,2.16013 3.33758,47.1673 -0.74168,50.43482c-4.07926,3.26754 -65.59786,1.76365 -70.4188,-1.24412" fill="#777"/>
    <path fill="#222" d="m112.00056,77.12673l0,-48.61192c0,-2.17454 -1.79985,-3.93701 -4.02051,-3.93701l-84.2829,0l-2.45118,-6.6006c-0.57761,-1.55599 -2.08799,-2.59186 -3.77839,-2.59186l-10.44708,0c-2.22067,0 -4.02051,1.76246 -4.02051,3.93701s1.79985,3.93701 4.02051,3.93701l7.63138,0l25.56063,68.83543c0.57761,1.55643 2.08799,2.59186 3.77839,2.59186l3.05157,0c-0.82867,1.40245 -1.30577,3.02799 -1.30577,4.76159c0,5.25984 4.3703,9.5398 9.74215,9.5398c5.37185,0 9.7426,-4.27952 9.7426,-9.5398c0,-1.7336 -0.4771,-3.35914 -1.30577,-4.76159l29.90636,0c-0.82867,1.40245 -1.30577,3.02799 -1.30577,4.76159c0,5.25984 4.3703,9.5398 9.74215,9.5398c5.37185,0 9.7426,-4.27952 9.7426,-9.5398c0,-2.02449 -0.64954,-3.90288 -1.75205,-5.44881c1.05784,-0.7091 1.75205,-1.89939 1.75205,-3.24977c0,-2.17454 -1.79985,-3.93701 -4.02051,-3.93701l-61.17344,0l-2.13489,-5.7489l63.30789,0c2.22067,0 4.02051,-1.76246 4.02051,-3.93701l-0.00003,-0.00001zm-56.52171,23.98685c-0.93812,0 -1.70112,-0.74715 -1.70112,-1.66579s0.763,-1.66623 1.70112,-1.66623s1.70157,0.74759 1.70157,1.66623s-0.7639,1.66579 -1.70157,1.66579zm46.77911,0c-0.93812,0 -1.70112,-0.74715 -1.70112,-1.66579s0.763,-1.66623 1.70112,-1.66623s1.70157,0.74803 1.70157,1.66667s-0.76345,1.66536 -1.70157,1.66536zm-42.7586,-44.26635l0,-8.05292l19.44364,0l0,8.05292l-19.44364,0zm19.44364,7.874l0,8.4685l-19.44364,0l0,-8.4685l19.44364,0zm-43.26027,-7.86657l-2.99305,-8.06036l18.76864,0l0,8.05292l-15.62416,0c-0.05137,0 -0.10096,0.00569 -0.15144,0.00744zm23.81662,-15.93436l0,-8.4685l19.44364,0l0,8.46806l-19.44364,0l0,0.00044zm27.48467,7.874l16.97549,0l0,8.05292l-16.97549,0l0,-8.05292zm16.97549,-7.874l-16.97549,0l0,-8.4685l16.97549,0l0,8.4685zm-52.50119,-8.4685l0,8.46806l-21.69245,0l-3.14449,-8.46806l24.83694,0zm-12.85492,32.26943l12.85447,0l0,8.4685l-9.70954,0l-3.14493,-8.4685zm48.38061,8.4685l0,-8.4685l16.97549,0l0,8.4685l-16.97549,0z" id="svg_2"/>
   </g>
   <g fill="#B99E04" id="hardware">
    <circle id="svg_19" r="20.9997" cy="24.9997" cx="56.62103" fill="#333"/>
    <circle id="svg_19" r="17.49975" cy="24.9997" cx="88.26623" fill="#333"/>
    <circle id="svg_19" r="17.49975" cy="58.24923" cx="53.98393" fill="#333"/>
    <path id="svg_3" d="m79.34471,39.86288l4.33249,-4.45467c3.13009,1.27776 6.66255,1.19829 9.74271,-0.23817c0.75624,-0.35277 0.93718,-1.37365 0.34995,-1.97744l-7.71536,-7.93287c-0.93737,-0.96381 -0.93737,-2.52653 0,-3.49033l7.70735,-7.92477c0.59101,-0.60774 0.40924,-1.63613 -0.35233,-1.99042c-4.58348,-2.13237 -10.16567,-1.26188 -13.9333,2.61193c-3.53881,3.63855 -4.49163,8.96094 -2.85974,13.50701l-4.41773,4.54231l7.14595,7.34741l0,0.00001z"/>
    <path id="svg_4" d="m71.06583,33.68041l-5.98726,-6.15611l-7.14589,7.34747l5.98726,6.15611l7.14583,7.34741l21.88978,22.50709c0.31258,0.3214 0.7224,0.48214 1.13203,0.48214c0.40975,0 0.81944,-0.16074 1.13203,-0.48214l4.88177,-5.01944c0.62524,-0.64293 0.62524,-1.68509 0,-2.3279l-21.88972,-22.50716l-7.14583,-7.34747l0,-0.00001z"/>
    <path id="svg_5" d="m97.00333,17.98857l-6.40099,6.5815c-0.51173,0.52616 -0.51173,1.37931 0,1.90547l4.93343,5.07256c0.55082,0.56629 1.46301,0.52108 1.94659,-0.1067c2.89563,-3.75882 3.4437,-8.80304 1.64458,-13.04873c-0.36713,-0.86634 -1.47384,-1.07235 -2.12362,-0.4041l0,0.00001z"/>
    <path id="svg_6" d="m47.9887,49.17968l7.7153,7.93287c0.93737,0.96381 0.93737,2.52653 0,3.49033l-7.70735,7.92477c-0.59101,0.60768 -0.40924,1.6362 0.35233,1.99042c4.58348,2.13224 10.16567,1.26188 13.93336,-2.612c3.52606,-3.62549 4.48452,-8.92271 2.87705,-13.45791l4.77346,-4.90801l-7.14576,-7.34734l-4.65924,4.79057c-3.14156,-1.29747 -6.69358,-1.22471 -9.78899,0.21892c-0.75643,0.35264 -0.9373,1.37371 -0.35015,1.97737l-0.00001,0.00001z"/>
    <path id="svg_7" d="m44.27619,51.06255c-2.89557,3.75882 -3.44364,8.8031 -1.64458,13.04873c0.36707,0.86634 1.47378,1.07228 2.12362,0.40417l6.40099,-6.5815c0.51173,-0.52616 0.51173,-1.37931 0,-1.90547l-4.93343,-5.0725c-0.55076,-0.56635 -1.46301,-0.52121 -1.94659,0.10656l0,-0.00001z"/>
    <path id="svg_8" d="m47.93973,39.96325c0.76631,0.78792 2.00863,0.78792 2.77494,0l0.36995,-0.38038c0.76631,-0.78785 0.76631,-2.06529 0,-2.85313l-0.73996,-0.76083l1.45692,-1.49793l-6.84478,-7.03787l-1.45686,1.49793l-0.73996,-0.76083c-0.76631,-0.78785 -2.00863,-0.78785 -2.77494,0l-0.36995,0.38044c-0.76631,0.78792 -0.76631,2.06529 0,2.85313l8.32464,8.55947l0,-0.00001z"/>
    <path id="svg_9" d="m58.5272,13.90084l6.75915,6.94976c7.79273,-5.33861 12.14874,-0.8606 6.15801,-7.02021c-4.14309,-4.26 -9.37476,-2.24433 -12.91716,0.07045l-0.00001,0z"/>
    <path id="svg_10" d="m56.44954,14.09453c-0.38315,-0.39395 -0.88527,-0.59094 -1.38744,-0.59094s-1.00435,0.19698 -1.38744,0.59094l-8.32483,8.55953c-0.76631,0.78785 -0.76631,2.06529 0,2.8532l0.73996,0.76083l6.84478,7.0378l0.73996,0.76083c0.38315,0.39395 0.88527,0.59094 1.38744,0.59094c0.12139,0 0.24279,-0.01179 0.36245,-0.0348c0.28035,-0.05384 0.5514,-0.17082 0.79168,-0.35086c0.08153,-0.06122 0.15966,-0.1295 0.2333,-0.20515l0.35008,-0.35995l7.14583,-7.34741l0.56646,-0.58244l0.2624,-0.26973c0.10453,-0.10748 0.19427,-0.22439 0.27035,-0.34763c0.48116,-0.78001 0.39129,-1.82521 -0.27035,-2.50557l-0.80572,-0.82845l-6.78671,-6.9783l-0.73221,-0.75286l0,0.00001z"/>
   </g>
  </g>
 </svg>