<svg width="90%" height="90%"  viewBox="0 0 128 128" xmlns="http://www.w3.org/2000/svg">
 <g>
  <title>Store autoparts</title>
  <g id="cart">
   <circle fill="#ccc" cx="115.89061" cy="105.71875" r="8.69718" id="svg_20"/>
   <circle fill="#ccc" cx="62.73436" cy="105.29687" r="8.30997" id="svg_19"/>
   <path fill="#777" d="m23.57813,21.90625c17.73437,0.3125 100.10937,-1.90625 100.10937,0.5625c0,2.46875 3.79687,53.90625 -0.84375,57.64062c-4.64062,3.73438 -74.625,2.01563 -80.10937,-1.42187" id="svg_18"/>
   <path id="svg_2" d="m127.0005,79.57459l0,-55.55727c0,-2.48522 -2.04753,-4.4995 -4.57379,-4.4995l-95.88135,0l-2.78849,-7.54365c-0.6571,-1.7783 -2.37532,-2.96217 -4.29835,-2.96217l-11.88474,0c-2.52626,0 -4.57379,2.01427 -4.57379,4.4995s2.04753,4.4995 4.57379,4.4995l8.68156,0l29.07812,78.67018c0.6571,1.7788 2.37532,2.96217 4.29835,2.96217l3.47151,0c-0.94271,1.60282 -1.48546,3.46061 -1.48546,5.44189c0,6.01133 4.97171,10.90278 11.0828,10.90278c6.11109,0 11.08331,-4.89095 11.08331,-10.90278c0,-1.98128 -0.54276,-3.83907 -1.48546,-5.44189l34.02187,0c-0.94271,1.60282 -1.48546,3.46061 -1.48546,5.44189c0,6.01133 4.97171,10.90278 11.0828,10.90278c6.11109,0 11.08331,-4.89095 11.08331,-10.90278c0,-2.31374 -0.73892,-4.4605 -1.99316,-6.2273c1.20341,-0.81041 1.99316,-2.17076 1.99316,-3.71408c0,-2.48522 -2.04753,-4.4995 -4.57379,-4.4995l-69.59172,0l-2.42868,-6.57026l72.0199,0c2.52626,0 4.57379,-2.01427 4.57379,-4.4995l-0.00003,-0.00001zm-64.29985,27.41393c-1.06722,0 -1.93522,-0.8539 -1.93522,-1.90379s0.868,-1.90429 1.93522,-1.90429s1.93573,0.8544 1.93573,1.90429s-0.86902,1.90379 -1.93573,1.90379zm53.21654,0c-1.06722,0 -1.93522,-0.8539 -1.93522,-1.90379s0.868,-1.90429 1.93522,-1.90429s1.93573,0.8549 1.93573,1.90479s-0.86851,1.90329 -1.93573,1.90329zm-48.64275,-50.59083l0,-9.20347l22.11935,0l0,9.20347l-22.11935,0zm22.11935,8.99899l0,9.67842l-22.11935,0l0,-9.67842l22.11935,0zm-49.21346,-8.99049l-3.40493,-9.21197l21.35146,0l0,9.20347l-17.77425,0c-0.05844,0 -0.11485,0.0065 -0.17228,0.0085zm27.09411,-18.21096l0,-9.67842l22.11935,0l0,9.67792l-22.11935,0l0,0.0005zm31.26693,8.99899l19.31155,0l0,9.20347l-19.31155,0l0,-9.20347zm19.31155,-8.99899l-19.31155,0l0,-9.67842l19.31155,0l0,9.67842zm-59.72606,-9.67842l0,9.67792l-24.67762,0l-3.57721,-9.67792l28.25483,0zm-14.62393,36.87987l14.62342,0l0,9.67842l-11.0457,0l-3.57772,-9.67842zm55.03843,9.67842l0,-9.67842l19.31155,0l0,9.67842l-19.31155,0z" fill="#222"/>
  </g>
  <g id="gears">
   <circle id="svg_7" r="24.5446" cy="66.0625" cx="97.91407" fill="#333333"/>
   <circle id="svg_6" r="31.71647" cy="31.04687" cx="64.42186" fill="#333333"/>
   <circle id="svg_4" r="14.64459" cy="66.48437" cx="97.32811" fill="#b2b2b2"/>
   <circle id="svg_3" r="16.0368" cy="30.625" cx="65.68749" fill="#b2b2b2"/>
   <g id="gears_main">
    <path fill="#b2651e" id="svg_1" d="m80.0095,54.90721l-2.23291,-5.15754c2.12864,-1.62571 3.95691,-3.64815 5.38541,-5.95649l5.08428,2.00443c0.97229,0.38342 2.05863,-0.12611 2.42677,-1.13733l1.86854,-5.13169c0.17692,-0.48564 0.16111,-1.02454 -0.04404,-1.49803c-0.20515,-0.4735 -0.58232,-0.84281 -1.04945,-1.02689l-5.08428,-2.00443c0.40051,-2.71408 0.3192,-5.48848 -0.23978,-8.17397l4.95705,-2.32322c0.45509,-0.21345 0.81005,-0.60587 0.98697,-1.0919c0.17692,-0.48564 0.16111,-1.02454 -0.04404,-1.49803l-2.16629,-5.00323c-0.42686,-0.98616 -1.54181,-1.4248 -2.48888,-0.98106l-4.95705,2.32322c-1.56251,-2.21474 -3.50633,-4.11694 -5.72494,-5.60323l1.92651,-5.28991c0.36814,-1.01122 -0.12121,-2.14189 -1.09312,-2.52492l-4.93183,-1.9445c-0.46638,-0.18368 -0.98433,-0.16762 -1.4398,0.04582c-0.45509,0.21345 -0.81005,0.60587 -0.98697,1.0919l-1.92613,5.28952c-2.61121,-0.41906 -5.28227,-0.3325 -7.8566,0.24908l-2.23254,-5.15715c-0.20515,-0.4735 -0.58232,-0.84281 -1.04945,-1.02689c-0.46638,-0.18368 -0.98471,-0.16762 -1.4398,0.04582l-4.80912,2.2539c-0.94782,0.44412 -1.36979,1.60338 -0.94293,2.58954l2.23291,5.15754c-2.12864,1.62571 -3.95691,3.64815 -5.38541,5.95649l-5.08428,-2.00443c-0.46638,-0.18368 -0.98433,-0.16723 -1.4398,0.04582c-0.45509,0.21345 -0.81005,0.60587 -0.98697,1.0919l-1.86854,5.1313c-0.36814,1.01122 0.12121,2.14189 1.09312,2.52492l5.08428,2.00443c-0.40051,2.71369 -0.3192,5.48887 0.23978,8.17397l-4.95743,2.32322c-0.45509,0.21345 -0.81005,0.60587 -0.98697,1.0919c-0.17692,0.48564 -0.16111,1.02454 0.04404,1.49803l2.16629,5.00323c0.20477,0.4735 0.58232,0.84281 1.04908,1.02689c0.46713,0.18407 0.98471,0.16801 1.4398,-0.04582l4.95705,-2.32322c1.56251,2.21513 3.50596,4.11694 5.72494,5.60323l-1.92651,5.28991c-0.36814,1.01122 0.12121,2.14189 1.09312,2.52492l4.93221,1.94411c0.21493,0.08459 0.44116,0.12689 0.66664,0.12689c0.26387,0 0.52774,-0.05757 0.77316,-0.17271c0.45509,-0.21345 0.81005,-0.60587 0.98697,-1.0919l1.92613,-5.28952c2.61121,0.41867 5.28265,0.3325 7.8566,-0.24908l2.23254,5.15715c0.20515,0.4735 0.58232,0.84281 1.04945,1.02689c0.46676,0.18407 0.98509,0.16801 1.4398,-0.04582l4.80874,-2.25351c0.9482,-0.44412 1.37054,-1.60338 0.94368,-2.58954zm-3.119,-18.61437c-1.86816,5.13052 -6.66486,8.57736 -11.93584,8.57736c-1.54181,0 -3.06216,-0.29138 -4.5189,-0.86553c-3.18751,-1.25639 -5.71403,-3.72922 -7.11392,-6.96301c-1.3999,-3.2334 -1.50567,-6.84082 -0.29812,-10.15725c1.86816,-5.13052 6.66486,-8.57736 11.93584,-8.57736c1.54181,0 3.06216,0.29138 4.5189,0.86553c3.18751,1.25639 5.71403,3.72922 7.11392,6.96262c1.40028,3.23379 1.50605,6.84121 0.29812,10.15764zm41.84602,26.73978c-0.33727,-0.38263 -0.80742,-0.61018 -1.30579,-0.6325l-3.54511,-0.15822c-0.32635,-1.74085 -0.91583,-3.42139 -1.74394,-4.97268l2.61422,-2.49633c0.76601,-0.7312 0.81683,-1.96996 0.11405,-2.76656l-2.59578,-2.9428c-0.33727,-0.38263 -0.80742,-0.61018 -1.30617,-0.6325c-0.49762,-0.01919 -0.98546,0.16292 -1.35322,0.51383l-2.61385,2.49633c-1.41496,-0.99125 -2.9737,-1.74594 -4.61263,-2.23314l0.15207,-3.68849c0.04442,-1.08054 -0.76149,-1.99385 -1.80003,-2.04007l-3.83532,-0.17115c-1.03327,-0.04073 -1.91634,0.79229 -1.96076,1.87244l-0.15207,3.68849c-1.6728,0.33955 -3.28801,0.95287 -4.77938,1.81409l-2.39929,-2.71996c-0.33727,-0.38263 -0.80742,-0.61018 -1.30579,-0.6325c-0.49838,-0.02115 -0.98546,0.16292 -1.35322,0.51383l-2.82841,2.70077c-0.76601,0.7312 -0.81683,1.96996 -0.11405,2.76656l2.39929,2.71996c-0.95271,1.47218 -1.67807,3.09358 -2.14634,4.79919l-3.54473,-0.15822c-1.03402,-0.04347 -1.91672,0.7919 -1.96114,1.87244l-0.16449,3.99044c-0.02146,0.51893 0.15621,1.02532 0.49386,1.40795c0.33727,0.38263 0.80742,0.61018 1.30617,0.6325l3.54473,0.15783c0.32635,1.74085 0.91583,3.42139 1.74357,4.97308l-2.61385,2.49633c-0.36776,0.35091 -0.58646,0.84007 -0.60792,1.35861c-0.02146,0.51893 0.15621,1.02532 0.49386,1.40795l2.59578,2.9428c0.33727,0.38263 0.80742,0.61018 1.30617,0.6325c0.4965,0.02076 0.98546,-0.16292 1.35322,-0.51383l2.61385,-2.49633c1.41496,0.99125 2.9737,1.74594 4.61263,2.23314l-0.15207,3.68849c-0.04442,1.08054 0.76112,1.99385 1.79965,2.04007l3.83532,0.17115c0.0271,0.00117 0.05383,0.00157 0.08055,0.00157c0.47052,0 0.92486,-0.18329 1.27267,-0.5154c0.36776,-0.35091 0.58646,-0.84007 0.60792,-1.35861l0.15207,-3.68849c1.6728,-0.33955 3.28801,-0.95287 4.77938,-1.81409l2.39929,2.71996c0.33727,0.38263 0.80742,0.61018 1.30579,0.6325c0.50064,0.02272 0.98584,-0.16292 1.35322,-0.51383l2.82841,-2.70077c0.76601,-0.7312 0.81683,-1.96996 0.11405,-2.76656l-2.39929,-2.71996c0.95271,-1.47218 1.67807,-3.09358 2.14634,-4.79919l3.54473,0.15822c1.03741,0.04151 1.91634,-0.7919 1.96114,-1.87244l0.16449,-3.99044c0.02146,-0.51893 -0.15621,-1.02532 -0.49386,-1.40795zm-21.20024,11.57852c-4.83471,-0.2154 -8.59965,-4.48352 -8.39224,-9.51378c0.20176,-4.90101 4.04988,-8.74028 8.76038,-8.74028c0.12723,0 0.25521,0.00274 0.38357,0.00862c4.83471,0.21579 8.59965,4.48352 8.39224,9.51378c-0.20741,5.03378 -4.26971,8.94472 -9.14395,8.73167z"/>
   </g>
  </g>
 </g>
</svg>