<svg width="100%" height="100%"  viewBox="0 0 115 115" xmlns="http://www.w3.org/2000/svg">
 <g>
  <title>Store autoparts</title>
  <g id="cart">
   <circle id="svg_20" r="7.78538" cy="94.7751" cx="104.0554" fill="#ccc"/>
   <circle id="svg_19" r="7.43877" cy="94.39662" cx="56.47194" fill="#ccc"/>
   <path id="svg_18" d="m21.42076,19.58398c15.87514,0.28035 89.61412,-1.71016 89.61412,0.50464c0,2.2148 3.39881,48.36118 -0.75529,51.71141c-4.15411,3.35024 -66.80148,1.80829 -71.71088,-1.27561" fill="#777"/>
   <path fill="#222" d="m114.00056,71.32026l0,-49.84237c0,-2.22958 -1.83287,-4.03666 -4.09428,-4.03666l-85.82936,0l-2.49615,-6.76767c-0.58821,-1.59537 -2.1263,-2.65747 -3.84772,-2.65747l-10.63877,0c-2.26141,0 -4.09428,1.80707 -4.09428,4.03666s1.83287,4.03666 4.09428,4.03666l7.7714,0l26.02963,70.57776c0.58821,1.59582 2.1263,2.65747 3.84772,2.65747l3.10756,0c-0.84388,1.43795 -1.32973,3.10463 -1.32973,4.88211c0,5.39297 4.45049,9.78126 9.9209,9.78126c5.47042,0 9.92136,-4.38784 9.92136,-9.78126c0,-1.77748 -0.48586,-3.44416 -1.32973,-4.88211l30.45509,0c-0.84388,1.43795 -1.32973,3.10463 -1.32973,4.88211c0,5.39297 4.45049,9.78126 9.9209,9.78126c5.47042,0 9.92136,-4.38784 9.92136,-9.78126c0,-2.07574 -0.66145,-4.00167 -1.7842,-5.58673c1.07725,-0.72705 1.7842,-1.94746 1.7842,-3.33203c0,-2.22958 -1.83287,-4.03666 -4.09428,-4.03666l-62.29587,0l-2.17406,-5.89441l64.46949,0c2.26141,0 4.09428,-1.80707 4.09428,-4.03666l-0.00003,-0.00001zm-57.55879,24.59399c-0.95533,0 -1.73234,-0.76606 -1.73234,-1.70796s0.777,-1.70841 1.73234,-1.70841s1.73279,0.76651 1.73279,1.70841s-0.77791,1.70796 -1.73279,1.70796zm47.63743,0c-0.95533,0 -1.73234,-0.76606 -1.73234,-1.70796s0.777,-1.70841 1.73234,-1.70841s1.73279,0.76696 1.73279,1.70885s-0.77746,1.70751 -1.73279,1.70751zm-43.54315,-45.3868l0,-8.25675l19.80041,0l0,8.25675l-19.80041,0zm19.80041,8.07331l0,8.68285l-19.80041,0l0,-8.68285l19.80041,0zm-44.05403,-8.06568l-3.04796,-8.26438l19.11302,0l0,8.25675l-15.91084,0c-0.05231,0 -0.10281,0.00583 -0.15422,0.00763zm24.25362,-16.33769l0,-8.68285l19.80041,0l0,8.6824l-19.80041,0l0,0.00045zm27.98897,8.07331l17.28697,0l0,8.25675l-17.28697,0l0,-8.25675zm17.28697,-8.07331l-17.28697,0l0,-8.68285l17.28697,0l0,8.68285zm-53.46451,-8.68285l0,8.6824l-22.09047,0l-3.20218,-8.6824l25.29265,0zm-13.09079,33.08622l13.09033,0l0,8.68285l-9.88769,0l-3.20264,-8.68285zm49.26832,8.68285l0,-8.68285l17.28697,0l0,8.68285l-17.28697,0z" id="svg_2"/>
  </g>
  <g id="gears">
   <circle fill="#333333" cx="87.96348" cy="59.1981" r="21.9714" id="svg_7"/>
   <circle fill="#333333" cx="57.98252" cy="27.78435" r="28.39139" id="svg_6"/>
   <circle fill="#b2b2b2" cx="87.43895" cy="59.57657" r="13.10928" id="svg_4"/>
   <circle fill="#b2b2b2" cx="59.11547" cy="27.40588" r="14.35554" id="svg_3"/>
   <g id="gears_main">
    <path d="m71.93599,49.1903l-1.99882,-4.62701c1.90548,-1.45848 3.54208,-3.27288 4.82082,-5.34378l4.55126,1.79824c0.87036,0.34398 1.84281,-0.11314 2.17235,-1.02034l1.67265,-4.60382c0.15837,-0.43568 0.14422,-0.91915 -0.03942,-1.34393c-0.18364,-0.42479 -0.52127,-0.75611 -0.93943,-0.92126l-4.55126,-1.79824c0.35852,-2.4349 0.28574,-4.92391 -0.21464,-7.33315l4.43736,-2.08424c0.40738,-0.19149 0.72513,-0.54355 0.8835,-0.97958c0.15837,-0.43568 0.14422,-0.91915 -0.03942,-1.34393l-1.93918,-4.48857c-0.38211,-0.88472 -1.38017,-1.27824 -2.22795,-0.88014l-4.43736,2.08424c-1.3987,-1.98692 -3.13873,-3.69345 -5.12475,-5.02685l1.72454,-4.74576c0.32954,-0.9072 -0.1085,-1.92156 -0.97852,-2.26519l-4.41479,-1.74448c-0.41749,-0.16479 -0.88113,-0.15038 -1.28885,0.04111c-0.40738,0.19149 -0.72513,0.54355 -0.8835,0.97958l-1.7242,4.74541c-2.33746,-0.37595 -4.72849,-0.2983 -7.03293,0.22346l-1.99849,-4.62666c-0.18364,-0.42479 -0.52127,-0.75611 -0.93943,-0.92126c-0.41749,-0.16479 -0.88148,-0.15038 -1.28885,0.04111l-4.30494,2.02205c-0.84845,0.39844 -1.22618,1.43845 -0.84408,2.32317l1.99882,4.62701c-1.90548,1.45848 -3.54208,3.27288 -4.82082,5.34378l-4.55126,-1.79824c-0.41749,-0.16479 -0.88113,-0.15003 -1.28885,0.04111c-0.40738,0.19149 -0.72513,0.54355 -0.8835,0.97958l-1.67265,4.60347c-0.32954,0.9072 0.1085,1.92156 0.97852,2.26519l4.55126,1.79824c-0.35852,2.43455 -0.28574,4.92426 0.21464,7.33315l-4.4377,2.08424c-0.40738,0.19149 -0.72513,0.54355 -0.8835,0.97958c-0.15837,0.43568 -0.14422,0.91915 0.03942,1.34393l1.93918,4.48857c0.1833,0.42479 0.52127,0.75611 0.9391,0.92126c0.41816,0.16514 0.88148,0.15073 1.28885,-0.04111l4.43736,-2.08424c1.3987,1.98727 3.1384,3.69345 5.12475,5.02685l-1.72454,4.74576c-0.32954,0.9072 0.1085,1.92156 0.97852,2.26519l4.41513,1.74413c0.1924,0.07589 0.39491,0.11384 0.59675,0.11384c0.23621,0 0.47241,-0.05165 0.6921,-0.15494c0.40738,-0.19149 0.72513,-0.54355 0.8835,-0.97958l1.7242,-4.74541c2.33746,0.3756 4.72883,0.2983 7.03293,-0.22346l1.99849,4.62666c0.18364,0.42479 0.52127,0.75611 0.93943,0.92126c0.41783,0.16514 0.88182,0.15073 1.28885,-0.04111l4.3046,-2.0217c0.84879,-0.39844 1.22686,-1.43845 0.84475,-2.32317l0,-0.00001zm-2.79201,-16.6996c-1.67231,4.60277 -5.96613,7.69505 -10.68451,7.69505c-1.38017,0 -2.74113,-0.26141 -4.04515,-0.7765c-2.85334,-1.12715 -5.11498,-3.34561 -6.36811,-6.24676c-1.25314,-2.9008 -1.34782,-6.13714 -0.26687,-9.11242c1.67231,-4.60277 5.96613,-7.69505 10.68451,-7.69505c1.38017,0 2.74113,0.26141 4.04515,0.7765c2.85334,1.12715 5.11498,3.34561 6.36811,6.24641c1.25348,2.90115 1.34816,6.13749 0.26687,9.11277zm37.45897,23.98919c-0.30191,-0.34327 -0.72277,-0.54741 -1.16889,-0.56744l-3.17345,-0.14194c-0.29214,-1.56178 -0.81982,-3.06945 -1.56111,-4.46116l2.34015,-2.23954c0.6857,-0.65599 0.7312,-1.76732 0.10209,-2.48198l-2.32364,-2.64009c-0.30191,-0.34327 -0.72277,-0.54741 -1.16923,-0.56744c-0.44545,-0.01722 -0.88215,0.14616 -1.21135,0.46097l-2.33982,2.23954c-1.26662,-0.88928 -2.66194,-1.56634 -4.12905,-2.00343l0.13613,-3.30907c0.03976,-0.96939 -0.68166,-1.78875 -1.61132,-1.83022l-3.43323,-0.15354c-0.92494,-0.03654 -1.71544,0.71079 -1.7552,1.67983l-0.13613,3.30907c-1.49743,0.30462 -2.9433,0.85485 -4.27832,1.62748l-2.14775,-2.44017c-0.30191,-0.34327 -0.72277,-0.54741 -1.16889,-0.56744c-0.44613,-0.01897 -0.88215,0.14616 -1.21135,0.46097l-2.53189,2.42296c-0.6857,0.65599 -0.7312,1.76732 -0.10209,2.48198l2.14775,2.44017c-0.85283,1.32074 -1.50214,2.77536 -1.92132,4.30552l-3.17311,-0.14194c-0.92562,-0.039 -1.71578,0.71044 -1.75554,1.67983l-0.14725,3.57996c-0.01921,0.46555 0.13983,0.91985 0.44208,1.26312c0.30191,0.34327 0.72277,0.54741 1.16923,0.56744l3.17311,0.14159c0.29214,1.56178 0.81982,3.06945 1.56078,4.46152l-2.33982,2.23954c-0.3292,0.31481 -0.52498,0.75366 -0.54419,1.21886c-0.01921,0.46555 0.13983,0.91985 0.44208,1.26312l2.32364,2.64009c0.30191,0.34327 0.72277,0.54741 1.16923,0.56744c0.44445,0.01862 0.88215,-0.14616 1.21135,-0.46097l2.33982,-2.23954c1.26662,0.88928 2.66194,1.56634 4.12905,2.00343l-0.13613,3.30907c-0.03976,0.96939 0.68133,1.78875 1.61098,1.83022l3.43323,0.15354c0.02426,0.00105 0.04819,0.00141 0.07211,0.00141c0.42119,0 0.8279,-0.16444 1.13925,-0.46238c0.3292,-0.31481 0.52498,-0.75366 0.54419,-1.21886l0.13613,-3.30907c1.49743,-0.30462 2.9433,-0.85485 4.27832,-1.62748l2.14775,2.44017c0.30191,0.34327 0.72277,0.54741 1.16889,0.56744c0.44815,0.02038 0.88249,-0.14616 1.21135,-0.46097l2.53189,-2.42296c0.6857,-0.65599 0.7312,-1.76732 0.10209,-2.48198l-2.14775,-2.44017c0.85283,-1.32074 1.50214,-2.77536 1.92132,-4.30552l3.17311,0.14194c0.92865,0.03724 1.71544,-0.71044 1.75554,-1.67983l0.14725,-3.57996c0.01921,-0.46555 -0.13983,-0.91985 -0.44208,-1.26312l0.00001,-0.00001zm-18.97765,10.38749c-4.32785,-0.19324 -7.69808,-4.02232 -7.51242,-8.53514c0.18061,-4.39687 3.6253,-7.84121 7.84196,-7.84121c0.11389,0 0.22845,0.00246 0.34336,0.00773c4.32785,0.19359 7.69808,4.02232 7.51242,8.53514c-0.18567,4.51598 -3.82208,8.02462 -8.18532,7.83349l0,-0.00001z" id="svg_1" fill="#b2651e"/>
   </g>
  </g>
 </g>
</svg>