<svg width="90%" height="90%"  viewBox="0 0 128 128" xmlns="http://www.w3.org/2000/svg">
 <g>
  <title>Store salon</title>
  <circle id="svg_20" r="8.69718" cy="105.71875" cx="115.89061" fill="#ccc"/>
  <circle id="svg_19" r="8.30997" cy="105.29687" cx="62.73436" fill="#ccc"/>
  <path id="svg_18" d="m23.57813,21.90625c17.73437,0.3125 100.10937,-1.90625 100.10937,0.5625c0,2.46875 3.79687,53.90625 -0.84375,57.64062c-4.64062,3.73438 -74.625,2.01563 -80.10937,-1.42187" fill="#777"/>
  <g id="svg_8">
   <path id="svg_2" d="m124.78566,79.57459l0,-55.55727c0,-2.48522 -2.04753,-4.4995 -4.57379,-4.4995l-95.88135,0l-2.78849,-7.54365c-0.6571,-1.7783 -2.37532,-2.96217 -4.29835,-2.96217l-11.88474,0c-2.52626,0 -4.57379,2.01427 -4.57379,4.4995s2.04753,4.4995 4.57379,4.4995l8.68156,0l29.07812,78.67018c0.6571,1.7788 2.37532,2.96217 4.29835,2.96217l3.47151,0c-0.94271,1.60282 -1.48546,3.46061 -1.48546,5.44189c0,6.01133 4.97171,10.90278 11.0828,10.90278c6.11109,0 11.08331,-4.89095 11.08331,-10.90278c0,-1.98128 -0.54276,-3.83907 -1.48546,-5.44189l34.02187,0c-0.94271,1.60282 -1.48546,3.46061 -1.48546,5.44189c0,6.01133 4.97171,10.90278 11.0828,10.90278c6.11109,0 11.08331,-4.89095 11.08331,-10.90278c0,-2.31374 -0.73892,-4.4605 -1.99316,-6.2273c1.20341,-0.81041 1.99316,-2.17076 1.99316,-3.71408c0,-2.48522 -2.04753,-4.4995 -4.57379,-4.4995l-69.59172,0l-2.42868,-6.57026l72.0199,0c2.52626,0 4.57379,-2.01427 4.57379,-4.4995l-0.00003,-0.00001zm-64.29985,27.41393c-1.06722,0 -1.93522,-0.8539 -1.93522,-1.90379s0.868,-1.90429 1.93522,-1.90429s1.93573,0.8544 1.93573,1.90429s-0.86902,1.90379 -1.93573,1.90379zm53.21654,0c-1.06722,0 -1.93522,-0.8539 -1.93522,-1.90379s0.868,-1.90429 1.93522,-1.90429s1.93573,0.8549 1.93573,1.90479s-0.86851,1.90329 -1.93573,1.90329zm-48.64275,-50.59083l0,-9.20347l22.11935,0l0,9.20347l-22.11935,0zm22.11935,8.99899l0,9.67842l-22.11935,0l0,-9.67842l22.11935,0zm-49.21346,-8.99049l-3.40493,-9.21197l21.35146,0l0,9.20347l-17.77425,0c-0.05844,0 -0.11485,0.0065 -0.17228,0.0085zm27.09411,-18.21096l0,-9.67842l22.11935,0l0,9.67792l-22.11935,0l0,0.0005zm31.26693,8.99899l19.31155,0l0,9.20347l-19.31155,0l0,-9.20347zm19.31155,-8.99899l-19.31155,0l0,-9.67842l19.31155,0l0,9.67842zm-59.72606,-9.67842l0,9.67792l-24.67762,0l-3.57721,-9.67792l28.25483,0zm-14.62393,36.87987l14.62342,0l0,9.67842l-11.0457,0l-3.57772,-9.67842zm55.03843,9.67842l0,-9.67842l19.31155,0l0,9.67842l-19.31155,0z" fill="#222"/>
   <circle id="svg_19" r="40" cy="36" cx="76" fill="#999"/>
   <g id="svg_0">
    <path id="svg_1" fill="#2C6991" d="m77.83474,81.30468l-22.92228,0c-4.15698,0 -7.53902,-3.45788 -7.53902,-7.70842c0,-4.2504 3.38203,-7.70842 7.53902,-7.70842l4.971,0c1.14495,0 2.0763,-0.95255 2.0763,-2.12295c0,-1.17067 -0.93161,-2.12309 -2.0763,-2.12309l-1.68167,0c-1.3576,0 -2.4584,-1.1254 -2.4584,-2.51364s1.10067,-2.51364 2.4584,-2.51364l1.68167,0c3.85603,0 6.99309,3.20769 6.99309,7.15023c0,3.94267 -3.1372,7.15037 -6.99309,7.15037l-4.971,0c-1.44591,0 -2.62222,1.20289 -2.62222,2.68114c0,1.4784 1.17645,2.68114 2.62222,2.68114l22.92228,0c2.00078,0 3.62838,-1.66432 3.62838,-3.70992l0,-2.04588c0,-1.38811 1.10067,-2.51364 2.4584,-2.51364s2.4584,1.1254 2.4584,2.51364l0,2.04588c-0.00014,4.81758 -3.83347,8.73719 -8.54519,8.73719l0,0.00003z"/>
    <path id="svg_2" fill="#2C6991" d="m73.17336,53.2659c-1.3576,0 -2.4584,-1.1254 -2.4584,-2.51364l0,-11.22735c0,-1.38811 1.10067,-2.51364 2.4584,-2.51364s2.4584,1.1254 2.4584,2.51364l0,11.22735c-0.00014,1.38811 -1.1008,2.51364 -2.4584,2.51364z"/>
    <path id="svg_3" fill="#2C6991" d="m98.79668,36.44014c-0.46657,-0.59378 -1.17136,-0.93708 -1.91632,-0.93708l-19.57518,0c-1.3576,0 -2.49293,1.12103 -2.49293,2.50942l0,24.96089c0,4.37921 3.51903,7.88788 7.80201,7.88788l3.44434,0c3.61615,0 6.80602,-2.59353 7.58524,-6.204l5.63714,-26.1154c0.16038,-0.7444 -0.01774,-1.50793 -0.48431,-2.10171l0,-0.00001z"/>
   </g>
   <g id="svg_9">
    <path id="svg_4" fill="#528FB3" d="m84.24357,36.62016l-7.05763,0c-1.3351,0 -2.45161,1.09138 -2.45161,2.44304l0,24.30069c0,4.2634 3.4607,7.67924 7.6727,7.67924l1.83654,0l0,-34.42297l0,0z"/>
    <path id="svg_5" fill="#2C6991" d="m104.30293,14.39997c-2.3998,-2.28353 -5.66991,-3.47569 -8.95815,-3.26922l-42.84397,2.68102c-4.42057,0.27685 -7.90603,4.00543 -7.90603,8.48844l0,11.13523c0,4.48301 3.48101,8.21159 7.90157,8.48844l42.83032,2.68129c0.24416,0.01534 0.49252,0.02286 0.73613,0.02286c3.03542,0 6.01648,-1.17819 8.23798,-3.29208c2.39993,-2.28353 3.79658,-5.50525 3.79658,-8.83908l0,-9.25778c0,-3.33398 -1.39449,-6.55569 -3.79441,-8.83908l0,0l-0.00003,-0.00003z"/>
    <path id="svg_6" fill="#528FB3" d="m76.34607,12.31976l-23.84526,1.49201c-4.42057,0.27685 -7.90603,4.00543 -7.90603,8.48844l0,11.13523c0,4.48301 3.48101,8.21159 7.90157,8.48844l23.84972,1.49283l0,-31.09694l0,0z"/>
    <path id="svg_7" fill="#2C6991" d="m52.5008,13.81177c-4.42057,0.27685 -7.90603,4.00543 -7.90603,8.48844l0,11.13523c0,4.48301 3.48101,8.21159 7.90157,8.48844l4.34766,0.27206l0,-28.65595l-4.3432,0.27179z"/>
   </g>
  </g>
 </g>
</svg>