<svg width="100%" height="100%"  viewBox="0 0 115 115" xmlns="http://www.w3.org/2000/svg">
 <g>
  <title>Store salon</title>
  <circle id="svg_20" r="7.01376" cy="96.35546" cx="104.00744" fill="#ccc"/>
  <circle id="svg_19" r="6.7015" cy="96.00082" cx="57.2625" fill="#ccc"/>
  <path id="svg_18" d="m22.82901,25.90098c15.59538,0.26269 88.03492,-1.60243 88.03492,0.47285c0,2.07528 3.33892,45.31468 -0.74198,48.45387c-4.0809,3.1392 -65.62428,1.69438 -70.44717,-1.19525" fill="#777"/>
  <g id="svg_8">
   <path id="svg_2" d="m111.82963,74.37815l0,-46.70256c0,-2.08913 -1.80057,-3.78237 -4.02213,-3.78237l-84.31685,0l-2.45216,-6.34134c-0.57785,-1.49487 -2.08883,-2.49006 -3.77991,-2.49006l-10.45129,0c-2.22156,0 -4.02213,1.69324 -4.02213,3.78237s1.80057,3.78237 4.02213,3.78237l7.63445,0l25.57093,66.13174c0.57785,1.4953 2.08883,2.49006 3.77991,2.49006l3.0528,0c-0.82901,1.34736 -1.30629,2.90906 -1.30629,4.57456c0,5.05325 4.37206,9.1651 9.74607,9.1651c5.37402,0 9.74652,-4.11143 9.74652,-9.1651c0,-1.6655 -0.4773,-3.2272 -1.30629,-4.57456l29.9184,0c-0.82901,1.34736 -1.30629,2.90906 -1.30629,4.57456c0,5.05325 4.37206,9.1651 9.74607,9.1651c5.37402,0 9.74652,-4.11143 9.74652,-9.1651c0,-1.94498 -0.6498,-3.74959 -1.75276,-5.23479c1.05826,-0.68125 1.75276,-1.82478 1.75276,-3.12213c0,-2.08913 -1.80057,-3.78237 -4.02213,-3.78237l-61.19808,0l-2.13575,-5.52309l63.33339,0c2.22156,0 4.02213,-1.69324 4.02213,-3.78237l-0.00003,-0.00001zm-56.54448,23.0447c-0.9385,0 -1.70181,-0.71781 -1.70181,-1.60036s0.76331,-1.60078 1.70181,-1.60078s1.70226,0.71823 1.70226,1.60078s-0.76421,1.60036 -1.70226,1.60036zm46.79795,0c-0.9385,0 -1.70181,-0.71781 -1.70181,-1.60036s0.76331,-1.60078 1.70181,-1.60078s1.70226,0.71865 1.70226,1.6012s-0.76376,1.59994 -1.70226,1.59994zm-42.77582,-42.52767l0,-7.73662l19.45148,0l0,7.73662l-19.45148,0zm19.45148,7.56473l0,8.13588l-19.45148,0l0,-8.13588l19.45148,0zm-43.2777,-7.55759l-2.99425,-7.74377l18.7762,0l0,7.73662l-15.63045,0c-0.05139,0 -0.101,0.00546 -0.1515,0.00715zm23.82622,-15.3085l0,-8.13588l19.45148,0l0,8.13545l-19.45148,0l0,0.00042zm27.49574,7.56473l16.98233,0l0,7.73662l-16.98233,0l0,-7.73662zm16.98233,-7.56473l-16.98233,0l0,-8.13588l16.98233,0l0,8.13588zm-52.52234,-8.13588l0,8.13545l-21.70119,0l-3.14575,-8.13545l24.84694,0zm-12.8601,31.00196l12.85965,0l0,8.13588l-9.71345,0l-3.1462,-8.13588zm48.4001,8.13588l0,-8.13588l16.98233,0l0,8.13588l-16.98233,0z" fill="#222"/>
   <circle id="svg_19" r="32.25764" cy="37.74847" cx="68.92814" fill="#999"/>
   <g id="svg_0">
    <path id="svg_1" fill="#2C6991" d="m70.54159,75.8325l-20.15756,0c-3.6556,0 -6.62972,-2.90676 -6.62972,-6.47985c0,-3.57297 2.97411,-6.47985 6.62972,-6.47985l4.37143,0c1.00685,0 1.82587,-0.80073 1.82587,-1.78459c0,-0.98409 -0.81925,-1.78471 -1.82587,-1.78471l-1.47884,0c-1.19386,0 -2.16189,-0.94603 -2.16189,-2.11302s0.96792,-2.11302 2.16189,-2.11302l1.47884,0c3.39094,0 6.14964,2.69645 6.14964,6.01063c0,3.31429 -2.75881,6.01075 -6.14964,6.01075l-4.37143,0c-1.27152,0 -2.30595,1.01117 -2.30595,2.25382c0,1.24277 1.03456,2.25382 2.30595,2.25382l20.15756,0c1.75946,0 3.19075,-1.39906 3.19075,-3.11863l0,-1.71981c0,-1.16687 0.96792,-2.11302 2.16189,-2.11302s2.16189,0.94603 2.16189,2.11302l0,1.71981c-0.00012,4.04975 -3.37111,7.34466 -7.51453,7.34466l0,0.00003l0.00001,-0.00002z"/>
    <path id="svg_2" fill="#2C6991" d="m66.44243,52.26254c-1.19386,0 -2.16189,-0.94603 -2.16189,-2.11302l0,-9.43794c0,-1.16687 0.96792,-2.11302 2.16189,-2.11302s2.16189,0.94603 2.16189,2.11302l0,9.43794c-0.00012,1.16687 -0.96803,2.11302 -2.16189,2.11302z"/>
    <path id="svg_3" fill="#2C6991" d="m88.97525,38.11846c-0.4103,-0.49914 -1.03008,-0.78773 -1.68519,-0.78773l-17.21417,0c-1.19386,0 -2.19225,0.94236 -2.19225,2.10947l0,20.98263c0,3.68125 3.09459,6.63071 6.86099,6.63071l3.02891,0c3.18,0 5.98513,-2.18017 6.67036,-5.21521l4.95723,-21.95313c0.14104,-0.62576 -0.0156,-1.2676 -0.4259,-1.76674l0,-0.00001l0.00001,0.00001z"/>
   </g>
   <g id="svg_9">
    <path id="svg_4" fill="#528FB3" d="m76.17743,38.26979l-6.20639,0c-1.17407,0 -2.15591,0.91744 -2.15591,2.05367l0,20.42765c0,3.5839 3.0433,6.45532 6.74728,6.45532l1.61503,0l0,-28.93664l0,0z"/>
    <path id="svg_5" fill="#2C6991" d="m93.81738,19.59105c-2.11035,-1.91958 -4.98605,-2.92174 -7.87768,-2.74817l-37.67645,2.25372c-3.88739,0.23273 -6.95246,3.36705 -6.95246,7.13555l0,9.3605c0,3.76851 3.06116,6.90283 6.94854,7.13555l37.66444,2.25395c0.21471,0.0129 0.43312,0.01922 0.64734,0.01922c2.66931,0 5.29082,-0.99041 7.24438,-2.76739c2.11047,-1.91958 3.33866,-4.62782 3.33866,-7.43031l0,-7.78228c0,-2.80261 -1.2263,-5.51085 -3.33676,-7.43031l0,0l-0.00003,-0.00003l0.00001,-0.00001z"/>
    <path id="svg_6" fill="#528FB3" d="m69.23247,17.84239l-20.96922,1.25421c-3.88739,0.23273 -6.95246,3.36705 -6.95246,7.13555l0,9.3605c0,3.76851 3.06116,6.90283 6.94854,7.13555l20.97314,1.2549l0,-26.14071l0,0l0,-0.00001z"/>
    <path id="svg_7" fill="#2C6991" d="m48.26324,19.0966c-3.88739,0.23273 -6.95246,3.36705 -6.95246,7.13555l0,9.3605c0,3.76851 3.06116,6.90283 6.94854,7.13555l3.82328,0.2287l0,-24.08877l-3.81936,0.22847l0,-0.00001z"/>
   </g>
  </g>
 </g>
</svg>