<svg width="100%" height="100%"  viewBox="0 0 128 128" xmlns="http://www.w3.org/2000/svg">
    <g>
        <title>Stores</title>
        <g id="svg_1">
            <polygon id="svg_2" fill="#ba8c82" points="15.043840885162354,31.49123191833496 15.043840885162354,50.25951385498047 15.043840885162354,64.48279571533203 15.043840885162354,114.77194213867188 23.903491973876953,114.77194213867188 110.72806549072266,114.77194213867188 110.72806549072266,50.25951385498047 110.72806549072266,31.49123191833496 "/>
            <rect id="svg_3" fill="#B35A5B" height="40.75439" width="49.61404" y="63.38597" x="18.5877"/>
            <rect id="svg_4" fill="#B0D3F0" height="33.66667" width="42.52632" y="66.92983" x="22.13156"/>
            <path id="svg_5" fill="#a06f6a" d="m38.07893,31.49123l-24.13723,0c-0.33489,0 -0.57765,-0.32072 -0.48551,-0.64321l7.19758,-15.63551c0.90014,-1.95798 2.85812,-3.21251 5.01456,-3.21251l15.95446,0l-3.54386,19.49123z"/>
            <polygon id="svg_6" fill="#c18d87" points="87.69297790527344,31.49123191833496 62.88595199584961,31.49123191833496 62.88595199584961,12.000000092021239 84.14911651611328,12.000000092021239 "/>
            <path id="svg_7" fill="#F0C419" d="m50.48244,56.29825l0,0c-6.85028,0 -12.40351,-5.55323 -12.40351,-12.40351l0,-12.40351l24.80702,0l0,12.40351c0,6.85028 -5.55323,12.40351 -12.40351,12.40351z"/>
            <path id="svg_8" fill="#F0C419" d="m100.09649,56.29825l0,0c-6.85028,0 -12.40351,-5.55323 -12.40351,-12.40351l0,-12.40351l24.61742,0c0.10454,0 0.1896,0.08505 0.1896,0.1896l0,12.21391c0,6.85028 -5.55323,12.40351 -12.40351,12.40351z"/>
            <polygon id="svg_9" fill="#F3D55B" points="62.88595199584961,31.49123191833496 38.07893180847168,31.49123191833496 41.622793197631836,12.000000092021239 62.88595199584961,12.000000092021239 "/>
            <path id="svg_10" fill="#F3D55B" d="m111.87096,31.49123l-24.17799,0l-3.54386,-19.49123l15.95446,0c2.15644,0 4.11442,1.25453 5.01633,3.21428l7.20821,15.67272c0.08505,0.303 -0.14175,0.60423 -0.45716,0.60423l0.00001,0z"/>
            <path id="svg_11" fill="#84615f" d="m25.67542,56.29825l0,0c-6.85028,0 -12.40351,-5.55323 -12.40351,-12.40351l0,-11.90383c0,-0.27642 0.22326,-0.49968 0.49968,-0.49968l24.30734,0l0,12.40351c0,6.85028 -5.55323,12.40351 -12.40351,12.40351z"/>
            <path id="svg_12" fill="#84615f" d="m75.28946,56.29825l0,0c-6.85028,0 -12.40351,-5.55323 -12.40351,-12.40351l0,-12.40351l24.80702,0l0,12.40351c0,6.85028 -5.55323,12.40351 -12.40351,12.40351z"/>
            <rect id="svg_13" fill="#B35A5B" height="51.38597" width="28.35088" y="63.38597" x="75.28946"/>
            <rect id="svg_14" fill="#B0D3F0" height="44.29825" width="21.26316" y="66.92983" x="78.83332"/>
        </g>
    </g>
</svg>