<svg width="90%" height="90%"  viewBox="0 0 128 128" xmlns="http://www.w3.org/2000/svg">
 <g>
  <title>Store salon</title>
  <circle id="svg_20" r="8.69718" cy="105.71875" cx="115.89061" fill="#ccc"/>
  <circle id="svg_19" r="8.30997" cy="105.29687" cx="62.73436" fill="#ccc"/>
  <path id="svg_18" d="m23.57813,21.90625c17.73437,0.3125 100.10937,-1.90625 100.10937,0.5625c0,2.46875 3.79687,53.90625 -0.84375,57.64062c-4.64062,3.73438 -74.625,2.01563 -80.10937,-1.42187" fill="#777"/>
  <g id="svg_8">
   <path fill="#222" d="m124.78566,81.57459l0,-55.55727c0,-2.48522 -2.04753,-4.4995 -4.57379,-4.4995l-95.88135,0l-2.78849,-7.54365c-0.6571,-1.7783 -2.37532,-2.96217 -4.29835,-2.96217l-11.88474,0c-2.52626,0 -4.57379,2.01427 -4.57379,4.4995s2.04753,4.4995 4.57379,4.4995l8.68156,0l29.07812,78.67018c0.6571,1.7788 2.37532,2.96217 4.29835,2.96217l3.47151,0c-0.94271,1.60282 -1.48546,3.46061 -1.48546,5.44189c0,6.01133 4.97171,10.90278 11.0828,10.90278c6.11109,0 11.08331,-4.89095 11.08331,-10.90278c0,-1.98128 -0.54276,-3.83907 -1.48546,-5.44189l34.02187,0c-0.94271,1.60282 -1.48546,3.46061 -1.48546,5.44189c0,6.01133 4.97171,10.90278 11.0828,10.90278c6.11109,0 11.08331,-4.89095 11.08331,-10.90278c0,-2.31374 -0.73892,-4.4605 -1.99316,-6.2273c1.20341,-0.81041 1.99316,-2.17076 1.99316,-3.71408c0,-2.48522 -2.04753,-4.4995 -4.57379,-4.4995l-69.59172,0l-2.42868,-6.57026l72.0199,0c2.52626,0 4.57379,-2.01427 4.57379,-4.4995l-0.00003,-0.00001zm-64.29985,27.41393c-1.06722,0 -1.93522,-0.8539 -1.93522,-1.90379s0.868,-1.90429 1.93522,-1.90429s1.93573,0.8544 1.93573,1.90429s-0.86902,1.90379 -1.93573,1.90379zm53.21654,0c-1.06722,0 -1.93522,-0.8539 -1.93522,-1.90379s0.868,-1.90429 1.93522,-1.90429s1.93573,0.8549 1.93573,1.90479s-0.86851,1.90329 -1.93573,1.90329zm-48.64275,-50.59083l0,-9.20347l22.11935,0l0,9.20347l-22.11935,0zm22.11935,8.99899l0,9.67842l-22.11935,0l0,-9.67842l22.11935,0zm-49.21346,-8.99049l-3.40493,-9.21197l21.35146,0l0,9.20347l-17.77425,0c-0.05844,0 -0.11485,0.0065 -0.17228,0.0085zm27.09411,-18.21096l0,-9.67842l22.11935,0l0,9.67792l-22.11935,0l0,0.0005zm31.26693,8.99899l19.31155,0l0,9.20347l-19.31155,0l0,-9.20347zm19.31155,-8.99899l-19.31155,0l0,-9.67842l19.31155,0l0,9.67842zm-59.72606,-9.67842l0,9.67792l-24.67762,0l-3.57721,-9.67792l28.25483,0zm-14.62393,36.87987l14.62342,0l0,9.67842l-11.0457,0l-3.57772,-9.67842zm55.03843,9.67842l0,-9.67842l19.31155,0l0,9.67842l-19.31155,0z" id="svg_2"/>
   <path fill="#b2b2b2" d="m46,62.90625c0,0 -1,-46 -1,-46.90625c0,-0.90625 18,-10.09375 18,-11c0,-0.90625 17,9.90625 17,9c0,-0.90625 16,-8.09375 16,-9c0,-0.90625 17,10.90625 17,10c0,-0.90625 1,46.90625 1,46c0,-0.90625 -68,1.90625 -68,1.90625z" id="svg_2"/>
   <path d="m116.03728,24.45201l0,-5.48352l-0.35842,-1.5222c-0.10203,-0.18278 -1.70053,-3.37102 -4.91061,-6.64915c-3.1656,-3.26315 -8.11284,-6.65814 -14.62195,-6.65814c-6.50388,0 -11.39879,3.40698 -14.52777,6.68211c-0.95491,1.0188 -1.77378,2.01961 -2.43307,2.92754c-0.69591,-0.91991 -1.53833,-1.92672 -2.52463,-2.94852c-3.18653,-3.26614 -8.13377,-6.66113 -14.63242,-6.66113c-6.51434,0 -11.40141,3.40698 -14.533,6.68211c-3.13159,3.29011 -4.66992,6.49633 -4.75625,6.67911l-0.33749,1.46827l0,5.48352l-2.40167,0l0,45.72599l79.318,0l0,-45.72599l-3.28072,0zm-34.13097,-4.61155c0.55202,-0.95887 1.75809,-2.87361 3.57112,-4.71044c2.51417,-2.51703 5.99895,-4.8273 10.66887,-4.8273c4.81381,0 8.47649,2.48107 11.06653,5.09698c1.27671,1.30046 2.24732,2.6219 2.8909,3.59875c0.22499,0.33261 0.4029,0.64424 0.55202,0.87796l0,38.93601c-3.18915,-3.23018 -8.08406,-6.53828 -14.51207,-6.53828c-6.31551,-0.00599 -11.10839,3.21221 -14.23999,6.39145l0,-38.82514l0.00262,0l0,0.00001zm22.14353,41.0635l-15.72337,0c2.12959,-1.4353 4.70655,-2.48107 7.81721,-2.48706c3.11328,0 5.73995,1.04576 7.90616,2.48706zm-56.26665,-41.0635c0.55725,-0.96486 1.75809,-2.87361 3.57635,-4.71044c2.49847,-2.51703 5.99372,-4.8273 10.66887,-4.8273c4.80858,0 8.47649,2.48107 11.04822,5.09698c1.27671,1.30046 2.27348,2.6219 2.90137,3.59875c0.23023,0.33261 0.41336,0.64424 0.55202,0.87796l0,38.93601c-3.17868,-3.2182 -8.07883,-6.53828 -14.50161,-6.53828l-0.01046,0c-6.31551,0 -11.10839,3.21221 -14.23475,6.39145c0,0.003 0,-38.82514 0,-38.82514l-0.00001,0.00001zm22.14091,41.0635l-15.71814,0c2.11651,-1.4353 4.70131,-2.48107 7.82244,-2.48706c3.10543,0 5.72163,1.04576 7.8957,2.48706z" fill="#7f0000" id="svg_1"/>
  </g>
  </g>
</svg>