<svg width="100%" height="100%"  viewBox="0 0 115 115" xmlns="http://www.w3.org/2000/svg">
 <g>
  <title>Store salon</title>
  <circle fill="#ccc" cx="104.76238" cy="94.42644" r="7.73034" id="svg_20"/>
  <circle fill="#ccc" cx="56.7452" cy="94.05146" r="7.38618" id="svg_19"/>
  <path fill="#777" d="m21.37454,19.93112c16.01984,0.27776 90.43094,-1.69434 90.43094,0.49997c0,2.19431 3.42979,47.91366 -0.76218,51.23289c-4.19197,3.31924 -67.41036,1.79156 -72.36451,-1.26381" id="svg_18"/>
  <g id="svg_8">
   <path id="svg_2" d="m112.79747,72.96631l0,-49.38114c0,-2.20895 -1.84958,-3.9993 -4.1316,-3.9993l-86.61168,0l-2.5189,-6.70505c-0.59357,-1.58061 -2.14568,-2.63287 -3.88279,-2.63287l-10.73574,0c-2.28202,0 -4.1316,1.79035 -4.1316,3.9993s1.84958,3.9993 4.1316,3.9993l7.84224,0l26.26689,69.92466c0.59357,1.58106 2.14568,2.63287 3.88279,2.63287l3.13589,0c-0.85157,1.42464 -1.34185,3.0759 -1.34185,4.83693c0,5.34307 4.49105,9.69075 10.01133,9.69075c5.52028,0 10.01179,-4.34724 10.01179,-9.69075c0,-1.76103 -0.49029,-3.41229 -1.34185,-4.83693l30.73268,0c-0.85157,1.42464 -1.34185,3.0759 -1.34185,4.83693c0,5.34307 4.49105,9.69075 10.01133,9.69075c5.52028,0 10.01179,-4.34724 10.01179,-9.69075c0,-2.05653 -0.66748,-3.96464 -1.80046,-5.53503c1.08707,-0.72032 1.80046,-1.92944 1.80046,-3.3012c0,-2.20895 -1.84958,-3.9993 -4.1316,-3.9993l-62.86369,0l-2.19388,-5.83986l65.05712,0c2.28202,0 4.1316,-1.79035 4.1316,-3.9993l-0.00003,-0.00001zm-58.08343,24.36641c-0.96404,0 -1.74813,-0.75897 -1.74813,-1.69215s0.78408,-1.6926 1.74813,-1.6926s1.74859,0.75942 1.74859,1.6926s-0.785,1.69215 -1.74859,1.69215zm48.07164,0c-0.96404,0 -1.74813,-0.75897 -1.74813,-1.69215s0.78408,-1.6926 1.74813,-1.6926s1.74859,0.75986 1.74859,1.69304s-0.78454,1.69171 -1.74859,1.69171zm-43.94004,-44.9668l0,-8.18035l19.98088,0l0,8.18035l-19.98088,0zm19.98088,7.9986l0,8.6025l-19.98088,0l0,-8.6025l19.98088,0zm-44.45557,-7.99104l-3.07575,-8.1879l19.28723,0l0,8.18035l-16.05586,0c-0.05279,0 -0.10375,0.00578 -0.15562,0.00756zm24.47469,-16.1865l0,-8.6025l19.98088,0l0,8.60206l-19.98088,0l0,0.00044zm28.24409,7.9986l17.44454,0l0,8.18035l-17.44454,0l0,-8.18035zm17.44454,-7.9986l-17.44454,0l0,-8.6025l17.44454,0l0,8.6025zm-53.95183,-8.6025l0,8.60206l-22.29182,0l-3.23137,-8.60206l25.52319,0zm-13.21011,32.78005l13.20965,0l0,8.6025l-9.97782,0l-3.23183,-8.6025zm49.71739,8.6025l0,-8.6025l17.44454,0l0,8.6025l-17.44454,0z" fill="#222"/>
   <path transform="rotate(16.56998634338379 73.7775421142578,35.64419174194337) " id="svg_3" d="m43.51628,61.40269c0,0 -0.90332,-40.88632 -0.90332,-41.69183c0,-0.8055 16.25979,-8.97166 16.25979,-9.77716c0,-0.8055 15.35646,8.805 15.35646,7.9995c0,-0.8055 14.45314,-7.19399 14.45314,-7.9995c0,-0.8055 15.35646,9.69384 15.35646,8.88833c0,-0.8055 0.90332,41.69183 0.90332,40.88632c0,-0.8055 -61.42586,1.69434 -61.42586,1.69434z" fill="#b2b2b2"/>
   <path transform="rotate(17.374717712402344 72.86553955078129,36.51345825195314) " id="svg_1" fill="#7f0000" d="m106.49668,26.99929l0,-4.87393l-0.32377,-1.35298c-0.09216,-0.16246 -1.53612,-2.99627 -4.43586,-5.90999c-2.85955,-2.90039 -7.3285,-5.91797 -13.20832,-5.91797c-5.87509,0 -10.29677,3.02824 -13.12324,5.93928c-0.8626,0.90554 -1.6023,1.7951 -2.19785,2.60209c-0.62863,-0.81764 -1.38961,-1.71253 -2.28055,-2.62074c-2.87846,-2.90305 -7.34741,-5.92063 -13.21778,-5.92063c-5.88454,0 -10.29914,3.02824 -13.12797,5.93928c-2.82883,2.92436 -4.21844,5.77415 -4.29642,5.93661l-0.30487,1.30505l0,4.87393l-0.56767,21.71338l-0.17798,14.65792l67.02222,0.71191l0.17798,-21.59908l0.06208,-15.48413zm-30.83124,-4.09889c0.49865,-0.85228 1.58812,-2.55416 3.22587,-4.1868c2.27111,-2.23722 5.41898,-4.29066 9.63742,-4.29066c4.34842,0 7.657,2.20526 9.99664,4.53036c1.15328,1.15589 2.03005,2.33043 2.61141,3.19869c0.20324,0.29563 0.36395,0.57262 0.49865,0.78036l0,34.60761c-2.88083,-2.87109 -7.30251,-5.81144 -13.10906,-5.81144c-5.70494,-0.00532 -10.03445,2.85512 -12.86329,5.68094l0,-34.50907l0.00236,0l0,0.00001zm20.00273,36.49859l-14.20326,0c1.92371,-1.27574 4.25153,-2.20525 7.06146,-2.21058c2.81229,0 5.18502,0.92951 7.1418,2.21058zm-50.82687,-36.49859c0.50337,-0.8576 1.58812,-2.55416 3.23059,-4.1868c2.25692,-2.23722 5.41426,-4.29066 9.63742,-4.29066c4.34369,0 7.657,2.20526 9.98009,4.53036c1.15328,1.15589 2.05369,2.33043 2.62087,3.19869c0.20798,0.29563 0.3734,0.57262 0.49866,0.78036l0,34.60761c-2.87137,-2.86044 -7.29778,-5.81144 -13.09962,-5.81144l-0.00945,0c-5.70493,0 -10.03445,2.85512 -12.85855,5.68094c0,0.00266 0,-34.50907 0,-34.50907l-0.00001,0.00001zm20.00036,36.49859l-14.19854,0c1.91189,-1.27574 4.2468,-2.20525 7.06618,-2.21058c2.8052,0 5.16847,0.92951 7.13236,2.21058z"/>
  </g>
 </g>
</svg>