<svg width="100%" height="100%"  viewBox="0 0 128 128" xmlns="http://www.w3.org/2000/svg">
    <g>
        <title>strandresort</title>
        <rect id="svg_9" height="38.25" width="51.75" y="84.24999" x="38.12501" stroke-width="0" stroke="#4c4c4c" fill="#ffffaa"/>
        <rect id="svg_7" height="38.25" width="91.5" y="41.49999" x="17.87501" stroke-width="0" stroke="#4c4c4c" fill="#ffaaaa"/>
        <g id="svg_1">
                    <path fill="#3f3f3f" d="m122.43578,52.0543c3.09447,0 4.37401,-3.96475 1.86405,-5.77391l-52.67755,-37.96616c-4.55191,-3.28081 -10.69223,-3.28081 -15.2439,0l-52.67755,37.96592c-2.5102,1.80916 -1.23042,5.77391 1.86405,5.77391l5.16002,0l0,64.56409l-1.55663,0c-2.3566,0 -4.26736,1.91051 -4.26736,4.26736c0,2.3566 1.91051,4.26736 4.26736,4.26736l109.66434,0c2.3566,0 4.26736,-1.91051 4.26736,-4.26736c0,-2.3566 -1.91051,-4.26736 -4.26736,-4.26736l-1.55663,0l0,-64.56409l5.15978,0l0,0.00024zm-69.31654,0.234c0,-5.73395 4.66506,-10.39877 10.39925,-10.39877c5.73395,0 10.39829,4.66482 10.39829,10.39877c0,5.73395 -4.66434,10.39877 -10.39829,10.39877c-1.68927,0 -3.2914,-0.40276 -4.70936,-1.12185l0,5.83024c0,1.57107 -1.27376,2.84483 -2.84483,2.84483c-1.57131,0 -2.84483,-1.274 -2.84483,-2.84483l0,-15.10716l-0.00024,0zm10.88097,33.56736c6.54043,0 11.84249,5.30206 11.84249,11.84249l0,12.81267l-23.68449,0l0,-12.81267l-0.00024,0c0,-6.54043 5.30182,-11.84249 11.84225,-11.84249zm-35.41889,-15.534c-0.95044,-1.25089 -0.70729,-3.03573 0.54359,-3.98642c1.25089,-0.95044 3.03573,-0.70729 3.98642,0.54359c0.90109,1.1854 2.26898,1.8655 3.75386,1.8655c1.7627,0 3.36458,-0.97235 4.18045,-2.53788c0.17646,-0.33848 0.0378,-0.77085 -0.30863,-0.96392l-8.97599,-4.9956c-3.06414,-1.70588 -4.20116,-5.46793 -2.58772,-8.56457c1.79905,-3.4539 5.3348,-5.59961 9.22685,-5.59961c3.27888,0 6.29848,1.49957 8.28435,4.11329c0.9502,1.25113 0.70633,3.03597 -0.54479,3.98617c-1.25113,0.95044 -3.03597,0.70633 -3.98617,-0.54455c-0.90037,-1.1854 -2.26849,-1.8655 -3.75314,-1.8655c-1.76318,0 -3.36531,0.97259 -4.18093,2.5386c-0.17646,0.33848 -0.0378,0.77133 0.30863,0.9644l8.97575,4.99536c3.06486,1.70588 4.2014,5.46793 2.58747,8.56481c-1.79977,3.45342 -5.3348,5.59841 -9.22612,5.59841c-3.2784,0.00024 -6.298,-1.49861 -8.28387,-4.11208zm53.83406,50.70661l-36.83059,0c-1.57131,0 -2.84483,-1.274 -2.84483,-2.84483s1.27376,-2.84483 2.84483,-2.84483l36.83059,0c1.57131,0 2.84483,1.274 2.84483,2.84483s-1.27352,2.84483 -2.84483,2.84483zm17.58366,-50.17602c0,1.57083 -1.27376,2.84483 -2.84483,2.84483s-2.84483,-1.274 -2.84483,-2.84483l0,-5.32469l-9.41799,0l0,5.32469c0,1.57083 -1.27376,2.84483 -2.84483,2.84483s-2.84483,-1.274 -2.84483,-2.84483l0,-14.37074c0,-5.73395 4.66482,-10.39877 10.39853,-10.39877c5.73395,0 10.39877,4.66506 10.39877,10.39901l0,14.3705z" id="svg_4"/>
                    <path fill="#3f3f3f" d="m89.59955,51.77264c-2.5959,0 -4.70864,2.11249 -4.70864,4.70912l0,3.35616l9.41799,0l0,-3.35616c0.00024,-2.59662 -2.11249,-4.70912 -4.70936,-4.70912z" id="svg_5"/>
                    <path fill="#3f3f3f" d="m63.51825,56.99742c2.59614,0 4.70864,-2.11249 4.70864,-4.70912s-2.11225,-4.70912 -4.70864,-4.70912c-2.59686,0 -4.70936,2.11274 -4.70936,4.70912l0,0.33102c0.01204,0.06572 0.02191,0.13265 0.02961,0.20006c0.26578,2.38188 2.27764,4.17804 4.67975,4.17804z" id="svg_6"/>
        </g>
    </g>
</svg>