<svg width="100%" height="100%" viewBox="0 0 128 128" xmlns="http://www.w3.org/2000/svg">
 <g>
  <title>SUBDAY</title>
  <circle id="svg_11" r="60" cy="64" cx="64" fill="#999"/>
  <g id="svg_10">
   <rect id="svg_9" height="56.58468" width="32.92432" y="45.71971" x="27.0236" fill="#a32222"/>
   <path id="svg_8" d="m67.89794,90.54489l0.87682,4.24332l6.34969,4.54768l11.28834,2.63286c0,0 11.11704,-1.73012 11.11704,-1.61045c0,0.11968 5.87935,-3.11157 5.81547,-3.0569c-0.06388,0.05467 4.53218,-4.8417 4.4683,-4.78703c-0.06388,0.05467 0.29905,-2.56786 0.23518,-2.51319c-0.06388,0.05467 -10.75413,-3.04656 -10.81799,-2.9919c-0.06388,0.05467 -18.04451,-0.05467 -18.10838,0c-0.06388,0.05467 -11.22447,3.53561 -11.22447,3.53561z" fill="#b76c26"/>
   <path id="svg_6" d="m67.23831,73.36904l0.87682,-7.59966l6.34969,-8.14476l11.28834,-4.71539c0,0 11.11704,3.09861 11.11704,2.88427c0,-0.21434 5.87934,5.57273 5.81547,5.47483c-0.06387,-0.09791 4.53218,8.67134 4.4683,8.57344c-0.06387,-0.09791 0.29905,4.59896 0.23517,4.50105c-0.06387,-0.09791 -10.75412,5.4563 -10.81799,5.3584c-0.06387,-0.09791 -18.0445,0.09791 -18.10838,0c-0.06387,-0.09791 -11.22447,-6.33217 -11.22447,-6.33217z" fill="#b76c26"/>
   <g id="svg_1">
     <path d="m86.98869,82.90734l0.04314,-0.00029l0.04583,0.00029l3.15452,-0.00057l0,-0.08904c5.19113,-0.29098 9.77744,-1.29514 13.6664,-2.99539c3.58576,-1.56778 5.27631,-3.17642 5.57877,-3.48289l0.93578,-0.94829l0,-1.34826c0,-6.39209 -2.40662,-12.40207 -6.77619,-16.92296c-4.37532,-4.52678 -10.21452,-7.03648 -16.44257,-7.06774l-0.11672,-0.00133c-0.01466,0 -0.02932,0.0001 -0.04453,0.00029c-0.01466,-0.00019 -0.0295,-0.00029 -0.04444,-0.00029l-0.1169,0.00133c-6.22804,0.03126 -12.06715,2.54097 -16.44257,7.06774c-4.36975,4.52089 -6.77619,10.53087 -6.77619,16.92296l0,1.34826l0.93569,0.94829c0.30256,0.30656 1.99282,1.91511 5.57877,3.48279c3.88915,1.70034 8.47545,2.70442 13.66659,2.99539l0,0.08942l3.15452,0l0,0.00029l0.00009,0zm14.02704,-8.85523c-4.74922,1.96718 -10.20348,2.38702 -13.94289,2.39291l-0.03971,0.0001l-0.03952,-0.0001c-6.77489,-0.01045 -11.32167,-1.30712 -13.94307,-2.39291c-1.36414,-0.56485 -2.3594,-1.13198 -3.02277,-1.56626c0.34579,-4.09003 2.0497,-7.88575 4.88524,-10.81947c3.19182,-3.30243 7.45376,-5.13211 12.00035,-5.15206l0.07534,-0.00095c0.02932,0.00038 0.05854,0.00038 0.08879,0l0.07534,0.00095c4.54659,0.01996 8.80844,1.84963 12.00035,5.15206c2.83554,2.93372 4.53973,6.72944 4.88524,10.81947c-0.66338,0.43428 -1.65854,1.00122 -3.02268,1.56626z" id="svg_3"/>
     <path d="m87.07953,86.35944c-6.98912,0 -13.68468,-1.46781 -18.85336,-4.13307l-4.57303,-2.35813l0,5.53132c0,2.59836 0.68268,5.1037 2.02901,7.44643c1.24511,2.16636 3.0019,4.09326 5.22231,5.72746c4.36085,3.20949 10.10523,4.97712 16.17508,4.97712c6.07004,0 11.81442,-1.76763 16.17527,-4.97712c2.22041,-1.63392 3.9772,-3.5611 5.22231,-5.72746c1.34624,-2.34274 2.02901,-4.84826 2.02901,-7.44643l0,-5.53132l-4.57303,2.35813c-5.16887,2.66526 -11.86443,4.13307 -18.85355,4.13307zm12.49376,6.96635c-3.29694,2.42646 -7.73386,3.76284 -12.49376,3.76284c-4.75971,0 -9.19663,-1.33629 -12.49357,-3.76284c-1.13108,-0.83264 -2.06983,-1.7547 -2.7988,-2.73758c4.69448,1.4566 9.93618,2.23317 15.29237,2.23317s10.59826,-0.77657 15.29256,-2.23317c-0.72907,0.98288 -1.66754,1.90494 -2.7988,2.73758z" id="svg_4"/>
     <path d="m65.27622,31.61685l-17.7991,0l2.09692,-4.6564l20.61952,0l0,-6.46194l-24.65722,0l-5.00697,11.11833l-20.70906,0l0,16.15484l2.38472,0l2.89186,55.68385l34.90264,0l2.89186,-55.68385l2.38482,0l0,-16.15484zm-11.25895,65.37675l-22.938,0l-2.55628,-49.22191l28.05046,0l-2.55618,49.22191zm-27.88791,-55.68385l0,-1.61548l0,-1.61548l32.83772,0l0,1.61548l0,1.61548l-32.83772,0z" id="svg_5"/>
   </g>
  </g>
 </g>
</svg>
