<svg width="100%" height="100%" viewBox="0 0 128 128" xmlns="http://www.w3.org/2000/svg">
 <g transform="translate(-20,0)">
  <title>Campfire</title>
  <circle filter="url(#svg_6_blur)" id="svg_6" r="60" cy="64" cx="64" fill="#545033"/>
  <g id="svg_1">
   <path fill="#333" d="m88.40219,94.56177l-8.70825,-2.33941l8.65716,-2.32556c2.6663,-0.75183 4.12377,-3.23241 3.25532,-5.53958c-0.86907,-2.30772 -3.73509,-3.56877 -6.4014,-2.81693l-22.63738,6.08129l-22.63707,-6.08155c-2.6663,-0.75183 -5.53233,0.50922 -6.4014,2.81693c-0.86845,2.30718 0.58902,4.78775 3.25532,5.53958l8.65716,2.32556l-8.70825,2.33941c-2.6663,0.75157 -4.12377,3.23214 -3.25471,5.53932c0.86845,2.30745 3.73448,3.56877 6.40078,2.81693l22.68847,-6.09514l22.68847,6.09514c2.6663,0.75183 5.53233,-0.50948 6.40078,-2.81693c0.86907,-2.30718 -0.58872,-4.78748 -3.25501,-5.53905l0,0z" id="svg_2"/>
   <path fill="#8D4839" d="m54.28347,79.72555c0,-10.79153 8.31249,-21.2475 8.31249,-21.2475s8.31433,10.45597 8.31433,21.2475c24.49801,0 23.20055,-21.21235 17.30048,-32.03983c-1.24114,-2.27789 -4.79651,-2.67924 -6.66637,-0.75025c-4.79404,4.94621 -10.46485,7.74104 -10.46485,7.74104s4.49245,-11.4182 -4.42536,-23.11178c-2.59706,-3.40605 -6.54665,-5.7143 -9.93338,-7.19027c-2.67615,-1.16624 -5.84438,0.53744 -5.7896,3.1304c0.23235,11.05813 -9.01138,17.62973 -13.49121,23.44309c-8.31341,10.7918 -4.15733,28.7776 16.84347,28.7776l0,-0.00001z" id="svg_3"/>
  </g>
 </g>
 <defs>
  <filter height="200%" width="200%" y="-50%" x="-50%" id="svg_6_blur">
   <feGaussianBlur stdDeviation="10" in="SourceGraphic"/>
  </filter>
 </defs>
</svg>