<svg width="100%" height="100%"  viewBox="0 0 128 128" xmlns="http://www.w3.org/2000/svg">
    <g>
        <title>swimming</title>
        <g id="svg_2">
            <circle cx="64" cy="64" r="64" fill="#324A5E" id="svg_1"/>
            <path d="m106.66675,78.22225c0,3.9275 -19.1025,7.111 -42.66675,7.111s-42.66675,-3.1835 -42.66675,-7.111l0,-14.22225l85.33325,0l0,14.22225l0.00025,0z" fill="#31BAFD" id="svg_3"/>
            <path d="m64.2875,64l0,21.333c23.43175,-0.02575 42.37925,-3.19925 42.37925,-7.11075l0,-14.22225l-42.37925,0z" fill="#2B9ED8" id="svg_4"/>
            <ellipse cx="64" cy="64" rx="42.66675" ry="7.111" fill="#B5F1F4" id="svg_5"/>
            <path d="m106.66675,64c0,-3.911 -18.9475,-7.08475 -42.37925,-7.11075l0,14.221c23.43175,-0.0255 42.37925,-3.19925 42.37925,-7.11025z" fill="#84DBFF" id="svg_6"/>
            <path d="m92.4445,48.377c-4.75275,0 -8.6195,3.86675 -8.6195,8.6195l0,0.7055l0,4.143l-18.3165,0l0,-4.8485c0,-0.035 0.00475,-0.068 0.00525,-0.103c0.0555,-3.04175 2.54275,-5.49975 5.5975,-5.49975c3.08925,0 5.60275,2.5135 5.60275,5.60275l0,0.21325c1.02275,0.053 2.0285,0.1125 3.01675,0.178l0,-0.39125c0,-4.75275 -3.86675,-8.6195 -8.6195,-8.6195c-4.718,0 -8.55825,3.8115 -8.61425,8.5165c-0.0005,0.0345 -0.00525,0.068 -0.00525,0.103l0,14.10975c0.50075,0.003 1.00325,0.00475 1.5085,0.00475s1.0075,-0.00225 1.5085,-0.00475l0,-5.8135l18.31625,0l0,5.005c1.031,-0.0905 2.03775,-0.1875 3.01675,-0.291l0,-12.014l0,-0.9965c0,-3.08925 2.5135,-5.60275 5.60275,-5.60275s5.60275,2.5135 5.60275,5.60275l0,2.71775c1.099,0.24225 2.108,0.496 3.01675,0.761l0,-3.47875c0,-4.7525 -3.86675,-8.61925 -8.6195,-8.61925z" fill="#FFFFFF" id="svg_7"/>
        </g>
    </g>
</svg>