<svg width="100%" height="100%"  viewBox="0 0 128 128" xmlns="http://www.w3.org/2000/svg">
 <g class="layer">
  <title>Loldwest_strip</title>
  <rect fill="#6b523a" height="10.841" id="svg_2" width="79.9958" x="22.8048" y="17.9261"/>
  <rect fill="#8c7560" height="87.7308" id="svg_1" width="79.9958" x="22.8048" y="25.5147"/>
  <rect fill="#333" fill-opacity="0" height="88.6216" id="svg_6" stroke="#333333" stroke-width="5" width="80.8337" x="22.7705" y="19.0476"/>
  <g id="brown"/>
  <g id="yellow"/>
  <g fill="#333" id="svg_3"/>
  <ellipse cx="61.705" cy="17.0316" fill="#8c7560" id="svg_5" rx="26.9155" ry="16.1206"/>
  <rect fill="#c1b883" height="34.4636" id="svg_8" width="15.0364" x="76.4677" y="56.9537"/>
  <rect fill="#c1b883" height="52.1616" id="svg_4" width="26.116" x="34.2746" y="55.4413"/>
  <path d="m23.03908,107.13229c0,-0.26855 -16.91869,19.06709 -17.05297,18.93282c-0.13427,-0.13428 116.14815,-0.67138 116.01387,-0.80566c-0.13426,-0.13427 -18.93281,-18.12716 -19.06709,-18.26144c-0.13428,-0.13428 -79.89382,0.40282 -79.89382,0.13428z" fill="#6b523a" id="svg_7" stroke="#333333" stroke-width="5"/>
  <rect fill="#333" fill-opacity="0" height="52.0989" id="svg_9" stroke="#333333" stroke-width="4" width="25.5122" x="35.3924" y="55.302"/>
  <rect fill="#333" fill-opacity="0" height="37.06" id="svg_10" stroke="#333333" stroke-width="4" width="16.113" x="74.0636" y="52.885"/>
  <rect fill="#333" fill-opacity="0" height="52.6359" id="svg_12" stroke="#333333" stroke-width="3" width="12.6219" x="47.7457" y="54.7649"/>
  <rect fill="#333" height="15.8445" id="svg_15" stroke="#333333" stroke-width="3" width="25.7809" x="35.661" y="73.832"/>
 </g>
</svg>
