<svg width="100%" height="100%" viewBox="0 0 128 128" xmlns="http://www.w3.org/2000/svg">
 <g>
  <title>theater</title>
  <circle fill="#B99E04" cy="64" cx="64" r="64" id="circle"/>
  <g id="svg_13">
   <path id="svg_2" fill="#3A3A38" d="m52.06816,20.73358c-1.4361,4.08321 21.61334,71.21798 51.55608,64.78692c29.94274,-6.43105 20.24905,-76.39004 17.08962,-79.5205c-7.14461,6.49911 -20.14134,12.41976 -32.49182,15.07385c-12.31458,2.65409 -26.74741,2.58603 -36.15388,-0.34027z"/>
   <g id="svg_3">
    <path id="svg_4" fill="#AAA" d="m115.71147,64.89818c0.57444,-2.14368 -6.13934,-11.77325 -18.34621,-9.15319s-13.89429,14.08707 -12.42229,15.75438c0,0 3.55435,-4.28737 14.57644,-6.66924c11.05799,-2.38187 16.19206,0.06805 16.19206,0.06805z"/>
    <path id="svg_5" fill="#AAA" d="m85.19429,35.63518c1.00527,2.34785 -2.62089,2.4159 -6.49836,3.91308c-3.87748,1.46315 -6.49836,3.91308 -7.53954,1.42912c-1.04117,-2.44993 1.68742,-4.69569 5.5649,-6.15884c3.84157,-1.46315 7.46773,-1.5312 8.47301,0.81664l-0.00001,0z"/>
    <path id="svg_6" fill="#AAA" d="m97.9756,32.87901c0.17951,2.51798 3.48255,1.12288 7.64725,0.85067c4.1647,-0.23819 7.64725,0.85067 7.46773,-1.76939c-0.17951,-2.65409 -3.62616,-3.53878 -7.82676,-3.30059c-4.1647,0.27221 -7.46773,1.70134 -7.28822,4.21932l0,-0.00001z"/>
   </g>
   <path id="svg_7" fill="#E5AA17" d="m84.09325,46.11753c-0.61034,-1.29302 -2.19006,-1.87147 -3.51845,-1.29302c-6.24705,2.62006 -15.3663,4.08321 -25.02409,4.08321c-3.51845,0 -7.001,-0.20416 -10.30404,-0.61248c-12.49409,-1.49718 -25.84985,-6.26092 -33.24577,-11.77325c-1.14888,-0.8847 -2.8363,-0.68053 -3.76977,0.40832c-0.43083,0.5104 -1.32839,1.59926 -1.90284,8.81293c-0.35903,4.62764 -0.43083,10.27608 -0.17951,15.92452c0.35903,8.88098 1.83103,25.79227 7.53954,39.09673c5.09816,11.84131 12.45819,18.40847 21.86466,19.56538c0.89756,0.10208 1.83103,0.17013 2.72859,0.17013c9.44237,0 18.2385,-5.8526 26.20887,-17.42169c8.07808,-11.77325 13.28395,-26.64294 15.65352,-34.46909c0.25132,-0.81664 5.67261,-18.78276 3.94928,-22.49168l0.00001,-0.00001z"/>
   <path id="svg_8" fill="#3A3A38" d="m10.34938,39.68648c-2.8363,3.36865 -5.42129,73.94011 25.02409,77.615s46.63743,-65.22927 44.7705,-69.17637c-9.04745,3.77697 -23.40847,5.13804 -35.97437,3.60683c-12.52999,-1.5312 -26.06526,-6.26092 -33.82022,-12.04547l0,0.00001z"/>
   <g id="svg_9">
    <path id="svg_10" fill="#AAA" d="m23.21444,86.18085c-1.32839,1.87147 1.04117,17.08143 13.71478,18.61263s18.99246,-12.62392 18.2026,-14.73358c0,0 -5.45719,6.66924 -16.94601,5.27415c-11.45292,-1.3951 -14.97137,-9.15319 -14.97137,-9.15319l0,-0.00001z"/>
    <path id="svg_11" fill="#AAA" d="m35.27771,63.28085c0.07181,2.55201 -3.33894,1.42912 -7.53954,1.56523c-4.1647,0.13611 -7.53954,1.56523 -7.61134,-1.08886c-0.07181,-2.65409 3.26713,-3.84502 7.43183,-3.98113c4.2006,-0.13611 7.61134,0.95275 7.71905,3.50475l0,0.00001z"/>
    <path id="svg_12" fill="#AAA" d="m48.27443,64.84608c-0.75395,2.44993 2.87221,2.17771 6.85739,3.30059c4.02109,1.12288 6.85739,3.30059 7.64725,0.74859s-2.15415,-4.49153 -6.13934,-5.61441c-3.98518,-1.12288 -7.61134,-0.8847 -8.3653,1.56523z"/>
   </g>
  </g>
 </g>
</svg>