<svg width="100%" height="100%"  viewBox="0 0 512 512" xmlns="http://www.w3.org/2000/svg">
 <g>
  <title>ThemePark</title>
  <circle cx="65.27277" cy="55.97744" r="35.83915" fill="#FEC95B" id="svg_1"/>
  <circle cx="65.27277" cy="55.97744" r="16.91051" fill="#FD5D65" id="svg_2"/>
  <circle cx="65.27277" cy="55.97744" r="7.4763" fill="#FEC95B" id="svg_3"/>
  <circle cx="65.27277" cy="55.97744" r="1.35646" id="svg_4"/>
  <path fill="#3f3f3f" d="m75.11186,55.96052c0,-5.39496 -4.38938,-9.78434 -9.78384,-9.78434c-5.39496,0 -9.78434,4.38938 -9.78434,9.78434s4.38938,9.78434 9.78434,9.78434c5.39446,0 9.78384,-4.38938 9.78384,-9.78434zm-14.9521,0c0,-2.84977 2.31849,-5.16826 5.16826,-5.16826c2.84977,0 5.16776,2.31849 5.16776,5.16826s-2.31849,5.16826 -5.16776,5.16826c-2.85002,0 -5.16826,-2.31899 -5.16826,-5.16826z" id="svg_5"/>
  <circle fill="#3f3f3f" cx="65.32827" cy="55.95902" r="1.35645" id="svg_6"/>
  <path fill="#3f3f3f" d="m117.64245,122.79257l-11.25277,0l-11.51157,-20.06164c0.42304,-0.7749 0.61987,-1.65781 0.56164,-2.54344c5.50271,-3.75831 10.27008,-8.51573 14.04158,-14.00873c0.10825,0.00771 0.21674,0.01219 0.32549,0.01219l0,0c1.65955,0 3.20438,-0.89335 4.03179,-2.33143c0.61888,-1.0765 0.78187,-2.32919 0.45862,-3.52812c-0.13562,-0.50292 -0.35411,-0.96826 -0.63704,-1.38781c2.76716,-5.79585 4.524,-12.1633 5.03588,-18.8739c1.53537,-0.76147 2.59496,-2.34163 2.59297,-4.16766c-0.00174,-1.82528 -1.06481,-3.4032 -2.60292,-4.16193c-0.5288,-6.74445 -2.31177,-13.14175 -5.117,-18.95726c0.95059,-1.42862 1.0775,-3.3298 0.15951,-4.91145c-0.82865,-1.42862 -2.37,-2.31575 -4.02233,-2.31575c-0.11497,0 -0.23018,0.00547 -0.34465,0.01418c-3.64732,-5.26855 -8.21412,-9.85327 -13.46724,-13.52074c0.03982,-0.51013 -0.00075,-1.02873 -0.13363,-1.53861c-0.31379,-1.20142 -1.07675,-2.209 -2.14803,-2.83634c-0.71244,-0.41706 -1.52418,-0.63754 -2.34735,-0.63754c-0.9267,0 -1.81906,0.2797 -2.57032,0.77739c-5.8822,-2.8662 -12.36337,-4.68675 -19.20163,-5.21554c-0.76072,-1.53712 -2.34014,-2.59844 -4.16641,-2.59844c-1.82677,0 -3.40594,1.06157 -4.16542,2.59794c-6.71882,0.51984 -13.09373,2.28614 -18.89356,5.06698c-0.75574,-0.50739 -1.65656,-0.79307 -2.59396,-0.79307c-0.81273,0 -1.6155,0.2155 -2.32123,0.62261c-1.07551,0.62062 -1.84494,1.62297 -2.16644,2.82265c-0.13637,0.50864 -0.17991,1.02698 -0.14383,1.53712c-5.39272,3.71451 -10.07275,8.39056 -13.79248,13.77954c-0.11223,-0.00821 -0.22496,-0.01319 -0.33768,-0.01319c-1.65507,0 -3.19766,0.88962 -4.02606,2.32148c-0.91575,1.5829 -0.78585,3.48483 0.16747,4.9122c-2.79204,5.80954 -4.56556,12.19714 -5.08789,18.93039c-1.53662,0.75923 -2.59844,2.33815 -2.59894,4.16467c-0.00025,1.24174 0.48326,2.40932 1.36118,3.28749c0.3663,0.3663 0.78461,0.65944 1.23626,0.88191c0.52108,6.74693 2.29858,13.14723 5.09809,18.96672c-0.28095,0.42005 -0.49794,0.88564 -0.63207,1.38856c-0.32001,1.19968 -0.15354,2.45237 0.46858,3.52663c0.82841,1.43061 2.37075,2.31948 4.02482,2.31948c0.11347,0 0.2267,-0.00523 0.33942,-0.01344c3.75831,5.4405 8.49532,10.15437 13.95722,13.88381c-0.03409,0.50988 0.0117,1.02723 0.1498,1.53463c0.0963,0.35386 0.2364,0.68781 0.40711,1.00235l-11.51331,20.06487l-11.25252,0c-1.27458,0 -2.30804,1.03296 -2.30804,2.30804s1.03345,2.30804 2.30804,2.30804l104.63087,0c1.27458,0 2.30804,-1.03296 2.30804,-2.30804s-1.03345,-2.30779 -2.30804,-2.30779zm-48.3359,-18.08705c-0.42279,-0.6348 -0.99687,-1.16086 -1.67174,-1.52492l0,-9.14555c5.2469,-0.31454 10.21036,-1.69414 14.67837,-3.92578l4.55088,7.93094c-0.40487,0.65173 -0.64152,1.39478 -0.69254,2.15699c-5.18917,2.4551 -10.87577,4.02407 -16.86497,4.50833zm-24.81557,-4.50484c-0.05151,-0.7657 -0.2904,-1.51148 -0.69876,-2.1652l4.54839,-7.92696c4.46776,2.23164 9.43147,3.61124 14.67812,3.92653l0,9.2752c-0.58628,0.35908 -1.0882,0.84085 -1.4657,1.41369c-6.06137,-0.46484 -11.81541,-2.04202 -17.06206,-4.52326zm-21.29516,-22.57895c-0.60644,-0.34067 -1.28877,-0.54696 -1.99872,-0.58951c-2.5325,-5.28223 -4.14377,-11.08654 -4.62478,-17.20415c0.60171,-0.39815 1.10313,-0.93317 1.46545,-1.55901l9.21523,0c0.31603,5.26631 1.70484,10.24769 3.95141,14.72864l-8.00858,4.62404zm-2.00793,-42.713c0.71817,-0.0438 1.40821,-0.25382 2.01963,-0.60196l7.99663,4.61707c-2.24608,4.48095 -3.63488,9.46233 -3.95066,14.72889l-9.1998,0c-0.2038,-0.35659 -0.4524,-0.69054 -0.75077,-0.98916c-0.22471,-0.22471 -0.46907,-0.42279 -0.72812,-0.59449c0.48251,-6.10044 2.0893,-11.88981 4.61309,-17.16035zm22.9781,-22.18478c0.08187,-0.30533 0.13139,-0.6139 0.1508,-0.92222c5.26332,-2.51458 11.04275,-4.1154 17.13298,-4.59542c0.40039,0.60469 0.93864,1.10885 1.56922,1.47117l0,9.20851c-5.26631,0.31603 -10.24744,1.70484 -14.72839,3.95141l-4.60314,-7.97374c0.20579,-0.35336 0.36953,-0.73409 0.47853,-1.13971zm42.59853,0.13537c0.0754,0.28841 0.17817,0.56513 0.30309,0.82841l-4.70417,8.14868c-4.48095,-2.24608 -9.46233,-3.63488 -14.72864,-3.95066l0,-9.20826c0.63057,-0.36257 1.16907,-0.86648 1.56947,-1.47117c6.19948,0.48848 12.07695,2.13758 17.41542,4.73029c0.01742,0.30832 0.06495,0.61714 0.14483,0.92272zm20.72456,21.42456c0.59399,0.32325 1.25766,0.51884 1.94771,0.55965c2.53648,5.27676 4.15223,11.07609 4.64046,17.18847c-0.62037,0.41184 -1.13623,0.96826 -1.49954,1.62098l-9.17541,0c-0.31578,-5.26656 -1.70459,-10.24794 -3.95066,-14.72889l8.03745,-4.64021zm2.02933,42.61894c-0.76346,0.04828 -1.49382,0.28617 -2.1321,0.67611l-7.93592,-4.58124c2.24608,-4.48095 3.63538,-9.46208 3.95116,-14.72839l9.24235,0c0.36107,0.60768 0.85329,1.12826 1.44206,1.51721c-0.47256,6.08252 -2.06467,11.85597 -4.56755,17.11631zm-58.79312,-20.9423c0,-8.04889 6.54587,-14.59725 14.59376,-14.60173c0.00249,0 0.00498,0.00025 0.00771,0.00025c0.00274,0 0.00547,-0.00025 0.00821,-0.00025c8.04466,0.00398 14.58829,6.54661 14.59451,14.59053c0,0.00398 -0.0005,0.00796 -0.0005,0.01194c0,0.00398 0.0005,0.00771 0.0005,0.0117c-0.00672,8.04615 -6.55408,14.58978 -14.60173,14.58978c-8.05188,0 -14.60247,-6.5506 -14.60247,-14.60223zm16.90977,19.07497c1.83324,-0.22073 3.58909,-0.69602 5.22749,-1.39702l7.15006,12.46067c-3.78369,1.85116 -7.96453,3.00928 -12.37755,3.31063l0,-14.37428l0,0zm9.2222,-3.70978c1.44952,-1.09044 2.74003,-2.3807 3.83097,-3.82972l12.44449,7.1844c-2.42549,3.59133 -5.52859,6.6892 -9.12316,9.11022l-7.1523,-12.4649zm6.14523,-7.82369c0.70224,-1.63989 1.17903,-3.39748 1.4,-5.23271l14.37453,0c-0.3026,4.42845 -1.46843,8.62273 -3.33054,12.41662l-12.44399,-7.18391zm15.77429,-9.84879l-14.37453,0c-0.22073,-1.83573 -0.69726,-3.59357 -1.3995,-5.23346l12.44374,-7.18341c1.86236,3.79364 3.0277,7.98842 3.33029,12.41687zm-18.0878,-9.22767c-1.08969,-1.44753 -2.37871,-2.7368 -3.82649,-3.82649l7.18416,-12.44449c3.57964,2.41753 6.6693,5.50719 9.08682,9.08682l-12.44449,7.18416zm-7.82095,-6.1405c-1.63989,-0.70224 -3.39773,-1.17903 -5.23296,-1.3995l0,-14.37453c4.42845,0.3026 8.62273,1.46794 12.41687,3.33029l-7.18391,12.44374zm-9.84904,-15.77379l0,14.37453c-1.83523,0.22097 -3.59282,0.69776 -5.23271,1.4l-7.18341,-12.44374c3.79314,-1.8626 7.98768,-3.02819 12.41612,-3.33079zm-9.22692,18.08879c-1.44728,1.08969 -2.73605,2.37846 -3.82574,3.82599l-12.44424,-7.18465c2.41728,-3.57889 5.50669,-6.6688 9.08558,-9.08608l7.1844,12.44474zm-6.14,7.8202c-0.70224,1.63989 -1.17853,3.39748 -1.39926,5.23271l-14.37453,0c0.3026,-4.42845 1.46819,-8.62323 3.33029,-12.41687l12.44349,7.18416zm-15.77354,9.84904l14.37453,0c0.22097,1.83498 0.69726,3.59258 1.3995,5.23222l-12.44349,7.18416c-1.86236,-3.79389 -3.02795,-7.98842 -3.33054,-12.41637zm18.08805,9.22618c1.09069,1.44878 2.38095,2.73879 3.83022,3.82923l-7.15255,12.4649c-3.59432,-2.42076 -6.69642,-5.51839 -9.12191,-9.10947l12.44424,-7.18465zm7.82518,6.14249c1.6384,0.701 3.39375,1.17679 5.22724,1.39751l0,14.37453c-4.41302,-0.3016 -8.59361,-1.46022 -12.3773,-3.31138l7.15006,-12.46067zm35.09312,22.70537c-0.59922,-0.29986 -1.26438,-0.46957 -1.95269,-0.48873l-4.62155,-8.05437c4.29283,-2.83858 7.98046,-6.52073 10.82526,-10.80908l8.02849,4.63474c0.00747,0.376 0.05549,0.75325 0.15603,1.12577c0.08087,0.30011 0.18987,0.58777 0.32474,0.86051c-3.43182,4.98835 -7.76347,9.31103 -12.76027,12.73116zm12.65327,-68.18901c-0.33395,0.68159 -0.49893,1.43832 -0.47554,2.20029l-7.92621,4.57576c-2.83459,-4.27317 -6.5058,-7.94463 -10.77922,-10.77922l4.5235,-7.83538c0.12592,0.01045 0.25208,0.01742 0.37874,0.01742l0.00025,0c0.71493,0 1.40946,-0.16673 2.03481,-0.47156c4.7726,3.33875 8.92333,7.50616 12.24367,12.29269zm-67.92249,-12.46962c0.63182,0.31305 1.3363,0.484 2.06218,0.484l0.00025,0c0.00299,0 0.00647,-0.00025 0.00946,-0.00025l4.60861,7.98369c-4.27267,2.83434 -7.94363,6.50531 -10.77798,10.77822l-7.96428,-4.59816c0.00871,-0.73459 -0.15553,-1.46147 -0.47828,-2.11842c3.38653,-4.89677 7.64079,-9.14754 12.54005,-12.5291zm-12.52412,68.04493c0.13388,-0.27273 0.24188,-0.5604 0.32201,-0.86001c0.11347,-0.42602 0.16274,-0.85827 0.15503,-1.28703l7.9506,-4.59044c2.8443,4.2881 6.53168,7.96951 10.82401,10.80809l-4.62478,8.05959c-0.68407,0.02065 -1.3455,0.19037 -1.94149,0.48873c-4.95998,-3.39449 -9.265,-7.67836 -12.68537,-12.61893zm14.6194,21.41859c0.04728,0.00149 0.09481,0.00473 0.14259,0.00473l0,0c0.94536,0 1.85215,-0.2899 2.61113,-0.80452c5.78042,2.74227 12.12597,4.4807 18.81144,4.98362c0.76171,1.53089 2.33889,2.58898 4.15994,2.58923l0.0102,0c1.82702,-0.00373 3.40445,-1.06929 4.16069,-2.60765c6.60534,-0.52506 12.87549,-2.25503 18.5927,-4.96869c0.75898,0.51411 1.66552,0.80402 2.61063,0.80402c0.0438,0 0.0871,-0.00299 0.13089,-0.00423l10.12675,17.64834l-71.48173,0l10.12476,-17.64485z" id="svg_7"/>
 </g>
</svg>