<svg width="100%" height="100%"  viewBox="0 0 512 512" xmlns="http://www.w3.org/2000/svg">
 <g>
  <title>ThemePark</title>
  <circle id="svg_1" fill="#FEC95B" r="140.58516" cy="224.32177" cx="250.00016"/>
  <circle id="svg_2" fill="#FD5D65" r="66.33436" cy="224.32177" cx="250.00016"/>
  <circle id="svg_3" fill="#FEC95B" r="29.32705" cy="224.32177" cx="250.00016"/>
  <circle id="svg_4" r="5.32094" cy="224.32177" cx="250.00016"/>
  <path id="svg_5" d="m288.59567,224.2554c0,-21.16265 -17.21809,-38.38074 -38.37878,-38.38074c-21.16265,0 -38.38074,17.21809 -38.38074,38.38074s17.21809,38.38074 38.38074,38.38074c21.16069,0 38.37878,-17.21809 38.37878,-38.38074zm-58.65215,0c0,-11.17871 9.09467,-20.27338 20.27338,-20.27338c11.17871,0 20.27142,9.09467 20.27142,20.27338s-9.09467,20.27338 -20.27142,20.27338c-11.17969,0 -20.27338,-9.09663 -20.27338,-20.27338z" fill="#3f3f3f"/>
  <circle id="svg_6" r="5.3209" cy="224.24951" cx="250.21787" fill="#3f3f3f"/>
  <path id="svg_7" d="m455.42914,486.41547l-44.1409,0l-45.15609,-78.69519c1.65945,-3.03968 2.43155,-6.50304 2.20313,-9.97708c21.58532,-14.74261 40.28613,-33.4044 55.08048,-54.95163c0.42463,0.03024 0.8502,0.04782 1.27679,0.04782l0,0c6.50987,0 12.56973,-3.50432 15.81538,-9.14543c2.42766,-4.22275 3.06702,-9.13664 1.79901,-13.83965c-0.53199,-1.97279 -1.38906,-3.79816 -2.4989,-5.44392c10.85466,-22.73521 17.74616,-47.71261 19.7541,-74.03608c6.02275,-2.987 10.17917,-9.18544 10.17137,-16.34835c-0.00683,-7.15997 -4.1769,-13.34963 -10.2104,-16.32588c-2.07431,-26.45625 -9.06831,-51.55075 -20.0723,-74.36308c3.72885,-5.604 4.22668,-13.06171 0.62571,-19.266c-3.25052,-5.604 -9.29673,-9.08392 -15.77827,-9.08392c-0.45099,0 -0.90292,0.02146 -1.35195,0.05562c-14.30723,-20.66678 -32.22128,-38.65113 -52.82754,-53.0374c0.1562,-2.00107 -0.00294,-4.03537 -0.52419,-6.03546c-1.23089,-4.71277 -4.22373,-8.66518 -8.42601,-11.12603c-2.79467,-1.63599 -5.97886,-2.50086 -9.20788,-2.50086c-3.63514,0 -7.13557,1.09717 -10.08252,3.04944c-23.07393,-11.24316 -48.49742,-18.38457 -75.32166,-20.45884c-2.98405,-6.02961 -9.1796,-10.19282 -16.34345,-10.19282c-7.16582,0 -13.36038,4.16419 -16.33957,10.19086c-26.35571,2.03916 -51.36238,8.96777 -74.1132,19.87609c-2.96452,-1.99032 -6.49814,-3.11095 -10.17525,-3.11095c-3.18807,0 -6.33707,0.84534 -9.10542,2.44229c-4.21887,2.43449 -7.23709,6.36638 -8.49823,11.07232c-0.53493,1.99523 -0.70573,4.0285 -0.5642,6.02961c-21.15386,14.5708 -39.51207,32.9134 -54.10335,54.05259c-0.44024,-0.03221 -0.88244,-0.05174 -1.32461,-0.05174c-6.49229,0 -12.54337,3.48969 -15.7929,9.1064c-3.59219,6.20919 -3.08263,13.66984 0.65693,19.26894c-10.95225,22.78891 -17.90919,47.84536 -19.95811,74.25767c-6.02765,2.97821 -10.19282,9.17179 -10.19478,16.33663c-0.00098,4.87094 1.89567,9.45097 5.33946,12.89574c1.43687,1.43687 3.07777,2.58677 4.84944,3.45944c2.04402,26.46598 9.01657,51.57225 19.99812,74.40018c-1.10207,1.64772 -1.95325,3.47407 -2.4794,5.44686c-1.25529,4.70595 -0.60229,9.61984 1.83808,13.83381c3.24958,5.61181 9.29967,9.09855 15.78804,9.09855c0.44511,0 0.88927,-0.02052 1.33143,-0.05272c14.74261,21.34129 33.32434,39.83224 54.74957,54.46161c-0.13372,2.00009 0.0459,4.02948 0.58762,6.01985c0.37775,1.38808 0.92732,2.69805 1.59696,3.93189l-45.16292,78.70786l-44.13992,0c-4.99976,0 -9.05368,4.05196 -9.05368,9.05368s4.05388,9.05368 9.05368,9.05368l410.43238,0c4.99976,0 9.05368,-4.05196 9.05368,-9.05368s-4.05388,-9.0527 -9.05368,-9.0527l-0.00008,-0.00004zm-189.60579,-70.94953c-1.65847,-2.49011 -3.91039,-4.55367 -6.55768,-5.98176l0,-35.87497c20.58186,-1.23384 40.05187,-6.64555 57.5784,-15.39954l17.8516,31.11046c-1.58817,2.55652 -2.51647,5.47126 -2.71661,8.46116c-20.3554,9.63055 -42.66206,15.7851 -66.15571,17.68469l0,-0.00004zm-97.34329,-17.671c-0.20206,-3.00359 -1.13914,-5.92904 -2.741,-8.49337l17.84183,-31.09485c17.52555,8.75399 36.99654,14.1657 57.57742,15.40248l0,36.38355c-2.29978,1.40855 -4.26865,3.29838 -5.74946,5.54544c-23.77675,-1.82341 -46.34795,-8.01017 -66.92883,-17.74326l0.00004,0zm-83.53389,-88.56977c-2.37886,-1.33634 -5.05542,-2.14554 -7.84032,-2.31245c-9.93416,-20.72045 -16.25464,-43.48884 -18.14149,-67.4862c2.36031,-1.56181 4.32721,-3.66052 5.74848,-6.11548l36.14831,0c1.23968,20.658 6.68752,40.19831 15.50008,57.77559l-31.41502,18.13858l-0.00004,-0.00004zm-7.87645,-167.549c2.81714,-0.17181 5.52394,-0.99565 7.92234,-2.36129l31.36814,18.11124c-8.81063,17.57729 -14.25843,37.1176 -15.49714,57.77658l-36.08778,0c-0.79944,-1.39878 -1.77462,-2.70876 -2.94502,-3.88015c-0.88146,-0.88146 -1.84001,-1.65847 -2.85617,-2.33199c1.89273,-23.93001 8.19563,-46.6398 18.09563,-67.31439zm90.1355,-87.02357c0.32115,-1.19771 0.5154,-2.40813 0.59154,-3.61756c20.64627,-9.86387 43.31706,-16.14336 67.20703,-18.02632c1.5706,2.372 3.68197,4.34965 6.15553,5.77091l0,36.12195c-20.658,1.23968 -40.19733,6.68752 -57.77461,15.50008l-18.0566,-31.27835c0.80725,-1.38611 1.44954,-2.87959 1.87712,-4.47071zm167.09998,0.53101c0.29577,1.13134 0.6989,2.21682 1.18892,3.24958l-18.45291,31.96458c-17.57729,-8.81063 -37.1176,-14.25843 -57.77559,-15.49714l0,-36.12097c2.47352,-1.42224 4.58588,-3.39892 6.15651,-5.77091c24.31851,1.91615 47.37389,8.38502 68.31495,18.55537c0.06833,1.20944 0.25478,2.42084 0.56812,3.61953l0,-0.00004zm81.29561,84.04148c2.33003,1.268 4.93339,2.03524 7.64022,2.19532c9.94977,20.69899 16.28783,43.44785 18.20299,67.4247c-2.43351,1.61551 -4.45706,3.79816 -5.8822,6.35857l-35.99211,0c-1.2387,-20.65898 -6.68654,-40.19929 -15.49714,-57.77658l31.52826,-18.20201l-0.00004,0zm7.96039,167.18004c-2.9948,0.18939 -5.85976,1.12255 -8.36352,2.65216l-31.13,-17.97069c8.81063,-17.57729 14.2604,-37.11662 15.4991,-57.77461l36.25469,0c1.41636,2.38373 3.34718,4.42579 5.65673,5.95151c-1.8537,23.85972 -8.09902,46.50706 -17.91699,67.14164zm-230.62601,-82.14973c0,-31.57314 25.67729,-57.2602 57.2465,-57.27777c0.00977,0 0.01953,0.00098 0.03024,0.00098c0.01075,0 0.02146,-0.00098 0.03221,-0.00098c31.55655,0.01561 57.22505,25.68019 57.24945,57.23383c0,0.01561 -0.00196,0.03122 -0.00196,0.04684c0,0.01561 0.00196,0.03024 0.00196,0.0459c-0.02636,31.56239 -25.70949,57.23089 -57.27777,57.23089c-31.58487,0 -57.28067,-25.69584 -57.28067,-57.27973l0.00004,0.00004zm66.33145,74.82481c7.1912,-0.86585 14.07882,-2.73026 20.50572,-5.48005l28.04733,48.8791c-14.84217,7.26149 -31.24222,11.80441 -48.55304,12.98651l0,-56.38556l0,0zm36.17565,-14.55224c5.68599,-4.27744 10.74823,-9.3387 15.02763,-15.02273l48.81563,28.18203c-9.5144,14.0876 -21.68683,26.23952 -35.78715,35.73639l-28.05611,-48.89569zm24.10571,-30.68975c2.75466,-6.43275 4.62495,-13.32719 5.49174,-20.52619l56.38654,0c-1.187,17.37135 -5.76017,33.82412 -13.06461,48.7063l-48.81367,-28.18011zm61.87733,-38.63355l-56.38654,0c-0.86585,-7.20096 -2.73512,-14.09639 -5.48978,-20.52914l48.81269,-28.17815c7.30542,14.8812 11.87667,31.33594 13.06363,48.70728zm-70.95247,-36.1971c-4.27449,-5.67818 -9.33089,-10.73556 -15.01006,-15.01006l28.18109,-48.81563c14.04175,9.48317 26.16146,21.60289 35.6446,35.6446l-48.81563,28.18109zm-30.67901,-24.08716c-6.43275,-2.75466 -13.32817,-4.62495 -20.52718,-5.48978l0,-56.38654c17.37135,1.187 33.82412,5.75824 48.70728,13.06363l-28.18011,48.81269zm-38.63453,-61.87537l0,56.38654c-7.199,0.86679 -14.09345,2.73708 -20.52619,5.49174l-28.17815,-48.81269c14.87924,-7.30637 31.33303,-11.87859 48.70434,-13.06559zm-36.19416,70.95635c-5.6772,4.27449 -10.73262,9.32991 -15.00712,15.0081l-48.81465,-28.18301c9.48219,-14.0388 21.60093,-26.1595 35.63973,-35.64169l28.18203,48.81661zm-24.08519,30.67606c-2.75466,6.43275 -4.62298,13.32719 -5.48884,20.52619l-56.38654,0c1.187,-17.37135 5.75922,-33.82609 13.06363,-48.70728l48.81171,28.18109l0.00004,0zm-61.87439,38.63453l56.38654,0c0.86679,7.19802 2.73512,14.09251 5.48978,20.52427l-48.81171,28.18109c-7.30542,-14.88218 -11.87765,-31.33594 -13.06461,-48.70532l0,-0.00004zm70.95345,36.19126c4.27842,5.68309 9.33968,10.74337 15.02469,15.02081l-28.05709,48.89569c-14.09933,-9.49584 -26.26785,-21.64682 -35.78224,-35.73344l48.81465,-28.18301l0,-0.00004zm30.6956,24.09496c6.4269,2.74979 13.31256,4.61616 20.50474,5.48197l0,56.38654c-17.31082,-1.18308 -33.7099,-5.72796 -48.55206,-12.98945l28.04733,-48.8791l0,0.00004zm137.65873,89.06567c-2.35054,-1.17625 -4.95975,-1.84197 -7.65976,-1.91713l-18.12882,-31.59464c16.83936,-11.13481 31.30471,-25.57867 42.46392,-42.40045l31.49312,18.18056c0.0293,1.47492 0.21767,2.95475 0.61205,4.41602c0.31723,1.17723 0.7448,2.30563 1.27385,3.3755c-13.4619,19.56765 -30.45353,36.5241 -50.05433,49.94014l-0.00004,0zm49.6346,-267.48299c-1.30998,2.67365 -1.95714,5.64205 -1.86539,8.63101l-31.09191,17.9492c-11.11916,-16.76224 -25.52011,-31.16416 -42.28332,-42.28332l17.7442,-30.73561c0.49394,0.04099 0.98883,0.06833 1.48567,0.06833l0.00098,0c2.80443,0 5.52885,-0.65403 7.98189,-1.84977c18.72133,13.09681 35.00328,29.44419 48.02788,48.22017zm-266.43752,-48.9142c2.47842,1.22799 5.24186,1.89857 8.08925,1.89857l0.00098,0c0.01173,0 0.02538,-0.00098 0.03711,-0.00098l18.07806,31.31738c-16.76027,11.11818 -31.16024,25.51818 -42.27846,42.2794l-31.24124,-18.03706c0.03417,-2.88155 -0.61009,-5.73286 -1.87613,-8.30986c13.28424,-19.20841 29.9723,-35.88278 49.19048,-49.14752l-0.00004,0.00008zm-49.12799,266.91781c0.52517,-1.06983 0.94882,-2.19826 1.26314,-3.37354c0.44511,-1.67114 0.63838,-3.36671 0.60813,-5.04859l31.18758,-18.00678c11.15725,16.8208 25.62163,31.26176 42.45902,42.39657l-18.14149,31.61511c-2.68338,0.081 -5.27795,0.74676 -7.61582,1.91713c-19.45636,-13.31546 -36.34354,-30.11967 -49.76052,-49.4999l-0.00004,0zm57.34708,84.01806c0.18546,0.00584 0.37191,0.01855 0.55933,0.01855l0,0c3.70834,0 7.26537,-1.13718 10.2426,-3.15587c22.67468,10.75702 47.56618,17.57631 73.79107,19.5491c2.98794,6.00518 9.17469,10.15571 16.31807,10.15669l0.04001,0c7.1668,-0.01463 13.35453,-4.19447 16.32101,-10.22895c25.91057,-2.05964 50.5063,-8.84574 72.93303,-19.49053c2.97723,2.01668 6.53329,3.15391 10.24064,3.15391c0.17181,0 0.34166,-0.01173 0.51344,-0.01659l39.7239,69.22861l-280.39924,0l39.71609,-69.21492l0.00004,0z" fill="#3f3f3f"/>
 </g>
</svg>