<svg width="100%" height="100%"  viewBox="0 0 128 128" xmlns="http://www.w3.org/2000/svg">
 <g>
  <title>TheMill</title>
  <rect fill="#7f7f7f" x="45.12729" y="43.62801" width="33.40429" height="73.37013" id="svg_25"/>
  <path fill="#7f0000" d="m42.5815,43.40433c0,0 18.78991,-20.57943 18.78991,-20.57943c0,0 21.2505,20.57943 21.2505,20.57943c0,0 -40.04041,0 -40.04041,0z" id="svg_23"/>
  <rect fill="#937558" x="218.51602" y="-222.40187" width="43.90847" height="185.13908" transform="matrix(-0.15865528536282802,0.15768787084835442,-0.15768787084835442,-0.15865528536282802,101.97847191102812,12.40028711041532) " id="svg_22"/>
  <rect fill="#937558" x="16.51603" y="-362.40186" width="43.90847" height="185.13908" transform="matrix(-0.15865528536282802,0.15768787084835442,-0.15768787084835442,-0.15865528536282802,2.668532664643335,-9.275015856524703) " id="svg_21"/>
  <rect fill="#937558" x="278.1625" y="-406.82051" width="43.90847" height="185.13908" transform="matrix(0.15701354188984115,0.15932266583714572,-0.15932266583714572,0.15701354188984115,-19.600805814874416,34.64086499991754) " id="svg_20"/>
  <rect fill="#937558" x="137.23874" y="-207.26517" width="43.90847" height="185.13908" id="svg_19" transform="matrix(0.15701354188984115,0.15932266583714572,-0.15932266583714572,0.15701354188984115,2.796661764825434,70.39874780911576) "/>
  <g id="svg_1">
   <path d="m102.98921,81.21017l-24.22736,-24.22758l-0.44022,-12.10316l4.75966,0c0.54647,0 1.03859,-0.33128 1.24394,-0.83772c0.20535,-0.50666 0.08299,-1.08691 -0.30914,-1.46763l-3.87609,-3.76156l16.10027,-16.10027c0.52433,-0.5241 0.52433,-1.3739 0,-1.89778l-6.74938,-6.74893c-0.25165,-0.25187 -0.593,-0.39325 -0.94889,-0.39325s-0.69724,0.14137 -0.94889,0.39325l-16.23158,16.23158l-8.70801,-8.44964c-0.52053,-0.50531 -1.34862,-0.50531 -1.86915,-0.00022l-15.56006,15.09613l-16.1289,-16.12868c-0.25165,-0.25187 -0.593,-0.39325 -0.94889,-0.39325c-0.35611,0 -0.69724,0.14137 -0.94911,0.39325l-6.74893,6.74916c-0.5241,0.5241 -0.5241,1.3739 0.00022,1.89778l24.34345,24.34345l-0.62611,17.18606l-16.96819,16.96819c-0.25187,0.25165 -0.39325,0.593 -0.39325,0.94889c0,0.35611 0.14137,0.69724 0.39325,0.94911l6.74916,6.74893c0.26194,0.26194 0.60553,0.39302 0.94889,0.39302s0.68695,-0.13108 0.94889,-0.39325l7.67031,-7.67031l-1.03233,28.37053c-0.01342,0.36417 0.12213,0.71804 0.37513,0.98043s0.60172,0.41047 0.96611,0.41047l35.79031,0c0.36439,0 0.71312,-0.14808 0.96611,-0.41047s0.38832,-0.61626 0.37513,-0.98043l-1.54033,-42.3764l14.92724,14.92724c0.26194,0.26216 0.60553,0.39325 0.94889,0.39325s0.68695,-0.13108 0.94889,-0.39325l6.74916,-6.74916c0.5241,-0.5241 0.5241,-1.37368 -0.00022,-1.89778zm-27.01497,-27.01497l-2.05794,-2.05794c-0.52388,-0.52433 -1.37412,-0.52433 -1.89778,0l-5.80027,5.80027l-2.60151,-2.60151l10.45636,-10.45636l1.56247,0l0.33867,9.31555zm-22.81364,-9.31555l5.22695,0c0.04026,0.05503 0.08366,0.10827 0.13265,0.15703l5.80004,5.79982l-2.60151,2.60151l-8.55813,-8.55836zm26.61054,-2.68427l-2.8413,0l-0.17246,0l1.4844,-1.4844l1.52936,1.4844zm8.77086,-25.28295l4.85115,4.85115l-27.17491,27.17469l-4.85115,-4.85093l27.17491,-27.17491zm-26.82305,7.76829l7.74435,7.51462l-9.99981,9.99981l-8.98717,0l-3.35355,-3.35355l14.59618,-14.16088zm-33.57243,-1.01913l27.17491,27.17469l-4.85115,4.85115l-27.17469,-27.17469l4.85093,-4.85115zm19.23729,32.73516l2.1378,2.1378c0.26194,0.26216 0.60553,0.39325 0.94889,0.39325s0.68695,-0.13108 0.94889,-0.39325l5.80004,-5.80004l2.60151,2.60151l-12.86751,12.86751l0.43038,-11.80678zm-12.48813,37.36218l-4.85115,-4.85093l27.17491,-27.17469l4.85093,4.85093l-27.17469,27.17469zm25.1456,22.25397l0,-12.52661l3.35534,0l0,12.52661l-3.35534,0zm18.18103,0l-12.14142,0l0,-13.86875c0,-0.74108 -0.60105,-1.34214 -1.34214,-1.34214l-6.03961,0c-0.74108,0 -1.34214,0.60105 -1.34214,1.34214l0,13.86875l-12.14119,0l1.08668,-29.86455l18.61499,-18.61499c0.52433,-0.5241 0.52433,-1.3739 0,-1.89778l-5.80004,-5.80004l2.60151,-2.60151l14.90868,14.90868l1.59468,43.8702zm17.06885,-29.0029l-27.17469,-27.17469l4.85115,-4.85115l27.17469,27.17469l-4.85115,4.85115z" id="svg_2"/>
   <path d="m64.73876,80.22258l-6.03961,0c-0.74108,0 -1.34214,0.60105 -1.34214,1.34214l0,6.03961c0,0.74108 0.60105,1.34214 1.34214,1.34214l6.03961,0c0.74108,0 1.34214,-0.60105 1.34214,-1.34214l0,-6.03961c0,-0.74131 -0.60105,-1.34214 -1.34214,-1.34214zm-1.34214,6.03961l-3.35534,0l0,-3.35534l3.35534,0l0,3.35534z" id="svg_3"/>
  </g>
  <rect fill="#7f0000" x="79.12809" y="117.2964" width="0.29825" height="0" id="svg_24"/>
 </g>
</svg>