<svg width="100%" height="100%"  viewBox="0 0 128 128" xmlns="http://www.w3.org/2000/svg">
    <g>
        <title>TittyTwister</title>
        <rect transform="rotate(-13.020770072937012 62.78571701049808,65.91070556640626) " fill="#d8d888" x="8.28572" y="7.91071" width="108.99999" height="115.99999" id="svg_2"/>
        <rect id="svg_4" transform="rotate(-13.020770072937012 69.52215576171862,69.58226776123047) " fill="#ffaaaa" x="31.32931" y="28.93667" width="76.38569" height="81.29119"/>
        <path id="svg_1" d="m121.22429,78.24215c-1.39362,4.43793 -5.2529,5.79527 -8.64368,2.77346c-1.84379,-1.33981 -5.88172,-1.48262 -3.05457,1.51969c1.61146,1.43624 4.78533,6.80497 0.98545,2.8161c-2.48042,-3.64834 -7.92007,-4.04978 -9.89338,-7.7557c-0.263,-4.46223 -7.01961,-3.6359 -10.41295,-4.906c-2.94418,0.10286 -7.50789,-3.06279 -8.57133,-3.05873c2.64785,3.15206 2.23374,8.212 4.83552,11.03469c3.4653,0.96491 4.78725,5.17765 0.3015,5.90377c-5.46008,1.96979 -4.51309,-4.66204 -7.3982,-7.40997c-2.12793,-0.98161 -0.06317,8.848 -2.10299,6.5342c0.05194,-4.09039 -1.94272,-7.82183 -2.74356,-11.70704c1.35425,-1.44303 1.19767,-5.56643 -0.46057,-2.32034c-3.4412,5.72818 -7.94913,10.7109 -12.3369,15.71769c-4.54887,1.23376 -9.45547,0.64927 -14.13135,0.36571c-4.92303,0.07949 -6.06004,-8.6381 -9.0642,-8.91267c-0.62725,2.49656 0.01605,3.96427 1.30851,5.22795c-2.00734,2.34488 -6.27722,1.56843 -8.97736,0.61951c-4.79608,1.54332 1.51511,-2.72126 3.46723,-1.98461c0.04781,-3.40738 0.62635,-7.90967 -0.42529,-11.18998c-1.57362,-1.55576 -4.99846,-9.32801 -4.65478,-3.89936c-0.89891,6.61406 -3.95816,12.74428 -4.66803,19.41201c-0.60568,3.74214 -5.84566,1.96933 -8.5204,2.15046c-2.69461,0.84104 -2.4026,0.11245 -4.83867,0.25539c2.59071,-3.4835 8.76015,-1.20764 10.52025,-4.91124c0.78596,-5.53119 0.38962,-11.32269 2.259,-16.64968c-0.78048,-5.50743 -2.50305,-10.96097 -2.53149,-16.53217c0.87666,-3.64161 3.00981,-6.95947 2.93631,-10.82685c1.60813,-4.31939 2.65336,-9.19084 5.90127,-12.61919c3.44313,-3.70615 8.84264,-0.86362 10.63664,3.03934c1.9338,4.26617 -1.06866,8.54811 -1.38072,12.84284c4.04948,1.09787 0.76417,6.72489 5.98608,6.18971c4.10361,0.37816 2.9164,5.95102 0.21679,7.647c-0.09802,2.60404 3.00143,5.99187 2.29175,9.4054c2.03164,2.23628 4.53981,3.3407 4.7161,-0.59768c1.38939,-5.23097 1.90223,-10.74466 4.36083,-15.66695c0.97861,-3.94122 5.02357,-9.03515 9.32902,-5.79318c3.98988,2.18641 4.99775,8.83614 8.23845,10.46268c3.96761,-3.32522 7.38717,1.67293 10.64074,3.46501c4.90068,2.71456 9.22273,6.32211 13.94803,9.31473c4.93763,2.51573 10.19075,4.53449 14.78984,7.64855c3.12893,1.71792 6.4263,-1.74112 7.14109,2.39543l0.00001,-0.00001zm-55.2757,-18.22919c-0.53613,2.82482 1.61672,1.33008 0,0z" fill="#3f3f3f"/>
    </g>
</svg>