<svg width="100%" height="100%"  viewBox="0 0 128 128" xmlns="http://www.w3.org/2000/svg">
 <g>
  <title>townsquare</title>
  <g id="svg_24">
   <path id="svg_1" fill="#95a378" d="m117.179322,51.435c0,-9.125049 -5.247783,-17.001764 -12.8388,-20.677675c2.43263,-2.576292 3.8819,-6.120108 3.725448,-10.010348c-0.282805,-7.008903 -5.85809,-12.714363 -12.743386,-13.03629c-7.681273,-0.359539 -14.019874,5.871663 -14.019874,13.609282c0,3.664539 1.424338,6.988787 3.736623,9.437356c-7.591017,3.67592 -12.8388,11.552626 -12.8388,20.677675c0,6.350181 2.542661,12.095882 6.646328,16.241559c0.325781,0.329804 0.423777,0.824066 0.253577,1.257963c-0.802856,2.041788 -1.23179,4.276028 -1.193971,6.618752c0.148712,9.136421 7.466376,16.611604 16.443042,16.792683c9.426236,0.189832 17.125562,-7.529415 17.125562,-17.07875c0,-2.51505 -0.538104,-4.899757 -1.496541,-7.05002c4.427734,-4.179803 7.200763,-10.151196 7.200763,-16.782187l0.000027,0l0.000002,0zm0,0"/>
   <path id="svg_2" fill="#23893b" d="m170.599237,58.429911c2.418021,-2.808984 3.83548,-6.532146 3.683334,-10.594722c-0.299997,-8.019306 -6.805353,-14.481466 -14.690349,-14.603065c-8.353471,-0.12859 -15.164842,6.723721 -15.164842,15.195306c0,3.849999 1.408007,7.363203 3.72717,10.040093c1.27907,1.476664 0.992822,3.780013 -0.609447,4.884013c-5.589895,3.849999 -9.270654,10.355896 -9.29042,17.738348c-0.032662,11.71097 9.29816,21.374894 20.804591,21.538486c11.795263,0.167964 21.408029,-9.51259 21.408029,-21.477244c0,-7.398196 -3.675594,-13.921589 -9.268932,-17.784713c-1.626339,-1.122373 -1.893674,-3.431846 -0.599133,-4.936503l-0.000001,0.000001zm0,0"/>
   <path id="svg_3" fill="#74af66" d="m138.869286,70.509164c1.048694,-2.013796 1.646114,-4.310145 1.646114,-6.749094c0,-7.970312 -6.349775,-14.432472 -14.181473,-14.432472c-7.811071,0 -14.145367,6.427167 -14.179751,14.368611c-2.692225,1.337569 -4.548079,4.150058 -4.548079,7.405197c0,0.532751 0.051576,1.053263 0.14699,1.558898c-3.047242,2.173007 -5.041477,5.770189 -5.041477,9.845013c0,5.690583 3.886195,10.453874 9.104751,11.699589c1.965016,6.253079 7.720814,10.781049 14.517576,10.781049s12.552551,-4.52797 14.518428,-10.781049c5.217694,-1.245715 9.10389,-6.009015 9.10389,-11.699589c0,-6.391298 -4.901366,-11.614735 -11.086959,-11.996152l-0.000009,0l-0.000001,-0.000001zm0,0"/>
   <path id="svg_4" d="m94.689928,23.472851c-0.58108,0 -1.14669,0.239693 -1.555849,0.656102c-0.409168,0.417277 -0.644692,0.99465 -0.644692,1.583386c0,0.589612 0.235524,1.166985 0.644692,1.583386c0.409159,0.419029 0.977351,0.656102 1.555849,0.656102c0.578506,0 1.14669,-0.237073 1.555849,-0.656102c0.409168,-0.4164 0.644692,-0.993773 0.644692,-1.583386c0,-0.588745 -0.235524,-1.164357 -0.644692,-1.583386c-0.409159,-0.41641 -0.977351,-0.656102 -1.555849,-0.656102zm0,0"/>
   <path id="svg_5" d="m182.667843,81.151127c0,-7.870591 -3.826027,-15.211917 -10.234248,-19.637536c-0.335242,-0.231825 -0.422916,-0.560753 -0.444404,-0.735708c-0.02321,-0.183708 -0.019775,-0.540628 0.265613,-0.872175c2.892513,-3.360984 4.394211,-7.67813 4.226594,-12.155363c-0.165904,-4.453612 -1.9994,-8.63691 -5.161822,-11.78007c-3.161561,-3.141417 -7.31423,-4.909386 -11.693832,-4.976744c-4.619422,-0.065614 -8.992145,1.707613 -12.286947,5.01086c-3.296515,3.304123 -5.111967,7.715751 -5.111967,12.423924c0,4.245407 1.51889,8.336861 4.27731,11.520262c0.262169,0.303554 0.264752,0.643854 0.243264,0.819685c-0.022349,0.174964 -0.10831,0.503006 -0.435812,0.728708c-1.304854,0.898424 -2.51773,1.93419 -3.618861,3.081051c0.013757,-0.272066 0.022349,-0.545 0.022349,-0.817942c0,-9.193291 -7.348614,-16.67196 -16.381161,-16.67196c-2.539218,0 -4.945203,0.598365 -7.095037,1.656876c-0.407446,-3.882373 -1.695108,-7.60902 -3.783043,-10.905276c-1.9994,-3.157161 -4.652945,-5.804305 -7.762938,-7.767364c1.806852,-2.761743 2.708565,-6.020387 2.571889,-9.41724c-0.329225,-8.138276 -6.847477,-14.806888 -14.840774,-15.181305c-4.307389,-0.202081 -8.390429,1.350693 -11.4987,4.372254c-3.110845,3.023313 -4.823145,7.098138 -4.823145,11.473897c0,3.149284 0.904287,6.173474 2.585637,8.750642c-3.110845,1.96305 -5.763538,4.61108 -7.76379,7.769108c-2.567584,4.05208 -3.924015,8.753261 -3.924015,13.595291c0,6.509401 2.413725,12.634758 6.811371,17.327196c-0.771907,2.189627 -1.143255,4.483357 -1.105427,6.8287c0.081656,5.00124 2.053551,9.72429 5.552936,13.297851c3.064425,3.130035 6.999623,5.07035 11.230514,5.570737l0,23.419311c0,1.236095 0.985091,2.239488 2.20054,2.239488c1.214598,0 2.20054,-1.003393 2.20054,-2.239488l0,-23.417559c2.542661,-0.296554 4.980448,-1.11362 7.204198,-2.409204c1.597972,1.806467 3.657541,3.20265 6.033447,3.994342c2.356131,6.040503 7.721675,10.236049 14.005256,11.037371l0,10.79505c0,1.236095 0.985091,2.239488 2.20054,2.239488s2.20054,-1.003393 2.20054,-2.239488l0,-10.79505c5.927711,-0.7567 11.037104,-4.53497 13.5746,-10.032226c3.905101,4.372254 9.303317,7.144503 15.051375,7.709627l0,13.117648c0,1.236095 0.985091,2.239488 2.20054,2.239488c1.214598,0 2.20054,-1.003393 2.20054,-2.239488l0,-13.1124c5.337178,-0.504759 10.293555,-2.842234 14.16342,-6.72635c4.477589,-4.492977 6.94289,-10.490619 6.94289,-16.888918l0.000018,0l0.000002,-0.000001zm-85.777365,8.790007l0,-8.567801c0,-0.000876 0,-0.001752 0,-0.002629l0,-10.671699l9.005033,-9.165299c0.859589,-0.873927 0.859589,-2.291977 0,-3.16678s-2.252117,-0.874803 -3.111706,0l-5.893335,5.996766l0,-1.575518c0,-0.000876 0,-0.001752 0,-0.002629l0,-12.529779l7.035721,-7.160247c0.859589,-0.874803 0.859589,-2.292854 0,-3.167657c-0.859589,-0.873927 -2.252117,-0.873927 -3.112567,0l-3.923154,3.993466l0,-9.250143c0,-1.236971 -0.985091,-2.239488 -2.20054,-2.239488c-1.215458,0 -2.20054,1.002526 -2.20054,2.239488l0,14.655545l0,0.001752l0,8.05167l-7.212799,-7.340459c-0.859589,-0.873927 -2.252117,-0.873927 -3.112567,0c-0.859589,0.874803 -0.859589,2.292854 0,3.167657l10.325366,10.508116l0,6.054503l0,0.002629l0,6.192713l-2.586498,-2.631401c-0.858728,-0.873927 -2.252117,-0.873927 -3.111706,0c-0.859589,0.874803 -0.859589,2.292854 0,3.167657l5.698204,5.798181l0,7.634393c-6.868104,-1.086504 -12.26545,-7.184743 -12.38236,-14.416728c-0.032662,-1.984051 0.316328,-3.918232 1.036667,-5.750949c0.499424,-1.271964 0.206297,-2.715387 -0.746123,-3.67854c-3.86642,-3.90686 -5.996479,-9.110181 -5.996479,-14.652925c0,-7.924823 4.546358,-15.247786 11.5838,-18.655135c0.638674,-0.309679 1.091679,-0.912415 1.218893,-1.620131c0.127215,-0.708592 -0.087683,-1.435547 -0.577645,-1.954306c-2.014019,-2.13189 -3.12288,-4.933007 -3.12288,-7.885459c0,-3.14054 1.229207,-6.064999 3.461558,-8.234502c2.23149,-2.168635 5.166979,-3.281379 8.256336,-3.137912c5.73431,0.268562 10.410466,5.052853 10.64599,10.891276c0.126363,3.135292 -0.979073,6.106984 -3.113428,8.366606c-0.489963,0.51876 -0.70486,1.245715 -0.578506,1.954306c0.127224,0.707715 0.58108,1.310452 1.219754,1.620131c7.036582,3.40735 11.5838,10.729436 11.5838,18.655135c0,0.105855 0.009453,0.209081 0.024071,0.311431c-2.797961,2.734627 -4.651223,6.463027 -4.992483,10.620962c-2.870164,1.926314 -4.604813,5.162204 -4.604813,8.734012c0,0.188956 0.005157,0.377912 0.01547,0.567744c-3.096236,2.696138 -4.909966,6.653736 -4.909966,10.836167c0,2.047913 0.422916,4.004838 1.190527,5.778932c-1.499124,0.83981 -3.12288,1.397934 -4.811109,1.656876l0.000018,0l-0.000004,0.000002zm41.865342,3.581438c-1.506855,4.793036 -5.472132,8.217882 -10.221352,9.034947l0,-12.209604s0,-0.000876 0,-0.001752l0,-8.269495l5.704222,-5.805182c0.859589,-0.873927 0.859589,-2.291977 0,-3.16678s-2.252978,-0.874803 -3.112567,0l-2.591655,2.637525l0,-12.92694c0,-1.236095 -0.985091,-2.239488 -2.20054,-2.239488s-2.20054,1.003393 -2.20054,2.239488l0,22.124603l-5.309673,-5.402773c-0.859589,-0.874803 -2.252117,-0.874803 -3.111706,0s-0.859589,2.292854 0,3.167657l8.421379,8.57043l0,11.283188c-4.749219,-0.817066 -8.714497,-4.242788 -10.221352,-9.035824c-0.235524,-0.749709 -0.840675,-1.318329 -1.593677,-1.497656c-4.360688,-1.041015 -7.406208,-4.955751 -7.406208,-9.51959c0,-3.183401 1.5335,-6.178722 4.102815,-8.010562c0.710017,-0.506511 1.06159,-1.390058 0.898269,-2.256108c-0.07049,-0.377912 -0.106588,-0.760205 -0.106588,-1.13724c0,-2.31035 1.268748,-4.377502 3.312846,-5.392277c0.753001,-0.37354 1.23179,-1.150365 1.235224,-2.002424c0.029228,-6.693109 5.402503,-12.138743 11.97921,-12.138743c6.605926,0 11.980932,5.470139 11.980932,12.192984c0,2.012044 -0.467614,3.930481 -1.389954,5.700203c-0.350713,0.672723 -0.34126,1.481036 0.024932,2.145015c0.366183,0.664846 1.039241,1.093504 1.786225,1.138993c5.057808,0.312307 9.019651,4.598832 9.019651,9.761035c0,4.112436 -2.473893,7.695626 -6.153792,9.126801c-0.029228,0.00962 -0.058455,0.022744 -0.086822,0.034117c-0.377357,0.142591 -0.765889,0.262437 -1.165595,0.357796c-0.753001,0.179336 -1.358152,0.747956 -1.593677,1.497656l-0.000009,0l0.000002,0zm22.805713,6.73597l0,-7.878458l7.780982,-7.918699c0.859589,-0.874803 0.859589,-2.292854 0,-3.167657c-0.859589,-0.873927 -2.252117,-0.873927 -3.111706,0l-4.669276,4.751919l0,-11.083736c0,-0.000876 0,-0.001752 0,-0.002629l0,-18.485428l5.397346,-5.492874c0.858728,-0.874803 0.858728,-2.292854 0,-3.167657c-0.859589,-0.873927 -2.252978,-0.873927 -3.112567,0l-2.28564,2.326094l0,-5.268059c0,-1.236971 -0.985091,-2.239488 -2.20054,-2.239488c-1.214598,0 -2.20054,1.002526 -2.20054,2.239488l0,10.673451l0,0.002619l0,14.005567l-1.342673,-1.36557c-0.859589,-0.874803 -2.252117,-0.874803 -3.111706,0c-0.859589,0.873927 -0.859589,2.291977 0,3.16678l4.454379,4.533218l0,15.563588l0,0.002629l0,8.802246c-4.309972,-0.524884 -8.354332,-2.58154 -11.390391,-5.777189c3.906822,-2.562291 6.386733,-7.002788 6.386733,-11.973407c0,-5.629341 -3.233764,-10.543108 -7.950321,-12.853458c1.267896,-1.725109 2.817727,-3.236766 4.573002,-4.445736c1.28594,-0.886175 2.136938,-2.297225 2.333782,-3.871867c0.197705,-1.576394 -0.27937,-3.160656 -1.307428,-4.347767c-2.049255,-2.364592 -3.177031,-5.403649 -3.177031,-8.559057c0,-3.498336 1.348691,-6.777087 3.798513,-9.23178c2.448109,-2.454693 5.681873,-3.77827 9.132256,-3.724028c6.765812,0.104102 12.267172,5.572489 12.524184,12.448421c0.124641,3.329496 -0.990248,6.537394 -3.139212,9.034071c-1.039241,1.207226 -1.520612,2.808984 -1.320324,4.393255c0.197705,1.571146 1.050416,2.982196 2.338939,3.871867c5.199641,3.591934 8.304477,9.547583 8.304477,15.931881c0,5.190196 -2.000261,10.05497 -5.632019,13.70026c-3.037781,3.048686 -6.901627,4.919882 -11.073202,5.407145l-0.000018,0.000046l0.000001,-0.000001zm0,0" fill="#333"/>
  </g>
  <g id="svg_1">
   <g id="svg_4">
    <path d="m25.9375,71.8335c-1.16074,0 -2.09888,-0.93814 -2.09888,-2.09888l0,-14.69263c0,-1.16074 0.93814,-2.09888 2.09888,-2.09888c1.16074,0 2.09888,0.93814 2.09888,2.09888l0,14.69263c0,1.16074 -0.93814,2.09888 -2.09888,2.09888" fill="#4482c3" id="svg_5" stroke-width="5" stroke="#4482c3"/>
    <path d="m25.9375,57.14088c-1.16074,0 -2.09888,-0.93814 -2.09888,-2.09888c0,-4.63042 -3.76558,-8.39575 -8.39575,-8.39575s-8.396,3.76533 -8.396,8.39575c0,1.16074 -0.93814,2.09888 -2.09888,2.09888s-2.09888,-0.93814 -2.09888,-2.09888c0,-6.9455 5.64825,-12.59375 12.59375,-12.59375s12.59375,5.64825 12.59375,12.59375c-0.00025,1.16074 -0.93838,2.09888 -2.09912,2.09888" fill="#4482c3" id="svg_6" stroke-width="5" stroke="#4482c3"/>
    <path d="m46.92701,57.14088c-1.16074,0 -2.09888,-0.93814 -2.09888,-2.09888c0,-4.63042 -3.76558,-8.39575 -8.39575,-8.39575c-4.63042,0 -8.39575,3.76558 -8.39575,8.39575c0,1.16074 -0.93814,2.09888 -2.09888,2.09888c-1.16074,0 -2.09888,-0.93814 -2.09888,-2.09888c0,-6.9455 5.64825,-12.59375 12.59375,-12.59375s12.59375,5.64825 12.59375,12.59375c-0.00025,1.16074 -0.93863,2.09888 -2.09937,2.09888" fill="#4482c3" id="svg_7" stroke-width="5" stroke="#4482c3"/>
   </g>
   <path stroke-width="5" stroke="#333333" d="m113.088779,98.347897c-1.690031,0 -3.280634,0.381465 -4.727916,1.033314c0.03007,-0.34678 0.104032,-0.679748 0.104032,-1.033314c0,-6.383273 -5.176305,-11.559567 -11.559567,-11.559567c-3.218049,0 -6.124267,1.320219 -8.221228,3.442381c-2.198559,-4.757996 -7.000437,-8.066265 -12.585842,-8.066265c-7.661494,0 -13.871377,6.209883 -13.871377,13.871377c0,0.897031 0.09239,1.771042 0.254402,2.619301c-0.827673,-0.187213 -1.680823,-0.307503 -2.566201,-0.307503c-6.383273,0 -11.559567,5.176305 -11.559567,11.559567c0,6.383273 5.176305,11.559567 11.559567,11.559567l53.173707,0c6.383273,0 11.559567,-5.176305 11.559567,-11.559567c0,-6.382998 -5.176305,-11.559302 -11.559567,-11.559302" fill="#23893b" id="svg_8"/>
   <g id="svg_9">
    <path d="m85.520013,123.506893c-1.485747,0 -2.686566,-1.200819 -2.686566,-2.686566l0,-18.806566c0,-1.485747 1.200819,-2.686566 2.686566,-2.686566c1.485747,0 2.686566,1.200819 2.686566,2.686566l0,18.806566c0,1.485747 -1.200819,2.686566 -2.686566,2.686566" fill="#3f3f3f" id="svg_10"/>
    <path d="m85.520013,123.506893c-0.687936,0 -1.375552,-0.263206 -1.899456,-0.78711c-1.050637,-1.050637 -1.050637,-2.748582 0,-3.798899l13.433433,-13.433433c1.050637,-1.050637 2.748582,-1.050637 3.798899,0c1.050637,1.050637 1.050637,2.748582 0,3.798899l-13.433433,13.433433c-0.523904,0.523904 -1.21152,0.78711 -1.899456,0.78711" fill="#3f3f3f" id="svg_11"/>
    <path d="m85.520013,123.506893c-0.687936,0 -1.375552,-0.263206 -1.899456,-0.78711l-13.433433,-13.433433c-1.050637,-1.050637 -1.050637,-2.748582 0,-3.798899c1.050637,-1.050637 2.748582,-1.050637 3.798899,0l13.433433,13.433433c1.050637,1.050637 1.050637,2.748582 0,3.798899c-0.523904,0.523904 -1.21152,0.78711 -1.899456,0.78711" fill="#3f3f3f" id="svg_12"/>
   </g>
   <path d="m124.58864,123.61476l-121.73976,0c-1.16074,0 -2.09888,-0.93814 -2.09888,-2.09888c0,-1.16074 0.93814,-2.09888 2.09888,-2.09888l121.73951,0c1.16074,0 2.09888,0.93814 2.09888,2.09888c0.00025,1.16074 -0.93789,2.09888 -2.09863,2.09888" fill="#3f3f3f" id="svg_19"/>
   <g id="svg_20">
    <polygon stroke-width="5" stroke="#333333" points="10.426252365112305,120.3987808227539 41.65876007080078,120.3987808227539 41.65876007080078,109.988037109375 10.426252365112305,109.988037109375 " fill="#a0927e" id="svg_16"/>
    <path stroke-width="5" stroke="#333333" d="m31.24802,86.56458l-10.41104,0c0,10.41073 -3.216882,23.424381 -10.41073,23.424381l31.2325,0c-7.193848,0 -10.41073,-13.013639 -10.41073,-23.424381" fill="#72685c" id="svg_17"/>
    <path stroke-width="5" stroke="#333333" d="m10.42625,72.620941c0,8.625229 6.991021,15.61625 15.61625,15.61625s15.61625,-6.991021 15.61625,-15.61625l-31.2325,0z" fill="#a0927e" id="svg_18"/>
   </g>
  </g>
 </g>
</svg>