<svg width="80%" height="80%"  viewBox="0 0 128 128" xmlns="http://www.w3.org/2000/svg">
 <g>
  <title>Garage</title>
  <g id="svg_5">
   <path fill="#283130" d="m80.78696,28.88362c-15.10751,-0.3325 -40.04379,4.91252 -48.8475,13.71501c-7.65125,7.6525 -13.46753,20.83124 -9.92749,31.55875c-1.59625,-0.29376 -3.33502,-0.58624 -3.73505,0.25876c-0.68372,1.44998 -0.50751,3.17374 -0.10748,4.91125c-0.97125,0.09369 -1.93372,0.26373 -2.92499,0.3425c-3.57874,0.27249 -7.15253,0.31747 -10.73627,0.625c-0.52246,-1.16751 -1.62122,-2.86127 -1.17249,-3.76001c0.82001,-1.64127 4.71249,-0.79626 5.66876,-1.7525c0.51746,-0.51749 -3.30002,-0.47375 -3.53,-0.39124c-3.2038,1.20123 -3.90131,0.11749 -3.99374,3.81372c-0.01501,0.52753 0.15125,1.79126 0.52246,2.76877c-0.62003,0.71249 -1.33878,2.47501 -0.625,3.1875c0.15125,0.15625 0.57129,0.15625 0.99127,0.15625c0.21375,1.95374 4.42377,1.89999 4.7012,1.07001c0.16125,-0.48877 0.09372,-1.14752 0,-1.80127c0.34753,-0.06369 0.97253,-0.20999 1.14752,-0.20999c2.91998,0 7.01752,0.37 11.04999,0.55124c0.03873,0.22501 0.16125,0.48877 0.18628,0.70251c0.05368,0.50876 0.0625,2.70624 0.36621,3.00375c0.95123,0.95624 6.05377,-0.77127 7.28503,-0.86002c1.38123,-0.0975 2.82623,-0.38998 4.20374,-0.38998c0.61499,0 1.69873,0.63998 2.01123,0.38998c1.39752,0.79626 2.79376,1.5975 4.28757,2.2225c-0.18127,1.55249 -0.2738,3.08499 -0.23508,4.72626c-0.88745,0.08249 -1.62,0.3075 -1.9325,0.91251c-0.69873,1.36249 0.57129,1.5675 2.1925,1.54373c0.3125,1.94751 0.84875,3.4025 2.065,2.79251c0.47375,-0.23376 0.23376,-1.33749 0.23376,-1.72375c0,-0.24374 0.06378,-0.84 0.0788,-1.14749c0.34622,-0.0188 0.76123,-0.0538 1.04498,-0.0538c2.98749,0 7.36749,0.90375 11.10379,0.86499c0.12625,0.99127 0.43375,1.87 1.3812,2.42627l-0.07745,0c-4.07751,0 -8.72128,-1.06375 -12.72003,-0.33627c-0.95746,0.17001 -3.67746,0.14627 -4.35999,0.83502c-0.16626,0.16 0.11127,1.40125 0.46875,0.88748c0.42877,-0.62875 4.14502,0.39627 5.03876,0.655c3.42749,0.97626 7.12375,0.20001 10.65872,0.49252c1.66501,0.14249 3.41879,0.63498 4.43875,-1.06876c1.1088,-1.84125 -1.59625,-1.54251 -2.94873,-1.465c0.52127,-0.14127 0.85373,-1.24503 1.06876,-2.84625c0.40997,-0.0975 0.89374,-0.10751 1.25497,-0.25876c1.23999,-0.5325 -0.19,-2.06625 -0.99121,-2.19751c-0.03369,-0.005 -0.07373,0.005 -0.10751,0c0.02002,-0.36624 0.04868,-0.66873 0.05371,-1.04498c5.41498,0.5325 10.68875,0.64499 15.78125,0.65375c0.51749,3.83374 3.00247,7.78375 6.73874,7.78375l-1.38751,-1.30377c0.35626,0.21503 0.71375,0.44376 1.09875,0.57626c5.06372,1.685 13.78876,-1.38251 15.51749,-6.63626c6.17252,-0.56125 11.67505,-1.74249 14.36502,-3.76373c7.39252,-5.54251 12.04123,-13.6875 13.48248,-22.33499c1.26373,0.26373 2.54877,0.51874 3.86627,0.07867c0.40125,-0.13248 0.1275,-3.19373 0.1275,-3.52499c0,-3.51624 1.62622,-10.625 0.13123,-13.61374c-0.25375,-0.51251 -4.63873,0.39999 -5.63873,0.4975c-1.24127,-3.495 -2.94501,-6.875 -5.48874,-9.92625c-5.68875,-6.83124 -18.88126,-10.68874 -27.32373,-12.09499c-1.67999,-0.27753 -3.63873,-0.44876 -5.80124,-0.49753l0,0.00011zm12.33371,11.60127c3.125,0.07379 5.44,0.37125 5.95251,0.88873c1.06378,1.06 -0.30252,6.52374 0,8.04251c0.35626,1.78125 1.39124,8.92999 0,10.32123c-2.23126,2.23627 -27.54376,1.8125 -29.35999,0c-2.07623,-2.07498 0.24371,-13.23622 -0.54752,-14.44749c-2.16754,-3.31123 14.57495,-5.02998 23.95499,-4.80498zm-40.82999,2.87125c0.77625,0.03369 1.32877,0.20499 1.67001,0.55125c0.85999,0.855 1.01123,2.56374 0.83499,5.3275c-0.03372,0.58124 -0.08249,1.18124 -0.15625,1.93375c0,0.01498 -0.13129,1.22125 -0.15625,1.51373c-0.04379,0.47876 -0.0538,0.78625 -0.0538,0.99625l0,25.10251c0,0.45874 -0.37125,0.83499 -0.83502,0.83499c-0.46375,0 -0.83496,-0.37625 -0.83496,-0.83499l0,-25.10251c0,-0.27875 0.03,-0.625 0.0788,-1.1525c0.02377,-0.29749 0.12622,-1.52875 0.13123,-1.54248c0.0687,-0.73251 0.1225,-1.29501 0.15625,-1.85626c0.1413,-2.2025 0.01999,-3.68625 -0.34125,-4.04752c-0.10248,-0.10249 -1.52374,-0.08368 -3.34497,0.18503c-0.47375,0.0687 -0.95752,0.16624 -1.48499,0.25874c-0.74127,0.13249 -2.43127,0.46001 -2.50879,0.46875c-0.30371,0.0537 -0.63,0.0737 -1.28,0.1075c-0.77127,0.0437 -0.81998,0.05379 -1.12247,0.07878c-1.13751,0.09253 -1.85626,0.25877 -2.06628,0.46875c-0.21497,0.22002 -0.50247,1.99626 -0.625,4.67751c-0.11621,2.505 -0.12122,5.79626 -0.05371,9.74625c0.04504,2.44125 0.10754,5.02875 0.21002,7.86127c0.03998,1.09875 0.25873,6.7475 0.25873,7.1575c0,0.45999 -0.37122,0.83499 -0.83496,0.83499c-0.46375,0 -0.83499,-0.375 -0.83499,-0.83499c0,-0.37 -0.21875,-5.95126 -0.26376,-7.10376c-0.09753,-2.8425 -0.16003,-5.41 -0.20499,-7.86623c-0.16501,-9.34625 0.05368,-14.55624 1.14749,-15.64999c0.60123,-0.60001 1.58746,-0.84 3.13501,-0.96127c0.32248,-0.02998 0.36121,-0.00998 1.14746,-0.0538c0.58624,-0.03369 0.87878,-0.0687 1.09875,-0.10249c0.04871,-0.00998 1.74377,-0.33748 2.51001,-0.47374c0.54626,-0.09749 1.04498,-0.18999 1.53748,-0.25876c1.29004,-0.18999 2.30499,-0.29749 3.08624,-0.26372l-0.00003,0l0,-0.00003zm19.19873,20.97623c0.69376,-0.34625 1.37753,3.07626 1.62131,3.55502c0.34744,0.70248 0.94745,0.47873 1.92871,-1.48877c0.29877,-0.59625 0.71375,1.78625 1.30875,1.48877c0.63998,-0.32251 0.24503,-1.51877 0.42001,-2.04126c0.215,-0.65375 0.13251,2.24625 0.75751,1.93875c0.85373,-0.42999 0.60501,-2.91 1.51373,-3.14001c1.29373,-0.32248 3.315,5.02002 4.755,3.57877c0.22498,-0.22372 -0.06372,-1.42502 0,-1.7225c0.13248,-0.66998 2.15875,1.9375 2.48126,1.83002c1.1225,-0.375 -1.38751,-4.62872 0.10248,-3.13373c0.55127,0.55124 1.12753,1.55249 1.62,2.37747c1.59753,2.66122 1.88501,-1.74374 2.16876,-2.16751c0.46378,-0.69873 1.47873,1.82129 1.51874,1.85501c0.63501,0.63498 0.60501,-0.7175 1.06876,-1.41626c0.24374,-0.36624 1.05002,1.72876 1.30374,1.72876c0.20001,0 0.60126,-1.88501 1.07501,-1.41122c0.19,0.19501 0.97125,1.51874 1.41003,1.41122c1.01624,-0.25876 1.03995,-2.79752 1.51373,-2.79752c1.08002,0 0,2.1575 0,3.24124c0,1.07001 2.24622,-1.85498 3.00369,-1.09747c0.0675,0.06747 -0.18622,3.65625 -0.3125,3.78873c-0.82495,0.82004 -6.245,0 -7.54871,0c-6.05502,0 -12.10501,-0.10745 -18.16003,-0.10745c-3.89624,0 -7.64624,1.11746 -7.78247,-2.58377c-0.03003,-0.76627 0.84497,-2.20624 1.09875,-2.71875c0.14624,-0.29877 0.8837,2.03125 0.96622,2.16751c0.24374,0.40997 0.655,0.11746 0.655,1.17624c0,0.69876 0.36627,-1.3425 0.41504,-2.03497c0.12622,-1.75375 -0.20126,-1.62625 1.09744,-2.27628l0.00003,-0.00003zm11.98752,23.37875c1.58252,-0.38998 2.29004,1.5675 2.04126,2.82251c-0.36627,1.83124 -5.12622,-0.0188 -3.65747,-0.88876c0.72244,-0.42999 0.80124,-1.72873 1.61621,-1.93375zm-43.125,2.19751c3.72626,1.26999 7.63748,2.14874 11.65125,2.69l0,1.33374c-0.81125,0.0387 -1.61621,0.10251 -2.37872,0.10251c-1.84503,0 -3.80878,-0.08749 -5.64374,0.07748c-0.92377,0.0838 -2.42255,-0.16498 -3.83875,-0.33624c0.09744,-1.33749 0.15125,-2.44626 0.20996,-3.86749zm38.32129,3.08124c1.04498,0.21002 1.52246,2.74377 0.65372,3.39877c-0.48373,0.36124 -2.36877,0.68375 -2.82251,0.07748c-0.45377,-0.60501 -0.07248,-2.75876 -0.57626,-2.19751c-0.05377,0.06372 1.10376,-1.60623 2.74506,-1.27875zm5.69244,0.10751c0.97253,-0.11749 1.98251,0.44376 2.09003,1.88c0.13251,1.655 -3.81372,2.28 -3.91626,0.28751c-0.0675,-1.26376 0.85999,-2.05502 1.82623,-2.16751z" id="path5830"/>
  </g>
 </g>
</svg>