<svg width="100%" height="100%"  viewBox="0 0 128 128" xmlns="http://www.w3.org/2000/svg">
 <g>
  <title>UnionStation</title>
  <g id="svg_4">
   <circle fill="#d4ffaa" opacity="0.5" cx="79.67901" cy="47.73942" r="35.22348" id="svg_20"/>
   <circle fill="#ffd4aa" cx="47.30864" cy="79.40608" r="36.1965" id="svg_19"/>
   <g id="svg_1">
    <g id="svg_2">
     <path d="m79.1069,2.25c-20.15407,0 -37.28597,13.17521 -43.2433,31.3636c-18.18839,5.95732 -31.3636,23.08922 -31.3636,43.2433c0,25.08422 20.40764,45.49186 45.49186,45.49186c20.15407,0 37.28597,-13.17521 43.2433,-31.3636c18.18839,-5.95732 31.3636,-23.08922 31.3636,-43.2433c0,-25.08422 -20.40764,-45.49186 -45.49186,-45.49186zm-29.11504,109.1808c-19.06404,0 -34.5739,-15.50986 -34.5739,-34.5739c0,-13.15128 7.38138,-24.60969 18.21795,-30.45348c-0.01267,0.44474 -0.02111,0.89089 -0.02111,1.33844c0,25.08422 20.40764,45.49186 45.49186,45.49186c0.44756,0 0.8937,-0.00844 1.33844,-0.02111c-5.84356,10.8368 -17.30196,18.21818 -30.45325,18.21818zm45.47099,-33.23546c0.01267,-0.44474 0.02111,-0.89089 0.02111,-1.33844c0,-25.08422 -20.40764,-45.49186 -45.49186,-45.49186c-0.44756,0 -0.8937,0.00844 -1.33844,0.02111c5.84379,-10.83657 17.3022,-18.21795 30.45348,-18.21795c19.06404,0 34.5739,15.50986 34.5739,34.5739c-0.00023,13.15105 -7.38162,24.60946 -18.21818,30.45325z" id="svg_3" fill="#3f3f3f"/>
    </g>
   </g>
  </g>
 </g>
</svg>