<svg width="100%" height="100%"  viewBox="0 0 128 128" xmlns="http://www.w3.org/2000/svg">
 <g>
  <title>Utility</title>
  <rect id="svg_3" height="20" width="55" y="55" x="5" fill="#CCC"/>
  <g id="svg_1">
   <path fill="#222" d="m126.70466,99.22882c-6.82009,-26.15506 -10.0787,-54.54434 -9.68489,-84.37946c0.00794,-0.60301 -0.20731,-1.19544 -0.59071,-1.62547c-0.38312,-0.42943 -0.91659,-0.67589 -1.46266,-0.67589l-13.07549,0.0003l-26.15044,-0.0003c-0.54607,0 -1.07872,0.24647 -1.46266,0.67589c-0.38312,0.42943 -0.59892,1.02155 -0.59071,1.62486c0.2996,22.90624 -1.56563,45.09637 -5.54338,65.96737l-3.9605,0l0,-43.75124c0,-0.98707 -0.72709,-1.79028 -1.62122,-1.79028l-7.75832,0c-0.33575,0 -0.65835,0.1128 -0.9333,0.3263l-17.22769,13.39174l0,-11.92776c0,-0.98707 -0.72736,-1.79028 -1.62177,-1.79028l-7.75832,0c-0.33575,0 -0.65835,0.1128 -0.9333,0.3263l-23.64111,18.37701c-0.43077,0.33477 -0.6882,0.88214 -0.6882,1.46368l0,45.05282c0,0.98738 0.72709,1.79058 1.62122,1.79058l121.15687,0c1.13239,0 2.05391,-1.01732 2.05391,-2.26809c0,-0.27126 -0.04272,-0.53648 -0.12734,-0.78809zm-70.88251,-36.878l0,6.82606c0,0.15363 -0.1131,0.27822 -0.25195,0.27822l-12.08222,0c-0.13884,0 -0.25195,-0.12459 -0.25195,-0.27822l0,-6.82606c0,-0.15363 0.1131,-0.27822 0.25195,-0.27822l12.08222,0c0.13884,0 0.25195,0.1249 0.25195,0.27822zm-32.87551,0l0,6.82606c0,0.15363 -0.1131,0.27822 -0.25195,0.27822l-12.08222,0c-0.13884,0 -0.25195,-0.12459 -0.25195,-0.27822l0,-6.82606c0,-0.15363 0.1131,-0.27822 0.25195,-0.27822l12.08222,0c0.13884,0 0.25195,0.1249 0.25195,0.27822z" id="svg_2"/>
  </g>
 </g>
</svg>