<svg width="100%" height="100%"  viewBox="0 0 128 128" xmlns="http://www.w3.org/2000/svg">
 <g>
  <title>Celltower</title>
  <rect fill="#CCC" x="5" y="55" width="55" height="20" id="svg_3"/>
  <g id="svg_1">
   <path id="svg_2" d="m126.70466,102.22882c-6.82009,-26.15506 -10.0787,-54.54434 -9.68489,-84.37946c0.00794,-0.60301 -0.20731,-1.19544 -0.59071,-1.62547c-0.38312,-0.42943 -0.91659,-0.67589 -1.46266,-0.67589l-13.07549,0.0003l-26.15044,-0.0003c-0.54607,0 -1.07872,0.24647 -1.46266,0.67589c-0.38312,0.42943 -0.59892,1.02155 -0.59071,1.62486c0.2996,22.90624 -1.56563,45.09637 -5.54338,65.96737l-3.9605,0l0,-43.75124c0,-0.98707 -0.72709,-1.79028 -1.62122,-1.79028l-7.75832,0c-0.33575,0 -0.65835,0.1128 -0.9333,0.3263l-17.22769,13.39174l0,-11.92776c0,-0.98707 -0.72736,-1.79028 -1.62177,-1.79028l-7.75832,0c-0.33575,0 -0.65835,0.1128 -0.9333,0.3263l-23.64111,18.37701c-0.43077,0.33477 -0.6882,0.88214 -0.6882,1.46368l0,45.05282c0,0.98738 0.72709,1.79058 1.62122,1.79058l121.15687,0c1.13239,0 2.05391,-1.01732 2.05391,-2.26809c0,-0.27126 -0.04272,-0.53648 -0.12734,-0.78809l0.00001,0.00001zm-70.88251,-36.878l0,6.82606c0,0.15363 -0.1131,0.27822 -0.25195,0.27822l-12.08222,0c-0.13884,0 -0.25195,-0.12459 -0.25195,-0.27822l0,-6.82606c0,-0.15363 0.1131,-0.27822 0.25195,-0.27822l12.08222,0c0.13884,0 0.25195,0.1249 0.25195,0.27822zm-32.87551,0l0,6.82606c0,0.15363 -0.1131,0.27822 -0.25195,0.27822l-12.08222,0c-0.13884,0 -0.25195,-0.12459 -0.25195,-0.27822l0,-6.82606c0,-0.15363 0.1131,-0.27822 0.25195,-0.27822l12.08222,0c0.13884,0 0.25195,0.1249 0.25195,0.27822z" fill="#333"/>
   <path fill="#b2b2b2" stroke="#b2b2b2" stroke-width="2" id="svg_4" d="m121.65797,100.58199l-7.583,-29.90295c-0.0139,-0.06764 -0.03096,-0.1351 -0.0508,-0.20147l-13.14544,-51.83722c-0.25676,-1.01318 -1.18427,-1.72433 -2.24859,-1.72433l-7.19628,0c-1.06451,0 -1.99201,0.71115 -2.24878,1.72433l-20.77924,81.94164c-0.17204,0.6786 -0.01594,1.39758 0.42306,1.94835c0.43919,0.55114 1.11252,0.87335 1.82572,0.87335l10.57556,0c0.61475,0 1.20429,-0.23929 1.63885,-0.66588l12.15119,-11.92176l12.17455,11.92176c0.43474,0.42658 1.02391,0.66588 1.63885,0.66588l10.57538,0c0.71319,0 1.38653,-0.32203 1.82572,-0.87335c0.43919,-0.55077 0.59529,-1.26975 0.42325,-1.94835zm-28.41285,-79.12012l3.5732,0l4.72077,18.61634l-13.01492,0l4.72095,-18.61634zm-12.97525,77.39598l-6.65105,0l5.90059,-23.26856l12.20829,11.99158l-11.45783,11.27698zm14.73238,-14.49307l-14.17695,-13.92593l6.5463,-25.81496l15.32025,0l6.53462,25.7686l-14.22422,13.9723zm14.79152,14.49307l-11.50511,-11.28789l12.2437,-12.02704l5.91227,23.31493l-6.65086,0z"/>
  </g>
 </g>
</svg>