<svg width="100%" height="100%"  viewBox="0 0 128 128" xmlns="http://www.w3.org/2000/svg">
 <g>
  <title>Utility refinery</title>
  <rect id="svg_3" height="20" width="55" y="55" x="5" fill="#CCC"/>
  <path  fill="#333" d="m126.70466,103.22882c-6.82009,-26.15506 -10.0787,-54.54434 -9.68489,-84.37946c0.00794,-0.60301 -0.20731,-1.19544 -0.59071,-1.62547c-0.38312,-0.42943 -0.91659,-0.67589 -1.46266,-0.67589l-13.07549,0.0003l-26.15044,-0.0003c-0.54607,0 -1.07872,0.24647 -1.46266,0.67589c-0.38312,0.42943 -0.59892,1.02155 -0.59071,1.62486c0.2996,22.90624 -1.56563,45.09637 -5.54338,65.96737l-3.9605,0l0,-43.75124c0,-0.98707 -0.72709,-1.79028 -1.62122,-1.79028l-7.75832,0c-0.33575,0 -0.65835,0.1128 -0.9333,0.3263l-17.22769,13.39174l0,-11.92776c0,-0.98707 -0.72736,-1.79028 -1.62177,-1.79028l-7.75832,0c-0.33575,0 -0.65835,0.1128 -0.9333,0.3263l-23.64111,18.37701c-0.43077,0.33477 -0.6882,0.88214 -0.6882,1.46368l0,45.05282c0,0.98738 0.72709,1.79058 1.62122,1.79058l121.15687,0c1.13239,0 2.05391,-1.01732 2.05391,-2.26809c0,-0.27126 -0.04272,-0.53648 -0.12734,-0.78809l0.00001,0.00001zm-70.88251,-36.878l0,6.82606c0,0.15363 -0.1131,0.27822 -0.25195,0.27822l-12.08222,0c-0.13884,0 -0.25195,-0.12459 -0.25195,-0.27822l0,-6.82606c0,-0.15363 0.1131,-0.27822 0.25195,-0.27822l12.08222,0c0.13884,0 0.25195,0.1249 0.25195,0.27822zm-32.87551,0l0,6.82606c0,0.15363 -0.1131,0.27822 -0.25195,0.27822l-12.08222,0c-0.13884,0 -0.25195,-0.12459 -0.25195,-0.27822l0,-6.82606c0,-0.15363 0.1131,-0.27822 0.25195,-0.27822l12.08222,0c0.13884,0 0.25195,0.1249 0.25195,0.27822z" id="svg_2"/>
  <g  id="svg_14">
   <path  id="svg_4" fill="#962B23" d="m71.24406,105.47461c-0.26366,0 -0.53155,-0.03691 -0.78897,-0.11897c-1.091,-0.34336 -1.62255,-1.31846 -1.1867,-2.17774l12.75911,-25.12853c0.43386,-0.86281 1.67987,-1.27979 2.76439,-0.93486c1.091,0.34336 1.62255,1.31846 1.1867,2.17774l-12.75911,25.12853c-0.33368,0.65688 -1.13312,1.05383 -1.97542,1.05383"/>
   <path  id="svg_5" fill="#962B23" d="m118.87453,105.47461c-0.88903,0 -1.73333,-0.39365 -2.08562,-1.04486l-13.47092,-24.91938c-0.46017,-0.85232 0.10103,-1.81911 1.2529,-2.15961c1.14266,-0.3405 2.45844,0.07301 2.91861,0.92708l13.47092,24.91938c0.46017,0.85232 -0.10103,1.81911 -1.2529,2.15961c-0.27179,0.08118 -0.55462,0.11778 -0.83299,0.11778"/>
   <path  id="svg_6" fill="#962B23" d="m86.73032,105.47461c-0.15183,0 -0.30584,-0.01046 -0.45986,-0.03509c-1.26304,-0.18917 -2.08455,-1.11 -1.83013,-2.05895l4.66889,-17.50832c0.25222,-0.95079 1.47997,-1.57042 2.7452,-1.37263c1.26304,0.18917 2.08455,1.11 1.83013,2.05895l-4.66889,17.50832c-0.2194,0.83343 -1.19519,1.40772 -2.28534,1.40772"/>
   <path  id="svg_7" fill="#962B23" d="m103.70545,105.2373c-1.03473,0 -1.96093,-0.6586 -2.16918,-1.61437l-4.43157,-20.07859c-0.24148,-1.08825 0.53853,-2.1445 1.73711,-2.3612c1.21416,-0.23083 2.36859,0.48801 2.60566,1.57414l4.43157,20.07859c0.24148,1.08825 -0.53853,2.1445 -1.73711,2.3612c-0.14619,0.02824 -0.29471,0.04024 -0.43648,0.04024"/>
   <path  id="svg_8" fill="#962B23" d="m94.52539,40.13696c-1.35653,0 -2.4529,-0.56159 -2.4529,-1.25645l0,-7.53897c0,-0.695 1.09637,-1.25659 2.4529,-1.25659s2.4529,0.56159 2.4529,1.25645l0,7.53897c0,0.69485 -1.09637,1.25659 -2.4529,1.25659"/>
   <path  id="svg_9" fill="#962B23" d="m102.676,43.93384c-1.35652,0 -2.4529,-0.87979 -2.4529,-1.96834l0,-5.90526c0,-1.08855 1.09637,-1.96834 2.4529,-1.96834c1.35652,0 2.4529,0.87979 2.4529,1.96834l0,5.90526c0.00029,1.08832 -1.09637,1.96834 -2.4529,1.96834"/>
   <path  id="svg_10" fill="#962B23" d="m86.13748,45.35766c-1.22529,0 -2.21559,-0.96464 -2.21559,-2.15818l0,-6.4748c0,-1.19354 0.9903,-2.15818 2.21559,-2.15818c1.22529,0 2.21559,0.96464 2.21559,2.15818l0,6.4748c0,1.19329 -0.9903,2.15818 -2.21559,2.15818"/>
   <path id="svg_11" fill="#A03A2B" d="m121.1203,65.1195c0,14.57288 -11.90686,26.38638 -26.59491,26.38638s-26.59491,-11.8135 -26.59491,-26.38638s11.90686,-26.38638 26.59491,-26.38638s26.59491,11.81365 26.59491,26.38638"/>
   <path  id="svg_12" fill="#962B23" d="m67.93048,65.1195c0,1.28295 0.12407,2.53557 0.30261,3.76948l52.58446,0c0.17854,-1.23392 0.30261,-2.48653 0.30261,-3.76948c0,-1.28295 -0.12407,-2.53557 -0.30261,-3.76948l-52.58446,0c-0.17854,1.23392 -0.30261,2.48668 -0.30261,3.76948"/>
  </g>
 </g>
</svg>