<svg width="80%" height="80%"  viewBox="0 0 128 128" xmlns="http://www.w3.org/2000/svg">
    <g>
        <title>vacant_lot</title>
        <ellipse ry="58" rx="58" id="svg_5" cy="64.91071" cx="65.28571" fill="#702727"/>
        <ellipse id="svg_6" ry="46.5" rx="46.5" cy="65.5" cx="66.00001" fill="#bfbfbf"/>
        <g id="svg_4">
            <path id="svg_3" d="m26.30626,56.50875c0,0 14.07422,-29.71224 14.07422,-29.71224c0,0 48.47786,0 48.47786,-0.7086c0,-0.7086 14.85612,31.20274 14.85612,30.49414c0,-0.7086 -77.4082,-0.0733 -77.4082,-0.0733z" fill="#b2b2b2"/>
            <rect fill="#cece94" x="23.17866" y="60.49156" width="78.1901" height="25.02083" id="svg_2"/>
            <path fill="#222" id="svg_1" d="m107.74703,41.39141c-0.65677,0 -1.33279,0.10067 -2.00942,0.29944l-2.54518,0.74699l-3.74975,-9.7288c-2.10213,-5.45398 -8.31579,-9.89102 -13.85162,-9.89102l-41.15514,0c-5.53523,0 -11.74949,4.43769 -13.85102,9.89167l-3.74312,9.71085l-2.48438,-0.72904c-0.67663,-0.19877 -1.35266,-0.29944 -2.00942,-0.29944c-3.30187,0 -5.69897,2.52309 -5.69897,5.99899c0,3.43166 2.35134,6.32087 5.53824,7.18841c-1.74756,5.14044 -3.10562,12.84564 -3.10562,17.90785l0,20.70217c0,4.41973 3.37532,8.0149 7.52478,8.0149l2.75888,0c4.14946,0 7.52478,-3.59517 7.52478,-8.0149l0,-3.8728l56.24624,0l0,3.8728c0,4.41973 3.37532,8.0149 7.52478,8.0149l2.76009,0c4.14946,0 7.52478,-3.59517 7.52478,-8.0149l0,-20.70217c0,-5.05708 -1.35567,-12.75202 -3.10021,-17.89246c3.2182,-0.84638 5.60024,-3.75097 5.60024,-7.20379c-0.0006,-3.47654 -2.3971,-5.99964 -5.69897,-5.99964l0.00001,-0.00001zm-76.22726,8.07837l6.11675,-15.87207c1.25754,-3.26239 4.99525,-5.93167 8.30616,-5.93167l38.14342,0c3.31091,0 7.04861,2.66928 8.30616,5.93167l6.11675,15.87207c1.25754,3.26239 -0.42259,5.93167 -3.7335,5.93167l-59.52224,0c-3.31091,0 -4.99104,-2.66928 -3.7335,-5.93167zm16.21741,25.80862c0,1.76328 -1.35446,3.20596 -3.00991,3.20596l-12.48392,0c-1.65545,0 -3.00991,-1.44269 -3.00991,-3.20596l0,-5.3033c0,-1.76328 1.35446,-3.20596 3.00991,-3.20596l12.48392,0c1.65545,0 3.00991,1.44269 3.00991,3.20596l0,5.3033zm52.9209,0c0,1.76328 -1.35446,3.20596 -3.00991,3.20596l-12.48271,0c-1.65545,0 -3.00991,-1.44269 -3.00991,-3.20596l0,-5.3033c0,-1.76328 1.35446,-3.20596 3.00991,-3.20596l12.48271,0c1.65545,0 3.00991,1.44269 3.00991,3.20596l0,5.3033z"/>
        </g>
        <rect transform="rotate(-43.83086395263672 65.53509521484378,67.1913070678711) " id="svg_7" height="14" width="108.7335" y="60.19131" x="11.16834" fill="#702727"/>
    </g>
</svg>