<svg width="100%" height="100%"  viewBox="0 0 128 128" xmlns="http://www.w3.org/2000/svg">
 <g>
  <title>Walcart</title>
   <g id="cart">
    <circle id="svg_20" r="6.29447" cy="102.96008" cx="110.1953" fill="#ccc"/>
    <circle id="svg_19" r="5.90726" cy="102.89416" cx="62.1411" fill="#ccc"/>
    <path id="svg_18" d="m23.57813,32.7946c16.16298,0.25608 91.23898,-1.56207 91.23898,0.46094c0,2.02301 3.46044,44.17339 -0.76899,47.23351c-4.22943,3.06013 -68.0127,1.6517 -73.01112,-1.16515" fill="#777"/>
    <g id="grocery">
     <path fill="#222" d="m120.25607,81.2316l0,-46.69966c0,-2.089 -1.84169,-3.78214 -4.11397,-3.78214l-86.24214,0l-2.50816,-6.34095c-0.59104,-1.49478 -2.13652,-2.48991 -3.86623,-2.48991l-10.68993,0c-2.27229,0 -4.11397,1.69313 -4.11397,3.78214s1.84169,3.78214 4.11397,3.78214l7.80878,0l26.15482,66.12764c0.59104,1.4952 2.13652,2.48991 3.86623,2.48991l3.12251,0c-0.84794,1.34728 -1.33612,2.90888 -1.33612,4.57428c0,5.05293 4.47189,9.16453 9.96862,9.16453c5.49673,0 9.96907,-4.11118 9.96907,-9.16453c0,-1.6654 -0.48819,-3.227 -1.33612,-4.57428l30.60156,0c-0.84794,1.34728 -1.33612,2.90888 -1.33612,4.57428c0,5.05293 4.47189,9.16453 9.96862,9.16453c5.49673,0 9.96907,-4.11118 9.96907,-9.16453c0,-1.94486 -0.66463,-3.74935 -1.79278,-5.23447c1.08243,-0.6812 1.79278,-1.82467 1.79278,-3.12194c0,-2.089 -1.84169,-3.78214 -4.11397,-3.78214l-62.59548,0l-2.18452,-5.52275l64.77954,0c2.27229,0 4.11397,-1.69313 4.11397,-3.78214l-0.00003,-0.00001zm-57.83561,23.04327c-0.95993,0 -1.74067,-0.71776 -1.74067,-1.60026s0.78074,-1.60069 1.74067,-1.60069s1.74113,0.71818 1.74113,1.60069s-0.78166,1.60026 -1.74113,1.60026zm47.86654,0c-0.95993,0 -1.74067,-0.71776 -1.74067,-1.60026s0.78074,-1.60069 1.74067,-1.60069s1.74113,0.7186 1.74113,1.60111s-0.7812,1.59984 -1.74113,1.59984zm-43.75256,-42.52503l0,-7.73614l19.89563,0l0,7.73614l-19.89563,0zm19.89563,7.56426l0,8.13537l-19.89563,0l0,-8.13537l19.89563,0zm-44.2659,-7.55712l-3.06262,-7.74329l19.20494,0l0,7.73614l-15.98736,0c-0.05256,0 -0.1033,0.00546 -0.15496,0.00714l0,0.00001zm24.37027,-15.30755l0,-8.13537l19.89563,0l0,8.13495l-19.89563,0l0,0.00042zm28.12358,7.56426l17.37011,0l0,7.73614l-17.37011,0l0,-7.73614zm17.37011,-7.56426l-17.37011,0l0,-8.13537l17.37011,0l0,8.13537zm-53.72164,-8.13537l0,8.13495l-22.19671,0l-3.21758,-8.13495l25.4143,0l-0.00001,0zm-13.15375,31.00004l13.15329,0l0,8.13537l-9.93525,0l-3.21804,-8.13537zm49.50527,8.13537l0,-8.13537l17.37011,0l0,8.13537l-17.37011,0z" id="svg_2"/>
     <rect id="svg_14" height="21.35742" width="9.9668" y="30.51954" x="76.33985" fill="#999"/>
     <g id="svg_13">
       <path fill="#91ada6" d="m51.21175,42.19955l0.08322,-5.5818l3.82631,-3.70325l19.95144,0.24688l3.553,2.9626l0,6.17208l-27.41397,-0.09651z" id="svg_11"/>
       <path fill="#488264" d="m84.00864,36.27436c-0.79218,-3.67108 1.14871,-9.07033 8.28244,-11.75388l-0.2733,-11.35662l8.74584,0c0,0 -0.08322,11.26011 -0.08322,11.26011c0.2733,0.24688 8.47254,2.22195 8.47254,12.09727c0,0 -25.14429,-0.24688 -25.14429,-0.24688z" id="svg_10"/>
       <rect fill="#844444" x="92.20786" y="9.3641" width="8.74584" height="3.95013" id="svg_8"/>
       <rect fill="#cccccc" x="52.03167" y="28.12721" width="26.51083" height="4.69078" id="svg_9"/>
       <rect fill="#843232" x="84.28195" y="36.52124" width="24.59766" height="20.73817" id="svg_7"/>
       <rect fill="#bcbc91" x="52.03167" y="42.44643" width="27.05743" height="13.33168" id="svg_6"/>
       <g id="svg_1">
        <path fill="#c1ac99" d="m46.83882,79.72577l-0.46339,-32.73894c0,0 8.116,6.56933 8.38931,6.56933c0.2733,0 8.74584,-5.67831 8.55575,-5.82868c-0.19009,-0.15037 8.38931,6.07556 8.19922,5.92519c-0.19009,-0.15037 8.38931,-5.77483 8.19922,-5.92519c-0.19009,-0.15037 8.93593,5.82868 8.74584,5.67831c-0.19009,-0.15037 8.116,-5.52794 7.92592,-5.67831c-0.19009,-0.15037 9.20923,5.82868 9.01914,5.67831c-0.19009,-0.15037 8.38931,-5.28106 8.19922,-5.43142c-0.19009,-0.15037 0.19009,31.50451 0,31.35415c-0.19009,-0.15037 -66.77023,0.39725 -66.77023,0.39725l0,-0.00001z" id="svg_5"/>
        <path d="m114.71405,46.70816c-0.56538,-0.18108 -1.20532,-0.08602 -1.6406,0.25338l-2.68947,2.06448l0,-14.8247c0,-4.1489 -3.21107,-7.94842 -8.07895,-9.69124l0,-10.21141c0.18683,-0.18918 0.35057,-0.39706 0.35057,-0.65388l0,-4.45028c0,-0.6414 -0.67034,-1.16033 -1.50725,-1.16033l-0.35057,0l-8.69052,0l-0.36071,0c-0.83164,0 -1.50401,0.51892 -1.50401,1.16033l0,4.45028c0,0.25931 0.169,0.47467 0.35746,0.66572l0,10.19739c-4.87436,1.73723 -8.07814,5.53549 -8.07814,9.69155l0,13.43217l-0.88109,-0.67445c-0.27357,-0.21006 -0.68939,-0.30605 -1.10115,-0.31478l0,-8.77557c0,-1.63687 -0.9512,-3.08019 -2.4078,-4.10495c1.41201,-0.62489 2.4078,-1.7528 2.4078,-3.09048c0,-1.98718 -2.1083,-3.60972 -4.69239,-3.60972l-21.12872,0c-2.59302,0 -4.70293,1.62066 -4.70293,3.60972c0,1.33767 0.99578,2.46278 2.4086,3.08798c-1.45781,1.02725 -2.4086,2.47057 -2.4086,4.10745l0,10.6677l-2.0552,-1.57983c-0.43609,-0.33597 -1.07765,-0.43228 -1.6418,-0.25121c-0.56213,0.17235 -0.92892,0.5931 -0.92892,1.06901l0,32.49739c0,0.64203 0.6748,1.16282 1.50564,1.16282l67.18207,0c0.83002,0 1.50077,-0.5158 1.50725,-1.15784l0.06161,-32.50237c0,-0.46469 -0.37205,-0.88949 -0.93215,-1.06434l-0.00002,0.00001zm-2.13747,32.41479l-64.17445,0l0,-28.55544l1.61709,1.24386l1.50564,1.16189l1.50401,1.15659l1.14656,0.88419c0.56538,0.42978 1.56399,0.42978 2.12775,0l7.36564,-5.66795l7.36564,5.66795c0.56538,0.42978 1.56562,0.42978 2.12815,0l4.36249,-3.35976l1.50482,-1.16158l1.47645,-1.13165l0.02756,0.02369l1.98874,1.52405l3.00721,2.31038l1.94253,1.49132l0.38462,0.29609c0.56538,0.44443 1.56562,0.43072 2.12612,0l0.3915,-0.29609l6.97739,-5.37561l6.98549,5.37561l0.38462,0.29609c0.56538,0.43072 1.56562,0.43072 2.12612,0l0.38462,-0.29609l0.1301,0l0,-0.09631l3.01126,-2.32191l2.24285,-1.72476l-0.04053,28.55544l0.00001,0zm-59.55095,-48.45155c0,-0.71433 0.75789,-1.29154 1.69004,-1.29154l21.12832,0c0.93054,0 1.68355,0.57689 1.68355,1.29154c0,0.71433 -0.75261,1.29497 -1.68355,1.29497l-21.12872,0c-0.92892,0.00187 -1.68964,-0.58064 -1.68964,-1.29497zm4.28589,3.9005l15.93621,0c2.36159,0 4.28306,1.47761 4.28306,3.29742l0,3.38656l-24.50191,0l0,-3.38656c-0.00325,-1.81981 1.91457,-3.29742 4.28264,-3.29742zm-4.28589,8.99312l24.50191,0l0,4.81305l-5.42799,4.17507l-7.27608,-5.59908c-0.56578,-0.43228 -1.7403,-0.43228 -2.30689,0l-7.27852,5.59908l-2.21204,-1.69983l0,-7.28831l-0.0004,0l0,0.00001zm40.58605,-33.21889l5.68574,0l0,2.13865l-5.68574,0l0,-2.13865zm-8.07895,23.85022c0,-3.46634 2.85199,-6.61698 7.09776,-7.83777c0.59617,-0.16986 0.98119,-0.59996 0.98119,-1.0846l0,-10.47166l5.68574,0l0,10.47135c0,0.48464 0.3915,0.91505 0.97593,1.08241c4.25062,1.22765 7.10262,4.37579 7.10262,7.84026l0,1.30214l-21.84323,0l0,-1.30214l0,0.00001zm0,3.61906l21.84323,0l0,13.5266l-1.57899,1.21144l-7.27608,-5.59908c-0.57186,-0.43228 -1.75934,-0.43228 -2.31783,0l-7.27122,5.59908l-3.38939,-2.60771l0,-12.13003l-0.00973,0l0,-0.00031l0,0.00001z" id="svg_3" fill="#333"/>
       </g>
      </g>
      <path d="m103.5668,59.33503l-0.00689,0c-0.83164,0 -1.50401,0.5158 -1.50401,1.15161l-0.01134,4.86977l-0.00648,2.30913l-0.01945,5.55793l-44.13391,0l0,-5.55793l0,-1.16033l0,-1.15659l0,-4.86479c0,-0.63548 -0.67398,-1.15628 -1.50482,-1.15628c-0.83002,0 -1.50564,0.5208 -1.50564,1.15628l0,4.48768l0,1.23763l0,1.16033l0,7.01559c0,0.6358 0.67561,1.1594 1.50564,1.1594l47.14275,0c0.83002,0 1.50036,-0.5158 1.50725,-1.1594l0.01945,-6.71952l0.00486,-2.30913l0.0231,-4.86137c-0.00689,-0.63954 -0.68412,-1.16002 -1.5105,-1.16002l-0.00001,0z" id="svg_4" fill="#999"/>
     </g>
    </g>
   </g>
</svg>