<svg width="90%" height="90%"  viewBox="0 0 128 128" xmlns="http://www.w3.org/2000/svg">
 <g transform="translate(-64,48)">
  <title>Waste</title>
  <path id="svg_5" d="m17.48829,123.78028c0,0 -0.94922,-53.15625 -1.11426,-53.30079c-0.16504,-0.14454 70.64454,0.14454 70.47949,0c-0.16505,-0.14454 20.57325,24.11231 20.4082,23.96777c-0.16505,-0.14454 3.72462,28.85841 3.55957,28.71387c-0.16505,-0.14454 -93.333,0.61915 -93.333,0.61915z" stroke-linecap="null" stroke-linejoin="null" stroke-dasharray="null" stroke-width="null" fill="#4c4c4c"/>
  <rect id="svg_31" height="40" width="20" y="50" x="20" fill="#777"/>
  <rect id="svg_32" height="40" width="20" y="50.71191" x="54.06738" fill="#555"/>
  ((SVGRoot)diagram.getRoot()).getPresAbsolute("viewBox").getIntList()[3]  <rect id="svg_10" height="25.5" width="26.25" y="84.25001" x="69.875" fill="#7f7f7f"/>
  <rect id="svg_30" height="25.5" width="26.25" y="84.745" x="31.745" fill="#666666"/>
  <g id="svg_1">
   <path id="svg_3" fill="#333" d="m30.75,81.253l0,29.8l27.8,0l0,-29.8l-27.8,0zm18.53334,19.86667l-9.26667,0l0,-9.93333l9.26667,0l0,9.93333z"/>
  </g>
  <g id="svg_7">
   <path fill="#333" id="svg_9" d="m115.8888,119.29308l-0.05932,-17.81824l-14.0418,-26.72737l-13.98247,-8.90912l-9.3612,0l0,-17.81825l0,-17.81825l-9.3612,0l0,17.81825l-9.3612,0l0,-26.72737l-9.3612,0l0,26.72737l0,17.81825l-9.3612,0l0,-17.81825l-9.3612,0c0.06334,-5.93942 0.3167,-22.66868 0.19002,-44.79288l-10.50132,27.649l0.9501,17.14388l-9.3612,0l0,71.27298c-10.26587,-0.26101 -1.1481,6.19258 -1.1481,8.65442c109.49019,-0.45721 104.9395,0.63502 104.9395,-1.82682l-0.81821,-6.8276zm-40.21081,0l-53.40117,0l0,-62.36386l9.3612,0l0,17.81825l28.08359,0l0,-17.81825l9.3612,0l0.2373,17.81825l13.68585,0.35595l18.9597,21.56089l4.56194,22.39147z"/>
  </g>
  <g id="svg_24"/>
  <rect id="svg_29" height="0" width="0.75" y="115.745" x="-128.005" fill="#CCC"/>
  <rect id="svg_32" height="0.75" width="0" y="401.495" x="159.995" fill="#def2f2"/>
  <g id="svg_4">
   <path id="svg_6" fill="#333" d="m69.09998,81.1l0,29.8l27.8,0l0,-29.8l-27.8,0zm18.53334,19.86667l-9.26667,0l0,-9.93333l9.26667,0l0,9.93333z"/>
  </g>
  <path id="svg_8" d="m-68.41601,9.63672c0.47461,0 78.78516,17.32324 78.62011,17.17871l-78.62011,-17.17871z" fill="#444"/>
 </g>
</svg>