<svg width="80%" height="80%"  viewBox="0 0 128 128" xmlns="http://www.w3.org/2000/svg">
 <g>
  <title>Waste</title>
  <rect id="svg_27" height="58" width="90" y="70" x="20" fill="#777"/>
  <rect id="svg_31" height="40" width="20" y="50" x="20" fill="#777"/>
  <rect id="svg_32" height="40" width="20" y="50" x="60" fill="#555"/>
  <rect id="svg_33" height="40" width="20" y="50" x="90" fill="#444"/>
  <rect id="svg_10" height="25.5" width="26.25" y="84.25001" x="69.875" fill="#aaa"/>
  <rect id="svg_30" height="25.5" width="26.25" y="84.745" x="31.745" fill="#aaa"/>
  <g id="svg_1">
    <path id="svg_3" fill="#333" d="m30.75,81.253l0,29.8l27.8,0l0,-29.8l-27.8,0zm18.53334,19.86667l-9.26667,0l0,-9.93333l9.26667,0l0,9.93333z"/>
  </g>
  <g id="svg_7">
    <path fill="#333" id="svg_9" d="m120.5694,118.08286l-4.6806,0.26101l0,-71.27298l-28.08359,0l0,17.81825l-9.3612,0l0,-17.81825l0,-17.81825l-9.3612,0l0,17.81825l-9.3612,0l0,-26.72737l-9.3612,0l0,26.72737l0,17.81825l-9.3612,0l0,-17.81825l-9.3612,0c0.06334,-5.93942 0.3167,-22.66868 0.19002,-44.79288l-10.50132,27.649l0.9501,17.14388l-9.3612,0l0,71.27298c-10.26587,-0.26101 -10.16568,6.42988 -10.16568,8.89172l117.81945,0.0174c2.58676,0 4.6806,-1.99272 4.6806,-4.45456c0,-2.46184 -2.09384,-4.71557 -4.6806,-4.71557zm-14.0418,0.26101l-84.25078,0l0,-62.36386l9.3612,0l0,17.81825l28.08359,0l0,-17.81825l9.3612,0l0,17.81825l28.08359,0l0,-17.81825l9.3612,0l0,62.36386z"/>
  </g>
  <g id="svg_24"/>
  <rect id="svg_29" height="0" width="0.75" y="115.745" x="-128.005" fill="#CCC"/>
  <rect id="svg_32" height="0.75" width="0" y="401.495" x="159.995" fill="#def2f2"/>
  <g id="svg_4">
    <path id="svg_6" fill="#333" d="m69.09998,81.1l0,29.8l27.8,0l0,-29.8l-27.8,0zm18.53334,19.86667l-9.26667,0l0,-9.93333l9.26667,0l0,9.93333z"/>
   </g>
 </g>
</svg>