<svg width="100%" height="100%"  viewBox="0 0 128 128" xmlns="http://www.w3.org/2000/svg">
 <g>
  <title>wastelandtrain</title>
  <path d="m16.59259,60.80523l0,-36.17395c0,-4.43968 3.59901,-8.03869 8.03869,-8.03869l30.14501,0c4.43932,0 8.03851,3.59901 8.03851,8.03869l0,36.17395l-46.22222,0z" fill="#FFDB80" id="svg_1"/>
  <path d="m62.81482,24.63129l0,36.17395l-23.11111,0l0,-44.21264l15.07242,0c4.4395,0 8.03869,3.59901 8.03869,8.03869z" fill="#FFEB99" id="svg_2"/>
  <path d="m16.59259,30.66022l0,-6.02893c0,-4.43968 3.59901,-8.03869 8.03869,-8.03869l30.14501,0c4.43932,0 8.03851,3.59901 8.03851,8.03869l0,6.02893l-46.22222,0z" fill="#D15D39" id="svg_3"/>
  <path d="m82.91137,58.79547l0,-20.09656c-2.21993,0 -4.01935,-1.79942 -4.01935,-4.01935l0,0c0,-2.21993 1.79942,-4.01935 4.01935,-4.01935l12.05804,0c2.21993,0 4.01935,1.79942 4.01935,4.01935l0,0c0,2.21993 -1.79942,4.01935 -4.01935,4.01935l0,20.09656l-12.05804,0z" fill="#967A56" id="svg_4"/>
  <path d="m25.21701,98.98876l-0.5859,0c-4.4395,0 -8.03851,-3.59919 -8.03851,-8.03869l0,-36.17395l84.40575,0c4.4395,0 8.03869,3.59919 8.03869,8.03869l0,28.13525c0,4.4395 -3.59901,8.03869 -8.03869,8.03869l-75.78134,0z" fill="#B79969" id="svg_5"/>
  <path d="m109.03704,70.85351l0,20.09656c0,4.4395 -3.59901,8.03869 -8.03869,8.03869l-75.78134,0l-0.5859,0c-4.4395,0 -8.03851,-3.59919 -8.03851,-8.03869l0,-20.09656l92.44445,0z" fill="#4C443B" id="svg_6"/>
  <path d="m24.63129,92.95983c0,-8.87936 7.19803,-16.07721 16.07721,-16.07721s16.07721,7.19803 16.07721,16.07721s-7.19785,16.07721 -16.07721,16.07721s-16.07721,-7.19803 -16.07721,-16.07721zm66.31878,16.07721c5.54956,0 10.04828,-4.4989 10.04828,-10.04828s-4.4989,-10.04828 -10.04828,-10.04828s-10.04828,4.4989 -10.04828,10.04828s4.49872,10.04828 10.04828,10.04828z" fill="#7A9390" id="svg_7"/>
  <path d="m34.67956,92.95983c0,-3.32981 2.69913,-6.02893 6.02893,-6.02893s6.02893,2.69913 6.02893,6.02893s-2.69913,6.02893 -6.02893,6.02893s-6.02893,-2.69913 -6.02893,-6.02893zm56.2705,10.04828c2.21993,0 4.01935,-1.79942 4.01935,-4.01935s-1.79942,-4.01935 -4.01935,-4.01935c-2.21993,0 -4.01935,1.79942 -4.01935,4.01935s1.79942,4.01935 4.01935,4.01935z" fill="#EAB250" id="svg_8"/>
 </g>
</svg>