<svg width="100%" height="100%" viewBox="0 0 128 128" xmlns="http://www.w3.org/2000/svg">
 <g id="WaterTowers">
   <title>WaterTower</title>
  <g>
   <rect x="40" y="20" width="48" height="52" id="tower_shell" fill="#777"/>
   <path d="m90.578373,117.460907l-0.617813,0l-4.754485,-43.545766l4.815932,0c1.475403,0 2.671622,-0.978962 2.671622,-2.186403c0,-1.161527 -1.107387,-2.108513 -2.504645,-2.17957l0,-45.973767c1.397258,-0.070785 2.504645,-1.018043 2.504645,-2.17957c0,-1.207441 -1.196219,-2.186403 -2.671622,-2.186403l-1.692472,0l-23.425782,-12.839651c-0.001336,-0.00082 -0.002672,-0.001366 -0.004007,-0.001914c-0.071466,-0.039082 -0.144935,-0.074884 -0.220075,-0.107954c-0.004007,-0.001639 -0.007681,-0.003826 -0.011688,-0.005466c-0.071132,-0.030883 -0.144268,-0.058487 -0.218405,-0.083903c-0.158294,-0.054387 -0.320595,-0.095108 -0.484565,-0.123258c-0.010353,-0.001914 -0.020705,-0.004373 -0.031058,-0.006286c-0.058442,-0.009293 -0.117551,-0.015304 -0.176327,-0.021317c-0.027384,-0.003006 -0.0541,-0.007379 -0.081818,-0.009566c-0.043414,-0.003553 -0.086828,-0.003826 -0.130242,-0.005466c-0.04308,-0.001639 -0.086828,-0.004646 -0.130576,-0.004646c-0.026382,0 -0.052431,0.002187 -0.078813,0.002733c-0.060779,0.001366 -0.121893,0.003006 -0.182672,0.007652c-0.007013,0.000546 -0.014026,0.001914 -0.020705,0.00246c-0.266828,0.023231 -0.531319,0.08035 -0.785123,0.171632c-0.060779,0.021864 -0.121559,0.043729 -0.180668,0.069418c-0.007681,0.00328 -0.015028,0.007652 -0.022709,0.010932c-0.071466,0.031703 -0.141596,0.065592 -0.209722,0.102761c-0.001336,0.00082 -0.003006,0.001366 -0.004341,0.002187l-23.425782,12.839651l-1.692472,0c-1.475403,0 -2.671622,0.978962 -2.671622,2.186403c0,1.161527 1.107387,2.108513 2.504645,2.17957l0,45.97404c-1.397258,0.070785 -2.504645,1.018043 -2.504645,2.17957c0,1.207441 1.196219,2.186403 2.671622,2.186403l5.291481,0l-5.209662,43.545766l-0.638184,0c-1.475403,0 -2.671622,0.978962 -2.671622,2.186403s1.196219,2.186403 2.671622,2.186403l3.061011,0c0.001002,0 0.002338,0 0.00334,0c0.001002,0 0.002338,0 0.00334,0l3.054666,0c1.475403,0 2.671622,-0.978962 2.671622,-2.186403s-1.196219,-2.186403 -2.671622,-2.186403l-0.115214,0l0.936737,-7.829508l20.217832,-9.209129l20.33004,9.260236l0.849242,7.778402l-0.140594,0c-1.475403,0 -2.671622,0.978962 -2.671622,2.186403s1.196219,2.186403 2.671622,2.186403l3.054999,0c0.001002,0 0.002338,0 0.00334,0c0.001336,0 0.002338,0 0.003673,0l3.060343,0c1.475403,0 2.671622,-0.978962 2.671622,-2.186403s-1.196219,-2.186676 -2.671622,-2.186676l-0.000002,0zm-44.130516,-34.982447l34.32867,0l0.523304,4.793688l-17.883168,8.145717l-17.560236,-7.998682l0.59143,-4.940724l0,0.000001zm-1.407611,-12.936126c-0.002004,0 -0.003673,0 -0.005677,0l-3.046317,0l0,-45.960101l42.857488,0l0,45.960101l-2.523681,0c-0.001002,0 -0.00167,0 -0.002672,0l-37.279142,0l0.000001,0zm18.37675,-58.724322l15.310062,8.391414l-30.620125,0l15.310062,-8.391414l0.000001,0zm16.424463,63.097127l0.457515,4.190515l-33.328148,0l0.501263,-4.190515l32.369369,0l0.000001,0zm-36.00912,30.42325l1.456368,-12.173345l12.634433,5.754886l-14.090801,6.418459zm25.077846,-6.418459l12.910278,-5.880603l1.351507,12.37668l-14.261785,-6.496077z" fill="#333" id="svg_1"/>
   <path id="svg_2" d="m92.937494,117.006162l-0.669586,0l-5.15291,-43.9217l5.219506,0c1.599041,0 2.895503,-0.987414 2.895503,-2.205278c0,-1.171554 -1.200186,-2.126716 -2.714534,-2.198386l0,-46.370663c1.514348,-0.071396 2.714534,-1.026832 2.714534,-2.198386c0,-1.217865 -1.296462,-2.205278 -2.895503,-2.205278l-1.834301,0l-25.388856,-12.950496c-0.001448,-0.000827 -0.002896,-0.001378 -0.004343,-0.00193c-0.077455,-0.03942 -0.157081,-0.075531 -0.238517,-0.108886c-0.004343,-0.001654 -0.008325,-0.003859 -0.012667,-0.005513c-0.077093,-0.031149 -0.156358,-0.058992 -0.236707,-0.084627c-0.171559,-0.054856 -0.347461,-0.095929 -0.525171,-0.124322c-0.011221,-0.00193 -0.02244,-0.004411 -0.033661,-0.00634c-0.063339,-0.009373 -0.127402,-0.015436 -0.191103,-0.021501c-0.029679,-0.003032 -0.058634,-0.007443 -0.088674,-0.009648c-0.047052,-0.003584 -0.094104,-0.003859 -0.141156,-0.005513c-0.04669,-0.001654 -0.094104,-0.004686 -0.141518,-0.004686c-0.028593,0 -0.056825,0.002206 -0.085418,0.002756c-0.065872,0.001378 -0.132108,0.003032 -0.19798,0.007718c-0.007601,0.000551 -0.015201,0.00193 -0.02244,0.002481c-0.289188,0.023431 -0.575843,0.081044 -0.850916,0.173114c-0.065872,0.022053 -0.131746,0.044106 -0.195808,0.070017c-0.008325,0.003308 -0.016287,0.007718 -0.024612,0.011027c-0.077455,0.031977 -0.153462,0.066158 -0.227297,0.103649c-0.001448,0.000827 -0.003258,0.001378 -0.004705,0.002206l-25.388856,12.950496l-1.834301,0c-1.599041,0 -2.895503,0.987414 -2.895503,2.205278c0,1.171554 1.200186,2.126716 2.714534,2.198386l0,46.370938c-1.514348,0.071396 -2.714534,1.026832 -2.714534,2.198386c0,1.217865 1.296462,2.205278 2.895503,2.205278l5.734906,0l-5.64623,43.9217l-0.691664,0c-1.599041,0 -2.895503,0.987414 -2.895503,2.205278s1.296462,2.205278 2.895503,2.205278l3.317523,0c0.001086,0 0.002534,0 0.00362,0c0.001086,0 0.002534,0 0.00362,0l3.310646,0c1.599041,0 2.895503,-0.987414 2.895503,-2.205278s-1.296462,-2.205278 -2.895503,-2.205278l-0.124869,0l1.015235,-7.897101l21.912081,-9.288633l22.033692,9.34018l0.920408,7.845553l-0.152376,0c-1.599041,0 -2.895503,0.987414 -2.895503,2.205278s1.296462,2.205278 2.895503,2.205278l3.311007,0c0.001086,0 0.002534,0 0.00362,0c0.001448,0 0.002534,0 0.003981,0l3.316799,0c1.599041,0 2.895503,-0.987414 2.895503,-2.205278s-1.296462,-2.205554 -2.895503,-2.205554l-0.000002,0zm-47.828642,-35.284453l37.205403,0l0.567157,4.835073l-19.381773,8.21604l-19.031779,-8.067735l0.640992,-4.983378l0,0.000001zm-1.525568,-13.047805c-0.002172,0 -0.003981,0 -0.006153,0l-3.301598,0l0,-46.356879l46.448934,0l0,46.356879l-2.735165,0c-0.001086,0 -0.00181,0 -0.002896,0l-40.403124,0l0.000001,0zm19.916717,-59.231293l16.593041,8.463858l-33.186083,0l16.593041,-8.463858l0.000001,0zm17.800829,63.64185l0.495855,4.226692l-36.121038,0l0.543269,-4.226692l35.081914,0l0.000001,0zm-39.026675,30.685896l1.578411,-12.278438l13.693195,5.804568l-15.271606,6.473871zm27.179363,-6.473871l13.992156,-5.931371l1.464763,12.483529l-15.456919,-6.552158z" fill="#333"/>
  </g>
 </g>
</svg>