<svg width="100%" height="100%" viewBox="0 0 128 128" xmlns="http://www.w3.org/2000/svg" xmlns:svg="http://www.w3.org/2000/svg">
 <!-- Created with Method Draw - http://github.com/duopixel/Method-Draw/ -->
 <g>
  <title>WaterTowers</title>
  <!--<ellipse stroke="#00aeff" ry="63.385249" rx="63.180331" id="svg_6" cy="64.122946" cx="63.540987" stroke-width="6" fill="#ccc"/>-->
  <!--<path transform="rotate(-0.1100064367055893 64.42299652099443,90.67524719238321) " id="svg_15" d="m51.609685,126.512102c-15.44919,-3.891335 -26.52265,-16.255983 -24.0061,-26.805266c1.58687,-6.652118 35.06568,-47.035146 37.98944,-45.823883c0.95427,0.395334 9.44614,9.810318 18.87081,20.922174c15.09734,17.80003 17.13576,21.119184 17.13576,27.902068c0,13.748623 -16.41484,25.010303 -36.12426,24.783671c-5.75148,-0.06614 -11.99103,-0.506586 -13.86565,-0.978757l0,0l0,-0.000007zm15.47834,-6.915044c0.51137,-1.779958 -0.68317,-2.648039 -3.64395,-2.648039c-6.74792,0 -16.10838,-5.728871 -18.19965,-11.138701c-2.23081,-5.770817 -8.1457,-6.457138 -9.01936,-1.04654c-1.68323,10.424288 28.02722,24.703638 30.86295,14.833279l0.00001,0l0,0.000001z" stroke-width="4" fill="#00aeff"/>-->
  <rect fill="#888" id="tower_shell" height="32" width="48" y="20" x="40"/>
  <rect fill="#5f87af" id="water_level" height="32" width="48" y="40" x="40"/>
  <path id="svg_1" fill="#333" d="m91.578373,116.574166l-0.617813,0l-4.754485,-42.417969l4.815932,0c1.475403,0 2.671622,-0.953608 2.671622,-2.129777c0,-1.131444 -1.107387,-2.053904 -2.504645,-2.123121l0,-44.783087c1.397258,-0.068952 2.504645,-0.991677 2.504645,-2.123121c0,-1.176169 -1.196219,-2.129777 -2.671622,-2.129777l-1.692472,0l-23.425782,-12.507115c-0.001336,-0.000799 -0.002672,-0.001331 -0.004007,-0.001864c-0.071466,-0.03807 -0.144935,-0.072945 -0.220075,-0.105158c-0.004007,-0.001597 -0.007681,-0.003727 -0.011688,-0.005324c-0.071132,-0.030083 -0.144268,-0.056972 -0.218405,-0.08173c-0.158294,-0.052978 -0.320595,-0.092645 -0.484565,-0.120066c-0.010353,-0.001864 -0.020705,-0.00426 -0.031058,-0.006123c-0.058442,-0.009052 -0.117551,-0.014908 -0.176327,-0.020765c-0.027384,-0.002928 -0.0541,-0.007188 -0.081818,-0.009318c-0.043414,-0.003461 -0.086828,-0.003727 -0.130242,-0.005324c-0.04308,-0.001597 -0.086828,-0.004526 -0.130576,-0.004526c-0.026382,0 -0.052431,0.00213 -0.078813,0.002662c-0.060779,0.001331 -0.121893,0.002928 -0.182672,0.007454c-0.007013,0.000532 -0.014026,0.001864 -0.020705,0.002396c-0.266828,0.022629 -0.531319,0.078269 -0.785123,0.167187c-0.060779,0.021298 -0.121559,0.042596 -0.180668,0.06762c-0.007681,0.003195 -0.015028,0.007454 -0.022709,0.010649c-0.071466,0.030882 -0.141596,0.063893 -0.209722,0.1001c-0.001336,0.000799 -0.003006,0.001331 -0.004341,0.00213l-23.425782,12.507115l-1.692472,0c-1.475403,0 -2.671622,0.953608 -2.671622,2.129777c0,1.131444 1.107387,2.053904 2.504645,2.123121l0,44.783353c-1.397258,0.068952 -2.504645,0.991677 -2.504645,2.123121c0,1.176169 1.196219,2.129777 2.671622,2.129777l5.291481,0l-5.209662,42.417969l-0.638184,0c-1.475403,0 -2.671622,0.953608 -2.671622,2.129777s1.196219,2.129777 2.671622,2.129777l3.061011,0c0.001002,0 0.002338,0 0.00334,0c0.001002,0 0.002338,0 0.00334,0l3.054666,0c1.475403,0 2.671622,-0.953608 2.671622,-2.129777s-1.196219,-2.129777 -2.671622,-2.129777l-0.115214,0l0.936737,-7.626731l20.217832,-8.970621l20.33004,9.020404l0.849242,7.576948l-0.140594,0c-1.475403,0 -2.671622,0.953608 -2.671622,2.129777s1.196219,2.129777 2.671622,2.129777l3.054999,0c0.001002,0 0.002338,0 0.00334,0c0.001336,0 0.002338,0 0.003673,0l3.060343,0c1.475403,0 2.671622,-0.953608 2.671622,-2.129777s-1.196219,-2.130043 -2.671622,-2.130043zm-44.130516,-34.076432l34.32867,0l0.523304,4.669536l-17.883168,7.93475l-17.560236,-7.791523l0.59143,-4.812764zm-1.407611,-12.601092c-0.002004,0 -0.003673,0 -0.005677,0l-3.046317,0l0,-44.769775l42.857488,0l0,44.769775l-2.523681,0c-0.001002,0 -0.00167,0 -0.002672,0l-37.279142,0zm18.37675,-57.203413l15.310062,8.174084l-30.620125,0l15.310062,-8.174084zm16.424463,61.462967l0.457515,4.081984l-33.328148,0l0.501263,-4.081984l32.369369,0zm-36.00912,29.635314l1.456368,-11.858066l12.634433,5.605839l-14.090801,6.252227zm25.077846,-6.252227l12.910278,-5.728301l1.351507,12.056135l-14.261785,-6.327834z"/>
 </g>
</svg>