<svg width="100%" height="100%"  viewBox="0 0 192 192" xmlns="http://www.w3.org/2000/svg">
 <g>
  <title>WaterPark</title>
  <g id="svg_1">
   <path d="m199.525586,127.071002l-45.736971,0c-4.474463,0 -8.102275,-3.627813 -8.102275,-8.102275c0,-4.474463 3.627813,-8.102275 8.102275,-8.102275l45.736971,0c4.474463,0 8.102275,3.627813 8.102275,8.102275c0,4.474463 -3.62733,8.102275 -8.102275,8.102275z" fill="#96b1cc" id="svg_2"/>
   <path d="m199.525586,153.952031l-45.736971,0c-4.474463,0 -8.102275,-3.627813 -8.102275,-8.102275s3.627813,-8.102275 8.102275,-8.102275l45.736971,0c4.474463,0 8.102275,3.627813 8.102275,8.102275s-3.62733,8.102275 -8.102275,8.102275z" fill="#96b1cc" id="svg_3"/>
   <path d="m199.525586,180.833061l-45.736971,0c-4.474463,0 -8.102275,-3.627813 -8.102275,-8.102275s3.627813,-8.102275 8.102275,-8.102275l45.736971,0c4.474463,0 8.102275,3.627812 8.102275,8.102275s-3.62733,8.102275 -8.102275,8.102275z" fill="#96b1cc" id="svg_4"/>
   <path d="m199.525586,207.715055l-45.736971,0c-4.474463,0 -8.102275,-3.627812 -8.102275,-8.102275s3.627813,-8.102275 8.102275,-8.102275l45.736971,0c4.474463,0 8.102275,3.627812 8.102275,8.102275s-3.62733,8.102275 -8.102275,8.102275z" fill="#96b1cc" id="svg_5"/>
  </g>
  <path d="m199.525586,250.810283c-4.474463,0 -8.102275,-3.627813 -8.102275,-8.102275l0,-198.60585c0,-3.36634 -2.739191,-6.105531 -6.105531,-6.105531l-63.058811,0c-3.36634,0 -6.105531,2.739191 -6.105531,6.105531l0,198.60585c0,4.474463 -3.627812,8.102275 -8.102275,8.102275c-4.474463,0 -8.102275,-3.627813 -8.102275,-8.102275l0,-198.60585c0,-12.301758 10.008324,-22.310082 22.310082,-22.310082l63.058811,0c12.301758,0 22.310082,10.008324 22.310082,22.310082l0,198.60585c0,4.474945 -3.62733,8.102275 -8.102275,8.102275z" fill="#3f3f3f" id="svg_11"/>
  <path d="m153.788133,250.810283c-4.474463,0 -8.102275,-3.627813 -8.102275,-8.102275l0,-159.967234c0,-4.474463 3.627813,-8.102275 8.102275,-8.102275s8.102275,3.627813 8.102275,8.102275l0,159.967234c0,4.474945 -3.62733,8.102275 -8.102275,8.102275z" fill="#3E3E42" id="svg_13"/>
  <path d="m199.525586,218.391533l-25.103305,0l0,16.204551l25.103305,0c4.474463,0 8.102275,-3.627813 8.102275,-8.102275s-3.62733,-8.102275 -8.102275,-8.102275z" fill="#B5750E" id="svg_14"/>
  <path d="m250.72502,236.64107c1.687029,-9.396131 -4.563229,-18.380273 -13.959359,-20.06682c-16.115785,-2.892602 -68.242434,-16.496416 -115.710816,-34.835201c-26.408256,-10.202258 -47.219936,-20.212994 -61.858062,-29.754334c-16.906475,-11.020445 -20.622088,-18.381721 -20.626912,-20.28777c-0.063197,-24.55865 45.1571,-32.304416 75.8729,-32.891041l90.183945,0c4.943377,0 8.951338,-4.007479 8.951338,-8.951338l0,-14.226621c0,-4.943377 -4.007479,-8.951338 -8.951338,-8.951338l-90.195523,0c-17.02515,0.236387 -29.623598,-0.323705 -54.712912,6.508836c-14.967139,4.075982 -26.985715,10.443469 -35.996873,17.958637c-12.942414,10.79226 -19.76193,24.846656 -19.721406,40.641148c0.044383,17.178078 11.924504,33.258646 36.319613,49.159754c16.653686,10.854975 39.624686,21.971422 68.276686,33.041074c50.239896,19.409279 104.288996,33.424117 122.0619,36.614373c1.032865,0.18525 2.059941,0.27498 3.07351,0.27498c8.209373,0 15.492979,-5.871074 16.993311,-14.23434z" fill="#9d2217" id="svg_15"/>
 </g>
</svg>