<svg width="100%" height="100%"  viewBox="0 0 128 128" xmlns="http://www.w3.org/2000/svg">
 <!-- Created with Method Draw - http://github.com/duopixel/Method-Draw/ -->
 <g>
  <title>Layer 1</title>
  <ellipse stroke="#000" ry="63.385249" rx="63.180331" id="svg_6" cy="64.122946" cx="63.540987" stroke-width="1.5" fill="#efeae6"/>
  <path stroke="#000" transform="rotate(-0.1100064367055893 63.39900207519934,64.17240905761778) " id="svg_15" d="m50.585679,112.178625c-15.449184,-5.212743 -26.522648,-21.776131 -24.006095,-35.907701c1.586863,-8.911027 35.065673,-63.007177 37.989433,-61.384596c0.954276,0.529586 9.446144,13.141668 18.870817,28.026855c15.097334,23.844498 17.135759,28.29076 17.135759,37.376949c0,18.41733 -16.414842,33.503212 -36.124261,33.199621c-5.751486,-0.088604 -11.991034,-0.67861 -13.865653,-1.311124l0,-0.000003zm15.478337,-9.26324c0.511375,-2.38439 -0.68317,-3.547247 -3.643949,-3.547247c-6.747918,0 -16.108376,-7.674259 -18.199645,-14.921138c-2.230816,-7.730452 -8.145703,-8.649833 -9.019363,-1.401921c-1.683228,13.964134 28.027219,33.09241 30.862954,19.870306l0.000004,0z" stroke-opacity="null" stroke-width="1.5" fill="#00aeff"/>
 </g>
</svg>