<svg width="100%" height="100%"  viewBox="0 0 128 128" xmlns="http://www.w3.org/2000/svg">
 <g>
  <title>Wolf</title>
  <path d="m51.5976,30.96387c-9.13134,-19.60797 -26.60111,-22.58081 -27.34037,-22.69782l-3.66543,-0.57987l-0.3826,3.69136c-0.08342,0.806 -1.88592,19.97546 11.97793,40.72581l19.41047,-21.13948z" fill="#87868A" id="svg_1"/>
  <path d="m35.84332,44.68546c-6.81074,-11.68596 -8.35826,-22.48928 -8.64774,-28.24512c4.84817,1.91907 12.95708,6.61054 18.02528,17.49321l-9.37754,10.75191z" fill="#333333" id="svg_2"/>
  <path d="m76.40139,30.96387c9.13157,-19.60775 26.60111,-22.58059 27.34037,-22.6976l3.66566,-0.58009l0.38237,3.69136c0.08342,0.806 1.88615,19.97546 -11.97793,40.72559l-19.41047,-21.13926" fill="#515053" id="svg_3"/>
  <path d="m92.1559,44.68546c6.81074,-11.68574 8.35826,-22.48928 8.64752,-28.2449c-4.84817,1.91907 -12.95708,6.61054 -18.02506,17.49299l9.37754,10.75191" fill="#1F1F1F" id="svg_4"/>
  <path d="m63.99961,123.1187c-9.47291,0 -15.36673,-1.71345 -19.11062,-5.55564c-3.52926,-3.62147 -4.44844,-8.50436 -5.42172,-13.67357c-1.6005,-8.50165 -3.59261,-19.08221 -17.90918,-30.13803l-3.78628,-2.92369l3.91952,-2.74197c3.37798,-2.36321 5.6341,-8.02775 8.02301,-14.02483c2.5217,-6.33075 5.37979,-13.50628 10.38803,-19.137c5.96371,-6.70501 13.78066,-9.9644 23.89724,-9.9644s17.9333,3.25939 23.89724,9.96462c5.00801,5.63049 7.86632,12.80602 10.38803,19.137c2.38869,5.99708 4.64481,11.66162 8.02279,14.02483l3.91952,2.74197l-3.78628,2.92369c-14.31656,11.05537 -16.30845,21.63616 -17.90918,30.13803c-0.97329,5.16944 -1.89269,10.05187 -5.42172,13.67357c-3.74367,3.84196 -9.63771,5.55542 -19.11039,5.55542" fill="#87868A" id="svg_5"/>
  <g id="svg_6">
   <path d="m47.67808,68.01568c0,-2.58348 2.07102,-4.67547 4.61595,-4.67547c2.54808,0 4.61888,2.09221 4.61888,4.67547c0,2.58303 -2.0708,4.67727 -4.61888,4.67727c-2.54493,-0.00023 -4.61595,-2.09424 -4.61595,-4.67727z" fill="#333333" id="svg_7"/>
   <path d="m80.32114,68.01568c0,-2.60242 -2.08432,-4.71222 -4.65044,-4.71222c-2.56973,0 -4.65382,2.10957 -4.65382,4.71222s2.08432,4.71222 4.65382,4.71222c2.56612,-0.00023 4.65044,-2.1098 4.65044,-4.71222" fill="#333333" id="svg_8"/>
   <path d="m63.99961,108.22633c-3.57029,0 -6.76182,-2.80465 -7.96823,-4.01038c-1.21114,-1.21046 -4.02796,-4.4171 -4.02796,-8.04082c0,-2.9645 1.4765,-5.21836 4.1576,-6.34631c1.78717,-0.75189 4.05817,-1.05873 7.83882,-1.05873c3.78042,0 6.05119,0.30684 7.83836,1.05873c2.6811,1.12817 4.1576,3.38204 4.1576,6.34631c0,3.62372 -2.81705,6.83036 -4.02819,8.04082c-1.20641,1.20573 -4.39771,4.01038 -7.968,4.01038" fill="#333333" id="svg_9"/>
   <path d="m60.4823,123.0301c1.11465,0.05884 2.28498,0.0886 3.51731,0.0886c1.23233,0 2.40266,-0.02953 3.51731,-0.0886l0,-16.37519l-7.03439,0l-0.00023,16.37519" fill="#333333" id="svg_10"/>
  </g>
  <path d="m64.67868,24.96453c0.00068,0 0.00248,0 0.00338,0c-0.00113,0 -0.00248,0 -0.00338,0m-0.06313,-0.0009c0.00225,0 0.00406,0 0.00631,0c-0.0018,0 -0.00428,0 -0.00631,0m-0.06335,-0.0009c0.00316,0 0.00767,0 0.01082,0.00023c-0.00338,0 -0.00721,0 -0.01082,-0.00023m-0.06245,-0.00068c0.00428,0 0.00947,0 0.01375,0.00023c-0.00473,0 -0.00947,-0.00023 -0.01375,-0.00023m-0.06245,-0.00045c0.00541,0 0.0124,0 0.01804,0.00023c-0.00631,-0.00023 -0.01195,-0.00023 -0.01804,-0.00023m-0.0611,-0.00068c0.00609,0 0.01195,0 0.01804,0.00023c-0.00609,0 -0.01195,0 -0.01804,-0.00023m-0.06155,-0.00023c0.00676,0 0.0133,0 0.02007,0c-0.00676,0 -0.0133,0 -0.02007,0m-0.06087,-0.00045c0.00676,0 0.01263,0 0.01939,0c-0.00654,0 -0.01285,0 -0.01939,0m-0.06177,-0.00023c0.00721,0 0.01533,0 0.02255,0c-0.00744,0 -0.01533,0 -0.02255,0m-0.06065,-0.00023c0.00721,0 0.01488,0 0.02232,0c-0.00767,0 -0.01511,0 -0.02232,0m-0.06132,0c0.00676,0 0.01398,0 0.02097,0c-0.00699,0 -0.01353,0 -0.02097,0m43.73517,-13.52792c0,0.00113 0.00023,0.00248 0.00045,0.00383c0,-0.00158 0,-0.00271 -0.00045,-0.00383m-0.00225,-0.02525c0.00068,0.00654 0.00135,0.01353 0.00203,0.02142c-0.00068,-0.00744 -0.00135,-0.01488 -0.00203,-0.02142m-0.00203,-0.02119c0.00068,0.00609 0.00135,0.01308 0.00203,0.02097c-0.0009,-0.00789 -0.00158,-0.01465 -0.00203,-0.02097m-0.00045,-0.00406c0,0.0009 0.00023,0.0018 0.00023,0.00248c0,-0.00068 -0.00023,-0.00158 -0.00023,-0.00248m-4.05975,-3.11352l0,0l0,0m0.00857,-0.00135c-0.00113,0.00023 -0.00248,0.00045 -0.00406,0.00068c0.00113,-0.00023 0.00271,-0.00045 0.00406,-0.00068m3.66814,-0.58032l-3.66543,0.57987c-0.00068,0 -0.00135,0.00023 -0.00203,0.00023c0.00068,0 0.00135,-0.00023 0.00203,-0.00023l3.66543,-0.57987l0.38237,3.69136l0,0l0,0l-0.38237,-3.69136" fill="#999999" id="svg_11"/>
  <path d="m75.67047,72.72767c-2.56973,0 -4.65382,-2.10957 -4.65382,-4.71222s2.08432,-4.71222 4.65382,-4.71222c2.56634,0 4.65044,2.10957 4.65044,4.71222c0.00023,2.60264 -2.0841,4.71222 -4.65044,4.71222m-11.67086,-47.7681l0,63.81051c3.78042,0 6.05119,0.30684 7.83836,1.05873c2.6811,1.12817 4.1576,3.38181 4.1576,6.34631c0,3.62372 -2.81705,6.83036 -4.02819,8.04082c-0.78706,0.78661 -2.41935,2.25432 -4.45069,3.17913l0,15.63502c-1.11442,0.05884 -2.28475,0.0886 -3.51731,0.0886c9.47291,0 15.36673,-1.71345 19.11062,-5.55564c3.52926,-3.62147 4.44844,-8.50436 5.42172,-13.67357c1.6005,-8.50165 3.59239,-19.08221 17.90918,-30.13803l3.78628,-2.92369l-3.91952,-2.74197c-3.37798,-2.36321 -5.6341,-8.02775 -8.02279,-14.02483l0,0c-0.46286,-1.16222 -0.93766,-2.35329 -1.43456,-3.55789l0,0c-1.06144,-2.57401 -2.22613,-5.20979 -3.60321,-7.76396c-1.4889,-2.76181 -3.22602,-5.42713 -5.35025,-7.81492c-1.18702,-1.33469 -2.44776,-2.53298 -3.78515,-3.59599c-1.85526,-1.4747 -3.8582,-2.68922 -6.01895,-3.64807c-0.00068,0.0009 -0.00023,0.00068 -0.0009,0.00158c-3.93057,-1.74434 -8.38081,-2.64277 -13.40979,-2.71717c-0.00068,0 -0.00248,0 -0.00338,0c-0.01894,-0.00023 -0.03765,-0.00045 -0.05681,-0.00068c-0.00225,0 -0.00406,0 -0.00631,0c-0.01759,-0.00023 -0.03495,-0.00045 -0.05276,-0.00068c-0.00316,0 -0.00767,0 -0.01082,-0.00023c-0.01646,-0.00023 -0.03247,-0.00045 -0.0487,-0.00045c-0.00428,0 -0.00947,0 -0.01375,-0.00023c-0.01488,-0.00023 -0.02953,-0.00023 -0.04464,-0.00045c-0.00564,0 -0.0124,0 -0.01804,-0.00023c-0.01398,0 -0.02886,-0.00023 -0.04306,-0.00045c-0.00609,0 -0.01195,0 -0.01804,-0.00023c-0.01375,0 -0.02751,-0.00023 -0.04148,-0.00023c-0.00676,0 -0.0133,0 -0.02007,0c-0.01353,0 -0.02796,-0.00023 -0.04148,-0.00023c-0.00676,0 -0.01263,0 -0.01939,0c-0.0133,0 -0.02593,0 -0.03923,-0.00023c-0.00721,0 -0.01533,0 -0.02255,0c-0.01285,0 -0.02548,0 -0.03855,0c-0.00721,0 -0.01488,0 -0.02232,0c-0.0133,0 -0.02705,0 -0.04036,0c-0.00676,0 -0.01398,0 -0.02097,0c-0.01916,-0.00068 -0.03968,-0.00068 -0.05975,-0.00068l0,0" fill="#515053" id="svg_12"/>
  <path d="m71.8382,89.82859c-1.7874,-0.75189 -4.05817,-1.05873 -7.83836,-1.05873l0,17.88505l0,16.46379c1.23233,0 2.40266,-0.02953 3.51731,-0.0886l0,-15.63502c2.03134,-0.92481 3.66363,-2.39252 4.45069,-3.17913c1.21114,-1.21046 4.02819,-4.4171 4.02819,-8.04082c-0.00045,-2.9645 -1.47695,-5.21836 -4.15783,-6.34653z" fill="#1F1F1F" id="svg_13"/>
 </g>
</svg>