 <svg width="100%" height="100%"  viewBox="0 0 128 128" xmlns="http://www.w3.org/2000/svg">
     <g>
         <title>ZombieZoo</title>
         <rect fill="#d8d888" x="8.28572" y="7.91071" width="108.99999" height="115.99999" id="svg_2"/>
         <path id="svg_1" d="m82.02262,66.84854c-4.09088,-1.63708 -5.72434,-6.13632 -5.72434,-6.13632s-1.84306,1.01911 -1.84306,-1.84306s1.84306,1.84306 3.68613,-9.2081c0,0 5.10999,-1.4347 4.09088,-13.29898l-1.22871,0c0,0 3.06816,-12.68462 0,-16.98149c-3.07177,-4.29687 -4.29687,-7.15904 -11.05116,-9.2081s-4.29326,-1.64069 -9.20448,-1.43109c-4.91123,0.20599 -9.00572,2.86217 -9.00572,4.29326c0,0 -3.06816,0.20599 -4.29326,1.4347c-1.22871,1.22871 -3.27415,6.95305 -3.27415,8.38775s1.02272,11.05116 2.04544,13.0966l-1.21787,0.40837c-1.02272,11.86428 4.09088,13.29898 4.09088,13.29898c1.83945,11.05116 3.68252,6.34593 3.68252,9.2081s-1.84306,1.84306 -1.84306,1.84306s-1.63346,4.49925 -5.72434,6.13632c-4.09088,1.63346 -26.80033,10.42958 -28.64701,12.27264c-1.84668,1.84668 -1.63708,10.43681 -1.63708,10.43681l97.38249,0c0,0 0.21322,-8.59013 -1.63346,-10.43681c-1.85029,-1.84306 -24.55974,-10.63918 -28.65063,-12.27264zm-45.06475,-0.62158c-0.35777,-0.65049 -0.53485,-1.12029 -0.53485,-1.12029s-1.56118,0.86371 -1.56118,-1.56118s1.56118,1.56118 3.12237,-7.80231c0,0 4.33301,-1.21425 3.46568,-11.27161l-1.04079,0c0,0 0.51678,-2.13579 0.85648,-4.82088c-0.01446,-1.11307 0.02168,-2.29841 0.13371,-3.5994l0.13733,-1.5395c-0.07589,-1.77802 -0.38668,-3.39341 -1.12752,-4.43058c-2.60197,-3.63915 -3.64276,-6.06766 -9.36349,-7.80231c-5.72073,-1.73465 -3.64276,-1.39133 -7.80231,-1.21425c-4.16316,0.17346 -7.63246,2.4249 -7.63246,3.64276c0,0 -2.60197,0.17346 -3.64276,1.21425c-0.97935,0.97935 -2.54777,5.28345 -2.73569,6.81211l0,1.01549c0.16985,2.35985 0.93237,8.85033 1.6949,10.37899l-1.03356,0.34693c-0.86371,10.05735 3.46568,11.27161 3.46568,11.27161c1.56118,9.36349 3.12237,5.37741 3.12237,7.80231s-1.56118,1.56118 -1.56118,1.56118s-1.38411,3.81984 -4.8534,5.20033c-0.22045,0.08673 -0.50233,0.20238 -0.83841,0.33247l0,18.91491l2.07797,0c-0.1048,-4.6185 0.27827,-10.57775 2.69593,-12.98819c1.28653,-1.28292 5.5039,-3.39341 22.95519,-10.34285zm80.69734,-32.72705c-0.14455,-1.36604 -0.45896,-2.5839 -1.05525,-3.4187c-2.59836,-3.64276 -3.64276,-6.06766 -9.35988,-7.80231c-5.72434,-1.73465 -3.64276,-1.39133 -7.80592,-1.21425c-4.15954,0.17346 -7.62884,2.4249 -7.62884,3.64276c0,0 -2.59836,0.17346 -3.64276,1.21425c-0.97935,0.98297 -2.56222,5.31959 -2.7393,6.8338l0.11926,0l0.28911,3.29945c0.07228,0.8348 0.0795,1.57564 0.09757,2.33094c0.32525,2.40683 0.75891,4.8787 1.19257,5.74241l-1.03356,0.34693c-0.86371,10.05735 3.4693,11.27161 3.4693,11.27161c1.56118,9.36349 3.11876,5.37741 3.11876,7.80231s-1.56118,1.56118 -1.56118,1.56118s-0.19153,0.51317 -0.58906,1.22148c17.23808,6.86632 21.41931,8.96236 22.69138,10.24166c2.42128,2.41044 2.80074,8.36607 2.69593,12.98819l1.73465,0l0,-19.1751c-0.05782,-0.02168 -0.13733,-0.05421 -0.18792,-0.07589c-3.46568,-1.38411 -4.8534,-5.20033 -4.8534,-5.20033s-1.5648,0.86371 -1.5648,-1.56118s1.5648,1.56118 3.12237,-7.80231c0,0 2.90554,-0.82757 3.48014,-6.6531l0,-4.4342c-0.00361,-0.06505 -0.00361,-0.11926 -0.01084,-0.18431l-1.0444,0c0,0 0.77698,-3.21633 1.05525,-6.72538l0,-4.24989l0.01084,0z" fill="#333333"/>
         <text font-weight="bold" transform="matrix(1.7238101461433917,0,0,1.3173603301921477,-52.07231633016948,-30.726500749861138) " xml:space="preserve" text-anchor="middle" font-family="Serif" font-size="24" id="svg_3" y="112.41257" x="65.29994" stroke-width="1" stroke="#333" fill="#3f3f3f">ZOO</text>
     </g>
 </svg>